G04 #@! TF.GenerationSoftware,KiCad,Pcbnew,(5.1.0)-1*
G04 #@! TF.CreationDate,2019-04-01T22:48:46-04:00*
G04 #@! TF.ProjectId,prop_support,70726f70-5f73-4757-9070-6f72742e6b69,A*
G04 #@! TF.SameCoordinates,Original*
G04 #@! TF.FileFunction,Soldermask,Bot*
G04 #@! TF.FilePolarity,Negative*
%FSLAX46Y46*%
G04 Gerber Fmt 4.6, Leading zero omitted, Abs format (unit mm)*
G04 Created by KiCad (PCBNEW (5.1.0)-1) date 2019-04-01 22:48:46*
%MOMM*%
%LPD*%
G04 APERTURE LIST*
%ADD10C,0.100000*%
G04 APERTURE END LIST*
D10*
G36*
X225397564Y-156516389D02*
G01*
X225588833Y-156595615D01*
X225588835Y-156595616D01*
X225760973Y-156710635D01*
X225907365Y-156857027D01*
X226022385Y-157029167D01*
X226101611Y-157220436D01*
X226142000Y-157423484D01*
X226142000Y-157630516D01*
X226101611Y-157833564D01*
X226022385Y-158024833D01*
X226022384Y-158024835D01*
X225907365Y-158196973D01*
X225760973Y-158343365D01*
X225588835Y-158458384D01*
X225588834Y-158458385D01*
X225588833Y-158458385D01*
X225397564Y-158537611D01*
X225194516Y-158578000D01*
X224987484Y-158578000D01*
X224784436Y-158537611D01*
X224593167Y-158458385D01*
X224593166Y-158458385D01*
X224593165Y-158458384D01*
X224421027Y-158343365D01*
X224274635Y-158196973D01*
X224159616Y-158024835D01*
X224159615Y-158024833D01*
X224080389Y-157833564D01*
X224040000Y-157630516D01*
X224040000Y-157423484D01*
X224080389Y-157220436D01*
X224159615Y-157029167D01*
X224274635Y-156857027D01*
X224421027Y-156710635D01*
X224593165Y-156595616D01*
X224593167Y-156595615D01*
X224784436Y-156516389D01*
X224987484Y-156476000D01*
X225194516Y-156476000D01*
X225397564Y-156516389D01*
X225397564Y-156516389D01*
G37*
G36*
X137132564Y-156516389D02*
G01*
X137323833Y-156595615D01*
X137323835Y-156595616D01*
X137495973Y-156710635D01*
X137642365Y-156857027D01*
X137757385Y-157029167D01*
X137836611Y-157220436D01*
X137877000Y-157423484D01*
X137877000Y-157630516D01*
X137836611Y-157833564D01*
X137757385Y-158024833D01*
X137757384Y-158024835D01*
X137642365Y-158196973D01*
X137495973Y-158343365D01*
X137323835Y-158458384D01*
X137323834Y-158458385D01*
X137323833Y-158458385D01*
X137132564Y-158537611D01*
X136929516Y-158578000D01*
X136722484Y-158578000D01*
X136519436Y-158537611D01*
X136328167Y-158458385D01*
X136328166Y-158458385D01*
X136328165Y-158458384D01*
X136156027Y-158343365D01*
X136009635Y-158196973D01*
X135894616Y-158024835D01*
X135894615Y-158024833D01*
X135815389Y-157833564D01*
X135775000Y-157630516D01*
X135775000Y-157423484D01*
X135815389Y-157220436D01*
X135894615Y-157029167D01*
X136009635Y-156857027D01*
X136156027Y-156710635D01*
X136328165Y-156595616D01*
X136328167Y-156595615D01*
X136519436Y-156516389D01*
X136722484Y-156476000D01*
X136929516Y-156476000D01*
X137132564Y-156516389D01*
X137132564Y-156516389D01*
G37*
G36*
X203299564Y-156516389D02*
G01*
X203490833Y-156595615D01*
X203490835Y-156595616D01*
X203662973Y-156710635D01*
X203809365Y-156857027D01*
X203924385Y-157029167D01*
X204003611Y-157220436D01*
X204044000Y-157423484D01*
X204044000Y-157630516D01*
X204003611Y-157833564D01*
X203924385Y-158024833D01*
X203924384Y-158024835D01*
X203809365Y-158196973D01*
X203662973Y-158343365D01*
X203490835Y-158458384D01*
X203490834Y-158458385D01*
X203490833Y-158458385D01*
X203299564Y-158537611D01*
X203096516Y-158578000D01*
X202889484Y-158578000D01*
X202686436Y-158537611D01*
X202495167Y-158458385D01*
X202495166Y-158458385D01*
X202495165Y-158458384D01*
X202323027Y-158343365D01*
X202176635Y-158196973D01*
X202061616Y-158024835D01*
X202061615Y-158024833D01*
X201982389Y-157833564D01*
X201942000Y-157630516D01*
X201942000Y-157423484D01*
X201982389Y-157220436D01*
X202061615Y-157029167D01*
X202176635Y-156857027D01*
X202323027Y-156710635D01*
X202495165Y-156595616D01*
X202495167Y-156595615D01*
X202686436Y-156516389D01*
X202889484Y-156476000D01*
X203096516Y-156476000D01*
X203299564Y-156516389D01*
X203299564Y-156516389D01*
G37*
G36*
X198299564Y-156516389D02*
G01*
X198490833Y-156595615D01*
X198490835Y-156595616D01*
X198662973Y-156710635D01*
X198809365Y-156857027D01*
X198924385Y-157029167D01*
X199003611Y-157220436D01*
X199044000Y-157423484D01*
X199044000Y-157630516D01*
X199003611Y-157833564D01*
X198924385Y-158024833D01*
X198924384Y-158024835D01*
X198809365Y-158196973D01*
X198662973Y-158343365D01*
X198490835Y-158458384D01*
X198490834Y-158458385D01*
X198490833Y-158458385D01*
X198299564Y-158537611D01*
X198096516Y-158578000D01*
X197889484Y-158578000D01*
X197686436Y-158537611D01*
X197495167Y-158458385D01*
X197495166Y-158458385D01*
X197495165Y-158458384D01*
X197323027Y-158343365D01*
X197176635Y-158196973D01*
X197061616Y-158024835D01*
X197061615Y-158024833D01*
X196982389Y-157833564D01*
X196942000Y-157630516D01*
X196942000Y-157423484D01*
X196982389Y-157220436D01*
X197061615Y-157029167D01*
X197176635Y-156857027D01*
X197323027Y-156710635D01*
X197495165Y-156595616D01*
X197495167Y-156595615D01*
X197686436Y-156516389D01*
X197889484Y-156476000D01*
X198096516Y-156476000D01*
X198299564Y-156516389D01*
X198299564Y-156516389D01*
G37*
G36*
X181709564Y-156516389D02*
G01*
X181900833Y-156595615D01*
X181900835Y-156595616D01*
X182072973Y-156710635D01*
X182219365Y-156857027D01*
X182334385Y-157029167D01*
X182413611Y-157220436D01*
X182454000Y-157423484D01*
X182454000Y-157630516D01*
X182413611Y-157833564D01*
X182334385Y-158024833D01*
X182334384Y-158024835D01*
X182219365Y-158196973D01*
X182072973Y-158343365D01*
X181900835Y-158458384D01*
X181900834Y-158458385D01*
X181900833Y-158458385D01*
X181709564Y-158537611D01*
X181506516Y-158578000D01*
X181299484Y-158578000D01*
X181096436Y-158537611D01*
X180905167Y-158458385D01*
X180905166Y-158458385D01*
X180905165Y-158458384D01*
X180733027Y-158343365D01*
X180586635Y-158196973D01*
X180471616Y-158024835D01*
X180471615Y-158024833D01*
X180392389Y-157833564D01*
X180352000Y-157630516D01*
X180352000Y-157423484D01*
X180392389Y-157220436D01*
X180471615Y-157029167D01*
X180586635Y-156857027D01*
X180733027Y-156710635D01*
X180905165Y-156595616D01*
X180905167Y-156595615D01*
X181096436Y-156516389D01*
X181299484Y-156476000D01*
X181506516Y-156476000D01*
X181709564Y-156516389D01*
X181709564Y-156516389D01*
G37*
G36*
X176709564Y-156516389D02*
G01*
X176900833Y-156595615D01*
X176900835Y-156595616D01*
X177072973Y-156710635D01*
X177219365Y-156857027D01*
X177334385Y-157029167D01*
X177413611Y-157220436D01*
X177454000Y-157423484D01*
X177454000Y-157630516D01*
X177413611Y-157833564D01*
X177334385Y-158024833D01*
X177334384Y-158024835D01*
X177219365Y-158196973D01*
X177072973Y-158343365D01*
X176900835Y-158458384D01*
X176900834Y-158458385D01*
X176900833Y-158458385D01*
X176709564Y-158537611D01*
X176506516Y-158578000D01*
X176299484Y-158578000D01*
X176096436Y-158537611D01*
X175905167Y-158458385D01*
X175905166Y-158458385D01*
X175905165Y-158458384D01*
X175733027Y-158343365D01*
X175586635Y-158196973D01*
X175471616Y-158024835D01*
X175471615Y-158024833D01*
X175392389Y-157833564D01*
X175352000Y-157630516D01*
X175352000Y-157423484D01*
X175392389Y-157220436D01*
X175471615Y-157029167D01*
X175586635Y-156857027D01*
X175733027Y-156710635D01*
X175905165Y-156595616D01*
X175905167Y-156595615D01*
X176096436Y-156516389D01*
X176299484Y-156476000D01*
X176506516Y-156476000D01*
X176709564Y-156516389D01*
X176709564Y-156516389D01*
G37*
G36*
X159611564Y-156516389D02*
G01*
X159802833Y-156595615D01*
X159802835Y-156595616D01*
X159974973Y-156710635D01*
X160121365Y-156857027D01*
X160236385Y-157029167D01*
X160315611Y-157220436D01*
X160356000Y-157423484D01*
X160356000Y-157630516D01*
X160315611Y-157833564D01*
X160236385Y-158024833D01*
X160236384Y-158024835D01*
X160121365Y-158196973D01*
X159974973Y-158343365D01*
X159802835Y-158458384D01*
X159802834Y-158458385D01*
X159802833Y-158458385D01*
X159611564Y-158537611D01*
X159408516Y-158578000D01*
X159201484Y-158578000D01*
X158998436Y-158537611D01*
X158807167Y-158458385D01*
X158807166Y-158458385D01*
X158807165Y-158458384D01*
X158635027Y-158343365D01*
X158488635Y-158196973D01*
X158373616Y-158024835D01*
X158373615Y-158024833D01*
X158294389Y-157833564D01*
X158254000Y-157630516D01*
X158254000Y-157423484D01*
X158294389Y-157220436D01*
X158373615Y-157029167D01*
X158488635Y-156857027D01*
X158635027Y-156710635D01*
X158807165Y-156595616D01*
X158807167Y-156595615D01*
X158998436Y-156516389D01*
X159201484Y-156476000D01*
X159408516Y-156476000D01*
X159611564Y-156516389D01*
X159611564Y-156516389D01*
G37*
G36*
X154611564Y-156516389D02*
G01*
X154802833Y-156595615D01*
X154802835Y-156595616D01*
X154974973Y-156710635D01*
X155121365Y-156857027D01*
X155236385Y-157029167D01*
X155315611Y-157220436D01*
X155356000Y-157423484D01*
X155356000Y-157630516D01*
X155315611Y-157833564D01*
X155236385Y-158024833D01*
X155236384Y-158024835D01*
X155121365Y-158196973D01*
X154974973Y-158343365D01*
X154802835Y-158458384D01*
X154802834Y-158458385D01*
X154802833Y-158458385D01*
X154611564Y-158537611D01*
X154408516Y-158578000D01*
X154201484Y-158578000D01*
X153998436Y-158537611D01*
X153807167Y-158458385D01*
X153807166Y-158458385D01*
X153807165Y-158458384D01*
X153635027Y-158343365D01*
X153488635Y-158196973D01*
X153373616Y-158024835D01*
X153373615Y-158024833D01*
X153294389Y-157833564D01*
X153254000Y-157630516D01*
X153254000Y-157423484D01*
X153294389Y-157220436D01*
X153373615Y-157029167D01*
X153488635Y-156857027D01*
X153635027Y-156710635D01*
X153807165Y-156595616D01*
X153807167Y-156595615D01*
X153998436Y-156516389D01*
X154201484Y-156476000D01*
X154408516Y-156476000D01*
X154611564Y-156516389D01*
X154611564Y-156516389D01*
G37*
G36*
X220397564Y-156516389D02*
G01*
X220588833Y-156595615D01*
X220588835Y-156595616D01*
X220760973Y-156710635D01*
X220907365Y-156857027D01*
X221022385Y-157029167D01*
X221101611Y-157220436D01*
X221142000Y-157423484D01*
X221142000Y-157630516D01*
X221101611Y-157833564D01*
X221022385Y-158024833D01*
X221022384Y-158024835D01*
X220907365Y-158196973D01*
X220760973Y-158343365D01*
X220588835Y-158458384D01*
X220588834Y-158458385D01*
X220588833Y-158458385D01*
X220397564Y-158537611D01*
X220194516Y-158578000D01*
X219987484Y-158578000D01*
X219784436Y-158537611D01*
X219593167Y-158458385D01*
X219593166Y-158458385D01*
X219593165Y-158458384D01*
X219421027Y-158343365D01*
X219274635Y-158196973D01*
X219159616Y-158024835D01*
X219159615Y-158024833D01*
X219080389Y-157833564D01*
X219040000Y-157630516D01*
X219040000Y-157423484D01*
X219080389Y-157220436D01*
X219159615Y-157029167D01*
X219274635Y-156857027D01*
X219421027Y-156710635D01*
X219593165Y-156595616D01*
X219593167Y-156595615D01*
X219784436Y-156516389D01*
X219987484Y-156476000D01*
X220194516Y-156476000D01*
X220397564Y-156516389D01*
X220397564Y-156516389D01*
G37*
G36*
X115241564Y-156516389D02*
G01*
X115432833Y-156595615D01*
X115432835Y-156595616D01*
X115604973Y-156710635D01*
X115751365Y-156857027D01*
X115866385Y-157029167D01*
X115945611Y-157220436D01*
X115986000Y-157423484D01*
X115986000Y-157630516D01*
X115945611Y-157833564D01*
X115866385Y-158024833D01*
X115866384Y-158024835D01*
X115751365Y-158196973D01*
X115604973Y-158343365D01*
X115432835Y-158458384D01*
X115432834Y-158458385D01*
X115432833Y-158458385D01*
X115241564Y-158537611D01*
X115038516Y-158578000D01*
X114831484Y-158578000D01*
X114628436Y-158537611D01*
X114437167Y-158458385D01*
X114437166Y-158458385D01*
X114437165Y-158458384D01*
X114265027Y-158343365D01*
X114118635Y-158196973D01*
X114003616Y-158024835D01*
X114003615Y-158024833D01*
X113924389Y-157833564D01*
X113884000Y-157630516D01*
X113884000Y-157423484D01*
X113924389Y-157220436D01*
X114003615Y-157029167D01*
X114118635Y-156857027D01*
X114265027Y-156710635D01*
X114437165Y-156595616D01*
X114437167Y-156595615D01*
X114628436Y-156516389D01*
X114831484Y-156476000D01*
X115038516Y-156476000D01*
X115241564Y-156516389D01*
X115241564Y-156516389D01*
G37*
G36*
X110241564Y-156516389D02*
G01*
X110432833Y-156595615D01*
X110432835Y-156595616D01*
X110604973Y-156710635D01*
X110751365Y-156857027D01*
X110866385Y-157029167D01*
X110945611Y-157220436D01*
X110986000Y-157423484D01*
X110986000Y-157630516D01*
X110945611Y-157833564D01*
X110866385Y-158024833D01*
X110866384Y-158024835D01*
X110751365Y-158196973D01*
X110604973Y-158343365D01*
X110432835Y-158458384D01*
X110432834Y-158458385D01*
X110432833Y-158458385D01*
X110241564Y-158537611D01*
X110038516Y-158578000D01*
X109831484Y-158578000D01*
X109628436Y-158537611D01*
X109437167Y-158458385D01*
X109437166Y-158458385D01*
X109437165Y-158458384D01*
X109265027Y-158343365D01*
X109118635Y-158196973D01*
X109003616Y-158024835D01*
X109003615Y-158024833D01*
X108924389Y-157833564D01*
X108884000Y-157630516D01*
X108884000Y-157423484D01*
X108924389Y-157220436D01*
X109003615Y-157029167D01*
X109118635Y-156857027D01*
X109265027Y-156710635D01*
X109437165Y-156595616D01*
X109437167Y-156595615D01*
X109628436Y-156516389D01*
X109831484Y-156476000D01*
X110038516Y-156476000D01*
X110241564Y-156516389D01*
X110241564Y-156516389D01*
G37*
G36*
X92127564Y-156516389D02*
G01*
X92318833Y-156595615D01*
X92318835Y-156595616D01*
X92490973Y-156710635D01*
X92637365Y-156857027D01*
X92752385Y-157029167D01*
X92831611Y-157220436D01*
X92872000Y-157423484D01*
X92872000Y-157630516D01*
X92831611Y-157833564D01*
X92752385Y-158024833D01*
X92752384Y-158024835D01*
X92637365Y-158196973D01*
X92490973Y-158343365D01*
X92318835Y-158458384D01*
X92318834Y-158458385D01*
X92318833Y-158458385D01*
X92127564Y-158537611D01*
X91924516Y-158578000D01*
X91717484Y-158578000D01*
X91514436Y-158537611D01*
X91323167Y-158458385D01*
X91323166Y-158458385D01*
X91323165Y-158458384D01*
X91151027Y-158343365D01*
X91004635Y-158196973D01*
X90889616Y-158024835D01*
X90889615Y-158024833D01*
X90810389Y-157833564D01*
X90770000Y-157630516D01*
X90770000Y-157423484D01*
X90810389Y-157220436D01*
X90889615Y-157029167D01*
X91004635Y-156857027D01*
X91151027Y-156710635D01*
X91323165Y-156595616D01*
X91323167Y-156595615D01*
X91514436Y-156516389D01*
X91717484Y-156476000D01*
X91924516Y-156476000D01*
X92127564Y-156516389D01*
X92127564Y-156516389D01*
G37*
G36*
X87127564Y-156516389D02*
G01*
X87318833Y-156595615D01*
X87318835Y-156595616D01*
X87490973Y-156710635D01*
X87637365Y-156857027D01*
X87752385Y-157029167D01*
X87831611Y-157220436D01*
X87872000Y-157423484D01*
X87872000Y-157630516D01*
X87831611Y-157833564D01*
X87752385Y-158024833D01*
X87752384Y-158024835D01*
X87637365Y-158196973D01*
X87490973Y-158343365D01*
X87318835Y-158458384D01*
X87318834Y-158458385D01*
X87318833Y-158458385D01*
X87127564Y-158537611D01*
X86924516Y-158578000D01*
X86717484Y-158578000D01*
X86514436Y-158537611D01*
X86323167Y-158458385D01*
X86323166Y-158458385D01*
X86323165Y-158458384D01*
X86151027Y-158343365D01*
X86004635Y-158196973D01*
X85889616Y-158024835D01*
X85889615Y-158024833D01*
X85810389Y-157833564D01*
X85770000Y-157630516D01*
X85770000Y-157423484D01*
X85810389Y-157220436D01*
X85889615Y-157029167D01*
X86004635Y-156857027D01*
X86151027Y-156710635D01*
X86323165Y-156595616D01*
X86323167Y-156595615D01*
X86514436Y-156516389D01*
X86717484Y-156476000D01*
X86924516Y-156476000D01*
X87127564Y-156516389D01*
X87127564Y-156516389D01*
G37*
G36*
X70029564Y-156516389D02*
G01*
X70220833Y-156595615D01*
X70220835Y-156595616D01*
X70392973Y-156710635D01*
X70539365Y-156857027D01*
X70654385Y-157029167D01*
X70733611Y-157220436D01*
X70774000Y-157423484D01*
X70774000Y-157630516D01*
X70733611Y-157833564D01*
X70654385Y-158024833D01*
X70654384Y-158024835D01*
X70539365Y-158196973D01*
X70392973Y-158343365D01*
X70220835Y-158458384D01*
X70220834Y-158458385D01*
X70220833Y-158458385D01*
X70029564Y-158537611D01*
X69826516Y-158578000D01*
X69619484Y-158578000D01*
X69416436Y-158537611D01*
X69225167Y-158458385D01*
X69225166Y-158458385D01*
X69225165Y-158458384D01*
X69053027Y-158343365D01*
X68906635Y-158196973D01*
X68791616Y-158024835D01*
X68791615Y-158024833D01*
X68712389Y-157833564D01*
X68672000Y-157630516D01*
X68672000Y-157423484D01*
X68712389Y-157220436D01*
X68791615Y-157029167D01*
X68906635Y-156857027D01*
X69053027Y-156710635D01*
X69225165Y-156595616D01*
X69225167Y-156595615D01*
X69416436Y-156516389D01*
X69619484Y-156476000D01*
X69826516Y-156476000D01*
X70029564Y-156516389D01*
X70029564Y-156516389D01*
G37*
G36*
X65029564Y-156516389D02*
G01*
X65220833Y-156595615D01*
X65220835Y-156595616D01*
X65392973Y-156710635D01*
X65539365Y-156857027D01*
X65654385Y-157029167D01*
X65733611Y-157220436D01*
X65774000Y-157423484D01*
X65774000Y-157630516D01*
X65733611Y-157833564D01*
X65654385Y-158024833D01*
X65654384Y-158024835D01*
X65539365Y-158196973D01*
X65392973Y-158343365D01*
X65220835Y-158458384D01*
X65220834Y-158458385D01*
X65220833Y-158458385D01*
X65029564Y-158537611D01*
X64826516Y-158578000D01*
X64619484Y-158578000D01*
X64416436Y-158537611D01*
X64225167Y-158458385D01*
X64225166Y-158458385D01*
X64225165Y-158458384D01*
X64053027Y-158343365D01*
X63906635Y-158196973D01*
X63791616Y-158024835D01*
X63791615Y-158024833D01*
X63712389Y-157833564D01*
X63672000Y-157630516D01*
X63672000Y-157423484D01*
X63712389Y-157220436D01*
X63791615Y-157029167D01*
X63906635Y-156857027D01*
X64053027Y-156710635D01*
X64225165Y-156595616D01*
X64225167Y-156595615D01*
X64416436Y-156516389D01*
X64619484Y-156476000D01*
X64826516Y-156476000D01*
X65029564Y-156516389D01*
X65029564Y-156516389D01*
G37*
G36*
X132132564Y-156516389D02*
G01*
X132323833Y-156595615D01*
X132323835Y-156595616D01*
X132495973Y-156710635D01*
X132642365Y-156857027D01*
X132757385Y-157029167D01*
X132836611Y-157220436D01*
X132877000Y-157423484D01*
X132877000Y-157630516D01*
X132836611Y-157833564D01*
X132757385Y-158024833D01*
X132757384Y-158024835D01*
X132642365Y-158196973D01*
X132495973Y-158343365D01*
X132323835Y-158458384D01*
X132323834Y-158458385D01*
X132323833Y-158458385D01*
X132132564Y-158537611D01*
X131929516Y-158578000D01*
X131722484Y-158578000D01*
X131519436Y-158537611D01*
X131328167Y-158458385D01*
X131328166Y-158458385D01*
X131328165Y-158458384D01*
X131156027Y-158343365D01*
X131009635Y-158196973D01*
X130894616Y-158024835D01*
X130894615Y-158024833D01*
X130815389Y-157833564D01*
X130775000Y-157630516D01*
X130775000Y-157423484D01*
X130815389Y-157220436D01*
X130894615Y-157029167D01*
X131009635Y-156857027D01*
X131156027Y-156710635D01*
X131328165Y-156595616D01*
X131328167Y-156595615D01*
X131519436Y-156516389D01*
X131722484Y-156476000D01*
X131929516Y-156476000D01*
X132132564Y-156516389D01*
X132132564Y-156516389D01*
G37*
G36*
X240664239Y-149211467D02*
G01*
X240978282Y-149273934D01*
X241569926Y-149519001D01*
X242102392Y-149874784D01*
X242555216Y-150327608D01*
X242910999Y-150860074D01*
X243156066Y-151451718D01*
X243281000Y-152079804D01*
X243281000Y-152720196D01*
X243156066Y-153348282D01*
X242910999Y-153939926D01*
X242555216Y-154472392D01*
X242102392Y-154925216D01*
X241569926Y-155280999D01*
X240978282Y-155526066D01*
X240664239Y-155588533D01*
X240350197Y-155651000D01*
X239709803Y-155651000D01*
X239395761Y-155588533D01*
X239081718Y-155526066D01*
X238490074Y-155280999D01*
X237957608Y-154925216D01*
X237504784Y-154472392D01*
X237149001Y-153939926D01*
X236903934Y-153348282D01*
X236779000Y-152720196D01*
X236779000Y-152079804D01*
X236903934Y-151451718D01*
X237149001Y-150860074D01*
X237504784Y-150327608D01*
X237957608Y-149874784D01*
X238490074Y-149519001D01*
X239081718Y-149273934D01*
X239395761Y-149211467D01*
X239709803Y-149149000D01*
X240350197Y-149149000D01*
X240664239Y-149211467D01*
X240664239Y-149211467D01*
G37*
G36*
X38734239Y-149211467D02*
G01*
X39048282Y-149273934D01*
X39639926Y-149519001D01*
X40172392Y-149874784D01*
X40625216Y-150327608D01*
X40980999Y-150860074D01*
X41226066Y-151451718D01*
X41351000Y-152079804D01*
X41351000Y-152720196D01*
X41226066Y-153348282D01*
X40980999Y-153939926D01*
X40625216Y-154472392D01*
X40172392Y-154925216D01*
X39639926Y-155280999D01*
X39048282Y-155526066D01*
X38734239Y-155588533D01*
X38420197Y-155651000D01*
X37779803Y-155651000D01*
X37465761Y-155588533D01*
X37151718Y-155526066D01*
X36560074Y-155280999D01*
X36027608Y-154925216D01*
X35574784Y-154472392D01*
X35219001Y-153939926D01*
X34973934Y-153348282D01*
X34849000Y-152720196D01*
X34849000Y-152079804D01*
X34973934Y-151451718D01*
X35219001Y-150860074D01*
X35574784Y-150327608D01*
X36027608Y-149874784D01*
X36560074Y-149519001D01*
X37151718Y-149273934D01*
X37465761Y-149211467D01*
X37779803Y-149149000D01*
X38420197Y-149149000D01*
X38734239Y-149211467D01*
X38734239Y-149211467D01*
G37*
G36*
X198299564Y-151516389D02*
G01*
X198490833Y-151595615D01*
X198490835Y-151595616D01*
X198662973Y-151710635D01*
X198809365Y-151857027D01*
X198924385Y-152029167D01*
X199003611Y-152220436D01*
X199044000Y-152423484D01*
X199044000Y-152630516D01*
X199003611Y-152833564D01*
X198924385Y-153024833D01*
X198924384Y-153024835D01*
X198809365Y-153196973D01*
X198662973Y-153343365D01*
X198490835Y-153458384D01*
X198490834Y-153458385D01*
X198490833Y-153458385D01*
X198299564Y-153537611D01*
X198096516Y-153578000D01*
X197889484Y-153578000D01*
X197686436Y-153537611D01*
X197495167Y-153458385D01*
X197495166Y-153458385D01*
X197495165Y-153458384D01*
X197323027Y-153343365D01*
X197176635Y-153196973D01*
X197061616Y-153024835D01*
X197061615Y-153024833D01*
X196982389Y-152833564D01*
X196942000Y-152630516D01*
X196942000Y-152423484D01*
X196982389Y-152220436D01*
X197061615Y-152029167D01*
X197176635Y-151857027D01*
X197323027Y-151710635D01*
X197495165Y-151595616D01*
X197495167Y-151595615D01*
X197686436Y-151516389D01*
X197889484Y-151476000D01*
X198096516Y-151476000D01*
X198299564Y-151516389D01*
X198299564Y-151516389D01*
G37*
G36*
X137132564Y-151516389D02*
G01*
X137323833Y-151595615D01*
X137323835Y-151595616D01*
X137495973Y-151710635D01*
X137642365Y-151857027D01*
X137757385Y-152029167D01*
X137836611Y-152220436D01*
X137877000Y-152423484D01*
X137877000Y-152630516D01*
X137836611Y-152833564D01*
X137757385Y-153024833D01*
X137757384Y-153024835D01*
X137642365Y-153196973D01*
X137495973Y-153343365D01*
X137323835Y-153458384D01*
X137323834Y-153458385D01*
X137323833Y-153458385D01*
X137132564Y-153537611D01*
X136929516Y-153578000D01*
X136722484Y-153578000D01*
X136519436Y-153537611D01*
X136328167Y-153458385D01*
X136328166Y-153458385D01*
X136328165Y-153458384D01*
X136156027Y-153343365D01*
X136009635Y-153196973D01*
X135894616Y-153024835D01*
X135894615Y-153024833D01*
X135815389Y-152833564D01*
X135775000Y-152630516D01*
X135775000Y-152423484D01*
X135815389Y-152220436D01*
X135894615Y-152029167D01*
X136009635Y-151857027D01*
X136156027Y-151710635D01*
X136328165Y-151595616D01*
X136328167Y-151595615D01*
X136519436Y-151516389D01*
X136722484Y-151476000D01*
X136929516Y-151476000D01*
X137132564Y-151516389D01*
X137132564Y-151516389D01*
G37*
G36*
X154611564Y-151516389D02*
G01*
X154802833Y-151595615D01*
X154802835Y-151595616D01*
X154974973Y-151710635D01*
X155121365Y-151857027D01*
X155236385Y-152029167D01*
X155315611Y-152220436D01*
X155356000Y-152423484D01*
X155356000Y-152630516D01*
X155315611Y-152833564D01*
X155236385Y-153024833D01*
X155236384Y-153024835D01*
X155121365Y-153196973D01*
X154974973Y-153343365D01*
X154802835Y-153458384D01*
X154802834Y-153458385D01*
X154802833Y-153458385D01*
X154611564Y-153537611D01*
X154408516Y-153578000D01*
X154201484Y-153578000D01*
X153998436Y-153537611D01*
X153807167Y-153458385D01*
X153807166Y-153458385D01*
X153807165Y-153458384D01*
X153635027Y-153343365D01*
X153488635Y-153196973D01*
X153373616Y-153024835D01*
X153373615Y-153024833D01*
X153294389Y-152833564D01*
X153254000Y-152630516D01*
X153254000Y-152423484D01*
X153294389Y-152220436D01*
X153373615Y-152029167D01*
X153488635Y-151857027D01*
X153635027Y-151710635D01*
X153807165Y-151595616D01*
X153807167Y-151595615D01*
X153998436Y-151516389D01*
X154201484Y-151476000D01*
X154408516Y-151476000D01*
X154611564Y-151516389D01*
X154611564Y-151516389D01*
G37*
G36*
X159611564Y-151516389D02*
G01*
X159802833Y-151595615D01*
X159802835Y-151595616D01*
X159974973Y-151710635D01*
X160121365Y-151857027D01*
X160236385Y-152029167D01*
X160315611Y-152220436D01*
X160356000Y-152423484D01*
X160356000Y-152630516D01*
X160315611Y-152833564D01*
X160236385Y-153024833D01*
X160236384Y-153024835D01*
X160121365Y-153196973D01*
X159974973Y-153343365D01*
X159802835Y-153458384D01*
X159802834Y-153458385D01*
X159802833Y-153458385D01*
X159611564Y-153537611D01*
X159408516Y-153578000D01*
X159201484Y-153578000D01*
X158998436Y-153537611D01*
X158807167Y-153458385D01*
X158807166Y-153458385D01*
X158807165Y-153458384D01*
X158635027Y-153343365D01*
X158488635Y-153196973D01*
X158373616Y-153024835D01*
X158373615Y-153024833D01*
X158294389Y-152833564D01*
X158254000Y-152630516D01*
X158254000Y-152423484D01*
X158294389Y-152220436D01*
X158373615Y-152029167D01*
X158488635Y-151857027D01*
X158635027Y-151710635D01*
X158807165Y-151595616D01*
X158807167Y-151595615D01*
X158998436Y-151516389D01*
X159201484Y-151476000D01*
X159408516Y-151476000D01*
X159611564Y-151516389D01*
X159611564Y-151516389D01*
G37*
G36*
X132132564Y-151516389D02*
G01*
X132323833Y-151595615D01*
X132323835Y-151595616D01*
X132495973Y-151710635D01*
X132642365Y-151857027D01*
X132757385Y-152029167D01*
X132836611Y-152220436D01*
X132877000Y-152423484D01*
X132877000Y-152630516D01*
X132836611Y-152833564D01*
X132757385Y-153024833D01*
X132757384Y-153024835D01*
X132642365Y-153196973D01*
X132495973Y-153343365D01*
X132323835Y-153458384D01*
X132323834Y-153458385D01*
X132323833Y-153458385D01*
X132132564Y-153537611D01*
X131929516Y-153578000D01*
X131722484Y-153578000D01*
X131519436Y-153537611D01*
X131328167Y-153458385D01*
X131328166Y-153458385D01*
X131328165Y-153458384D01*
X131156027Y-153343365D01*
X131009635Y-153196973D01*
X130894616Y-153024835D01*
X130894615Y-153024833D01*
X130815389Y-152833564D01*
X130775000Y-152630516D01*
X130775000Y-152423484D01*
X130815389Y-152220436D01*
X130894615Y-152029167D01*
X131009635Y-151857027D01*
X131156027Y-151710635D01*
X131328165Y-151595616D01*
X131328167Y-151595615D01*
X131519436Y-151516389D01*
X131722484Y-151476000D01*
X131929516Y-151476000D01*
X132132564Y-151516389D01*
X132132564Y-151516389D01*
G37*
G36*
X110241564Y-151516389D02*
G01*
X110432833Y-151595615D01*
X110432835Y-151595616D01*
X110604973Y-151710635D01*
X110751365Y-151857027D01*
X110866385Y-152029167D01*
X110945611Y-152220436D01*
X110986000Y-152423484D01*
X110986000Y-152630516D01*
X110945611Y-152833564D01*
X110866385Y-153024833D01*
X110866384Y-153024835D01*
X110751365Y-153196973D01*
X110604973Y-153343365D01*
X110432835Y-153458384D01*
X110432834Y-153458385D01*
X110432833Y-153458385D01*
X110241564Y-153537611D01*
X110038516Y-153578000D01*
X109831484Y-153578000D01*
X109628436Y-153537611D01*
X109437167Y-153458385D01*
X109437166Y-153458385D01*
X109437165Y-153458384D01*
X109265027Y-153343365D01*
X109118635Y-153196973D01*
X109003616Y-153024835D01*
X109003615Y-153024833D01*
X108924389Y-152833564D01*
X108884000Y-152630516D01*
X108884000Y-152423484D01*
X108924389Y-152220436D01*
X109003615Y-152029167D01*
X109118635Y-151857027D01*
X109265027Y-151710635D01*
X109437165Y-151595616D01*
X109437167Y-151595615D01*
X109628436Y-151516389D01*
X109831484Y-151476000D01*
X110038516Y-151476000D01*
X110241564Y-151516389D01*
X110241564Y-151516389D01*
G37*
G36*
X92127564Y-151516389D02*
G01*
X92318833Y-151595615D01*
X92318835Y-151595616D01*
X92490973Y-151710635D01*
X92637365Y-151857027D01*
X92752385Y-152029167D01*
X92831611Y-152220436D01*
X92872000Y-152423484D01*
X92872000Y-152630516D01*
X92831611Y-152833564D01*
X92752385Y-153024833D01*
X92752384Y-153024835D01*
X92637365Y-153196973D01*
X92490973Y-153343365D01*
X92318835Y-153458384D01*
X92318834Y-153458385D01*
X92318833Y-153458385D01*
X92127564Y-153537611D01*
X91924516Y-153578000D01*
X91717484Y-153578000D01*
X91514436Y-153537611D01*
X91323167Y-153458385D01*
X91323166Y-153458385D01*
X91323165Y-153458384D01*
X91151027Y-153343365D01*
X91004635Y-153196973D01*
X90889616Y-153024835D01*
X90889615Y-153024833D01*
X90810389Y-152833564D01*
X90770000Y-152630516D01*
X90770000Y-152423484D01*
X90810389Y-152220436D01*
X90889615Y-152029167D01*
X91004635Y-151857027D01*
X91151027Y-151710635D01*
X91323165Y-151595616D01*
X91323167Y-151595615D01*
X91514436Y-151516389D01*
X91717484Y-151476000D01*
X91924516Y-151476000D01*
X92127564Y-151516389D01*
X92127564Y-151516389D01*
G37*
G36*
X176709564Y-151516389D02*
G01*
X176900833Y-151595615D01*
X176900835Y-151595616D01*
X177072973Y-151710635D01*
X177219365Y-151857027D01*
X177334385Y-152029167D01*
X177413611Y-152220436D01*
X177454000Y-152423484D01*
X177454000Y-152630516D01*
X177413611Y-152833564D01*
X177334385Y-153024833D01*
X177334384Y-153024835D01*
X177219365Y-153196973D01*
X177072973Y-153343365D01*
X176900835Y-153458384D01*
X176900834Y-153458385D01*
X176900833Y-153458385D01*
X176709564Y-153537611D01*
X176506516Y-153578000D01*
X176299484Y-153578000D01*
X176096436Y-153537611D01*
X175905167Y-153458385D01*
X175905166Y-153458385D01*
X175905165Y-153458384D01*
X175733027Y-153343365D01*
X175586635Y-153196973D01*
X175471616Y-153024835D01*
X175471615Y-153024833D01*
X175392389Y-152833564D01*
X175352000Y-152630516D01*
X175352000Y-152423484D01*
X175392389Y-152220436D01*
X175471615Y-152029167D01*
X175586635Y-151857027D01*
X175733027Y-151710635D01*
X175905165Y-151595616D01*
X175905167Y-151595615D01*
X176096436Y-151516389D01*
X176299484Y-151476000D01*
X176506516Y-151476000D01*
X176709564Y-151516389D01*
X176709564Y-151516389D01*
G37*
G36*
X181709564Y-151516389D02*
G01*
X181900833Y-151595615D01*
X181900835Y-151595616D01*
X182072973Y-151710635D01*
X182219365Y-151857027D01*
X182334385Y-152029167D01*
X182413611Y-152220436D01*
X182454000Y-152423484D01*
X182454000Y-152630516D01*
X182413611Y-152833564D01*
X182334385Y-153024833D01*
X182334384Y-153024835D01*
X182219365Y-153196973D01*
X182072973Y-153343365D01*
X181900835Y-153458384D01*
X181900834Y-153458385D01*
X181900833Y-153458385D01*
X181709564Y-153537611D01*
X181506516Y-153578000D01*
X181299484Y-153578000D01*
X181096436Y-153537611D01*
X180905167Y-153458385D01*
X180905166Y-153458385D01*
X180905165Y-153458384D01*
X180733027Y-153343365D01*
X180586635Y-153196973D01*
X180471616Y-153024835D01*
X180471615Y-153024833D01*
X180392389Y-152833564D01*
X180352000Y-152630516D01*
X180352000Y-152423484D01*
X180392389Y-152220436D01*
X180471615Y-152029167D01*
X180586635Y-151857027D01*
X180733027Y-151710635D01*
X180905165Y-151595616D01*
X180905167Y-151595615D01*
X181096436Y-151516389D01*
X181299484Y-151476000D01*
X181506516Y-151476000D01*
X181709564Y-151516389D01*
X181709564Y-151516389D01*
G37*
G36*
X70029564Y-151516389D02*
G01*
X70220833Y-151595615D01*
X70220835Y-151595616D01*
X70392973Y-151710635D01*
X70539365Y-151857027D01*
X70654385Y-152029167D01*
X70733611Y-152220436D01*
X70774000Y-152423484D01*
X70774000Y-152630516D01*
X70733611Y-152833564D01*
X70654385Y-153024833D01*
X70654384Y-153024835D01*
X70539365Y-153196973D01*
X70392973Y-153343365D01*
X70220835Y-153458384D01*
X70220834Y-153458385D01*
X70220833Y-153458385D01*
X70029564Y-153537611D01*
X69826516Y-153578000D01*
X69619484Y-153578000D01*
X69416436Y-153537611D01*
X69225167Y-153458385D01*
X69225166Y-153458385D01*
X69225165Y-153458384D01*
X69053027Y-153343365D01*
X68906635Y-153196973D01*
X68791616Y-153024835D01*
X68791615Y-153024833D01*
X68712389Y-152833564D01*
X68672000Y-152630516D01*
X68672000Y-152423484D01*
X68712389Y-152220436D01*
X68791615Y-152029167D01*
X68906635Y-151857027D01*
X69053027Y-151710635D01*
X69225165Y-151595616D01*
X69225167Y-151595615D01*
X69416436Y-151516389D01*
X69619484Y-151476000D01*
X69826516Y-151476000D01*
X70029564Y-151516389D01*
X70029564Y-151516389D01*
G37*
G36*
X203299564Y-151516389D02*
G01*
X203490833Y-151595615D01*
X203490835Y-151595616D01*
X203662973Y-151710635D01*
X203809365Y-151857027D01*
X203924385Y-152029167D01*
X204003611Y-152220436D01*
X204044000Y-152423484D01*
X204044000Y-152630516D01*
X204003611Y-152833564D01*
X203924385Y-153024833D01*
X203924384Y-153024835D01*
X203809365Y-153196973D01*
X203662973Y-153343365D01*
X203490835Y-153458384D01*
X203490834Y-153458385D01*
X203490833Y-153458385D01*
X203299564Y-153537611D01*
X203096516Y-153578000D01*
X202889484Y-153578000D01*
X202686436Y-153537611D01*
X202495167Y-153458385D01*
X202495166Y-153458385D01*
X202495165Y-153458384D01*
X202323027Y-153343365D01*
X202176635Y-153196973D01*
X202061616Y-153024835D01*
X202061615Y-153024833D01*
X201982389Y-152833564D01*
X201942000Y-152630516D01*
X201942000Y-152423484D01*
X201982389Y-152220436D01*
X202061615Y-152029167D01*
X202176635Y-151857027D01*
X202323027Y-151710635D01*
X202495165Y-151595616D01*
X202495167Y-151595615D01*
X202686436Y-151516389D01*
X202889484Y-151476000D01*
X203096516Y-151476000D01*
X203299564Y-151516389D01*
X203299564Y-151516389D01*
G37*
G36*
X115241564Y-151516389D02*
G01*
X115432833Y-151595615D01*
X115432835Y-151595616D01*
X115604973Y-151710635D01*
X115751365Y-151857027D01*
X115866385Y-152029167D01*
X115945611Y-152220436D01*
X115986000Y-152423484D01*
X115986000Y-152630516D01*
X115945611Y-152833564D01*
X115866385Y-153024833D01*
X115866384Y-153024835D01*
X115751365Y-153196973D01*
X115604973Y-153343365D01*
X115432835Y-153458384D01*
X115432834Y-153458385D01*
X115432833Y-153458385D01*
X115241564Y-153537611D01*
X115038516Y-153578000D01*
X114831484Y-153578000D01*
X114628436Y-153537611D01*
X114437167Y-153458385D01*
X114437166Y-153458385D01*
X114437165Y-153458384D01*
X114265027Y-153343365D01*
X114118635Y-153196973D01*
X114003616Y-153024835D01*
X114003615Y-153024833D01*
X113924389Y-152833564D01*
X113884000Y-152630516D01*
X113884000Y-152423484D01*
X113924389Y-152220436D01*
X114003615Y-152029167D01*
X114118635Y-151857027D01*
X114265027Y-151710635D01*
X114437165Y-151595616D01*
X114437167Y-151595615D01*
X114628436Y-151516389D01*
X114831484Y-151476000D01*
X115038516Y-151476000D01*
X115241564Y-151516389D01*
X115241564Y-151516389D01*
G37*
G36*
X220397564Y-151516389D02*
G01*
X220588833Y-151595615D01*
X220588835Y-151595616D01*
X220760973Y-151710635D01*
X220907365Y-151857027D01*
X221022385Y-152029167D01*
X221101611Y-152220436D01*
X221142000Y-152423484D01*
X221142000Y-152630516D01*
X221101611Y-152833564D01*
X221022385Y-153024833D01*
X221022384Y-153024835D01*
X220907365Y-153196973D01*
X220760973Y-153343365D01*
X220588835Y-153458384D01*
X220588834Y-153458385D01*
X220588833Y-153458385D01*
X220397564Y-153537611D01*
X220194516Y-153578000D01*
X219987484Y-153578000D01*
X219784436Y-153537611D01*
X219593167Y-153458385D01*
X219593166Y-153458385D01*
X219593165Y-153458384D01*
X219421027Y-153343365D01*
X219274635Y-153196973D01*
X219159616Y-153024835D01*
X219159615Y-153024833D01*
X219080389Y-152833564D01*
X219040000Y-152630516D01*
X219040000Y-152423484D01*
X219080389Y-152220436D01*
X219159615Y-152029167D01*
X219274635Y-151857027D01*
X219421027Y-151710635D01*
X219593165Y-151595616D01*
X219593167Y-151595615D01*
X219784436Y-151516389D01*
X219987484Y-151476000D01*
X220194516Y-151476000D01*
X220397564Y-151516389D01*
X220397564Y-151516389D01*
G37*
G36*
X225397564Y-151516389D02*
G01*
X225588833Y-151595615D01*
X225588835Y-151595616D01*
X225760973Y-151710635D01*
X225907365Y-151857027D01*
X226022385Y-152029167D01*
X226101611Y-152220436D01*
X226142000Y-152423484D01*
X226142000Y-152630516D01*
X226101611Y-152833564D01*
X226022385Y-153024833D01*
X226022384Y-153024835D01*
X225907365Y-153196973D01*
X225760973Y-153343365D01*
X225588835Y-153458384D01*
X225588834Y-153458385D01*
X225588833Y-153458385D01*
X225397564Y-153537611D01*
X225194516Y-153578000D01*
X224987484Y-153578000D01*
X224784436Y-153537611D01*
X224593167Y-153458385D01*
X224593166Y-153458385D01*
X224593165Y-153458384D01*
X224421027Y-153343365D01*
X224274635Y-153196973D01*
X224159616Y-153024835D01*
X224159615Y-153024833D01*
X224080389Y-152833564D01*
X224040000Y-152630516D01*
X224040000Y-152423484D01*
X224080389Y-152220436D01*
X224159615Y-152029167D01*
X224274635Y-151857027D01*
X224421027Y-151710635D01*
X224593165Y-151595616D01*
X224593167Y-151595615D01*
X224784436Y-151516389D01*
X224987484Y-151476000D01*
X225194516Y-151476000D01*
X225397564Y-151516389D01*
X225397564Y-151516389D01*
G37*
G36*
X87127564Y-151516389D02*
G01*
X87318833Y-151595615D01*
X87318835Y-151595616D01*
X87490973Y-151710635D01*
X87637365Y-151857027D01*
X87752385Y-152029167D01*
X87831611Y-152220436D01*
X87872000Y-152423484D01*
X87872000Y-152630516D01*
X87831611Y-152833564D01*
X87752385Y-153024833D01*
X87752384Y-153024835D01*
X87637365Y-153196973D01*
X87490973Y-153343365D01*
X87318835Y-153458384D01*
X87318834Y-153458385D01*
X87318833Y-153458385D01*
X87127564Y-153537611D01*
X86924516Y-153578000D01*
X86717484Y-153578000D01*
X86514436Y-153537611D01*
X86323167Y-153458385D01*
X86323166Y-153458385D01*
X86323165Y-153458384D01*
X86151027Y-153343365D01*
X86004635Y-153196973D01*
X85889616Y-153024835D01*
X85889615Y-153024833D01*
X85810389Y-152833564D01*
X85770000Y-152630516D01*
X85770000Y-152423484D01*
X85810389Y-152220436D01*
X85889615Y-152029167D01*
X86004635Y-151857027D01*
X86151027Y-151710635D01*
X86323165Y-151595616D01*
X86323167Y-151595615D01*
X86514436Y-151516389D01*
X86717484Y-151476000D01*
X86924516Y-151476000D01*
X87127564Y-151516389D01*
X87127564Y-151516389D01*
G37*
G36*
X65029564Y-151516389D02*
G01*
X65220833Y-151595615D01*
X65220835Y-151595616D01*
X65392973Y-151710635D01*
X65539365Y-151857027D01*
X65654385Y-152029167D01*
X65733611Y-152220436D01*
X65774000Y-152423484D01*
X65774000Y-152630516D01*
X65733611Y-152833564D01*
X65654385Y-153024833D01*
X65654384Y-153024835D01*
X65539365Y-153196973D01*
X65392973Y-153343365D01*
X65220835Y-153458384D01*
X65220834Y-153458385D01*
X65220833Y-153458385D01*
X65029564Y-153537611D01*
X64826516Y-153578000D01*
X64619484Y-153578000D01*
X64416436Y-153537611D01*
X64225167Y-153458385D01*
X64225166Y-153458385D01*
X64225165Y-153458384D01*
X64053027Y-153343365D01*
X63906635Y-153196973D01*
X63791616Y-153024835D01*
X63791615Y-153024833D01*
X63712389Y-152833564D01*
X63672000Y-152630516D01*
X63672000Y-152423484D01*
X63712389Y-152220436D01*
X63791615Y-152029167D01*
X63906635Y-151857027D01*
X64053027Y-151710635D01*
X64225165Y-151595616D01*
X64225167Y-151595615D01*
X64416436Y-151516389D01*
X64619484Y-151476000D01*
X64826516Y-151476000D01*
X65029564Y-151516389D01*
X65029564Y-151516389D01*
G37*
G36*
X36449943Y-126098248D02*
G01*
X37005189Y-126328238D01*
X37005190Y-126328239D01*
X37504899Y-126662134D01*
X37929866Y-127087101D01*
X37955534Y-127125516D01*
X38263762Y-127586811D01*
X38493752Y-128142057D01*
X38611000Y-128731501D01*
X38611000Y-129332499D01*
X38493752Y-129921943D01*
X38263762Y-130477189D01*
X38263761Y-130477190D01*
X37929866Y-130976899D01*
X37504899Y-131401866D01*
X37253347Y-131569948D01*
X37005189Y-131735762D01*
X36449943Y-131965752D01*
X35860499Y-132083000D01*
X35259501Y-132083000D01*
X34670057Y-131965752D01*
X34114811Y-131735762D01*
X33866653Y-131569948D01*
X33615101Y-131401866D01*
X33190134Y-130976899D01*
X32856239Y-130477190D01*
X32856238Y-130477189D01*
X32626248Y-129921943D01*
X32509000Y-129332499D01*
X32509000Y-128731501D01*
X32626248Y-128142057D01*
X32856238Y-127586811D01*
X33164466Y-127125516D01*
X33190134Y-127087101D01*
X33615101Y-126662134D01*
X34114810Y-126328239D01*
X34114811Y-126328238D01*
X34670057Y-126098248D01*
X35259501Y-125981000D01*
X35860499Y-125981000D01*
X36449943Y-126098248D01*
X36449943Y-126098248D01*
G37*
G36*
X161720532Y-126852721D02*
G01*
X161989147Y-126963985D01*
X162230895Y-127125516D01*
X162436484Y-127331105D01*
X162598015Y-127572853D01*
X162709279Y-127841468D01*
X162766000Y-128126625D01*
X162766000Y-128417375D01*
X162709279Y-128702532D01*
X162598015Y-128971147D01*
X162436484Y-129212895D01*
X162230895Y-129418484D01*
X161989147Y-129580015D01*
X161720532Y-129691279D01*
X161435375Y-129748000D01*
X161144625Y-129748000D01*
X160859468Y-129691279D01*
X160590853Y-129580015D01*
X160349105Y-129418484D01*
X160143516Y-129212895D01*
X159981985Y-128971147D01*
X159870721Y-128702532D01*
X159814000Y-128417375D01*
X159814000Y-128126625D01*
X159870721Y-127841468D01*
X159981985Y-127572853D01*
X160143516Y-127331105D01*
X160349105Y-127125516D01*
X160590853Y-126963985D01*
X160859468Y-126852721D01*
X161144625Y-126796000D01*
X161435375Y-126796000D01*
X161720532Y-126852721D01*
X161720532Y-126852721D01*
G37*
G36*
X140638532Y-126852721D02*
G01*
X140907147Y-126963985D01*
X141148895Y-127125516D01*
X141354484Y-127331105D01*
X141516015Y-127572853D01*
X141627279Y-127841468D01*
X141684000Y-128126625D01*
X141684000Y-128417375D01*
X141627279Y-128702532D01*
X141516015Y-128971147D01*
X141354484Y-129212895D01*
X141148895Y-129418484D01*
X140907147Y-129580015D01*
X140638532Y-129691279D01*
X140353375Y-129748000D01*
X140062625Y-129748000D01*
X139777468Y-129691279D01*
X139508853Y-129580015D01*
X139267105Y-129418484D01*
X139061516Y-129212895D01*
X138899985Y-128971147D01*
X138788721Y-128702532D01*
X138732000Y-128417375D01*
X138732000Y-128126625D01*
X138788721Y-127841468D01*
X138899985Y-127572853D01*
X139061516Y-127331105D01*
X139267105Y-127125516D01*
X139508853Y-126963985D01*
X139777468Y-126852721D01*
X140062625Y-126796000D01*
X140353375Y-126796000D01*
X140638532Y-126852721D01*
X140638532Y-126852721D01*
G37*
G36*
X118540532Y-126344721D02*
G01*
X118809147Y-126455985D01*
X119050895Y-126617516D01*
X119256484Y-126823105D01*
X119418015Y-127064853D01*
X119529279Y-127333468D01*
X119586000Y-127618625D01*
X119586000Y-127909375D01*
X119529279Y-128194532D01*
X119418015Y-128463147D01*
X119256484Y-128704895D01*
X119050895Y-128910484D01*
X118809147Y-129072015D01*
X118540532Y-129183279D01*
X118255375Y-129240000D01*
X117964625Y-129240000D01*
X117679468Y-129183279D01*
X117410853Y-129072015D01*
X117169105Y-128910484D01*
X116963516Y-128704895D01*
X116801985Y-128463147D01*
X116690721Y-128194532D01*
X116634000Y-127909375D01*
X116634000Y-127618625D01*
X116690721Y-127333468D01*
X116801985Y-127064853D01*
X116963516Y-126823105D01*
X117169105Y-126617516D01*
X117410853Y-126455985D01*
X117679468Y-126344721D01*
X117964625Y-126288000D01*
X118255375Y-126288000D01*
X118540532Y-126344721D01*
X118540532Y-126344721D01*
G37*
G36*
X183056532Y-126344721D02*
G01*
X183325147Y-126455985D01*
X183566895Y-126617516D01*
X183772484Y-126823105D01*
X183934015Y-127064853D01*
X184045279Y-127333468D01*
X184102000Y-127618625D01*
X184102000Y-127909375D01*
X184045279Y-128194532D01*
X183934015Y-128463147D01*
X183772484Y-128704895D01*
X183566895Y-128910484D01*
X183325147Y-129072015D01*
X183056532Y-129183279D01*
X182771375Y-129240000D01*
X182480625Y-129240000D01*
X182195468Y-129183279D01*
X181926853Y-129072015D01*
X181685105Y-128910484D01*
X181479516Y-128704895D01*
X181317985Y-128463147D01*
X181206721Y-128194532D01*
X181150000Y-127909375D01*
X181150000Y-127618625D01*
X181206721Y-127333468D01*
X181317985Y-127064853D01*
X181479516Y-126823105D01*
X181685105Y-126617516D01*
X181926853Y-126455985D01*
X182195468Y-126344721D01*
X182480625Y-126288000D01*
X182771375Y-126288000D01*
X183056532Y-126344721D01*
X183056532Y-126344721D01*
G37*
G36*
X205154532Y-126090721D02*
G01*
X205423147Y-126201985D01*
X205664895Y-126363516D01*
X205870484Y-126569105D01*
X206032015Y-126810853D01*
X206143279Y-127079468D01*
X206200000Y-127364625D01*
X206200000Y-127655375D01*
X206143279Y-127940532D01*
X206032015Y-128209147D01*
X205870484Y-128450895D01*
X205664895Y-128656484D01*
X205423147Y-128818015D01*
X205154532Y-128929279D01*
X204869375Y-128986000D01*
X204578625Y-128986000D01*
X204293468Y-128929279D01*
X204024853Y-128818015D01*
X203783105Y-128656484D01*
X203577516Y-128450895D01*
X203415985Y-128209147D01*
X203304721Y-127940532D01*
X203248000Y-127655375D01*
X203248000Y-127364625D01*
X203304721Y-127079468D01*
X203415985Y-126810853D01*
X203577516Y-126569105D01*
X203783105Y-126363516D01*
X204024853Y-126201985D01*
X204293468Y-126090721D01*
X204578625Y-126034000D01*
X204869375Y-126034000D01*
X205154532Y-126090721D01*
X205154532Y-126090721D01*
G37*
G36*
X73836532Y-125962721D02*
G01*
X74105147Y-126073985D01*
X74346895Y-126235516D01*
X74552484Y-126441105D01*
X74714015Y-126682853D01*
X74825279Y-126951468D01*
X74882000Y-127236625D01*
X74882000Y-127527375D01*
X74825279Y-127812532D01*
X74714015Y-128081147D01*
X74552484Y-128322895D01*
X74346895Y-128528484D01*
X74105147Y-128690015D01*
X73836532Y-128801279D01*
X73551375Y-128858000D01*
X73260625Y-128858000D01*
X72975468Y-128801279D01*
X72706853Y-128690015D01*
X72465105Y-128528484D01*
X72259516Y-128322895D01*
X72097985Y-128081147D01*
X71986721Y-127812532D01*
X71930000Y-127527375D01*
X71930000Y-127236625D01*
X71986721Y-126951468D01*
X72097985Y-126682853D01*
X72259516Y-126441105D01*
X72465105Y-126235516D01*
X72706853Y-126073985D01*
X72975468Y-125962721D01*
X73260625Y-125906000D01*
X73551375Y-125906000D01*
X73836532Y-125962721D01*
X73836532Y-125962721D01*
G37*
G36*
X226744532Y-125836721D02*
G01*
X227013147Y-125947985D01*
X227254895Y-126109516D01*
X227460484Y-126315105D01*
X227622015Y-126556853D01*
X227733279Y-126825468D01*
X227790000Y-127110625D01*
X227790000Y-127401375D01*
X227733279Y-127686532D01*
X227622015Y-127955147D01*
X227460484Y-128196895D01*
X227254895Y-128402484D01*
X227013147Y-128564015D01*
X226744532Y-128675279D01*
X226459375Y-128732000D01*
X226168625Y-128732000D01*
X225883468Y-128675279D01*
X225614853Y-128564015D01*
X225373105Y-128402484D01*
X225167516Y-128196895D01*
X225005985Y-127955147D01*
X224894721Y-127686532D01*
X224838000Y-127401375D01*
X224838000Y-127110625D01*
X224894721Y-126825468D01*
X225005985Y-126556853D01*
X225167516Y-126315105D01*
X225373105Y-126109516D01*
X225614853Y-125947985D01*
X225883468Y-125836721D01*
X226168625Y-125780000D01*
X226459375Y-125780000D01*
X226744532Y-125836721D01*
X226744532Y-125836721D01*
G37*
G36*
X95934532Y-125836721D02*
G01*
X96203147Y-125947985D01*
X96444895Y-126109516D01*
X96650484Y-126315105D01*
X96812015Y-126556853D01*
X96923279Y-126825468D01*
X96980000Y-127110625D01*
X96980000Y-127401375D01*
X96923279Y-127686532D01*
X96812015Y-127955147D01*
X96650484Y-128196895D01*
X96444895Y-128402484D01*
X96203147Y-128564015D01*
X95934532Y-128675279D01*
X95649375Y-128732000D01*
X95358625Y-128732000D01*
X95073468Y-128675279D01*
X94804853Y-128564015D01*
X94563105Y-128402484D01*
X94357516Y-128196895D01*
X94195985Y-127955147D01*
X94084721Y-127686532D01*
X94028000Y-127401375D01*
X94028000Y-127110625D01*
X94084721Y-126825468D01*
X94195985Y-126556853D01*
X94357516Y-126315105D01*
X94563105Y-126109516D01*
X94804853Y-125947985D01*
X95073468Y-125836721D01*
X95358625Y-125780000D01*
X95649375Y-125780000D01*
X95934532Y-125836721D01*
X95934532Y-125836721D01*
G37*
G36*
X53450442Y-125089518D02*
G01*
X53516627Y-125096037D01*
X53686466Y-125147557D01*
X53842991Y-125231222D01*
X53878729Y-125260552D01*
X53980186Y-125343814D01*
X54063448Y-125445271D01*
X54092778Y-125481009D01*
X54176443Y-125637534D01*
X54227963Y-125807373D01*
X54245359Y-125984000D01*
X54227963Y-126160627D01*
X54176443Y-126330466D01*
X54176442Y-126330468D01*
X54168823Y-126344722D01*
X54092778Y-126486991D01*
X54063448Y-126522729D01*
X53980186Y-126624186D01*
X53878729Y-126707448D01*
X53842991Y-126736778D01*
X53842989Y-126736779D01*
X53704408Y-126810853D01*
X53686466Y-126820443D01*
X53516627Y-126871963D01*
X53450442Y-126878482D01*
X53384260Y-126885000D01*
X53295740Y-126885000D01*
X53229558Y-126878482D01*
X53163373Y-126871963D01*
X52993534Y-126820443D01*
X52975593Y-126810853D01*
X52837011Y-126736779D01*
X52837009Y-126736778D01*
X52801271Y-126707448D01*
X52699814Y-126624186D01*
X52616552Y-126522729D01*
X52587222Y-126486991D01*
X52511177Y-126344722D01*
X52503558Y-126330468D01*
X52503557Y-126330466D01*
X52452037Y-126160627D01*
X52434641Y-125984000D01*
X52452037Y-125807373D01*
X52503557Y-125637534D01*
X52587222Y-125481009D01*
X52616552Y-125445271D01*
X52699814Y-125343814D01*
X52801271Y-125260552D01*
X52837009Y-125231222D01*
X52993534Y-125147557D01*
X53163373Y-125096037D01*
X53229558Y-125089518D01*
X53295740Y-125083000D01*
X53384260Y-125083000D01*
X53450442Y-125089518D01*
X53450442Y-125089518D01*
G37*
G36*
X161720532Y-122152721D02*
G01*
X161989147Y-122263985D01*
X162230895Y-122425516D01*
X162436484Y-122631105D01*
X162598015Y-122872853D01*
X162709279Y-123141468D01*
X162766000Y-123426625D01*
X162766000Y-123717375D01*
X162709279Y-124002532D01*
X162598015Y-124271147D01*
X162436484Y-124512895D01*
X162230895Y-124718484D01*
X161989147Y-124880015D01*
X161720532Y-124991279D01*
X161435375Y-125048000D01*
X161144625Y-125048000D01*
X160859468Y-124991279D01*
X160590853Y-124880015D01*
X160349105Y-124718484D01*
X160143516Y-124512895D01*
X159981985Y-124271147D01*
X159870721Y-124002532D01*
X159814000Y-123717375D01*
X159814000Y-123426625D01*
X159870721Y-123141468D01*
X159981985Y-122872853D01*
X160143516Y-122631105D01*
X160349105Y-122425516D01*
X160590853Y-122263985D01*
X160859468Y-122152721D01*
X161144625Y-122096000D01*
X161435375Y-122096000D01*
X161720532Y-122152721D01*
X161720532Y-122152721D01*
G37*
G36*
X140638532Y-122152721D02*
G01*
X140907147Y-122263985D01*
X141148895Y-122425516D01*
X141354484Y-122631105D01*
X141516015Y-122872853D01*
X141627279Y-123141468D01*
X141684000Y-123426625D01*
X141684000Y-123717375D01*
X141627279Y-124002532D01*
X141516015Y-124271147D01*
X141354484Y-124512895D01*
X141148895Y-124718484D01*
X140907147Y-124880015D01*
X140638532Y-124991279D01*
X140353375Y-125048000D01*
X140062625Y-125048000D01*
X139777468Y-124991279D01*
X139508853Y-124880015D01*
X139267105Y-124718484D01*
X139061516Y-124512895D01*
X138899985Y-124271147D01*
X138788721Y-124002532D01*
X138732000Y-123717375D01*
X138732000Y-123426625D01*
X138788721Y-123141468D01*
X138899985Y-122872853D01*
X139061516Y-122631105D01*
X139267105Y-122425516D01*
X139508853Y-122263985D01*
X139777468Y-122152721D01*
X140062625Y-122096000D01*
X140353375Y-122096000D01*
X140638532Y-122152721D01*
X140638532Y-122152721D01*
G37*
G36*
X36449943Y-118598248D02*
G01*
X37005189Y-118828238D01*
X37005190Y-118828239D01*
X37504899Y-119162134D01*
X37929866Y-119587101D01*
X37929867Y-119587103D01*
X38263762Y-120086811D01*
X38493752Y-120642057D01*
X38611000Y-121231501D01*
X38611000Y-121832499D01*
X38493752Y-122421943D01*
X38263762Y-122977189D01*
X38173328Y-123112532D01*
X37929866Y-123476899D01*
X37504899Y-123901866D01*
X37372976Y-123990014D01*
X37005189Y-124235762D01*
X36449943Y-124465752D01*
X35860499Y-124583000D01*
X35259501Y-124583000D01*
X34670057Y-124465752D01*
X34114811Y-124235762D01*
X33747024Y-123990014D01*
X33615101Y-123901866D01*
X33190134Y-123476899D01*
X32946672Y-123112532D01*
X32856238Y-122977189D01*
X32626248Y-122421943D01*
X32509000Y-121832499D01*
X32509000Y-121231501D01*
X32626248Y-120642057D01*
X32856238Y-120086811D01*
X33190133Y-119587103D01*
X33190134Y-119587101D01*
X33615101Y-119162134D01*
X34114810Y-118828239D01*
X34114811Y-118828238D01*
X34670057Y-118598248D01*
X35259501Y-118481000D01*
X35860499Y-118481000D01*
X36449943Y-118598248D01*
X36449943Y-118598248D01*
G37*
G36*
X118540532Y-121644721D02*
G01*
X118809147Y-121755985D01*
X119050895Y-121917516D01*
X119256484Y-122123105D01*
X119418015Y-122364853D01*
X119529279Y-122633468D01*
X119586000Y-122918625D01*
X119586000Y-123209375D01*
X119529279Y-123494532D01*
X119418015Y-123763147D01*
X119256484Y-124004895D01*
X119050895Y-124210484D01*
X118809147Y-124372015D01*
X118540532Y-124483279D01*
X118255375Y-124540000D01*
X117964625Y-124540000D01*
X117679468Y-124483279D01*
X117410853Y-124372015D01*
X117169105Y-124210484D01*
X116963516Y-124004895D01*
X116801985Y-123763147D01*
X116690721Y-123494532D01*
X116634000Y-123209375D01*
X116634000Y-122918625D01*
X116690721Y-122633468D01*
X116801985Y-122364853D01*
X116963516Y-122123105D01*
X117169105Y-121917516D01*
X117410853Y-121755985D01*
X117679468Y-121644721D01*
X117964625Y-121588000D01*
X118255375Y-121588000D01*
X118540532Y-121644721D01*
X118540532Y-121644721D01*
G37*
G36*
X183056532Y-121644721D02*
G01*
X183325147Y-121755985D01*
X183566895Y-121917516D01*
X183772484Y-122123105D01*
X183934015Y-122364853D01*
X184045279Y-122633468D01*
X184102000Y-122918625D01*
X184102000Y-123209375D01*
X184045279Y-123494532D01*
X183934015Y-123763147D01*
X183772484Y-124004895D01*
X183566895Y-124210484D01*
X183325147Y-124372015D01*
X183056532Y-124483279D01*
X182771375Y-124540000D01*
X182480625Y-124540000D01*
X182195468Y-124483279D01*
X181926853Y-124372015D01*
X181685105Y-124210484D01*
X181479516Y-124004895D01*
X181317985Y-123763147D01*
X181206721Y-123494532D01*
X181150000Y-123209375D01*
X181150000Y-122918625D01*
X181206721Y-122633468D01*
X181317985Y-122364853D01*
X181479516Y-122123105D01*
X181685105Y-121917516D01*
X181926853Y-121755985D01*
X182195468Y-121644721D01*
X182480625Y-121588000D01*
X182771375Y-121588000D01*
X183056532Y-121644721D01*
X183056532Y-121644721D01*
G37*
G36*
X54241000Y-124345000D02*
G01*
X52439000Y-124345000D01*
X52439000Y-122543000D01*
X54241000Y-122543000D01*
X54241000Y-124345000D01*
X54241000Y-124345000D01*
G37*
G36*
X205154532Y-121390721D02*
G01*
X205423147Y-121501985D01*
X205664895Y-121663516D01*
X205870484Y-121869105D01*
X206032015Y-122110853D01*
X206143279Y-122379468D01*
X206200000Y-122664625D01*
X206200000Y-122955375D01*
X206143279Y-123240532D01*
X206032015Y-123509147D01*
X205870484Y-123750895D01*
X205664895Y-123956484D01*
X205423147Y-124118015D01*
X205154532Y-124229279D01*
X204869375Y-124286000D01*
X204578625Y-124286000D01*
X204293468Y-124229279D01*
X204024853Y-124118015D01*
X203783105Y-123956484D01*
X203577516Y-123750895D01*
X203415985Y-123509147D01*
X203304721Y-123240532D01*
X203248000Y-122955375D01*
X203248000Y-122664625D01*
X203304721Y-122379468D01*
X203415985Y-122110853D01*
X203577516Y-121869105D01*
X203783105Y-121663516D01*
X204024853Y-121501985D01*
X204293468Y-121390721D01*
X204578625Y-121334000D01*
X204869375Y-121334000D01*
X205154532Y-121390721D01*
X205154532Y-121390721D01*
G37*
G36*
X73836532Y-121262721D02*
G01*
X74105147Y-121373985D01*
X74346895Y-121535516D01*
X74552484Y-121741105D01*
X74714015Y-121982853D01*
X74825279Y-122251468D01*
X74882000Y-122536625D01*
X74882000Y-122827375D01*
X74825279Y-123112532D01*
X74714015Y-123381147D01*
X74552484Y-123622895D01*
X74346895Y-123828484D01*
X74105147Y-123990015D01*
X73836532Y-124101279D01*
X73551375Y-124158000D01*
X73260625Y-124158000D01*
X72975468Y-124101279D01*
X72706853Y-123990015D01*
X72465105Y-123828484D01*
X72259516Y-123622895D01*
X72097985Y-123381147D01*
X71986721Y-123112532D01*
X71930000Y-122827375D01*
X71930000Y-122536625D01*
X71986721Y-122251468D01*
X72097985Y-121982853D01*
X72259516Y-121741105D01*
X72465105Y-121535516D01*
X72706853Y-121373985D01*
X72975468Y-121262721D01*
X73260625Y-121206000D01*
X73551375Y-121206000D01*
X73836532Y-121262721D01*
X73836532Y-121262721D01*
G37*
G36*
X95934532Y-121136721D02*
G01*
X96203147Y-121247985D01*
X96444895Y-121409516D01*
X96650484Y-121615105D01*
X96812015Y-121856853D01*
X96923279Y-122125468D01*
X96980000Y-122410625D01*
X96980000Y-122701375D01*
X96923279Y-122986532D01*
X96812015Y-123255147D01*
X96650484Y-123496895D01*
X96444895Y-123702484D01*
X96203147Y-123864015D01*
X95934532Y-123975279D01*
X95649375Y-124032000D01*
X95358625Y-124032000D01*
X95073468Y-123975279D01*
X94804853Y-123864015D01*
X94563105Y-123702484D01*
X94357516Y-123496895D01*
X94195985Y-123255147D01*
X94084721Y-122986532D01*
X94028000Y-122701375D01*
X94028000Y-122410625D01*
X94084721Y-122125468D01*
X94195985Y-121856853D01*
X94357516Y-121615105D01*
X94563105Y-121409516D01*
X94804853Y-121247985D01*
X95073468Y-121136721D01*
X95358625Y-121080000D01*
X95649375Y-121080000D01*
X95934532Y-121136721D01*
X95934532Y-121136721D01*
G37*
G36*
X226744532Y-121136721D02*
G01*
X227013147Y-121247985D01*
X227254895Y-121409516D01*
X227460484Y-121615105D01*
X227622015Y-121856853D01*
X227733279Y-122125468D01*
X227790000Y-122410625D01*
X227790000Y-122701375D01*
X227733279Y-122986532D01*
X227622015Y-123255147D01*
X227460484Y-123496895D01*
X227254895Y-123702484D01*
X227013147Y-123864015D01*
X226744532Y-123975279D01*
X226459375Y-124032000D01*
X226168625Y-124032000D01*
X225883468Y-123975279D01*
X225614853Y-123864015D01*
X225373105Y-123702484D01*
X225167516Y-123496895D01*
X225005985Y-123255147D01*
X224894721Y-122986532D01*
X224838000Y-122701375D01*
X224838000Y-122410625D01*
X224894721Y-122125468D01*
X225005985Y-121856853D01*
X225167516Y-121615105D01*
X225373105Y-121409516D01*
X225614853Y-121247985D01*
X225883468Y-121136721D01*
X226168625Y-121080000D01*
X226459375Y-121080000D01*
X226744532Y-121136721D01*
X226744532Y-121136721D01*
G37*
G36*
X141684000Y-120348000D02*
G01*
X138732000Y-120348000D01*
X138732000Y-117396000D01*
X141684000Y-117396000D01*
X141684000Y-120348000D01*
X141684000Y-120348000D01*
G37*
G36*
X162766000Y-120348000D02*
G01*
X159814000Y-120348000D01*
X159814000Y-117396000D01*
X162766000Y-117396000D01*
X162766000Y-120348000D01*
X162766000Y-120348000D01*
G37*
G36*
X184102000Y-119840000D02*
G01*
X181150000Y-119840000D01*
X181150000Y-116888000D01*
X184102000Y-116888000D01*
X184102000Y-119840000D01*
X184102000Y-119840000D01*
G37*
G36*
X119586000Y-119840000D02*
G01*
X116634000Y-119840000D01*
X116634000Y-116888000D01*
X119586000Y-116888000D01*
X119586000Y-119840000D01*
X119586000Y-119840000D01*
G37*
G36*
X206200000Y-119586000D02*
G01*
X203248000Y-119586000D01*
X203248000Y-116634000D01*
X206200000Y-116634000D01*
X206200000Y-119586000D01*
X206200000Y-119586000D01*
G37*
G36*
X74882000Y-119458000D02*
G01*
X71930000Y-119458000D01*
X71930000Y-116506000D01*
X74882000Y-116506000D01*
X74882000Y-119458000D01*
X74882000Y-119458000D01*
G37*
G36*
X227790000Y-119332000D02*
G01*
X224838000Y-119332000D01*
X224838000Y-116380000D01*
X227790000Y-116380000D01*
X227790000Y-119332000D01*
X227790000Y-119332000D01*
G37*
G36*
X96980000Y-119332000D02*
G01*
X94028000Y-119332000D01*
X94028000Y-116380000D01*
X96980000Y-116380000D01*
X96980000Y-119332000D01*
X96980000Y-119332000D01*
G37*
G36*
X52971000Y-114185000D02*
G01*
X51169000Y-114185000D01*
X51169000Y-112383000D01*
X52971000Y-112383000D01*
X52971000Y-114185000D01*
X52971000Y-114185000D01*
G37*
G36*
X52180443Y-109849519D02*
G01*
X52246627Y-109856037D01*
X52416466Y-109907557D01*
X52572991Y-109991222D01*
X52608729Y-110020552D01*
X52710186Y-110103814D01*
X52793448Y-110205271D01*
X52822778Y-110241009D01*
X52906443Y-110397534D01*
X52957963Y-110567373D01*
X52975359Y-110744000D01*
X52957963Y-110920627D01*
X52906443Y-111090466D01*
X52822778Y-111246991D01*
X52793448Y-111282729D01*
X52710186Y-111384186D01*
X52608729Y-111467448D01*
X52572991Y-111496778D01*
X52416466Y-111580443D01*
X52246627Y-111631963D01*
X52180443Y-111638481D01*
X52114260Y-111645000D01*
X52025740Y-111645000D01*
X51959557Y-111638481D01*
X51893373Y-111631963D01*
X51723534Y-111580443D01*
X51567009Y-111496778D01*
X51531271Y-111467448D01*
X51429814Y-111384186D01*
X51346552Y-111282729D01*
X51317222Y-111246991D01*
X51233557Y-111090466D01*
X51182037Y-110920627D01*
X51164641Y-110744000D01*
X51182037Y-110567373D01*
X51233557Y-110397534D01*
X51317222Y-110241009D01*
X51346552Y-110205271D01*
X51429814Y-110103814D01*
X51531271Y-110020552D01*
X51567009Y-109991222D01*
X51723534Y-109907557D01*
X51893373Y-109856037D01*
X51959557Y-109849519D01*
X52025740Y-109843000D01*
X52114260Y-109843000D01*
X52180443Y-109849519D01*
X52180443Y-109849519D01*
G37*
G36*
X102234239Y-98411467D02*
G01*
X102548282Y-98473934D01*
X103139926Y-98719001D01*
X103672392Y-99074784D01*
X104125216Y-99527608D01*
X104480999Y-100060074D01*
X104726066Y-100651718D01*
X104773915Y-100892270D01*
X104848253Y-101265991D01*
X104851000Y-101279804D01*
X104851000Y-101920196D01*
X104726066Y-102548282D01*
X104480999Y-103139926D01*
X104125216Y-103672392D01*
X103672392Y-104125216D01*
X103139926Y-104480999D01*
X102548282Y-104726066D01*
X102234239Y-104788533D01*
X101920197Y-104851000D01*
X101279803Y-104851000D01*
X100965761Y-104788533D01*
X100651718Y-104726066D01*
X100060074Y-104480999D01*
X99527608Y-104125216D01*
X99074784Y-103672392D01*
X98719001Y-103139926D01*
X98473934Y-102548282D01*
X98349000Y-101920196D01*
X98349000Y-101279804D01*
X98351748Y-101265991D01*
X98426085Y-100892270D01*
X98473934Y-100651718D01*
X98719001Y-100060074D01*
X99074784Y-99527608D01*
X99527608Y-99074784D01*
X100060074Y-98719001D01*
X100651718Y-98473934D01*
X100965761Y-98411467D01*
X101279803Y-98349000D01*
X101920197Y-98349000D01*
X102234239Y-98411467D01*
X102234239Y-98411467D01*
G37*
G36*
X186054239Y-98411467D02*
G01*
X186368282Y-98473934D01*
X186959926Y-98719001D01*
X187492392Y-99074784D01*
X187945216Y-99527608D01*
X188300999Y-100060074D01*
X188546066Y-100651718D01*
X188593915Y-100892270D01*
X188668253Y-101265991D01*
X188671000Y-101279804D01*
X188671000Y-101920196D01*
X188546066Y-102548282D01*
X188300999Y-103139926D01*
X187945216Y-103672392D01*
X187492392Y-104125216D01*
X186959926Y-104480999D01*
X186368282Y-104726066D01*
X186054239Y-104788533D01*
X185740197Y-104851000D01*
X185099803Y-104851000D01*
X184785761Y-104788533D01*
X184471718Y-104726066D01*
X183880074Y-104480999D01*
X183347608Y-104125216D01*
X182894784Y-103672392D01*
X182539001Y-103139926D01*
X182293934Y-102548282D01*
X182169000Y-101920196D01*
X182169000Y-101279804D01*
X182171748Y-101265991D01*
X182246085Y-100892270D01*
X182293934Y-100651718D01*
X182539001Y-100060074D01*
X182894784Y-99527608D01*
X183347608Y-99074784D01*
X183880074Y-98719001D01*
X184471718Y-98473934D01*
X184785761Y-98411467D01*
X185099803Y-98349000D01*
X185740197Y-98349000D01*
X186054239Y-98411467D01*
X186054239Y-98411467D01*
G37*
G36*
X238915331Y-99518211D02*
G01*
X239243092Y-99653974D01*
X239538070Y-99851072D01*
X239788928Y-100101930D01*
X239986026Y-100396908D01*
X240121789Y-100724669D01*
X240191000Y-101072616D01*
X240191000Y-101427384D01*
X240121789Y-101775331D01*
X239986026Y-102103092D01*
X239788928Y-102398070D01*
X239538070Y-102648928D01*
X239243092Y-102846026D01*
X238915331Y-102981789D01*
X238567384Y-103051000D01*
X238212616Y-103051000D01*
X237864669Y-102981789D01*
X237536908Y-102846026D01*
X237241930Y-102648928D01*
X236991072Y-102398070D01*
X236793974Y-102103092D01*
X236658211Y-101775331D01*
X236589000Y-101427384D01*
X236589000Y-101072616D01*
X236658211Y-100724669D01*
X236793974Y-100396908D01*
X236991072Y-100101930D01*
X237241930Y-99851072D01*
X237536908Y-99653974D01*
X237864669Y-99518211D01*
X238212616Y-99449000D01*
X238567384Y-99449000D01*
X238915331Y-99518211D01*
X238915331Y-99518211D01*
G37*
G36*
X76106721Y-100308174D02*
G01*
X76206995Y-100349709D01*
X76206996Y-100349710D01*
X76297242Y-100410010D01*
X76373990Y-100486758D01*
X76373991Y-100486760D01*
X76434291Y-100577005D01*
X76475826Y-100677279D01*
X76497000Y-100783730D01*
X76497000Y-100892270D01*
X76475826Y-100998721D01*
X76434291Y-101098995D01*
X76434290Y-101098996D01*
X76373990Y-101189242D01*
X76297242Y-101265990D01*
X76251812Y-101296345D01*
X76206995Y-101326291D01*
X76106721Y-101367826D01*
X76000270Y-101389000D01*
X75891730Y-101389000D01*
X75785279Y-101367826D01*
X75685005Y-101326291D01*
X75640188Y-101296345D01*
X75594758Y-101265990D01*
X75518010Y-101189242D01*
X75457710Y-101098996D01*
X75457709Y-101098995D01*
X75416174Y-100998721D01*
X75395000Y-100892270D01*
X75395000Y-100783730D01*
X75416174Y-100677279D01*
X75457709Y-100577005D01*
X75518009Y-100486760D01*
X75518010Y-100486758D01*
X75594758Y-100410010D01*
X75685004Y-100349710D01*
X75685005Y-100349709D01*
X75785279Y-100308174D01*
X75891730Y-100287000D01*
X76000270Y-100287000D01*
X76106721Y-100308174D01*
X76106721Y-100308174D01*
G37*
G36*
X88806721Y-100308174D02*
G01*
X88906995Y-100349709D01*
X88906996Y-100349710D01*
X88997242Y-100410010D01*
X89073990Y-100486758D01*
X89073991Y-100486760D01*
X89134291Y-100577005D01*
X89175826Y-100677279D01*
X89197000Y-100783730D01*
X89197000Y-100892270D01*
X89175826Y-100998721D01*
X89134291Y-101098995D01*
X89134290Y-101098996D01*
X89073990Y-101189242D01*
X88997242Y-101265990D01*
X88951812Y-101296345D01*
X88906995Y-101326291D01*
X88806721Y-101367826D01*
X88700270Y-101389000D01*
X88591730Y-101389000D01*
X88485279Y-101367826D01*
X88385005Y-101326291D01*
X88340188Y-101296345D01*
X88294758Y-101265990D01*
X88218010Y-101189242D01*
X88157710Y-101098996D01*
X88157709Y-101098995D01*
X88116174Y-100998721D01*
X88095000Y-100892270D01*
X88095000Y-100783730D01*
X88116174Y-100677279D01*
X88157709Y-100577005D01*
X88218009Y-100486760D01*
X88218010Y-100486758D01*
X88294758Y-100410010D01*
X88385004Y-100349710D01*
X88385005Y-100349709D01*
X88485279Y-100308174D01*
X88591730Y-100287000D01*
X88700270Y-100287000D01*
X88806721Y-100308174D01*
X88806721Y-100308174D01*
G37*
G36*
X169303000Y-99453000D02*
G01*
X167501000Y-99453000D01*
X167501000Y-97651000D01*
X169303000Y-97651000D01*
X169303000Y-99453000D01*
X169303000Y-99453000D01*
G37*
G36*
X165972443Y-97657519D02*
G01*
X166038627Y-97664037D01*
X166208466Y-97715557D01*
X166364991Y-97799222D01*
X166400729Y-97828552D01*
X166502186Y-97911814D01*
X166585448Y-98013271D01*
X166614778Y-98049009D01*
X166698443Y-98205534D01*
X166749963Y-98375373D01*
X166767359Y-98552000D01*
X166749963Y-98728627D01*
X166698443Y-98898466D01*
X166614778Y-99054991D01*
X166598535Y-99074783D01*
X166502186Y-99192186D01*
X166400729Y-99275448D01*
X166364991Y-99304778D01*
X166208466Y-99388443D01*
X166038627Y-99439963D01*
X165972443Y-99446481D01*
X165906260Y-99453000D01*
X165817740Y-99453000D01*
X165751557Y-99446481D01*
X165685373Y-99439963D01*
X165515534Y-99388443D01*
X165359009Y-99304778D01*
X165323271Y-99275448D01*
X165221814Y-99192186D01*
X165125465Y-99074783D01*
X165109222Y-99054991D01*
X165025557Y-98898466D01*
X164974037Y-98728627D01*
X164956641Y-98552000D01*
X164974037Y-98375373D01*
X165025557Y-98205534D01*
X165109222Y-98049009D01*
X165138552Y-98013271D01*
X165221814Y-97911814D01*
X165323271Y-97828552D01*
X165359009Y-97799222D01*
X165515534Y-97715557D01*
X165685373Y-97664037D01*
X165751557Y-97657519D01*
X165817740Y-97651000D01*
X165906260Y-97651000D01*
X165972443Y-97657519D01*
X165972443Y-97657519D01*
G37*
G36*
X233793512Y-95583927D02*
G01*
X233942812Y-95613624D01*
X234106784Y-95681544D01*
X234254354Y-95780147D01*
X234379853Y-95905646D01*
X234478456Y-96053216D01*
X234546376Y-96217188D01*
X234557405Y-96272638D01*
X234564516Y-96296078D01*
X234576067Y-96317689D01*
X234591613Y-96336631D01*
X234610555Y-96352176D01*
X234632165Y-96363727D01*
X234655614Y-96370840D01*
X234680000Y-96373242D01*
X234704387Y-96370840D01*
X234727835Y-96363727D01*
X234749446Y-96352176D01*
X234768388Y-96336630D01*
X234783933Y-96317688D01*
X234795484Y-96296078D01*
X234802595Y-96272638D01*
X234813624Y-96217188D01*
X234881544Y-96053216D01*
X234980147Y-95905646D01*
X235105646Y-95780147D01*
X235253216Y-95681544D01*
X235417188Y-95613624D01*
X235566488Y-95583927D01*
X235591258Y-95579000D01*
X235768742Y-95579000D01*
X235793512Y-95583927D01*
X235942812Y-95613624D01*
X236106784Y-95681544D01*
X236254354Y-95780147D01*
X236379853Y-95905646D01*
X236478456Y-96053216D01*
X236546376Y-96217188D01*
X236581000Y-96391259D01*
X236581000Y-96568741D01*
X236546376Y-96742812D01*
X236478456Y-96906784D01*
X236379853Y-97054354D01*
X236254354Y-97179853D01*
X236106784Y-97278456D01*
X235942812Y-97346376D01*
X235793512Y-97376073D01*
X235768742Y-97381000D01*
X235591258Y-97381000D01*
X235566488Y-97376073D01*
X235417188Y-97346376D01*
X235253216Y-97278456D01*
X235105646Y-97179853D01*
X234980147Y-97054354D01*
X234881544Y-96906784D01*
X234813624Y-96742812D01*
X234802595Y-96687362D01*
X234795484Y-96663922D01*
X234783933Y-96642311D01*
X234768387Y-96623369D01*
X234749445Y-96607824D01*
X234727835Y-96596273D01*
X234704386Y-96589160D01*
X234680000Y-96586758D01*
X234655613Y-96589160D01*
X234632165Y-96596273D01*
X234610554Y-96607824D01*
X234591612Y-96623370D01*
X234576067Y-96642312D01*
X234564516Y-96663922D01*
X234557405Y-96687362D01*
X234546376Y-96742812D01*
X234478456Y-96906784D01*
X234379853Y-97054354D01*
X234254354Y-97179853D01*
X234106784Y-97278456D01*
X233942812Y-97346376D01*
X233793512Y-97376073D01*
X233768742Y-97381000D01*
X233591258Y-97381000D01*
X233566488Y-97376073D01*
X233417188Y-97346376D01*
X233253216Y-97278456D01*
X233105646Y-97179853D01*
X232980147Y-97054354D01*
X232881544Y-96906784D01*
X232813624Y-96742812D01*
X232779000Y-96568741D01*
X232779000Y-96391259D01*
X232813624Y-96217188D01*
X232881544Y-96053216D01*
X232980147Y-95905646D01*
X233105646Y-95780147D01*
X233253216Y-95681544D01*
X233417188Y-95613624D01*
X233566488Y-95583927D01*
X233591258Y-95579000D01*
X233768742Y-95579000D01*
X233793512Y-95583927D01*
X233793512Y-95583927D01*
G37*
G36*
X168512442Y-95117518D02*
G01*
X168578627Y-95124037D01*
X168748466Y-95175557D01*
X168904991Y-95259222D01*
X168940729Y-95288552D01*
X169042186Y-95371814D01*
X169125448Y-95473271D01*
X169154778Y-95509009D01*
X169238443Y-95665534D01*
X169289963Y-95835373D01*
X169307359Y-96012000D01*
X169289963Y-96188627D01*
X169238443Y-96358466D01*
X169154778Y-96514991D01*
X169125448Y-96550729D01*
X169042186Y-96652186D01*
X168940729Y-96735448D01*
X168904991Y-96764778D01*
X168748466Y-96848443D01*
X168578627Y-96899963D01*
X168512443Y-96906481D01*
X168446260Y-96913000D01*
X168357740Y-96913000D01*
X168291557Y-96906481D01*
X168225373Y-96899963D01*
X168055534Y-96848443D01*
X167899009Y-96764778D01*
X167863271Y-96735448D01*
X167761814Y-96652186D01*
X167678552Y-96550729D01*
X167649222Y-96514991D01*
X167565557Y-96358466D01*
X167514037Y-96188627D01*
X167496641Y-96012000D01*
X167514037Y-95835373D01*
X167565557Y-95665534D01*
X167649222Y-95509009D01*
X167678552Y-95473271D01*
X167761814Y-95371814D01*
X167863271Y-95288552D01*
X167899009Y-95259222D01*
X168055534Y-95175557D01*
X168225373Y-95124037D01*
X168291558Y-95117518D01*
X168357740Y-95111000D01*
X168446260Y-95111000D01*
X168512442Y-95117518D01*
X168512442Y-95117518D01*
G37*
G36*
X165972442Y-95117518D02*
G01*
X166038627Y-95124037D01*
X166208466Y-95175557D01*
X166364991Y-95259222D01*
X166400729Y-95288552D01*
X166502186Y-95371814D01*
X166585448Y-95473271D01*
X166614778Y-95509009D01*
X166698443Y-95665534D01*
X166749963Y-95835373D01*
X166767359Y-96012000D01*
X166749963Y-96188627D01*
X166698443Y-96358466D01*
X166614778Y-96514991D01*
X166585448Y-96550729D01*
X166502186Y-96652186D01*
X166400729Y-96735448D01*
X166364991Y-96764778D01*
X166208466Y-96848443D01*
X166038627Y-96899963D01*
X165972443Y-96906481D01*
X165906260Y-96913000D01*
X165817740Y-96913000D01*
X165751557Y-96906481D01*
X165685373Y-96899963D01*
X165515534Y-96848443D01*
X165359009Y-96764778D01*
X165323271Y-96735448D01*
X165221814Y-96652186D01*
X165138552Y-96550729D01*
X165109222Y-96514991D01*
X165025557Y-96358466D01*
X164974037Y-96188627D01*
X164956641Y-96012000D01*
X164974037Y-95835373D01*
X165025557Y-95665534D01*
X165109222Y-95509009D01*
X165138552Y-95473271D01*
X165221814Y-95371814D01*
X165323271Y-95288552D01*
X165359009Y-95259222D01*
X165515534Y-95175557D01*
X165685373Y-95124037D01*
X165751558Y-95117518D01*
X165817740Y-95111000D01*
X165906260Y-95111000D01*
X165972442Y-95117518D01*
X165972442Y-95117518D01*
G37*
G36*
X234581000Y-93650383D02*
G01*
X234583402Y-93674769D01*
X234590515Y-93698218D01*
X234602066Y-93719829D01*
X234617611Y-93738771D01*
X234636553Y-93754316D01*
X234658164Y-93765867D01*
X234681613Y-93772980D01*
X234705999Y-93775382D01*
X234730385Y-93772980D01*
X234753834Y-93765867D01*
X234775445Y-93754316D01*
X234794387Y-93738771D01*
X234809932Y-93719829D01*
X234821477Y-93698229D01*
X234881544Y-93553216D01*
X234980147Y-93405646D01*
X235105646Y-93280147D01*
X235253216Y-93181544D01*
X235417188Y-93113624D01*
X235566488Y-93083927D01*
X235591258Y-93079000D01*
X235768742Y-93079000D01*
X235793512Y-93083927D01*
X235942812Y-93113624D01*
X236106784Y-93181544D01*
X236254354Y-93280147D01*
X236379853Y-93405646D01*
X236478456Y-93553216D01*
X236546376Y-93717188D01*
X236581000Y-93891259D01*
X236581000Y-94068741D01*
X236546376Y-94242812D01*
X236478456Y-94406784D01*
X236379853Y-94554354D01*
X236254354Y-94679853D01*
X236106784Y-94778456D01*
X235942812Y-94846376D01*
X235793512Y-94876073D01*
X235768742Y-94881000D01*
X235591258Y-94881000D01*
X235566488Y-94876073D01*
X235417188Y-94846376D01*
X235253216Y-94778456D01*
X235105646Y-94679853D01*
X234980147Y-94554354D01*
X234881544Y-94406784D01*
X234821477Y-94261771D01*
X234809932Y-94240171D01*
X234794387Y-94221229D01*
X234775445Y-94205684D01*
X234753834Y-94194133D01*
X234730385Y-94187020D01*
X234705999Y-94184618D01*
X234681613Y-94187020D01*
X234658164Y-94194133D01*
X234636553Y-94205684D01*
X234617611Y-94221229D01*
X234602066Y-94240171D01*
X234590515Y-94261782D01*
X234583402Y-94285231D01*
X234581000Y-94309617D01*
X234581000Y-94881000D01*
X232779000Y-94881000D01*
X232779000Y-93079000D01*
X234581000Y-93079000D01*
X234581000Y-93650383D01*
X234581000Y-93650383D01*
G37*
G36*
X165972443Y-92577519D02*
G01*
X166038627Y-92584037D01*
X166208466Y-92635557D01*
X166364991Y-92719222D01*
X166400729Y-92748552D01*
X166502186Y-92831814D01*
X166585448Y-92933271D01*
X166614778Y-92969009D01*
X166614779Y-92969011D01*
X166692078Y-93113625D01*
X166698443Y-93125534D01*
X166749963Y-93295373D01*
X166767359Y-93472000D01*
X166749963Y-93648627D01*
X166698443Y-93818466D01*
X166614778Y-93974991D01*
X166585448Y-94010729D01*
X166502186Y-94112186D01*
X166413926Y-94184618D01*
X166364991Y-94224778D01*
X166208466Y-94308443D01*
X166038627Y-94359963D01*
X165972443Y-94366481D01*
X165906260Y-94373000D01*
X165817740Y-94373000D01*
X165751557Y-94366481D01*
X165685373Y-94359963D01*
X165515534Y-94308443D01*
X165359009Y-94224778D01*
X165310074Y-94184618D01*
X165221814Y-94112186D01*
X165138552Y-94010729D01*
X165109222Y-93974991D01*
X165025557Y-93818466D01*
X164974037Y-93648627D01*
X164956641Y-93472000D01*
X164974037Y-93295373D01*
X165025557Y-93125534D01*
X165031923Y-93113625D01*
X165109221Y-92969011D01*
X165109222Y-92969009D01*
X165138552Y-92933271D01*
X165221814Y-92831814D01*
X165323271Y-92748552D01*
X165359009Y-92719222D01*
X165515534Y-92635557D01*
X165685373Y-92584037D01*
X165751558Y-92577518D01*
X165817740Y-92571000D01*
X165906260Y-92571000D01*
X165972443Y-92577519D01*
X165972443Y-92577519D01*
G37*
G36*
X168512443Y-92577519D02*
G01*
X168578627Y-92584037D01*
X168748466Y-92635557D01*
X168904991Y-92719222D01*
X168940729Y-92748552D01*
X169042186Y-92831814D01*
X169125448Y-92933271D01*
X169154778Y-92969009D01*
X169154779Y-92969011D01*
X169232078Y-93113625D01*
X169238443Y-93125534D01*
X169289963Y-93295373D01*
X169307359Y-93472000D01*
X169289963Y-93648627D01*
X169238443Y-93818466D01*
X169154778Y-93974991D01*
X169125448Y-94010729D01*
X169042186Y-94112186D01*
X168953926Y-94184618D01*
X168904991Y-94224778D01*
X168748466Y-94308443D01*
X168578627Y-94359963D01*
X168512443Y-94366481D01*
X168446260Y-94373000D01*
X168357740Y-94373000D01*
X168291557Y-94366481D01*
X168225373Y-94359963D01*
X168055534Y-94308443D01*
X167899009Y-94224778D01*
X167850074Y-94184618D01*
X167761814Y-94112186D01*
X167678552Y-94010729D01*
X167649222Y-93974991D01*
X167565557Y-93818466D01*
X167514037Y-93648627D01*
X167496641Y-93472000D01*
X167514037Y-93295373D01*
X167565557Y-93125534D01*
X167571923Y-93113625D01*
X167649221Y-92969011D01*
X167649222Y-92969009D01*
X167678552Y-92933271D01*
X167761814Y-92831814D01*
X167863271Y-92748552D01*
X167899009Y-92719222D01*
X168055534Y-92635557D01*
X168225373Y-92584037D01*
X168291558Y-92577518D01*
X168357740Y-92571000D01*
X168446260Y-92571000D01*
X168512443Y-92577519D01*
X168512443Y-92577519D01*
G37*
G36*
X238915331Y-87478211D02*
G01*
X239243092Y-87613974D01*
X239538070Y-87811072D01*
X239788928Y-88061930D01*
X239986026Y-88356908D01*
X240121789Y-88684669D01*
X240191000Y-89032616D01*
X240191000Y-89387384D01*
X240121789Y-89735331D01*
X239986026Y-90063092D01*
X239788928Y-90358070D01*
X239538070Y-90608928D01*
X239243092Y-90806026D01*
X238915331Y-90941789D01*
X238567384Y-91011000D01*
X238212616Y-91011000D01*
X237864669Y-90941789D01*
X237536908Y-90806026D01*
X237241930Y-90608928D01*
X236991072Y-90358070D01*
X236793974Y-90063092D01*
X236658211Y-89735331D01*
X236589000Y-89387384D01*
X236589000Y-89032616D01*
X236658211Y-88684669D01*
X236793974Y-88356908D01*
X236991072Y-88061930D01*
X237241930Y-87811072D01*
X237536908Y-87613974D01*
X237864669Y-87478211D01*
X238212616Y-87409000D01*
X238567384Y-87409000D01*
X238915331Y-87478211D01*
X238915331Y-87478211D01*
G37*
G36*
X201074721Y-89640174D02*
G01*
X201174995Y-89681709D01*
X201174996Y-89681710D01*
X201265242Y-89742010D01*
X201341990Y-89818758D01*
X201341991Y-89818760D01*
X201402291Y-89909005D01*
X201443826Y-90009279D01*
X201465000Y-90115730D01*
X201465000Y-90224270D01*
X201443826Y-90330721D01*
X201402291Y-90430995D01*
X201402290Y-90430996D01*
X201341990Y-90521242D01*
X201265242Y-90597990D01*
X201248872Y-90608928D01*
X201174995Y-90658291D01*
X201074721Y-90699826D01*
X200968270Y-90721000D01*
X200859730Y-90721000D01*
X200753279Y-90699826D01*
X200653005Y-90658291D01*
X200579128Y-90608928D01*
X200562758Y-90597990D01*
X200486010Y-90521242D01*
X200425710Y-90430996D01*
X200425709Y-90430995D01*
X200384174Y-90330721D01*
X200363000Y-90224270D01*
X200363000Y-90115730D01*
X200384174Y-90009279D01*
X200425709Y-89909005D01*
X200486009Y-89818760D01*
X200486010Y-89818758D01*
X200562758Y-89742010D01*
X200653004Y-89681710D01*
X200653005Y-89681709D01*
X200753279Y-89640174D01*
X200859730Y-89619000D01*
X200968270Y-89619000D01*
X201074721Y-89640174D01*
X201074721Y-89640174D01*
G37*
G36*
X201074721Y-85322174D02*
G01*
X201174995Y-85363709D01*
X201174996Y-85363710D01*
X201265242Y-85424010D01*
X201341990Y-85500758D01*
X201341991Y-85500760D01*
X201402291Y-85591005D01*
X201443826Y-85691279D01*
X201465000Y-85797730D01*
X201465000Y-85906270D01*
X201443826Y-86012721D01*
X201402291Y-86112995D01*
X201402290Y-86112996D01*
X201341990Y-86203242D01*
X201265242Y-86279990D01*
X201219812Y-86310345D01*
X201174995Y-86340291D01*
X201074721Y-86381826D01*
X200968270Y-86403000D01*
X200859730Y-86403000D01*
X200753279Y-86381826D01*
X200653005Y-86340291D01*
X200608188Y-86310345D01*
X200562758Y-86279990D01*
X200486010Y-86203242D01*
X200425710Y-86112996D01*
X200425709Y-86112995D01*
X200384174Y-86012721D01*
X200363000Y-85906270D01*
X200363000Y-85797730D01*
X200384174Y-85691279D01*
X200425709Y-85591005D01*
X200486009Y-85500760D01*
X200486010Y-85500758D01*
X200562758Y-85424010D01*
X200653004Y-85363710D01*
X200653005Y-85363709D01*
X200753279Y-85322174D01*
X200859730Y-85301000D01*
X200968270Y-85301000D01*
X201074721Y-85322174D01*
X201074721Y-85322174D01*
G37*
G36*
X33942721Y-78464174D02*
G01*
X34042995Y-78505709D01*
X34042996Y-78505710D01*
X34133242Y-78566010D01*
X34209990Y-78642758D01*
X34209991Y-78642760D01*
X34270291Y-78733005D01*
X34311826Y-78833279D01*
X34333000Y-78939730D01*
X34333000Y-79048270D01*
X34311826Y-79154721D01*
X34270291Y-79254995D01*
X34270290Y-79254996D01*
X34209990Y-79345242D01*
X34133242Y-79421990D01*
X34087812Y-79452345D01*
X34042995Y-79482291D01*
X33942721Y-79523826D01*
X33836270Y-79545000D01*
X33727730Y-79545000D01*
X33621279Y-79523826D01*
X33521005Y-79482291D01*
X33476188Y-79452345D01*
X33430758Y-79421990D01*
X33354010Y-79345242D01*
X33293710Y-79254996D01*
X33293709Y-79254995D01*
X33252174Y-79154721D01*
X33231000Y-79048270D01*
X33231000Y-78939730D01*
X33252174Y-78833279D01*
X33293709Y-78733005D01*
X33354009Y-78642760D01*
X33354010Y-78642758D01*
X33430758Y-78566010D01*
X33521004Y-78505710D01*
X33521005Y-78505709D01*
X33621279Y-78464174D01*
X33727730Y-78443000D01*
X33836270Y-78443000D01*
X33942721Y-78464174D01*
X33942721Y-78464174D01*
G37*
G36*
X55786721Y-74146174D02*
G01*
X55886995Y-74187709D01*
X55886996Y-74187710D01*
X55977242Y-74248010D01*
X56053990Y-74324758D01*
X56053991Y-74324760D01*
X56114291Y-74415005D01*
X56155826Y-74515279D01*
X56177000Y-74621730D01*
X56177000Y-74730270D01*
X56155826Y-74836721D01*
X56114291Y-74936995D01*
X56114290Y-74936996D01*
X56053990Y-75027242D01*
X55977242Y-75103990D01*
X55931812Y-75134345D01*
X55886995Y-75164291D01*
X55786721Y-75205826D01*
X55680270Y-75227000D01*
X55571730Y-75227000D01*
X55465279Y-75205826D01*
X55365005Y-75164291D01*
X55320188Y-75134345D01*
X55274758Y-75103990D01*
X55198010Y-75027242D01*
X55137710Y-74936996D01*
X55137709Y-74936995D01*
X55096174Y-74836721D01*
X55075000Y-74730270D01*
X55075000Y-74621730D01*
X55096174Y-74515279D01*
X55137709Y-74415005D01*
X55198009Y-74324760D01*
X55198010Y-74324758D01*
X55274758Y-74248010D01*
X55365004Y-74187710D01*
X55365005Y-74187709D01*
X55465279Y-74146174D01*
X55571730Y-74125000D01*
X55680270Y-74125000D01*
X55786721Y-74146174D01*
X55786721Y-74146174D01*
G37*
G36*
X45880721Y-71860174D02*
G01*
X45980995Y-71901709D01*
X45980996Y-71901710D01*
X46071242Y-71962010D01*
X46147990Y-72038758D01*
X46147991Y-72038760D01*
X46208291Y-72129005D01*
X46249826Y-72229279D01*
X46271000Y-72335730D01*
X46271000Y-72444270D01*
X46249826Y-72550721D01*
X46208291Y-72650995D01*
X46208290Y-72650996D01*
X46147990Y-72741242D01*
X46071242Y-72817990D01*
X46025812Y-72848345D01*
X45980995Y-72878291D01*
X45880721Y-72919826D01*
X45774270Y-72941000D01*
X45665730Y-72941000D01*
X45559279Y-72919826D01*
X45459005Y-72878291D01*
X45414188Y-72848345D01*
X45368758Y-72817990D01*
X45292010Y-72741242D01*
X45231710Y-72650996D01*
X45231709Y-72650995D01*
X45190174Y-72550721D01*
X45169000Y-72444270D01*
X45169000Y-72335730D01*
X45190174Y-72229279D01*
X45231709Y-72129005D01*
X45292009Y-72038760D01*
X45292010Y-72038758D01*
X45368758Y-71962010D01*
X45459004Y-71901710D01*
X45459005Y-71901709D01*
X45559279Y-71860174D01*
X45665730Y-71839000D01*
X45774270Y-71839000D01*
X45880721Y-71860174D01*
X45880721Y-71860174D01*
G37*
G36*
X155685442Y-69590518D02*
G01*
X155751627Y-69597037D01*
X155921466Y-69648557D01*
X156077991Y-69732222D01*
X156113729Y-69761552D01*
X156215186Y-69844814D01*
X156298448Y-69946271D01*
X156327778Y-69982009D01*
X156411443Y-70138534D01*
X156462963Y-70308373D01*
X156480359Y-70485000D01*
X156462963Y-70661627D01*
X156411443Y-70831466D01*
X156327778Y-70987991D01*
X156298448Y-71023729D01*
X156215186Y-71125186D01*
X156113729Y-71208448D01*
X156077991Y-71237778D01*
X155921466Y-71321443D01*
X155751627Y-71372963D01*
X155685442Y-71379482D01*
X155619260Y-71386000D01*
X155530740Y-71386000D01*
X155464558Y-71379482D01*
X155398373Y-71372963D01*
X155228534Y-71321443D01*
X155072009Y-71237778D01*
X155036271Y-71208448D01*
X154934814Y-71125186D01*
X154851552Y-71023729D01*
X154822222Y-70987991D01*
X154738557Y-70831466D01*
X154687037Y-70661627D01*
X154669641Y-70485000D01*
X154687037Y-70308373D01*
X154738557Y-70138534D01*
X154822222Y-69982009D01*
X154851552Y-69946271D01*
X154934814Y-69844814D01*
X155036271Y-69761552D01*
X155072009Y-69732222D01*
X155228534Y-69648557D01*
X155398373Y-69597037D01*
X155464558Y-69590518D01*
X155530740Y-69584000D01*
X155619260Y-69584000D01*
X155685442Y-69590518D01*
X155685442Y-69590518D01*
G37*
G36*
X224265442Y-69590518D02*
G01*
X224331627Y-69597037D01*
X224501466Y-69648557D01*
X224657991Y-69732222D01*
X224693729Y-69761552D01*
X224795186Y-69844814D01*
X224878448Y-69946271D01*
X224907778Y-69982009D01*
X224991443Y-70138534D01*
X225042963Y-70308373D01*
X225060359Y-70485000D01*
X225042963Y-70661627D01*
X224991443Y-70831466D01*
X224907778Y-70987991D01*
X224878448Y-71023729D01*
X224795186Y-71125186D01*
X224693729Y-71208448D01*
X224657991Y-71237778D01*
X224501466Y-71321443D01*
X224331627Y-71372963D01*
X224265442Y-71379482D01*
X224199260Y-71386000D01*
X224110740Y-71386000D01*
X224044558Y-71379482D01*
X223978373Y-71372963D01*
X223808534Y-71321443D01*
X223652009Y-71237778D01*
X223616271Y-71208448D01*
X223514814Y-71125186D01*
X223431552Y-71023729D01*
X223402222Y-70987991D01*
X223318557Y-70831466D01*
X223267037Y-70661627D01*
X223249641Y-70485000D01*
X223267037Y-70308373D01*
X223318557Y-70138534D01*
X223402222Y-69982009D01*
X223431552Y-69946271D01*
X223514814Y-69844814D01*
X223616271Y-69761552D01*
X223652009Y-69732222D01*
X223808534Y-69648557D01*
X223978373Y-69597037D01*
X224044558Y-69590518D01*
X224110740Y-69584000D01*
X224199260Y-69584000D01*
X224265442Y-69590518D01*
X224265442Y-69590518D01*
G37*
G36*
X201405442Y-69590518D02*
G01*
X201471627Y-69597037D01*
X201641466Y-69648557D01*
X201797991Y-69732222D01*
X201833729Y-69761552D01*
X201935186Y-69844814D01*
X202018448Y-69946271D01*
X202047778Y-69982009D01*
X202131443Y-70138534D01*
X202182963Y-70308373D01*
X202200359Y-70485000D01*
X202182963Y-70661627D01*
X202131443Y-70831466D01*
X202047778Y-70987991D01*
X202018448Y-71023729D01*
X201935186Y-71125186D01*
X201833729Y-71208448D01*
X201797991Y-71237778D01*
X201641466Y-71321443D01*
X201471627Y-71372963D01*
X201405442Y-71379482D01*
X201339260Y-71386000D01*
X201250740Y-71386000D01*
X201184558Y-71379482D01*
X201118373Y-71372963D01*
X200948534Y-71321443D01*
X200792009Y-71237778D01*
X200756271Y-71208448D01*
X200654814Y-71125186D01*
X200571552Y-71023729D01*
X200542222Y-70987991D01*
X200458557Y-70831466D01*
X200407037Y-70661627D01*
X200389641Y-70485000D01*
X200407037Y-70308373D01*
X200458557Y-70138534D01*
X200542222Y-69982009D01*
X200571552Y-69946271D01*
X200654814Y-69844814D01*
X200756271Y-69761552D01*
X200792009Y-69732222D01*
X200948534Y-69648557D01*
X201118373Y-69597037D01*
X201184558Y-69590518D01*
X201250740Y-69584000D01*
X201339260Y-69584000D01*
X201405442Y-69590518D01*
X201405442Y-69590518D01*
G37*
G36*
X132825442Y-69590518D02*
G01*
X132891627Y-69597037D01*
X133061466Y-69648557D01*
X133217991Y-69732222D01*
X133253729Y-69761552D01*
X133355186Y-69844814D01*
X133438448Y-69946271D01*
X133467778Y-69982009D01*
X133551443Y-70138534D01*
X133602963Y-70308373D01*
X133620359Y-70485000D01*
X133602963Y-70661627D01*
X133551443Y-70831466D01*
X133467778Y-70987991D01*
X133438448Y-71023729D01*
X133355186Y-71125186D01*
X133253729Y-71208448D01*
X133217991Y-71237778D01*
X133061466Y-71321443D01*
X132891627Y-71372963D01*
X132825442Y-71379482D01*
X132759260Y-71386000D01*
X132670740Y-71386000D01*
X132604558Y-71379482D01*
X132538373Y-71372963D01*
X132368534Y-71321443D01*
X132212009Y-71237778D01*
X132176271Y-71208448D01*
X132074814Y-71125186D01*
X131991552Y-71023729D01*
X131962222Y-70987991D01*
X131878557Y-70831466D01*
X131827037Y-70661627D01*
X131809641Y-70485000D01*
X131827037Y-70308373D01*
X131878557Y-70138534D01*
X131962222Y-69982009D01*
X131991552Y-69946271D01*
X132074814Y-69844814D01*
X132176271Y-69761552D01*
X132212009Y-69732222D01*
X132368534Y-69648557D01*
X132538373Y-69597037D01*
X132604558Y-69590518D01*
X132670740Y-69584000D01*
X132759260Y-69584000D01*
X132825442Y-69590518D01*
X132825442Y-69590518D01*
G37*
G36*
X109965442Y-69590518D02*
G01*
X110031627Y-69597037D01*
X110201466Y-69648557D01*
X110357991Y-69732222D01*
X110393729Y-69761552D01*
X110495186Y-69844814D01*
X110578448Y-69946271D01*
X110607778Y-69982009D01*
X110691443Y-70138534D01*
X110742963Y-70308373D01*
X110760359Y-70485000D01*
X110742963Y-70661627D01*
X110691443Y-70831466D01*
X110607778Y-70987991D01*
X110578448Y-71023729D01*
X110495186Y-71125186D01*
X110393729Y-71208448D01*
X110357991Y-71237778D01*
X110201466Y-71321443D01*
X110031627Y-71372963D01*
X109965442Y-71379482D01*
X109899260Y-71386000D01*
X109810740Y-71386000D01*
X109744558Y-71379482D01*
X109678373Y-71372963D01*
X109508534Y-71321443D01*
X109352009Y-71237778D01*
X109316271Y-71208448D01*
X109214814Y-71125186D01*
X109131552Y-71023729D01*
X109102222Y-70987991D01*
X109018557Y-70831466D01*
X108967037Y-70661627D01*
X108949641Y-70485000D01*
X108967037Y-70308373D01*
X109018557Y-70138534D01*
X109102222Y-69982009D01*
X109131552Y-69946271D01*
X109214814Y-69844814D01*
X109316271Y-69761552D01*
X109352009Y-69732222D01*
X109508534Y-69648557D01*
X109678373Y-69597037D01*
X109744558Y-69590518D01*
X109810740Y-69584000D01*
X109899260Y-69584000D01*
X109965442Y-69590518D01*
X109965442Y-69590518D01*
G37*
G36*
X87105442Y-69590518D02*
G01*
X87171627Y-69597037D01*
X87341466Y-69648557D01*
X87497991Y-69732222D01*
X87533729Y-69761552D01*
X87635186Y-69844814D01*
X87718448Y-69946271D01*
X87747778Y-69982009D01*
X87831443Y-70138534D01*
X87882963Y-70308373D01*
X87900359Y-70485000D01*
X87882963Y-70661627D01*
X87831443Y-70831466D01*
X87747778Y-70987991D01*
X87718448Y-71023729D01*
X87635186Y-71125186D01*
X87533729Y-71208448D01*
X87497991Y-71237778D01*
X87341466Y-71321443D01*
X87171627Y-71372963D01*
X87105442Y-71379482D01*
X87039260Y-71386000D01*
X86950740Y-71386000D01*
X86884558Y-71379482D01*
X86818373Y-71372963D01*
X86648534Y-71321443D01*
X86492009Y-71237778D01*
X86456271Y-71208448D01*
X86354814Y-71125186D01*
X86271552Y-71023729D01*
X86242222Y-70987991D01*
X86158557Y-70831466D01*
X86107037Y-70661627D01*
X86089641Y-70485000D01*
X86107037Y-70308373D01*
X86158557Y-70138534D01*
X86242222Y-69982009D01*
X86271552Y-69946271D01*
X86354814Y-69844814D01*
X86456271Y-69761552D01*
X86492009Y-69732222D01*
X86648534Y-69648557D01*
X86818373Y-69597037D01*
X86884558Y-69590518D01*
X86950740Y-69584000D01*
X87039260Y-69584000D01*
X87105442Y-69590518D01*
X87105442Y-69590518D01*
G37*
G36*
X178545442Y-69590518D02*
G01*
X178611627Y-69597037D01*
X178781466Y-69648557D01*
X178937991Y-69732222D01*
X178973729Y-69761552D01*
X179075186Y-69844814D01*
X179158448Y-69946271D01*
X179187778Y-69982009D01*
X179271443Y-70138534D01*
X179322963Y-70308373D01*
X179340359Y-70485000D01*
X179322963Y-70661627D01*
X179271443Y-70831466D01*
X179187778Y-70987991D01*
X179158448Y-71023729D01*
X179075186Y-71125186D01*
X178973729Y-71208448D01*
X178937991Y-71237778D01*
X178781466Y-71321443D01*
X178611627Y-71372963D01*
X178545442Y-71379482D01*
X178479260Y-71386000D01*
X178390740Y-71386000D01*
X178324558Y-71379482D01*
X178258373Y-71372963D01*
X178088534Y-71321443D01*
X177932009Y-71237778D01*
X177896271Y-71208448D01*
X177794814Y-71125186D01*
X177711552Y-71023729D01*
X177682222Y-70987991D01*
X177598557Y-70831466D01*
X177547037Y-70661627D01*
X177529641Y-70485000D01*
X177547037Y-70308373D01*
X177598557Y-70138534D01*
X177682222Y-69982009D01*
X177711552Y-69946271D01*
X177794814Y-69844814D01*
X177896271Y-69761552D01*
X177932009Y-69732222D01*
X178088534Y-69648557D01*
X178258373Y-69597037D01*
X178324558Y-69590518D01*
X178390740Y-69584000D01*
X178479260Y-69584000D01*
X178545442Y-69590518D01*
X178545442Y-69590518D01*
G37*
G36*
X64245442Y-69590518D02*
G01*
X64311627Y-69597037D01*
X64481466Y-69648557D01*
X64637991Y-69732222D01*
X64673729Y-69761552D01*
X64775186Y-69844814D01*
X64858448Y-69946271D01*
X64887778Y-69982009D01*
X64971443Y-70138534D01*
X65022963Y-70308373D01*
X65040359Y-70485000D01*
X65022963Y-70661627D01*
X64971443Y-70831466D01*
X64887778Y-70987991D01*
X64858448Y-71023729D01*
X64775186Y-71125186D01*
X64673729Y-71208448D01*
X64637991Y-71237778D01*
X64481466Y-71321443D01*
X64311627Y-71372963D01*
X64245442Y-71379482D01*
X64179260Y-71386000D01*
X64090740Y-71386000D01*
X64024558Y-71379482D01*
X63958373Y-71372963D01*
X63788534Y-71321443D01*
X63632009Y-71237778D01*
X63596271Y-71208448D01*
X63494814Y-71125186D01*
X63411552Y-71023729D01*
X63382222Y-70987991D01*
X63298557Y-70831466D01*
X63247037Y-70661627D01*
X63229641Y-70485000D01*
X63247037Y-70308373D01*
X63298557Y-70138534D01*
X63382222Y-69982009D01*
X63411552Y-69946271D01*
X63494814Y-69844814D01*
X63596271Y-69761552D01*
X63632009Y-69732222D01*
X63788534Y-69648557D01*
X63958373Y-69597037D01*
X64024558Y-69590518D01*
X64090740Y-69584000D01*
X64179260Y-69584000D01*
X64245442Y-69590518D01*
X64245442Y-69590518D01*
G37*
G36*
X145925443Y-67050519D02*
G01*
X145991627Y-67057037D01*
X146161466Y-67108557D01*
X146317991Y-67192222D01*
X146353729Y-67221552D01*
X146455186Y-67304814D01*
X146538448Y-67406271D01*
X146567778Y-67442009D01*
X146651443Y-67598534D01*
X146702963Y-67768373D01*
X146720359Y-67945000D01*
X146702963Y-68121627D01*
X146651443Y-68291466D01*
X146567778Y-68447991D01*
X146538448Y-68483729D01*
X146455186Y-68585186D01*
X146353729Y-68668448D01*
X146317991Y-68697778D01*
X146161466Y-68781443D01*
X145991627Y-68832963D01*
X145925443Y-68839481D01*
X145859260Y-68846000D01*
X145770740Y-68846000D01*
X145704557Y-68839481D01*
X145638373Y-68832963D01*
X145468534Y-68781443D01*
X145312009Y-68697778D01*
X145276271Y-68668448D01*
X145174814Y-68585186D01*
X145091552Y-68483729D01*
X145062222Y-68447991D01*
X144978557Y-68291466D01*
X144927037Y-68121627D01*
X144909641Y-67945000D01*
X144927037Y-67768373D01*
X144978557Y-67598534D01*
X145062222Y-67442009D01*
X145091552Y-67406271D01*
X145174814Y-67304814D01*
X145276271Y-67221552D01*
X145312009Y-67192222D01*
X145468534Y-67108557D01*
X145638373Y-67057037D01*
X145704557Y-67050519D01*
X145770740Y-67044000D01*
X145859260Y-67044000D01*
X145925443Y-67050519D01*
X145925443Y-67050519D01*
G37*
G36*
X64245443Y-67050519D02*
G01*
X64311627Y-67057037D01*
X64481466Y-67108557D01*
X64637991Y-67192222D01*
X64673729Y-67221552D01*
X64775186Y-67304814D01*
X64858448Y-67406271D01*
X64887778Y-67442009D01*
X64971443Y-67598534D01*
X65022963Y-67768373D01*
X65040359Y-67945000D01*
X65022963Y-68121627D01*
X64971443Y-68291466D01*
X64887778Y-68447991D01*
X64858448Y-68483729D01*
X64775186Y-68585186D01*
X64673729Y-68668448D01*
X64637991Y-68697778D01*
X64481466Y-68781443D01*
X64311627Y-68832963D01*
X64245443Y-68839481D01*
X64179260Y-68846000D01*
X64090740Y-68846000D01*
X64024557Y-68839481D01*
X63958373Y-68832963D01*
X63788534Y-68781443D01*
X63632009Y-68697778D01*
X63596271Y-68668448D01*
X63494814Y-68585186D01*
X63411552Y-68483729D01*
X63382222Y-68447991D01*
X63298557Y-68291466D01*
X63247037Y-68121627D01*
X63229641Y-67945000D01*
X63247037Y-67768373D01*
X63298557Y-67598534D01*
X63382222Y-67442009D01*
X63411552Y-67406271D01*
X63494814Y-67304814D01*
X63596271Y-67221552D01*
X63632009Y-67192222D01*
X63788534Y-67108557D01*
X63958373Y-67057037D01*
X64024557Y-67050519D01*
X64090740Y-67044000D01*
X64179260Y-67044000D01*
X64245443Y-67050519D01*
X64245443Y-67050519D01*
G37*
G36*
X54485443Y-67050519D02*
G01*
X54551627Y-67057037D01*
X54721466Y-67108557D01*
X54877991Y-67192222D01*
X54913729Y-67221552D01*
X55015186Y-67304814D01*
X55098448Y-67406271D01*
X55127778Y-67442009D01*
X55211443Y-67598534D01*
X55262963Y-67768373D01*
X55280359Y-67945000D01*
X55262963Y-68121627D01*
X55211443Y-68291466D01*
X55127778Y-68447991D01*
X55098448Y-68483729D01*
X55015186Y-68585186D01*
X54913729Y-68668448D01*
X54877991Y-68697778D01*
X54721466Y-68781443D01*
X54551627Y-68832963D01*
X54485443Y-68839481D01*
X54419260Y-68846000D01*
X54330740Y-68846000D01*
X54264557Y-68839481D01*
X54198373Y-68832963D01*
X54028534Y-68781443D01*
X53872009Y-68697778D01*
X53836271Y-68668448D01*
X53734814Y-68585186D01*
X53651552Y-68483729D01*
X53622222Y-68447991D01*
X53538557Y-68291466D01*
X53487037Y-68121627D01*
X53469641Y-67945000D01*
X53487037Y-67768373D01*
X53538557Y-67598534D01*
X53622222Y-67442009D01*
X53651552Y-67406271D01*
X53734814Y-67304814D01*
X53836271Y-67221552D01*
X53872009Y-67192222D01*
X54028534Y-67108557D01*
X54198373Y-67057037D01*
X54264557Y-67050519D01*
X54330740Y-67044000D01*
X54419260Y-67044000D01*
X54485443Y-67050519D01*
X54485443Y-67050519D01*
G37*
G36*
X224265443Y-67050519D02*
G01*
X224331627Y-67057037D01*
X224501466Y-67108557D01*
X224657991Y-67192222D01*
X224693729Y-67221552D01*
X224795186Y-67304814D01*
X224878448Y-67406271D01*
X224907778Y-67442009D01*
X224991443Y-67598534D01*
X225042963Y-67768373D01*
X225060359Y-67945000D01*
X225042963Y-68121627D01*
X224991443Y-68291466D01*
X224907778Y-68447991D01*
X224878448Y-68483729D01*
X224795186Y-68585186D01*
X224693729Y-68668448D01*
X224657991Y-68697778D01*
X224501466Y-68781443D01*
X224331627Y-68832963D01*
X224265443Y-68839481D01*
X224199260Y-68846000D01*
X224110740Y-68846000D01*
X224044557Y-68839481D01*
X223978373Y-68832963D01*
X223808534Y-68781443D01*
X223652009Y-68697778D01*
X223616271Y-68668448D01*
X223514814Y-68585186D01*
X223431552Y-68483729D01*
X223402222Y-68447991D01*
X223318557Y-68291466D01*
X223267037Y-68121627D01*
X223249641Y-67945000D01*
X223267037Y-67768373D01*
X223318557Y-67598534D01*
X223402222Y-67442009D01*
X223431552Y-67406271D01*
X223514814Y-67304814D01*
X223616271Y-67221552D01*
X223652009Y-67192222D01*
X223808534Y-67108557D01*
X223978373Y-67057037D01*
X224044557Y-67050519D01*
X224110740Y-67044000D01*
X224199260Y-67044000D01*
X224265443Y-67050519D01*
X224265443Y-67050519D01*
G37*
G36*
X214505443Y-67050519D02*
G01*
X214571627Y-67057037D01*
X214741466Y-67108557D01*
X214897991Y-67192222D01*
X214933729Y-67221552D01*
X215035186Y-67304814D01*
X215118448Y-67406271D01*
X215147778Y-67442009D01*
X215231443Y-67598534D01*
X215282963Y-67768373D01*
X215300359Y-67945000D01*
X215282963Y-68121627D01*
X215231443Y-68291466D01*
X215147778Y-68447991D01*
X215118448Y-68483729D01*
X215035186Y-68585186D01*
X214933729Y-68668448D01*
X214897991Y-68697778D01*
X214741466Y-68781443D01*
X214571627Y-68832963D01*
X214505443Y-68839481D01*
X214439260Y-68846000D01*
X214350740Y-68846000D01*
X214284557Y-68839481D01*
X214218373Y-68832963D01*
X214048534Y-68781443D01*
X213892009Y-68697778D01*
X213856271Y-68668448D01*
X213754814Y-68585186D01*
X213671552Y-68483729D01*
X213642222Y-68447991D01*
X213558557Y-68291466D01*
X213507037Y-68121627D01*
X213489641Y-67945000D01*
X213507037Y-67768373D01*
X213558557Y-67598534D01*
X213642222Y-67442009D01*
X213671552Y-67406271D01*
X213754814Y-67304814D01*
X213856271Y-67221552D01*
X213892009Y-67192222D01*
X214048534Y-67108557D01*
X214218373Y-67057037D01*
X214284557Y-67050519D01*
X214350740Y-67044000D01*
X214439260Y-67044000D01*
X214505443Y-67050519D01*
X214505443Y-67050519D01*
G37*
G36*
X77345443Y-67050519D02*
G01*
X77411627Y-67057037D01*
X77581466Y-67108557D01*
X77737991Y-67192222D01*
X77773729Y-67221552D01*
X77875186Y-67304814D01*
X77958448Y-67406271D01*
X77987778Y-67442009D01*
X78071443Y-67598534D01*
X78122963Y-67768373D01*
X78140359Y-67945000D01*
X78122963Y-68121627D01*
X78071443Y-68291466D01*
X77987778Y-68447991D01*
X77958448Y-68483729D01*
X77875186Y-68585186D01*
X77773729Y-68668448D01*
X77737991Y-68697778D01*
X77581466Y-68781443D01*
X77411627Y-68832963D01*
X77345443Y-68839481D01*
X77279260Y-68846000D01*
X77190740Y-68846000D01*
X77124557Y-68839481D01*
X77058373Y-68832963D01*
X76888534Y-68781443D01*
X76732009Y-68697778D01*
X76696271Y-68668448D01*
X76594814Y-68585186D01*
X76511552Y-68483729D01*
X76482222Y-68447991D01*
X76398557Y-68291466D01*
X76347037Y-68121627D01*
X76329641Y-67945000D01*
X76347037Y-67768373D01*
X76398557Y-67598534D01*
X76482222Y-67442009D01*
X76511552Y-67406271D01*
X76594814Y-67304814D01*
X76696271Y-67221552D01*
X76732009Y-67192222D01*
X76888534Y-67108557D01*
X77058373Y-67057037D01*
X77124557Y-67050519D01*
X77190740Y-67044000D01*
X77279260Y-67044000D01*
X77345443Y-67050519D01*
X77345443Y-67050519D01*
G37*
G36*
X100205443Y-67050519D02*
G01*
X100271627Y-67057037D01*
X100441466Y-67108557D01*
X100597991Y-67192222D01*
X100633729Y-67221552D01*
X100735186Y-67304814D01*
X100818448Y-67406271D01*
X100847778Y-67442009D01*
X100931443Y-67598534D01*
X100982963Y-67768373D01*
X101000359Y-67945000D01*
X100982963Y-68121627D01*
X100931443Y-68291466D01*
X100847778Y-68447991D01*
X100818448Y-68483729D01*
X100735186Y-68585186D01*
X100633729Y-68668448D01*
X100597991Y-68697778D01*
X100441466Y-68781443D01*
X100271627Y-68832963D01*
X100205443Y-68839481D01*
X100139260Y-68846000D01*
X100050740Y-68846000D01*
X99984557Y-68839481D01*
X99918373Y-68832963D01*
X99748534Y-68781443D01*
X99592009Y-68697778D01*
X99556271Y-68668448D01*
X99454814Y-68585186D01*
X99371552Y-68483729D01*
X99342222Y-68447991D01*
X99258557Y-68291466D01*
X99207037Y-68121627D01*
X99189641Y-67945000D01*
X99207037Y-67768373D01*
X99258557Y-67598534D01*
X99342222Y-67442009D01*
X99371552Y-67406271D01*
X99454814Y-67304814D01*
X99556271Y-67221552D01*
X99592009Y-67192222D01*
X99748534Y-67108557D01*
X99918373Y-67057037D01*
X99984557Y-67050519D01*
X100050740Y-67044000D01*
X100139260Y-67044000D01*
X100205443Y-67050519D01*
X100205443Y-67050519D01*
G37*
G36*
X109965443Y-67050519D02*
G01*
X110031627Y-67057037D01*
X110201466Y-67108557D01*
X110357991Y-67192222D01*
X110393729Y-67221552D01*
X110495186Y-67304814D01*
X110578448Y-67406271D01*
X110607778Y-67442009D01*
X110691443Y-67598534D01*
X110742963Y-67768373D01*
X110760359Y-67945000D01*
X110742963Y-68121627D01*
X110691443Y-68291466D01*
X110607778Y-68447991D01*
X110578448Y-68483729D01*
X110495186Y-68585186D01*
X110393729Y-68668448D01*
X110357991Y-68697778D01*
X110201466Y-68781443D01*
X110031627Y-68832963D01*
X109965443Y-68839481D01*
X109899260Y-68846000D01*
X109810740Y-68846000D01*
X109744557Y-68839481D01*
X109678373Y-68832963D01*
X109508534Y-68781443D01*
X109352009Y-68697778D01*
X109316271Y-68668448D01*
X109214814Y-68585186D01*
X109131552Y-68483729D01*
X109102222Y-68447991D01*
X109018557Y-68291466D01*
X108967037Y-68121627D01*
X108949641Y-67945000D01*
X108967037Y-67768373D01*
X109018557Y-67598534D01*
X109102222Y-67442009D01*
X109131552Y-67406271D01*
X109214814Y-67304814D01*
X109316271Y-67221552D01*
X109352009Y-67192222D01*
X109508534Y-67108557D01*
X109678373Y-67057037D01*
X109744557Y-67050519D01*
X109810740Y-67044000D01*
X109899260Y-67044000D01*
X109965443Y-67050519D01*
X109965443Y-67050519D01*
G37*
G36*
X132825443Y-67050519D02*
G01*
X132891627Y-67057037D01*
X133061466Y-67108557D01*
X133217991Y-67192222D01*
X133253729Y-67221552D01*
X133355186Y-67304814D01*
X133438448Y-67406271D01*
X133467778Y-67442009D01*
X133551443Y-67598534D01*
X133602963Y-67768373D01*
X133620359Y-67945000D01*
X133602963Y-68121627D01*
X133551443Y-68291466D01*
X133467778Y-68447991D01*
X133438448Y-68483729D01*
X133355186Y-68585186D01*
X133253729Y-68668448D01*
X133217991Y-68697778D01*
X133061466Y-68781443D01*
X132891627Y-68832963D01*
X132825443Y-68839481D01*
X132759260Y-68846000D01*
X132670740Y-68846000D01*
X132604557Y-68839481D01*
X132538373Y-68832963D01*
X132368534Y-68781443D01*
X132212009Y-68697778D01*
X132176271Y-68668448D01*
X132074814Y-68585186D01*
X131991552Y-68483729D01*
X131962222Y-68447991D01*
X131878557Y-68291466D01*
X131827037Y-68121627D01*
X131809641Y-67945000D01*
X131827037Y-67768373D01*
X131878557Y-67598534D01*
X131962222Y-67442009D01*
X131991552Y-67406271D01*
X132074814Y-67304814D01*
X132176271Y-67221552D01*
X132212009Y-67192222D01*
X132368534Y-67108557D01*
X132538373Y-67057037D01*
X132604557Y-67050519D01*
X132670740Y-67044000D01*
X132759260Y-67044000D01*
X132825443Y-67050519D01*
X132825443Y-67050519D01*
G37*
G36*
X155685443Y-67050519D02*
G01*
X155751627Y-67057037D01*
X155921466Y-67108557D01*
X156077991Y-67192222D01*
X156113729Y-67221552D01*
X156215186Y-67304814D01*
X156298448Y-67406271D01*
X156327778Y-67442009D01*
X156411443Y-67598534D01*
X156462963Y-67768373D01*
X156480359Y-67945000D01*
X156462963Y-68121627D01*
X156411443Y-68291466D01*
X156327778Y-68447991D01*
X156298448Y-68483729D01*
X156215186Y-68585186D01*
X156113729Y-68668448D01*
X156077991Y-68697778D01*
X155921466Y-68781443D01*
X155751627Y-68832963D01*
X155685443Y-68839481D01*
X155619260Y-68846000D01*
X155530740Y-68846000D01*
X155464557Y-68839481D01*
X155398373Y-68832963D01*
X155228534Y-68781443D01*
X155072009Y-68697778D01*
X155036271Y-68668448D01*
X154934814Y-68585186D01*
X154851552Y-68483729D01*
X154822222Y-68447991D01*
X154738557Y-68291466D01*
X154687037Y-68121627D01*
X154669641Y-67945000D01*
X154687037Y-67768373D01*
X154738557Y-67598534D01*
X154822222Y-67442009D01*
X154851552Y-67406271D01*
X154934814Y-67304814D01*
X155036271Y-67221552D01*
X155072009Y-67192222D01*
X155228534Y-67108557D01*
X155398373Y-67057037D01*
X155464557Y-67050519D01*
X155530740Y-67044000D01*
X155619260Y-67044000D01*
X155685443Y-67050519D01*
X155685443Y-67050519D01*
G37*
G36*
X168785443Y-67050519D02*
G01*
X168851627Y-67057037D01*
X169021466Y-67108557D01*
X169177991Y-67192222D01*
X169213729Y-67221552D01*
X169315186Y-67304814D01*
X169398448Y-67406271D01*
X169427778Y-67442009D01*
X169511443Y-67598534D01*
X169562963Y-67768373D01*
X169580359Y-67945000D01*
X169562963Y-68121627D01*
X169511443Y-68291466D01*
X169427778Y-68447991D01*
X169398448Y-68483729D01*
X169315186Y-68585186D01*
X169213729Y-68668448D01*
X169177991Y-68697778D01*
X169021466Y-68781443D01*
X168851627Y-68832963D01*
X168785443Y-68839481D01*
X168719260Y-68846000D01*
X168630740Y-68846000D01*
X168564557Y-68839481D01*
X168498373Y-68832963D01*
X168328534Y-68781443D01*
X168172009Y-68697778D01*
X168136271Y-68668448D01*
X168034814Y-68585186D01*
X167951552Y-68483729D01*
X167922222Y-68447991D01*
X167838557Y-68291466D01*
X167787037Y-68121627D01*
X167769641Y-67945000D01*
X167787037Y-67768373D01*
X167838557Y-67598534D01*
X167922222Y-67442009D01*
X167951552Y-67406271D01*
X168034814Y-67304814D01*
X168136271Y-67221552D01*
X168172009Y-67192222D01*
X168328534Y-67108557D01*
X168498373Y-67057037D01*
X168564557Y-67050519D01*
X168630740Y-67044000D01*
X168719260Y-67044000D01*
X168785443Y-67050519D01*
X168785443Y-67050519D01*
G37*
G36*
X178545443Y-67050519D02*
G01*
X178611627Y-67057037D01*
X178781466Y-67108557D01*
X178937991Y-67192222D01*
X178973729Y-67221552D01*
X179075186Y-67304814D01*
X179158448Y-67406271D01*
X179187778Y-67442009D01*
X179271443Y-67598534D01*
X179322963Y-67768373D01*
X179340359Y-67945000D01*
X179322963Y-68121627D01*
X179271443Y-68291466D01*
X179187778Y-68447991D01*
X179158448Y-68483729D01*
X179075186Y-68585186D01*
X178973729Y-68668448D01*
X178937991Y-68697778D01*
X178781466Y-68781443D01*
X178611627Y-68832963D01*
X178545443Y-68839481D01*
X178479260Y-68846000D01*
X178390740Y-68846000D01*
X178324557Y-68839481D01*
X178258373Y-68832963D01*
X178088534Y-68781443D01*
X177932009Y-68697778D01*
X177896271Y-68668448D01*
X177794814Y-68585186D01*
X177711552Y-68483729D01*
X177682222Y-68447991D01*
X177598557Y-68291466D01*
X177547037Y-68121627D01*
X177529641Y-67945000D01*
X177547037Y-67768373D01*
X177598557Y-67598534D01*
X177682222Y-67442009D01*
X177711552Y-67406271D01*
X177794814Y-67304814D01*
X177896271Y-67221552D01*
X177932009Y-67192222D01*
X178088534Y-67108557D01*
X178258373Y-67057037D01*
X178324557Y-67050519D01*
X178390740Y-67044000D01*
X178479260Y-67044000D01*
X178545443Y-67050519D01*
X178545443Y-67050519D01*
G37*
G36*
X191645443Y-67050519D02*
G01*
X191711627Y-67057037D01*
X191881466Y-67108557D01*
X192037991Y-67192222D01*
X192073729Y-67221552D01*
X192175186Y-67304814D01*
X192258448Y-67406271D01*
X192287778Y-67442009D01*
X192371443Y-67598534D01*
X192422963Y-67768373D01*
X192440359Y-67945000D01*
X192422963Y-68121627D01*
X192371443Y-68291466D01*
X192287778Y-68447991D01*
X192258448Y-68483729D01*
X192175186Y-68585186D01*
X192073729Y-68668448D01*
X192037991Y-68697778D01*
X191881466Y-68781443D01*
X191711627Y-68832963D01*
X191645443Y-68839481D01*
X191579260Y-68846000D01*
X191490740Y-68846000D01*
X191424557Y-68839481D01*
X191358373Y-68832963D01*
X191188534Y-68781443D01*
X191032009Y-68697778D01*
X190996271Y-68668448D01*
X190894814Y-68585186D01*
X190811552Y-68483729D01*
X190782222Y-68447991D01*
X190698557Y-68291466D01*
X190647037Y-68121627D01*
X190629641Y-67945000D01*
X190647037Y-67768373D01*
X190698557Y-67598534D01*
X190782222Y-67442009D01*
X190811552Y-67406271D01*
X190894814Y-67304814D01*
X190996271Y-67221552D01*
X191032009Y-67192222D01*
X191188534Y-67108557D01*
X191358373Y-67057037D01*
X191424557Y-67050519D01*
X191490740Y-67044000D01*
X191579260Y-67044000D01*
X191645443Y-67050519D01*
X191645443Y-67050519D01*
G37*
G36*
X201405443Y-67050519D02*
G01*
X201471627Y-67057037D01*
X201641466Y-67108557D01*
X201797991Y-67192222D01*
X201833729Y-67221552D01*
X201935186Y-67304814D01*
X202018448Y-67406271D01*
X202047778Y-67442009D01*
X202131443Y-67598534D01*
X202182963Y-67768373D01*
X202200359Y-67945000D01*
X202182963Y-68121627D01*
X202131443Y-68291466D01*
X202047778Y-68447991D01*
X202018448Y-68483729D01*
X201935186Y-68585186D01*
X201833729Y-68668448D01*
X201797991Y-68697778D01*
X201641466Y-68781443D01*
X201471627Y-68832963D01*
X201405443Y-68839481D01*
X201339260Y-68846000D01*
X201250740Y-68846000D01*
X201184557Y-68839481D01*
X201118373Y-68832963D01*
X200948534Y-68781443D01*
X200792009Y-68697778D01*
X200756271Y-68668448D01*
X200654814Y-68585186D01*
X200571552Y-68483729D01*
X200542222Y-68447991D01*
X200458557Y-68291466D01*
X200407037Y-68121627D01*
X200389641Y-67945000D01*
X200407037Y-67768373D01*
X200458557Y-67598534D01*
X200542222Y-67442009D01*
X200571552Y-67406271D01*
X200654814Y-67304814D01*
X200756271Y-67221552D01*
X200792009Y-67192222D01*
X200948534Y-67108557D01*
X201118373Y-67057037D01*
X201184557Y-67050519D01*
X201250740Y-67044000D01*
X201339260Y-67044000D01*
X201405443Y-67050519D01*
X201405443Y-67050519D01*
G37*
G36*
X87105443Y-67050519D02*
G01*
X87171627Y-67057037D01*
X87341466Y-67108557D01*
X87497991Y-67192222D01*
X87533729Y-67221552D01*
X87635186Y-67304814D01*
X87718448Y-67406271D01*
X87747778Y-67442009D01*
X87831443Y-67598534D01*
X87882963Y-67768373D01*
X87900359Y-67945000D01*
X87882963Y-68121627D01*
X87831443Y-68291466D01*
X87747778Y-68447991D01*
X87718448Y-68483729D01*
X87635186Y-68585186D01*
X87533729Y-68668448D01*
X87497991Y-68697778D01*
X87341466Y-68781443D01*
X87171627Y-68832963D01*
X87105443Y-68839481D01*
X87039260Y-68846000D01*
X86950740Y-68846000D01*
X86884557Y-68839481D01*
X86818373Y-68832963D01*
X86648534Y-68781443D01*
X86492009Y-68697778D01*
X86456271Y-68668448D01*
X86354814Y-68585186D01*
X86271552Y-68483729D01*
X86242222Y-68447991D01*
X86158557Y-68291466D01*
X86107037Y-68121627D01*
X86089641Y-67945000D01*
X86107037Y-67768373D01*
X86158557Y-67598534D01*
X86242222Y-67442009D01*
X86271552Y-67406271D01*
X86354814Y-67304814D01*
X86456271Y-67221552D01*
X86492009Y-67192222D01*
X86648534Y-67108557D01*
X86818373Y-67057037D01*
X86884557Y-67050519D01*
X86950740Y-67044000D01*
X87039260Y-67044000D01*
X87105443Y-67050519D01*
X87105443Y-67050519D01*
G37*
G36*
X123065443Y-67050519D02*
G01*
X123131627Y-67057037D01*
X123301466Y-67108557D01*
X123457991Y-67192222D01*
X123493729Y-67221552D01*
X123595186Y-67304814D01*
X123678448Y-67406271D01*
X123707778Y-67442009D01*
X123791443Y-67598534D01*
X123842963Y-67768373D01*
X123860359Y-67945000D01*
X123842963Y-68121627D01*
X123791443Y-68291466D01*
X123707778Y-68447991D01*
X123678448Y-68483729D01*
X123595186Y-68585186D01*
X123493729Y-68668448D01*
X123457991Y-68697778D01*
X123301466Y-68781443D01*
X123131627Y-68832963D01*
X123065443Y-68839481D01*
X122999260Y-68846000D01*
X122910740Y-68846000D01*
X122844557Y-68839481D01*
X122778373Y-68832963D01*
X122608534Y-68781443D01*
X122452009Y-68697778D01*
X122416271Y-68668448D01*
X122314814Y-68585186D01*
X122231552Y-68483729D01*
X122202222Y-68447991D01*
X122118557Y-68291466D01*
X122067037Y-68121627D01*
X122049641Y-67945000D01*
X122067037Y-67768373D01*
X122118557Y-67598534D01*
X122202222Y-67442009D01*
X122231552Y-67406271D01*
X122314814Y-67304814D01*
X122416271Y-67221552D01*
X122452009Y-67192222D01*
X122608534Y-67108557D01*
X122778373Y-67057037D01*
X122844557Y-67050519D01*
X122910740Y-67044000D01*
X122999260Y-67044000D01*
X123065443Y-67050519D01*
X123065443Y-67050519D01*
G37*
G36*
X38734239Y-60311467D02*
G01*
X39048282Y-60373934D01*
X39639926Y-60619001D01*
X39952698Y-60827989D01*
X40158027Y-60965185D01*
X40172392Y-60974784D01*
X40625216Y-61427608D01*
X40980999Y-61960074D01*
X41226066Y-62551718D01*
X41351000Y-63179804D01*
X41351000Y-63820196D01*
X41226066Y-64448282D01*
X40980999Y-65039926D01*
X40737064Y-65405000D01*
X40625217Y-65572391D01*
X40172391Y-66025217D01*
X40142505Y-66045186D01*
X39639926Y-66380999D01*
X39048282Y-66626066D01*
X38734239Y-66688533D01*
X38420197Y-66751000D01*
X37779803Y-66751000D01*
X37465761Y-66688533D01*
X37151718Y-66626066D01*
X36560074Y-66380999D01*
X36057495Y-66045186D01*
X36027609Y-66025217D01*
X35574783Y-65572391D01*
X35462936Y-65405000D01*
X35219001Y-65039926D01*
X34973934Y-64448282D01*
X34849000Y-63820196D01*
X34849000Y-63179804D01*
X34973934Y-62551718D01*
X35219001Y-61960074D01*
X35574784Y-61427608D01*
X36027608Y-60974784D01*
X36041974Y-60965185D01*
X36247302Y-60827989D01*
X36560074Y-60619001D01*
X37151718Y-60373934D01*
X37465761Y-60311467D01*
X37779803Y-60249000D01*
X38420197Y-60249000D01*
X38734239Y-60311467D01*
X38734239Y-60311467D01*
G37*
G36*
X240664239Y-60311467D02*
G01*
X240978282Y-60373934D01*
X241569926Y-60619001D01*
X241882698Y-60827989D01*
X242088027Y-60965185D01*
X242102392Y-60974784D01*
X242555216Y-61427608D01*
X242910999Y-61960074D01*
X243156066Y-62551718D01*
X243281000Y-63179804D01*
X243281000Y-63820196D01*
X243156066Y-64448282D01*
X242910999Y-65039926D01*
X242667064Y-65405000D01*
X242555217Y-65572391D01*
X242102391Y-66025217D01*
X242072505Y-66045186D01*
X241569926Y-66380999D01*
X240978282Y-66626066D01*
X240664239Y-66688533D01*
X240350197Y-66751000D01*
X239709803Y-66751000D01*
X239395761Y-66688533D01*
X239081718Y-66626066D01*
X238490074Y-66380999D01*
X237987495Y-66045186D01*
X237957609Y-66025217D01*
X237504783Y-65572391D01*
X237392936Y-65405000D01*
X237149001Y-65039926D01*
X236903934Y-64448282D01*
X236779000Y-63820196D01*
X236779000Y-63179804D01*
X236903934Y-62551718D01*
X237149001Y-61960074D01*
X237504784Y-61427608D01*
X237957608Y-60974784D01*
X237971974Y-60965185D01*
X238177302Y-60827989D01*
X238490074Y-60619001D01*
X239081718Y-60373934D01*
X239395761Y-60311467D01*
X239709803Y-60249000D01*
X240350197Y-60249000D01*
X240664239Y-60311467D01*
X240664239Y-60311467D01*
G37*
G36*
X201405442Y-64510518D02*
G01*
X201471627Y-64517037D01*
X201641466Y-64568557D01*
X201797991Y-64652222D01*
X201833729Y-64681552D01*
X201935186Y-64764814D01*
X202018448Y-64866271D01*
X202047778Y-64902009D01*
X202131443Y-65058534D01*
X202182963Y-65228373D01*
X202200359Y-65405000D01*
X202182963Y-65581627D01*
X202131443Y-65751466D01*
X202047778Y-65907991D01*
X202018448Y-65943729D01*
X201935186Y-66045186D01*
X201833729Y-66128448D01*
X201797991Y-66157778D01*
X201641466Y-66241443D01*
X201471627Y-66292963D01*
X201405443Y-66299481D01*
X201339260Y-66306000D01*
X201250740Y-66306000D01*
X201184557Y-66299481D01*
X201118373Y-66292963D01*
X200948534Y-66241443D01*
X200792009Y-66157778D01*
X200756271Y-66128448D01*
X200654814Y-66045186D01*
X200571552Y-65943729D01*
X200542222Y-65907991D01*
X200458557Y-65751466D01*
X200407037Y-65581627D01*
X200389641Y-65405000D01*
X200407037Y-65228373D01*
X200458557Y-65058534D01*
X200542222Y-64902009D01*
X200571552Y-64866271D01*
X200654814Y-64764814D01*
X200756271Y-64681552D01*
X200792009Y-64652222D01*
X200948534Y-64568557D01*
X201118373Y-64517037D01*
X201184558Y-64510518D01*
X201250740Y-64504000D01*
X201339260Y-64504000D01*
X201405442Y-64510518D01*
X201405442Y-64510518D01*
G37*
G36*
X54485442Y-64510518D02*
G01*
X54551627Y-64517037D01*
X54721466Y-64568557D01*
X54877991Y-64652222D01*
X54913729Y-64681552D01*
X55015186Y-64764814D01*
X55098448Y-64866271D01*
X55127778Y-64902009D01*
X55211443Y-65058534D01*
X55262963Y-65228373D01*
X55280359Y-65405000D01*
X55262963Y-65581627D01*
X55211443Y-65751466D01*
X55127778Y-65907991D01*
X55098448Y-65943729D01*
X55015186Y-66045186D01*
X54913729Y-66128448D01*
X54877991Y-66157778D01*
X54721466Y-66241443D01*
X54551627Y-66292963D01*
X54485443Y-66299481D01*
X54419260Y-66306000D01*
X54330740Y-66306000D01*
X54264557Y-66299481D01*
X54198373Y-66292963D01*
X54028534Y-66241443D01*
X53872009Y-66157778D01*
X53836271Y-66128448D01*
X53734814Y-66045186D01*
X53651552Y-65943729D01*
X53622222Y-65907991D01*
X53538557Y-65751466D01*
X53487037Y-65581627D01*
X53469641Y-65405000D01*
X53487037Y-65228373D01*
X53538557Y-65058534D01*
X53622222Y-64902009D01*
X53651552Y-64866271D01*
X53734814Y-64764814D01*
X53836271Y-64681552D01*
X53872009Y-64652222D01*
X54028534Y-64568557D01*
X54198373Y-64517037D01*
X54264558Y-64510518D01*
X54330740Y-64504000D01*
X54419260Y-64504000D01*
X54485442Y-64510518D01*
X54485442Y-64510518D01*
G37*
G36*
X132825442Y-64510518D02*
G01*
X132891627Y-64517037D01*
X133061466Y-64568557D01*
X133217991Y-64652222D01*
X133253729Y-64681552D01*
X133355186Y-64764814D01*
X133438448Y-64866271D01*
X133467778Y-64902009D01*
X133551443Y-65058534D01*
X133602963Y-65228373D01*
X133620359Y-65405000D01*
X133602963Y-65581627D01*
X133551443Y-65751466D01*
X133467778Y-65907991D01*
X133438448Y-65943729D01*
X133355186Y-66045186D01*
X133253729Y-66128448D01*
X133217991Y-66157778D01*
X133061466Y-66241443D01*
X132891627Y-66292963D01*
X132825443Y-66299481D01*
X132759260Y-66306000D01*
X132670740Y-66306000D01*
X132604557Y-66299481D01*
X132538373Y-66292963D01*
X132368534Y-66241443D01*
X132212009Y-66157778D01*
X132176271Y-66128448D01*
X132074814Y-66045186D01*
X131991552Y-65943729D01*
X131962222Y-65907991D01*
X131878557Y-65751466D01*
X131827037Y-65581627D01*
X131809641Y-65405000D01*
X131827037Y-65228373D01*
X131878557Y-65058534D01*
X131962222Y-64902009D01*
X131991552Y-64866271D01*
X132074814Y-64764814D01*
X132176271Y-64681552D01*
X132212009Y-64652222D01*
X132368534Y-64568557D01*
X132538373Y-64517037D01*
X132604558Y-64510518D01*
X132670740Y-64504000D01*
X132759260Y-64504000D01*
X132825442Y-64510518D01*
X132825442Y-64510518D01*
G37*
G36*
X64245442Y-64510518D02*
G01*
X64311627Y-64517037D01*
X64481466Y-64568557D01*
X64637991Y-64652222D01*
X64673729Y-64681552D01*
X64775186Y-64764814D01*
X64858448Y-64866271D01*
X64887778Y-64902009D01*
X64971443Y-65058534D01*
X65022963Y-65228373D01*
X65040359Y-65405000D01*
X65022963Y-65581627D01*
X64971443Y-65751466D01*
X64887778Y-65907991D01*
X64858448Y-65943729D01*
X64775186Y-66045186D01*
X64673729Y-66128448D01*
X64637991Y-66157778D01*
X64481466Y-66241443D01*
X64311627Y-66292963D01*
X64245443Y-66299481D01*
X64179260Y-66306000D01*
X64090740Y-66306000D01*
X64024557Y-66299481D01*
X63958373Y-66292963D01*
X63788534Y-66241443D01*
X63632009Y-66157778D01*
X63596271Y-66128448D01*
X63494814Y-66045186D01*
X63411552Y-65943729D01*
X63382222Y-65907991D01*
X63298557Y-65751466D01*
X63247037Y-65581627D01*
X63229641Y-65405000D01*
X63247037Y-65228373D01*
X63298557Y-65058534D01*
X63382222Y-64902009D01*
X63411552Y-64866271D01*
X63494814Y-64764814D01*
X63596271Y-64681552D01*
X63632009Y-64652222D01*
X63788534Y-64568557D01*
X63958373Y-64517037D01*
X64024558Y-64510518D01*
X64090740Y-64504000D01*
X64179260Y-64504000D01*
X64245442Y-64510518D01*
X64245442Y-64510518D01*
G37*
G36*
X145925442Y-64510518D02*
G01*
X145991627Y-64517037D01*
X146161466Y-64568557D01*
X146317991Y-64652222D01*
X146353729Y-64681552D01*
X146455186Y-64764814D01*
X146538448Y-64866271D01*
X146567778Y-64902009D01*
X146651443Y-65058534D01*
X146702963Y-65228373D01*
X146720359Y-65405000D01*
X146702963Y-65581627D01*
X146651443Y-65751466D01*
X146567778Y-65907991D01*
X146538448Y-65943729D01*
X146455186Y-66045186D01*
X146353729Y-66128448D01*
X146317991Y-66157778D01*
X146161466Y-66241443D01*
X145991627Y-66292963D01*
X145925443Y-66299481D01*
X145859260Y-66306000D01*
X145770740Y-66306000D01*
X145704557Y-66299481D01*
X145638373Y-66292963D01*
X145468534Y-66241443D01*
X145312009Y-66157778D01*
X145276271Y-66128448D01*
X145174814Y-66045186D01*
X145091552Y-65943729D01*
X145062222Y-65907991D01*
X144978557Y-65751466D01*
X144927037Y-65581627D01*
X144909641Y-65405000D01*
X144927037Y-65228373D01*
X144978557Y-65058534D01*
X145062222Y-64902009D01*
X145091552Y-64866271D01*
X145174814Y-64764814D01*
X145276271Y-64681552D01*
X145312009Y-64652222D01*
X145468534Y-64568557D01*
X145638373Y-64517037D01*
X145704558Y-64510518D01*
X145770740Y-64504000D01*
X145859260Y-64504000D01*
X145925442Y-64510518D01*
X145925442Y-64510518D01*
G37*
G36*
X155685442Y-64510518D02*
G01*
X155751627Y-64517037D01*
X155921466Y-64568557D01*
X156077991Y-64652222D01*
X156113729Y-64681552D01*
X156215186Y-64764814D01*
X156298448Y-64866271D01*
X156327778Y-64902009D01*
X156411443Y-65058534D01*
X156462963Y-65228373D01*
X156480359Y-65405000D01*
X156462963Y-65581627D01*
X156411443Y-65751466D01*
X156327778Y-65907991D01*
X156298448Y-65943729D01*
X156215186Y-66045186D01*
X156113729Y-66128448D01*
X156077991Y-66157778D01*
X155921466Y-66241443D01*
X155751627Y-66292963D01*
X155685443Y-66299481D01*
X155619260Y-66306000D01*
X155530740Y-66306000D01*
X155464557Y-66299481D01*
X155398373Y-66292963D01*
X155228534Y-66241443D01*
X155072009Y-66157778D01*
X155036271Y-66128448D01*
X154934814Y-66045186D01*
X154851552Y-65943729D01*
X154822222Y-65907991D01*
X154738557Y-65751466D01*
X154687037Y-65581627D01*
X154669641Y-65405000D01*
X154687037Y-65228373D01*
X154738557Y-65058534D01*
X154822222Y-64902009D01*
X154851552Y-64866271D01*
X154934814Y-64764814D01*
X155036271Y-64681552D01*
X155072009Y-64652222D01*
X155228534Y-64568557D01*
X155398373Y-64517037D01*
X155464558Y-64510518D01*
X155530740Y-64504000D01*
X155619260Y-64504000D01*
X155685442Y-64510518D01*
X155685442Y-64510518D01*
G37*
G36*
X214505442Y-64510518D02*
G01*
X214571627Y-64517037D01*
X214741466Y-64568557D01*
X214897991Y-64652222D01*
X214933729Y-64681552D01*
X215035186Y-64764814D01*
X215118448Y-64866271D01*
X215147778Y-64902009D01*
X215231443Y-65058534D01*
X215282963Y-65228373D01*
X215300359Y-65405000D01*
X215282963Y-65581627D01*
X215231443Y-65751466D01*
X215147778Y-65907991D01*
X215118448Y-65943729D01*
X215035186Y-66045186D01*
X214933729Y-66128448D01*
X214897991Y-66157778D01*
X214741466Y-66241443D01*
X214571627Y-66292963D01*
X214505443Y-66299481D01*
X214439260Y-66306000D01*
X214350740Y-66306000D01*
X214284557Y-66299481D01*
X214218373Y-66292963D01*
X214048534Y-66241443D01*
X213892009Y-66157778D01*
X213856271Y-66128448D01*
X213754814Y-66045186D01*
X213671552Y-65943729D01*
X213642222Y-65907991D01*
X213558557Y-65751466D01*
X213507037Y-65581627D01*
X213489641Y-65405000D01*
X213507037Y-65228373D01*
X213558557Y-65058534D01*
X213642222Y-64902009D01*
X213671552Y-64866271D01*
X213754814Y-64764814D01*
X213856271Y-64681552D01*
X213892009Y-64652222D01*
X214048534Y-64568557D01*
X214218373Y-64517037D01*
X214284558Y-64510518D01*
X214350740Y-64504000D01*
X214439260Y-64504000D01*
X214505442Y-64510518D01*
X214505442Y-64510518D01*
G37*
G36*
X178545442Y-64510518D02*
G01*
X178611627Y-64517037D01*
X178781466Y-64568557D01*
X178937991Y-64652222D01*
X178973729Y-64681552D01*
X179075186Y-64764814D01*
X179158448Y-64866271D01*
X179187778Y-64902009D01*
X179271443Y-65058534D01*
X179322963Y-65228373D01*
X179340359Y-65405000D01*
X179322963Y-65581627D01*
X179271443Y-65751466D01*
X179187778Y-65907991D01*
X179158448Y-65943729D01*
X179075186Y-66045186D01*
X178973729Y-66128448D01*
X178937991Y-66157778D01*
X178781466Y-66241443D01*
X178611627Y-66292963D01*
X178545443Y-66299481D01*
X178479260Y-66306000D01*
X178390740Y-66306000D01*
X178324557Y-66299481D01*
X178258373Y-66292963D01*
X178088534Y-66241443D01*
X177932009Y-66157778D01*
X177896271Y-66128448D01*
X177794814Y-66045186D01*
X177711552Y-65943729D01*
X177682222Y-65907991D01*
X177598557Y-65751466D01*
X177547037Y-65581627D01*
X177529641Y-65405000D01*
X177547037Y-65228373D01*
X177598557Y-65058534D01*
X177682222Y-64902009D01*
X177711552Y-64866271D01*
X177794814Y-64764814D01*
X177896271Y-64681552D01*
X177932009Y-64652222D01*
X178088534Y-64568557D01*
X178258373Y-64517037D01*
X178324558Y-64510518D01*
X178390740Y-64504000D01*
X178479260Y-64504000D01*
X178545442Y-64510518D01*
X178545442Y-64510518D01*
G37*
G36*
X191645442Y-64510518D02*
G01*
X191711627Y-64517037D01*
X191881466Y-64568557D01*
X192037991Y-64652222D01*
X192073729Y-64681552D01*
X192175186Y-64764814D01*
X192258448Y-64866271D01*
X192287778Y-64902009D01*
X192371443Y-65058534D01*
X192422963Y-65228373D01*
X192440359Y-65405000D01*
X192422963Y-65581627D01*
X192371443Y-65751466D01*
X192287778Y-65907991D01*
X192258448Y-65943729D01*
X192175186Y-66045186D01*
X192073729Y-66128448D01*
X192037991Y-66157778D01*
X191881466Y-66241443D01*
X191711627Y-66292963D01*
X191645443Y-66299481D01*
X191579260Y-66306000D01*
X191490740Y-66306000D01*
X191424557Y-66299481D01*
X191358373Y-66292963D01*
X191188534Y-66241443D01*
X191032009Y-66157778D01*
X190996271Y-66128448D01*
X190894814Y-66045186D01*
X190811552Y-65943729D01*
X190782222Y-65907991D01*
X190698557Y-65751466D01*
X190647037Y-65581627D01*
X190629641Y-65405000D01*
X190647037Y-65228373D01*
X190698557Y-65058534D01*
X190782222Y-64902009D01*
X190811552Y-64866271D01*
X190894814Y-64764814D01*
X190996271Y-64681552D01*
X191032009Y-64652222D01*
X191188534Y-64568557D01*
X191358373Y-64517037D01*
X191424558Y-64510518D01*
X191490740Y-64504000D01*
X191579260Y-64504000D01*
X191645442Y-64510518D01*
X191645442Y-64510518D01*
G37*
G36*
X123065442Y-64510518D02*
G01*
X123131627Y-64517037D01*
X123301466Y-64568557D01*
X123457991Y-64652222D01*
X123493729Y-64681552D01*
X123595186Y-64764814D01*
X123678448Y-64866271D01*
X123707778Y-64902009D01*
X123791443Y-65058534D01*
X123842963Y-65228373D01*
X123860359Y-65405000D01*
X123842963Y-65581627D01*
X123791443Y-65751466D01*
X123707778Y-65907991D01*
X123678448Y-65943729D01*
X123595186Y-66045186D01*
X123493729Y-66128448D01*
X123457991Y-66157778D01*
X123301466Y-66241443D01*
X123131627Y-66292963D01*
X123065443Y-66299481D01*
X122999260Y-66306000D01*
X122910740Y-66306000D01*
X122844557Y-66299481D01*
X122778373Y-66292963D01*
X122608534Y-66241443D01*
X122452009Y-66157778D01*
X122416271Y-66128448D01*
X122314814Y-66045186D01*
X122231552Y-65943729D01*
X122202222Y-65907991D01*
X122118557Y-65751466D01*
X122067037Y-65581627D01*
X122049641Y-65405000D01*
X122067037Y-65228373D01*
X122118557Y-65058534D01*
X122202222Y-64902009D01*
X122231552Y-64866271D01*
X122314814Y-64764814D01*
X122416271Y-64681552D01*
X122452009Y-64652222D01*
X122608534Y-64568557D01*
X122778373Y-64517037D01*
X122844558Y-64510518D01*
X122910740Y-64504000D01*
X122999260Y-64504000D01*
X123065442Y-64510518D01*
X123065442Y-64510518D01*
G37*
G36*
X109965442Y-64510518D02*
G01*
X110031627Y-64517037D01*
X110201466Y-64568557D01*
X110357991Y-64652222D01*
X110393729Y-64681552D01*
X110495186Y-64764814D01*
X110578448Y-64866271D01*
X110607778Y-64902009D01*
X110691443Y-65058534D01*
X110742963Y-65228373D01*
X110760359Y-65405000D01*
X110742963Y-65581627D01*
X110691443Y-65751466D01*
X110607778Y-65907991D01*
X110578448Y-65943729D01*
X110495186Y-66045186D01*
X110393729Y-66128448D01*
X110357991Y-66157778D01*
X110201466Y-66241443D01*
X110031627Y-66292963D01*
X109965443Y-66299481D01*
X109899260Y-66306000D01*
X109810740Y-66306000D01*
X109744557Y-66299481D01*
X109678373Y-66292963D01*
X109508534Y-66241443D01*
X109352009Y-66157778D01*
X109316271Y-66128448D01*
X109214814Y-66045186D01*
X109131552Y-65943729D01*
X109102222Y-65907991D01*
X109018557Y-65751466D01*
X108967037Y-65581627D01*
X108949641Y-65405000D01*
X108967037Y-65228373D01*
X109018557Y-65058534D01*
X109102222Y-64902009D01*
X109131552Y-64866271D01*
X109214814Y-64764814D01*
X109316271Y-64681552D01*
X109352009Y-64652222D01*
X109508534Y-64568557D01*
X109678373Y-64517037D01*
X109744558Y-64510518D01*
X109810740Y-64504000D01*
X109899260Y-64504000D01*
X109965442Y-64510518D01*
X109965442Y-64510518D01*
G37*
G36*
X100205442Y-64510518D02*
G01*
X100271627Y-64517037D01*
X100441466Y-64568557D01*
X100597991Y-64652222D01*
X100633729Y-64681552D01*
X100735186Y-64764814D01*
X100818448Y-64866271D01*
X100847778Y-64902009D01*
X100931443Y-65058534D01*
X100982963Y-65228373D01*
X101000359Y-65405000D01*
X100982963Y-65581627D01*
X100931443Y-65751466D01*
X100847778Y-65907991D01*
X100818448Y-65943729D01*
X100735186Y-66045186D01*
X100633729Y-66128448D01*
X100597991Y-66157778D01*
X100441466Y-66241443D01*
X100271627Y-66292963D01*
X100205443Y-66299481D01*
X100139260Y-66306000D01*
X100050740Y-66306000D01*
X99984557Y-66299481D01*
X99918373Y-66292963D01*
X99748534Y-66241443D01*
X99592009Y-66157778D01*
X99556271Y-66128448D01*
X99454814Y-66045186D01*
X99371552Y-65943729D01*
X99342222Y-65907991D01*
X99258557Y-65751466D01*
X99207037Y-65581627D01*
X99189641Y-65405000D01*
X99207037Y-65228373D01*
X99258557Y-65058534D01*
X99342222Y-64902009D01*
X99371552Y-64866271D01*
X99454814Y-64764814D01*
X99556271Y-64681552D01*
X99592009Y-64652222D01*
X99748534Y-64568557D01*
X99918373Y-64517037D01*
X99984558Y-64510518D01*
X100050740Y-64504000D01*
X100139260Y-64504000D01*
X100205442Y-64510518D01*
X100205442Y-64510518D01*
G37*
G36*
X224265442Y-64510518D02*
G01*
X224331627Y-64517037D01*
X224501466Y-64568557D01*
X224657991Y-64652222D01*
X224693729Y-64681552D01*
X224795186Y-64764814D01*
X224878448Y-64866271D01*
X224907778Y-64902009D01*
X224991443Y-65058534D01*
X225042963Y-65228373D01*
X225060359Y-65405000D01*
X225042963Y-65581627D01*
X224991443Y-65751466D01*
X224907778Y-65907991D01*
X224878448Y-65943729D01*
X224795186Y-66045186D01*
X224693729Y-66128448D01*
X224657991Y-66157778D01*
X224501466Y-66241443D01*
X224331627Y-66292963D01*
X224265443Y-66299481D01*
X224199260Y-66306000D01*
X224110740Y-66306000D01*
X224044557Y-66299481D01*
X223978373Y-66292963D01*
X223808534Y-66241443D01*
X223652009Y-66157778D01*
X223616271Y-66128448D01*
X223514814Y-66045186D01*
X223431552Y-65943729D01*
X223402222Y-65907991D01*
X223318557Y-65751466D01*
X223267037Y-65581627D01*
X223249641Y-65405000D01*
X223267037Y-65228373D01*
X223318557Y-65058534D01*
X223402222Y-64902009D01*
X223431552Y-64866271D01*
X223514814Y-64764814D01*
X223616271Y-64681552D01*
X223652009Y-64652222D01*
X223808534Y-64568557D01*
X223978373Y-64517037D01*
X224044558Y-64510518D01*
X224110740Y-64504000D01*
X224199260Y-64504000D01*
X224265442Y-64510518D01*
X224265442Y-64510518D01*
G37*
G36*
X87105442Y-64510518D02*
G01*
X87171627Y-64517037D01*
X87341466Y-64568557D01*
X87497991Y-64652222D01*
X87533729Y-64681552D01*
X87635186Y-64764814D01*
X87718448Y-64866271D01*
X87747778Y-64902009D01*
X87831443Y-65058534D01*
X87882963Y-65228373D01*
X87900359Y-65405000D01*
X87882963Y-65581627D01*
X87831443Y-65751466D01*
X87747778Y-65907991D01*
X87718448Y-65943729D01*
X87635186Y-66045186D01*
X87533729Y-66128448D01*
X87497991Y-66157778D01*
X87341466Y-66241443D01*
X87171627Y-66292963D01*
X87105443Y-66299481D01*
X87039260Y-66306000D01*
X86950740Y-66306000D01*
X86884557Y-66299481D01*
X86818373Y-66292963D01*
X86648534Y-66241443D01*
X86492009Y-66157778D01*
X86456271Y-66128448D01*
X86354814Y-66045186D01*
X86271552Y-65943729D01*
X86242222Y-65907991D01*
X86158557Y-65751466D01*
X86107037Y-65581627D01*
X86089641Y-65405000D01*
X86107037Y-65228373D01*
X86158557Y-65058534D01*
X86242222Y-64902009D01*
X86271552Y-64866271D01*
X86354814Y-64764814D01*
X86456271Y-64681552D01*
X86492009Y-64652222D01*
X86648534Y-64568557D01*
X86818373Y-64517037D01*
X86884558Y-64510518D01*
X86950740Y-64504000D01*
X87039260Y-64504000D01*
X87105442Y-64510518D01*
X87105442Y-64510518D01*
G37*
G36*
X77345442Y-64510518D02*
G01*
X77411627Y-64517037D01*
X77581466Y-64568557D01*
X77737991Y-64652222D01*
X77773729Y-64681552D01*
X77875186Y-64764814D01*
X77958448Y-64866271D01*
X77987778Y-64902009D01*
X78071443Y-65058534D01*
X78122963Y-65228373D01*
X78140359Y-65405000D01*
X78122963Y-65581627D01*
X78071443Y-65751466D01*
X77987778Y-65907991D01*
X77958448Y-65943729D01*
X77875186Y-66045186D01*
X77773729Y-66128448D01*
X77737991Y-66157778D01*
X77581466Y-66241443D01*
X77411627Y-66292963D01*
X77345443Y-66299481D01*
X77279260Y-66306000D01*
X77190740Y-66306000D01*
X77124557Y-66299481D01*
X77058373Y-66292963D01*
X76888534Y-66241443D01*
X76732009Y-66157778D01*
X76696271Y-66128448D01*
X76594814Y-66045186D01*
X76511552Y-65943729D01*
X76482222Y-65907991D01*
X76398557Y-65751466D01*
X76347037Y-65581627D01*
X76329641Y-65405000D01*
X76347037Y-65228373D01*
X76398557Y-65058534D01*
X76482222Y-64902009D01*
X76511552Y-64866271D01*
X76594814Y-64764814D01*
X76696271Y-64681552D01*
X76732009Y-64652222D01*
X76888534Y-64568557D01*
X77058373Y-64517037D01*
X77124558Y-64510518D01*
X77190740Y-64504000D01*
X77279260Y-64504000D01*
X77345442Y-64510518D01*
X77345442Y-64510518D01*
G37*
G36*
X168785442Y-64510518D02*
G01*
X168851627Y-64517037D01*
X169021466Y-64568557D01*
X169177991Y-64652222D01*
X169213729Y-64681552D01*
X169315186Y-64764814D01*
X169398448Y-64866271D01*
X169427778Y-64902009D01*
X169511443Y-65058534D01*
X169562963Y-65228373D01*
X169580359Y-65405000D01*
X169562963Y-65581627D01*
X169511443Y-65751466D01*
X169427778Y-65907991D01*
X169398448Y-65943729D01*
X169315186Y-66045186D01*
X169213729Y-66128448D01*
X169177991Y-66157778D01*
X169021466Y-66241443D01*
X168851627Y-66292963D01*
X168785443Y-66299481D01*
X168719260Y-66306000D01*
X168630740Y-66306000D01*
X168564557Y-66299481D01*
X168498373Y-66292963D01*
X168328534Y-66241443D01*
X168172009Y-66157778D01*
X168136271Y-66128448D01*
X168034814Y-66045186D01*
X167951552Y-65943729D01*
X167922222Y-65907991D01*
X167838557Y-65751466D01*
X167787037Y-65581627D01*
X167769641Y-65405000D01*
X167787037Y-65228373D01*
X167838557Y-65058534D01*
X167922222Y-64902009D01*
X167951552Y-64866271D01*
X168034814Y-64764814D01*
X168136271Y-64681552D01*
X168172009Y-64652222D01*
X168328534Y-64568557D01*
X168498373Y-64517037D01*
X168564558Y-64510518D01*
X168630740Y-64504000D01*
X168719260Y-64504000D01*
X168785442Y-64510518D01*
X168785442Y-64510518D01*
G37*
G36*
X168785443Y-61970519D02*
G01*
X168851627Y-61977037D01*
X169021466Y-62028557D01*
X169177991Y-62112222D01*
X169213729Y-62141552D01*
X169315186Y-62224814D01*
X169398448Y-62326271D01*
X169427778Y-62362009D01*
X169511443Y-62518534D01*
X169562963Y-62688373D01*
X169580359Y-62865000D01*
X169562963Y-63041627D01*
X169511443Y-63211466D01*
X169427778Y-63367991D01*
X169398448Y-63403729D01*
X169315186Y-63505186D01*
X169213729Y-63588448D01*
X169177991Y-63617778D01*
X169021466Y-63701443D01*
X168851627Y-63752963D01*
X168785442Y-63759482D01*
X168719260Y-63766000D01*
X168630740Y-63766000D01*
X168564558Y-63759482D01*
X168498373Y-63752963D01*
X168328534Y-63701443D01*
X168172009Y-63617778D01*
X168136271Y-63588448D01*
X168034814Y-63505186D01*
X167951552Y-63403729D01*
X167922222Y-63367991D01*
X167838557Y-63211466D01*
X167787037Y-63041627D01*
X167769641Y-62865000D01*
X167787037Y-62688373D01*
X167838557Y-62518534D01*
X167922222Y-62362009D01*
X167951552Y-62326271D01*
X168034814Y-62224814D01*
X168136271Y-62141552D01*
X168172009Y-62112222D01*
X168328534Y-62028557D01*
X168498373Y-61977037D01*
X168564557Y-61970519D01*
X168630740Y-61964000D01*
X168719260Y-61964000D01*
X168785443Y-61970519D01*
X168785443Y-61970519D01*
G37*
G36*
X145925443Y-61970519D02*
G01*
X145991627Y-61977037D01*
X146161466Y-62028557D01*
X146317991Y-62112222D01*
X146353729Y-62141552D01*
X146455186Y-62224814D01*
X146538448Y-62326271D01*
X146567778Y-62362009D01*
X146651443Y-62518534D01*
X146702963Y-62688373D01*
X146720359Y-62865000D01*
X146702963Y-63041627D01*
X146651443Y-63211466D01*
X146567778Y-63367991D01*
X146538448Y-63403729D01*
X146455186Y-63505186D01*
X146353729Y-63588448D01*
X146317991Y-63617778D01*
X146161466Y-63701443D01*
X145991627Y-63752963D01*
X145925442Y-63759482D01*
X145859260Y-63766000D01*
X145770740Y-63766000D01*
X145704558Y-63759482D01*
X145638373Y-63752963D01*
X145468534Y-63701443D01*
X145312009Y-63617778D01*
X145276271Y-63588448D01*
X145174814Y-63505186D01*
X145091552Y-63403729D01*
X145062222Y-63367991D01*
X144978557Y-63211466D01*
X144927037Y-63041627D01*
X144909641Y-62865000D01*
X144927037Y-62688373D01*
X144978557Y-62518534D01*
X145062222Y-62362009D01*
X145091552Y-62326271D01*
X145174814Y-62224814D01*
X145276271Y-62141552D01*
X145312009Y-62112222D01*
X145468534Y-62028557D01*
X145638373Y-61977037D01*
X145704557Y-61970519D01*
X145770740Y-61964000D01*
X145859260Y-61964000D01*
X145925443Y-61970519D01*
X145925443Y-61970519D01*
G37*
G36*
X191645443Y-61970519D02*
G01*
X191711627Y-61977037D01*
X191881466Y-62028557D01*
X192037991Y-62112222D01*
X192073729Y-62141552D01*
X192175186Y-62224814D01*
X192258448Y-62326271D01*
X192287778Y-62362009D01*
X192371443Y-62518534D01*
X192422963Y-62688373D01*
X192440359Y-62865000D01*
X192422963Y-63041627D01*
X192371443Y-63211466D01*
X192287778Y-63367991D01*
X192258448Y-63403729D01*
X192175186Y-63505186D01*
X192073729Y-63588448D01*
X192037991Y-63617778D01*
X191881466Y-63701443D01*
X191711627Y-63752963D01*
X191645442Y-63759482D01*
X191579260Y-63766000D01*
X191490740Y-63766000D01*
X191424558Y-63759482D01*
X191358373Y-63752963D01*
X191188534Y-63701443D01*
X191032009Y-63617778D01*
X190996271Y-63588448D01*
X190894814Y-63505186D01*
X190811552Y-63403729D01*
X190782222Y-63367991D01*
X190698557Y-63211466D01*
X190647037Y-63041627D01*
X190629641Y-62865000D01*
X190647037Y-62688373D01*
X190698557Y-62518534D01*
X190782222Y-62362009D01*
X190811552Y-62326271D01*
X190894814Y-62224814D01*
X190996271Y-62141552D01*
X191032009Y-62112222D01*
X191188534Y-62028557D01*
X191358373Y-61977037D01*
X191424557Y-61970519D01*
X191490740Y-61964000D01*
X191579260Y-61964000D01*
X191645443Y-61970519D01*
X191645443Y-61970519D01*
G37*
G36*
X178545443Y-61970519D02*
G01*
X178611627Y-61977037D01*
X178781466Y-62028557D01*
X178937991Y-62112222D01*
X178973729Y-62141552D01*
X179075186Y-62224814D01*
X179158448Y-62326271D01*
X179187778Y-62362009D01*
X179271443Y-62518534D01*
X179322963Y-62688373D01*
X179340359Y-62865000D01*
X179322963Y-63041627D01*
X179271443Y-63211466D01*
X179187778Y-63367991D01*
X179158448Y-63403729D01*
X179075186Y-63505186D01*
X178973729Y-63588448D01*
X178937991Y-63617778D01*
X178781466Y-63701443D01*
X178611627Y-63752963D01*
X178545442Y-63759482D01*
X178479260Y-63766000D01*
X178390740Y-63766000D01*
X178324558Y-63759482D01*
X178258373Y-63752963D01*
X178088534Y-63701443D01*
X177932009Y-63617778D01*
X177896271Y-63588448D01*
X177794814Y-63505186D01*
X177711552Y-63403729D01*
X177682222Y-63367991D01*
X177598557Y-63211466D01*
X177547037Y-63041627D01*
X177529641Y-62865000D01*
X177547037Y-62688373D01*
X177598557Y-62518534D01*
X177682222Y-62362009D01*
X177711552Y-62326271D01*
X177794814Y-62224814D01*
X177896271Y-62141552D01*
X177932009Y-62112222D01*
X178088534Y-62028557D01*
X178258373Y-61977037D01*
X178324557Y-61970519D01*
X178390740Y-61964000D01*
X178479260Y-61964000D01*
X178545443Y-61970519D01*
X178545443Y-61970519D01*
G37*
G36*
X155685443Y-61970519D02*
G01*
X155751627Y-61977037D01*
X155921466Y-62028557D01*
X156077991Y-62112222D01*
X156113729Y-62141552D01*
X156215186Y-62224814D01*
X156298448Y-62326271D01*
X156327778Y-62362009D01*
X156411443Y-62518534D01*
X156462963Y-62688373D01*
X156480359Y-62865000D01*
X156462963Y-63041627D01*
X156411443Y-63211466D01*
X156327778Y-63367991D01*
X156298448Y-63403729D01*
X156215186Y-63505186D01*
X156113729Y-63588448D01*
X156077991Y-63617778D01*
X155921466Y-63701443D01*
X155751627Y-63752963D01*
X155685442Y-63759482D01*
X155619260Y-63766000D01*
X155530740Y-63766000D01*
X155464558Y-63759482D01*
X155398373Y-63752963D01*
X155228534Y-63701443D01*
X155072009Y-63617778D01*
X155036271Y-63588448D01*
X154934814Y-63505186D01*
X154851552Y-63403729D01*
X154822222Y-63367991D01*
X154738557Y-63211466D01*
X154687037Y-63041627D01*
X154669641Y-62865000D01*
X154687037Y-62688373D01*
X154738557Y-62518534D01*
X154822222Y-62362009D01*
X154851552Y-62326271D01*
X154934814Y-62224814D01*
X155036271Y-62141552D01*
X155072009Y-62112222D01*
X155228534Y-62028557D01*
X155398373Y-61977037D01*
X155464557Y-61970519D01*
X155530740Y-61964000D01*
X155619260Y-61964000D01*
X155685443Y-61970519D01*
X155685443Y-61970519D01*
G37*
G36*
X201405443Y-61970519D02*
G01*
X201471627Y-61977037D01*
X201641466Y-62028557D01*
X201797991Y-62112222D01*
X201833729Y-62141552D01*
X201935186Y-62224814D01*
X202018448Y-62326271D01*
X202047778Y-62362009D01*
X202131443Y-62518534D01*
X202182963Y-62688373D01*
X202200359Y-62865000D01*
X202182963Y-63041627D01*
X202131443Y-63211466D01*
X202047778Y-63367991D01*
X202018448Y-63403729D01*
X201935186Y-63505186D01*
X201833729Y-63588448D01*
X201797991Y-63617778D01*
X201641466Y-63701443D01*
X201471627Y-63752963D01*
X201405442Y-63759482D01*
X201339260Y-63766000D01*
X201250740Y-63766000D01*
X201184558Y-63759482D01*
X201118373Y-63752963D01*
X200948534Y-63701443D01*
X200792009Y-63617778D01*
X200756271Y-63588448D01*
X200654814Y-63505186D01*
X200571552Y-63403729D01*
X200542222Y-63367991D01*
X200458557Y-63211466D01*
X200407037Y-63041627D01*
X200389641Y-62865000D01*
X200407037Y-62688373D01*
X200458557Y-62518534D01*
X200542222Y-62362009D01*
X200571552Y-62326271D01*
X200654814Y-62224814D01*
X200756271Y-62141552D01*
X200792009Y-62112222D01*
X200948534Y-62028557D01*
X201118373Y-61977037D01*
X201184557Y-61970519D01*
X201250740Y-61964000D01*
X201339260Y-61964000D01*
X201405443Y-61970519D01*
X201405443Y-61970519D01*
G37*
G36*
X214505443Y-61970519D02*
G01*
X214571627Y-61977037D01*
X214741466Y-62028557D01*
X214897991Y-62112222D01*
X214933729Y-62141552D01*
X215035186Y-62224814D01*
X215118448Y-62326271D01*
X215147778Y-62362009D01*
X215231443Y-62518534D01*
X215282963Y-62688373D01*
X215300359Y-62865000D01*
X215282963Y-63041627D01*
X215231443Y-63211466D01*
X215147778Y-63367991D01*
X215118448Y-63403729D01*
X215035186Y-63505186D01*
X214933729Y-63588448D01*
X214897991Y-63617778D01*
X214741466Y-63701443D01*
X214571627Y-63752963D01*
X214505442Y-63759482D01*
X214439260Y-63766000D01*
X214350740Y-63766000D01*
X214284558Y-63759482D01*
X214218373Y-63752963D01*
X214048534Y-63701443D01*
X213892009Y-63617778D01*
X213856271Y-63588448D01*
X213754814Y-63505186D01*
X213671552Y-63403729D01*
X213642222Y-63367991D01*
X213558557Y-63211466D01*
X213507037Y-63041627D01*
X213489641Y-62865000D01*
X213507037Y-62688373D01*
X213558557Y-62518534D01*
X213642222Y-62362009D01*
X213671552Y-62326271D01*
X213754814Y-62224814D01*
X213856271Y-62141552D01*
X213892009Y-62112222D01*
X214048534Y-62028557D01*
X214218373Y-61977037D01*
X214284557Y-61970519D01*
X214350740Y-61964000D01*
X214439260Y-61964000D01*
X214505443Y-61970519D01*
X214505443Y-61970519D01*
G37*
G36*
X224265443Y-61970519D02*
G01*
X224331627Y-61977037D01*
X224501466Y-62028557D01*
X224657991Y-62112222D01*
X224693729Y-62141552D01*
X224795186Y-62224814D01*
X224878448Y-62326271D01*
X224907778Y-62362009D01*
X224991443Y-62518534D01*
X225042963Y-62688373D01*
X225060359Y-62865000D01*
X225042963Y-63041627D01*
X224991443Y-63211466D01*
X224907778Y-63367991D01*
X224878448Y-63403729D01*
X224795186Y-63505186D01*
X224693729Y-63588448D01*
X224657991Y-63617778D01*
X224501466Y-63701443D01*
X224331627Y-63752963D01*
X224265442Y-63759482D01*
X224199260Y-63766000D01*
X224110740Y-63766000D01*
X224044558Y-63759482D01*
X223978373Y-63752963D01*
X223808534Y-63701443D01*
X223652009Y-63617778D01*
X223616271Y-63588448D01*
X223514814Y-63505186D01*
X223431552Y-63403729D01*
X223402222Y-63367991D01*
X223318557Y-63211466D01*
X223267037Y-63041627D01*
X223249641Y-62865000D01*
X223267037Y-62688373D01*
X223318557Y-62518534D01*
X223402222Y-62362009D01*
X223431552Y-62326271D01*
X223514814Y-62224814D01*
X223616271Y-62141552D01*
X223652009Y-62112222D01*
X223808534Y-62028557D01*
X223978373Y-61977037D01*
X224044557Y-61970519D01*
X224110740Y-61964000D01*
X224199260Y-61964000D01*
X224265443Y-61970519D01*
X224265443Y-61970519D01*
G37*
G36*
X77345443Y-61970519D02*
G01*
X77411627Y-61977037D01*
X77581466Y-62028557D01*
X77737991Y-62112222D01*
X77773729Y-62141552D01*
X77875186Y-62224814D01*
X77958448Y-62326271D01*
X77987778Y-62362009D01*
X78071443Y-62518534D01*
X78122963Y-62688373D01*
X78140359Y-62865000D01*
X78122963Y-63041627D01*
X78071443Y-63211466D01*
X77987778Y-63367991D01*
X77958448Y-63403729D01*
X77875186Y-63505186D01*
X77773729Y-63588448D01*
X77737991Y-63617778D01*
X77581466Y-63701443D01*
X77411627Y-63752963D01*
X77345442Y-63759482D01*
X77279260Y-63766000D01*
X77190740Y-63766000D01*
X77124558Y-63759482D01*
X77058373Y-63752963D01*
X76888534Y-63701443D01*
X76732009Y-63617778D01*
X76696271Y-63588448D01*
X76594814Y-63505186D01*
X76511552Y-63403729D01*
X76482222Y-63367991D01*
X76398557Y-63211466D01*
X76347037Y-63041627D01*
X76329641Y-62865000D01*
X76347037Y-62688373D01*
X76398557Y-62518534D01*
X76482222Y-62362009D01*
X76511552Y-62326271D01*
X76594814Y-62224814D01*
X76696271Y-62141552D01*
X76732009Y-62112222D01*
X76888534Y-62028557D01*
X77058373Y-61977037D01*
X77124557Y-61970519D01*
X77190740Y-61964000D01*
X77279260Y-61964000D01*
X77345443Y-61970519D01*
X77345443Y-61970519D01*
G37*
G36*
X87105443Y-61970519D02*
G01*
X87171627Y-61977037D01*
X87341466Y-62028557D01*
X87497991Y-62112222D01*
X87533729Y-62141552D01*
X87635186Y-62224814D01*
X87718448Y-62326271D01*
X87747778Y-62362009D01*
X87831443Y-62518534D01*
X87882963Y-62688373D01*
X87900359Y-62865000D01*
X87882963Y-63041627D01*
X87831443Y-63211466D01*
X87747778Y-63367991D01*
X87718448Y-63403729D01*
X87635186Y-63505186D01*
X87533729Y-63588448D01*
X87497991Y-63617778D01*
X87341466Y-63701443D01*
X87171627Y-63752963D01*
X87105442Y-63759482D01*
X87039260Y-63766000D01*
X86950740Y-63766000D01*
X86884558Y-63759482D01*
X86818373Y-63752963D01*
X86648534Y-63701443D01*
X86492009Y-63617778D01*
X86456271Y-63588448D01*
X86354814Y-63505186D01*
X86271552Y-63403729D01*
X86242222Y-63367991D01*
X86158557Y-63211466D01*
X86107037Y-63041627D01*
X86089641Y-62865000D01*
X86107037Y-62688373D01*
X86158557Y-62518534D01*
X86242222Y-62362009D01*
X86271552Y-62326271D01*
X86354814Y-62224814D01*
X86456271Y-62141552D01*
X86492009Y-62112222D01*
X86648534Y-62028557D01*
X86818373Y-61977037D01*
X86884557Y-61970519D01*
X86950740Y-61964000D01*
X87039260Y-61964000D01*
X87105443Y-61970519D01*
X87105443Y-61970519D01*
G37*
G36*
X100205443Y-61970519D02*
G01*
X100271627Y-61977037D01*
X100441466Y-62028557D01*
X100597991Y-62112222D01*
X100633729Y-62141552D01*
X100735186Y-62224814D01*
X100818448Y-62326271D01*
X100847778Y-62362009D01*
X100931443Y-62518534D01*
X100982963Y-62688373D01*
X101000359Y-62865000D01*
X100982963Y-63041627D01*
X100931443Y-63211466D01*
X100847778Y-63367991D01*
X100818448Y-63403729D01*
X100735186Y-63505186D01*
X100633729Y-63588448D01*
X100597991Y-63617778D01*
X100441466Y-63701443D01*
X100271627Y-63752963D01*
X100205442Y-63759482D01*
X100139260Y-63766000D01*
X100050740Y-63766000D01*
X99984558Y-63759482D01*
X99918373Y-63752963D01*
X99748534Y-63701443D01*
X99592009Y-63617778D01*
X99556271Y-63588448D01*
X99454814Y-63505186D01*
X99371552Y-63403729D01*
X99342222Y-63367991D01*
X99258557Y-63211466D01*
X99207037Y-63041627D01*
X99189641Y-62865000D01*
X99207037Y-62688373D01*
X99258557Y-62518534D01*
X99342222Y-62362009D01*
X99371552Y-62326271D01*
X99454814Y-62224814D01*
X99556271Y-62141552D01*
X99592009Y-62112222D01*
X99748534Y-62028557D01*
X99918373Y-61977037D01*
X99984557Y-61970519D01*
X100050740Y-61964000D01*
X100139260Y-61964000D01*
X100205443Y-61970519D01*
X100205443Y-61970519D01*
G37*
G36*
X109965443Y-61970519D02*
G01*
X110031627Y-61977037D01*
X110201466Y-62028557D01*
X110357991Y-62112222D01*
X110393729Y-62141552D01*
X110495186Y-62224814D01*
X110578448Y-62326271D01*
X110607778Y-62362009D01*
X110691443Y-62518534D01*
X110742963Y-62688373D01*
X110760359Y-62865000D01*
X110742963Y-63041627D01*
X110691443Y-63211466D01*
X110607778Y-63367991D01*
X110578448Y-63403729D01*
X110495186Y-63505186D01*
X110393729Y-63588448D01*
X110357991Y-63617778D01*
X110201466Y-63701443D01*
X110031627Y-63752963D01*
X109965442Y-63759482D01*
X109899260Y-63766000D01*
X109810740Y-63766000D01*
X109744558Y-63759482D01*
X109678373Y-63752963D01*
X109508534Y-63701443D01*
X109352009Y-63617778D01*
X109316271Y-63588448D01*
X109214814Y-63505186D01*
X109131552Y-63403729D01*
X109102222Y-63367991D01*
X109018557Y-63211466D01*
X108967037Y-63041627D01*
X108949641Y-62865000D01*
X108967037Y-62688373D01*
X109018557Y-62518534D01*
X109102222Y-62362009D01*
X109131552Y-62326271D01*
X109214814Y-62224814D01*
X109316271Y-62141552D01*
X109352009Y-62112222D01*
X109508534Y-62028557D01*
X109678373Y-61977037D01*
X109744557Y-61970519D01*
X109810740Y-61964000D01*
X109899260Y-61964000D01*
X109965443Y-61970519D01*
X109965443Y-61970519D01*
G37*
G36*
X123065443Y-61970519D02*
G01*
X123131627Y-61977037D01*
X123301466Y-62028557D01*
X123457991Y-62112222D01*
X123493729Y-62141552D01*
X123595186Y-62224814D01*
X123678448Y-62326271D01*
X123707778Y-62362009D01*
X123791443Y-62518534D01*
X123842963Y-62688373D01*
X123860359Y-62865000D01*
X123842963Y-63041627D01*
X123791443Y-63211466D01*
X123707778Y-63367991D01*
X123678448Y-63403729D01*
X123595186Y-63505186D01*
X123493729Y-63588448D01*
X123457991Y-63617778D01*
X123301466Y-63701443D01*
X123131627Y-63752963D01*
X123065442Y-63759482D01*
X122999260Y-63766000D01*
X122910740Y-63766000D01*
X122844558Y-63759482D01*
X122778373Y-63752963D01*
X122608534Y-63701443D01*
X122452009Y-63617778D01*
X122416271Y-63588448D01*
X122314814Y-63505186D01*
X122231552Y-63403729D01*
X122202222Y-63367991D01*
X122118557Y-63211466D01*
X122067037Y-63041627D01*
X122049641Y-62865000D01*
X122067037Y-62688373D01*
X122118557Y-62518534D01*
X122202222Y-62362009D01*
X122231552Y-62326271D01*
X122314814Y-62224814D01*
X122416271Y-62141552D01*
X122452009Y-62112222D01*
X122608534Y-62028557D01*
X122778373Y-61977037D01*
X122844557Y-61970519D01*
X122910740Y-61964000D01*
X122999260Y-61964000D01*
X123065443Y-61970519D01*
X123065443Y-61970519D01*
G37*
G36*
X132825443Y-61970519D02*
G01*
X132891627Y-61977037D01*
X133061466Y-62028557D01*
X133217991Y-62112222D01*
X133253729Y-62141552D01*
X133355186Y-62224814D01*
X133438448Y-62326271D01*
X133467778Y-62362009D01*
X133551443Y-62518534D01*
X133602963Y-62688373D01*
X133620359Y-62865000D01*
X133602963Y-63041627D01*
X133551443Y-63211466D01*
X133467778Y-63367991D01*
X133438448Y-63403729D01*
X133355186Y-63505186D01*
X133253729Y-63588448D01*
X133217991Y-63617778D01*
X133061466Y-63701443D01*
X132891627Y-63752963D01*
X132825442Y-63759482D01*
X132759260Y-63766000D01*
X132670740Y-63766000D01*
X132604558Y-63759482D01*
X132538373Y-63752963D01*
X132368534Y-63701443D01*
X132212009Y-63617778D01*
X132176271Y-63588448D01*
X132074814Y-63505186D01*
X131991552Y-63403729D01*
X131962222Y-63367991D01*
X131878557Y-63211466D01*
X131827037Y-63041627D01*
X131809641Y-62865000D01*
X131827037Y-62688373D01*
X131878557Y-62518534D01*
X131962222Y-62362009D01*
X131991552Y-62326271D01*
X132074814Y-62224814D01*
X132176271Y-62141552D01*
X132212009Y-62112222D01*
X132368534Y-62028557D01*
X132538373Y-61977037D01*
X132604557Y-61970519D01*
X132670740Y-61964000D01*
X132759260Y-61964000D01*
X132825443Y-61970519D01*
X132825443Y-61970519D01*
G37*
G36*
X54485443Y-61970519D02*
G01*
X54551627Y-61977037D01*
X54721466Y-62028557D01*
X54877991Y-62112222D01*
X54913729Y-62141552D01*
X55015186Y-62224814D01*
X55098448Y-62326271D01*
X55127778Y-62362009D01*
X55211443Y-62518534D01*
X55262963Y-62688373D01*
X55280359Y-62865000D01*
X55262963Y-63041627D01*
X55211443Y-63211466D01*
X55127778Y-63367991D01*
X55098448Y-63403729D01*
X55015186Y-63505186D01*
X54913729Y-63588448D01*
X54877991Y-63617778D01*
X54721466Y-63701443D01*
X54551627Y-63752963D01*
X54485442Y-63759482D01*
X54419260Y-63766000D01*
X54330740Y-63766000D01*
X54264558Y-63759482D01*
X54198373Y-63752963D01*
X54028534Y-63701443D01*
X53872009Y-63617778D01*
X53836271Y-63588448D01*
X53734814Y-63505186D01*
X53651552Y-63403729D01*
X53622222Y-63367991D01*
X53538557Y-63211466D01*
X53487037Y-63041627D01*
X53469641Y-62865000D01*
X53487037Y-62688373D01*
X53538557Y-62518534D01*
X53622222Y-62362009D01*
X53651552Y-62326271D01*
X53734814Y-62224814D01*
X53836271Y-62141552D01*
X53872009Y-62112222D01*
X54028534Y-62028557D01*
X54198373Y-61977037D01*
X54264557Y-61970519D01*
X54330740Y-61964000D01*
X54419260Y-61964000D01*
X54485443Y-61970519D01*
X54485443Y-61970519D01*
G37*
G36*
X64245443Y-61970519D02*
G01*
X64311627Y-61977037D01*
X64481466Y-62028557D01*
X64637991Y-62112222D01*
X64673729Y-62141552D01*
X64775186Y-62224814D01*
X64858448Y-62326271D01*
X64887778Y-62362009D01*
X64971443Y-62518534D01*
X65022963Y-62688373D01*
X65040359Y-62865000D01*
X65022963Y-63041627D01*
X64971443Y-63211466D01*
X64887778Y-63367991D01*
X64858448Y-63403729D01*
X64775186Y-63505186D01*
X64673729Y-63588448D01*
X64637991Y-63617778D01*
X64481466Y-63701443D01*
X64311627Y-63752963D01*
X64245442Y-63759482D01*
X64179260Y-63766000D01*
X64090740Y-63766000D01*
X64024558Y-63759482D01*
X63958373Y-63752963D01*
X63788534Y-63701443D01*
X63632009Y-63617778D01*
X63596271Y-63588448D01*
X63494814Y-63505186D01*
X63411552Y-63403729D01*
X63382222Y-63367991D01*
X63298557Y-63211466D01*
X63247037Y-63041627D01*
X63229641Y-62865000D01*
X63247037Y-62688373D01*
X63298557Y-62518534D01*
X63382222Y-62362009D01*
X63411552Y-62326271D01*
X63494814Y-62224814D01*
X63596271Y-62141552D01*
X63632009Y-62112222D01*
X63788534Y-62028557D01*
X63958373Y-61977037D01*
X64024557Y-61970519D01*
X64090740Y-61964000D01*
X64179260Y-61964000D01*
X64245443Y-61970519D01*
X64245443Y-61970519D01*
G37*
G36*
X123065442Y-59430518D02*
G01*
X123131627Y-59437037D01*
X123301466Y-59488557D01*
X123457991Y-59572222D01*
X123493729Y-59601552D01*
X123595186Y-59684814D01*
X123678448Y-59786271D01*
X123707778Y-59822009D01*
X123791443Y-59978534D01*
X123842963Y-60148373D01*
X123860359Y-60325000D01*
X123842963Y-60501627D01*
X123791443Y-60671466D01*
X123707778Y-60827991D01*
X123678448Y-60863729D01*
X123595186Y-60965186D01*
X123493729Y-61048448D01*
X123457991Y-61077778D01*
X123301466Y-61161443D01*
X123131627Y-61212963D01*
X123065442Y-61219482D01*
X122999260Y-61226000D01*
X122910740Y-61226000D01*
X122844558Y-61219482D01*
X122778373Y-61212963D01*
X122608534Y-61161443D01*
X122452009Y-61077778D01*
X122416271Y-61048448D01*
X122314814Y-60965186D01*
X122231552Y-60863729D01*
X122202222Y-60827991D01*
X122118557Y-60671466D01*
X122067037Y-60501627D01*
X122049641Y-60325000D01*
X122067037Y-60148373D01*
X122118557Y-59978534D01*
X122202222Y-59822009D01*
X122231552Y-59786271D01*
X122314814Y-59684814D01*
X122416271Y-59601552D01*
X122452009Y-59572222D01*
X122608534Y-59488557D01*
X122778373Y-59437037D01*
X122844558Y-59430518D01*
X122910740Y-59424000D01*
X122999260Y-59424000D01*
X123065442Y-59430518D01*
X123065442Y-59430518D01*
G37*
G36*
X109965442Y-59430518D02*
G01*
X110031627Y-59437037D01*
X110201466Y-59488557D01*
X110357991Y-59572222D01*
X110393729Y-59601552D01*
X110495186Y-59684814D01*
X110578448Y-59786271D01*
X110607778Y-59822009D01*
X110691443Y-59978534D01*
X110742963Y-60148373D01*
X110760359Y-60325000D01*
X110742963Y-60501627D01*
X110691443Y-60671466D01*
X110607778Y-60827991D01*
X110578448Y-60863729D01*
X110495186Y-60965186D01*
X110393729Y-61048448D01*
X110357991Y-61077778D01*
X110201466Y-61161443D01*
X110031627Y-61212963D01*
X109965442Y-61219482D01*
X109899260Y-61226000D01*
X109810740Y-61226000D01*
X109744558Y-61219482D01*
X109678373Y-61212963D01*
X109508534Y-61161443D01*
X109352009Y-61077778D01*
X109316271Y-61048448D01*
X109214814Y-60965186D01*
X109131552Y-60863729D01*
X109102222Y-60827991D01*
X109018557Y-60671466D01*
X108967037Y-60501627D01*
X108949641Y-60325000D01*
X108967037Y-60148373D01*
X109018557Y-59978534D01*
X109102222Y-59822009D01*
X109131552Y-59786271D01*
X109214814Y-59684814D01*
X109316271Y-59601552D01*
X109352009Y-59572222D01*
X109508534Y-59488557D01*
X109678373Y-59437037D01*
X109744558Y-59430518D01*
X109810740Y-59424000D01*
X109899260Y-59424000D01*
X109965442Y-59430518D01*
X109965442Y-59430518D01*
G37*
G36*
X100205442Y-59430518D02*
G01*
X100271627Y-59437037D01*
X100441466Y-59488557D01*
X100597991Y-59572222D01*
X100633729Y-59601552D01*
X100735186Y-59684814D01*
X100818448Y-59786271D01*
X100847778Y-59822009D01*
X100931443Y-59978534D01*
X100982963Y-60148373D01*
X101000359Y-60325000D01*
X100982963Y-60501627D01*
X100931443Y-60671466D01*
X100847778Y-60827991D01*
X100818448Y-60863729D01*
X100735186Y-60965186D01*
X100633729Y-61048448D01*
X100597991Y-61077778D01*
X100441466Y-61161443D01*
X100271627Y-61212963D01*
X100205442Y-61219482D01*
X100139260Y-61226000D01*
X100050740Y-61226000D01*
X99984558Y-61219482D01*
X99918373Y-61212963D01*
X99748534Y-61161443D01*
X99592009Y-61077778D01*
X99556271Y-61048448D01*
X99454814Y-60965186D01*
X99371552Y-60863729D01*
X99342222Y-60827991D01*
X99258557Y-60671466D01*
X99207037Y-60501627D01*
X99189641Y-60325000D01*
X99207037Y-60148373D01*
X99258557Y-59978534D01*
X99342222Y-59822009D01*
X99371552Y-59786271D01*
X99454814Y-59684814D01*
X99556271Y-59601552D01*
X99592009Y-59572222D01*
X99748534Y-59488557D01*
X99918373Y-59437037D01*
X99984558Y-59430518D01*
X100050740Y-59424000D01*
X100139260Y-59424000D01*
X100205442Y-59430518D01*
X100205442Y-59430518D01*
G37*
G36*
X87105442Y-59430518D02*
G01*
X87171627Y-59437037D01*
X87341466Y-59488557D01*
X87497991Y-59572222D01*
X87533729Y-59601552D01*
X87635186Y-59684814D01*
X87718448Y-59786271D01*
X87747778Y-59822009D01*
X87831443Y-59978534D01*
X87882963Y-60148373D01*
X87900359Y-60325000D01*
X87882963Y-60501627D01*
X87831443Y-60671466D01*
X87747778Y-60827991D01*
X87718448Y-60863729D01*
X87635186Y-60965186D01*
X87533729Y-61048448D01*
X87497991Y-61077778D01*
X87341466Y-61161443D01*
X87171627Y-61212963D01*
X87105442Y-61219482D01*
X87039260Y-61226000D01*
X86950740Y-61226000D01*
X86884558Y-61219482D01*
X86818373Y-61212963D01*
X86648534Y-61161443D01*
X86492009Y-61077778D01*
X86456271Y-61048448D01*
X86354814Y-60965186D01*
X86271552Y-60863729D01*
X86242222Y-60827991D01*
X86158557Y-60671466D01*
X86107037Y-60501627D01*
X86089641Y-60325000D01*
X86107037Y-60148373D01*
X86158557Y-59978534D01*
X86242222Y-59822009D01*
X86271552Y-59786271D01*
X86354814Y-59684814D01*
X86456271Y-59601552D01*
X86492009Y-59572222D01*
X86648534Y-59488557D01*
X86818373Y-59437037D01*
X86884558Y-59430518D01*
X86950740Y-59424000D01*
X87039260Y-59424000D01*
X87105442Y-59430518D01*
X87105442Y-59430518D01*
G37*
G36*
X77345442Y-59430518D02*
G01*
X77411627Y-59437037D01*
X77581466Y-59488557D01*
X77737991Y-59572222D01*
X77773729Y-59601552D01*
X77875186Y-59684814D01*
X77958448Y-59786271D01*
X77987778Y-59822009D01*
X78071443Y-59978534D01*
X78122963Y-60148373D01*
X78140359Y-60325000D01*
X78122963Y-60501627D01*
X78071443Y-60671466D01*
X77987778Y-60827991D01*
X77958448Y-60863729D01*
X77875186Y-60965186D01*
X77773729Y-61048448D01*
X77737991Y-61077778D01*
X77581466Y-61161443D01*
X77411627Y-61212963D01*
X77345442Y-61219482D01*
X77279260Y-61226000D01*
X77190740Y-61226000D01*
X77124558Y-61219482D01*
X77058373Y-61212963D01*
X76888534Y-61161443D01*
X76732009Y-61077778D01*
X76696271Y-61048448D01*
X76594814Y-60965186D01*
X76511552Y-60863729D01*
X76482222Y-60827991D01*
X76398557Y-60671466D01*
X76347037Y-60501627D01*
X76329641Y-60325000D01*
X76347037Y-60148373D01*
X76398557Y-59978534D01*
X76482222Y-59822009D01*
X76511552Y-59786271D01*
X76594814Y-59684814D01*
X76696271Y-59601552D01*
X76732009Y-59572222D01*
X76888534Y-59488557D01*
X77058373Y-59437037D01*
X77124558Y-59430518D01*
X77190740Y-59424000D01*
X77279260Y-59424000D01*
X77345442Y-59430518D01*
X77345442Y-59430518D01*
G37*
G36*
X54485442Y-59430518D02*
G01*
X54551627Y-59437037D01*
X54721466Y-59488557D01*
X54877991Y-59572222D01*
X54913729Y-59601552D01*
X55015186Y-59684814D01*
X55098448Y-59786271D01*
X55127778Y-59822009D01*
X55211443Y-59978534D01*
X55262963Y-60148373D01*
X55280359Y-60325000D01*
X55262963Y-60501627D01*
X55211443Y-60671466D01*
X55127778Y-60827991D01*
X55098448Y-60863729D01*
X55015186Y-60965186D01*
X54913729Y-61048448D01*
X54877991Y-61077778D01*
X54721466Y-61161443D01*
X54551627Y-61212963D01*
X54485442Y-61219482D01*
X54419260Y-61226000D01*
X54330740Y-61226000D01*
X54264558Y-61219482D01*
X54198373Y-61212963D01*
X54028534Y-61161443D01*
X53872009Y-61077778D01*
X53836271Y-61048448D01*
X53734814Y-60965186D01*
X53651552Y-60863729D01*
X53622222Y-60827991D01*
X53538557Y-60671466D01*
X53487037Y-60501627D01*
X53469641Y-60325000D01*
X53487037Y-60148373D01*
X53538557Y-59978534D01*
X53622222Y-59822009D01*
X53651552Y-59786271D01*
X53734814Y-59684814D01*
X53836271Y-59601552D01*
X53872009Y-59572222D01*
X54028534Y-59488557D01*
X54198373Y-59437037D01*
X54264558Y-59430518D01*
X54330740Y-59424000D01*
X54419260Y-59424000D01*
X54485442Y-59430518D01*
X54485442Y-59430518D01*
G37*
G36*
X64245442Y-59430518D02*
G01*
X64311627Y-59437037D01*
X64481466Y-59488557D01*
X64637991Y-59572222D01*
X64673729Y-59601552D01*
X64775186Y-59684814D01*
X64858448Y-59786271D01*
X64887778Y-59822009D01*
X64971443Y-59978534D01*
X65022963Y-60148373D01*
X65040359Y-60325000D01*
X65022963Y-60501627D01*
X64971443Y-60671466D01*
X64887778Y-60827991D01*
X64858448Y-60863729D01*
X64775186Y-60965186D01*
X64673729Y-61048448D01*
X64637991Y-61077778D01*
X64481466Y-61161443D01*
X64311627Y-61212963D01*
X64245442Y-61219482D01*
X64179260Y-61226000D01*
X64090740Y-61226000D01*
X64024558Y-61219482D01*
X63958373Y-61212963D01*
X63788534Y-61161443D01*
X63632009Y-61077778D01*
X63596271Y-61048448D01*
X63494814Y-60965186D01*
X63411552Y-60863729D01*
X63382222Y-60827991D01*
X63298557Y-60671466D01*
X63247037Y-60501627D01*
X63229641Y-60325000D01*
X63247037Y-60148373D01*
X63298557Y-59978534D01*
X63382222Y-59822009D01*
X63411552Y-59786271D01*
X63494814Y-59684814D01*
X63596271Y-59601552D01*
X63632009Y-59572222D01*
X63788534Y-59488557D01*
X63958373Y-59437037D01*
X64024558Y-59430518D01*
X64090740Y-59424000D01*
X64179260Y-59424000D01*
X64245442Y-59430518D01*
X64245442Y-59430518D01*
G37*
G36*
X224265442Y-59430518D02*
G01*
X224331627Y-59437037D01*
X224501466Y-59488557D01*
X224657991Y-59572222D01*
X224693729Y-59601552D01*
X224795186Y-59684814D01*
X224878448Y-59786271D01*
X224907778Y-59822009D01*
X224991443Y-59978534D01*
X225042963Y-60148373D01*
X225060359Y-60325000D01*
X225042963Y-60501627D01*
X224991443Y-60671466D01*
X224907778Y-60827991D01*
X224878448Y-60863729D01*
X224795186Y-60965186D01*
X224693729Y-61048448D01*
X224657991Y-61077778D01*
X224501466Y-61161443D01*
X224331627Y-61212963D01*
X224265442Y-61219482D01*
X224199260Y-61226000D01*
X224110740Y-61226000D01*
X224044558Y-61219482D01*
X223978373Y-61212963D01*
X223808534Y-61161443D01*
X223652009Y-61077778D01*
X223616271Y-61048448D01*
X223514814Y-60965186D01*
X223431552Y-60863729D01*
X223402222Y-60827991D01*
X223318557Y-60671466D01*
X223267037Y-60501627D01*
X223249641Y-60325000D01*
X223267037Y-60148373D01*
X223318557Y-59978534D01*
X223402222Y-59822009D01*
X223431552Y-59786271D01*
X223514814Y-59684814D01*
X223616271Y-59601552D01*
X223652009Y-59572222D01*
X223808534Y-59488557D01*
X223978373Y-59437037D01*
X224044558Y-59430518D01*
X224110740Y-59424000D01*
X224199260Y-59424000D01*
X224265442Y-59430518D01*
X224265442Y-59430518D01*
G37*
G36*
X214505442Y-59430518D02*
G01*
X214571627Y-59437037D01*
X214741466Y-59488557D01*
X214897991Y-59572222D01*
X214933729Y-59601552D01*
X215035186Y-59684814D01*
X215118448Y-59786271D01*
X215147778Y-59822009D01*
X215231443Y-59978534D01*
X215282963Y-60148373D01*
X215300359Y-60325000D01*
X215282963Y-60501627D01*
X215231443Y-60671466D01*
X215147778Y-60827991D01*
X215118448Y-60863729D01*
X215035186Y-60965186D01*
X214933729Y-61048448D01*
X214897991Y-61077778D01*
X214741466Y-61161443D01*
X214571627Y-61212963D01*
X214505442Y-61219482D01*
X214439260Y-61226000D01*
X214350740Y-61226000D01*
X214284558Y-61219482D01*
X214218373Y-61212963D01*
X214048534Y-61161443D01*
X213892009Y-61077778D01*
X213856271Y-61048448D01*
X213754814Y-60965186D01*
X213671552Y-60863729D01*
X213642222Y-60827991D01*
X213558557Y-60671466D01*
X213507037Y-60501627D01*
X213489641Y-60325000D01*
X213507037Y-60148373D01*
X213558557Y-59978534D01*
X213642222Y-59822009D01*
X213671552Y-59786271D01*
X213754814Y-59684814D01*
X213856271Y-59601552D01*
X213892009Y-59572222D01*
X214048534Y-59488557D01*
X214218373Y-59437037D01*
X214284558Y-59430518D01*
X214350740Y-59424000D01*
X214439260Y-59424000D01*
X214505442Y-59430518D01*
X214505442Y-59430518D01*
G37*
G36*
X201405442Y-59430518D02*
G01*
X201471627Y-59437037D01*
X201641466Y-59488557D01*
X201797991Y-59572222D01*
X201833729Y-59601552D01*
X201935186Y-59684814D01*
X202018448Y-59786271D01*
X202047778Y-59822009D01*
X202131443Y-59978534D01*
X202182963Y-60148373D01*
X202200359Y-60325000D01*
X202182963Y-60501627D01*
X202131443Y-60671466D01*
X202047778Y-60827991D01*
X202018448Y-60863729D01*
X201935186Y-60965186D01*
X201833729Y-61048448D01*
X201797991Y-61077778D01*
X201641466Y-61161443D01*
X201471627Y-61212963D01*
X201405442Y-61219482D01*
X201339260Y-61226000D01*
X201250740Y-61226000D01*
X201184558Y-61219482D01*
X201118373Y-61212963D01*
X200948534Y-61161443D01*
X200792009Y-61077778D01*
X200756271Y-61048448D01*
X200654814Y-60965186D01*
X200571552Y-60863729D01*
X200542222Y-60827991D01*
X200458557Y-60671466D01*
X200407037Y-60501627D01*
X200389641Y-60325000D01*
X200407037Y-60148373D01*
X200458557Y-59978534D01*
X200542222Y-59822009D01*
X200571552Y-59786271D01*
X200654814Y-59684814D01*
X200756271Y-59601552D01*
X200792009Y-59572222D01*
X200948534Y-59488557D01*
X201118373Y-59437037D01*
X201184558Y-59430518D01*
X201250740Y-59424000D01*
X201339260Y-59424000D01*
X201405442Y-59430518D01*
X201405442Y-59430518D01*
G37*
G36*
X145925442Y-59430518D02*
G01*
X145991627Y-59437037D01*
X146161466Y-59488557D01*
X146317991Y-59572222D01*
X146353729Y-59601552D01*
X146455186Y-59684814D01*
X146538448Y-59786271D01*
X146567778Y-59822009D01*
X146651443Y-59978534D01*
X146702963Y-60148373D01*
X146720359Y-60325000D01*
X146702963Y-60501627D01*
X146651443Y-60671466D01*
X146567778Y-60827991D01*
X146538448Y-60863729D01*
X146455186Y-60965186D01*
X146353729Y-61048448D01*
X146317991Y-61077778D01*
X146161466Y-61161443D01*
X145991627Y-61212963D01*
X145925442Y-61219482D01*
X145859260Y-61226000D01*
X145770740Y-61226000D01*
X145704558Y-61219482D01*
X145638373Y-61212963D01*
X145468534Y-61161443D01*
X145312009Y-61077778D01*
X145276271Y-61048448D01*
X145174814Y-60965186D01*
X145091552Y-60863729D01*
X145062222Y-60827991D01*
X144978557Y-60671466D01*
X144927037Y-60501627D01*
X144909641Y-60325000D01*
X144927037Y-60148373D01*
X144978557Y-59978534D01*
X145062222Y-59822009D01*
X145091552Y-59786271D01*
X145174814Y-59684814D01*
X145276271Y-59601552D01*
X145312009Y-59572222D01*
X145468534Y-59488557D01*
X145638373Y-59437037D01*
X145704558Y-59430518D01*
X145770740Y-59424000D01*
X145859260Y-59424000D01*
X145925442Y-59430518D01*
X145925442Y-59430518D01*
G37*
G36*
X155685442Y-59430518D02*
G01*
X155751627Y-59437037D01*
X155921466Y-59488557D01*
X156077991Y-59572222D01*
X156113729Y-59601552D01*
X156215186Y-59684814D01*
X156298448Y-59786271D01*
X156327778Y-59822009D01*
X156411443Y-59978534D01*
X156462963Y-60148373D01*
X156480359Y-60325000D01*
X156462963Y-60501627D01*
X156411443Y-60671466D01*
X156327778Y-60827991D01*
X156298448Y-60863729D01*
X156215186Y-60965186D01*
X156113729Y-61048448D01*
X156077991Y-61077778D01*
X155921466Y-61161443D01*
X155751627Y-61212963D01*
X155685442Y-61219482D01*
X155619260Y-61226000D01*
X155530740Y-61226000D01*
X155464558Y-61219482D01*
X155398373Y-61212963D01*
X155228534Y-61161443D01*
X155072009Y-61077778D01*
X155036271Y-61048448D01*
X154934814Y-60965186D01*
X154851552Y-60863729D01*
X154822222Y-60827991D01*
X154738557Y-60671466D01*
X154687037Y-60501627D01*
X154669641Y-60325000D01*
X154687037Y-60148373D01*
X154738557Y-59978534D01*
X154822222Y-59822009D01*
X154851552Y-59786271D01*
X154934814Y-59684814D01*
X155036271Y-59601552D01*
X155072009Y-59572222D01*
X155228534Y-59488557D01*
X155398373Y-59437037D01*
X155464558Y-59430518D01*
X155530740Y-59424000D01*
X155619260Y-59424000D01*
X155685442Y-59430518D01*
X155685442Y-59430518D01*
G37*
G36*
X132825442Y-59430518D02*
G01*
X132891627Y-59437037D01*
X133061466Y-59488557D01*
X133217991Y-59572222D01*
X133253729Y-59601552D01*
X133355186Y-59684814D01*
X133438448Y-59786271D01*
X133467778Y-59822009D01*
X133551443Y-59978534D01*
X133602963Y-60148373D01*
X133620359Y-60325000D01*
X133602963Y-60501627D01*
X133551443Y-60671466D01*
X133467778Y-60827991D01*
X133438448Y-60863729D01*
X133355186Y-60965186D01*
X133253729Y-61048448D01*
X133217991Y-61077778D01*
X133061466Y-61161443D01*
X132891627Y-61212963D01*
X132825442Y-61219482D01*
X132759260Y-61226000D01*
X132670740Y-61226000D01*
X132604558Y-61219482D01*
X132538373Y-61212963D01*
X132368534Y-61161443D01*
X132212009Y-61077778D01*
X132176271Y-61048448D01*
X132074814Y-60965186D01*
X131991552Y-60863729D01*
X131962222Y-60827991D01*
X131878557Y-60671466D01*
X131827037Y-60501627D01*
X131809641Y-60325000D01*
X131827037Y-60148373D01*
X131878557Y-59978534D01*
X131962222Y-59822009D01*
X131991552Y-59786271D01*
X132074814Y-59684814D01*
X132176271Y-59601552D01*
X132212009Y-59572222D01*
X132368534Y-59488557D01*
X132538373Y-59437037D01*
X132604558Y-59430518D01*
X132670740Y-59424000D01*
X132759260Y-59424000D01*
X132825442Y-59430518D01*
X132825442Y-59430518D01*
G37*
G36*
X178545442Y-59430518D02*
G01*
X178611627Y-59437037D01*
X178781466Y-59488557D01*
X178937991Y-59572222D01*
X178973729Y-59601552D01*
X179075186Y-59684814D01*
X179158448Y-59786271D01*
X179187778Y-59822009D01*
X179271443Y-59978534D01*
X179322963Y-60148373D01*
X179340359Y-60325000D01*
X179322963Y-60501627D01*
X179271443Y-60671466D01*
X179187778Y-60827991D01*
X179158448Y-60863729D01*
X179075186Y-60965186D01*
X178973729Y-61048448D01*
X178937991Y-61077778D01*
X178781466Y-61161443D01*
X178611627Y-61212963D01*
X178545442Y-61219482D01*
X178479260Y-61226000D01*
X178390740Y-61226000D01*
X178324558Y-61219482D01*
X178258373Y-61212963D01*
X178088534Y-61161443D01*
X177932009Y-61077778D01*
X177896271Y-61048448D01*
X177794814Y-60965186D01*
X177711552Y-60863729D01*
X177682222Y-60827991D01*
X177598557Y-60671466D01*
X177547037Y-60501627D01*
X177529641Y-60325000D01*
X177547037Y-60148373D01*
X177598557Y-59978534D01*
X177682222Y-59822009D01*
X177711552Y-59786271D01*
X177794814Y-59684814D01*
X177896271Y-59601552D01*
X177932009Y-59572222D01*
X178088534Y-59488557D01*
X178258373Y-59437037D01*
X178324558Y-59430518D01*
X178390740Y-59424000D01*
X178479260Y-59424000D01*
X178545442Y-59430518D01*
X178545442Y-59430518D01*
G37*
G36*
X191645442Y-59430518D02*
G01*
X191711627Y-59437037D01*
X191881466Y-59488557D01*
X192037991Y-59572222D01*
X192073729Y-59601552D01*
X192175186Y-59684814D01*
X192258448Y-59786271D01*
X192287778Y-59822009D01*
X192371443Y-59978534D01*
X192422963Y-60148373D01*
X192440359Y-60325000D01*
X192422963Y-60501627D01*
X192371443Y-60671466D01*
X192287778Y-60827991D01*
X192258448Y-60863729D01*
X192175186Y-60965186D01*
X192073729Y-61048448D01*
X192037991Y-61077778D01*
X191881466Y-61161443D01*
X191711627Y-61212963D01*
X191645442Y-61219482D01*
X191579260Y-61226000D01*
X191490740Y-61226000D01*
X191424558Y-61219482D01*
X191358373Y-61212963D01*
X191188534Y-61161443D01*
X191032009Y-61077778D01*
X190996271Y-61048448D01*
X190894814Y-60965186D01*
X190811552Y-60863729D01*
X190782222Y-60827991D01*
X190698557Y-60671466D01*
X190647037Y-60501627D01*
X190629641Y-60325000D01*
X190647037Y-60148373D01*
X190698557Y-59978534D01*
X190782222Y-59822009D01*
X190811552Y-59786271D01*
X190894814Y-59684814D01*
X190996271Y-59601552D01*
X191032009Y-59572222D01*
X191188534Y-59488557D01*
X191358373Y-59437037D01*
X191424558Y-59430518D01*
X191490740Y-59424000D01*
X191579260Y-59424000D01*
X191645442Y-59430518D01*
X191645442Y-59430518D01*
G37*
G36*
X168785442Y-59430518D02*
G01*
X168851627Y-59437037D01*
X169021466Y-59488557D01*
X169177991Y-59572222D01*
X169213729Y-59601552D01*
X169315186Y-59684814D01*
X169398448Y-59786271D01*
X169427778Y-59822009D01*
X169511443Y-59978534D01*
X169562963Y-60148373D01*
X169580359Y-60325000D01*
X169562963Y-60501627D01*
X169511443Y-60671466D01*
X169427778Y-60827991D01*
X169398448Y-60863729D01*
X169315186Y-60965186D01*
X169213729Y-61048448D01*
X169177991Y-61077778D01*
X169021466Y-61161443D01*
X168851627Y-61212963D01*
X168785442Y-61219482D01*
X168719260Y-61226000D01*
X168630740Y-61226000D01*
X168564558Y-61219482D01*
X168498373Y-61212963D01*
X168328534Y-61161443D01*
X168172009Y-61077778D01*
X168136271Y-61048448D01*
X168034814Y-60965186D01*
X167951552Y-60863729D01*
X167922222Y-60827991D01*
X167838557Y-60671466D01*
X167787037Y-60501627D01*
X167769641Y-60325000D01*
X167787037Y-60148373D01*
X167838557Y-59978534D01*
X167922222Y-59822009D01*
X167951552Y-59786271D01*
X168034814Y-59684814D01*
X168136271Y-59601552D01*
X168172009Y-59572222D01*
X168328534Y-59488557D01*
X168498373Y-59437037D01*
X168564558Y-59430518D01*
X168630740Y-59424000D01*
X168719260Y-59424000D01*
X168785442Y-59430518D01*
X168785442Y-59430518D01*
G37*
M02*
