G04 #@! TF.GenerationSoftware,KiCad,Pcbnew,(5.1.0)-1*
G04 #@! TF.CreationDate,2019-04-03T23:02:26-04:00*
G04 #@! TF.ProjectId,loadcell_daughter,6c6f6164-6365-46c6-9c5f-646175676874,rev?*
G04 #@! TF.SameCoordinates,Original*
G04 #@! TF.FileFunction,Legend,Top*
G04 #@! TF.FilePolarity,Positive*
%FSLAX46Y46*%
G04 Gerber Fmt 4.6, Leading zero omitted, Abs format (unit mm)*
G04 Created by KiCad (PCBNEW (5.1.0)-1) date 2019-04-03 23:02:26*
%MOMM*%
%LPD*%
G04 APERTURE LIST*
%ADD10C,0.120000*%
%ADD11C,0.150000*%
G04 APERTURE END LIST*
D10*
X154058034Y-91948000D02*
G75*
G03X154058034Y-91948000I-1150034J0D01*
G01*
D11*
X149153619Y-94885285D02*
X149153619Y-94409095D01*
X150153619Y-94409095D01*
X149153619Y-95361476D02*
X149201238Y-95266238D01*
X149248857Y-95218619D01*
X149344095Y-95171000D01*
X149629809Y-95171000D01*
X149725047Y-95218619D01*
X149772666Y-95266238D01*
X149820285Y-95361476D01*
X149820285Y-95504333D01*
X149772666Y-95599571D01*
X149725047Y-95647190D01*
X149629809Y-95694809D01*
X149344095Y-95694809D01*
X149248857Y-95647190D01*
X149201238Y-95599571D01*
X149153619Y-95504333D01*
X149153619Y-95361476D01*
X149153619Y-96551952D02*
X149677428Y-96551952D01*
X149772666Y-96504333D01*
X149820285Y-96409095D01*
X149820285Y-96218619D01*
X149772666Y-96123380D01*
X149201238Y-96551952D02*
X149153619Y-96456714D01*
X149153619Y-96218619D01*
X149201238Y-96123380D01*
X149296476Y-96075761D01*
X149391714Y-96075761D01*
X149486952Y-96123380D01*
X149534571Y-96218619D01*
X149534571Y-96456714D01*
X149582190Y-96551952D01*
X149153619Y-97456714D02*
X150153619Y-97456714D01*
X149201238Y-97456714D02*
X149153619Y-97361476D01*
X149153619Y-97171000D01*
X149201238Y-97075761D01*
X149248857Y-97028142D01*
X149344095Y-96980523D01*
X149629809Y-96980523D01*
X149725047Y-97028142D01*
X149772666Y-97075761D01*
X149820285Y-97171000D01*
X149820285Y-97361476D01*
X149772666Y-97456714D01*
X149248857Y-99266238D02*
X149201238Y-99218619D01*
X149153619Y-99075761D01*
X149153619Y-98980523D01*
X149201238Y-98837666D01*
X149296476Y-98742428D01*
X149391714Y-98694809D01*
X149582190Y-98647190D01*
X149725047Y-98647190D01*
X149915523Y-98694809D01*
X150010761Y-98742428D01*
X150106000Y-98837666D01*
X150153619Y-98980523D01*
X150153619Y-99075761D01*
X150106000Y-99218619D01*
X150058380Y-99266238D01*
X149201238Y-100075761D02*
X149153619Y-99980523D01*
X149153619Y-99790047D01*
X149201238Y-99694809D01*
X149296476Y-99647190D01*
X149677428Y-99647190D01*
X149772666Y-99694809D01*
X149820285Y-99790047D01*
X149820285Y-99980523D01*
X149772666Y-100075761D01*
X149677428Y-100123380D01*
X149582190Y-100123380D01*
X149486952Y-99647190D01*
X149153619Y-100694809D02*
X149201238Y-100599571D01*
X149296476Y-100551952D01*
X150153619Y-100551952D01*
X149153619Y-101218619D02*
X149201238Y-101123380D01*
X149296476Y-101075761D01*
X150153619Y-101075761D01*
X149201238Y-101551952D02*
X149153619Y-101647190D01*
X149153619Y-101837666D01*
X149201238Y-101932904D01*
X149296476Y-101980523D01*
X149344095Y-101980523D01*
X149439333Y-101932904D01*
X149486952Y-101837666D01*
X149486952Y-101694809D01*
X149534571Y-101599571D01*
X149629809Y-101551952D01*
X149677428Y-101551952D01*
X149772666Y-101599571D01*
X149820285Y-101694809D01*
X149820285Y-101837666D01*
X149772666Y-101932904D01*
X160005000Y-97112000D02*
X160005000Y-95712000D01*
X154905000Y-97112000D02*
X154905000Y-101262000D01*
X160055000Y-97112000D02*
X160055000Y-101262000D01*
X154905000Y-97112000D02*
X155050000Y-97112000D01*
X154905000Y-101262000D02*
X155050000Y-101262000D01*
X160055000Y-101262000D02*
X159910000Y-101262000D01*
X160055000Y-97112000D02*
X160005000Y-97112000D01*
D10*
X163628000Y-106303578D02*
X163628000Y-105786422D01*
X165048000Y-106303578D02*
X165048000Y-105786422D01*
X163957000Y-103378000D02*
X151257000Y-103378000D01*
X151257000Y-103378000D02*
X151257000Y-90678000D01*
X163957000Y-103378000D02*
X163957000Y-90678000D01*
X152491000Y-77276000D02*
X163231000Y-77276000D01*
X152491000Y-71976000D02*
X163231000Y-71976000D01*
X152491000Y-71516000D02*
X163231000Y-71516000D01*
X152491000Y-77836000D02*
X163231000Y-77836000D01*
X152491000Y-71516000D02*
X152491000Y-77836000D01*
X163231000Y-71516000D02*
X163231000Y-77836000D01*
X152251000Y-77336000D02*
X152251000Y-78076000D01*
X152251000Y-78076000D02*
X152751000Y-78076000D01*
X151840000Y-106382078D02*
X151840000Y-105864922D01*
X150420000Y-106382078D02*
X150420000Y-105864922D01*
X153976000Y-106430578D02*
X153976000Y-105913422D01*
X155396000Y-106430578D02*
X155396000Y-105913422D01*
X157299922Y-91111000D02*
X157817078Y-91111000D01*
X157299922Y-92531000D02*
X157817078Y-92531000D01*
X161326000Y-107052000D02*
X161326000Y-105292000D01*
X158256000Y-105292000D02*
X158256000Y-107722000D01*
D11*
X160361380Y-100075904D02*
X161170904Y-100075904D01*
X161266142Y-100028285D01*
X161313761Y-99980666D01*
X161361380Y-99885428D01*
X161361380Y-99694952D01*
X161313761Y-99599714D01*
X161266142Y-99552095D01*
X161170904Y-99504476D01*
X160361380Y-99504476D01*
X160456619Y-99075904D02*
X160409000Y-99028285D01*
X160361380Y-98933047D01*
X160361380Y-98694952D01*
X160409000Y-98599714D01*
X160456619Y-98552095D01*
X160551857Y-98504476D01*
X160647095Y-98504476D01*
X160789952Y-98552095D01*
X161361380Y-99123523D01*
X161361380Y-98504476D01*
X163045142Y-106211666D02*
X163092761Y-106259285D01*
X163140380Y-106402142D01*
X163140380Y-106497380D01*
X163092761Y-106640238D01*
X162997523Y-106735476D01*
X162902285Y-106783095D01*
X162711809Y-106830714D01*
X162568952Y-106830714D01*
X162378476Y-106783095D01*
X162283238Y-106735476D01*
X162188000Y-106640238D01*
X162140380Y-106497380D01*
X162140380Y-106402142D01*
X162188000Y-106259285D01*
X162235619Y-106211666D01*
X163140380Y-105259285D02*
X163140380Y-105830714D01*
X163140380Y-105545000D02*
X162140380Y-105545000D01*
X162283238Y-105640238D01*
X162378476Y-105735476D01*
X162426095Y-105830714D01*
X164893666Y-101433380D02*
X164893666Y-102147666D01*
X164846047Y-102290523D01*
X164750809Y-102385761D01*
X164607952Y-102433380D01*
X164512714Y-102433380D01*
X165893666Y-102433380D02*
X165322238Y-102433380D01*
X165607952Y-102433380D02*
X165607952Y-101433380D01*
X165512714Y-101576238D01*
X165417476Y-101671476D01*
X165322238Y-101719095D01*
X157781666Y-78065380D02*
X157781666Y-78779666D01*
X157734047Y-78922523D01*
X157638809Y-79017761D01*
X157495952Y-79065380D01*
X157400714Y-79065380D01*
X158210238Y-78160619D02*
X158257857Y-78113000D01*
X158353095Y-78065380D01*
X158591190Y-78065380D01*
X158686428Y-78113000D01*
X158734047Y-78160619D01*
X158781666Y-78255857D01*
X158781666Y-78351095D01*
X158734047Y-78493952D01*
X158162619Y-79065380D01*
X158781666Y-79065380D01*
X149932380Y-106290166D02*
X149456190Y-106623500D01*
X149932380Y-106861595D02*
X148932380Y-106861595D01*
X148932380Y-106480642D01*
X148980000Y-106385404D01*
X149027619Y-106337785D01*
X149122857Y-106290166D01*
X149265714Y-106290166D01*
X149360952Y-106337785D01*
X149408571Y-106385404D01*
X149456190Y-106480642D01*
X149456190Y-106861595D01*
X149932380Y-105337785D02*
X149932380Y-105909214D01*
X149932380Y-105623500D02*
X148932380Y-105623500D01*
X149075238Y-105718738D01*
X149170476Y-105813976D01*
X149218095Y-105909214D01*
X153488380Y-106338666D02*
X153012190Y-106672000D01*
X153488380Y-106910095D02*
X152488380Y-106910095D01*
X152488380Y-106529142D01*
X152536000Y-106433904D01*
X152583619Y-106386285D01*
X152678857Y-106338666D01*
X152821714Y-106338666D01*
X152916952Y-106386285D01*
X152964571Y-106433904D01*
X153012190Y-106529142D01*
X153012190Y-106910095D01*
X152583619Y-105957714D02*
X152536000Y-105910095D01*
X152488380Y-105814857D01*
X152488380Y-105576761D01*
X152536000Y-105481523D01*
X152583619Y-105433904D01*
X152678857Y-105386285D01*
X152774095Y-105386285D01*
X152916952Y-105433904D01*
X153488380Y-106005333D01*
X153488380Y-105386285D01*
X157391833Y-90623380D02*
X157058500Y-90147190D01*
X156820404Y-90623380D02*
X156820404Y-89623380D01*
X157201357Y-89623380D01*
X157296595Y-89671000D01*
X157344214Y-89718619D01*
X157391833Y-89813857D01*
X157391833Y-89956714D01*
X157344214Y-90051952D01*
X157296595Y-90099571D01*
X157201357Y-90147190D01*
X156820404Y-90147190D01*
X157725166Y-89623380D02*
X158344214Y-89623380D01*
X158010880Y-90004333D01*
X158153738Y-90004333D01*
X158248976Y-90051952D01*
X158296595Y-90099571D01*
X158344214Y-90194809D01*
X158344214Y-90432904D01*
X158296595Y-90528142D01*
X158248976Y-90575761D01*
X158153738Y-90623380D01*
X157868023Y-90623380D01*
X157772785Y-90575761D01*
X157725166Y-90528142D01*
X156768380Y-106933904D02*
X157577904Y-106933904D01*
X157673142Y-106886285D01*
X157720761Y-106838666D01*
X157768380Y-106743428D01*
X157768380Y-106552952D01*
X157720761Y-106457714D01*
X157673142Y-106410095D01*
X157577904Y-106362476D01*
X156768380Y-106362476D01*
X157768380Y-105362476D02*
X157768380Y-105933904D01*
X157768380Y-105648190D02*
X156768380Y-105648190D01*
X156911238Y-105743428D01*
X157006476Y-105838666D01*
X157054095Y-105933904D01*
M02*
