G04 #@! TF.GenerationSoftware,KiCad,Pcbnew,(5.1.0)-1*
G04 #@! TF.CreationDate,2019-04-03T23:02:26-04:00*
G04 #@! TF.ProjectId,loadcell_daughter,6c6f6164-6365-46c6-9c5f-646175676874,rev?*
G04 #@! TF.SameCoordinates,Original*
G04 #@! TF.FileFunction,Copper,L1,Top*
G04 #@! TF.FilePolarity,Positive*
%FSLAX46Y46*%
G04 Gerber Fmt 4.6, Leading zero omitted, Abs format (unit mm)*
G04 Created by KiCad (PCBNEW (5.1.0)-1) date 2019-04-03 23:02:26*
%MOMM*%
%LPD*%
G04 APERTURE LIST*
%ADD10R,0.600000X1.550000*%
%ADD11C,0.100000*%
%ADD12C,0.975000*%
%ADD13O,1.700000X1.700000*%
%ADD14R,2.200000X2.200000*%
%ADD15C,2.200000*%
%ADD16R,0.650000X1.220000*%
%ADD17C,0.800000*%
%ADD18C,0.250000*%
%ADD19C,0.254000*%
G04 APERTURE END LIST*
D10*
X159385000Y-101887000D03*
X158115000Y-101887000D03*
X156845000Y-101887000D03*
X155575000Y-101887000D03*
X155575000Y-96487000D03*
X156845000Y-96487000D03*
X158115000Y-96487000D03*
X159385000Y-96487000D03*
D11*
G36*
X164818142Y-106496174D02*
G01*
X164841803Y-106499684D01*
X164865007Y-106505496D01*
X164887529Y-106513554D01*
X164909153Y-106523782D01*
X164929670Y-106536079D01*
X164948883Y-106550329D01*
X164966607Y-106566393D01*
X164982671Y-106584117D01*
X164996921Y-106603330D01*
X165009218Y-106623847D01*
X165019446Y-106645471D01*
X165027504Y-106667993D01*
X165033316Y-106691197D01*
X165036826Y-106714858D01*
X165038000Y-106738750D01*
X165038000Y-107226250D01*
X165036826Y-107250142D01*
X165033316Y-107273803D01*
X165027504Y-107297007D01*
X165019446Y-107319529D01*
X165009218Y-107341153D01*
X164996921Y-107361670D01*
X164982671Y-107380883D01*
X164966607Y-107398607D01*
X164948883Y-107414671D01*
X164929670Y-107428921D01*
X164909153Y-107441218D01*
X164887529Y-107451446D01*
X164865007Y-107459504D01*
X164841803Y-107465316D01*
X164818142Y-107468826D01*
X164794250Y-107470000D01*
X163881750Y-107470000D01*
X163857858Y-107468826D01*
X163834197Y-107465316D01*
X163810993Y-107459504D01*
X163788471Y-107451446D01*
X163766847Y-107441218D01*
X163746330Y-107428921D01*
X163727117Y-107414671D01*
X163709393Y-107398607D01*
X163693329Y-107380883D01*
X163679079Y-107361670D01*
X163666782Y-107341153D01*
X163656554Y-107319529D01*
X163648496Y-107297007D01*
X163642684Y-107273803D01*
X163639174Y-107250142D01*
X163638000Y-107226250D01*
X163638000Y-106738750D01*
X163639174Y-106714858D01*
X163642684Y-106691197D01*
X163648496Y-106667993D01*
X163656554Y-106645471D01*
X163666782Y-106623847D01*
X163679079Y-106603330D01*
X163693329Y-106584117D01*
X163709393Y-106566393D01*
X163727117Y-106550329D01*
X163746330Y-106536079D01*
X163766847Y-106523782D01*
X163788471Y-106513554D01*
X163810993Y-106505496D01*
X163834197Y-106499684D01*
X163857858Y-106496174D01*
X163881750Y-106495000D01*
X164794250Y-106495000D01*
X164818142Y-106496174D01*
X164818142Y-106496174D01*
G37*
D12*
X164338000Y-106982500D03*
D11*
G36*
X164818142Y-104621174D02*
G01*
X164841803Y-104624684D01*
X164865007Y-104630496D01*
X164887529Y-104638554D01*
X164909153Y-104648782D01*
X164929670Y-104661079D01*
X164948883Y-104675329D01*
X164966607Y-104691393D01*
X164982671Y-104709117D01*
X164996921Y-104728330D01*
X165009218Y-104748847D01*
X165019446Y-104770471D01*
X165027504Y-104792993D01*
X165033316Y-104816197D01*
X165036826Y-104839858D01*
X165038000Y-104863750D01*
X165038000Y-105351250D01*
X165036826Y-105375142D01*
X165033316Y-105398803D01*
X165027504Y-105422007D01*
X165019446Y-105444529D01*
X165009218Y-105466153D01*
X164996921Y-105486670D01*
X164982671Y-105505883D01*
X164966607Y-105523607D01*
X164948883Y-105539671D01*
X164929670Y-105553921D01*
X164909153Y-105566218D01*
X164887529Y-105576446D01*
X164865007Y-105584504D01*
X164841803Y-105590316D01*
X164818142Y-105593826D01*
X164794250Y-105595000D01*
X163881750Y-105595000D01*
X163857858Y-105593826D01*
X163834197Y-105590316D01*
X163810993Y-105584504D01*
X163788471Y-105576446D01*
X163766847Y-105566218D01*
X163746330Y-105553921D01*
X163727117Y-105539671D01*
X163709393Y-105523607D01*
X163693329Y-105505883D01*
X163679079Y-105486670D01*
X163666782Y-105466153D01*
X163656554Y-105444529D01*
X163648496Y-105422007D01*
X163642684Y-105398803D01*
X163639174Y-105375142D01*
X163638000Y-105351250D01*
X163638000Y-104863750D01*
X163639174Y-104839858D01*
X163642684Y-104816197D01*
X163648496Y-104792993D01*
X163656554Y-104770471D01*
X163666782Y-104748847D01*
X163679079Y-104728330D01*
X163693329Y-104709117D01*
X163709393Y-104691393D01*
X163727117Y-104675329D01*
X163746330Y-104661079D01*
X163766847Y-104648782D01*
X163788471Y-104638554D01*
X163810993Y-104630496D01*
X163834197Y-104624684D01*
X163857858Y-104621174D01*
X163881750Y-104620000D01*
X164794250Y-104620000D01*
X164818142Y-104621174D01*
X164818142Y-104621174D01*
G37*
D12*
X164338000Y-105107500D03*
D13*
X162687000Y-102108000D03*
X152927000Y-99568000D03*
X162687000Y-99568000D03*
X152927000Y-97028000D03*
X162687000Y-97028000D03*
X152927000Y-94488000D03*
X162687000Y-94488000D03*
X152927000Y-91948000D03*
X162687000Y-91948000D03*
D14*
X154051000Y-74676000D03*
D15*
X156591000Y-74676000D03*
X159131000Y-74676000D03*
X161671000Y-74676000D03*
D11*
G36*
X151610142Y-104699674D02*
G01*
X151633803Y-104703184D01*
X151657007Y-104708996D01*
X151679529Y-104717054D01*
X151701153Y-104727282D01*
X151721670Y-104739579D01*
X151740883Y-104753829D01*
X151758607Y-104769893D01*
X151774671Y-104787617D01*
X151788921Y-104806830D01*
X151801218Y-104827347D01*
X151811446Y-104848971D01*
X151819504Y-104871493D01*
X151825316Y-104894697D01*
X151828826Y-104918358D01*
X151830000Y-104942250D01*
X151830000Y-105429750D01*
X151828826Y-105453642D01*
X151825316Y-105477303D01*
X151819504Y-105500507D01*
X151811446Y-105523029D01*
X151801218Y-105544653D01*
X151788921Y-105565170D01*
X151774671Y-105584383D01*
X151758607Y-105602107D01*
X151740883Y-105618171D01*
X151721670Y-105632421D01*
X151701153Y-105644718D01*
X151679529Y-105654946D01*
X151657007Y-105663004D01*
X151633803Y-105668816D01*
X151610142Y-105672326D01*
X151586250Y-105673500D01*
X150673750Y-105673500D01*
X150649858Y-105672326D01*
X150626197Y-105668816D01*
X150602993Y-105663004D01*
X150580471Y-105654946D01*
X150558847Y-105644718D01*
X150538330Y-105632421D01*
X150519117Y-105618171D01*
X150501393Y-105602107D01*
X150485329Y-105584383D01*
X150471079Y-105565170D01*
X150458782Y-105544653D01*
X150448554Y-105523029D01*
X150440496Y-105500507D01*
X150434684Y-105477303D01*
X150431174Y-105453642D01*
X150430000Y-105429750D01*
X150430000Y-104942250D01*
X150431174Y-104918358D01*
X150434684Y-104894697D01*
X150440496Y-104871493D01*
X150448554Y-104848971D01*
X150458782Y-104827347D01*
X150471079Y-104806830D01*
X150485329Y-104787617D01*
X150501393Y-104769893D01*
X150519117Y-104753829D01*
X150538330Y-104739579D01*
X150558847Y-104727282D01*
X150580471Y-104717054D01*
X150602993Y-104708996D01*
X150626197Y-104703184D01*
X150649858Y-104699674D01*
X150673750Y-104698500D01*
X151586250Y-104698500D01*
X151610142Y-104699674D01*
X151610142Y-104699674D01*
G37*
D12*
X151130000Y-105186000D03*
D11*
G36*
X151610142Y-106574674D02*
G01*
X151633803Y-106578184D01*
X151657007Y-106583996D01*
X151679529Y-106592054D01*
X151701153Y-106602282D01*
X151721670Y-106614579D01*
X151740883Y-106628829D01*
X151758607Y-106644893D01*
X151774671Y-106662617D01*
X151788921Y-106681830D01*
X151801218Y-106702347D01*
X151811446Y-106723971D01*
X151819504Y-106746493D01*
X151825316Y-106769697D01*
X151828826Y-106793358D01*
X151830000Y-106817250D01*
X151830000Y-107304750D01*
X151828826Y-107328642D01*
X151825316Y-107352303D01*
X151819504Y-107375507D01*
X151811446Y-107398029D01*
X151801218Y-107419653D01*
X151788921Y-107440170D01*
X151774671Y-107459383D01*
X151758607Y-107477107D01*
X151740883Y-107493171D01*
X151721670Y-107507421D01*
X151701153Y-107519718D01*
X151679529Y-107529946D01*
X151657007Y-107538004D01*
X151633803Y-107543816D01*
X151610142Y-107547326D01*
X151586250Y-107548500D01*
X150673750Y-107548500D01*
X150649858Y-107547326D01*
X150626197Y-107543816D01*
X150602993Y-107538004D01*
X150580471Y-107529946D01*
X150558847Y-107519718D01*
X150538330Y-107507421D01*
X150519117Y-107493171D01*
X150501393Y-107477107D01*
X150485329Y-107459383D01*
X150471079Y-107440170D01*
X150458782Y-107419653D01*
X150448554Y-107398029D01*
X150440496Y-107375507D01*
X150434684Y-107352303D01*
X150431174Y-107328642D01*
X150430000Y-107304750D01*
X150430000Y-106817250D01*
X150431174Y-106793358D01*
X150434684Y-106769697D01*
X150440496Y-106746493D01*
X150448554Y-106723971D01*
X150458782Y-106702347D01*
X150471079Y-106681830D01*
X150485329Y-106662617D01*
X150501393Y-106644893D01*
X150519117Y-106628829D01*
X150538330Y-106614579D01*
X150558847Y-106602282D01*
X150580471Y-106592054D01*
X150602993Y-106583996D01*
X150626197Y-106578184D01*
X150649858Y-106574674D01*
X150673750Y-106573500D01*
X151586250Y-106573500D01*
X151610142Y-106574674D01*
X151610142Y-106574674D01*
G37*
D12*
X151130000Y-107061000D03*
D11*
G36*
X155166142Y-106623174D02*
G01*
X155189803Y-106626684D01*
X155213007Y-106632496D01*
X155235529Y-106640554D01*
X155257153Y-106650782D01*
X155277670Y-106663079D01*
X155296883Y-106677329D01*
X155314607Y-106693393D01*
X155330671Y-106711117D01*
X155344921Y-106730330D01*
X155357218Y-106750847D01*
X155367446Y-106772471D01*
X155375504Y-106794993D01*
X155381316Y-106818197D01*
X155384826Y-106841858D01*
X155386000Y-106865750D01*
X155386000Y-107353250D01*
X155384826Y-107377142D01*
X155381316Y-107400803D01*
X155375504Y-107424007D01*
X155367446Y-107446529D01*
X155357218Y-107468153D01*
X155344921Y-107488670D01*
X155330671Y-107507883D01*
X155314607Y-107525607D01*
X155296883Y-107541671D01*
X155277670Y-107555921D01*
X155257153Y-107568218D01*
X155235529Y-107578446D01*
X155213007Y-107586504D01*
X155189803Y-107592316D01*
X155166142Y-107595826D01*
X155142250Y-107597000D01*
X154229750Y-107597000D01*
X154205858Y-107595826D01*
X154182197Y-107592316D01*
X154158993Y-107586504D01*
X154136471Y-107578446D01*
X154114847Y-107568218D01*
X154094330Y-107555921D01*
X154075117Y-107541671D01*
X154057393Y-107525607D01*
X154041329Y-107507883D01*
X154027079Y-107488670D01*
X154014782Y-107468153D01*
X154004554Y-107446529D01*
X153996496Y-107424007D01*
X153990684Y-107400803D01*
X153987174Y-107377142D01*
X153986000Y-107353250D01*
X153986000Y-106865750D01*
X153987174Y-106841858D01*
X153990684Y-106818197D01*
X153996496Y-106794993D01*
X154004554Y-106772471D01*
X154014782Y-106750847D01*
X154027079Y-106730330D01*
X154041329Y-106711117D01*
X154057393Y-106693393D01*
X154075117Y-106677329D01*
X154094330Y-106663079D01*
X154114847Y-106650782D01*
X154136471Y-106640554D01*
X154158993Y-106632496D01*
X154182197Y-106626684D01*
X154205858Y-106623174D01*
X154229750Y-106622000D01*
X155142250Y-106622000D01*
X155166142Y-106623174D01*
X155166142Y-106623174D01*
G37*
D12*
X154686000Y-107109500D03*
D11*
G36*
X155166142Y-104748174D02*
G01*
X155189803Y-104751684D01*
X155213007Y-104757496D01*
X155235529Y-104765554D01*
X155257153Y-104775782D01*
X155277670Y-104788079D01*
X155296883Y-104802329D01*
X155314607Y-104818393D01*
X155330671Y-104836117D01*
X155344921Y-104855330D01*
X155357218Y-104875847D01*
X155367446Y-104897471D01*
X155375504Y-104919993D01*
X155381316Y-104943197D01*
X155384826Y-104966858D01*
X155386000Y-104990750D01*
X155386000Y-105478250D01*
X155384826Y-105502142D01*
X155381316Y-105525803D01*
X155375504Y-105549007D01*
X155367446Y-105571529D01*
X155357218Y-105593153D01*
X155344921Y-105613670D01*
X155330671Y-105632883D01*
X155314607Y-105650607D01*
X155296883Y-105666671D01*
X155277670Y-105680921D01*
X155257153Y-105693218D01*
X155235529Y-105703446D01*
X155213007Y-105711504D01*
X155189803Y-105717316D01*
X155166142Y-105720826D01*
X155142250Y-105722000D01*
X154229750Y-105722000D01*
X154205858Y-105720826D01*
X154182197Y-105717316D01*
X154158993Y-105711504D01*
X154136471Y-105703446D01*
X154114847Y-105693218D01*
X154094330Y-105680921D01*
X154075117Y-105666671D01*
X154057393Y-105650607D01*
X154041329Y-105632883D01*
X154027079Y-105613670D01*
X154014782Y-105593153D01*
X154004554Y-105571529D01*
X153996496Y-105549007D01*
X153990684Y-105525803D01*
X153987174Y-105502142D01*
X153986000Y-105478250D01*
X153986000Y-104990750D01*
X153987174Y-104966858D01*
X153990684Y-104943197D01*
X153996496Y-104919993D01*
X154004554Y-104897471D01*
X154014782Y-104875847D01*
X154027079Y-104855330D01*
X154041329Y-104836117D01*
X154057393Y-104818393D01*
X154075117Y-104802329D01*
X154094330Y-104788079D01*
X154114847Y-104775782D01*
X154136471Y-104765554D01*
X154158993Y-104757496D01*
X154182197Y-104751684D01*
X154205858Y-104748174D01*
X154229750Y-104747000D01*
X155142250Y-104747000D01*
X155166142Y-104748174D01*
X155166142Y-104748174D01*
G37*
D12*
X154686000Y-105234500D03*
D11*
G36*
X156888642Y-91122174D02*
G01*
X156912303Y-91125684D01*
X156935507Y-91131496D01*
X156958029Y-91139554D01*
X156979653Y-91149782D01*
X157000170Y-91162079D01*
X157019383Y-91176329D01*
X157037107Y-91192393D01*
X157053171Y-91210117D01*
X157067421Y-91229330D01*
X157079718Y-91249847D01*
X157089946Y-91271471D01*
X157098004Y-91293993D01*
X157103816Y-91317197D01*
X157107326Y-91340858D01*
X157108500Y-91364750D01*
X157108500Y-92277250D01*
X157107326Y-92301142D01*
X157103816Y-92324803D01*
X157098004Y-92348007D01*
X157089946Y-92370529D01*
X157079718Y-92392153D01*
X157067421Y-92412670D01*
X157053171Y-92431883D01*
X157037107Y-92449607D01*
X157019383Y-92465671D01*
X157000170Y-92479921D01*
X156979653Y-92492218D01*
X156958029Y-92502446D01*
X156935507Y-92510504D01*
X156912303Y-92516316D01*
X156888642Y-92519826D01*
X156864750Y-92521000D01*
X156377250Y-92521000D01*
X156353358Y-92519826D01*
X156329697Y-92516316D01*
X156306493Y-92510504D01*
X156283971Y-92502446D01*
X156262347Y-92492218D01*
X156241830Y-92479921D01*
X156222617Y-92465671D01*
X156204893Y-92449607D01*
X156188829Y-92431883D01*
X156174579Y-92412670D01*
X156162282Y-92392153D01*
X156152054Y-92370529D01*
X156143996Y-92348007D01*
X156138184Y-92324803D01*
X156134674Y-92301142D01*
X156133500Y-92277250D01*
X156133500Y-91364750D01*
X156134674Y-91340858D01*
X156138184Y-91317197D01*
X156143996Y-91293993D01*
X156152054Y-91271471D01*
X156162282Y-91249847D01*
X156174579Y-91229330D01*
X156188829Y-91210117D01*
X156204893Y-91192393D01*
X156222617Y-91176329D01*
X156241830Y-91162079D01*
X156262347Y-91149782D01*
X156283971Y-91139554D01*
X156306493Y-91131496D01*
X156329697Y-91125684D01*
X156353358Y-91122174D01*
X156377250Y-91121000D01*
X156864750Y-91121000D01*
X156888642Y-91122174D01*
X156888642Y-91122174D01*
G37*
D12*
X156621000Y-91821000D03*
D11*
G36*
X158763642Y-91122174D02*
G01*
X158787303Y-91125684D01*
X158810507Y-91131496D01*
X158833029Y-91139554D01*
X158854653Y-91149782D01*
X158875170Y-91162079D01*
X158894383Y-91176329D01*
X158912107Y-91192393D01*
X158928171Y-91210117D01*
X158942421Y-91229330D01*
X158954718Y-91249847D01*
X158964946Y-91271471D01*
X158973004Y-91293993D01*
X158978816Y-91317197D01*
X158982326Y-91340858D01*
X158983500Y-91364750D01*
X158983500Y-92277250D01*
X158982326Y-92301142D01*
X158978816Y-92324803D01*
X158973004Y-92348007D01*
X158964946Y-92370529D01*
X158954718Y-92392153D01*
X158942421Y-92412670D01*
X158928171Y-92431883D01*
X158912107Y-92449607D01*
X158894383Y-92465671D01*
X158875170Y-92479921D01*
X158854653Y-92492218D01*
X158833029Y-92502446D01*
X158810507Y-92510504D01*
X158787303Y-92516316D01*
X158763642Y-92519826D01*
X158739750Y-92521000D01*
X158252250Y-92521000D01*
X158228358Y-92519826D01*
X158204697Y-92516316D01*
X158181493Y-92510504D01*
X158158971Y-92502446D01*
X158137347Y-92492218D01*
X158116830Y-92479921D01*
X158097617Y-92465671D01*
X158079893Y-92449607D01*
X158063829Y-92431883D01*
X158049579Y-92412670D01*
X158037282Y-92392153D01*
X158027054Y-92370529D01*
X158018996Y-92348007D01*
X158013184Y-92324803D01*
X158009674Y-92301142D01*
X158008500Y-92277250D01*
X158008500Y-91364750D01*
X158009674Y-91340858D01*
X158013184Y-91317197D01*
X158018996Y-91293993D01*
X158027054Y-91271471D01*
X158037282Y-91249847D01*
X158049579Y-91229330D01*
X158063829Y-91210117D01*
X158079893Y-91192393D01*
X158097617Y-91176329D01*
X158116830Y-91162079D01*
X158137347Y-91149782D01*
X158158971Y-91139554D01*
X158181493Y-91131496D01*
X158204697Y-91125684D01*
X158228358Y-91122174D01*
X158252250Y-91121000D01*
X158739750Y-91121000D01*
X158763642Y-91122174D01*
X158763642Y-91122174D01*
G37*
D12*
X158496000Y-91821000D03*
D16*
X158816000Y-107482000D03*
X159766000Y-107482000D03*
X160716000Y-107482000D03*
X160716000Y-104862000D03*
X158816000Y-104862000D03*
D17*
X154559000Y-108204000D03*
X165989000Y-107188000D03*
X154432000Y-102616000D03*
X161925000Y-106299000D03*
D18*
X154686000Y-107109500D02*
X154686000Y-108077000D01*
X154686000Y-108077000D02*
X154559000Y-108204000D01*
X164338000Y-106982500D02*
X165783500Y-106982500D01*
X165783500Y-106982500D02*
X165989000Y-107188000D01*
X155575000Y-101887000D02*
X155161000Y-101887000D01*
X155161000Y-101887000D02*
X154432000Y-102616000D01*
X160089000Y-106299000D02*
X161925000Y-106299000D01*
X159766000Y-107482000D02*
X159766000Y-106622000D01*
X159766000Y-106622000D02*
X160089000Y-106299000D01*
X154129081Y-99568000D02*
X152927000Y-99568000D01*
X156821000Y-99568000D02*
X154129081Y-99568000D01*
X158115000Y-100862000D02*
X156821000Y-99568000D01*
X158115000Y-101887000D02*
X158115000Y-100862000D01*
X155575000Y-78232000D02*
X155575000Y-96487000D01*
X159131000Y-74676000D02*
X155575000Y-78232000D01*
X159385000Y-76962000D02*
X161671000Y-74676000D01*
X159385000Y-96487000D02*
X159385000Y-76962000D01*
X152956500Y-105234500D02*
X151130000Y-107061000D01*
X154686000Y-105234500D02*
X152956500Y-105234500D01*
X155242237Y-105790737D02*
X154686000Y-105234500D01*
X157868501Y-108417001D02*
X155242237Y-105790737D01*
X160640999Y-108417001D02*
X157868501Y-108417001D01*
X160716000Y-108342000D02*
X160640999Y-108417001D01*
X160716000Y-107482000D02*
X160716000Y-108342000D01*
X156845000Y-92045000D02*
X156621000Y-91821000D01*
X156845000Y-96487000D02*
X156845000Y-92045000D01*
X158115000Y-92202000D02*
X158496000Y-91821000D01*
X158115000Y-96487000D02*
X158115000Y-92202000D01*
X160716000Y-105147000D02*
X160716000Y-104862000D01*
X160141000Y-105722000D02*
X160716000Y-105147000D01*
X159716000Y-105722000D02*
X160141000Y-105722000D01*
X158816000Y-106622000D02*
X159716000Y-105722000D01*
X158816000Y-107482000D02*
X158816000Y-106622000D01*
X156845000Y-102362000D02*
X156845000Y-101887000D01*
X157470001Y-102987001D02*
X156845000Y-102362000D01*
X159126001Y-102987001D02*
X157470001Y-102987001D01*
X160716000Y-104577000D02*
X159126001Y-102987001D01*
X160716000Y-104862000D02*
X160716000Y-104577000D01*
D19*
G36*
X165923210Y-71941072D02*
G01*
X166226413Y-72032614D01*
X166506064Y-72181307D01*
X166751505Y-72381484D01*
X166953391Y-72625521D01*
X167104031Y-72904125D01*
X167197690Y-73206688D01*
X167234000Y-73552158D01*
X167234001Y-107536711D01*
X167199928Y-107884209D01*
X167108384Y-108187417D01*
X166959693Y-108467063D01*
X166759516Y-108712505D01*
X166515476Y-108914392D01*
X166236875Y-109065031D01*
X165934313Y-109158690D01*
X165588842Y-109195000D01*
X154871100Y-109195000D01*
X155049256Y-109121205D01*
X155218774Y-109007937D01*
X155362937Y-108863774D01*
X155476205Y-108694256D01*
X155554226Y-108505898D01*
X155594000Y-108305939D01*
X155594000Y-108106857D01*
X155632164Y-108086458D01*
X155765792Y-107976792D01*
X155875458Y-107843164D01*
X155956947Y-107690709D01*
X155982656Y-107605958D01*
X157304702Y-108928004D01*
X157328500Y-108957002D01*
X157444225Y-109051975D01*
X157576254Y-109122547D01*
X157719515Y-109166004D01*
X157831168Y-109177001D01*
X157831177Y-109177001D01*
X157868500Y-109180677D01*
X157905823Y-109177001D01*
X160603677Y-109177001D01*
X160640999Y-109180677D01*
X160678321Y-109177001D01*
X160678332Y-109177001D01*
X160789985Y-109166004D01*
X160933246Y-109122547D01*
X161065275Y-109051975D01*
X161181000Y-108957002D01*
X161204801Y-108928001D01*
X161227001Y-108905801D01*
X161256001Y-108882001D01*
X161350974Y-108766276D01*
X161421546Y-108634247D01*
X161434911Y-108590189D01*
X161492185Y-108543185D01*
X161571537Y-108446494D01*
X161630502Y-108336180D01*
X161666812Y-108216482D01*
X161679072Y-108092000D01*
X161679072Y-107305359D01*
X161823061Y-107334000D01*
X162026939Y-107334000D01*
X162226898Y-107294226D01*
X162415256Y-107216205D01*
X162584774Y-107102937D01*
X162728937Y-106958774D01*
X162842205Y-106789256D01*
X162920226Y-106600898D01*
X162960000Y-106400939D01*
X162960000Y-106197061D01*
X162920226Y-105997102D01*
X162842205Y-105808744D01*
X162728937Y-105639226D01*
X162684711Y-105595000D01*
X162999928Y-105595000D01*
X163012188Y-105719482D01*
X163048498Y-105839180D01*
X163107463Y-105949494D01*
X163186815Y-106046185D01*
X163264564Y-106109992D01*
X163258208Y-106115208D01*
X163148542Y-106248836D01*
X163067053Y-106401291D01*
X163016872Y-106566715D01*
X162999928Y-106738750D01*
X162999928Y-107226250D01*
X163016872Y-107398285D01*
X163067053Y-107563709D01*
X163148542Y-107716164D01*
X163258208Y-107849792D01*
X163391836Y-107959458D01*
X163544291Y-108040947D01*
X163709715Y-108091128D01*
X163881750Y-108108072D01*
X164794250Y-108108072D01*
X164966285Y-108091128D01*
X165131709Y-108040947D01*
X165284164Y-107959458D01*
X165291075Y-107953786D01*
X165329226Y-107991937D01*
X165498744Y-108105205D01*
X165687102Y-108183226D01*
X165887061Y-108223000D01*
X166090939Y-108223000D01*
X166290898Y-108183226D01*
X166479256Y-108105205D01*
X166648774Y-107991937D01*
X166792937Y-107847774D01*
X166906205Y-107678256D01*
X166984226Y-107489898D01*
X167024000Y-107289939D01*
X167024000Y-107086061D01*
X166984226Y-106886102D01*
X166906205Y-106697744D01*
X166792937Y-106528226D01*
X166648774Y-106384063D01*
X166479256Y-106270795D01*
X166290898Y-106192774D01*
X166090939Y-106153000D01*
X165887061Y-106153000D01*
X165687102Y-106192774D01*
X165615338Y-106222500D01*
X165505845Y-106222500D01*
X165417792Y-106115208D01*
X165411436Y-106109992D01*
X165489185Y-106046185D01*
X165568537Y-105949494D01*
X165627502Y-105839180D01*
X165663812Y-105719482D01*
X165676072Y-105595000D01*
X165673000Y-105393250D01*
X165514250Y-105234500D01*
X164465000Y-105234500D01*
X164465000Y-105254500D01*
X164211000Y-105254500D01*
X164211000Y-105234500D01*
X163161750Y-105234500D01*
X163003000Y-105393250D01*
X162999928Y-105595000D01*
X162684711Y-105595000D01*
X162584774Y-105495063D01*
X162415256Y-105381795D01*
X162226898Y-105303774D01*
X162026939Y-105264000D01*
X161823061Y-105264000D01*
X161679072Y-105292641D01*
X161679072Y-104620000D01*
X162999928Y-104620000D01*
X163003000Y-104821750D01*
X163161750Y-104980500D01*
X164211000Y-104980500D01*
X164211000Y-104143750D01*
X164465000Y-104143750D01*
X164465000Y-104980500D01*
X165514250Y-104980500D01*
X165673000Y-104821750D01*
X165676072Y-104620000D01*
X165663812Y-104495518D01*
X165627502Y-104375820D01*
X165568537Y-104265506D01*
X165489185Y-104168815D01*
X165392494Y-104089463D01*
X165282180Y-104030498D01*
X165162482Y-103994188D01*
X165038000Y-103981928D01*
X164623750Y-103985000D01*
X164465000Y-104143750D01*
X164211000Y-104143750D01*
X164052250Y-103985000D01*
X163638000Y-103981928D01*
X163513518Y-103994188D01*
X163393820Y-104030498D01*
X163283506Y-104089463D01*
X163186815Y-104168815D01*
X163107463Y-104265506D01*
X163048498Y-104375820D01*
X163012188Y-104495518D01*
X162999928Y-104620000D01*
X161679072Y-104620000D01*
X161679072Y-104252000D01*
X161666812Y-104127518D01*
X161630502Y-104007820D01*
X161571537Y-103897506D01*
X161492185Y-103800815D01*
X161395494Y-103721463D01*
X161285180Y-103662498D01*
X161165482Y-103626188D01*
X161041000Y-103613928D01*
X160827730Y-103613928D01*
X160220678Y-103006876D01*
X160274502Y-102906180D01*
X160310812Y-102786482D01*
X160323072Y-102662000D01*
X160321835Y-102464890D01*
X161245524Y-102464890D01*
X161290175Y-102612099D01*
X161415359Y-102874920D01*
X161589412Y-103108269D01*
X161805645Y-103303178D01*
X162055748Y-103452157D01*
X162330109Y-103549481D01*
X162560000Y-103428814D01*
X162560000Y-102235000D01*
X162814000Y-102235000D01*
X162814000Y-103428814D01*
X163043891Y-103549481D01*
X163318252Y-103452157D01*
X163568355Y-103303178D01*
X163784588Y-103108269D01*
X163958641Y-102874920D01*
X164083825Y-102612099D01*
X164128476Y-102464890D01*
X164007155Y-102235000D01*
X162814000Y-102235000D01*
X162560000Y-102235000D01*
X161366845Y-102235000D01*
X161245524Y-102464890D01*
X160321835Y-102464890D01*
X160320000Y-102172750D01*
X160161250Y-102014000D01*
X159512000Y-102014000D01*
X159512000Y-102034000D01*
X159258000Y-102034000D01*
X159258000Y-102014000D01*
X159238000Y-102014000D01*
X159238000Y-101760000D01*
X159258000Y-101760000D01*
X159258000Y-100635750D01*
X159512000Y-100635750D01*
X159512000Y-101760000D01*
X160161250Y-101760000D01*
X160320000Y-101601250D01*
X160323072Y-101112000D01*
X160310812Y-100987518D01*
X160274502Y-100867820D01*
X160215537Y-100757506D01*
X160136185Y-100660815D01*
X160039494Y-100581463D01*
X159929180Y-100522498D01*
X159809482Y-100486188D01*
X159685000Y-100473928D01*
X159670750Y-100477000D01*
X159512000Y-100635750D01*
X159258000Y-100635750D01*
X159099250Y-100477000D01*
X159085000Y-100473928D01*
X158960518Y-100486188D01*
X158840820Y-100522498D01*
X158805406Y-100541428D01*
X158749974Y-100437724D01*
X158655001Y-100321999D01*
X158626003Y-100298201D01*
X157384804Y-99057003D01*
X157361001Y-99027999D01*
X157245276Y-98933026D01*
X157113247Y-98862454D01*
X156969986Y-98818997D01*
X156858333Y-98808000D01*
X156858322Y-98808000D01*
X156821000Y-98804324D01*
X156783678Y-98808000D01*
X154204595Y-98808000D01*
X154167706Y-98738986D01*
X153982134Y-98512866D01*
X153756014Y-98327294D01*
X153701209Y-98298000D01*
X153756014Y-98268706D01*
X153982134Y-98083134D01*
X154167706Y-97857014D01*
X154305599Y-97599034D01*
X154390513Y-97319111D01*
X154419185Y-97028000D01*
X154390513Y-96736889D01*
X154305599Y-96456966D01*
X154167706Y-96198986D01*
X153982134Y-95972866D01*
X153756014Y-95787294D01*
X153701209Y-95758000D01*
X153756014Y-95728706D01*
X153982134Y-95543134D01*
X154167706Y-95317014D01*
X154305599Y-95059034D01*
X154390513Y-94779111D01*
X154419185Y-94488000D01*
X154390513Y-94196889D01*
X154305599Y-93916966D01*
X154167706Y-93658986D01*
X153982134Y-93432866D01*
X153756014Y-93247294D01*
X153701209Y-93218000D01*
X153756014Y-93188706D01*
X153982134Y-93003134D01*
X154167706Y-92777014D01*
X154305599Y-92519034D01*
X154390513Y-92239111D01*
X154419185Y-91948000D01*
X154390513Y-91656889D01*
X154305599Y-91376966D01*
X154167706Y-91118986D01*
X153982134Y-90892866D01*
X153756014Y-90707294D01*
X153498034Y-90569401D01*
X153218111Y-90484487D01*
X152999950Y-90463000D01*
X152854050Y-90463000D01*
X152635889Y-90484487D01*
X152355966Y-90569401D01*
X152097986Y-90707294D01*
X151871866Y-90892866D01*
X151686294Y-91118986D01*
X151548401Y-91376966D01*
X151463487Y-91656889D01*
X151434815Y-91948000D01*
X151463487Y-92239111D01*
X151548401Y-92519034D01*
X151686294Y-92777014D01*
X151871866Y-93003134D01*
X152097986Y-93188706D01*
X152152791Y-93218000D01*
X152097986Y-93247294D01*
X151871866Y-93432866D01*
X151686294Y-93658986D01*
X151548401Y-93916966D01*
X151463487Y-94196889D01*
X151434815Y-94488000D01*
X151463487Y-94779111D01*
X151548401Y-95059034D01*
X151686294Y-95317014D01*
X151871866Y-95543134D01*
X152097986Y-95728706D01*
X152152791Y-95758000D01*
X152097986Y-95787294D01*
X151871866Y-95972866D01*
X151686294Y-96198986D01*
X151548401Y-96456966D01*
X151463487Y-96736889D01*
X151434815Y-97028000D01*
X151463487Y-97319111D01*
X151548401Y-97599034D01*
X151686294Y-97857014D01*
X151871866Y-98083134D01*
X152097986Y-98268706D01*
X152152791Y-98298000D01*
X152097986Y-98327294D01*
X151871866Y-98512866D01*
X151686294Y-98738986D01*
X151548401Y-98996966D01*
X151463487Y-99276889D01*
X151434815Y-99568000D01*
X151463487Y-99859111D01*
X151548401Y-100139034D01*
X151686294Y-100397014D01*
X151871866Y-100623134D01*
X152097986Y-100808706D01*
X152355966Y-100946599D01*
X152635889Y-101031513D01*
X152854050Y-101053000D01*
X152999950Y-101053000D01*
X153218111Y-101031513D01*
X153498034Y-100946599D01*
X153756014Y-100808706D01*
X153982134Y-100623134D01*
X154167706Y-100397014D01*
X154204595Y-100328000D01*
X156506199Y-100328000D01*
X156652127Y-100473928D01*
X156545000Y-100473928D01*
X156420518Y-100486188D01*
X156300820Y-100522498D01*
X156210000Y-100571043D01*
X156119180Y-100522498D01*
X155999482Y-100486188D01*
X155875000Y-100473928D01*
X155275000Y-100473928D01*
X155150518Y-100486188D01*
X155030820Y-100522498D01*
X154920506Y-100581463D01*
X154823815Y-100660815D01*
X154744463Y-100757506D01*
X154685498Y-100867820D01*
X154649188Y-100987518D01*
X154636928Y-101112000D01*
X154636928Y-101333926D01*
X154620999Y-101346999D01*
X154597201Y-101375998D01*
X154392198Y-101581000D01*
X154330061Y-101581000D01*
X154130102Y-101620774D01*
X153941744Y-101698795D01*
X153772226Y-101812063D01*
X153628063Y-101956226D01*
X153514795Y-102125744D01*
X153436774Y-102314102D01*
X153397000Y-102514061D01*
X153397000Y-102717939D01*
X153436774Y-102917898D01*
X153514795Y-103106256D01*
X153628063Y-103275774D01*
X153772226Y-103419937D01*
X153941744Y-103533205D01*
X154130102Y-103611226D01*
X154330061Y-103651000D01*
X154533939Y-103651000D01*
X154733898Y-103611226D01*
X154922256Y-103533205D01*
X155091774Y-103419937D01*
X155217320Y-103294391D01*
X155275000Y-103300072D01*
X155875000Y-103300072D01*
X155999482Y-103287812D01*
X156119180Y-103251502D01*
X156210000Y-103202957D01*
X156300820Y-103251502D01*
X156420518Y-103287812D01*
X156545000Y-103300072D01*
X156708270Y-103300072D01*
X156906201Y-103498003D01*
X156930000Y-103527002D01*
X156958998Y-103550800D01*
X157045724Y-103621975D01*
X157100026Y-103651000D01*
X157177754Y-103692547D01*
X157321015Y-103736004D01*
X157432668Y-103747001D01*
X157432678Y-103747001D01*
X157470001Y-103750677D01*
X157507324Y-103747001D01*
X158105388Y-103747001D01*
X158039815Y-103800815D01*
X157960463Y-103897506D01*
X157901498Y-104007820D01*
X157865188Y-104127518D01*
X157852928Y-104252000D01*
X157856000Y-104576250D01*
X158014750Y-104735000D01*
X158689000Y-104735000D01*
X158689000Y-104715000D01*
X158943000Y-104715000D01*
X158943000Y-104735000D01*
X158963000Y-104735000D01*
X158963000Y-104989000D01*
X158943000Y-104989000D01*
X158943000Y-105009000D01*
X158689000Y-105009000D01*
X158689000Y-104989000D01*
X158014750Y-104989000D01*
X157856000Y-105147750D01*
X157852928Y-105472000D01*
X157865188Y-105596482D01*
X157901498Y-105716180D01*
X157960463Y-105826494D01*
X158039815Y-105923185D01*
X158136506Y-106002537D01*
X158246820Y-106061502D01*
X158286360Y-106073496D01*
X158276000Y-106081999D01*
X158252202Y-106110997D01*
X158252201Y-106110998D01*
X158181026Y-106197724D01*
X158110454Y-106329754D01*
X158097090Y-106373811D01*
X158039815Y-106420815D01*
X157960463Y-106517506D01*
X157901498Y-106627820D01*
X157865188Y-106747518D01*
X157852928Y-106872000D01*
X157852928Y-107326626D01*
X156022322Y-105496021D01*
X156024072Y-105478250D01*
X156024072Y-104990750D01*
X156007128Y-104818715D01*
X155956947Y-104653291D01*
X155875458Y-104500836D01*
X155765792Y-104367208D01*
X155632164Y-104257542D01*
X155479709Y-104176053D01*
X155314285Y-104125872D01*
X155142250Y-104108928D01*
X154229750Y-104108928D01*
X154057715Y-104125872D01*
X153892291Y-104176053D01*
X153739836Y-104257542D01*
X153606208Y-104367208D01*
X153518155Y-104474500D01*
X152993822Y-104474500D01*
X152956499Y-104470824D01*
X152919176Y-104474500D01*
X152919167Y-104474500D01*
X152807514Y-104485497D01*
X152664253Y-104528954D01*
X152532223Y-104599526D01*
X152507276Y-104620000D01*
X152463851Y-104655639D01*
X152455812Y-104574018D01*
X152419502Y-104454320D01*
X152360537Y-104344006D01*
X152281185Y-104247315D01*
X152184494Y-104167963D01*
X152074180Y-104108998D01*
X151954482Y-104072688D01*
X151830000Y-104060428D01*
X151415750Y-104063500D01*
X151257000Y-104222250D01*
X151257000Y-105059000D01*
X151277000Y-105059000D01*
X151277000Y-105313000D01*
X151257000Y-105313000D01*
X151257000Y-105333000D01*
X151003000Y-105333000D01*
X151003000Y-105313000D01*
X149953750Y-105313000D01*
X149795000Y-105471750D01*
X149791928Y-105673500D01*
X149804188Y-105797982D01*
X149840498Y-105917680D01*
X149899463Y-106027994D01*
X149978815Y-106124685D01*
X150056564Y-106188492D01*
X150050208Y-106193708D01*
X149940542Y-106327336D01*
X149859053Y-106479791D01*
X149808872Y-106645215D01*
X149791928Y-106817250D01*
X149791928Y-107304750D01*
X149808872Y-107476785D01*
X149859053Y-107642209D01*
X149940542Y-107794664D01*
X150050208Y-107928292D01*
X150183836Y-108037958D01*
X150336291Y-108119447D01*
X150501715Y-108169628D01*
X150673750Y-108186572D01*
X151586250Y-108186572D01*
X151758285Y-108169628D01*
X151923709Y-108119447D01*
X152076164Y-108037958D01*
X152209792Y-107928292D01*
X152319458Y-107794664D01*
X152400947Y-107642209D01*
X152451128Y-107476785D01*
X152468072Y-107304750D01*
X152468072Y-106817250D01*
X152466322Y-106799480D01*
X153271302Y-105994500D01*
X153518155Y-105994500D01*
X153606208Y-106101792D01*
X153691756Y-106172000D01*
X153606208Y-106242208D01*
X153496542Y-106375836D01*
X153415053Y-106528291D01*
X153364872Y-106693715D01*
X153347928Y-106865750D01*
X153347928Y-107353250D01*
X153364872Y-107525285D01*
X153415053Y-107690709D01*
X153496542Y-107843164D01*
X153560094Y-107920602D01*
X153524000Y-108102061D01*
X153524000Y-108305939D01*
X153563774Y-108505898D01*
X153641795Y-108694256D01*
X153755063Y-108863774D01*
X153899226Y-109007937D01*
X154068744Y-109121205D01*
X154246900Y-109195000D01*
X149892279Y-109195000D01*
X149544791Y-109160928D01*
X149241583Y-109069384D01*
X148961937Y-108920693D01*
X148716495Y-108720516D01*
X148514608Y-108476476D01*
X148363969Y-108197875D01*
X148270310Y-107895313D01*
X148234000Y-107549842D01*
X148234000Y-104698500D01*
X149791928Y-104698500D01*
X149795000Y-104900250D01*
X149953750Y-105059000D01*
X151003000Y-105059000D01*
X151003000Y-104222250D01*
X150844250Y-104063500D01*
X150430000Y-104060428D01*
X150305518Y-104072688D01*
X150185820Y-104108998D01*
X150075506Y-104167963D01*
X149978815Y-104247315D01*
X149899463Y-104344006D01*
X149840498Y-104454320D01*
X149804188Y-104574018D01*
X149791928Y-104698500D01*
X148234000Y-104698500D01*
X148234000Y-75776000D01*
X152312928Y-75776000D01*
X152325188Y-75900482D01*
X152361498Y-76020180D01*
X152420463Y-76130494D01*
X152499815Y-76227185D01*
X152596506Y-76306537D01*
X152706820Y-76365502D01*
X152826518Y-76401812D01*
X152951000Y-76414072D01*
X153765250Y-76411000D01*
X153924000Y-76252250D01*
X153924000Y-74803000D01*
X152474750Y-74803000D01*
X152316000Y-74961750D01*
X152312928Y-75776000D01*
X148234000Y-75776000D01*
X148234000Y-73576000D01*
X152312928Y-73576000D01*
X152316000Y-74390250D01*
X152474750Y-74549000D01*
X153924000Y-74549000D01*
X153924000Y-73099750D01*
X154178000Y-73099750D01*
X154178000Y-74549000D01*
X154198000Y-74549000D01*
X154198000Y-74803000D01*
X154178000Y-74803000D01*
X154178000Y-76252250D01*
X154336750Y-76411000D01*
X155151000Y-76414072D01*
X155275482Y-76401812D01*
X155395180Y-76365502D01*
X155505494Y-76306537D01*
X155602185Y-76227185D01*
X155668557Y-76146310D01*
X155769169Y-76213537D01*
X156084919Y-76344325D01*
X156337610Y-76394588D01*
X155064003Y-77668196D01*
X155034999Y-77691999D01*
X154979871Y-77759174D01*
X154940026Y-77807724D01*
X154869455Y-77939753D01*
X154869454Y-77939754D01*
X154825997Y-78083015D01*
X154815000Y-78194668D01*
X154815000Y-78194678D01*
X154811324Y-78232000D01*
X154815000Y-78269322D01*
X154815001Y-95271555D01*
X154744463Y-95357506D01*
X154685498Y-95467820D01*
X154649188Y-95587518D01*
X154636928Y-95712000D01*
X154636928Y-97262000D01*
X154649188Y-97386482D01*
X154685498Y-97506180D01*
X154744463Y-97616494D01*
X154823815Y-97713185D01*
X154920506Y-97792537D01*
X155030820Y-97851502D01*
X155150518Y-97887812D01*
X155275000Y-97900072D01*
X155875000Y-97900072D01*
X155999482Y-97887812D01*
X156119180Y-97851502D01*
X156210000Y-97802957D01*
X156300820Y-97851502D01*
X156420518Y-97887812D01*
X156545000Y-97900072D01*
X157145000Y-97900072D01*
X157269482Y-97887812D01*
X157389180Y-97851502D01*
X157480000Y-97802957D01*
X157570820Y-97851502D01*
X157690518Y-97887812D01*
X157815000Y-97900072D01*
X158415000Y-97900072D01*
X158539482Y-97887812D01*
X158659180Y-97851502D01*
X158750000Y-97802957D01*
X158840820Y-97851502D01*
X158960518Y-97887812D01*
X159085000Y-97900072D01*
X159685000Y-97900072D01*
X159809482Y-97887812D01*
X159929180Y-97851502D01*
X160039494Y-97792537D01*
X160136185Y-97713185D01*
X160215537Y-97616494D01*
X160274502Y-97506180D01*
X160310812Y-97386482D01*
X160323072Y-97262000D01*
X160323072Y-95712000D01*
X160310812Y-95587518D01*
X160274502Y-95467820D01*
X160215537Y-95357506D01*
X160145000Y-95271556D01*
X160145000Y-91948000D01*
X161194815Y-91948000D01*
X161223487Y-92239111D01*
X161308401Y-92519034D01*
X161446294Y-92777014D01*
X161631866Y-93003134D01*
X161857986Y-93188706D01*
X161912791Y-93218000D01*
X161857986Y-93247294D01*
X161631866Y-93432866D01*
X161446294Y-93658986D01*
X161308401Y-93916966D01*
X161223487Y-94196889D01*
X161194815Y-94488000D01*
X161223487Y-94779111D01*
X161308401Y-95059034D01*
X161446294Y-95317014D01*
X161631866Y-95543134D01*
X161857986Y-95728706D01*
X161912791Y-95758000D01*
X161857986Y-95787294D01*
X161631866Y-95972866D01*
X161446294Y-96198986D01*
X161308401Y-96456966D01*
X161223487Y-96736889D01*
X161194815Y-97028000D01*
X161223487Y-97319111D01*
X161308401Y-97599034D01*
X161446294Y-97857014D01*
X161631866Y-98083134D01*
X161857986Y-98268706D01*
X161912791Y-98298000D01*
X161857986Y-98327294D01*
X161631866Y-98512866D01*
X161446294Y-98738986D01*
X161308401Y-98996966D01*
X161223487Y-99276889D01*
X161194815Y-99568000D01*
X161223487Y-99859111D01*
X161308401Y-100139034D01*
X161446294Y-100397014D01*
X161631866Y-100623134D01*
X161857986Y-100808706D01*
X161922523Y-100843201D01*
X161805645Y-100912822D01*
X161589412Y-101107731D01*
X161415359Y-101341080D01*
X161290175Y-101603901D01*
X161245524Y-101751110D01*
X161366845Y-101981000D01*
X162560000Y-101981000D01*
X162560000Y-101961000D01*
X162814000Y-101961000D01*
X162814000Y-101981000D01*
X164007155Y-101981000D01*
X164128476Y-101751110D01*
X164083825Y-101603901D01*
X163958641Y-101341080D01*
X163784588Y-101107731D01*
X163568355Y-100912822D01*
X163451477Y-100843201D01*
X163516014Y-100808706D01*
X163742134Y-100623134D01*
X163927706Y-100397014D01*
X164065599Y-100139034D01*
X164150513Y-99859111D01*
X164179185Y-99568000D01*
X164150513Y-99276889D01*
X164065599Y-98996966D01*
X163927706Y-98738986D01*
X163742134Y-98512866D01*
X163516014Y-98327294D01*
X163461209Y-98298000D01*
X163516014Y-98268706D01*
X163742134Y-98083134D01*
X163927706Y-97857014D01*
X164065599Y-97599034D01*
X164150513Y-97319111D01*
X164179185Y-97028000D01*
X164150513Y-96736889D01*
X164065599Y-96456966D01*
X163927706Y-96198986D01*
X163742134Y-95972866D01*
X163516014Y-95787294D01*
X163461209Y-95758000D01*
X163516014Y-95728706D01*
X163742134Y-95543134D01*
X163927706Y-95317014D01*
X164065599Y-95059034D01*
X164150513Y-94779111D01*
X164179185Y-94488000D01*
X164150513Y-94196889D01*
X164065599Y-93916966D01*
X163927706Y-93658986D01*
X163742134Y-93432866D01*
X163516014Y-93247294D01*
X163461209Y-93218000D01*
X163516014Y-93188706D01*
X163742134Y-93003134D01*
X163927706Y-92777014D01*
X164065599Y-92519034D01*
X164150513Y-92239111D01*
X164179185Y-91948000D01*
X164150513Y-91656889D01*
X164065599Y-91376966D01*
X163927706Y-91118986D01*
X163742134Y-90892866D01*
X163516014Y-90707294D01*
X163258034Y-90569401D01*
X162978111Y-90484487D01*
X162759950Y-90463000D01*
X162614050Y-90463000D01*
X162395889Y-90484487D01*
X162115966Y-90569401D01*
X161857986Y-90707294D01*
X161631866Y-90892866D01*
X161446294Y-91118986D01*
X161308401Y-91376966D01*
X161223487Y-91656889D01*
X161194815Y-91948000D01*
X160145000Y-91948000D01*
X160145000Y-77276801D01*
X161103088Y-76318714D01*
X161164919Y-76344325D01*
X161500117Y-76411000D01*
X161841883Y-76411000D01*
X162177081Y-76344325D01*
X162492831Y-76213537D01*
X162776998Y-76023663D01*
X163018663Y-75781998D01*
X163208537Y-75497831D01*
X163339325Y-75182081D01*
X163406000Y-74846883D01*
X163406000Y-74505117D01*
X163339325Y-74169919D01*
X163208537Y-73854169D01*
X163018663Y-73570002D01*
X162776998Y-73328337D01*
X162492831Y-73138463D01*
X162177081Y-73007675D01*
X161841883Y-72941000D01*
X161500117Y-72941000D01*
X161164919Y-73007675D01*
X160849169Y-73138463D01*
X160565002Y-73328337D01*
X160401000Y-73492339D01*
X160236998Y-73328337D01*
X159952831Y-73138463D01*
X159637081Y-73007675D01*
X159301883Y-72941000D01*
X158960117Y-72941000D01*
X158624919Y-73007675D01*
X158309169Y-73138463D01*
X158025002Y-73328337D01*
X157861000Y-73492339D01*
X157696998Y-73328337D01*
X157412831Y-73138463D01*
X157097081Y-73007675D01*
X156761883Y-72941000D01*
X156420117Y-72941000D01*
X156084919Y-73007675D01*
X155769169Y-73138463D01*
X155668557Y-73205690D01*
X155602185Y-73124815D01*
X155505494Y-73045463D01*
X155395180Y-72986498D01*
X155275482Y-72950188D01*
X155151000Y-72937928D01*
X154336750Y-72941000D01*
X154178000Y-73099750D01*
X153924000Y-73099750D01*
X153765250Y-72941000D01*
X152951000Y-72937928D01*
X152826518Y-72950188D01*
X152706820Y-72986498D01*
X152596506Y-73045463D01*
X152499815Y-73124815D01*
X152420463Y-73221506D01*
X152361498Y-73331820D01*
X152325188Y-73451518D01*
X152312928Y-73576000D01*
X148234000Y-73576000D01*
X148234000Y-73565279D01*
X148268072Y-73217790D01*
X148359614Y-72914587D01*
X148508307Y-72634936D01*
X148708484Y-72389495D01*
X148952521Y-72187609D01*
X149231125Y-72036969D01*
X149533688Y-71943310D01*
X149879158Y-71907000D01*
X165575721Y-71907000D01*
X165923210Y-71941072D01*
X165923210Y-71941072D01*
G37*
X165923210Y-71941072D02*
X166226413Y-72032614D01*
X166506064Y-72181307D01*
X166751505Y-72381484D01*
X166953391Y-72625521D01*
X167104031Y-72904125D01*
X167197690Y-73206688D01*
X167234000Y-73552158D01*
X167234001Y-107536711D01*
X167199928Y-107884209D01*
X167108384Y-108187417D01*
X166959693Y-108467063D01*
X166759516Y-108712505D01*
X166515476Y-108914392D01*
X166236875Y-109065031D01*
X165934313Y-109158690D01*
X165588842Y-109195000D01*
X154871100Y-109195000D01*
X155049256Y-109121205D01*
X155218774Y-109007937D01*
X155362937Y-108863774D01*
X155476205Y-108694256D01*
X155554226Y-108505898D01*
X155594000Y-108305939D01*
X155594000Y-108106857D01*
X155632164Y-108086458D01*
X155765792Y-107976792D01*
X155875458Y-107843164D01*
X155956947Y-107690709D01*
X155982656Y-107605958D01*
X157304702Y-108928004D01*
X157328500Y-108957002D01*
X157444225Y-109051975D01*
X157576254Y-109122547D01*
X157719515Y-109166004D01*
X157831168Y-109177001D01*
X157831177Y-109177001D01*
X157868500Y-109180677D01*
X157905823Y-109177001D01*
X160603677Y-109177001D01*
X160640999Y-109180677D01*
X160678321Y-109177001D01*
X160678332Y-109177001D01*
X160789985Y-109166004D01*
X160933246Y-109122547D01*
X161065275Y-109051975D01*
X161181000Y-108957002D01*
X161204801Y-108928001D01*
X161227001Y-108905801D01*
X161256001Y-108882001D01*
X161350974Y-108766276D01*
X161421546Y-108634247D01*
X161434911Y-108590189D01*
X161492185Y-108543185D01*
X161571537Y-108446494D01*
X161630502Y-108336180D01*
X161666812Y-108216482D01*
X161679072Y-108092000D01*
X161679072Y-107305359D01*
X161823061Y-107334000D01*
X162026939Y-107334000D01*
X162226898Y-107294226D01*
X162415256Y-107216205D01*
X162584774Y-107102937D01*
X162728937Y-106958774D01*
X162842205Y-106789256D01*
X162920226Y-106600898D01*
X162960000Y-106400939D01*
X162960000Y-106197061D01*
X162920226Y-105997102D01*
X162842205Y-105808744D01*
X162728937Y-105639226D01*
X162684711Y-105595000D01*
X162999928Y-105595000D01*
X163012188Y-105719482D01*
X163048498Y-105839180D01*
X163107463Y-105949494D01*
X163186815Y-106046185D01*
X163264564Y-106109992D01*
X163258208Y-106115208D01*
X163148542Y-106248836D01*
X163067053Y-106401291D01*
X163016872Y-106566715D01*
X162999928Y-106738750D01*
X162999928Y-107226250D01*
X163016872Y-107398285D01*
X163067053Y-107563709D01*
X163148542Y-107716164D01*
X163258208Y-107849792D01*
X163391836Y-107959458D01*
X163544291Y-108040947D01*
X163709715Y-108091128D01*
X163881750Y-108108072D01*
X164794250Y-108108072D01*
X164966285Y-108091128D01*
X165131709Y-108040947D01*
X165284164Y-107959458D01*
X165291075Y-107953786D01*
X165329226Y-107991937D01*
X165498744Y-108105205D01*
X165687102Y-108183226D01*
X165887061Y-108223000D01*
X166090939Y-108223000D01*
X166290898Y-108183226D01*
X166479256Y-108105205D01*
X166648774Y-107991937D01*
X166792937Y-107847774D01*
X166906205Y-107678256D01*
X166984226Y-107489898D01*
X167024000Y-107289939D01*
X167024000Y-107086061D01*
X166984226Y-106886102D01*
X166906205Y-106697744D01*
X166792937Y-106528226D01*
X166648774Y-106384063D01*
X166479256Y-106270795D01*
X166290898Y-106192774D01*
X166090939Y-106153000D01*
X165887061Y-106153000D01*
X165687102Y-106192774D01*
X165615338Y-106222500D01*
X165505845Y-106222500D01*
X165417792Y-106115208D01*
X165411436Y-106109992D01*
X165489185Y-106046185D01*
X165568537Y-105949494D01*
X165627502Y-105839180D01*
X165663812Y-105719482D01*
X165676072Y-105595000D01*
X165673000Y-105393250D01*
X165514250Y-105234500D01*
X164465000Y-105234500D01*
X164465000Y-105254500D01*
X164211000Y-105254500D01*
X164211000Y-105234500D01*
X163161750Y-105234500D01*
X163003000Y-105393250D01*
X162999928Y-105595000D01*
X162684711Y-105595000D01*
X162584774Y-105495063D01*
X162415256Y-105381795D01*
X162226898Y-105303774D01*
X162026939Y-105264000D01*
X161823061Y-105264000D01*
X161679072Y-105292641D01*
X161679072Y-104620000D01*
X162999928Y-104620000D01*
X163003000Y-104821750D01*
X163161750Y-104980500D01*
X164211000Y-104980500D01*
X164211000Y-104143750D01*
X164465000Y-104143750D01*
X164465000Y-104980500D01*
X165514250Y-104980500D01*
X165673000Y-104821750D01*
X165676072Y-104620000D01*
X165663812Y-104495518D01*
X165627502Y-104375820D01*
X165568537Y-104265506D01*
X165489185Y-104168815D01*
X165392494Y-104089463D01*
X165282180Y-104030498D01*
X165162482Y-103994188D01*
X165038000Y-103981928D01*
X164623750Y-103985000D01*
X164465000Y-104143750D01*
X164211000Y-104143750D01*
X164052250Y-103985000D01*
X163638000Y-103981928D01*
X163513518Y-103994188D01*
X163393820Y-104030498D01*
X163283506Y-104089463D01*
X163186815Y-104168815D01*
X163107463Y-104265506D01*
X163048498Y-104375820D01*
X163012188Y-104495518D01*
X162999928Y-104620000D01*
X161679072Y-104620000D01*
X161679072Y-104252000D01*
X161666812Y-104127518D01*
X161630502Y-104007820D01*
X161571537Y-103897506D01*
X161492185Y-103800815D01*
X161395494Y-103721463D01*
X161285180Y-103662498D01*
X161165482Y-103626188D01*
X161041000Y-103613928D01*
X160827730Y-103613928D01*
X160220678Y-103006876D01*
X160274502Y-102906180D01*
X160310812Y-102786482D01*
X160323072Y-102662000D01*
X160321835Y-102464890D01*
X161245524Y-102464890D01*
X161290175Y-102612099D01*
X161415359Y-102874920D01*
X161589412Y-103108269D01*
X161805645Y-103303178D01*
X162055748Y-103452157D01*
X162330109Y-103549481D01*
X162560000Y-103428814D01*
X162560000Y-102235000D01*
X162814000Y-102235000D01*
X162814000Y-103428814D01*
X163043891Y-103549481D01*
X163318252Y-103452157D01*
X163568355Y-103303178D01*
X163784588Y-103108269D01*
X163958641Y-102874920D01*
X164083825Y-102612099D01*
X164128476Y-102464890D01*
X164007155Y-102235000D01*
X162814000Y-102235000D01*
X162560000Y-102235000D01*
X161366845Y-102235000D01*
X161245524Y-102464890D01*
X160321835Y-102464890D01*
X160320000Y-102172750D01*
X160161250Y-102014000D01*
X159512000Y-102014000D01*
X159512000Y-102034000D01*
X159258000Y-102034000D01*
X159258000Y-102014000D01*
X159238000Y-102014000D01*
X159238000Y-101760000D01*
X159258000Y-101760000D01*
X159258000Y-100635750D01*
X159512000Y-100635750D01*
X159512000Y-101760000D01*
X160161250Y-101760000D01*
X160320000Y-101601250D01*
X160323072Y-101112000D01*
X160310812Y-100987518D01*
X160274502Y-100867820D01*
X160215537Y-100757506D01*
X160136185Y-100660815D01*
X160039494Y-100581463D01*
X159929180Y-100522498D01*
X159809482Y-100486188D01*
X159685000Y-100473928D01*
X159670750Y-100477000D01*
X159512000Y-100635750D01*
X159258000Y-100635750D01*
X159099250Y-100477000D01*
X159085000Y-100473928D01*
X158960518Y-100486188D01*
X158840820Y-100522498D01*
X158805406Y-100541428D01*
X158749974Y-100437724D01*
X158655001Y-100321999D01*
X158626003Y-100298201D01*
X157384804Y-99057003D01*
X157361001Y-99027999D01*
X157245276Y-98933026D01*
X157113247Y-98862454D01*
X156969986Y-98818997D01*
X156858333Y-98808000D01*
X156858322Y-98808000D01*
X156821000Y-98804324D01*
X156783678Y-98808000D01*
X154204595Y-98808000D01*
X154167706Y-98738986D01*
X153982134Y-98512866D01*
X153756014Y-98327294D01*
X153701209Y-98298000D01*
X153756014Y-98268706D01*
X153982134Y-98083134D01*
X154167706Y-97857014D01*
X154305599Y-97599034D01*
X154390513Y-97319111D01*
X154419185Y-97028000D01*
X154390513Y-96736889D01*
X154305599Y-96456966D01*
X154167706Y-96198986D01*
X153982134Y-95972866D01*
X153756014Y-95787294D01*
X153701209Y-95758000D01*
X153756014Y-95728706D01*
X153982134Y-95543134D01*
X154167706Y-95317014D01*
X154305599Y-95059034D01*
X154390513Y-94779111D01*
X154419185Y-94488000D01*
X154390513Y-94196889D01*
X154305599Y-93916966D01*
X154167706Y-93658986D01*
X153982134Y-93432866D01*
X153756014Y-93247294D01*
X153701209Y-93218000D01*
X153756014Y-93188706D01*
X153982134Y-93003134D01*
X154167706Y-92777014D01*
X154305599Y-92519034D01*
X154390513Y-92239111D01*
X154419185Y-91948000D01*
X154390513Y-91656889D01*
X154305599Y-91376966D01*
X154167706Y-91118986D01*
X153982134Y-90892866D01*
X153756014Y-90707294D01*
X153498034Y-90569401D01*
X153218111Y-90484487D01*
X152999950Y-90463000D01*
X152854050Y-90463000D01*
X152635889Y-90484487D01*
X152355966Y-90569401D01*
X152097986Y-90707294D01*
X151871866Y-90892866D01*
X151686294Y-91118986D01*
X151548401Y-91376966D01*
X151463487Y-91656889D01*
X151434815Y-91948000D01*
X151463487Y-92239111D01*
X151548401Y-92519034D01*
X151686294Y-92777014D01*
X151871866Y-93003134D01*
X152097986Y-93188706D01*
X152152791Y-93218000D01*
X152097986Y-93247294D01*
X151871866Y-93432866D01*
X151686294Y-93658986D01*
X151548401Y-93916966D01*
X151463487Y-94196889D01*
X151434815Y-94488000D01*
X151463487Y-94779111D01*
X151548401Y-95059034D01*
X151686294Y-95317014D01*
X151871866Y-95543134D01*
X152097986Y-95728706D01*
X152152791Y-95758000D01*
X152097986Y-95787294D01*
X151871866Y-95972866D01*
X151686294Y-96198986D01*
X151548401Y-96456966D01*
X151463487Y-96736889D01*
X151434815Y-97028000D01*
X151463487Y-97319111D01*
X151548401Y-97599034D01*
X151686294Y-97857014D01*
X151871866Y-98083134D01*
X152097986Y-98268706D01*
X152152791Y-98298000D01*
X152097986Y-98327294D01*
X151871866Y-98512866D01*
X151686294Y-98738986D01*
X151548401Y-98996966D01*
X151463487Y-99276889D01*
X151434815Y-99568000D01*
X151463487Y-99859111D01*
X151548401Y-100139034D01*
X151686294Y-100397014D01*
X151871866Y-100623134D01*
X152097986Y-100808706D01*
X152355966Y-100946599D01*
X152635889Y-101031513D01*
X152854050Y-101053000D01*
X152999950Y-101053000D01*
X153218111Y-101031513D01*
X153498034Y-100946599D01*
X153756014Y-100808706D01*
X153982134Y-100623134D01*
X154167706Y-100397014D01*
X154204595Y-100328000D01*
X156506199Y-100328000D01*
X156652127Y-100473928D01*
X156545000Y-100473928D01*
X156420518Y-100486188D01*
X156300820Y-100522498D01*
X156210000Y-100571043D01*
X156119180Y-100522498D01*
X155999482Y-100486188D01*
X155875000Y-100473928D01*
X155275000Y-100473928D01*
X155150518Y-100486188D01*
X155030820Y-100522498D01*
X154920506Y-100581463D01*
X154823815Y-100660815D01*
X154744463Y-100757506D01*
X154685498Y-100867820D01*
X154649188Y-100987518D01*
X154636928Y-101112000D01*
X154636928Y-101333926D01*
X154620999Y-101346999D01*
X154597201Y-101375998D01*
X154392198Y-101581000D01*
X154330061Y-101581000D01*
X154130102Y-101620774D01*
X153941744Y-101698795D01*
X153772226Y-101812063D01*
X153628063Y-101956226D01*
X153514795Y-102125744D01*
X153436774Y-102314102D01*
X153397000Y-102514061D01*
X153397000Y-102717939D01*
X153436774Y-102917898D01*
X153514795Y-103106256D01*
X153628063Y-103275774D01*
X153772226Y-103419937D01*
X153941744Y-103533205D01*
X154130102Y-103611226D01*
X154330061Y-103651000D01*
X154533939Y-103651000D01*
X154733898Y-103611226D01*
X154922256Y-103533205D01*
X155091774Y-103419937D01*
X155217320Y-103294391D01*
X155275000Y-103300072D01*
X155875000Y-103300072D01*
X155999482Y-103287812D01*
X156119180Y-103251502D01*
X156210000Y-103202957D01*
X156300820Y-103251502D01*
X156420518Y-103287812D01*
X156545000Y-103300072D01*
X156708270Y-103300072D01*
X156906201Y-103498003D01*
X156930000Y-103527002D01*
X156958998Y-103550800D01*
X157045724Y-103621975D01*
X157100026Y-103651000D01*
X157177754Y-103692547D01*
X157321015Y-103736004D01*
X157432668Y-103747001D01*
X157432678Y-103747001D01*
X157470001Y-103750677D01*
X157507324Y-103747001D01*
X158105388Y-103747001D01*
X158039815Y-103800815D01*
X157960463Y-103897506D01*
X157901498Y-104007820D01*
X157865188Y-104127518D01*
X157852928Y-104252000D01*
X157856000Y-104576250D01*
X158014750Y-104735000D01*
X158689000Y-104735000D01*
X158689000Y-104715000D01*
X158943000Y-104715000D01*
X158943000Y-104735000D01*
X158963000Y-104735000D01*
X158963000Y-104989000D01*
X158943000Y-104989000D01*
X158943000Y-105009000D01*
X158689000Y-105009000D01*
X158689000Y-104989000D01*
X158014750Y-104989000D01*
X157856000Y-105147750D01*
X157852928Y-105472000D01*
X157865188Y-105596482D01*
X157901498Y-105716180D01*
X157960463Y-105826494D01*
X158039815Y-105923185D01*
X158136506Y-106002537D01*
X158246820Y-106061502D01*
X158286360Y-106073496D01*
X158276000Y-106081999D01*
X158252202Y-106110997D01*
X158252201Y-106110998D01*
X158181026Y-106197724D01*
X158110454Y-106329754D01*
X158097090Y-106373811D01*
X158039815Y-106420815D01*
X157960463Y-106517506D01*
X157901498Y-106627820D01*
X157865188Y-106747518D01*
X157852928Y-106872000D01*
X157852928Y-107326626D01*
X156022322Y-105496021D01*
X156024072Y-105478250D01*
X156024072Y-104990750D01*
X156007128Y-104818715D01*
X155956947Y-104653291D01*
X155875458Y-104500836D01*
X155765792Y-104367208D01*
X155632164Y-104257542D01*
X155479709Y-104176053D01*
X155314285Y-104125872D01*
X155142250Y-104108928D01*
X154229750Y-104108928D01*
X154057715Y-104125872D01*
X153892291Y-104176053D01*
X153739836Y-104257542D01*
X153606208Y-104367208D01*
X153518155Y-104474500D01*
X152993822Y-104474500D01*
X152956499Y-104470824D01*
X152919176Y-104474500D01*
X152919167Y-104474500D01*
X152807514Y-104485497D01*
X152664253Y-104528954D01*
X152532223Y-104599526D01*
X152507276Y-104620000D01*
X152463851Y-104655639D01*
X152455812Y-104574018D01*
X152419502Y-104454320D01*
X152360537Y-104344006D01*
X152281185Y-104247315D01*
X152184494Y-104167963D01*
X152074180Y-104108998D01*
X151954482Y-104072688D01*
X151830000Y-104060428D01*
X151415750Y-104063500D01*
X151257000Y-104222250D01*
X151257000Y-105059000D01*
X151277000Y-105059000D01*
X151277000Y-105313000D01*
X151257000Y-105313000D01*
X151257000Y-105333000D01*
X151003000Y-105333000D01*
X151003000Y-105313000D01*
X149953750Y-105313000D01*
X149795000Y-105471750D01*
X149791928Y-105673500D01*
X149804188Y-105797982D01*
X149840498Y-105917680D01*
X149899463Y-106027994D01*
X149978815Y-106124685D01*
X150056564Y-106188492D01*
X150050208Y-106193708D01*
X149940542Y-106327336D01*
X149859053Y-106479791D01*
X149808872Y-106645215D01*
X149791928Y-106817250D01*
X149791928Y-107304750D01*
X149808872Y-107476785D01*
X149859053Y-107642209D01*
X149940542Y-107794664D01*
X150050208Y-107928292D01*
X150183836Y-108037958D01*
X150336291Y-108119447D01*
X150501715Y-108169628D01*
X150673750Y-108186572D01*
X151586250Y-108186572D01*
X151758285Y-108169628D01*
X151923709Y-108119447D01*
X152076164Y-108037958D01*
X152209792Y-107928292D01*
X152319458Y-107794664D01*
X152400947Y-107642209D01*
X152451128Y-107476785D01*
X152468072Y-107304750D01*
X152468072Y-106817250D01*
X152466322Y-106799480D01*
X153271302Y-105994500D01*
X153518155Y-105994500D01*
X153606208Y-106101792D01*
X153691756Y-106172000D01*
X153606208Y-106242208D01*
X153496542Y-106375836D01*
X153415053Y-106528291D01*
X153364872Y-106693715D01*
X153347928Y-106865750D01*
X153347928Y-107353250D01*
X153364872Y-107525285D01*
X153415053Y-107690709D01*
X153496542Y-107843164D01*
X153560094Y-107920602D01*
X153524000Y-108102061D01*
X153524000Y-108305939D01*
X153563774Y-108505898D01*
X153641795Y-108694256D01*
X153755063Y-108863774D01*
X153899226Y-109007937D01*
X154068744Y-109121205D01*
X154246900Y-109195000D01*
X149892279Y-109195000D01*
X149544791Y-109160928D01*
X149241583Y-109069384D01*
X148961937Y-108920693D01*
X148716495Y-108720516D01*
X148514608Y-108476476D01*
X148363969Y-108197875D01*
X148270310Y-107895313D01*
X148234000Y-107549842D01*
X148234000Y-104698500D01*
X149791928Y-104698500D01*
X149795000Y-104900250D01*
X149953750Y-105059000D01*
X151003000Y-105059000D01*
X151003000Y-104222250D01*
X150844250Y-104063500D01*
X150430000Y-104060428D01*
X150305518Y-104072688D01*
X150185820Y-104108998D01*
X150075506Y-104167963D01*
X149978815Y-104247315D01*
X149899463Y-104344006D01*
X149840498Y-104454320D01*
X149804188Y-104574018D01*
X149791928Y-104698500D01*
X148234000Y-104698500D01*
X148234000Y-75776000D01*
X152312928Y-75776000D01*
X152325188Y-75900482D01*
X152361498Y-76020180D01*
X152420463Y-76130494D01*
X152499815Y-76227185D01*
X152596506Y-76306537D01*
X152706820Y-76365502D01*
X152826518Y-76401812D01*
X152951000Y-76414072D01*
X153765250Y-76411000D01*
X153924000Y-76252250D01*
X153924000Y-74803000D01*
X152474750Y-74803000D01*
X152316000Y-74961750D01*
X152312928Y-75776000D01*
X148234000Y-75776000D01*
X148234000Y-73576000D01*
X152312928Y-73576000D01*
X152316000Y-74390250D01*
X152474750Y-74549000D01*
X153924000Y-74549000D01*
X153924000Y-73099750D01*
X154178000Y-73099750D01*
X154178000Y-74549000D01*
X154198000Y-74549000D01*
X154198000Y-74803000D01*
X154178000Y-74803000D01*
X154178000Y-76252250D01*
X154336750Y-76411000D01*
X155151000Y-76414072D01*
X155275482Y-76401812D01*
X155395180Y-76365502D01*
X155505494Y-76306537D01*
X155602185Y-76227185D01*
X155668557Y-76146310D01*
X155769169Y-76213537D01*
X156084919Y-76344325D01*
X156337610Y-76394588D01*
X155064003Y-77668196D01*
X155034999Y-77691999D01*
X154979871Y-77759174D01*
X154940026Y-77807724D01*
X154869455Y-77939753D01*
X154869454Y-77939754D01*
X154825997Y-78083015D01*
X154815000Y-78194668D01*
X154815000Y-78194678D01*
X154811324Y-78232000D01*
X154815000Y-78269322D01*
X154815001Y-95271555D01*
X154744463Y-95357506D01*
X154685498Y-95467820D01*
X154649188Y-95587518D01*
X154636928Y-95712000D01*
X154636928Y-97262000D01*
X154649188Y-97386482D01*
X154685498Y-97506180D01*
X154744463Y-97616494D01*
X154823815Y-97713185D01*
X154920506Y-97792537D01*
X155030820Y-97851502D01*
X155150518Y-97887812D01*
X155275000Y-97900072D01*
X155875000Y-97900072D01*
X155999482Y-97887812D01*
X156119180Y-97851502D01*
X156210000Y-97802957D01*
X156300820Y-97851502D01*
X156420518Y-97887812D01*
X156545000Y-97900072D01*
X157145000Y-97900072D01*
X157269482Y-97887812D01*
X157389180Y-97851502D01*
X157480000Y-97802957D01*
X157570820Y-97851502D01*
X157690518Y-97887812D01*
X157815000Y-97900072D01*
X158415000Y-97900072D01*
X158539482Y-97887812D01*
X158659180Y-97851502D01*
X158750000Y-97802957D01*
X158840820Y-97851502D01*
X158960518Y-97887812D01*
X159085000Y-97900072D01*
X159685000Y-97900072D01*
X159809482Y-97887812D01*
X159929180Y-97851502D01*
X160039494Y-97792537D01*
X160136185Y-97713185D01*
X160215537Y-97616494D01*
X160274502Y-97506180D01*
X160310812Y-97386482D01*
X160323072Y-97262000D01*
X160323072Y-95712000D01*
X160310812Y-95587518D01*
X160274502Y-95467820D01*
X160215537Y-95357506D01*
X160145000Y-95271556D01*
X160145000Y-91948000D01*
X161194815Y-91948000D01*
X161223487Y-92239111D01*
X161308401Y-92519034D01*
X161446294Y-92777014D01*
X161631866Y-93003134D01*
X161857986Y-93188706D01*
X161912791Y-93218000D01*
X161857986Y-93247294D01*
X161631866Y-93432866D01*
X161446294Y-93658986D01*
X161308401Y-93916966D01*
X161223487Y-94196889D01*
X161194815Y-94488000D01*
X161223487Y-94779111D01*
X161308401Y-95059034D01*
X161446294Y-95317014D01*
X161631866Y-95543134D01*
X161857986Y-95728706D01*
X161912791Y-95758000D01*
X161857986Y-95787294D01*
X161631866Y-95972866D01*
X161446294Y-96198986D01*
X161308401Y-96456966D01*
X161223487Y-96736889D01*
X161194815Y-97028000D01*
X161223487Y-97319111D01*
X161308401Y-97599034D01*
X161446294Y-97857014D01*
X161631866Y-98083134D01*
X161857986Y-98268706D01*
X161912791Y-98298000D01*
X161857986Y-98327294D01*
X161631866Y-98512866D01*
X161446294Y-98738986D01*
X161308401Y-98996966D01*
X161223487Y-99276889D01*
X161194815Y-99568000D01*
X161223487Y-99859111D01*
X161308401Y-100139034D01*
X161446294Y-100397014D01*
X161631866Y-100623134D01*
X161857986Y-100808706D01*
X161922523Y-100843201D01*
X161805645Y-100912822D01*
X161589412Y-101107731D01*
X161415359Y-101341080D01*
X161290175Y-101603901D01*
X161245524Y-101751110D01*
X161366845Y-101981000D01*
X162560000Y-101981000D01*
X162560000Y-101961000D01*
X162814000Y-101961000D01*
X162814000Y-101981000D01*
X164007155Y-101981000D01*
X164128476Y-101751110D01*
X164083825Y-101603901D01*
X163958641Y-101341080D01*
X163784588Y-101107731D01*
X163568355Y-100912822D01*
X163451477Y-100843201D01*
X163516014Y-100808706D01*
X163742134Y-100623134D01*
X163927706Y-100397014D01*
X164065599Y-100139034D01*
X164150513Y-99859111D01*
X164179185Y-99568000D01*
X164150513Y-99276889D01*
X164065599Y-98996966D01*
X163927706Y-98738986D01*
X163742134Y-98512866D01*
X163516014Y-98327294D01*
X163461209Y-98298000D01*
X163516014Y-98268706D01*
X163742134Y-98083134D01*
X163927706Y-97857014D01*
X164065599Y-97599034D01*
X164150513Y-97319111D01*
X164179185Y-97028000D01*
X164150513Y-96736889D01*
X164065599Y-96456966D01*
X163927706Y-96198986D01*
X163742134Y-95972866D01*
X163516014Y-95787294D01*
X163461209Y-95758000D01*
X163516014Y-95728706D01*
X163742134Y-95543134D01*
X163927706Y-95317014D01*
X164065599Y-95059034D01*
X164150513Y-94779111D01*
X164179185Y-94488000D01*
X164150513Y-94196889D01*
X164065599Y-93916966D01*
X163927706Y-93658986D01*
X163742134Y-93432866D01*
X163516014Y-93247294D01*
X163461209Y-93218000D01*
X163516014Y-93188706D01*
X163742134Y-93003134D01*
X163927706Y-92777014D01*
X164065599Y-92519034D01*
X164150513Y-92239111D01*
X164179185Y-91948000D01*
X164150513Y-91656889D01*
X164065599Y-91376966D01*
X163927706Y-91118986D01*
X163742134Y-90892866D01*
X163516014Y-90707294D01*
X163258034Y-90569401D01*
X162978111Y-90484487D01*
X162759950Y-90463000D01*
X162614050Y-90463000D01*
X162395889Y-90484487D01*
X162115966Y-90569401D01*
X161857986Y-90707294D01*
X161631866Y-90892866D01*
X161446294Y-91118986D01*
X161308401Y-91376966D01*
X161223487Y-91656889D01*
X161194815Y-91948000D01*
X160145000Y-91948000D01*
X160145000Y-77276801D01*
X161103088Y-76318714D01*
X161164919Y-76344325D01*
X161500117Y-76411000D01*
X161841883Y-76411000D01*
X162177081Y-76344325D01*
X162492831Y-76213537D01*
X162776998Y-76023663D01*
X163018663Y-75781998D01*
X163208537Y-75497831D01*
X163339325Y-75182081D01*
X163406000Y-74846883D01*
X163406000Y-74505117D01*
X163339325Y-74169919D01*
X163208537Y-73854169D01*
X163018663Y-73570002D01*
X162776998Y-73328337D01*
X162492831Y-73138463D01*
X162177081Y-73007675D01*
X161841883Y-72941000D01*
X161500117Y-72941000D01*
X161164919Y-73007675D01*
X160849169Y-73138463D01*
X160565002Y-73328337D01*
X160401000Y-73492339D01*
X160236998Y-73328337D01*
X159952831Y-73138463D01*
X159637081Y-73007675D01*
X159301883Y-72941000D01*
X158960117Y-72941000D01*
X158624919Y-73007675D01*
X158309169Y-73138463D01*
X158025002Y-73328337D01*
X157861000Y-73492339D01*
X157696998Y-73328337D01*
X157412831Y-73138463D01*
X157097081Y-73007675D01*
X156761883Y-72941000D01*
X156420117Y-72941000D01*
X156084919Y-73007675D01*
X155769169Y-73138463D01*
X155668557Y-73205690D01*
X155602185Y-73124815D01*
X155505494Y-73045463D01*
X155395180Y-72986498D01*
X155275482Y-72950188D01*
X155151000Y-72937928D01*
X154336750Y-72941000D01*
X154178000Y-73099750D01*
X153924000Y-73099750D01*
X153765250Y-72941000D01*
X152951000Y-72937928D01*
X152826518Y-72950188D01*
X152706820Y-72986498D01*
X152596506Y-73045463D01*
X152499815Y-73124815D01*
X152420463Y-73221506D01*
X152361498Y-73331820D01*
X152325188Y-73451518D01*
X152312928Y-73576000D01*
X148234000Y-73576000D01*
X148234000Y-73565279D01*
X148268072Y-73217790D01*
X148359614Y-72914587D01*
X148508307Y-72634936D01*
X148708484Y-72389495D01*
X148952521Y-72187609D01*
X149231125Y-72036969D01*
X149533688Y-71943310D01*
X149879158Y-71907000D01*
X165575721Y-71907000D01*
X165923210Y-71941072D01*
M02*
