G04 #@! TF.GenerationSoftware,KiCad,Pcbnew,(5.1.0)-1*
G04 #@! TF.CreationDate,2019-04-03T23:02:26-04:00*
G04 #@! TF.ProjectId,loadcell_daughter,6c6f6164-6365-46c6-9c5f-646175676874,rev?*
G04 #@! TF.SameCoordinates,Original*
G04 #@! TF.FileFunction,Legend,Bot*
G04 #@! TF.FilePolarity,Positive*
%FSLAX46Y46*%
G04 Gerber Fmt 4.6, Leading zero omitted, Abs format (unit mm)*
G04 Created by KiCad (PCBNEW (5.1.0)-1) date 2019-04-03 23:02:26*
%MOMM*%
%LPD*%
G04 APERTURE LIST*
%ADD10C,0.150000*%
%ADD11C,0.010000*%
G04 APERTURE END LIST*
D10*
X162051428Y-84748666D02*
X161575238Y-84748666D01*
X162146666Y-85034380D02*
X161813333Y-84034380D01*
X161480000Y-85034380D01*
X161146666Y-84939142D02*
X161099047Y-84986761D01*
X161146666Y-85034380D01*
X161194285Y-84986761D01*
X161146666Y-84939142D01*
X161146666Y-85034380D01*
X159908571Y-85034380D02*
X159908571Y-84034380D01*
X159670476Y-84034380D01*
X159527619Y-84082000D01*
X159432380Y-84177238D01*
X159384761Y-84272476D01*
X159337142Y-84462952D01*
X159337142Y-84605809D01*
X159384761Y-84796285D01*
X159432380Y-84891523D01*
X159527619Y-84986761D01*
X159670476Y-85034380D01*
X159908571Y-85034380D01*
X158480000Y-85034380D02*
X158480000Y-84510571D01*
X158527619Y-84415333D01*
X158622857Y-84367714D01*
X158813333Y-84367714D01*
X158908571Y-84415333D01*
X158480000Y-84986761D02*
X158575238Y-85034380D01*
X158813333Y-85034380D01*
X158908571Y-84986761D01*
X158956190Y-84891523D01*
X158956190Y-84796285D01*
X158908571Y-84701047D01*
X158813333Y-84653428D01*
X158575238Y-84653428D01*
X158480000Y-84605809D01*
X158099047Y-84367714D02*
X157860952Y-85034380D01*
X157622857Y-84367714D01*
X156860952Y-84986761D02*
X156956190Y-85034380D01*
X157146666Y-85034380D01*
X157241904Y-84986761D01*
X157289523Y-84891523D01*
X157289523Y-84510571D01*
X157241904Y-84415333D01*
X157146666Y-84367714D01*
X156956190Y-84367714D01*
X156860952Y-84415333D01*
X156813333Y-84510571D01*
X156813333Y-84605809D01*
X157289523Y-84701047D01*
X156384761Y-84367714D02*
X156384761Y-85034380D01*
X156384761Y-84462952D02*
X156337142Y-84415333D01*
X156241904Y-84367714D01*
X156099047Y-84367714D01*
X156003809Y-84415333D01*
X155956190Y-84510571D01*
X155956190Y-85034380D01*
X155480000Y-84367714D02*
X155480000Y-85367714D01*
X155480000Y-84415333D02*
X155384761Y-84367714D01*
X155194285Y-84367714D01*
X155099047Y-84415333D01*
X155051428Y-84462952D01*
X155003809Y-84558190D01*
X155003809Y-84843904D01*
X155051428Y-84939142D01*
X155099047Y-84986761D01*
X155194285Y-85034380D01*
X155384761Y-85034380D01*
X155480000Y-84986761D01*
X154432380Y-85034380D02*
X154527619Y-84986761D01*
X154575238Y-84939142D01*
X154622857Y-84843904D01*
X154622857Y-84558190D01*
X154575238Y-84462952D01*
X154527619Y-84415333D01*
X154432380Y-84367714D01*
X154289523Y-84367714D01*
X154194285Y-84415333D01*
X154146666Y-84462952D01*
X154099047Y-84558190D01*
X154099047Y-84843904D01*
X154146666Y-84939142D01*
X154194285Y-84986761D01*
X154289523Y-85034380D01*
X154432380Y-85034380D01*
X153670476Y-85034380D02*
X153670476Y-84367714D01*
X153670476Y-84558190D02*
X153622857Y-84462952D01*
X153575238Y-84415333D01*
X153480000Y-84367714D01*
X153384761Y-84367714D01*
X153194285Y-84367714D02*
X152813333Y-84367714D01*
X153051428Y-84034380D02*
X153051428Y-84891523D01*
X153003809Y-84986761D01*
X152908571Y-85034380D01*
X152813333Y-85034380D01*
D11*
G36*
X151156298Y-79733432D02*
G01*
X151106848Y-79734888D01*
X151061702Y-79737323D01*
X151022994Y-79740733D01*
X150992856Y-79745117D01*
X150989553Y-79745785D01*
X150895436Y-79768293D01*
X150811028Y-79794183D01*
X150735300Y-79823965D01*
X150667223Y-79858146D01*
X150605769Y-79897234D01*
X150549908Y-79941737D01*
X150505546Y-79984740D01*
X150470863Y-80025057D01*
X150441088Y-80068282D01*
X150414718Y-80117085D01*
X150390249Y-80174136D01*
X150374419Y-80217579D01*
X150365039Y-80243746D01*
X150352647Y-80276869D01*
X150338959Y-80312427D01*
X150327428Y-80341576D01*
X150312780Y-80379676D01*
X150296923Y-80423567D01*
X150282083Y-80466971D01*
X150273404Y-80493982D01*
X150262026Y-80529693D01*
X150249591Y-80566993D01*
X150237713Y-80601125D01*
X150229168Y-80624338D01*
X150218856Y-80652664D01*
X150206825Y-80687966D01*
X150194780Y-80725148D01*
X150186921Y-80750673D01*
X150177336Y-80781785D01*
X150167939Y-80810709D01*
X150159854Y-80834075D01*
X150154513Y-80847829D01*
X150149224Y-80861801D01*
X150141360Y-80885156D01*
X150131786Y-80915208D01*
X150121366Y-80949272D01*
X150115471Y-80969144D01*
X150103770Y-81008396D01*
X150091309Y-81049103D01*
X150079343Y-81087236D01*
X150069124Y-81118763D01*
X150066156Y-81127600D01*
X150055018Y-81161329D01*
X150043303Y-81198435D01*
X150033049Y-81232429D01*
X150030320Y-81241900D01*
X150020736Y-81274358D01*
X150009716Y-81309669D01*
X149999485Y-81340719D01*
X149998528Y-81343500D01*
X149990105Y-81368832D01*
X149978460Y-81405431D01*
X149963834Y-81452505D01*
X149946469Y-81509263D01*
X149926606Y-81574914D01*
X149904488Y-81648667D01*
X149880356Y-81729732D01*
X149873436Y-81753075D01*
X149861883Y-81791485D01*
X149850285Y-81828996D01*
X149839597Y-81862597D01*
X149830770Y-81889279D01*
X149826183Y-81902300D01*
X149819575Y-81921530D01*
X149810417Y-81950109D01*
X149799553Y-81985300D01*
X149787828Y-82024369D01*
X149776188Y-82064225D01*
X149764715Y-82104004D01*
X149753288Y-82143428D01*
X149741602Y-82183510D01*
X149729356Y-82225268D01*
X149716247Y-82269716D01*
X149701973Y-82317870D01*
X149686231Y-82370747D01*
X149668718Y-82429360D01*
X149649133Y-82494727D01*
X149627172Y-82567863D01*
X149602534Y-82649784D01*
X149574915Y-82741505D01*
X149544014Y-82844042D01*
X149538856Y-82861150D01*
X149525022Y-82907199D01*
X149510606Y-82955472D01*
X149496625Y-83002538D01*
X149484100Y-83044966D01*
X149474047Y-83079329D01*
X149472866Y-83083400D01*
X149461679Y-83121661D01*
X149449554Y-83162527D01*
X149437952Y-83201113D01*
X149428331Y-83232536D01*
X149428303Y-83232625D01*
X149420806Y-83257096D01*
X149410584Y-83290961D01*
X149398427Y-83331575D01*
X149385126Y-83376295D01*
X149371469Y-83422476D01*
X149364152Y-83447339D01*
X149350280Y-83494933D01*
X149339800Y-83531901D01*
X149332402Y-83559581D01*
X149327776Y-83579307D01*
X149325614Y-83592419D01*
X149325604Y-83600251D01*
X149327439Y-83604141D01*
X149327765Y-83604404D01*
X149334667Y-83605489D01*
X149351550Y-83606466D01*
X149377370Y-83607335D01*
X149411085Y-83608094D01*
X149451650Y-83608746D01*
X149498024Y-83609289D01*
X149549163Y-83609724D01*
X149604023Y-83610050D01*
X149661562Y-83610269D01*
X149720736Y-83610379D01*
X149780502Y-83610381D01*
X149839817Y-83610276D01*
X149897638Y-83610062D01*
X149952922Y-83609741D01*
X150004625Y-83609311D01*
X150051704Y-83608775D01*
X150093116Y-83608130D01*
X150127818Y-83607378D01*
X150154766Y-83606518D01*
X150172918Y-83605551D01*
X150181231Y-83604477D01*
X150181498Y-83604353D01*
X150185058Y-83601181D01*
X150189100Y-83595337D01*
X150193893Y-83586026D01*
X150199708Y-83572449D01*
X150206816Y-83553810D01*
X150215486Y-83529311D01*
X150225990Y-83498156D01*
X150238597Y-83459548D01*
X150253579Y-83412689D01*
X150271205Y-83356782D01*
X150291746Y-83291031D01*
X150315473Y-83214638D01*
X150333784Y-83155496D01*
X150345877Y-83117311D01*
X150359730Y-83074985D01*
X150373384Y-83034441D01*
X150382075Y-83009446D01*
X150394415Y-82973406D01*
X150407474Y-82933265D01*
X150419274Y-82895181D01*
X150424602Y-82877025D01*
X150434785Y-82843016D01*
X150446494Y-82806543D01*
X150457755Y-82773674D01*
X150461756Y-82762725D01*
X150470793Y-82737242D01*
X150481931Y-82703742D01*
X150493855Y-82666283D01*
X150505250Y-82628924D01*
X150506996Y-82623025D01*
X150517746Y-82587277D01*
X150528774Y-82551900D01*
X150538923Y-82520520D01*
X150547040Y-82496763D01*
X150548464Y-82492850D01*
X150555771Y-82472002D01*
X150565569Y-82442475D01*
X150576776Y-82407607D01*
X150588310Y-82370735D01*
X150593028Y-82355334D01*
X150604259Y-82318918D01*
X150615491Y-82283375D01*
X150625682Y-82251945D01*
X150633790Y-82227866D01*
X150636424Y-82220450D01*
X150643422Y-82200124D01*
X150652816Y-82171196D01*
X150663513Y-82137115D01*
X150674418Y-82101324D01*
X150677419Y-82091266D01*
X150688952Y-82053320D01*
X150701389Y-82013900D01*
X150713358Y-81977270D01*
X150723487Y-81947694D01*
X150724963Y-81943575D01*
X150733553Y-81919009D01*
X150744824Y-81885586D01*
X150757751Y-81846410D01*
X150771309Y-81804585D01*
X150783667Y-81765775D01*
X150798523Y-81718939D01*
X150815217Y-81666776D01*
X150832235Y-81613990D01*
X150848062Y-81565286D01*
X150857280Y-81537175D01*
X150871705Y-81493058D01*
X150887536Y-81444063D01*
X150903216Y-81395045D01*
X150917188Y-81350858D01*
X150922463Y-81333975D01*
X150934489Y-81295459D01*
X150946118Y-81258622D01*
X150958123Y-81221079D01*
X150971274Y-81180443D01*
X150986341Y-81134327D01*
X151004096Y-81080347D01*
X151017843Y-81038700D01*
X151027315Y-81009885D01*
X151039233Y-80973411D01*
X151052213Y-80933525D01*
X151064870Y-80894476D01*
X151067513Y-80886300D01*
X151088707Y-80820681D01*
X151106490Y-80765957D01*
X151121342Y-80721140D01*
X151133742Y-80685242D01*
X151144167Y-80657274D01*
X151153098Y-80636248D01*
X151161014Y-80621176D01*
X151168392Y-80611070D01*
X151175713Y-80604942D01*
X151183455Y-80601802D01*
X151192097Y-80600663D01*
X151202118Y-80600537D01*
X151206002Y-80600550D01*
X151221467Y-80601468D01*
X151234758Y-80605004D01*
X151246555Y-80612332D01*
X151257540Y-80624625D01*
X151268394Y-80643056D01*
X151279796Y-80668799D01*
X151292428Y-80703027D01*
X151306970Y-80746913D01*
X151324103Y-80801630D01*
X151325733Y-80806925D01*
X151349718Y-80884837D01*
X151370369Y-80951800D01*
X151388011Y-81008844D01*
X151402967Y-81057001D01*
X151415563Y-81097300D01*
X151426121Y-81130774D01*
X151434968Y-81158453D01*
X151442426Y-81181367D01*
X151448820Y-81200548D01*
X151454475Y-81217027D01*
X151456852Y-81223800D01*
X151468107Y-81257451D01*
X151479912Y-81295613D01*
X151489943Y-81330735D01*
X151491059Y-81334925D01*
X151499055Y-81363061D01*
X151509960Y-81398407D01*
X151522356Y-81436492D01*
X151534823Y-81472846D01*
X151535116Y-81473675D01*
X151548199Y-81511650D01*
X151563052Y-81556457D01*
X151577972Y-81602873D01*
X151591260Y-81645676D01*
X151593011Y-81651475D01*
X151604077Y-81687714D01*
X151615168Y-81723044D01*
X151625240Y-81754207D01*
X151633250Y-81777944D01*
X151635714Y-81784825D01*
X151642900Y-81805709D01*
X151652255Y-81834924D01*
X151662601Y-81868699D01*
X151672763Y-81903266D01*
X151673396Y-81905475D01*
X151690189Y-81963412D01*
X151708031Y-82023605D01*
X151726165Y-82083594D01*
X151743834Y-82140922D01*
X151760281Y-82193127D01*
X151774749Y-82237752D01*
X151784767Y-82267425D01*
X151796190Y-82301756D01*
X151807987Y-82339528D01*
X151818235Y-82374513D01*
X151821696Y-82387179D01*
X151831123Y-82420332D01*
X151842856Y-82458130D01*
X151854715Y-82493617D01*
X151857504Y-82501479D01*
X151867340Y-82530028D01*
X151879162Y-82566250D01*
X151891563Y-82605736D01*
X151903134Y-82644076D01*
X151904409Y-82648419D01*
X151914327Y-82681616D01*
X151923784Y-82711962D01*
X151931893Y-82736708D01*
X151937770Y-82753101D01*
X151939142Y-82756369D01*
X151943356Y-82767041D01*
X151949913Y-82785905D01*
X151958977Y-82813484D01*
X151970713Y-82850303D01*
X151985286Y-82896884D01*
X152002860Y-82953753D01*
X152023602Y-83021433D01*
X152047674Y-83100447D01*
X152055998Y-83127850D01*
X152068538Y-83168660D01*
X152081059Y-83208529D01*
X152092686Y-83244731D01*
X152102542Y-83274538D01*
X152109751Y-83295223D01*
X152110084Y-83296125D01*
X152117407Y-83317265D01*
X152127144Y-83347391D01*
X152138325Y-83383400D01*
X152149983Y-83422191D01*
X152157880Y-83449235D01*
X152171710Y-83496299D01*
X152183134Y-83532631D01*
X152192787Y-83559710D01*
X152201304Y-83579011D01*
X152209319Y-83592013D01*
X152217468Y-83600190D01*
X152224523Y-83604258D01*
X152232777Y-83605442D01*
X152251578Y-83606517D01*
X152280449Y-83607477D01*
X152318914Y-83608315D01*
X152366495Y-83609025D01*
X152422716Y-83609599D01*
X152487100Y-83610031D01*
X152559170Y-83610315D01*
X152638448Y-83610443D01*
X152662910Y-83610450D01*
X152743567Y-83610416D01*
X152813853Y-83610305D01*
X152874421Y-83610106D01*
X152925922Y-83609804D01*
X152969011Y-83609388D01*
X153004340Y-83608844D01*
X153032561Y-83608160D01*
X153054328Y-83607323D01*
X153070293Y-83606320D01*
X153081109Y-83605137D01*
X153087429Y-83603764D01*
X153089906Y-83602186D01*
X153089949Y-83602075D01*
X153089495Y-83592922D01*
X153086170Y-83573931D01*
X153080520Y-83547341D01*
X153073091Y-83515389D01*
X153064427Y-83480315D01*
X153055075Y-83444356D01*
X153045578Y-83409749D01*
X153036483Y-83378734D01*
X153032234Y-83365201D01*
X153024976Y-83341949D01*
X153015334Y-83309902D01*
X153004282Y-83272362D01*
X152992795Y-83232630D01*
X152985567Y-83207225D01*
X152970027Y-83152751D01*
X152953033Y-83094129D01*
X152935279Y-83033676D01*
X152917458Y-82973709D01*
X152900261Y-82916545D01*
X152884383Y-82864503D01*
X152870516Y-82819898D01*
X152859353Y-82785050D01*
X152859320Y-82784950D01*
X152850327Y-82756748D01*
X152839149Y-82720493D01*
X152827008Y-82680206D01*
X152815123Y-82639911D01*
X152811149Y-82626200D01*
X152786523Y-82541209D01*
X152765098Y-82468197D01*
X152746827Y-82407005D01*
X152731660Y-82357476D01*
X152719551Y-82319451D01*
X152710452Y-82292773D01*
X152709632Y-82290521D01*
X152702978Y-82271070D01*
X152693820Y-82242434D01*
X152683056Y-82207511D01*
X152671580Y-82169197D01*
X152662509Y-82138121D01*
X152649761Y-82094484D01*
X152634574Y-82043437D01*
X152618308Y-81989494D01*
X152602322Y-81937170D01*
X152590529Y-81899125D01*
X152575855Y-81852086D01*
X152558883Y-81797517D01*
X152540991Y-81739863D01*
X152523558Y-81683566D01*
X152507962Y-81633068D01*
X152507764Y-81632425D01*
X152494353Y-81589090D01*
X152481071Y-81546481D01*
X152468726Y-81507166D01*
X152458126Y-81473714D01*
X152450078Y-81448694D01*
X152447855Y-81441925D01*
X152426243Y-81375868D01*
X152402630Y-81302162D01*
X152378417Y-81225240D01*
X152355005Y-81149533D01*
X152342532Y-81108550D01*
X152330169Y-81068212D01*
X152317057Y-81026388D01*
X152304420Y-80986924D01*
X152293485Y-80953664D01*
X152288938Y-80940275D01*
X152277553Y-80906306D01*
X152265695Y-80869302D01*
X152255283Y-80835309D01*
X152251636Y-80822800D01*
X152241671Y-80790279D01*
X152229750Y-80754909D01*
X152218293Y-80723840D01*
X152217248Y-80721200D01*
X152208064Y-80696735D01*
X152196699Y-80664288D01*
X152184532Y-80627898D01*
X152172938Y-80591603D01*
X152171775Y-80587850D01*
X152159472Y-80549375D01*
X152143876Y-80502744D01*
X152125826Y-80450289D01*
X152106162Y-80394340D01*
X152085722Y-80337230D01*
X152065346Y-80281291D01*
X152045871Y-80228853D01*
X152028136Y-80182249D01*
X152012982Y-80143811D01*
X152005590Y-80125906D01*
X151971323Y-80059425D01*
X151927214Y-79998490D01*
X151873367Y-79943170D01*
X151809886Y-79893532D01*
X151736873Y-79849645D01*
X151654433Y-79811576D01*
X151562670Y-79779392D01*
X151461688Y-79753163D01*
X151423948Y-79745356D01*
X151393463Y-79740898D01*
X151354485Y-79737432D01*
X151309146Y-79734954D01*
X151259580Y-79733463D01*
X151207920Y-79732956D01*
X151156298Y-79733432D01*
X151156298Y-79733432D01*
G37*
X151156298Y-79733432D02*
X151106848Y-79734888D01*
X151061702Y-79737323D01*
X151022994Y-79740733D01*
X150992856Y-79745117D01*
X150989553Y-79745785D01*
X150895436Y-79768293D01*
X150811028Y-79794183D01*
X150735300Y-79823965D01*
X150667223Y-79858146D01*
X150605769Y-79897234D01*
X150549908Y-79941737D01*
X150505546Y-79984740D01*
X150470863Y-80025057D01*
X150441088Y-80068282D01*
X150414718Y-80117085D01*
X150390249Y-80174136D01*
X150374419Y-80217579D01*
X150365039Y-80243746D01*
X150352647Y-80276869D01*
X150338959Y-80312427D01*
X150327428Y-80341576D01*
X150312780Y-80379676D01*
X150296923Y-80423567D01*
X150282083Y-80466971D01*
X150273404Y-80493982D01*
X150262026Y-80529693D01*
X150249591Y-80566993D01*
X150237713Y-80601125D01*
X150229168Y-80624338D01*
X150218856Y-80652664D01*
X150206825Y-80687966D01*
X150194780Y-80725148D01*
X150186921Y-80750673D01*
X150177336Y-80781785D01*
X150167939Y-80810709D01*
X150159854Y-80834075D01*
X150154513Y-80847829D01*
X150149224Y-80861801D01*
X150141360Y-80885156D01*
X150131786Y-80915208D01*
X150121366Y-80949272D01*
X150115471Y-80969144D01*
X150103770Y-81008396D01*
X150091309Y-81049103D01*
X150079343Y-81087236D01*
X150069124Y-81118763D01*
X150066156Y-81127600D01*
X150055018Y-81161329D01*
X150043303Y-81198435D01*
X150033049Y-81232429D01*
X150030320Y-81241900D01*
X150020736Y-81274358D01*
X150009716Y-81309669D01*
X149999485Y-81340719D01*
X149998528Y-81343500D01*
X149990105Y-81368832D01*
X149978460Y-81405431D01*
X149963834Y-81452505D01*
X149946469Y-81509263D01*
X149926606Y-81574914D01*
X149904488Y-81648667D01*
X149880356Y-81729732D01*
X149873436Y-81753075D01*
X149861883Y-81791485D01*
X149850285Y-81828996D01*
X149839597Y-81862597D01*
X149830770Y-81889279D01*
X149826183Y-81902300D01*
X149819575Y-81921530D01*
X149810417Y-81950109D01*
X149799553Y-81985300D01*
X149787828Y-82024369D01*
X149776188Y-82064225D01*
X149764715Y-82104004D01*
X149753288Y-82143428D01*
X149741602Y-82183510D01*
X149729356Y-82225268D01*
X149716247Y-82269716D01*
X149701973Y-82317870D01*
X149686231Y-82370747D01*
X149668718Y-82429360D01*
X149649133Y-82494727D01*
X149627172Y-82567863D01*
X149602534Y-82649784D01*
X149574915Y-82741505D01*
X149544014Y-82844042D01*
X149538856Y-82861150D01*
X149525022Y-82907199D01*
X149510606Y-82955472D01*
X149496625Y-83002538D01*
X149484100Y-83044966D01*
X149474047Y-83079329D01*
X149472866Y-83083400D01*
X149461679Y-83121661D01*
X149449554Y-83162527D01*
X149437952Y-83201113D01*
X149428331Y-83232536D01*
X149428303Y-83232625D01*
X149420806Y-83257096D01*
X149410584Y-83290961D01*
X149398427Y-83331575D01*
X149385126Y-83376295D01*
X149371469Y-83422476D01*
X149364152Y-83447339D01*
X149350280Y-83494933D01*
X149339800Y-83531901D01*
X149332402Y-83559581D01*
X149327776Y-83579307D01*
X149325614Y-83592419D01*
X149325604Y-83600251D01*
X149327439Y-83604141D01*
X149327765Y-83604404D01*
X149334667Y-83605489D01*
X149351550Y-83606466D01*
X149377370Y-83607335D01*
X149411085Y-83608094D01*
X149451650Y-83608746D01*
X149498024Y-83609289D01*
X149549163Y-83609724D01*
X149604023Y-83610050D01*
X149661562Y-83610269D01*
X149720736Y-83610379D01*
X149780502Y-83610381D01*
X149839817Y-83610276D01*
X149897638Y-83610062D01*
X149952922Y-83609741D01*
X150004625Y-83609311D01*
X150051704Y-83608775D01*
X150093116Y-83608130D01*
X150127818Y-83607378D01*
X150154766Y-83606518D01*
X150172918Y-83605551D01*
X150181231Y-83604477D01*
X150181498Y-83604353D01*
X150185058Y-83601181D01*
X150189100Y-83595337D01*
X150193893Y-83586026D01*
X150199708Y-83572449D01*
X150206816Y-83553810D01*
X150215486Y-83529311D01*
X150225990Y-83498156D01*
X150238597Y-83459548D01*
X150253579Y-83412689D01*
X150271205Y-83356782D01*
X150291746Y-83291031D01*
X150315473Y-83214638D01*
X150333784Y-83155496D01*
X150345877Y-83117311D01*
X150359730Y-83074985D01*
X150373384Y-83034441D01*
X150382075Y-83009446D01*
X150394415Y-82973406D01*
X150407474Y-82933265D01*
X150419274Y-82895181D01*
X150424602Y-82877025D01*
X150434785Y-82843016D01*
X150446494Y-82806543D01*
X150457755Y-82773674D01*
X150461756Y-82762725D01*
X150470793Y-82737242D01*
X150481931Y-82703742D01*
X150493855Y-82666283D01*
X150505250Y-82628924D01*
X150506996Y-82623025D01*
X150517746Y-82587277D01*
X150528774Y-82551900D01*
X150538923Y-82520520D01*
X150547040Y-82496763D01*
X150548464Y-82492850D01*
X150555771Y-82472002D01*
X150565569Y-82442475D01*
X150576776Y-82407607D01*
X150588310Y-82370735D01*
X150593028Y-82355334D01*
X150604259Y-82318918D01*
X150615491Y-82283375D01*
X150625682Y-82251945D01*
X150633790Y-82227866D01*
X150636424Y-82220450D01*
X150643422Y-82200124D01*
X150652816Y-82171196D01*
X150663513Y-82137115D01*
X150674418Y-82101324D01*
X150677419Y-82091266D01*
X150688952Y-82053320D01*
X150701389Y-82013900D01*
X150713358Y-81977270D01*
X150723487Y-81947694D01*
X150724963Y-81943575D01*
X150733553Y-81919009D01*
X150744824Y-81885586D01*
X150757751Y-81846410D01*
X150771309Y-81804585D01*
X150783667Y-81765775D01*
X150798523Y-81718939D01*
X150815217Y-81666776D01*
X150832235Y-81613990D01*
X150848062Y-81565286D01*
X150857280Y-81537175D01*
X150871705Y-81493058D01*
X150887536Y-81444063D01*
X150903216Y-81395045D01*
X150917188Y-81350858D01*
X150922463Y-81333975D01*
X150934489Y-81295459D01*
X150946118Y-81258622D01*
X150958123Y-81221079D01*
X150971274Y-81180443D01*
X150986341Y-81134327D01*
X151004096Y-81080347D01*
X151017843Y-81038700D01*
X151027315Y-81009885D01*
X151039233Y-80973411D01*
X151052213Y-80933525D01*
X151064870Y-80894476D01*
X151067513Y-80886300D01*
X151088707Y-80820681D01*
X151106490Y-80765957D01*
X151121342Y-80721140D01*
X151133742Y-80685242D01*
X151144167Y-80657274D01*
X151153098Y-80636248D01*
X151161014Y-80621176D01*
X151168392Y-80611070D01*
X151175713Y-80604942D01*
X151183455Y-80601802D01*
X151192097Y-80600663D01*
X151202118Y-80600537D01*
X151206002Y-80600550D01*
X151221467Y-80601468D01*
X151234758Y-80605004D01*
X151246555Y-80612332D01*
X151257540Y-80624625D01*
X151268394Y-80643056D01*
X151279796Y-80668799D01*
X151292428Y-80703027D01*
X151306970Y-80746913D01*
X151324103Y-80801630D01*
X151325733Y-80806925D01*
X151349718Y-80884837D01*
X151370369Y-80951800D01*
X151388011Y-81008844D01*
X151402967Y-81057001D01*
X151415563Y-81097300D01*
X151426121Y-81130774D01*
X151434968Y-81158453D01*
X151442426Y-81181367D01*
X151448820Y-81200548D01*
X151454475Y-81217027D01*
X151456852Y-81223800D01*
X151468107Y-81257451D01*
X151479912Y-81295613D01*
X151489943Y-81330735D01*
X151491059Y-81334925D01*
X151499055Y-81363061D01*
X151509960Y-81398407D01*
X151522356Y-81436492D01*
X151534823Y-81472846D01*
X151535116Y-81473675D01*
X151548199Y-81511650D01*
X151563052Y-81556457D01*
X151577972Y-81602873D01*
X151591260Y-81645676D01*
X151593011Y-81651475D01*
X151604077Y-81687714D01*
X151615168Y-81723044D01*
X151625240Y-81754207D01*
X151633250Y-81777944D01*
X151635714Y-81784825D01*
X151642900Y-81805709D01*
X151652255Y-81834924D01*
X151662601Y-81868699D01*
X151672763Y-81903266D01*
X151673396Y-81905475D01*
X151690189Y-81963412D01*
X151708031Y-82023605D01*
X151726165Y-82083594D01*
X151743834Y-82140922D01*
X151760281Y-82193127D01*
X151774749Y-82237752D01*
X151784767Y-82267425D01*
X151796190Y-82301756D01*
X151807987Y-82339528D01*
X151818235Y-82374513D01*
X151821696Y-82387179D01*
X151831123Y-82420332D01*
X151842856Y-82458130D01*
X151854715Y-82493617D01*
X151857504Y-82501479D01*
X151867340Y-82530028D01*
X151879162Y-82566250D01*
X151891563Y-82605736D01*
X151903134Y-82644076D01*
X151904409Y-82648419D01*
X151914327Y-82681616D01*
X151923784Y-82711962D01*
X151931893Y-82736708D01*
X151937770Y-82753101D01*
X151939142Y-82756369D01*
X151943356Y-82767041D01*
X151949913Y-82785905D01*
X151958977Y-82813484D01*
X151970713Y-82850303D01*
X151985286Y-82896884D01*
X152002860Y-82953753D01*
X152023602Y-83021433D01*
X152047674Y-83100447D01*
X152055998Y-83127850D01*
X152068538Y-83168660D01*
X152081059Y-83208529D01*
X152092686Y-83244731D01*
X152102542Y-83274538D01*
X152109751Y-83295223D01*
X152110084Y-83296125D01*
X152117407Y-83317265D01*
X152127144Y-83347391D01*
X152138325Y-83383400D01*
X152149983Y-83422191D01*
X152157880Y-83449235D01*
X152171710Y-83496299D01*
X152183134Y-83532631D01*
X152192787Y-83559710D01*
X152201304Y-83579011D01*
X152209319Y-83592013D01*
X152217468Y-83600190D01*
X152224523Y-83604258D01*
X152232777Y-83605442D01*
X152251578Y-83606517D01*
X152280449Y-83607477D01*
X152318914Y-83608315D01*
X152366495Y-83609025D01*
X152422716Y-83609599D01*
X152487100Y-83610031D01*
X152559170Y-83610315D01*
X152638448Y-83610443D01*
X152662910Y-83610450D01*
X152743567Y-83610416D01*
X152813853Y-83610305D01*
X152874421Y-83610106D01*
X152925922Y-83609804D01*
X152969011Y-83609388D01*
X153004340Y-83608844D01*
X153032561Y-83608160D01*
X153054328Y-83607323D01*
X153070293Y-83606320D01*
X153081109Y-83605137D01*
X153087429Y-83603764D01*
X153089906Y-83602186D01*
X153089949Y-83602075D01*
X153089495Y-83592922D01*
X153086170Y-83573931D01*
X153080520Y-83547341D01*
X153073091Y-83515389D01*
X153064427Y-83480315D01*
X153055075Y-83444356D01*
X153045578Y-83409749D01*
X153036483Y-83378734D01*
X153032234Y-83365201D01*
X153024976Y-83341949D01*
X153015334Y-83309902D01*
X153004282Y-83272362D01*
X152992795Y-83232630D01*
X152985567Y-83207225D01*
X152970027Y-83152751D01*
X152953033Y-83094129D01*
X152935279Y-83033676D01*
X152917458Y-82973709D01*
X152900261Y-82916545D01*
X152884383Y-82864503D01*
X152870516Y-82819898D01*
X152859353Y-82785050D01*
X152859320Y-82784950D01*
X152850327Y-82756748D01*
X152839149Y-82720493D01*
X152827008Y-82680206D01*
X152815123Y-82639911D01*
X152811149Y-82626200D01*
X152786523Y-82541209D01*
X152765098Y-82468197D01*
X152746827Y-82407005D01*
X152731660Y-82357476D01*
X152719551Y-82319451D01*
X152710452Y-82292773D01*
X152709632Y-82290521D01*
X152702978Y-82271070D01*
X152693820Y-82242434D01*
X152683056Y-82207511D01*
X152671580Y-82169197D01*
X152662509Y-82138121D01*
X152649761Y-82094484D01*
X152634574Y-82043437D01*
X152618308Y-81989494D01*
X152602322Y-81937170D01*
X152590529Y-81899125D01*
X152575855Y-81852086D01*
X152558883Y-81797517D01*
X152540991Y-81739863D01*
X152523558Y-81683566D01*
X152507962Y-81633068D01*
X152507764Y-81632425D01*
X152494353Y-81589090D01*
X152481071Y-81546481D01*
X152468726Y-81507166D01*
X152458126Y-81473714D01*
X152450078Y-81448694D01*
X152447855Y-81441925D01*
X152426243Y-81375868D01*
X152402630Y-81302162D01*
X152378417Y-81225240D01*
X152355005Y-81149533D01*
X152342532Y-81108550D01*
X152330169Y-81068212D01*
X152317057Y-81026388D01*
X152304420Y-80986924D01*
X152293485Y-80953664D01*
X152288938Y-80940275D01*
X152277553Y-80906306D01*
X152265695Y-80869302D01*
X152255283Y-80835309D01*
X152251636Y-80822800D01*
X152241671Y-80790279D01*
X152229750Y-80754909D01*
X152218293Y-80723840D01*
X152217248Y-80721200D01*
X152208064Y-80696735D01*
X152196699Y-80664288D01*
X152184532Y-80627898D01*
X152172938Y-80591603D01*
X152171775Y-80587850D01*
X152159472Y-80549375D01*
X152143876Y-80502744D01*
X152125826Y-80450289D01*
X152106162Y-80394340D01*
X152085722Y-80337230D01*
X152065346Y-80281291D01*
X152045871Y-80228853D01*
X152028136Y-80182249D01*
X152012982Y-80143811D01*
X152005590Y-80125906D01*
X151971323Y-80059425D01*
X151927214Y-79998490D01*
X151873367Y-79943170D01*
X151809886Y-79893532D01*
X151736873Y-79849645D01*
X151654433Y-79811576D01*
X151562670Y-79779392D01*
X151461688Y-79753163D01*
X151423948Y-79745356D01*
X151393463Y-79740898D01*
X151354485Y-79737432D01*
X151309146Y-79734954D01*
X151259580Y-79733463D01*
X151207920Y-79732956D01*
X151156298Y-79733432D01*
G36*
X154226862Y-79748855D02*
G01*
X154129178Y-79748957D01*
X154033686Y-79749116D01*
X153940998Y-79749331D01*
X153851727Y-79749600D01*
X153766484Y-79749922D01*
X153685881Y-79750296D01*
X153610530Y-79750719D01*
X153541042Y-79751191D01*
X153478031Y-79751709D01*
X153422106Y-79752273D01*
X153373881Y-79752881D01*
X153333966Y-79753530D01*
X153302975Y-79754221D01*
X153281518Y-79754951D01*
X153270208Y-79755719D01*
X153268611Y-79756064D01*
X153266385Y-79757720D01*
X153264484Y-79760365D01*
X153262882Y-79764941D01*
X153261554Y-79772395D01*
X153260474Y-79783670D01*
X153259617Y-79799711D01*
X153258957Y-79821462D01*
X153258467Y-79849869D01*
X153258123Y-79885876D01*
X153257900Y-79930427D01*
X153257770Y-79984467D01*
X153257709Y-80048941D01*
X153257691Y-80124794D01*
X153257691Y-80158464D01*
X153257702Y-80239220D01*
X153257752Y-80308231D01*
X153257866Y-80366447D01*
X153258068Y-80414825D01*
X153258382Y-80454315D01*
X153258833Y-80485873D01*
X153259445Y-80510450D01*
X153260242Y-80529002D01*
X153261249Y-80542481D01*
X153262490Y-80551840D01*
X153263990Y-80558032D01*
X153265772Y-80562012D01*
X153267863Y-80564733D01*
X153268091Y-80564974D01*
X153269872Y-80566324D01*
X153272829Y-80567556D01*
X153277439Y-80568675D01*
X153284183Y-80569686D01*
X153293537Y-80570594D01*
X153305981Y-80571403D01*
X153321993Y-80572119D01*
X153342051Y-80572746D01*
X153366634Y-80573288D01*
X153396220Y-80573751D01*
X153431287Y-80574140D01*
X153472315Y-80574458D01*
X153519781Y-80574712D01*
X153574164Y-80574906D01*
X153635942Y-80575044D01*
X153705594Y-80575131D01*
X153783598Y-80575173D01*
X153870433Y-80575173D01*
X153966576Y-80575137D01*
X154072508Y-80575070D01*
X154188705Y-80574976D01*
X154261656Y-80574910D01*
X154365400Y-80574840D01*
X154466444Y-80574823D01*
X154564213Y-80574856D01*
X154658130Y-80574938D01*
X154747621Y-80575065D01*
X154832110Y-80575237D01*
X154911021Y-80575451D01*
X154983779Y-80575704D01*
X155049809Y-80575995D01*
X155108535Y-80576322D01*
X155159381Y-80576682D01*
X155201772Y-80577073D01*
X155235132Y-80577494D01*
X155258886Y-80577942D01*
X155272459Y-80578414D01*
X155275138Y-80578642D01*
X155306193Y-80587485D01*
X155340437Y-80603950D01*
X155374037Y-80625869D01*
X155402878Y-80650790D01*
X155423777Y-80676856D01*
X155444286Y-80710783D01*
X155461914Y-80747963D01*
X155473565Y-80781525D01*
X155480180Y-80800775D01*
X155487817Y-80816343D01*
X155489431Y-80818704D01*
X155493222Y-80825908D01*
X155495779Y-80837209D01*
X155497302Y-80854802D01*
X155497990Y-80880885D01*
X155498056Y-80913954D01*
X155497610Y-80951201D01*
X155496384Y-80978996D01*
X155494044Y-81000576D01*
X155490254Y-81019177D01*
X155485495Y-81035525D01*
X155460995Y-81095035D01*
X155428683Y-81145789D01*
X155388916Y-81187373D01*
X155342052Y-81219372D01*
X155316530Y-81231458D01*
X155308832Y-81232643D01*
X155291532Y-81233769D01*
X155264497Y-81234839D01*
X155227591Y-81235855D01*
X155180679Y-81236818D01*
X155123627Y-81237730D01*
X155056299Y-81238595D01*
X154978561Y-81239413D01*
X154890277Y-81240187D01*
X154791314Y-81240919D01*
X154681535Y-81241610D01*
X154616436Y-81241975D01*
X154515526Y-81242519D01*
X154425011Y-81243019D01*
X154344261Y-81243491D01*
X154272648Y-81243950D01*
X154209542Y-81244410D01*
X154154313Y-81244889D01*
X154106334Y-81245399D01*
X154064974Y-81245958D01*
X154029604Y-81246581D01*
X153999595Y-81247281D01*
X153974318Y-81248076D01*
X153953143Y-81248980D01*
X153935441Y-81250008D01*
X153920583Y-81251176D01*
X153907939Y-81252500D01*
X153896881Y-81253993D01*
X153886780Y-81255672D01*
X153877005Y-81257552D01*
X153866927Y-81259649D01*
X153864027Y-81260264D01*
X153798853Y-81276879D01*
X153733104Y-81298784D01*
X153670640Y-81324543D01*
X153615510Y-81352615D01*
X153531643Y-81407639D01*
X153453431Y-81473167D01*
X153381441Y-81548437D01*
X153316237Y-81632688D01*
X153258385Y-81725157D01*
X153208452Y-81825083D01*
X153167003Y-81931705D01*
X153153257Y-81974946D01*
X153135161Y-82037959D01*
X153120809Y-82094307D01*
X153109738Y-82147071D01*
X153101485Y-82199326D01*
X153095585Y-82254151D01*
X153091576Y-82314624D01*
X153088993Y-82383824D01*
X153088463Y-82405134D01*
X153087453Y-82455754D01*
X153087126Y-82497906D01*
X153087736Y-82534236D01*
X153089539Y-82567394D01*
X153092789Y-82600028D01*
X153097740Y-82634787D01*
X153104646Y-82674319D01*
X153113764Y-82721272D01*
X153123430Y-82768941D01*
X153136088Y-82828276D01*
X153147984Y-82877844D01*
X153159995Y-82920435D01*
X153172999Y-82958842D01*
X153187872Y-82995856D01*
X153205491Y-83034267D01*
X153209164Y-83041838D01*
X153265460Y-83146841D01*
X153326257Y-83240401D01*
X153391947Y-83322855D01*
X153462918Y-83394543D01*
X153539561Y-83455806D01*
X153622267Y-83506981D01*
X153711425Y-83548408D01*
X153807426Y-83580427D01*
X153837393Y-83588194D01*
X153904733Y-83604573D01*
X155034366Y-83605924D01*
X155185319Y-83606073D01*
X155325572Y-83606148D01*
X155455102Y-83606148D01*
X155573883Y-83606073D01*
X155681891Y-83605924D01*
X155779103Y-83605701D01*
X155865494Y-83605404D01*
X155941039Y-83605032D01*
X156005715Y-83604586D01*
X156059498Y-83604067D01*
X156102362Y-83603474D01*
X156134284Y-83602806D01*
X156155240Y-83602066D01*
X156165204Y-83601252D01*
X156166104Y-83600925D01*
X156166451Y-83593619D01*
X156166735Y-83574707D01*
X156166956Y-83545283D01*
X156167110Y-83506441D01*
X156167197Y-83459275D01*
X156167214Y-83404877D01*
X156167160Y-83344344D01*
X156167033Y-83278767D01*
X156166831Y-83209241D01*
X156166780Y-83194525D01*
X156165351Y-82794475D01*
X154153415Y-82788125D01*
X154121163Y-82773958D01*
X154090261Y-82758811D01*
X154065843Y-82742411D01*
X154043520Y-82721396D01*
X154025801Y-82700936D01*
X153994200Y-82656516D01*
X153970809Y-82609420D01*
X153954828Y-82557302D01*
X153945454Y-82497816D01*
X153942669Y-82457650D01*
X153942159Y-82397095D01*
X153946558Y-82345001D01*
X153956316Y-82298215D01*
X153971688Y-82254043D01*
X153999397Y-82200935D01*
X154034171Y-82157542D01*
X154075732Y-82124111D01*
X154123797Y-82100890D01*
X154156171Y-82091847D01*
X154165825Y-82090575D01*
X154182583Y-82089380D01*
X154206789Y-82088258D01*
X154238787Y-82087203D01*
X154278918Y-82086208D01*
X154327527Y-82085270D01*
X154384956Y-82084381D01*
X154451549Y-82083536D01*
X154527650Y-82082729D01*
X154613601Y-82081955D01*
X154709746Y-82081209D01*
X154816427Y-82080484D01*
X154864483Y-82080184D01*
X154964550Y-82079573D01*
X155054216Y-82079012D01*
X155134104Y-82078485D01*
X155204838Y-82077978D01*
X155267040Y-82077474D01*
X155321334Y-82076958D01*
X155368343Y-82076414D01*
X155408691Y-82075826D01*
X155443000Y-82075179D01*
X155471893Y-82074457D01*
X155495994Y-82073645D01*
X155515927Y-82072727D01*
X155532313Y-82071687D01*
X155545778Y-82070509D01*
X155556942Y-82069179D01*
X155566431Y-82067679D01*
X155574867Y-82065995D01*
X155582873Y-82064112D01*
X155591072Y-82062012D01*
X155591367Y-82061936D01*
X155692161Y-82030205D01*
X155785683Y-81989208D01*
X155872344Y-81938600D01*
X155952553Y-81878040D01*
X156026723Y-81807182D01*
X156095265Y-81725685D01*
X156158589Y-81633205D01*
X156207775Y-81547305D01*
X156229313Y-81503068D01*
X156249770Y-81453375D01*
X156269869Y-81396232D01*
X156290334Y-81329646D01*
X156302537Y-81286350D01*
X156310792Y-81256926D01*
X156318319Y-81231300D01*
X156324272Y-81212284D01*
X156327730Y-81202834D01*
X156331690Y-81188512D01*
X156335387Y-81163127D01*
X156338714Y-81128315D01*
X156341565Y-81085710D01*
X156343833Y-81036949D01*
X156345413Y-80983667D01*
X156346198Y-80927500D01*
X156346243Y-80918071D01*
X156345603Y-80841679D01*
X156342848Y-80774834D01*
X156337598Y-80714537D01*
X156329471Y-80657794D01*
X156318087Y-80601606D01*
X156303066Y-80542979D01*
X156294964Y-80514825D01*
X156260980Y-80411916D01*
X156223106Y-80320037D01*
X156180886Y-80238149D01*
X156155865Y-80197325D01*
X156119427Y-80145078D01*
X156077687Y-80091437D01*
X156033288Y-80039488D01*
X155988874Y-79992317D01*
X155947088Y-79953011D01*
X155945407Y-79951559D01*
X155878273Y-79900603D01*
X155802192Y-79855297D01*
X155718320Y-79816214D01*
X155627813Y-79783926D01*
X155578307Y-79769958D01*
X155514917Y-79753622D01*
X155189700Y-79751325D01*
X155103740Y-79750770D01*
X155013854Y-79750288D01*
X154920655Y-79749876D01*
X154824753Y-79749534D01*
X154726761Y-79749260D01*
X154627291Y-79749052D01*
X154526954Y-79748909D01*
X154426362Y-79748830D01*
X154326128Y-79748812D01*
X154226862Y-79748855D01*
X154226862Y-79748855D01*
G37*
X154226862Y-79748855D02*
X154129178Y-79748957D01*
X154033686Y-79749116D01*
X153940998Y-79749331D01*
X153851727Y-79749600D01*
X153766484Y-79749922D01*
X153685881Y-79750296D01*
X153610530Y-79750719D01*
X153541042Y-79751191D01*
X153478031Y-79751709D01*
X153422106Y-79752273D01*
X153373881Y-79752881D01*
X153333966Y-79753530D01*
X153302975Y-79754221D01*
X153281518Y-79754951D01*
X153270208Y-79755719D01*
X153268611Y-79756064D01*
X153266385Y-79757720D01*
X153264484Y-79760365D01*
X153262882Y-79764941D01*
X153261554Y-79772395D01*
X153260474Y-79783670D01*
X153259617Y-79799711D01*
X153258957Y-79821462D01*
X153258467Y-79849869D01*
X153258123Y-79885876D01*
X153257900Y-79930427D01*
X153257770Y-79984467D01*
X153257709Y-80048941D01*
X153257691Y-80124794D01*
X153257691Y-80158464D01*
X153257702Y-80239220D01*
X153257752Y-80308231D01*
X153257866Y-80366447D01*
X153258068Y-80414825D01*
X153258382Y-80454315D01*
X153258833Y-80485873D01*
X153259445Y-80510450D01*
X153260242Y-80529002D01*
X153261249Y-80542481D01*
X153262490Y-80551840D01*
X153263990Y-80558032D01*
X153265772Y-80562012D01*
X153267863Y-80564733D01*
X153268091Y-80564974D01*
X153269872Y-80566324D01*
X153272829Y-80567556D01*
X153277439Y-80568675D01*
X153284183Y-80569686D01*
X153293537Y-80570594D01*
X153305981Y-80571403D01*
X153321993Y-80572119D01*
X153342051Y-80572746D01*
X153366634Y-80573288D01*
X153396220Y-80573751D01*
X153431287Y-80574140D01*
X153472315Y-80574458D01*
X153519781Y-80574712D01*
X153574164Y-80574906D01*
X153635942Y-80575044D01*
X153705594Y-80575131D01*
X153783598Y-80575173D01*
X153870433Y-80575173D01*
X153966576Y-80575137D01*
X154072508Y-80575070D01*
X154188705Y-80574976D01*
X154261656Y-80574910D01*
X154365400Y-80574840D01*
X154466444Y-80574823D01*
X154564213Y-80574856D01*
X154658130Y-80574938D01*
X154747621Y-80575065D01*
X154832110Y-80575237D01*
X154911021Y-80575451D01*
X154983779Y-80575704D01*
X155049809Y-80575995D01*
X155108535Y-80576322D01*
X155159381Y-80576682D01*
X155201772Y-80577073D01*
X155235132Y-80577494D01*
X155258886Y-80577942D01*
X155272459Y-80578414D01*
X155275138Y-80578642D01*
X155306193Y-80587485D01*
X155340437Y-80603950D01*
X155374037Y-80625869D01*
X155402878Y-80650790D01*
X155423777Y-80676856D01*
X155444286Y-80710783D01*
X155461914Y-80747963D01*
X155473565Y-80781525D01*
X155480180Y-80800775D01*
X155487817Y-80816343D01*
X155489431Y-80818704D01*
X155493222Y-80825908D01*
X155495779Y-80837209D01*
X155497302Y-80854802D01*
X155497990Y-80880885D01*
X155498056Y-80913954D01*
X155497610Y-80951201D01*
X155496384Y-80978996D01*
X155494044Y-81000576D01*
X155490254Y-81019177D01*
X155485495Y-81035525D01*
X155460995Y-81095035D01*
X155428683Y-81145789D01*
X155388916Y-81187373D01*
X155342052Y-81219372D01*
X155316530Y-81231458D01*
X155308832Y-81232643D01*
X155291532Y-81233769D01*
X155264497Y-81234839D01*
X155227591Y-81235855D01*
X155180679Y-81236818D01*
X155123627Y-81237730D01*
X155056299Y-81238595D01*
X154978561Y-81239413D01*
X154890277Y-81240187D01*
X154791314Y-81240919D01*
X154681535Y-81241610D01*
X154616436Y-81241975D01*
X154515526Y-81242519D01*
X154425011Y-81243019D01*
X154344261Y-81243491D01*
X154272648Y-81243950D01*
X154209542Y-81244410D01*
X154154313Y-81244889D01*
X154106334Y-81245399D01*
X154064974Y-81245958D01*
X154029604Y-81246581D01*
X153999595Y-81247281D01*
X153974318Y-81248076D01*
X153953143Y-81248980D01*
X153935441Y-81250008D01*
X153920583Y-81251176D01*
X153907939Y-81252500D01*
X153896881Y-81253993D01*
X153886780Y-81255672D01*
X153877005Y-81257552D01*
X153866927Y-81259649D01*
X153864027Y-81260264D01*
X153798853Y-81276879D01*
X153733104Y-81298784D01*
X153670640Y-81324543D01*
X153615510Y-81352615D01*
X153531643Y-81407639D01*
X153453431Y-81473167D01*
X153381441Y-81548437D01*
X153316237Y-81632688D01*
X153258385Y-81725157D01*
X153208452Y-81825083D01*
X153167003Y-81931705D01*
X153153257Y-81974946D01*
X153135161Y-82037959D01*
X153120809Y-82094307D01*
X153109738Y-82147071D01*
X153101485Y-82199326D01*
X153095585Y-82254151D01*
X153091576Y-82314624D01*
X153088993Y-82383824D01*
X153088463Y-82405134D01*
X153087453Y-82455754D01*
X153087126Y-82497906D01*
X153087736Y-82534236D01*
X153089539Y-82567394D01*
X153092789Y-82600028D01*
X153097740Y-82634787D01*
X153104646Y-82674319D01*
X153113764Y-82721272D01*
X153123430Y-82768941D01*
X153136088Y-82828276D01*
X153147984Y-82877844D01*
X153159995Y-82920435D01*
X153172999Y-82958842D01*
X153187872Y-82995856D01*
X153205491Y-83034267D01*
X153209164Y-83041838D01*
X153265460Y-83146841D01*
X153326257Y-83240401D01*
X153391947Y-83322855D01*
X153462918Y-83394543D01*
X153539561Y-83455806D01*
X153622267Y-83506981D01*
X153711425Y-83548408D01*
X153807426Y-83580427D01*
X153837393Y-83588194D01*
X153904733Y-83604573D01*
X155034366Y-83605924D01*
X155185319Y-83606073D01*
X155325572Y-83606148D01*
X155455102Y-83606148D01*
X155573883Y-83606073D01*
X155681891Y-83605924D01*
X155779103Y-83605701D01*
X155865494Y-83605404D01*
X155941039Y-83605032D01*
X156005715Y-83604586D01*
X156059498Y-83604067D01*
X156102362Y-83603474D01*
X156134284Y-83602806D01*
X156155240Y-83602066D01*
X156165204Y-83601252D01*
X156166104Y-83600925D01*
X156166451Y-83593619D01*
X156166735Y-83574707D01*
X156166956Y-83545283D01*
X156167110Y-83506441D01*
X156167197Y-83459275D01*
X156167214Y-83404877D01*
X156167160Y-83344344D01*
X156167033Y-83278767D01*
X156166831Y-83209241D01*
X156166780Y-83194525D01*
X156165351Y-82794475D01*
X154153415Y-82788125D01*
X154121163Y-82773958D01*
X154090261Y-82758811D01*
X154065843Y-82742411D01*
X154043520Y-82721396D01*
X154025801Y-82700936D01*
X153994200Y-82656516D01*
X153970809Y-82609420D01*
X153954828Y-82557302D01*
X153945454Y-82497816D01*
X153942669Y-82457650D01*
X153942159Y-82397095D01*
X153946558Y-82345001D01*
X153956316Y-82298215D01*
X153971688Y-82254043D01*
X153999397Y-82200935D01*
X154034171Y-82157542D01*
X154075732Y-82124111D01*
X154123797Y-82100890D01*
X154156171Y-82091847D01*
X154165825Y-82090575D01*
X154182583Y-82089380D01*
X154206789Y-82088258D01*
X154238787Y-82087203D01*
X154278918Y-82086208D01*
X154327527Y-82085270D01*
X154384956Y-82084381D01*
X154451549Y-82083536D01*
X154527650Y-82082729D01*
X154613601Y-82081955D01*
X154709746Y-82081209D01*
X154816427Y-82080484D01*
X154864483Y-82080184D01*
X154964550Y-82079573D01*
X155054216Y-82079012D01*
X155134104Y-82078485D01*
X155204838Y-82077978D01*
X155267040Y-82077474D01*
X155321334Y-82076958D01*
X155368343Y-82076414D01*
X155408691Y-82075826D01*
X155443000Y-82075179D01*
X155471893Y-82074457D01*
X155495994Y-82073645D01*
X155515927Y-82072727D01*
X155532313Y-82071687D01*
X155545778Y-82070509D01*
X155556942Y-82069179D01*
X155566431Y-82067679D01*
X155574867Y-82065995D01*
X155582873Y-82064112D01*
X155591072Y-82062012D01*
X155591367Y-82061936D01*
X155692161Y-82030205D01*
X155785683Y-81989208D01*
X155872344Y-81938600D01*
X155952553Y-81878040D01*
X156026723Y-81807182D01*
X156095265Y-81725685D01*
X156158589Y-81633205D01*
X156207775Y-81547305D01*
X156229313Y-81503068D01*
X156249770Y-81453375D01*
X156269869Y-81396232D01*
X156290334Y-81329646D01*
X156302537Y-81286350D01*
X156310792Y-81256926D01*
X156318319Y-81231300D01*
X156324272Y-81212284D01*
X156327730Y-81202834D01*
X156331690Y-81188512D01*
X156335387Y-81163127D01*
X156338714Y-81128315D01*
X156341565Y-81085710D01*
X156343833Y-81036949D01*
X156345413Y-80983667D01*
X156346198Y-80927500D01*
X156346243Y-80918071D01*
X156345603Y-80841679D01*
X156342848Y-80774834D01*
X156337598Y-80714537D01*
X156329471Y-80657794D01*
X156318087Y-80601606D01*
X156303066Y-80542979D01*
X156294964Y-80514825D01*
X156260980Y-80411916D01*
X156223106Y-80320037D01*
X156180886Y-80238149D01*
X156155865Y-80197325D01*
X156119427Y-80145078D01*
X156077687Y-80091437D01*
X156033288Y-80039488D01*
X155988874Y-79992317D01*
X155947088Y-79953011D01*
X155945407Y-79951559D01*
X155878273Y-79900603D01*
X155802192Y-79855297D01*
X155718320Y-79816214D01*
X155627813Y-79783926D01*
X155578307Y-79769958D01*
X155514917Y-79753622D01*
X155189700Y-79751325D01*
X155103740Y-79750770D01*
X155013854Y-79750288D01*
X154920655Y-79749876D01*
X154824753Y-79749534D01*
X154726761Y-79749260D01*
X154627291Y-79749052D01*
X154526954Y-79748909D01*
X154426362Y-79748830D01*
X154326128Y-79748812D01*
X154226862Y-79748855D01*
G36*
X164544545Y-79681339D02*
G01*
X164458253Y-79694850D01*
X164377429Y-79715923D01*
X164300719Y-79744950D01*
X164226770Y-79782324D01*
X164154227Y-79828439D01*
X164116638Y-79855982D01*
X164079320Y-79887335D01*
X164038027Y-79926842D01*
X163994911Y-79972097D01*
X163952125Y-80020695D01*
X163911819Y-80070232D01*
X163876146Y-80118301D01*
X163858393Y-80144614D01*
X163798428Y-80245133D01*
X163740637Y-80357428D01*
X163685334Y-80480757D01*
X163632838Y-80614378D01*
X163583464Y-80757548D01*
X163548767Y-80870425D01*
X163536904Y-80910702D01*
X163525458Y-80949014D01*
X163515163Y-80982948D01*
X163506752Y-81010091D01*
X163500958Y-81028031D01*
X163500251Y-81030094D01*
X163494790Y-81047837D01*
X163487392Y-81074779D01*
X163478868Y-81107819D01*
X163470029Y-81143859D01*
X163466157Y-81160269D01*
X163456479Y-81200891D01*
X163445842Y-81244003D01*
X163435392Y-81285054D01*
X163426271Y-81319494D01*
X163424338Y-81326520D01*
X163416505Y-81356349D01*
X163407095Y-81394766D01*
X163396999Y-81437984D01*
X163387108Y-81482214D01*
X163381010Y-81510670D01*
X163371961Y-81552554D01*
X163362307Y-81595130D01*
X163352876Y-81634883D01*
X163344498Y-81668297D01*
X163339598Y-81686400D01*
X163332468Y-81713136D01*
X163323685Y-81748719D01*
X163314082Y-81789622D01*
X163304493Y-81832317D01*
X163298160Y-81861739D01*
X163288594Y-81905566D01*
X163277904Y-81951989D01*
X163267080Y-81996860D01*
X163257113Y-82036033D01*
X163251863Y-82055414D01*
X163241699Y-82092441D01*
X163231155Y-82132160D01*
X163221598Y-82169351D01*
X163215433Y-82194400D01*
X163208098Y-82223570D01*
X163198143Y-82260818D01*
X163186177Y-82304073D01*
X163172806Y-82351263D01*
X163158639Y-82400316D01*
X163144282Y-82449163D01*
X163130344Y-82495731D01*
X163117431Y-82537950D01*
X163106151Y-82573748D01*
X163097111Y-82601055D01*
X163092166Y-82614718D01*
X163063925Y-82677600D01*
X163033003Y-82728293D01*
X162999281Y-82766958D01*
X162962642Y-82793759D01*
X162962247Y-82793975D01*
X162929794Y-82808007D01*
X162895566Y-82816613D01*
X162863324Y-82819121D01*
X162839987Y-82815869D01*
X162821210Y-82806713D01*
X162802223Y-82791570D01*
X162786160Y-82773583D01*
X162776159Y-82755898D01*
X162774670Y-82750361D01*
X162772363Y-82738007D01*
X162768287Y-82717472D01*
X162763269Y-82692920D01*
X162762601Y-82689700D01*
X162761371Y-82683267D01*
X162760247Y-82675947D01*
X162759221Y-82667169D01*
X162758291Y-82656366D01*
X162757449Y-82642967D01*
X162756692Y-82626405D01*
X162756014Y-82606110D01*
X162755410Y-82581514D01*
X162754874Y-82552048D01*
X162754402Y-82517142D01*
X162753988Y-82476228D01*
X162753628Y-82428737D01*
X162753315Y-82374101D01*
X162753046Y-82311750D01*
X162752814Y-82241115D01*
X162752615Y-82161628D01*
X162752444Y-82072720D01*
X162752294Y-81973821D01*
X162752162Y-81864364D01*
X162752042Y-81743778D01*
X162751929Y-81611496D01*
X162751844Y-81502250D01*
X162751705Y-81347260D01*
X162751528Y-81204646D01*
X162751313Y-81074084D01*
X162751057Y-80955249D01*
X162750758Y-80847816D01*
X162750414Y-80751463D01*
X162750024Y-80665863D01*
X162749585Y-80590694D01*
X162749096Y-80525631D01*
X162748553Y-80470350D01*
X162747957Y-80424526D01*
X162747303Y-80387835D01*
X162746591Y-80359953D01*
X162745819Y-80340556D01*
X162744984Y-80329319D01*
X162744723Y-80327500D01*
X162735355Y-80281359D01*
X162724282Y-80240506D01*
X162709839Y-80199509D01*
X162693324Y-80159698D01*
X162671353Y-80111534D01*
X162650746Y-80072001D01*
X162629399Y-80037674D01*
X162605210Y-80005130D01*
X162580513Y-79975933D01*
X162514837Y-79910229D01*
X162440488Y-79851753D01*
X162358033Y-79800796D01*
X162268034Y-79757654D01*
X162171058Y-79722620D01*
X162067669Y-79695987D01*
X162027526Y-79688255D01*
X162003669Y-79684575D01*
X161977982Y-79681740D01*
X161948720Y-79679661D01*
X161914135Y-79678250D01*
X161872482Y-79677416D01*
X161822016Y-79677073D01*
X161807039Y-79677053D01*
X161753255Y-79677253D01*
X161708495Y-79678111D01*
X161670765Y-79679939D01*
X161638070Y-79683046D01*
X161608414Y-79687743D01*
X161579803Y-79694340D01*
X161550241Y-79703149D01*
X161517733Y-79714480D01*
X161483439Y-79727425D01*
X161392679Y-79769063D01*
X161306370Y-79822171D01*
X161224767Y-79886475D01*
X161148126Y-79961699D01*
X161076702Y-80047569D01*
X161010750Y-80143812D01*
X160950527Y-80250152D01*
X160902475Y-80351857D01*
X160887817Y-80385516D01*
X160874311Y-80416205D01*
X160862947Y-80441695D01*
X160854720Y-80459755D01*
X160851144Y-80467200D01*
X160844154Y-80483715D01*
X160835201Y-80509175D01*
X160825257Y-80540281D01*
X160815297Y-80573736D01*
X160806293Y-80606243D01*
X160799219Y-80634505D01*
X160795049Y-80655224D01*
X160794583Y-80658761D01*
X160790237Y-80680890D01*
X160783293Y-80690779D01*
X160782443Y-80691103D01*
X160776407Y-80698362D01*
X160769199Y-80717118D01*
X160760652Y-80747835D01*
X160757696Y-80759891D01*
X160749799Y-80791905D01*
X160739758Y-80831182D01*
X160728820Y-80872904D01*
X160718237Y-80912251D01*
X160717519Y-80914875D01*
X160706178Y-80957054D01*
X160693523Y-81005399D01*
X160681132Y-81053818D01*
X160670974Y-81094612D01*
X160661239Y-81133217D01*
X160650550Y-81173544D01*
X160640122Y-81211129D01*
X160631168Y-81241507D01*
X160630146Y-81244787D01*
X160623032Y-81268529D01*
X160614247Y-81299549D01*
X160604306Y-81335851D01*
X160593724Y-81375440D01*
X160583014Y-81416318D01*
X160572692Y-81456489D01*
X160563272Y-81493956D01*
X160555267Y-81526724D01*
X160549194Y-81552795D01*
X160545566Y-81570173D01*
X160544756Y-81576144D01*
X160540680Y-81588650D01*
X160536549Y-81593624D01*
X160532697Y-81601509D01*
X160526586Y-81619264D01*
X160518857Y-81644504D01*
X160510150Y-81674845D01*
X160501106Y-81707905D01*
X160492364Y-81741298D01*
X160484566Y-81772643D01*
X160478351Y-81799554D01*
X160474360Y-81819648D01*
X160473195Y-81829467D01*
X160471082Y-81841051D01*
X160465538Y-81860636D01*
X160457618Y-81884622D01*
X160454634Y-81892967D01*
X160446133Y-81918697D01*
X160436191Y-81952582D01*
X160425978Y-81990442D01*
X160416662Y-82028093D01*
X160415643Y-82032475D01*
X160404122Y-82081776D01*
X160394768Y-82120297D01*
X160387149Y-82149598D01*
X160380835Y-82171239D01*
X160375392Y-82186781D01*
X160370391Y-82197786D01*
X160369496Y-82199421D01*
X160362705Y-82215729D01*
X160357222Y-82235834D01*
X160356893Y-82237521D01*
X160352642Y-82258044D01*
X160346368Y-82284625D01*
X160337778Y-82318372D01*
X160326582Y-82360395D01*
X160312487Y-82411802D01*
X160295202Y-82473702D01*
X160288020Y-82499200D01*
X160275469Y-82544368D01*
X160263150Y-82589961D01*
X160251811Y-82633115D01*
X160242200Y-82670970D01*
X160235064Y-82700662D01*
X160233256Y-82708750D01*
X160225815Y-82740303D01*
X160217545Y-82770961D01*
X160209686Y-82796305D01*
X160205660Y-82807175D01*
X160197998Y-82828878D01*
X160189664Y-82857478D01*
X160182247Y-82887442D01*
X160181059Y-82892900D01*
X160171728Y-82933263D01*
X160159705Y-82980067D01*
X160146404Y-83028137D01*
X160133238Y-83072304D01*
X160125545Y-83096100D01*
X160119435Y-83116207D01*
X160112068Y-83143336D01*
X160104871Y-83172189D01*
X160103711Y-83177128D01*
X160097784Y-83201208D01*
X160092508Y-83220121D01*
X160088745Y-83230856D01*
X160087905Y-83232157D01*
X160085238Y-83227169D01*
X160079690Y-83211933D01*
X160071809Y-83188274D01*
X160062144Y-83158012D01*
X160051244Y-83122971D01*
X160039657Y-83084974D01*
X160027931Y-83045842D01*
X160016616Y-83007399D01*
X160006261Y-82971468D01*
X159997412Y-82939870D01*
X159990620Y-82914428D01*
X159986432Y-82896966D01*
X159985509Y-82891956D01*
X159980161Y-82871372D01*
X159971735Y-82853433D01*
X159971348Y-82852855D01*
X159963428Y-82835707D01*
X159960468Y-82819373D01*
X159957739Y-82802499D01*
X159952719Y-82791800D01*
X159948152Y-82782078D01*
X159941367Y-82762902D01*
X159933261Y-82737000D01*
X159924733Y-82707098D01*
X159924319Y-82705575D01*
X159914324Y-82670378D01*
X159903237Y-82634033D01*
X159892547Y-82601295D01*
X159885237Y-82580776D01*
X159876494Y-82555475D01*
X159866187Y-82522164D01*
X159855582Y-82485111D01*
X159845946Y-82448581D01*
X159845646Y-82447385D01*
X159837408Y-82415227D01*
X159829652Y-82386491D01*
X159823137Y-82363892D01*
X159818627Y-82350148D01*
X159817916Y-82348443D01*
X159813703Y-82337249D01*
X159807019Y-82317067D01*
X159798588Y-82290324D01*
X159789129Y-82259444D01*
X159779366Y-82226853D01*
X159770019Y-82194974D01*
X159761811Y-82166234D01*
X159755462Y-82143057D01*
X159751695Y-82127869D01*
X159750973Y-82123495D01*
X159748534Y-82112123D01*
X159742910Y-82097294D01*
X159736113Y-82078016D01*
X159731256Y-82057295D01*
X159726508Y-82039412D01*
X159719889Y-82026141D01*
X159719391Y-82025535D01*
X159712175Y-82012723D01*
X159706585Y-81995684D01*
X159700437Y-81970596D01*
X159691802Y-81939400D01*
X159680177Y-81900375D01*
X159665061Y-81851800D01*
X159659935Y-81835625D01*
X159650191Y-81804530D01*
X159638013Y-81764979D01*
X159624489Y-81720546D01*
X159610708Y-81674809D01*
X159599021Y-81635600D01*
X159587641Y-81597939D01*
X159577046Y-81564268D01*
X159567868Y-81536490D01*
X159560742Y-81516509D01*
X159556300Y-81506229D01*
X159555712Y-81505425D01*
X159551868Y-81497435D01*
X159545664Y-81479819D01*
X159537830Y-81455139D01*
X159529097Y-81425958D01*
X159520195Y-81394841D01*
X159511855Y-81364350D01*
X159504807Y-81337048D01*
X159499781Y-81315501D01*
X159497508Y-81302269D01*
X159497447Y-81300945D01*
X159495133Y-81290042D01*
X159488943Y-81271144D01*
X159480009Y-81247571D01*
X159475491Y-81236549D01*
X159463809Y-81206236D01*
X159451300Y-81169796D01*
X159440023Y-81133357D01*
X159436118Y-81119410D01*
X159426119Y-81084557D01*
X159414280Y-81046808D01*
X159402596Y-81012424D01*
X159398255Y-81000600D01*
X159387052Y-80969675D01*
X159375835Y-80936494D01*
X159366696Y-80907288D01*
X159365217Y-80902175D01*
X159357485Y-80876278D01*
X159347246Y-80843872D01*
X159336173Y-80810200D01*
X159330743Y-80794225D01*
X159320205Y-80762931D01*
X159307625Y-80724483D01*
X159294568Y-80683725D01*
X159282605Y-80645501D01*
X159282451Y-80645000D01*
X159270154Y-80605915D01*
X159256347Y-80563351D01*
X159242741Y-80522518D01*
X159231332Y-80489425D01*
X159220803Y-80459135D01*
X159211196Y-80430560D01*
X159203675Y-80407218D01*
X159199807Y-80394175D01*
X159194829Y-80378447D01*
X159186344Y-80354512D01*
X159175551Y-80325648D01*
X159163890Y-80295750D01*
X159150321Y-80261340D01*
X159136188Y-80224905D01*
X159123361Y-80191296D01*
X159115369Y-80169902D01*
X159095618Y-80120302D01*
X159075469Y-80079283D01*
X159052691Y-80042903D01*
X159025052Y-80007219D01*
X159019684Y-80000909D01*
X158965764Y-79946460D01*
X158902322Y-79897074D01*
X158830077Y-79853112D01*
X158749747Y-79814933D01*
X158662051Y-79782898D01*
X158567709Y-79757367D01*
X158510772Y-79745779D01*
X158480035Y-79741470D01*
X158440975Y-79737865D01*
X158396138Y-79735029D01*
X158348069Y-79733031D01*
X158299316Y-79731937D01*
X158252423Y-79731815D01*
X158209937Y-79732732D01*
X158174403Y-79734755D01*
X158157994Y-79736461D01*
X158126686Y-79740500D01*
X158092661Y-79744833D01*
X158061605Y-79748737D01*
X158051193Y-79750028D01*
X158023792Y-79755278D01*
X157988237Y-79764966D01*
X157946451Y-79778391D01*
X157900362Y-79794853D01*
X157851895Y-79813651D01*
X157802976Y-79834084D01*
X157755532Y-79855450D01*
X157736315Y-79864628D01*
X157702565Y-79885061D01*
X157665407Y-79914405D01*
X157626879Y-79950529D01*
X157589018Y-79991299D01*
X157553861Y-80034586D01*
X157523446Y-80078256D01*
X157509070Y-80102398D01*
X157501656Y-80117720D01*
X157490917Y-80142549D01*
X157477757Y-80174663D01*
X157463079Y-80211840D01*
X157447786Y-80251857D01*
X157441947Y-80267495D01*
X157427052Y-80307431D01*
X157412924Y-80344899D01*
X157400361Y-80377813D01*
X157390162Y-80404087D01*
X157383126Y-80421634D01*
X157381295Y-80425925D01*
X157373337Y-80448072D01*
X157366501Y-80474212D01*
X157364538Y-80484430D01*
X157358829Y-80508850D01*
X157349867Y-80536812D01*
X157342809Y-80554699D01*
X157333714Y-80577430D01*
X157322930Y-80607329D01*
X157312191Y-80639495D01*
X157307366Y-80654943D01*
X157299975Y-80678810D01*
X157289485Y-80712039D01*
X157276700Y-80752115D01*
X157262425Y-80796521D01*
X157247465Y-80842743D01*
X157237418Y-80873600D01*
X157220656Y-80925291D01*
X157202428Y-80982097D01*
X157183969Y-81040127D01*
X157166514Y-81095493D01*
X157151298Y-81144305D01*
X157146533Y-81159765D01*
X157132991Y-81203374D01*
X157118948Y-81247735D01*
X157105405Y-81289742D01*
X157093365Y-81326290D01*
X157083830Y-81354275D01*
X157083006Y-81356615D01*
X157071690Y-81389908D01*
X157058755Y-81429999D01*
X157045884Y-81471570D01*
X157035871Y-81505425D01*
X157017227Y-81569818D01*
X156999299Y-81630720D01*
X156982469Y-81686895D01*
X156967118Y-81737104D01*
X156953630Y-81780114D01*
X156942386Y-81814686D01*
X156933769Y-81839586D01*
X156928340Y-81853206D01*
X156922872Y-81867627D01*
X156915352Y-81891527D01*
X156906591Y-81922125D01*
X156897403Y-81956636D01*
X156892803Y-81974894D01*
X156882486Y-82015106D01*
X156870977Y-82057414D01*
X156859506Y-82097435D01*
X156849307Y-82130788D01*
X156846863Y-82138288D01*
X156836907Y-82169087D01*
X156824887Y-82207550D01*
X156812159Y-82249267D01*
X156800080Y-82289829D01*
X156797349Y-82299175D01*
X156784053Y-82344628D01*
X156767735Y-82399997D01*
X156749013Y-82463210D01*
X156728504Y-82532194D01*
X156706825Y-82604877D01*
X156684593Y-82679186D01*
X156662426Y-82753050D01*
X156640940Y-82824395D01*
X156639430Y-82829400D01*
X156625741Y-82874816D01*
X156609739Y-82928001D01*
X156592699Y-82984715D01*
X156575895Y-83040717D01*
X156560600Y-83091768D01*
X156559303Y-83096100D01*
X156533357Y-83182755D01*
X156510731Y-83258194D01*
X156491180Y-83323217D01*
X156474460Y-83378626D01*
X156460327Y-83425222D01*
X156448534Y-83463805D01*
X156438837Y-83495177D01*
X156430992Y-83520138D01*
X156424753Y-83539490D01*
X156419875Y-83554034D01*
X156416114Y-83564570D01*
X156415968Y-83564961D01*
X156409092Y-83584717D01*
X156406878Y-83596246D01*
X156408946Y-83602614D01*
X156411087Y-83604551D01*
X156417810Y-83605504D01*
X156434783Y-83606401D01*
X156461232Y-83607233D01*
X156496383Y-83607990D01*
X156539461Y-83608660D01*
X156589694Y-83609233D01*
X156646306Y-83609700D01*
X156708524Y-83610049D01*
X156775573Y-83610270D01*
X156843670Y-83610352D01*
X156925985Y-83610328D01*
X156997885Y-83610210D01*
X157059978Y-83609984D01*
X157112874Y-83609642D01*
X157157181Y-83609172D01*
X157193508Y-83608563D01*
X157222465Y-83607803D01*
X157244659Y-83606882D01*
X157260700Y-83605789D01*
X157271196Y-83604514D01*
X157276757Y-83603043D01*
X157277615Y-83602512D01*
X157281953Y-83594528D01*
X157289299Y-83576274D01*
X157299039Y-83549477D01*
X157310563Y-83515861D01*
X157323259Y-83477154D01*
X157333328Y-83445350D01*
X157347142Y-83401121D01*
X157359808Y-83360765D01*
X157371958Y-83322306D01*
X157384227Y-83283766D01*
X157397249Y-83243169D01*
X157411658Y-83198537D01*
X157428089Y-83147894D01*
X157447174Y-83089263D01*
X157468763Y-83023075D01*
X157480901Y-82985497D01*
X157495258Y-82940432D01*
X157510414Y-82892378D01*
X157524946Y-82845834D01*
X157531991Y-82823050D01*
X157543427Y-82786374D01*
X157554213Y-82752647D01*
X157563587Y-82724185D01*
X157570787Y-82703305D01*
X157574795Y-82692875D01*
X157580191Y-82679057D01*
X157588033Y-82656661D01*
X157597151Y-82629108D01*
X157604095Y-82607206D01*
X157613153Y-82578893D01*
X157621578Y-82554032D01*
X157628303Y-82535688D01*
X157631707Y-82527831D01*
X157636851Y-82514478D01*
X157642496Y-82494193D01*
X157645523Y-82480636D01*
X157651819Y-82455300D01*
X157660762Y-82426297D01*
X157667482Y-82407611D01*
X157674704Y-82387712D01*
X157684397Y-82359061D01*
X157695486Y-82324933D01*
X157706896Y-82288601D01*
X157711434Y-82273775D01*
X157721031Y-82242732D01*
X157733775Y-82202387D01*
X157748845Y-82155287D01*
X157765422Y-82103979D01*
X157782686Y-82051011D01*
X157799816Y-81998930D01*
X157802374Y-81991200D01*
X157818514Y-81942212D01*
X157834115Y-81894398D01*
X157848533Y-81849763D01*
X157861125Y-81810315D01*
X157871247Y-81778061D01*
X157878255Y-81755008D01*
X157879736Y-81749900D01*
X157885958Y-81728944D01*
X157895383Y-81698441D01*
X157907277Y-81660702D01*
X157920907Y-81618043D01*
X157935540Y-81572778D01*
X157947170Y-81537175D01*
X157962982Y-81488658D01*
X157979176Y-81438347D01*
X157994817Y-81389200D01*
X158008966Y-81344172D01*
X158020686Y-81306222D01*
X158026297Y-81287625D01*
X158036783Y-81253293D01*
X158047128Y-81221015D01*
X158056344Y-81193769D01*
X158063442Y-81174534D01*
X158065287Y-81170150D01*
X158071419Y-81154646D01*
X158080178Y-81130068D01*
X158090563Y-81099337D01*
X158101575Y-81065372D01*
X158105973Y-81051400D01*
X158117695Y-81014201D01*
X158129826Y-80976364D01*
X158141117Y-80941748D01*
X158150316Y-80914211D01*
X158152267Y-80908525D01*
X158160381Y-80884133D01*
X158170837Y-80851323D01*
X158182500Y-80813728D01*
X158194234Y-80774980D01*
X158198892Y-80759300D01*
X158209384Y-80724397D01*
X158219396Y-80692259D01*
X158228096Y-80665477D01*
X158234651Y-80646643D01*
X158237157Y-80640344D01*
X158252631Y-80618605D01*
X158274166Y-80605096D01*
X158298949Y-80600514D01*
X158324166Y-80605557D01*
X158340122Y-80614837D01*
X158346780Y-80621401D01*
X158353689Y-80631447D01*
X158361243Y-80646032D01*
X158369833Y-80666217D01*
X158379853Y-80693060D01*
X158391695Y-80727619D01*
X158405754Y-80770953D01*
X158422422Y-80824122D01*
X158442092Y-80888184D01*
X158444420Y-80895825D01*
X158457328Y-80937928D01*
X158471212Y-80982742D01*
X158484770Y-81026095D01*
X158496701Y-81063814D01*
X158501881Y-81079975D01*
X158515443Y-81122250D01*
X158531857Y-81173804D01*
X158550356Y-81232196D01*
X158570173Y-81294984D01*
X158590541Y-81359728D01*
X158610691Y-81423985D01*
X158629858Y-81485314D01*
X158647274Y-81541274D01*
X158662171Y-81589424D01*
X158670499Y-81616550D01*
X158682980Y-81656859D01*
X158696198Y-81698656D01*
X158708922Y-81738102D01*
X158719919Y-81771359D01*
X158724509Y-81784825D01*
X158733429Y-81811855D01*
X158743990Y-81845851D01*
X158755440Y-81884168D01*
X158767025Y-81924161D01*
X158777991Y-81963185D01*
X158787587Y-81998595D01*
X158795058Y-82027746D01*
X158799652Y-82047994D01*
X158800046Y-82050099D01*
X158806441Y-82068254D01*
X158814066Y-82080244D01*
X158819653Y-82090541D01*
X158827700Y-82110433D01*
X158837292Y-82137425D01*
X158847515Y-82169022D01*
X158851837Y-82183270D01*
X158875216Y-82261513D01*
X158897038Y-82333732D01*
X158916979Y-82398879D01*
X158934714Y-82455911D01*
X158949919Y-82503782D01*
X158962269Y-82541447D01*
X158969726Y-82563110D01*
X158981017Y-82596217D01*
X158992991Y-82633561D01*
X159003236Y-82667595D01*
X159004107Y-82670650D01*
X159013231Y-82701369D01*
X159024669Y-82737775D01*
X159036504Y-82773825D01*
X159041380Y-82788125D01*
X159051244Y-82817568D01*
X159063274Y-82854922D01*
X159076161Y-82896044D01*
X159088596Y-82936791D01*
X159092555Y-82950050D01*
X159111167Y-83012278D01*
X159130375Y-83075559D01*
X159149600Y-83138051D01*
X159168264Y-83197910D01*
X159185787Y-83253296D01*
X159201590Y-83302364D01*
X159215094Y-83343274D01*
X159225722Y-83374181D01*
X159226641Y-83376756D01*
X159237268Y-83407997D01*
X159249441Y-83446349D01*
X159261589Y-83486743D01*
X159271289Y-83520963D01*
X159279893Y-83551458D01*
X159287753Y-83577421D01*
X159294122Y-83596514D01*
X159298253Y-83606399D01*
X159298873Y-83607177D01*
X159304646Y-83607457D01*
X159320677Y-83607742D01*
X159346199Y-83608031D01*
X159380446Y-83608321D01*
X159422651Y-83608610D01*
X159472047Y-83608898D01*
X159527869Y-83609181D01*
X159589348Y-83609458D01*
X159655719Y-83609728D01*
X159726216Y-83609988D01*
X159800071Y-83610237D01*
X159876518Y-83610472D01*
X159954790Y-83610693D01*
X160034121Y-83610896D01*
X160113745Y-83611081D01*
X160192894Y-83611245D01*
X160270802Y-83611387D01*
X160346703Y-83611505D01*
X160419830Y-83611596D01*
X160489417Y-83611660D01*
X160554696Y-83611694D01*
X160614902Y-83611696D01*
X160669267Y-83611665D01*
X160717025Y-83611599D01*
X160757410Y-83611496D01*
X160789655Y-83611353D01*
X160812994Y-83611170D01*
X160826659Y-83610945D01*
X160829293Y-83610839D01*
X160833474Y-83604912D01*
X160838255Y-83589842D01*
X160842159Y-83571262D01*
X160846966Y-83547832D01*
X160854331Y-83517367D01*
X160863036Y-83484763D01*
X160867840Y-83468074D01*
X160876627Y-83436528D01*
X160886650Y-83397487D01*
X160896695Y-83355836D01*
X160905548Y-83316462D01*
X160905823Y-83315175D01*
X160915127Y-83273711D01*
X160926528Y-83226028D01*
X160938599Y-83177941D01*
X160949914Y-83135264D01*
X160950207Y-83134200D01*
X160963939Y-83083261D01*
X160974881Y-83039696D01*
X160984086Y-82998976D01*
X160992611Y-82956571D01*
X160996791Y-82934175D01*
X161002102Y-82906593D01*
X161007956Y-82879583D01*
X161015086Y-82850142D01*
X161024225Y-82815267D01*
X161036108Y-82771955D01*
X161038681Y-82762725D01*
X161049712Y-82721754D01*
X161061910Y-82674074D01*
X161073866Y-82625324D01*
X161084169Y-82581145D01*
X161085095Y-82577016D01*
X161093114Y-82542221D01*
X161100903Y-82510498D01*
X161107777Y-82484487D01*
X161113052Y-82466832D01*
X161114895Y-82461923D01*
X161119163Y-82450978D01*
X161124106Y-82435262D01*
X161130067Y-82413419D01*
X161137391Y-82384093D01*
X161146422Y-82345925D01*
X161157503Y-82297559D01*
X161165017Y-82264250D01*
X161172901Y-82230866D01*
X161180877Y-82200050D01*
X161188107Y-82174853D01*
X161193754Y-82158327D01*
X161194635Y-82156300D01*
X161199448Y-82142921D01*
X161206307Y-82119750D01*
X161214527Y-82089297D01*
X161223425Y-82054074D01*
X161230548Y-82024262D01*
X161240376Y-81983382D01*
X161250927Y-81941782D01*
X161261249Y-81903074D01*
X161270388Y-81870867D01*
X161274965Y-81855987D01*
X161283468Y-81828374D01*
X161293904Y-81792569D01*
X161305134Y-81752579D01*
X161316020Y-81712411D01*
X161319526Y-81699100D01*
X161330192Y-81659561D01*
X161341834Y-81618590D01*
X161353253Y-81580278D01*
X161363247Y-81548714D01*
X161366073Y-81540350D01*
X161375567Y-81511542D01*
X161386985Y-81474832D01*
X161399040Y-81434470D01*
X161410445Y-81394701D01*
X161413005Y-81385489D01*
X161422999Y-81350879D01*
X161433055Y-81318872D01*
X161442245Y-81292234D01*
X161449642Y-81273732D01*
X161452177Y-81268730D01*
X161462431Y-81247002D01*
X161470245Y-81223166D01*
X161470885Y-81220391D01*
X161476496Y-81198817D01*
X161485968Y-81167506D01*
X161498646Y-81128301D01*
X161513873Y-81083048D01*
X161530992Y-81033594D01*
X161549347Y-80981783D01*
X161568281Y-80929461D01*
X161587137Y-80878474D01*
X161605258Y-80830667D01*
X161621989Y-80787886D01*
X161636672Y-80751977D01*
X161641841Y-80739911D01*
X161656615Y-80708416D01*
X161674705Y-80673466D01*
X161694422Y-80637997D01*
X161714081Y-80604945D01*
X161731993Y-80577244D01*
X161746472Y-80557830D01*
X161746546Y-80557744D01*
X161770664Y-80537802D01*
X161798350Y-80528282D01*
X161827653Y-80528616D01*
X161856622Y-80538233D01*
X161883305Y-80556561D01*
X161905750Y-80583033D01*
X161918691Y-80608039D01*
X161922174Y-80616495D01*
X161925359Y-80624180D01*
X161928259Y-80631667D01*
X161930889Y-80639530D01*
X161933262Y-80648343D01*
X161935391Y-80658679D01*
X161937290Y-80671112D01*
X161938972Y-80686215D01*
X161940451Y-80704563D01*
X161941740Y-80726729D01*
X161942853Y-80753286D01*
X161943804Y-80784808D01*
X161944605Y-80821869D01*
X161945271Y-80865043D01*
X161945815Y-80914903D01*
X161946251Y-80972022D01*
X161946591Y-81036975D01*
X161946850Y-81110335D01*
X161947042Y-81192676D01*
X161947178Y-81284571D01*
X161947274Y-81386595D01*
X161947343Y-81499319D01*
X161947398Y-81623320D01*
X161947452Y-81759169D01*
X161947482Y-81829275D01*
X161947990Y-82953225D01*
X161962885Y-83016271D01*
X161988798Y-83102129D01*
X162024630Y-83183713D01*
X162069776Y-83260523D01*
X162123629Y-83332059D01*
X162185582Y-83397820D01*
X162255030Y-83457306D01*
X162331364Y-83510016D01*
X162413979Y-83555450D01*
X162502269Y-83593107D01*
X162595626Y-83622487D01*
X162693444Y-83643090D01*
X162728730Y-83648148D01*
X162756362Y-83650644D01*
X162792233Y-83652429D01*
X162833576Y-83653503D01*
X162877624Y-83653863D01*
X162921609Y-83653506D01*
X162962762Y-83652430D01*
X162998318Y-83650634D01*
X163023285Y-83648394D01*
X163117085Y-83631346D01*
X163212401Y-83603120D01*
X163307011Y-83564486D01*
X163390919Y-83520762D01*
X163480971Y-83461743D01*
X163563698Y-83393306D01*
X163638899Y-83315725D01*
X163706374Y-83229272D01*
X163765923Y-83134221D01*
X163817345Y-83030844D01*
X163860442Y-82919415D01*
X163881424Y-82851625D01*
X163893121Y-82809635D01*
X163907076Y-82758446D01*
X163922630Y-82700561D01*
X163939128Y-82638482D01*
X163955911Y-82574711D01*
X163972325Y-82511750D01*
X163987710Y-82452102D01*
X164001411Y-82398268D01*
X164012770Y-82352752D01*
X164017480Y-82333421D01*
X164026766Y-82296112D01*
X164038361Y-82251401D01*
X164051038Y-82203917D01*
X164063572Y-82158285D01*
X164068794Y-82139746D01*
X164079532Y-82101437D01*
X164089746Y-82064012D01*
X164098629Y-82030495D01*
X164105376Y-82003912D01*
X164108363Y-81991200D01*
X164113191Y-81970967D01*
X164120664Y-81941774D01*
X164129964Y-81906716D01*
X164140276Y-81868890D01*
X164146890Y-81845150D01*
X164158822Y-81802464D01*
X164171656Y-81756130D01*
X164184119Y-81710773D01*
X164194935Y-81671023D01*
X164198489Y-81657825D01*
X164207889Y-81623567D01*
X164219511Y-81582454D01*
X164232714Y-81536634D01*
X164246860Y-81488256D01*
X164261308Y-81439470D01*
X164275419Y-81392425D01*
X164288552Y-81349270D01*
X164300069Y-81312155D01*
X164309329Y-81283229D01*
X164314729Y-81267300D01*
X164321333Y-81247828D01*
X164330359Y-81219921D01*
X164340668Y-81187159D01*
X164351118Y-81153125D01*
X164352116Y-81149825D01*
X164362191Y-81117248D01*
X164371980Y-81086961D01*
X164380460Y-81062042D01*
X164386610Y-81045569D01*
X164387333Y-81043868D01*
X164393099Y-81029553D01*
X164401887Y-81006281D01*
X164412646Y-80976898D01*
X164424326Y-80944247D01*
X164428378Y-80932743D01*
X164449720Y-80875463D01*
X164473558Y-80817685D01*
X164498978Y-80761211D01*
X164525063Y-80707845D01*
X164550901Y-80659388D01*
X164575576Y-80617643D01*
X164598173Y-80584412D01*
X164615782Y-80563471D01*
X164645942Y-80540060D01*
X164677345Y-80528558D01*
X164708698Y-80528517D01*
X164738708Y-80539488D01*
X164766083Y-80561020D01*
X164789530Y-80592664D01*
X164806309Y-80629716D01*
X164819431Y-80667225D01*
X164822187Y-82129824D01*
X164822491Y-82290508D01*
X164822777Y-82438977D01*
X164823050Y-82575719D01*
X164823314Y-82701218D01*
X164823573Y-82815962D01*
X164823832Y-82920435D01*
X164824096Y-83015125D01*
X164824368Y-83100516D01*
X164824653Y-83177095D01*
X164824956Y-83245347D01*
X164825281Y-83305760D01*
X164825632Y-83358818D01*
X164826015Y-83405008D01*
X164826433Y-83444816D01*
X164826890Y-83478728D01*
X164827393Y-83507229D01*
X164827943Y-83530806D01*
X164828547Y-83549945D01*
X164829209Y-83565131D01*
X164829933Y-83576851D01*
X164830723Y-83585590D01*
X164831584Y-83591835D01*
X164832520Y-83596071D01*
X164833537Y-83598785D01*
X164834638Y-83600463D01*
X164835643Y-83601437D01*
X164839180Y-83603225D01*
X164845734Y-83604768D01*
X164856042Y-83606082D01*
X164870840Y-83607186D01*
X164890865Y-83608096D01*
X164916855Y-83608829D01*
X164949545Y-83609401D01*
X164989674Y-83609830D01*
X165037978Y-83610132D01*
X165095193Y-83610325D01*
X165162057Y-83610425D01*
X165228384Y-83610450D01*
X165302515Y-83610442D01*
X165366410Y-83610403D01*
X165420854Y-83610307D01*
X165466635Y-83610127D01*
X165504541Y-83609839D01*
X165535357Y-83609416D01*
X165559871Y-83608833D01*
X165578871Y-83608064D01*
X165593142Y-83607083D01*
X165603474Y-83605866D01*
X165610651Y-83604385D01*
X165615462Y-83602616D01*
X165618694Y-83600533D01*
X165621133Y-83598109D01*
X165621563Y-83597619D01*
X165622727Y-83596195D01*
X165623807Y-83594396D01*
X165624804Y-83591759D01*
X165625723Y-83587823D01*
X165626564Y-83582125D01*
X165627332Y-83574201D01*
X165628028Y-83563589D01*
X165628656Y-83549827D01*
X165629217Y-83532453D01*
X165629716Y-83511002D01*
X165630153Y-83485014D01*
X165630532Y-83454025D01*
X165630856Y-83417572D01*
X165631127Y-83375194D01*
X165631348Y-83326427D01*
X165631521Y-83270809D01*
X165631650Y-83207877D01*
X165631736Y-83137169D01*
X165631783Y-83058222D01*
X165631793Y-82970573D01*
X165631769Y-82873760D01*
X165631713Y-82767321D01*
X165631628Y-82650792D01*
X165631517Y-82523711D01*
X165631382Y-82385616D01*
X165631227Y-82236044D01*
X165631053Y-82074532D01*
X165630933Y-81964081D01*
X165630753Y-81793342D01*
X165630593Y-81634826D01*
X165630444Y-81488056D01*
X165630299Y-81352556D01*
X165630148Y-81227848D01*
X165629983Y-81113455D01*
X165629796Y-81008900D01*
X165629577Y-80913708D01*
X165629318Y-80827400D01*
X165629011Y-80749499D01*
X165628647Y-80679530D01*
X165628217Y-80617015D01*
X165627713Y-80561476D01*
X165627127Y-80512438D01*
X165626449Y-80469423D01*
X165625671Y-80431955D01*
X165624785Y-80399556D01*
X165623781Y-80371749D01*
X165622653Y-80348058D01*
X165621389Y-80328006D01*
X165619984Y-80311116D01*
X165618427Y-80296910D01*
X165616709Y-80284913D01*
X165614824Y-80274647D01*
X165612761Y-80265635D01*
X165610513Y-80257400D01*
X165608071Y-80249465D01*
X165605426Y-80241354D01*
X165602569Y-80232590D01*
X165599627Y-80223141D01*
X165572197Y-80150633D01*
X165534586Y-80080236D01*
X165487592Y-80012895D01*
X165432011Y-79949551D01*
X165368640Y-79891147D01*
X165298275Y-79838627D01*
X165248451Y-79807678D01*
X165166402Y-79765671D01*
X165080432Y-79731989D01*
X164989343Y-79706322D01*
X164891939Y-79688359D01*
X164787022Y-79677790D01*
X164738950Y-79675429D01*
X164637659Y-79674996D01*
X164544545Y-79681339D01*
X164544545Y-79681339D01*
G37*
X164544545Y-79681339D02*
X164458253Y-79694850D01*
X164377429Y-79715923D01*
X164300719Y-79744950D01*
X164226770Y-79782324D01*
X164154227Y-79828439D01*
X164116638Y-79855982D01*
X164079320Y-79887335D01*
X164038027Y-79926842D01*
X163994911Y-79972097D01*
X163952125Y-80020695D01*
X163911819Y-80070232D01*
X163876146Y-80118301D01*
X163858393Y-80144614D01*
X163798428Y-80245133D01*
X163740637Y-80357428D01*
X163685334Y-80480757D01*
X163632838Y-80614378D01*
X163583464Y-80757548D01*
X163548767Y-80870425D01*
X163536904Y-80910702D01*
X163525458Y-80949014D01*
X163515163Y-80982948D01*
X163506752Y-81010091D01*
X163500958Y-81028031D01*
X163500251Y-81030094D01*
X163494790Y-81047837D01*
X163487392Y-81074779D01*
X163478868Y-81107819D01*
X163470029Y-81143859D01*
X163466157Y-81160269D01*
X163456479Y-81200891D01*
X163445842Y-81244003D01*
X163435392Y-81285054D01*
X163426271Y-81319494D01*
X163424338Y-81326520D01*
X163416505Y-81356349D01*
X163407095Y-81394766D01*
X163396999Y-81437984D01*
X163387108Y-81482214D01*
X163381010Y-81510670D01*
X163371961Y-81552554D01*
X163362307Y-81595130D01*
X163352876Y-81634883D01*
X163344498Y-81668297D01*
X163339598Y-81686400D01*
X163332468Y-81713136D01*
X163323685Y-81748719D01*
X163314082Y-81789622D01*
X163304493Y-81832317D01*
X163298160Y-81861739D01*
X163288594Y-81905566D01*
X163277904Y-81951989D01*
X163267080Y-81996860D01*
X163257113Y-82036033D01*
X163251863Y-82055414D01*
X163241699Y-82092441D01*
X163231155Y-82132160D01*
X163221598Y-82169351D01*
X163215433Y-82194400D01*
X163208098Y-82223570D01*
X163198143Y-82260818D01*
X163186177Y-82304073D01*
X163172806Y-82351263D01*
X163158639Y-82400316D01*
X163144282Y-82449163D01*
X163130344Y-82495731D01*
X163117431Y-82537950D01*
X163106151Y-82573748D01*
X163097111Y-82601055D01*
X163092166Y-82614718D01*
X163063925Y-82677600D01*
X163033003Y-82728293D01*
X162999281Y-82766958D01*
X162962642Y-82793759D01*
X162962247Y-82793975D01*
X162929794Y-82808007D01*
X162895566Y-82816613D01*
X162863324Y-82819121D01*
X162839987Y-82815869D01*
X162821210Y-82806713D01*
X162802223Y-82791570D01*
X162786160Y-82773583D01*
X162776159Y-82755898D01*
X162774670Y-82750361D01*
X162772363Y-82738007D01*
X162768287Y-82717472D01*
X162763269Y-82692920D01*
X162762601Y-82689700D01*
X162761371Y-82683267D01*
X162760247Y-82675947D01*
X162759221Y-82667169D01*
X162758291Y-82656366D01*
X162757449Y-82642967D01*
X162756692Y-82626405D01*
X162756014Y-82606110D01*
X162755410Y-82581514D01*
X162754874Y-82552048D01*
X162754402Y-82517142D01*
X162753988Y-82476228D01*
X162753628Y-82428737D01*
X162753315Y-82374101D01*
X162753046Y-82311750D01*
X162752814Y-82241115D01*
X162752615Y-82161628D01*
X162752444Y-82072720D01*
X162752294Y-81973821D01*
X162752162Y-81864364D01*
X162752042Y-81743778D01*
X162751929Y-81611496D01*
X162751844Y-81502250D01*
X162751705Y-81347260D01*
X162751528Y-81204646D01*
X162751313Y-81074084D01*
X162751057Y-80955249D01*
X162750758Y-80847816D01*
X162750414Y-80751463D01*
X162750024Y-80665863D01*
X162749585Y-80590694D01*
X162749096Y-80525631D01*
X162748553Y-80470350D01*
X162747957Y-80424526D01*
X162747303Y-80387835D01*
X162746591Y-80359953D01*
X162745819Y-80340556D01*
X162744984Y-80329319D01*
X162744723Y-80327500D01*
X162735355Y-80281359D01*
X162724282Y-80240506D01*
X162709839Y-80199509D01*
X162693324Y-80159698D01*
X162671353Y-80111534D01*
X162650746Y-80072001D01*
X162629399Y-80037674D01*
X162605210Y-80005130D01*
X162580513Y-79975933D01*
X162514837Y-79910229D01*
X162440488Y-79851753D01*
X162358033Y-79800796D01*
X162268034Y-79757654D01*
X162171058Y-79722620D01*
X162067669Y-79695987D01*
X162027526Y-79688255D01*
X162003669Y-79684575D01*
X161977982Y-79681740D01*
X161948720Y-79679661D01*
X161914135Y-79678250D01*
X161872482Y-79677416D01*
X161822016Y-79677073D01*
X161807039Y-79677053D01*
X161753255Y-79677253D01*
X161708495Y-79678111D01*
X161670765Y-79679939D01*
X161638070Y-79683046D01*
X161608414Y-79687743D01*
X161579803Y-79694340D01*
X161550241Y-79703149D01*
X161517733Y-79714480D01*
X161483439Y-79727425D01*
X161392679Y-79769063D01*
X161306370Y-79822171D01*
X161224767Y-79886475D01*
X161148126Y-79961699D01*
X161076702Y-80047569D01*
X161010750Y-80143812D01*
X160950527Y-80250152D01*
X160902475Y-80351857D01*
X160887817Y-80385516D01*
X160874311Y-80416205D01*
X160862947Y-80441695D01*
X160854720Y-80459755D01*
X160851144Y-80467200D01*
X160844154Y-80483715D01*
X160835201Y-80509175D01*
X160825257Y-80540281D01*
X160815297Y-80573736D01*
X160806293Y-80606243D01*
X160799219Y-80634505D01*
X160795049Y-80655224D01*
X160794583Y-80658761D01*
X160790237Y-80680890D01*
X160783293Y-80690779D01*
X160782443Y-80691103D01*
X160776407Y-80698362D01*
X160769199Y-80717118D01*
X160760652Y-80747835D01*
X160757696Y-80759891D01*
X160749799Y-80791905D01*
X160739758Y-80831182D01*
X160728820Y-80872904D01*
X160718237Y-80912251D01*
X160717519Y-80914875D01*
X160706178Y-80957054D01*
X160693523Y-81005399D01*
X160681132Y-81053818D01*
X160670974Y-81094612D01*
X160661239Y-81133217D01*
X160650550Y-81173544D01*
X160640122Y-81211129D01*
X160631168Y-81241507D01*
X160630146Y-81244787D01*
X160623032Y-81268529D01*
X160614247Y-81299549D01*
X160604306Y-81335851D01*
X160593724Y-81375440D01*
X160583014Y-81416318D01*
X160572692Y-81456489D01*
X160563272Y-81493956D01*
X160555267Y-81526724D01*
X160549194Y-81552795D01*
X160545566Y-81570173D01*
X160544756Y-81576144D01*
X160540680Y-81588650D01*
X160536549Y-81593624D01*
X160532697Y-81601509D01*
X160526586Y-81619264D01*
X160518857Y-81644504D01*
X160510150Y-81674845D01*
X160501106Y-81707905D01*
X160492364Y-81741298D01*
X160484566Y-81772643D01*
X160478351Y-81799554D01*
X160474360Y-81819648D01*
X160473195Y-81829467D01*
X160471082Y-81841051D01*
X160465538Y-81860636D01*
X160457618Y-81884622D01*
X160454634Y-81892967D01*
X160446133Y-81918697D01*
X160436191Y-81952582D01*
X160425978Y-81990442D01*
X160416662Y-82028093D01*
X160415643Y-82032475D01*
X160404122Y-82081776D01*
X160394768Y-82120297D01*
X160387149Y-82149598D01*
X160380835Y-82171239D01*
X160375392Y-82186781D01*
X160370391Y-82197786D01*
X160369496Y-82199421D01*
X160362705Y-82215729D01*
X160357222Y-82235834D01*
X160356893Y-82237521D01*
X160352642Y-82258044D01*
X160346368Y-82284625D01*
X160337778Y-82318372D01*
X160326582Y-82360395D01*
X160312487Y-82411802D01*
X160295202Y-82473702D01*
X160288020Y-82499200D01*
X160275469Y-82544368D01*
X160263150Y-82589961D01*
X160251811Y-82633115D01*
X160242200Y-82670970D01*
X160235064Y-82700662D01*
X160233256Y-82708750D01*
X160225815Y-82740303D01*
X160217545Y-82770961D01*
X160209686Y-82796305D01*
X160205660Y-82807175D01*
X160197998Y-82828878D01*
X160189664Y-82857478D01*
X160182247Y-82887442D01*
X160181059Y-82892900D01*
X160171728Y-82933263D01*
X160159705Y-82980067D01*
X160146404Y-83028137D01*
X160133238Y-83072304D01*
X160125545Y-83096100D01*
X160119435Y-83116207D01*
X160112068Y-83143336D01*
X160104871Y-83172189D01*
X160103711Y-83177128D01*
X160097784Y-83201208D01*
X160092508Y-83220121D01*
X160088745Y-83230856D01*
X160087905Y-83232157D01*
X160085238Y-83227169D01*
X160079690Y-83211933D01*
X160071809Y-83188274D01*
X160062144Y-83158012D01*
X160051244Y-83122971D01*
X160039657Y-83084974D01*
X160027931Y-83045842D01*
X160016616Y-83007399D01*
X160006261Y-82971468D01*
X159997412Y-82939870D01*
X159990620Y-82914428D01*
X159986432Y-82896966D01*
X159985509Y-82891956D01*
X159980161Y-82871372D01*
X159971735Y-82853433D01*
X159971348Y-82852855D01*
X159963428Y-82835707D01*
X159960468Y-82819373D01*
X159957739Y-82802499D01*
X159952719Y-82791800D01*
X159948152Y-82782078D01*
X159941367Y-82762902D01*
X159933261Y-82737000D01*
X159924733Y-82707098D01*
X159924319Y-82705575D01*
X159914324Y-82670378D01*
X159903237Y-82634033D01*
X159892547Y-82601295D01*
X159885237Y-82580776D01*
X159876494Y-82555475D01*
X159866187Y-82522164D01*
X159855582Y-82485111D01*
X159845946Y-82448581D01*
X159845646Y-82447385D01*
X159837408Y-82415227D01*
X159829652Y-82386491D01*
X159823137Y-82363892D01*
X159818627Y-82350148D01*
X159817916Y-82348443D01*
X159813703Y-82337249D01*
X159807019Y-82317067D01*
X159798588Y-82290324D01*
X159789129Y-82259444D01*
X159779366Y-82226853D01*
X159770019Y-82194974D01*
X159761811Y-82166234D01*
X159755462Y-82143057D01*
X159751695Y-82127869D01*
X159750973Y-82123495D01*
X159748534Y-82112123D01*
X159742910Y-82097294D01*
X159736113Y-82078016D01*
X159731256Y-82057295D01*
X159726508Y-82039412D01*
X159719889Y-82026141D01*
X159719391Y-82025535D01*
X159712175Y-82012723D01*
X159706585Y-81995684D01*
X159700437Y-81970596D01*
X159691802Y-81939400D01*
X159680177Y-81900375D01*
X159665061Y-81851800D01*
X159659935Y-81835625D01*
X159650191Y-81804530D01*
X159638013Y-81764979D01*
X159624489Y-81720546D01*
X159610708Y-81674809D01*
X159599021Y-81635600D01*
X159587641Y-81597939D01*
X159577046Y-81564268D01*
X159567868Y-81536490D01*
X159560742Y-81516509D01*
X159556300Y-81506229D01*
X159555712Y-81505425D01*
X159551868Y-81497435D01*
X159545664Y-81479819D01*
X159537830Y-81455139D01*
X159529097Y-81425958D01*
X159520195Y-81394841D01*
X159511855Y-81364350D01*
X159504807Y-81337048D01*
X159499781Y-81315501D01*
X159497508Y-81302269D01*
X159497447Y-81300945D01*
X159495133Y-81290042D01*
X159488943Y-81271144D01*
X159480009Y-81247571D01*
X159475491Y-81236549D01*
X159463809Y-81206236D01*
X159451300Y-81169796D01*
X159440023Y-81133357D01*
X159436118Y-81119410D01*
X159426119Y-81084557D01*
X159414280Y-81046808D01*
X159402596Y-81012424D01*
X159398255Y-81000600D01*
X159387052Y-80969675D01*
X159375835Y-80936494D01*
X159366696Y-80907288D01*
X159365217Y-80902175D01*
X159357485Y-80876278D01*
X159347246Y-80843872D01*
X159336173Y-80810200D01*
X159330743Y-80794225D01*
X159320205Y-80762931D01*
X159307625Y-80724483D01*
X159294568Y-80683725D01*
X159282605Y-80645501D01*
X159282451Y-80645000D01*
X159270154Y-80605915D01*
X159256347Y-80563351D01*
X159242741Y-80522518D01*
X159231332Y-80489425D01*
X159220803Y-80459135D01*
X159211196Y-80430560D01*
X159203675Y-80407218D01*
X159199807Y-80394175D01*
X159194829Y-80378447D01*
X159186344Y-80354512D01*
X159175551Y-80325648D01*
X159163890Y-80295750D01*
X159150321Y-80261340D01*
X159136188Y-80224905D01*
X159123361Y-80191296D01*
X159115369Y-80169902D01*
X159095618Y-80120302D01*
X159075469Y-80079283D01*
X159052691Y-80042903D01*
X159025052Y-80007219D01*
X159019684Y-80000909D01*
X158965764Y-79946460D01*
X158902322Y-79897074D01*
X158830077Y-79853112D01*
X158749747Y-79814933D01*
X158662051Y-79782898D01*
X158567709Y-79757367D01*
X158510772Y-79745779D01*
X158480035Y-79741470D01*
X158440975Y-79737865D01*
X158396138Y-79735029D01*
X158348069Y-79733031D01*
X158299316Y-79731937D01*
X158252423Y-79731815D01*
X158209937Y-79732732D01*
X158174403Y-79734755D01*
X158157994Y-79736461D01*
X158126686Y-79740500D01*
X158092661Y-79744833D01*
X158061605Y-79748737D01*
X158051193Y-79750028D01*
X158023792Y-79755278D01*
X157988237Y-79764966D01*
X157946451Y-79778391D01*
X157900362Y-79794853D01*
X157851895Y-79813651D01*
X157802976Y-79834084D01*
X157755532Y-79855450D01*
X157736315Y-79864628D01*
X157702565Y-79885061D01*
X157665407Y-79914405D01*
X157626879Y-79950529D01*
X157589018Y-79991299D01*
X157553861Y-80034586D01*
X157523446Y-80078256D01*
X157509070Y-80102398D01*
X157501656Y-80117720D01*
X157490917Y-80142549D01*
X157477757Y-80174663D01*
X157463079Y-80211840D01*
X157447786Y-80251857D01*
X157441947Y-80267495D01*
X157427052Y-80307431D01*
X157412924Y-80344899D01*
X157400361Y-80377813D01*
X157390162Y-80404087D01*
X157383126Y-80421634D01*
X157381295Y-80425925D01*
X157373337Y-80448072D01*
X157366501Y-80474212D01*
X157364538Y-80484430D01*
X157358829Y-80508850D01*
X157349867Y-80536812D01*
X157342809Y-80554699D01*
X157333714Y-80577430D01*
X157322930Y-80607329D01*
X157312191Y-80639495D01*
X157307366Y-80654943D01*
X157299975Y-80678810D01*
X157289485Y-80712039D01*
X157276700Y-80752115D01*
X157262425Y-80796521D01*
X157247465Y-80842743D01*
X157237418Y-80873600D01*
X157220656Y-80925291D01*
X157202428Y-80982097D01*
X157183969Y-81040127D01*
X157166514Y-81095493D01*
X157151298Y-81144305D01*
X157146533Y-81159765D01*
X157132991Y-81203374D01*
X157118948Y-81247735D01*
X157105405Y-81289742D01*
X157093365Y-81326290D01*
X157083830Y-81354275D01*
X157083006Y-81356615D01*
X157071690Y-81389908D01*
X157058755Y-81429999D01*
X157045884Y-81471570D01*
X157035871Y-81505425D01*
X157017227Y-81569818D01*
X156999299Y-81630720D01*
X156982469Y-81686895D01*
X156967118Y-81737104D01*
X156953630Y-81780114D01*
X156942386Y-81814686D01*
X156933769Y-81839586D01*
X156928340Y-81853206D01*
X156922872Y-81867627D01*
X156915352Y-81891527D01*
X156906591Y-81922125D01*
X156897403Y-81956636D01*
X156892803Y-81974894D01*
X156882486Y-82015106D01*
X156870977Y-82057414D01*
X156859506Y-82097435D01*
X156849307Y-82130788D01*
X156846863Y-82138288D01*
X156836907Y-82169087D01*
X156824887Y-82207550D01*
X156812159Y-82249267D01*
X156800080Y-82289829D01*
X156797349Y-82299175D01*
X156784053Y-82344628D01*
X156767735Y-82399997D01*
X156749013Y-82463210D01*
X156728504Y-82532194D01*
X156706825Y-82604877D01*
X156684593Y-82679186D01*
X156662426Y-82753050D01*
X156640940Y-82824395D01*
X156639430Y-82829400D01*
X156625741Y-82874816D01*
X156609739Y-82928001D01*
X156592699Y-82984715D01*
X156575895Y-83040717D01*
X156560600Y-83091768D01*
X156559303Y-83096100D01*
X156533357Y-83182755D01*
X156510731Y-83258194D01*
X156491180Y-83323217D01*
X156474460Y-83378626D01*
X156460327Y-83425222D01*
X156448534Y-83463805D01*
X156438837Y-83495177D01*
X156430992Y-83520138D01*
X156424753Y-83539490D01*
X156419875Y-83554034D01*
X156416114Y-83564570D01*
X156415968Y-83564961D01*
X156409092Y-83584717D01*
X156406878Y-83596246D01*
X156408946Y-83602614D01*
X156411087Y-83604551D01*
X156417810Y-83605504D01*
X156434783Y-83606401D01*
X156461232Y-83607233D01*
X156496383Y-83607990D01*
X156539461Y-83608660D01*
X156589694Y-83609233D01*
X156646306Y-83609700D01*
X156708524Y-83610049D01*
X156775573Y-83610270D01*
X156843670Y-83610352D01*
X156925985Y-83610328D01*
X156997885Y-83610210D01*
X157059978Y-83609984D01*
X157112874Y-83609642D01*
X157157181Y-83609172D01*
X157193508Y-83608563D01*
X157222465Y-83607803D01*
X157244659Y-83606882D01*
X157260700Y-83605789D01*
X157271196Y-83604514D01*
X157276757Y-83603043D01*
X157277615Y-83602512D01*
X157281953Y-83594528D01*
X157289299Y-83576274D01*
X157299039Y-83549477D01*
X157310563Y-83515861D01*
X157323259Y-83477154D01*
X157333328Y-83445350D01*
X157347142Y-83401121D01*
X157359808Y-83360765D01*
X157371958Y-83322306D01*
X157384227Y-83283766D01*
X157397249Y-83243169D01*
X157411658Y-83198537D01*
X157428089Y-83147894D01*
X157447174Y-83089263D01*
X157468763Y-83023075D01*
X157480901Y-82985497D01*
X157495258Y-82940432D01*
X157510414Y-82892378D01*
X157524946Y-82845834D01*
X157531991Y-82823050D01*
X157543427Y-82786374D01*
X157554213Y-82752647D01*
X157563587Y-82724185D01*
X157570787Y-82703305D01*
X157574795Y-82692875D01*
X157580191Y-82679057D01*
X157588033Y-82656661D01*
X157597151Y-82629108D01*
X157604095Y-82607206D01*
X157613153Y-82578893D01*
X157621578Y-82554032D01*
X157628303Y-82535688D01*
X157631707Y-82527831D01*
X157636851Y-82514478D01*
X157642496Y-82494193D01*
X157645523Y-82480636D01*
X157651819Y-82455300D01*
X157660762Y-82426297D01*
X157667482Y-82407611D01*
X157674704Y-82387712D01*
X157684397Y-82359061D01*
X157695486Y-82324933D01*
X157706896Y-82288601D01*
X157711434Y-82273775D01*
X157721031Y-82242732D01*
X157733775Y-82202387D01*
X157748845Y-82155287D01*
X157765422Y-82103979D01*
X157782686Y-82051011D01*
X157799816Y-81998930D01*
X157802374Y-81991200D01*
X157818514Y-81942212D01*
X157834115Y-81894398D01*
X157848533Y-81849763D01*
X157861125Y-81810315D01*
X157871247Y-81778061D01*
X157878255Y-81755008D01*
X157879736Y-81749900D01*
X157885958Y-81728944D01*
X157895383Y-81698441D01*
X157907277Y-81660702D01*
X157920907Y-81618043D01*
X157935540Y-81572778D01*
X157947170Y-81537175D01*
X157962982Y-81488658D01*
X157979176Y-81438347D01*
X157994817Y-81389200D01*
X158008966Y-81344172D01*
X158020686Y-81306222D01*
X158026297Y-81287625D01*
X158036783Y-81253293D01*
X158047128Y-81221015D01*
X158056344Y-81193769D01*
X158063442Y-81174534D01*
X158065287Y-81170150D01*
X158071419Y-81154646D01*
X158080178Y-81130068D01*
X158090563Y-81099337D01*
X158101575Y-81065372D01*
X158105973Y-81051400D01*
X158117695Y-81014201D01*
X158129826Y-80976364D01*
X158141117Y-80941748D01*
X158150316Y-80914211D01*
X158152267Y-80908525D01*
X158160381Y-80884133D01*
X158170837Y-80851323D01*
X158182500Y-80813728D01*
X158194234Y-80774980D01*
X158198892Y-80759300D01*
X158209384Y-80724397D01*
X158219396Y-80692259D01*
X158228096Y-80665477D01*
X158234651Y-80646643D01*
X158237157Y-80640344D01*
X158252631Y-80618605D01*
X158274166Y-80605096D01*
X158298949Y-80600514D01*
X158324166Y-80605557D01*
X158340122Y-80614837D01*
X158346780Y-80621401D01*
X158353689Y-80631447D01*
X158361243Y-80646032D01*
X158369833Y-80666217D01*
X158379853Y-80693060D01*
X158391695Y-80727619D01*
X158405754Y-80770953D01*
X158422422Y-80824122D01*
X158442092Y-80888184D01*
X158444420Y-80895825D01*
X158457328Y-80937928D01*
X158471212Y-80982742D01*
X158484770Y-81026095D01*
X158496701Y-81063814D01*
X158501881Y-81079975D01*
X158515443Y-81122250D01*
X158531857Y-81173804D01*
X158550356Y-81232196D01*
X158570173Y-81294984D01*
X158590541Y-81359728D01*
X158610691Y-81423985D01*
X158629858Y-81485314D01*
X158647274Y-81541274D01*
X158662171Y-81589424D01*
X158670499Y-81616550D01*
X158682980Y-81656859D01*
X158696198Y-81698656D01*
X158708922Y-81738102D01*
X158719919Y-81771359D01*
X158724509Y-81784825D01*
X158733429Y-81811855D01*
X158743990Y-81845851D01*
X158755440Y-81884168D01*
X158767025Y-81924161D01*
X158777991Y-81963185D01*
X158787587Y-81998595D01*
X158795058Y-82027746D01*
X158799652Y-82047994D01*
X158800046Y-82050099D01*
X158806441Y-82068254D01*
X158814066Y-82080244D01*
X158819653Y-82090541D01*
X158827700Y-82110433D01*
X158837292Y-82137425D01*
X158847515Y-82169022D01*
X158851837Y-82183270D01*
X158875216Y-82261513D01*
X158897038Y-82333732D01*
X158916979Y-82398879D01*
X158934714Y-82455911D01*
X158949919Y-82503782D01*
X158962269Y-82541447D01*
X158969726Y-82563110D01*
X158981017Y-82596217D01*
X158992991Y-82633561D01*
X159003236Y-82667595D01*
X159004107Y-82670650D01*
X159013231Y-82701369D01*
X159024669Y-82737775D01*
X159036504Y-82773825D01*
X159041380Y-82788125D01*
X159051244Y-82817568D01*
X159063274Y-82854922D01*
X159076161Y-82896044D01*
X159088596Y-82936791D01*
X159092555Y-82950050D01*
X159111167Y-83012278D01*
X159130375Y-83075559D01*
X159149600Y-83138051D01*
X159168264Y-83197910D01*
X159185787Y-83253296D01*
X159201590Y-83302364D01*
X159215094Y-83343274D01*
X159225722Y-83374181D01*
X159226641Y-83376756D01*
X159237268Y-83407997D01*
X159249441Y-83446349D01*
X159261589Y-83486743D01*
X159271289Y-83520963D01*
X159279893Y-83551458D01*
X159287753Y-83577421D01*
X159294122Y-83596514D01*
X159298253Y-83606399D01*
X159298873Y-83607177D01*
X159304646Y-83607457D01*
X159320677Y-83607742D01*
X159346199Y-83608031D01*
X159380446Y-83608321D01*
X159422651Y-83608610D01*
X159472047Y-83608898D01*
X159527869Y-83609181D01*
X159589348Y-83609458D01*
X159655719Y-83609728D01*
X159726216Y-83609988D01*
X159800071Y-83610237D01*
X159876518Y-83610472D01*
X159954790Y-83610693D01*
X160034121Y-83610896D01*
X160113745Y-83611081D01*
X160192894Y-83611245D01*
X160270802Y-83611387D01*
X160346703Y-83611505D01*
X160419830Y-83611596D01*
X160489417Y-83611660D01*
X160554696Y-83611694D01*
X160614902Y-83611696D01*
X160669267Y-83611665D01*
X160717025Y-83611599D01*
X160757410Y-83611496D01*
X160789655Y-83611353D01*
X160812994Y-83611170D01*
X160826659Y-83610945D01*
X160829293Y-83610839D01*
X160833474Y-83604912D01*
X160838255Y-83589842D01*
X160842159Y-83571262D01*
X160846966Y-83547832D01*
X160854331Y-83517367D01*
X160863036Y-83484763D01*
X160867840Y-83468074D01*
X160876627Y-83436528D01*
X160886650Y-83397487D01*
X160896695Y-83355836D01*
X160905548Y-83316462D01*
X160905823Y-83315175D01*
X160915127Y-83273711D01*
X160926528Y-83226028D01*
X160938599Y-83177941D01*
X160949914Y-83135264D01*
X160950207Y-83134200D01*
X160963939Y-83083261D01*
X160974881Y-83039696D01*
X160984086Y-82998976D01*
X160992611Y-82956571D01*
X160996791Y-82934175D01*
X161002102Y-82906593D01*
X161007956Y-82879583D01*
X161015086Y-82850142D01*
X161024225Y-82815267D01*
X161036108Y-82771955D01*
X161038681Y-82762725D01*
X161049712Y-82721754D01*
X161061910Y-82674074D01*
X161073866Y-82625324D01*
X161084169Y-82581145D01*
X161085095Y-82577016D01*
X161093114Y-82542221D01*
X161100903Y-82510498D01*
X161107777Y-82484487D01*
X161113052Y-82466832D01*
X161114895Y-82461923D01*
X161119163Y-82450978D01*
X161124106Y-82435262D01*
X161130067Y-82413419D01*
X161137391Y-82384093D01*
X161146422Y-82345925D01*
X161157503Y-82297559D01*
X161165017Y-82264250D01*
X161172901Y-82230866D01*
X161180877Y-82200050D01*
X161188107Y-82174853D01*
X161193754Y-82158327D01*
X161194635Y-82156300D01*
X161199448Y-82142921D01*
X161206307Y-82119750D01*
X161214527Y-82089297D01*
X161223425Y-82054074D01*
X161230548Y-82024262D01*
X161240376Y-81983382D01*
X161250927Y-81941782D01*
X161261249Y-81903074D01*
X161270388Y-81870867D01*
X161274965Y-81855987D01*
X161283468Y-81828374D01*
X161293904Y-81792569D01*
X161305134Y-81752579D01*
X161316020Y-81712411D01*
X161319526Y-81699100D01*
X161330192Y-81659561D01*
X161341834Y-81618590D01*
X161353253Y-81580278D01*
X161363247Y-81548714D01*
X161366073Y-81540350D01*
X161375567Y-81511542D01*
X161386985Y-81474832D01*
X161399040Y-81434470D01*
X161410445Y-81394701D01*
X161413005Y-81385489D01*
X161422999Y-81350879D01*
X161433055Y-81318872D01*
X161442245Y-81292234D01*
X161449642Y-81273732D01*
X161452177Y-81268730D01*
X161462431Y-81247002D01*
X161470245Y-81223166D01*
X161470885Y-81220391D01*
X161476496Y-81198817D01*
X161485968Y-81167506D01*
X161498646Y-81128301D01*
X161513873Y-81083048D01*
X161530992Y-81033594D01*
X161549347Y-80981783D01*
X161568281Y-80929461D01*
X161587137Y-80878474D01*
X161605258Y-80830667D01*
X161621989Y-80787886D01*
X161636672Y-80751977D01*
X161641841Y-80739911D01*
X161656615Y-80708416D01*
X161674705Y-80673466D01*
X161694422Y-80637997D01*
X161714081Y-80604945D01*
X161731993Y-80577244D01*
X161746472Y-80557830D01*
X161746546Y-80557744D01*
X161770664Y-80537802D01*
X161798350Y-80528282D01*
X161827653Y-80528616D01*
X161856622Y-80538233D01*
X161883305Y-80556561D01*
X161905750Y-80583033D01*
X161918691Y-80608039D01*
X161922174Y-80616495D01*
X161925359Y-80624180D01*
X161928259Y-80631667D01*
X161930889Y-80639530D01*
X161933262Y-80648343D01*
X161935391Y-80658679D01*
X161937290Y-80671112D01*
X161938972Y-80686215D01*
X161940451Y-80704563D01*
X161941740Y-80726729D01*
X161942853Y-80753286D01*
X161943804Y-80784808D01*
X161944605Y-80821869D01*
X161945271Y-80865043D01*
X161945815Y-80914903D01*
X161946251Y-80972022D01*
X161946591Y-81036975D01*
X161946850Y-81110335D01*
X161947042Y-81192676D01*
X161947178Y-81284571D01*
X161947274Y-81386595D01*
X161947343Y-81499319D01*
X161947398Y-81623320D01*
X161947452Y-81759169D01*
X161947482Y-81829275D01*
X161947990Y-82953225D01*
X161962885Y-83016271D01*
X161988798Y-83102129D01*
X162024630Y-83183713D01*
X162069776Y-83260523D01*
X162123629Y-83332059D01*
X162185582Y-83397820D01*
X162255030Y-83457306D01*
X162331364Y-83510016D01*
X162413979Y-83555450D01*
X162502269Y-83593107D01*
X162595626Y-83622487D01*
X162693444Y-83643090D01*
X162728730Y-83648148D01*
X162756362Y-83650644D01*
X162792233Y-83652429D01*
X162833576Y-83653503D01*
X162877624Y-83653863D01*
X162921609Y-83653506D01*
X162962762Y-83652430D01*
X162998318Y-83650634D01*
X163023285Y-83648394D01*
X163117085Y-83631346D01*
X163212401Y-83603120D01*
X163307011Y-83564486D01*
X163390919Y-83520762D01*
X163480971Y-83461743D01*
X163563698Y-83393306D01*
X163638899Y-83315725D01*
X163706374Y-83229272D01*
X163765923Y-83134221D01*
X163817345Y-83030844D01*
X163860442Y-82919415D01*
X163881424Y-82851625D01*
X163893121Y-82809635D01*
X163907076Y-82758446D01*
X163922630Y-82700561D01*
X163939128Y-82638482D01*
X163955911Y-82574711D01*
X163972325Y-82511750D01*
X163987710Y-82452102D01*
X164001411Y-82398268D01*
X164012770Y-82352752D01*
X164017480Y-82333421D01*
X164026766Y-82296112D01*
X164038361Y-82251401D01*
X164051038Y-82203917D01*
X164063572Y-82158285D01*
X164068794Y-82139746D01*
X164079532Y-82101437D01*
X164089746Y-82064012D01*
X164098629Y-82030495D01*
X164105376Y-82003912D01*
X164108363Y-81991200D01*
X164113191Y-81970967D01*
X164120664Y-81941774D01*
X164129964Y-81906716D01*
X164140276Y-81868890D01*
X164146890Y-81845150D01*
X164158822Y-81802464D01*
X164171656Y-81756130D01*
X164184119Y-81710773D01*
X164194935Y-81671023D01*
X164198489Y-81657825D01*
X164207889Y-81623567D01*
X164219511Y-81582454D01*
X164232714Y-81536634D01*
X164246860Y-81488256D01*
X164261308Y-81439470D01*
X164275419Y-81392425D01*
X164288552Y-81349270D01*
X164300069Y-81312155D01*
X164309329Y-81283229D01*
X164314729Y-81267300D01*
X164321333Y-81247828D01*
X164330359Y-81219921D01*
X164340668Y-81187159D01*
X164351118Y-81153125D01*
X164352116Y-81149825D01*
X164362191Y-81117248D01*
X164371980Y-81086961D01*
X164380460Y-81062042D01*
X164386610Y-81045569D01*
X164387333Y-81043868D01*
X164393099Y-81029553D01*
X164401887Y-81006281D01*
X164412646Y-80976898D01*
X164424326Y-80944247D01*
X164428378Y-80932743D01*
X164449720Y-80875463D01*
X164473558Y-80817685D01*
X164498978Y-80761211D01*
X164525063Y-80707845D01*
X164550901Y-80659388D01*
X164575576Y-80617643D01*
X164598173Y-80584412D01*
X164615782Y-80563471D01*
X164645942Y-80540060D01*
X164677345Y-80528558D01*
X164708698Y-80528517D01*
X164738708Y-80539488D01*
X164766083Y-80561020D01*
X164789530Y-80592664D01*
X164806309Y-80629716D01*
X164819431Y-80667225D01*
X164822187Y-82129824D01*
X164822491Y-82290508D01*
X164822777Y-82438977D01*
X164823050Y-82575719D01*
X164823314Y-82701218D01*
X164823573Y-82815962D01*
X164823832Y-82920435D01*
X164824096Y-83015125D01*
X164824368Y-83100516D01*
X164824653Y-83177095D01*
X164824956Y-83245347D01*
X164825281Y-83305760D01*
X164825632Y-83358818D01*
X164826015Y-83405008D01*
X164826433Y-83444816D01*
X164826890Y-83478728D01*
X164827393Y-83507229D01*
X164827943Y-83530806D01*
X164828547Y-83549945D01*
X164829209Y-83565131D01*
X164829933Y-83576851D01*
X164830723Y-83585590D01*
X164831584Y-83591835D01*
X164832520Y-83596071D01*
X164833537Y-83598785D01*
X164834638Y-83600463D01*
X164835643Y-83601437D01*
X164839180Y-83603225D01*
X164845734Y-83604768D01*
X164856042Y-83606082D01*
X164870840Y-83607186D01*
X164890865Y-83608096D01*
X164916855Y-83608829D01*
X164949545Y-83609401D01*
X164989674Y-83609830D01*
X165037978Y-83610132D01*
X165095193Y-83610325D01*
X165162057Y-83610425D01*
X165228384Y-83610450D01*
X165302515Y-83610442D01*
X165366410Y-83610403D01*
X165420854Y-83610307D01*
X165466635Y-83610127D01*
X165504541Y-83609839D01*
X165535357Y-83609416D01*
X165559871Y-83608833D01*
X165578871Y-83608064D01*
X165593142Y-83607083D01*
X165603474Y-83605866D01*
X165610651Y-83604385D01*
X165615462Y-83602616D01*
X165618694Y-83600533D01*
X165621133Y-83598109D01*
X165621563Y-83597619D01*
X165622727Y-83596195D01*
X165623807Y-83594396D01*
X165624804Y-83591759D01*
X165625723Y-83587823D01*
X165626564Y-83582125D01*
X165627332Y-83574201D01*
X165628028Y-83563589D01*
X165628656Y-83549827D01*
X165629217Y-83532453D01*
X165629716Y-83511002D01*
X165630153Y-83485014D01*
X165630532Y-83454025D01*
X165630856Y-83417572D01*
X165631127Y-83375194D01*
X165631348Y-83326427D01*
X165631521Y-83270809D01*
X165631650Y-83207877D01*
X165631736Y-83137169D01*
X165631783Y-83058222D01*
X165631793Y-82970573D01*
X165631769Y-82873760D01*
X165631713Y-82767321D01*
X165631628Y-82650792D01*
X165631517Y-82523711D01*
X165631382Y-82385616D01*
X165631227Y-82236044D01*
X165631053Y-82074532D01*
X165630933Y-81964081D01*
X165630753Y-81793342D01*
X165630593Y-81634826D01*
X165630444Y-81488056D01*
X165630299Y-81352556D01*
X165630148Y-81227848D01*
X165629983Y-81113455D01*
X165629796Y-81008900D01*
X165629577Y-80913708D01*
X165629318Y-80827400D01*
X165629011Y-80749499D01*
X165628647Y-80679530D01*
X165628217Y-80617015D01*
X165627713Y-80561476D01*
X165627127Y-80512438D01*
X165626449Y-80469423D01*
X165625671Y-80431955D01*
X165624785Y-80399556D01*
X165623781Y-80371749D01*
X165622653Y-80348058D01*
X165621389Y-80328006D01*
X165619984Y-80311116D01*
X165618427Y-80296910D01*
X165616709Y-80284913D01*
X165614824Y-80274647D01*
X165612761Y-80265635D01*
X165610513Y-80257400D01*
X165608071Y-80249465D01*
X165605426Y-80241354D01*
X165602569Y-80232590D01*
X165599627Y-80223141D01*
X165572197Y-80150633D01*
X165534586Y-80080236D01*
X165487592Y-80012895D01*
X165432011Y-79949551D01*
X165368640Y-79891147D01*
X165298275Y-79838627D01*
X165248451Y-79807678D01*
X165166402Y-79765671D01*
X165080432Y-79731989D01*
X164989343Y-79706322D01*
X164891939Y-79688359D01*
X164787022Y-79677790D01*
X164738950Y-79675429D01*
X164637659Y-79674996D01*
X164544545Y-79681339D01*
M02*
