G04 #@! TF.GenerationSoftware,KiCad,Pcbnew,(5.1.0)-1*
G04 #@! TF.CreationDate,2019-04-03T23:02:26-04:00*
G04 #@! TF.ProjectId,loadcell_daughter,6c6f6164-6365-46c6-9c5f-646175676874,rev?*
G04 #@! TF.SameCoordinates,Original*
G04 #@! TF.FileFunction,Soldermask,Bot*
G04 #@! TF.FilePolarity,Negative*
%FSLAX46Y46*%
G04 Gerber Fmt 4.6, Leading zero omitted, Abs format (unit mm)*
G04 Created by KiCad (PCBNEW (5.1.0)-1) date 2019-04-03 23:02:26*
%MOMM*%
%LPD*%
G04 APERTURE LIST*
%ADD10C,0.100000*%
G04 APERTURE END LIST*
D10*
G36*
X162797442Y-101213518D02*
G01*
X162863627Y-101220037D01*
X163033466Y-101271557D01*
X163189991Y-101355222D01*
X163225729Y-101384552D01*
X163327186Y-101467814D01*
X163410448Y-101569271D01*
X163439778Y-101605009D01*
X163523443Y-101761534D01*
X163574963Y-101931373D01*
X163592359Y-102108000D01*
X163574963Y-102284627D01*
X163523443Y-102454466D01*
X163439778Y-102610991D01*
X163410448Y-102646729D01*
X163327186Y-102748186D01*
X163225729Y-102831448D01*
X163189991Y-102860778D01*
X163033466Y-102944443D01*
X162863627Y-102995963D01*
X162797443Y-103002481D01*
X162731260Y-103009000D01*
X162642740Y-103009000D01*
X162576558Y-103002482D01*
X162510373Y-102995963D01*
X162340534Y-102944443D01*
X162184009Y-102860778D01*
X162148271Y-102831448D01*
X162046814Y-102748186D01*
X161963552Y-102646729D01*
X161934222Y-102610991D01*
X161850557Y-102454466D01*
X161799037Y-102284627D01*
X161781641Y-102108000D01*
X161799037Y-101931373D01*
X161850557Y-101761534D01*
X161934222Y-101605009D01*
X161963552Y-101569271D01*
X162046814Y-101467814D01*
X162148271Y-101384552D01*
X162184009Y-101355222D01*
X162340534Y-101271557D01*
X162510373Y-101220037D01*
X162576557Y-101213519D01*
X162642740Y-101207000D01*
X162731260Y-101207000D01*
X162797442Y-101213518D01*
X162797442Y-101213518D01*
G37*
G36*
X162797442Y-98673518D02*
G01*
X162863627Y-98680037D01*
X163033466Y-98731557D01*
X163189991Y-98815222D01*
X163225729Y-98844552D01*
X163327186Y-98927814D01*
X163410448Y-99029271D01*
X163439778Y-99065009D01*
X163523443Y-99221534D01*
X163574963Y-99391373D01*
X163592359Y-99568000D01*
X163574963Y-99744627D01*
X163523443Y-99914466D01*
X163439778Y-100070991D01*
X163410448Y-100106729D01*
X163327186Y-100208186D01*
X163225729Y-100291448D01*
X163189991Y-100320778D01*
X163033466Y-100404443D01*
X162863627Y-100455963D01*
X162797442Y-100462482D01*
X162731260Y-100469000D01*
X162642740Y-100469000D01*
X162576557Y-100462481D01*
X162510373Y-100455963D01*
X162340534Y-100404443D01*
X162184009Y-100320778D01*
X162148271Y-100291448D01*
X162046814Y-100208186D01*
X161963552Y-100106729D01*
X161934222Y-100070991D01*
X161850557Y-99914466D01*
X161799037Y-99744627D01*
X161781641Y-99568000D01*
X161799037Y-99391373D01*
X161850557Y-99221534D01*
X161934222Y-99065009D01*
X161963552Y-99029271D01*
X162046814Y-98927814D01*
X162148271Y-98844552D01*
X162184009Y-98815222D01*
X162340534Y-98731557D01*
X162510373Y-98680037D01*
X162576558Y-98673518D01*
X162642740Y-98667000D01*
X162731260Y-98667000D01*
X162797442Y-98673518D01*
X162797442Y-98673518D01*
G37*
G36*
X153037442Y-98673518D02*
G01*
X153103627Y-98680037D01*
X153273466Y-98731557D01*
X153429991Y-98815222D01*
X153465729Y-98844552D01*
X153567186Y-98927814D01*
X153650448Y-99029271D01*
X153679778Y-99065009D01*
X153763443Y-99221534D01*
X153814963Y-99391373D01*
X153832359Y-99568000D01*
X153814963Y-99744627D01*
X153763443Y-99914466D01*
X153679778Y-100070991D01*
X153650448Y-100106729D01*
X153567186Y-100208186D01*
X153465729Y-100291448D01*
X153429991Y-100320778D01*
X153273466Y-100404443D01*
X153103627Y-100455963D01*
X153037442Y-100462482D01*
X152971260Y-100469000D01*
X152882740Y-100469000D01*
X152816557Y-100462481D01*
X152750373Y-100455963D01*
X152580534Y-100404443D01*
X152424009Y-100320778D01*
X152388271Y-100291448D01*
X152286814Y-100208186D01*
X152203552Y-100106729D01*
X152174222Y-100070991D01*
X152090557Y-99914466D01*
X152039037Y-99744627D01*
X152021641Y-99568000D01*
X152039037Y-99391373D01*
X152090557Y-99221534D01*
X152174222Y-99065009D01*
X152203552Y-99029271D01*
X152286814Y-98927814D01*
X152388271Y-98844552D01*
X152424009Y-98815222D01*
X152580534Y-98731557D01*
X152750373Y-98680037D01*
X152816558Y-98673518D01*
X152882740Y-98667000D01*
X152971260Y-98667000D01*
X153037442Y-98673518D01*
X153037442Y-98673518D01*
G37*
G36*
X162797443Y-96133519D02*
G01*
X162863627Y-96140037D01*
X163033466Y-96191557D01*
X163189991Y-96275222D01*
X163225729Y-96304552D01*
X163327186Y-96387814D01*
X163410448Y-96489271D01*
X163439778Y-96525009D01*
X163523443Y-96681534D01*
X163574963Y-96851373D01*
X163592359Y-97028000D01*
X163574963Y-97204627D01*
X163523443Y-97374466D01*
X163439778Y-97530991D01*
X163410448Y-97566729D01*
X163327186Y-97668186D01*
X163225729Y-97751448D01*
X163189991Y-97780778D01*
X163033466Y-97864443D01*
X162863627Y-97915963D01*
X162797442Y-97922482D01*
X162731260Y-97929000D01*
X162642740Y-97929000D01*
X162576558Y-97922482D01*
X162510373Y-97915963D01*
X162340534Y-97864443D01*
X162184009Y-97780778D01*
X162148271Y-97751448D01*
X162046814Y-97668186D01*
X161963552Y-97566729D01*
X161934222Y-97530991D01*
X161850557Y-97374466D01*
X161799037Y-97204627D01*
X161781641Y-97028000D01*
X161799037Y-96851373D01*
X161850557Y-96681534D01*
X161934222Y-96525009D01*
X161963552Y-96489271D01*
X162046814Y-96387814D01*
X162148271Y-96304552D01*
X162184009Y-96275222D01*
X162340534Y-96191557D01*
X162510373Y-96140037D01*
X162576557Y-96133519D01*
X162642740Y-96127000D01*
X162731260Y-96127000D01*
X162797443Y-96133519D01*
X162797443Y-96133519D01*
G37*
G36*
X153037443Y-96133519D02*
G01*
X153103627Y-96140037D01*
X153273466Y-96191557D01*
X153429991Y-96275222D01*
X153465729Y-96304552D01*
X153567186Y-96387814D01*
X153650448Y-96489271D01*
X153679778Y-96525009D01*
X153763443Y-96681534D01*
X153814963Y-96851373D01*
X153832359Y-97028000D01*
X153814963Y-97204627D01*
X153763443Y-97374466D01*
X153679778Y-97530991D01*
X153650448Y-97566729D01*
X153567186Y-97668186D01*
X153465729Y-97751448D01*
X153429991Y-97780778D01*
X153273466Y-97864443D01*
X153103627Y-97915963D01*
X153037442Y-97922482D01*
X152971260Y-97929000D01*
X152882740Y-97929000D01*
X152816558Y-97922482D01*
X152750373Y-97915963D01*
X152580534Y-97864443D01*
X152424009Y-97780778D01*
X152388271Y-97751448D01*
X152286814Y-97668186D01*
X152203552Y-97566729D01*
X152174222Y-97530991D01*
X152090557Y-97374466D01*
X152039037Y-97204627D01*
X152021641Y-97028000D01*
X152039037Y-96851373D01*
X152090557Y-96681534D01*
X152174222Y-96525009D01*
X152203552Y-96489271D01*
X152286814Y-96387814D01*
X152388271Y-96304552D01*
X152424009Y-96275222D01*
X152580534Y-96191557D01*
X152750373Y-96140037D01*
X152816557Y-96133519D01*
X152882740Y-96127000D01*
X152971260Y-96127000D01*
X153037443Y-96133519D01*
X153037443Y-96133519D01*
G37*
G36*
X153037442Y-93593518D02*
G01*
X153103627Y-93600037D01*
X153273466Y-93651557D01*
X153429991Y-93735222D01*
X153465729Y-93764552D01*
X153567186Y-93847814D01*
X153650448Y-93949271D01*
X153679778Y-93985009D01*
X153763443Y-94141534D01*
X153814963Y-94311373D01*
X153832359Y-94488000D01*
X153814963Y-94664627D01*
X153763443Y-94834466D01*
X153679778Y-94990991D01*
X153650448Y-95026729D01*
X153567186Y-95128186D01*
X153465729Y-95211448D01*
X153429991Y-95240778D01*
X153273466Y-95324443D01*
X153103627Y-95375963D01*
X153037443Y-95382481D01*
X152971260Y-95389000D01*
X152882740Y-95389000D01*
X152816557Y-95382481D01*
X152750373Y-95375963D01*
X152580534Y-95324443D01*
X152424009Y-95240778D01*
X152388271Y-95211448D01*
X152286814Y-95128186D01*
X152203552Y-95026729D01*
X152174222Y-94990991D01*
X152090557Y-94834466D01*
X152039037Y-94664627D01*
X152021641Y-94488000D01*
X152039037Y-94311373D01*
X152090557Y-94141534D01*
X152174222Y-93985009D01*
X152203552Y-93949271D01*
X152286814Y-93847814D01*
X152388271Y-93764552D01*
X152424009Y-93735222D01*
X152580534Y-93651557D01*
X152750373Y-93600037D01*
X152816557Y-93593519D01*
X152882740Y-93587000D01*
X152971260Y-93587000D01*
X153037442Y-93593518D01*
X153037442Y-93593518D01*
G37*
G36*
X162797442Y-93593518D02*
G01*
X162863627Y-93600037D01*
X163033466Y-93651557D01*
X163189991Y-93735222D01*
X163225729Y-93764552D01*
X163327186Y-93847814D01*
X163410448Y-93949271D01*
X163439778Y-93985009D01*
X163523443Y-94141534D01*
X163574963Y-94311373D01*
X163592359Y-94488000D01*
X163574963Y-94664627D01*
X163523443Y-94834466D01*
X163439778Y-94990991D01*
X163410448Y-95026729D01*
X163327186Y-95128186D01*
X163225729Y-95211448D01*
X163189991Y-95240778D01*
X163033466Y-95324443D01*
X162863627Y-95375963D01*
X162797443Y-95382481D01*
X162731260Y-95389000D01*
X162642740Y-95389000D01*
X162576557Y-95382481D01*
X162510373Y-95375963D01*
X162340534Y-95324443D01*
X162184009Y-95240778D01*
X162148271Y-95211448D01*
X162046814Y-95128186D01*
X161963552Y-95026729D01*
X161934222Y-94990991D01*
X161850557Y-94834466D01*
X161799037Y-94664627D01*
X161781641Y-94488000D01*
X161799037Y-94311373D01*
X161850557Y-94141534D01*
X161934222Y-93985009D01*
X161963552Y-93949271D01*
X162046814Y-93847814D01*
X162148271Y-93764552D01*
X162184009Y-93735222D01*
X162340534Y-93651557D01*
X162510373Y-93600037D01*
X162576557Y-93593519D01*
X162642740Y-93587000D01*
X162731260Y-93587000D01*
X162797442Y-93593518D01*
X162797442Y-93593518D01*
G37*
G36*
X162797442Y-91053518D02*
G01*
X162863627Y-91060037D01*
X163033466Y-91111557D01*
X163189991Y-91195222D01*
X163225729Y-91224552D01*
X163327186Y-91307814D01*
X163410448Y-91409271D01*
X163439778Y-91445009D01*
X163523443Y-91601534D01*
X163574963Y-91771373D01*
X163592359Y-91948000D01*
X163574963Y-92124627D01*
X163523443Y-92294466D01*
X163439778Y-92450991D01*
X163410448Y-92486729D01*
X163327186Y-92588186D01*
X163225729Y-92671448D01*
X163189991Y-92700778D01*
X163033466Y-92784443D01*
X162863627Y-92835963D01*
X162797442Y-92842482D01*
X162731260Y-92849000D01*
X162642740Y-92849000D01*
X162576558Y-92842482D01*
X162510373Y-92835963D01*
X162340534Y-92784443D01*
X162184009Y-92700778D01*
X162148271Y-92671448D01*
X162046814Y-92588186D01*
X161963552Y-92486729D01*
X161934222Y-92450991D01*
X161850557Y-92294466D01*
X161799037Y-92124627D01*
X161781641Y-91948000D01*
X161799037Y-91771373D01*
X161850557Y-91601534D01*
X161934222Y-91445009D01*
X161963552Y-91409271D01*
X162046814Y-91307814D01*
X162148271Y-91224552D01*
X162184009Y-91195222D01*
X162340534Y-91111557D01*
X162510373Y-91060037D01*
X162576558Y-91053518D01*
X162642740Y-91047000D01*
X162731260Y-91047000D01*
X162797442Y-91053518D01*
X162797442Y-91053518D01*
G37*
G36*
X153037442Y-91053518D02*
G01*
X153103627Y-91060037D01*
X153273466Y-91111557D01*
X153429991Y-91195222D01*
X153465729Y-91224552D01*
X153567186Y-91307814D01*
X153650448Y-91409271D01*
X153679778Y-91445009D01*
X153763443Y-91601534D01*
X153814963Y-91771373D01*
X153832359Y-91948000D01*
X153814963Y-92124627D01*
X153763443Y-92294466D01*
X153679778Y-92450991D01*
X153650448Y-92486729D01*
X153567186Y-92588186D01*
X153465729Y-92671448D01*
X153429991Y-92700778D01*
X153273466Y-92784443D01*
X153103627Y-92835963D01*
X153037442Y-92842482D01*
X152971260Y-92849000D01*
X152882740Y-92849000D01*
X152816558Y-92842482D01*
X152750373Y-92835963D01*
X152580534Y-92784443D01*
X152424009Y-92700778D01*
X152388271Y-92671448D01*
X152286814Y-92588186D01*
X152203552Y-92486729D01*
X152174222Y-92450991D01*
X152090557Y-92294466D01*
X152039037Y-92124627D01*
X152021641Y-91948000D01*
X152039037Y-91771373D01*
X152090557Y-91601534D01*
X152174222Y-91445009D01*
X152203552Y-91409271D01*
X152286814Y-91307814D01*
X152388271Y-91224552D01*
X152424009Y-91195222D01*
X152580534Y-91111557D01*
X152750373Y-91060037D01*
X152816558Y-91053518D01*
X152882740Y-91047000D01*
X152971260Y-91047000D01*
X153037442Y-91053518D01*
X153037442Y-91053518D01*
G37*
G36*
X155202000Y-74490007D02*
G01*
X155204402Y-74514393D01*
X155211515Y-74537842D01*
X155223066Y-74559453D01*
X155238611Y-74578395D01*
X155257553Y-74593940D01*
X155279164Y-74605491D01*
X155302613Y-74612604D01*
X155326999Y-74615006D01*
X155351385Y-74612604D01*
X155374834Y-74605491D01*
X155396445Y-74593940D01*
X155415387Y-74578395D01*
X155430932Y-74559453D01*
X155442483Y-74537842D01*
X155449596Y-74514393D01*
X155484232Y-74340267D01*
X155570996Y-74130799D01*
X155570997Y-74130797D01*
X155696960Y-73942280D01*
X155857280Y-73781960D01*
X156045797Y-73655997D01*
X156255266Y-73569232D01*
X156366451Y-73547116D01*
X156477635Y-73525000D01*
X156704365Y-73525000D01*
X156815549Y-73547116D01*
X156926734Y-73569232D01*
X157136203Y-73655997D01*
X157324720Y-73781960D01*
X157485040Y-73942280D01*
X157611003Y-74130797D01*
X157611004Y-74130799D01*
X157697768Y-74340267D01*
X157738403Y-74544552D01*
X157745516Y-74568001D01*
X157757067Y-74589612D01*
X157772612Y-74608554D01*
X157791554Y-74624099D01*
X157813165Y-74635650D01*
X157836614Y-74642763D01*
X157861000Y-74645165D01*
X157885386Y-74642763D01*
X157908835Y-74635650D01*
X157930446Y-74624099D01*
X157949388Y-74608554D01*
X157964933Y-74589612D01*
X157976484Y-74568001D01*
X157983597Y-74544552D01*
X158024232Y-74340267D01*
X158110996Y-74130799D01*
X158110997Y-74130797D01*
X158236960Y-73942280D01*
X158397280Y-73781960D01*
X158585797Y-73655997D01*
X158795266Y-73569232D01*
X158906451Y-73547116D01*
X159017635Y-73525000D01*
X159244365Y-73525000D01*
X159355549Y-73547116D01*
X159466734Y-73569232D01*
X159676203Y-73655997D01*
X159864720Y-73781960D01*
X160025040Y-73942280D01*
X160151003Y-74130797D01*
X160151004Y-74130799D01*
X160237768Y-74340267D01*
X160278403Y-74544552D01*
X160285516Y-74568001D01*
X160297067Y-74589612D01*
X160312612Y-74608554D01*
X160331554Y-74624099D01*
X160353165Y-74635650D01*
X160376614Y-74642763D01*
X160401000Y-74645165D01*
X160425386Y-74642763D01*
X160448835Y-74635650D01*
X160470446Y-74624099D01*
X160489388Y-74608554D01*
X160504933Y-74589612D01*
X160516484Y-74568001D01*
X160523597Y-74544552D01*
X160564232Y-74340267D01*
X160650996Y-74130799D01*
X160650997Y-74130797D01*
X160776960Y-73942280D01*
X160937280Y-73781960D01*
X161125797Y-73655997D01*
X161335266Y-73569232D01*
X161446451Y-73547116D01*
X161557635Y-73525000D01*
X161784365Y-73525000D01*
X161895549Y-73547116D01*
X162006734Y-73569232D01*
X162216203Y-73655997D01*
X162404720Y-73781960D01*
X162565040Y-73942280D01*
X162691003Y-74130797D01*
X162777768Y-74340266D01*
X162822000Y-74562636D01*
X162822000Y-74789364D01*
X162777768Y-75011734D01*
X162691003Y-75221203D01*
X162565040Y-75409720D01*
X162404720Y-75570040D01*
X162216203Y-75696003D01*
X162006734Y-75782768D01*
X161895549Y-75804884D01*
X161784365Y-75827000D01*
X161557635Y-75827000D01*
X161446451Y-75804884D01*
X161335266Y-75782768D01*
X161125797Y-75696003D01*
X160937280Y-75570040D01*
X160776960Y-75409720D01*
X160650997Y-75221203D01*
X160564232Y-75011734D01*
X160523597Y-74807448D01*
X160516484Y-74783999D01*
X160504933Y-74762388D01*
X160489388Y-74743446D01*
X160470446Y-74727901D01*
X160448835Y-74716350D01*
X160425386Y-74709237D01*
X160401000Y-74706835D01*
X160376614Y-74709237D01*
X160353165Y-74716350D01*
X160331554Y-74727901D01*
X160312612Y-74743446D01*
X160297067Y-74762388D01*
X160285516Y-74783999D01*
X160278403Y-74807448D01*
X160237768Y-75011734D01*
X160151003Y-75221203D01*
X160025040Y-75409720D01*
X159864720Y-75570040D01*
X159676203Y-75696003D01*
X159466734Y-75782768D01*
X159355549Y-75804884D01*
X159244365Y-75827000D01*
X159017635Y-75827000D01*
X158906451Y-75804884D01*
X158795266Y-75782768D01*
X158585797Y-75696003D01*
X158397280Y-75570040D01*
X158236960Y-75409720D01*
X158110997Y-75221203D01*
X158024232Y-75011734D01*
X157983597Y-74807448D01*
X157976484Y-74783999D01*
X157964933Y-74762388D01*
X157949388Y-74743446D01*
X157930446Y-74727901D01*
X157908835Y-74716350D01*
X157885386Y-74709237D01*
X157861000Y-74706835D01*
X157836614Y-74709237D01*
X157813165Y-74716350D01*
X157791554Y-74727901D01*
X157772612Y-74743446D01*
X157757067Y-74762388D01*
X157745516Y-74783999D01*
X157738403Y-74807448D01*
X157697768Y-75011734D01*
X157611003Y-75221203D01*
X157485040Y-75409720D01*
X157324720Y-75570040D01*
X157136203Y-75696003D01*
X156926734Y-75782768D01*
X156815549Y-75804884D01*
X156704365Y-75827000D01*
X156477635Y-75827000D01*
X156366451Y-75804884D01*
X156255266Y-75782768D01*
X156045797Y-75696003D01*
X155857280Y-75570040D01*
X155696960Y-75409720D01*
X155570997Y-75221203D01*
X155484232Y-75011734D01*
X155449596Y-74837607D01*
X155442483Y-74814158D01*
X155430932Y-74792547D01*
X155415387Y-74773605D01*
X155396445Y-74758060D01*
X155374834Y-74746509D01*
X155351385Y-74739396D01*
X155326999Y-74736994D01*
X155302613Y-74739396D01*
X155279164Y-74746509D01*
X155257553Y-74758060D01*
X155238611Y-74773605D01*
X155223066Y-74792547D01*
X155211515Y-74814158D01*
X155204402Y-74837607D01*
X155202000Y-74861993D01*
X155202000Y-75827000D01*
X152900000Y-75827000D01*
X152900000Y-73525000D01*
X155202000Y-73525000D01*
X155202000Y-74490007D01*
X155202000Y-74490007D01*
G37*
M02*
