G04 #@! TF.GenerationSoftware,KiCad,Pcbnew,(5.1.0)-1*
G04 #@! TF.CreationDate,2019-04-03T23:02:26-04:00*
G04 #@! TF.ProjectId,loadcell_daughter,6c6f6164-6365-46c6-9c5f-646175676874,rev?*
G04 #@! TF.SameCoordinates,Original*
G04 #@! TF.FileFunction,Soldermask,Top*
G04 #@! TF.FilePolarity,Negative*
%FSLAX46Y46*%
G04 Gerber Fmt 4.6, Leading zero omitted, Abs format (unit mm)*
G04 Created by KiCad (PCBNEW (5.1.0)-1) date 2019-04-03 23:02:26*
%MOMM*%
%LPD*%
G04 APERTURE LIST*
%ADD10C,0.100000*%
G04 APERTURE END LIST*
D10*
G36*
X161092000Y-108143000D02*
G01*
X158440000Y-108143000D01*
X158440000Y-106821000D01*
X161092000Y-106821000D01*
X161092000Y-108143000D01*
X161092000Y-108143000D01*
G37*
G36*
X155270468Y-106575565D02*
G01*
X155309138Y-106587296D01*
X155344777Y-106606346D01*
X155376017Y-106631983D01*
X155401654Y-106663223D01*
X155420704Y-106698862D01*
X155432435Y-106737532D01*
X155437000Y-106783888D01*
X155437000Y-107435112D01*
X155432435Y-107481468D01*
X155420704Y-107520138D01*
X155401654Y-107555777D01*
X155376017Y-107587017D01*
X155344777Y-107612654D01*
X155309138Y-107631704D01*
X155270468Y-107643435D01*
X155224112Y-107648000D01*
X154147888Y-107648000D01*
X154101532Y-107643435D01*
X154062862Y-107631704D01*
X154027223Y-107612654D01*
X153995983Y-107587017D01*
X153970346Y-107555777D01*
X153951296Y-107520138D01*
X153939565Y-107481468D01*
X153935000Y-107435112D01*
X153935000Y-106783888D01*
X153939565Y-106737532D01*
X153951296Y-106698862D01*
X153970346Y-106663223D01*
X153995983Y-106631983D01*
X154027223Y-106606346D01*
X154062862Y-106587296D01*
X154101532Y-106575565D01*
X154147888Y-106571000D01*
X155224112Y-106571000D01*
X155270468Y-106575565D01*
X155270468Y-106575565D01*
G37*
G36*
X151714468Y-106527065D02*
G01*
X151753138Y-106538796D01*
X151788777Y-106557846D01*
X151820017Y-106583483D01*
X151845654Y-106614723D01*
X151864704Y-106650362D01*
X151876435Y-106689032D01*
X151881000Y-106735388D01*
X151881000Y-107386612D01*
X151876435Y-107432968D01*
X151864704Y-107471638D01*
X151845654Y-107507277D01*
X151820017Y-107538517D01*
X151788777Y-107564154D01*
X151753138Y-107583204D01*
X151714468Y-107594935D01*
X151668112Y-107599500D01*
X150591888Y-107599500D01*
X150545532Y-107594935D01*
X150506862Y-107583204D01*
X150471223Y-107564154D01*
X150439983Y-107538517D01*
X150414346Y-107507277D01*
X150395296Y-107471638D01*
X150383565Y-107432968D01*
X150379000Y-107386612D01*
X150379000Y-106735388D01*
X150383565Y-106689032D01*
X150395296Y-106650362D01*
X150414346Y-106614723D01*
X150439983Y-106583483D01*
X150471223Y-106557846D01*
X150506862Y-106538796D01*
X150545532Y-106527065D01*
X150591888Y-106522500D01*
X151668112Y-106522500D01*
X151714468Y-106527065D01*
X151714468Y-106527065D01*
G37*
G36*
X164922468Y-106448565D02*
G01*
X164961138Y-106460296D01*
X164996777Y-106479346D01*
X165028017Y-106504983D01*
X165053654Y-106536223D01*
X165072704Y-106571862D01*
X165084435Y-106610532D01*
X165089000Y-106656888D01*
X165089000Y-107308112D01*
X165084435Y-107354468D01*
X165072704Y-107393138D01*
X165053654Y-107428777D01*
X165028017Y-107460017D01*
X164996777Y-107485654D01*
X164961138Y-107504704D01*
X164922468Y-107516435D01*
X164876112Y-107521000D01*
X163799888Y-107521000D01*
X163753532Y-107516435D01*
X163714862Y-107504704D01*
X163679223Y-107485654D01*
X163647983Y-107460017D01*
X163622346Y-107428777D01*
X163603296Y-107393138D01*
X163591565Y-107354468D01*
X163587000Y-107308112D01*
X163587000Y-106656888D01*
X163591565Y-106610532D01*
X163603296Y-106571862D01*
X163622346Y-106536223D01*
X163647983Y-106504983D01*
X163679223Y-106479346D01*
X163714862Y-106460296D01*
X163753532Y-106448565D01*
X163799888Y-106444000D01*
X164876112Y-106444000D01*
X164922468Y-106448565D01*
X164922468Y-106448565D01*
G37*
G36*
X155270468Y-104700565D02*
G01*
X155309138Y-104712296D01*
X155344777Y-104731346D01*
X155376017Y-104756983D01*
X155401654Y-104788223D01*
X155420704Y-104823862D01*
X155432435Y-104862532D01*
X155437000Y-104908888D01*
X155437000Y-105560112D01*
X155432435Y-105606468D01*
X155420704Y-105645138D01*
X155401654Y-105680777D01*
X155376017Y-105712017D01*
X155344777Y-105737654D01*
X155309138Y-105756704D01*
X155270468Y-105768435D01*
X155224112Y-105773000D01*
X154147888Y-105773000D01*
X154101532Y-105768435D01*
X154062862Y-105756704D01*
X154027223Y-105737654D01*
X153995983Y-105712017D01*
X153970346Y-105680777D01*
X153951296Y-105645138D01*
X153939565Y-105606468D01*
X153935000Y-105560112D01*
X153935000Y-104908888D01*
X153939565Y-104862532D01*
X153951296Y-104823862D01*
X153970346Y-104788223D01*
X153995983Y-104756983D01*
X154027223Y-104731346D01*
X154062862Y-104712296D01*
X154101532Y-104700565D01*
X154147888Y-104696000D01*
X155224112Y-104696000D01*
X155270468Y-104700565D01*
X155270468Y-104700565D01*
G37*
G36*
X151714468Y-104652065D02*
G01*
X151753138Y-104663796D01*
X151788777Y-104682846D01*
X151820017Y-104708483D01*
X151845654Y-104739723D01*
X151864704Y-104775362D01*
X151876435Y-104814032D01*
X151881000Y-104860388D01*
X151881000Y-105511612D01*
X151876435Y-105557968D01*
X151864704Y-105596638D01*
X151845654Y-105632277D01*
X151820017Y-105663517D01*
X151788777Y-105689154D01*
X151753138Y-105708204D01*
X151714468Y-105719935D01*
X151668112Y-105724500D01*
X150591888Y-105724500D01*
X150545532Y-105719935D01*
X150506862Y-105708204D01*
X150471223Y-105689154D01*
X150439983Y-105663517D01*
X150414346Y-105632277D01*
X150395296Y-105596638D01*
X150383565Y-105557968D01*
X150379000Y-105511612D01*
X150379000Y-104860388D01*
X150383565Y-104814032D01*
X150395296Y-104775362D01*
X150414346Y-104739723D01*
X150439983Y-104708483D01*
X150471223Y-104682846D01*
X150506862Y-104663796D01*
X150545532Y-104652065D01*
X150591888Y-104647500D01*
X151668112Y-104647500D01*
X151714468Y-104652065D01*
X151714468Y-104652065D01*
G37*
G36*
X164922468Y-104573565D02*
G01*
X164961138Y-104585296D01*
X164996777Y-104604346D01*
X165028017Y-104629983D01*
X165053654Y-104661223D01*
X165072704Y-104696862D01*
X165084435Y-104735532D01*
X165089000Y-104781888D01*
X165089000Y-105433112D01*
X165084435Y-105479468D01*
X165072704Y-105518138D01*
X165053654Y-105553777D01*
X165028017Y-105585017D01*
X164996777Y-105610654D01*
X164961138Y-105629704D01*
X164922468Y-105641435D01*
X164876112Y-105646000D01*
X163799888Y-105646000D01*
X163753532Y-105641435D01*
X163714862Y-105629704D01*
X163679223Y-105610654D01*
X163647983Y-105585017D01*
X163622346Y-105553777D01*
X163603296Y-105518138D01*
X163591565Y-105479468D01*
X163587000Y-105433112D01*
X163587000Y-104781888D01*
X163591565Y-104735532D01*
X163603296Y-104696862D01*
X163622346Y-104661223D01*
X163647983Y-104629983D01*
X163679223Y-104604346D01*
X163714862Y-104585296D01*
X163753532Y-104573565D01*
X163799888Y-104569000D01*
X164876112Y-104569000D01*
X164922468Y-104573565D01*
X164922468Y-104573565D01*
G37*
G36*
X161092000Y-105523000D02*
G01*
X160340000Y-105523000D01*
X160340000Y-104201000D01*
X161092000Y-104201000D01*
X161092000Y-105523000D01*
X161092000Y-105523000D01*
G37*
G36*
X159192000Y-105523000D02*
G01*
X158440000Y-105523000D01*
X158440000Y-104201000D01*
X159192000Y-104201000D01*
X159192000Y-105523000D01*
X159192000Y-105523000D01*
G37*
G36*
X162797442Y-101213518D02*
G01*
X162863627Y-101220037D01*
X163033466Y-101271557D01*
X163189991Y-101355222D01*
X163225729Y-101384552D01*
X163327186Y-101467814D01*
X163410448Y-101569271D01*
X163439778Y-101605009D01*
X163523443Y-101761534D01*
X163574963Y-101931373D01*
X163592359Y-102108000D01*
X163574963Y-102284627D01*
X163523443Y-102454466D01*
X163439778Y-102610991D01*
X163410448Y-102646729D01*
X163327186Y-102748186D01*
X163225729Y-102831448D01*
X163189991Y-102860778D01*
X163033466Y-102944443D01*
X162863627Y-102995963D01*
X162797443Y-103002481D01*
X162731260Y-103009000D01*
X162642740Y-103009000D01*
X162576558Y-103002482D01*
X162510373Y-102995963D01*
X162340534Y-102944443D01*
X162184009Y-102860778D01*
X162148271Y-102831448D01*
X162046814Y-102748186D01*
X161963552Y-102646729D01*
X161934222Y-102610991D01*
X161850557Y-102454466D01*
X161799037Y-102284627D01*
X161781641Y-102108000D01*
X161799037Y-101931373D01*
X161850557Y-101761534D01*
X161934222Y-101605009D01*
X161963552Y-101569271D01*
X162046814Y-101467814D01*
X162148271Y-101384552D01*
X162184009Y-101355222D01*
X162340534Y-101271557D01*
X162510373Y-101220037D01*
X162576557Y-101213519D01*
X162642740Y-101207000D01*
X162731260Y-101207000D01*
X162797442Y-101213518D01*
X162797442Y-101213518D01*
G37*
G36*
X157196000Y-102713000D02*
G01*
X156494000Y-102713000D01*
X156494000Y-101061000D01*
X157196000Y-101061000D01*
X157196000Y-102713000D01*
X157196000Y-102713000D01*
G37*
G36*
X158466000Y-102713000D02*
G01*
X157764000Y-102713000D01*
X157764000Y-101061000D01*
X158466000Y-101061000D01*
X158466000Y-102713000D01*
X158466000Y-102713000D01*
G37*
G36*
X159736000Y-102713000D02*
G01*
X159034000Y-102713000D01*
X159034000Y-101061000D01*
X159736000Y-101061000D01*
X159736000Y-102713000D01*
X159736000Y-102713000D01*
G37*
G36*
X155926000Y-102713000D02*
G01*
X155224000Y-102713000D01*
X155224000Y-101061000D01*
X155926000Y-101061000D01*
X155926000Y-102713000D01*
X155926000Y-102713000D01*
G37*
G36*
X162797442Y-98673518D02*
G01*
X162863627Y-98680037D01*
X163033466Y-98731557D01*
X163189991Y-98815222D01*
X163225729Y-98844552D01*
X163327186Y-98927814D01*
X163410448Y-99029271D01*
X163439778Y-99065009D01*
X163523443Y-99221534D01*
X163574963Y-99391373D01*
X163592359Y-99568000D01*
X163574963Y-99744627D01*
X163523443Y-99914466D01*
X163439778Y-100070991D01*
X163410448Y-100106729D01*
X163327186Y-100208186D01*
X163225729Y-100291448D01*
X163189991Y-100320778D01*
X163033466Y-100404443D01*
X162863627Y-100455963D01*
X162797442Y-100462482D01*
X162731260Y-100469000D01*
X162642740Y-100469000D01*
X162576557Y-100462481D01*
X162510373Y-100455963D01*
X162340534Y-100404443D01*
X162184009Y-100320778D01*
X162148271Y-100291448D01*
X162046814Y-100208186D01*
X161963552Y-100106729D01*
X161934222Y-100070991D01*
X161850557Y-99914466D01*
X161799037Y-99744627D01*
X161781641Y-99568000D01*
X161799037Y-99391373D01*
X161850557Y-99221534D01*
X161934222Y-99065009D01*
X161963552Y-99029271D01*
X162046814Y-98927814D01*
X162148271Y-98844552D01*
X162184009Y-98815222D01*
X162340534Y-98731557D01*
X162510373Y-98680037D01*
X162576558Y-98673518D01*
X162642740Y-98667000D01*
X162731260Y-98667000D01*
X162797442Y-98673518D01*
X162797442Y-98673518D01*
G37*
G36*
X153037442Y-98673518D02*
G01*
X153103627Y-98680037D01*
X153273466Y-98731557D01*
X153429991Y-98815222D01*
X153465729Y-98844552D01*
X153567186Y-98927814D01*
X153650448Y-99029271D01*
X153679778Y-99065009D01*
X153763443Y-99221534D01*
X153814963Y-99391373D01*
X153832359Y-99568000D01*
X153814963Y-99744627D01*
X153763443Y-99914466D01*
X153679778Y-100070991D01*
X153650448Y-100106729D01*
X153567186Y-100208186D01*
X153465729Y-100291448D01*
X153429991Y-100320778D01*
X153273466Y-100404443D01*
X153103627Y-100455963D01*
X153037442Y-100462482D01*
X152971260Y-100469000D01*
X152882740Y-100469000D01*
X152816557Y-100462481D01*
X152750373Y-100455963D01*
X152580534Y-100404443D01*
X152424009Y-100320778D01*
X152388271Y-100291448D01*
X152286814Y-100208186D01*
X152203552Y-100106729D01*
X152174222Y-100070991D01*
X152090557Y-99914466D01*
X152039037Y-99744627D01*
X152021641Y-99568000D01*
X152039037Y-99391373D01*
X152090557Y-99221534D01*
X152174222Y-99065009D01*
X152203552Y-99029271D01*
X152286814Y-98927814D01*
X152388271Y-98844552D01*
X152424009Y-98815222D01*
X152580534Y-98731557D01*
X152750373Y-98680037D01*
X152816558Y-98673518D01*
X152882740Y-98667000D01*
X152971260Y-98667000D01*
X153037442Y-98673518D01*
X153037442Y-98673518D01*
G37*
G36*
X153037443Y-96133519D02*
G01*
X153103627Y-96140037D01*
X153273466Y-96191557D01*
X153429991Y-96275222D01*
X153465729Y-96304552D01*
X153567186Y-96387814D01*
X153650448Y-96489271D01*
X153679778Y-96525009D01*
X153763443Y-96681534D01*
X153814963Y-96851373D01*
X153832359Y-97028000D01*
X153814963Y-97204627D01*
X153763443Y-97374466D01*
X153679778Y-97530991D01*
X153650448Y-97566729D01*
X153567186Y-97668186D01*
X153465729Y-97751448D01*
X153429991Y-97780778D01*
X153273466Y-97864443D01*
X153103627Y-97915963D01*
X153037442Y-97922482D01*
X152971260Y-97929000D01*
X152882740Y-97929000D01*
X152816558Y-97922482D01*
X152750373Y-97915963D01*
X152580534Y-97864443D01*
X152424009Y-97780778D01*
X152388271Y-97751448D01*
X152286814Y-97668186D01*
X152203552Y-97566729D01*
X152174222Y-97530991D01*
X152090557Y-97374466D01*
X152039037Y-97204627D01*
X152021641Y-97028000D01*
X152039037Y-96851373D01*
X152090557Y-96681534D01*
X152174222Y-96525009D01*
X152203552Y-96489271D01*
X152286814Y-96387814D01*
X152388271Y-96304552D01*
X152424009Y-96275222D01*
X152580534Y-96191557D01*
X152750373Y-96140037D01*
X152816557Y-96133519D01*
X152882740Y-96127000D01*
X152971260Y-96127000D01*
X153037443Y-96133519D01*
X153037443Y-96133519D01*
G37*
G36*
X162797443Y-96133519D02*
G01*
X162863627Y-96140037D01*
X163033466Y-96191557D01*
X163189991Y-96275222D01*
X163225729Y-96304552D01*
X163327186Y-96387814D01*
X163410448Y-96489271D01*
X163439778Y-96525009D01*
X163523443Y-96681534D01*
X163574963Y-96851373D01*
X163592359Y-97028000D01*
X163574963Y-97204627D01*
X163523443Y-97374466D01*
X163439778Y-97530991D01*
X163410448Y-97566729D01*
X163327186Y-97668186D01*
X163225729Y-97751448D01*
X163189991Y-97780778D01*
X163033466Y-97864443D01*
X162863627Y-97915963D01*
X162797442Y-97922482D01*
X162731260Y-97929000D01*
X162642740Y-97929000D01*
X162576558Y-97922482D01*
X162510373Y-97915963D01*
X162340534Y-97864443D01*
X162184009Y-97780778D01*
X162148271Y-97751448D01*
X162046814Y-97668186D01*
X161963552Y-97566729D01*
X161934222Y-97530991D01*
X161850557Y-97374466D01*
X161799037Y-97204627D01*
X161781641Y-97028000D01*
X161799037Y-96851373D01*
X161850557Y-96681534D01*
X161934222Y-96525009D01*
X161963552Y-96489271D01*
X162046814Y-96387814D01*
X162148271Y-96304552D01*
X162184009Y-96275222D01*
X162340534Y-96191557D01*
X162510373Y-96140037D01*
X162576557Y-96133519D01*
X162642740Y-96127000D01*
X162731260Y-96127000D01*
X162797443Y-96133519D01*
X162797443Y-96133519D01*
G37*
G36*
X155926000Y-97313000D02*
G01*
X155224000Y-97313000D01*
X155224000Y-95661000D01*
X155926000Y-95661000D01*
X155926000Y-97313000D01*
X155926000Y-97313000D01*
G37*
G36*
X158466000Y-97313000D02*
G01*
X157764000Y-97313000D01*
X157764000Y-95661000D01*
X158466000Y-95661000D01*
X158466000Y-97313000D01*
X158466000Y-97313000D01*
G37*
G36*
X157196000Y-97313000D02*
G01*
X156494000Y-97313000D01*
X156494000Y-95661000D01*
X157196000Y-95661000D01*
X157196000Y-97313000D01*
X157196000Y-97313000D01*
G37*
G36*
X159736000Y-97313000D02*
G01*
X159034000Y-97313000D01*
X159034000Y-95661000D01*
X159736000Y-95661000D01*
X159736000Y-97313000D01*
X159736000Y-97313000D01*
G37*
G36*
X162797442Y-93593518D02*
G01*
X162863627Y-93600037D01*
X163033466Y-93651557D01*
X163189991Y-93735222D01*
X163225729Y-93764552D01*
X163327186Y-93847814D01*
X163410448Y-93949271D01*
X163439778Y-93985009D01*
X163523443Y-94141534D01*
X163574963Y-94311373D01*
X163592359Y-94488000D01*
X163574963Y-94664627D01*
X163523443Y-94834466D01*
X163439778Y-94990991D01*
X163410448Y-95026729D01*
X163327186Y-95128186D01*
X163225729Y-95211448D01*
X163189991Y-95240778D01*
X163033466Y-95324443D01*
X162863627Y-95375963D01*
X162797443Y-95382481D01*
X162731260Y-95389000D01*
X162642740Y-95389000D01*
X162576557Y-95382481D01*
X162510373Y-95375963D01*
X162340534Y-95324443D01*
X162184009Y-95240778D01*
X162148271Y-95211448D01*
X162046814Y-95128186D01*
X161963552Y-95026729D01*
X161934222Y-94990991D01*
X161850557Y-94834466D01*
X161799037Y-94664627D01*
X161781641Y-94488000D01*
X161799037Y-94311373D01*
X161850557Y-94141534D01*
X161934222Y-93985009D01*
X161963552Y-93949271D01*
X162046814Y-93847814D01*
X162148271Y-93764552D01*
X162184009Y-93735222D01*
X162340534Y-93651557D01*
X162510373Y-93600037D01*
X162576557Y-93593519D01*
X162642740Y-93587000D01*
X162731260Y-93587000D01*
X162797442Y-93593518D01*
X162797442Y-93593518D01*
G37*
G36*
X153037442Y-93593518D02*
G01*
X153103627Y-93600037D01*
X153273466Y-93651557D01*
X153429991Y-93735222D01*
X153465729Y-93764552D01*
X153567186Y-93847814D01*
X153650448Y-93949271D01*
X153679778Y-93985009D01*
X153763443Y-94141534D01*
X153814963Y-94311373D01*
X153832359Y-94488000D01*
X153814963Y-94664627D01*
X153763443Y-94834466D01*
X153679778Y-94990991D01*
X153650448Y-95026729D01*
X153567186Y-95128186D01*
X153465729Y-95211448D01*
X153429991Y-95240778D01*
X153273466Y-95324443D01*
X153103627Y-95375963D01*
X153037443Y-95382481D01*
X152971260Y-95389000D01*
X152882740Y-95389000D01*
X152816557Y-95382481D01*
X152750373Y-95375963D01*
X152580534Y-95324443D01*
X152424009Y-95240778D01*
X152388271Y-95211448D01*
X152286814Y-95128186D01*
X152203552Y-95026729D01*
X152174222Y-94990991D01*
X152090557Y-94834466D01*
X152039037Y-94664627D01*
X152021641Y-94488000D01*
X152039037Y-94311373D01*
X152090557Y-94141534D01*
X152174222Y-93985009D01*
X152203552Y-93949271D01*
X152286814Y-93847814D01*
X152388271Y-93764552D01*
X152424009Y-93735222D01*
X152580534Y-93651557D01*
X152750373Y-93600037D01*
X152816557Y-93593519D01*
X152882740Y-93587000D01*
X152971260Y-93587000D01*
X153037442Y-93593518D01*
X153037442Y-93593518D01*
G37*
G36*
X153037442Y-91053518D02*
G01*
X153103627Y-91060037D01*
X153273466Y-91111557D01*
X153429991Y-91195222D01*
X153465729Y-91224552D01*
X153567186Y-91307814D01*
X153650448Y-91409271D01*
X153679778Y-91445009D01*
X153763443Y-91601534D01*
X153814963Y-91771373D01*
X153832359Y-91948000D01*
X153814963Y-92124627D01*
X153763443Y-92294466D01*
X153679778Y-92450991D01*
X153678673Y-92452337D01*
X153567186Y-92588186D01*
X153465729Y-92671448D01*
X153429991Y-92700778D01*
X153273466Y-92784443D01*
X153103627Y-92835963D01*
X153037442Y-92842482D01*
X152971260Y-92849000D01*
X152882740Y-92849000D01*
X152816558Y-92842482D01*
X152750373Y-92835963D01*
X152580534Y-92784443D01*
X152424009Y-92700778D01*
X152388271Y-92671448D01*
X152286814Y-92588186D01*
X152175327Y-92452337D01*
X152174222Y-92450991D01*
X152090557Y-92294466D01*
X152039037Y-92124627D01*
X152021641Y-91948000D01*
X152039037Y-91771373D01*
X152090557Y-91601534D01*
X152174222Y-91445009D01*
X152203552Y-91409271D01*
X152286814Y-91307814D01*
X152388271Y-91224552D01*
X152424009Y-91195222D01*
X152580534Y-91111557D01*
X152750373Y-91060037D01*
X152816558Y-91053518D01*
X152882740Y-91047000D01*
X152971260Y-91047000D01*
X153037442Y-91053518D01*
X153037442Y-91053518D01*
G37*
G36*
X162797442Y-91053518D02*
G01*
X162863627Y-91060037D01*
X163033466Y-91111557D01*
X163189991Y-91195222D01*
X163225729Y-91224552D01*
X163327186Y-91307814D01*
X163410448Y-91409271D01*
X163439778Y-91445009D01*
X163523443Y-91601534D01*
X163574963Y-91771373D01*
X163592359Y-91948000D01*
X163574963Y-92124627D01*
X163523443Y-92294466D01*
X163439778Y-92450991D01*
X163438673Y-92452337D01*
X163327186Y-92588186D01*
X163225729Y-92671448D01*
X163189991Y-92700778D01*
X163033466Y-92784443D01*
X162863627Y-92835963D01*
X162797442Y-92842482D01*
X162731260Y-92849000D01*
X162642740Y-92849000D01*
X162576558Y-92842482D01*
X162510373Y-92835963D01*
X162340534Y-92784443D01*
X162184009Y-92700778D01*
X162148271Y-92671448D01*
X162046814Y-92588186D01*
X161935327Y-92452337D01*
X161934222Y-92450991D01*
X161850557Y-92294466D01*
X161799037Y-92124627D01*
X161781641Y-91948000D01*
X161799037Y-91771373D01*
X161850557Y-91601534D01*
X161934222Y-91445009D01*
X161963552Y-91409271D01*
X162046814Y-91307814D01*
X162148271Y-91224552D01*
X162184009Y-91195222D01*
X162340534Y-91111557D01*
X162510373Y-91060037D01*
X162576558Y-91053518D01*
X162642740Y-91047000D01*
X162731260Y-91047000D01*
X162797442Y-91053518D01*
X162797442Y-91053518D01*
G37*
G36*
X158867968Y-91074565D02*
G01*
X158906638Y-91086296D01*
X158942277Y-91105346D01*
X158973517Y-91130983D01*
X158999154Y-91162223D01*
X159018204Y-91197862D01*
X159029935Y-91236532D01*
X159034500Y-91282888D01*
X159034500Y-92359112D01*
X159029935Y-92405468D01*
X159018204Y-92444138D01*
X158999154Y-92479777D01*
X158973517Y-92511017D01*
X158942277Y-92536654D01*
X158906638Y-92555704D01*
X158867968Y-92567435D01*
X158821612Y-92572000D01*
X158170388Y-92572000D01*
X158124032Y-92567435D01*
X158085362Y-92555704D01*
X158049723Y-92536654D01*
X158018483Y-92511017D01*
X157992846Y-92479777D01*
X157973796Y-92444138D01*
X157962065Y-92405468D01*
X157957500Y-92359112D01*
X157957500Y-91282888D01*
X157962065Y-91236532D01*
X157973796Y-91197862D01*
X157992846Y-91162223D01*
X158018483Y-91130983D01*
X158049723Y-91105346D01*
X158085362Y-91086296D01*
X158124032Y-91074565D01*
X158170388Y-91070000D01*
X158821612Y-91070000D01*
X158867968Y-91074565D01*
X158867968Y-91074565D01*
G37*
G36*
X156992968Y-91074565D02*
G01*
X157031638Y-91086296D01*
X157067277Y-91105346D01*
X157098517Y-91130983D01*
X157124154Y-91162223D01*
X157143204Y-91197862D01*
X157154935Y-91236532D01*
X157159500Y-91282888D01*
X157159500Y-92359112D01*
X157154935Y-92405468D01*
X157143204Y-92444138D01*
X157124154Y-92479777D01*
X157098517Y-92511017D01*
X157067277Y-92536654D01*
X157031638Y-92555704D01*
X156992968Y-92567435D01*
X156946612Y-92572000D01*
X156295388Y-92572000D01*
X156249032Y-92567435D01*
X156210362Y-92555704D01*
X156174723Y-92536654D01*
X156143483Y-92511017D01*
X156117846Y-92479777D01*
X156098796Y-92444138D01*
X156087065Y-92405468D01*
X156082500Y-92359112D01*
X156082500Y-91282888D01*
X156087065Y-91236532D01*
X156098796Y-91197862D01*
X156117846Y-91162223D01*
X156143483Y-91130983D01*
X156174723Y-91105346D01*
X156210362Y-91086296D01*
X156249032Y-91074565D01*
X156295388Y-91070000D01*
X156946612Y-91070000D01*
X156992968Y-91074565D01*
X156992968Y-91074565D01*
G37*
G36*
X155202000Y-74490007D02*
G01*
X155204402Y-74514393D01*
X155211515Y-74537842D01*
X155223066Y-74559453D01*
X155238611Y-74578395D01*
X155257553Y-74593940D01*
X155279164Y-74605491D01*
X155302613Y-74612604D01*
X155326999Y-74615006D01*
X155351385Y-74612604D01*
X155374834Y-74605491D01*
X155396445Y-74593940D01*
X155415387Y-74578395D01*
X155430932Y-74559453D01*
X155442483Y-74537842D01*
X155449596Y-74514393D01*
X155484232Y-74340267D01*
X155570996Y-74130799D01*
X155570997Y-74130797D01*
X155696960Y-73942280D01*
X155857280Y-73781960D01*
X156045797Y-73655997D01*
X156255266Y-73569232D01*
X156366451Y-73547116D01*
X156477635Y-73525000D01*
X156704365Y-73525000D01*
X156815549Y-73547116D01*
X156926734Y-73569232D01*
X157136203Y-73655997D01*
X157324720Y-73781960D01*
X157485040Y-73942280D01*
X157611003Y-74130797D01*
X157611004Y-74130799D01*
X157697768Y-74340267D01*
X157738403Y-74544552D01*
X157745516Y-74568001D01*
X157757067Y-74589612D01*
X157772612Y-74608554D01*
X157791554Y-74624099D01*
X157813165Y-74635650D01*
X157836614Y-74642763D01*
X157861000Y-74645165D01*
X157885386Y-74642763D01*
X157908835Y-74635650D01*
X157930446Y-74624099D01*
X157949388Y-74608554D01*
X157964933Y-74589612D01*
X157976484Y-74568001D01*
X157983597Y-74544552D01*
X158024232Y-74340267D01*
X158110996Y-74130799D01*
X158110997Y-74130797D01*
X158236960Y-73942280D01*
X158397280Y-73781960D01*
X158585797Y-73655997D01*
X158795266Y-73569232D01*
X158906451Y-73547116D01*
X159017635Y-73525000D01*
X159244365Y-73525000D01*
X159355549Y-73547116D01*
X159466734Y-73569232D01*
X159676203Y-73655997D01*
X159864720Y-73781960D01*
X160025040Y-73942280D01*
X160151003Y-74130797D01*
X160151004Y-74130799D01*
X160237768Y-74340267D01*
X160278403Y-74544552D01*
X160285516Y-74568001D01*
X160297067Y-74589612D01*
X160312612Y-74608554D01*
X160331554Y-74624099D01*
X160353165Y-74635650D01*
X160376614Y-74642763D01*
X160401000Y-74645165D01*
X160425386Y-74642763D01*
X160448835Y-74635650D01*
X160470446Y-74624099D01*
X160489388Y-74608554D01*
X160504933Y-74589612D01*
X160516484Y-74568001D01*
X160523597Y-74544552D01*
X160564232Y-74340267D01*
X160650996Y-74130799D01*
X160650997Y-74130797D01*
X160776960Y-73942280D01*
X160937280Y-73781960D01*
X161125797Y-73655997D01*
X161335266Y-73569232D01*
X161446451Y-73547116D01*
X161557635Y-73525000D01*
X161784365Y-73525000D01*
X161895549Y-73547116D01*
X162006734Y-73569232D01*
X162216203Y-73655997D01*
X162404720Y-73781960D01*
X162565040Y-73942280D01*
X162691003Y-74130797D01*
X162777768Y-74340266D01*
X162822000Y-74562636D01*
X162822000Y-74789364D01*
X162777768Y-75011734D01*
X162691003Y-75221203D01*
X162565040Y-75409720D01*
X162404720Y-75570040D01*
X162216203Y-75696003D01*
X162006734Y-75782768D01*
X161895549Y-75804884D01*
X161784365Y-75827000D01*
X161557635Y-75827000D01*
X161446451Y-75804884D01*
X161335266Y-75782768D01*
X161125797Y-75696003D01*
X160937280Y-75570040D01*
X160776960Y-75409720D01*
X160650997Y-75221203D01*
X160564232Y-75011734D01*
X160523597Y-74807448D01*
X160516484Y-74783999D01*
X160504933Y-74762388D01*
X160489388Y-74743446D01*
X160470446Y-74727901D01*
X160448835Y-74716350D01*
X160425386Y-74709237D01*
X160401000Y-74706835D01*
X160376614Y-74709237D01*
X160353165Y-74716350D01*
X160331554Y-74727901D01*
X160312612Y-74743446D01*
X160297067Y-74762388D01*
X160285516Y-74783999D01*
X160278403Y-74807448D01*
X160237768Y-75011734D01*
X160151003Y-75221203D01*
X160025040Y-75409720D01*
X159864720Y-75570040D01*
X159676203Y-75696003D01*
X159466734Y-75782768D01*
X159355549Y-75804884D01*
X159244365Y-75827000D01*
X159017635Y-75827000D01*
X158906451Y-75804884D01*
X158795266Y-75782768D01*
X158585797Y-75696003D01*
X158397280Y-75570040D01*
X158236960Y-75409720D01*
X158110997Y-75221203D01*
X158024232Y-75011734D01*
X157983597Y-74807448D01*
X157976484Y-74783999D01*
X157964933Y-74762388D01*
X157949388Y-74743446D01*
X157930446Y-74727901D01*
X157908835Y-74716350D01*
X157885386Y-74709237D01*
X157861000Y-74706835D01*
X157836614Y-74709237D01*
X157813165Y-74716350D01*
X157791554Y-74727901D01*
X157772612Y-74743446D01*
X157757067Y-74762388D01*
X157745516Y-74783999D01*
X157738403Y-74807448D01*
X157697768Y-75011734D01*
X157611003Y-75221203D01*
X157485040Y-75409720D01*
X157324720Y-75570040D01*
X157136203Y-75696003D01*
X156926734Y-75782768D01*
X156815549Y-75804884D01*
X156704365Y-75827000D01*
X156477635Y-75827000D01*
X156366451Y-75804884D01*
X156255266Y-75782768D01*
X156045797Y-75696003D01*
X155857280Y-75570040D01*
X155696960Y-75409720D01*
X155570997Y-75221203D01*
X155484232Y-75011734D01*
X155449596Y-74837607D01*
X155442483Y-74814158D01*
X155430932Y-74792547D01*
X155415387Y-74773605D01*
X155396445Y-74758060D01*
X155374834Y-74746509D01*
X155351385Y-74739396D01*
X155326999Y-74736994D01*
X155302613Y-74739396D01*
X155279164Y-74746509D01*
X155257553Y-74758060D01*
X155238611Y-74773605D01*
X155223066Y-74792547D01*
X155211515Y-74814158D01*
X155204402Y-74837607D01*
X155202000Y-74861993D01*
X155202000Y-75827000D01*
X152900000Y-75827000D01*
X152900000Y-73525000D01*
X155202000Y-73525000D01*
X155202000Y-74490007D01*
X155202000Y-74490007D01*
G37*
M02*
