G04 #@! TF.GenerationSoftware,KiCad,Pcbnew,(5.1.0)-1*
G04 #@! TF.CreationDate,2019-04-03T20:48:48-04:00*
G04 #@! TF.ProjectId,thermocouple_daughter,74686572-6d6f-4636-9f75-706c655f6461,rev?*
G04 #@! TF.SameCoordinates,Original*
G04 #@! TF.FileFunction,Soldermask,Top*
G04 #@! TF.FilePolarity,Negative*
%FSLAX46Y46*%
G04 Gerber Fmt 4.6, Leading zero omitted, Abs format (unit mm)*
G04 Created by KiCad (PCBNEW (5.1.0)-1) date 2019-04-03 20:48:48*
%MOMM*%
%LPD*%
G04 APERTURE LIST*
%ADD10C,0.100000*%
G04 APERTURE END LIST*
D10*
G36*
X163504000Y-107804000D02*
G01*
X161952000Y-107804000D01*
X161952000Y-105302000D01*
X163504000Y-105302000D01*
X163504000Y-107804000D01*
X163504000Y-107804000D01*
G37*
G36*
X159104000Y-107804000D02*
G01*
X157552000Y-107804000D01*
X157552000Y-105302000D01*
X159104000Y-105302000D01*
X159104000Y-107804000D01*
X159104000Y-107804000D01*
G37*
G36*
X155768000Y-107752000D02*
G01*
X154446000Y-107752000D01*
X154446000Y-105100000D01*
X155768000Y-105100000D01*
X155768000Y-107752000D01*
X155768000Y-107752000D01*
G37*
G36*
X153148000Y-107752000D02*
G01*
X151826000Y-107752000D01*
X151826000Y-107000000D01*
X153148000Y-107000000D01*
X153148000Y-107752000D01*
X153148000Y-107752000D01*
G37*
G36*
X153148000Y-105852000D02*
G01*
X151826000Y-105852000D01*
X151826000Y-105100000D01*
X153148000Y-105100000D01*
X153148000Y-105852000D01*
X153148000Y-105852000D01*
G37*
G36*
X165938468Y-104211065D02*
G01*
X165977138Y-104222796D01*
X166012777Y-104241846D01*
X166044017Y-104267483D01*
X166069654Y-104298723D01*
X166088704Y-104334362D01*
X166100435Y-104373032D01*
X166105000Y-104419388D01*
X166105000Y-105070612D01*
X166100435Y-105116968D01*
X166088704Y-105155638D01*
X166069654Y-105191277D01*
X166044017Y-105222517D01*
X166012777Y-105248154D01*
X165977138Y-105267204D01*
X165938468Y-105278935D01*
X165892112Y-105283500D01*
X164815888Y-105283500D01*
X164769532Y-105278935D01*
X164730862Y-105267204D01*
X164695223Y-105248154D01*
X164663983Y-105222517D01*
X164638346Y-105191277D01*
X164619296Y-105155638D01*
X164607565Y-105116968D01*
X164603000Y-105070612D01*
X164603000Y-104419388D01*
X164607565Y-104373032D01*
X164619296Y-104334362D01*
X164638346Y-104298723D01*
X164663983Y-104267483D01*
X164695223Y-104241846D01*
X164730862Y-104222796D01*
X164769532Y-104211065D01*
X164815888Y-104206500D01*
X165892112Y-104206500D01*
X165938468Y-104211065D01*
X165938468Y-104211065D01*
G37*
G36*
X165938468Y-102336065D02*
G01*
X165977138Y-102347796D01*
X166012777Y-102366846D01*
X166044017Y-102392483D01*
X166069654Y-102423723D01*
X166088704Y-102459362D01*
X166100435Y-102498032D01*
X166105000Y-102544388D01*
X166105000Y-103195612D01*
X166100435Y-103241968D01*
X166088704Y-103280638D01*
X166069654Y-103316277D01*
X166044017Y-103347517D01*
X166012777Y-103373154D01*
X165977138Y-103392204D01*
X165938468Y-103403935D01*
X165892112Y-103408500D01*
X164815888Y-103408500D01*
X164769532Y-103403935D01*
X164730862Y-103392204D01*
X164695223Y-103373154D01*
X164663983Y-103347517D01*
X164638346Y-103316277D01*
X164619296Y-103280638D01*
X164607565Y-103241968D01*
X164603000Y-103195612D01*
X164603000Y-102544388D01*
X164607565Y-102498032D01*
X164619296Y-102459362D01*
X164638346Y-102423723D01*
X164663983Y-102392483D01*
X164695223Y-102366846D01*
X164730862Y-102347796D01*
X164769532Y-102336065D01*
X164815888Y-102331500D01*
X165892112Y-102331500D01*
X165938468Y-102336065D01*
X165938468Y-102336065D01*
G37*
G36*
X162778442Y-101213518D02*
G01*
X162844627Y-101220037D01*
X163014466Y-101271557D01*
X163170991Y-101355222D01*
X163206729Y-101384552D01*
X163308186Y-101467814D01*
X163391448Y-101569271D01*
X163420778Y-101605009D01*
X163504443Y-101761534D01*
X163555963Y-101931373D01*
X163573359Y-102108000D01*
X163555963Y-102284627D01*
X163504443Y-102454466D01*
X163420778Y-102610991D01*
X163391448Y-102646729D01*
X163308186Y-102748186D01*
X163219292Y-102821138D01*
X163170991Y-102860778D01*
X163014466Y-102944443D01*
X162844627Y-102995963D01*
X162778443Y-103002481D01*
X162712260Y-103009000D01*
X162623740Y-103009000D01*
X162557558Y-103002482D01*
X162491373Y-102995963D01*
X162321534Y-102944443D01*
X162165009Y-102860778D01*
X162116708Y-102821138D01*
X162027814Y-102748186D01*
X161944552Y-102646729D01*
X161915222Y-102610991D01*
X161831557Y-102454466D01*
X161780037Y-102284627D01*
X161762641Y-102108000D01*
X161780037Y-101931373D01*
X161831557Y-101761534D01*
X161915222Y-101605009D01*
X161944552Y-101569271D01*
X162027814Y-101467814D01*
X162129271Y-101384552D01*
X162165009Y-101355222D01*
X162321534Y-101271557D01*
X162491373Y-101220037D01*
X162557557Y-101213519D01*
X162623740Y-101207000D01*
X162712260Y-101207000D01*
X162778442Y-101213518D01*
X162778442Y-101213518D01*
G37*
G36*
X158953468Y-101876565D02*
G01*
X158992138Y-101888296D01*
X159027777Y-101907346D01*
X159059017Y-101932983D01*
X159084654Y-101964223D01*
X159103704Y-101999862D01*
X159115435Y-102038532D01*
X159120000Y-102084888D01*
X159120000Y-102736112D01*
X159115435Y-102782468D01*
X159103704Y-102821138D01*
X159084654Y-102856777D01*
X159059017Y-102888017D01*
X159027777Y-102913654D01*
X158992138Y-102932704D01*
X158953468Y-102944435D01*
X158907112Y-102949000D01*
X157830888Y-102949000D01*
X157784532Y-102944435D01*
X157745862Y-102932704D01*
X157710223Y-102913654D01*
X157678983Y-102888017D01*
X157653346Y-102856777D01*
X157634296Y-102821138D01*
X157622565Y-102782468D01*
X157618000Y-102736112D01*
X157618000Y-102084888D01*
X157622565Y-102038532D01*
X157634296Y-101999862D01*
X157653346Y-101964223D01*
X157678983Y-101932983D01*
X157710223Y-101907346D01*
X157745862Y-101888296D01*
X157784532Y-101876565D01*
X157830888Y-101872000D01*
X158907112Y-101872000D01*
X158953468Y-101876565D01*
X158953468Y-101876565D01*
G37*
G36*
X155524468Y-101828065D02*
G01*
X155563138Y-101839796D01*
X155598777Y-101858846D01*
X155630017Y-101884483D01*
X155655654Y-101915723D01*
X155674704Y-101951362D01*
X155686435Y-101990032D01*
X155691000Y-102036388D01*
X155691000Y-102687612D01*
X155686435Y-102733968D01*
X155674704Y-102772638D01*
X155655654Y-102808277D01*
X155630017Y-102839517D01*
X155598777Y-102865154D01*
X155563138Y-102884204D01*
X155524468Y-102895935D01*
X155478112Y-102900500D01*
X154401888Y-102900500D01*
X154355532Y-102895935D01*
X154316862Y-102884204D01*
X154281223Y-102865154D01*
X154249983Y-102839517D01*
X154224346Y-102808277D01*
X154205296Y-102772638D01*
X154193565Y-102733968D01*
X154189000Y-102687612D01*
X154189000Y-102036388D01*
X154193565Y-101990032D01*
X154205296Y-101951362D01*
X154224346Y-101915723D01*
X154249983Y-101884483D01*
X154281223Y-101858846D01*
X154316862Y-101839796D01*
X154355532Y-101828065D01*
X154401888Y-101823500D01*
X155478112Y-101823500D01*
X155524468Y-101828065D01*
X155524468Y-101828065D01*
G37*
G36*
X158953468Y-100001565D02*
G01*
X158992138Y-100013296D01*
X159027777Y-100032346D01*
X159059017Y-100057983D01*
X159084654Y-100089223D01*
X159103704Y-100124862D01*
X159115435Y-100163532D01*
X159120000Y-100209888D01*
X159120000Y-100861112D01*
X159115435Y-100907468D01*
X159103704Y-100946138D01*
X159084654Y-100981777D01*
X159059017Y-101013017D01*
X159027777Y-101038654D01*
X158992138Y-101057704D01*
X158953468Y-101069435D01*
X158907112Y-101074000D01*
X157830888Y-101074000D01*
X157784532Y-101069435D01*
X157745862Y-101057704D01*
X157710223Y-101038654D01*
X157678983Y-101013017D01*
X157653346Y-100981777D01*
X157634296Y-100946138D01*
X157622565Y-100907468D01*
X157618000Y-100861112D01*
X157618000Y-100209888D01*
X157622565Y-100163532D01*
X157634296Y-100124862D01*
X157653346Y-100089223D01*
X157678983Y-100057983D01*
X157710223Y-100032346D01*
X157745862Y-100013296D01*
X157784532Y-100001565D01*
X157830888Y-99997000D01*
X158907112Y-99997000D01*
X158953468Y-100001565D01*
X158953468Y-100001565D01*
G37*
G36*
X155524468Y-99953065D02*
G01*
X155563138Y-99964796D01*
X155598777Y-99983846D01*
X155630017Y-100009483D01*
X155655654Y-100040723D01*
X155674704Y-100076362D01*
X155686435Y-100115032D01*
X155691000Y-100161388D01*
X155691000Y-100812612D01*
X155686435Y-100858968D01*
X155674704Y-100897638D01*
X155655654Y-100933277D01*
X155630017Y-100964517D01*
X155598777Y-100990154D01*
X155563138Y-101009204D01*
X155524468Y-101020935D01*
X155478112Y-101025500D01*
X154401888Y-101025500D01*
X154355532Y-101020935D01*
X154316862Y-101009204D01*
X154281223Y-100990154D01*
X154249983Y-100964517D01*
X154224346Y-100933277D01*
X154205296Y-100897638D01*
X154193565Y-100858968D01*
X154189000Y-100812612D01*
X154189000Y-100161388D01*
X154193565Y-100115032D01*
X154205296Y-100076362D01*
X154224346Y-100040723D01*
X154249983Y-100009483D01*
X154281223Y-99983846D01*
X154316862Y-99964796D01*
X154355532Y-99953065D01*
X154401888Y-99948500D01*
X155478112Y-99948500D01*
X155524468Y-99953065D01*
X155524468Y-99953065D01*
G37*
G36*
X153018442Y-98673518D02*
G01*
X153084627Y-98680037D01*
X153254466Y-98731557D01*
X153254468Y-98731558D01*
X153332729Y-98773390D01*
X153410991Y-98815222D01*
X153442739Y-98841277D01*
X153548186Y-98927814D01*
X153631448Y-99029271D01*
X153660778Y-99065009D01*
X153744443Y-99221534D01*
X153795963Y-99391373D01*
X153813359Y-99568000D01*
X153795963Y-99744627D01*
X153744443Y-99914466D01*
X153660778Y-100070991D01*
X153656781Y-100075861D01*
X153548186Y-100208186D01*
X153446729Y-100291448D01*
X153410991Y-100320778D01*
X153254466Y-100404443D01*
X153084627Y-100455963D01*
X153018442Y-100462482D01*
X152952260Y-100469000D01*
X152863740Y-100469000D01*
X152797557Y-100462481D01*
X152731373Y-100455963D01*
X152561534Y-100404443D01*
X152405009Y-100320778D01*
X152369271Y-100291448D01*
X152267814Y-100208186D01*
X152159219Y-100075861D01*
X152155222Y-100070991D01*
X152071557Y-99914466D01*
X152020037Y-99744627D01*
X152002641Y-99568000D01*
X152020037Y-99391373D01*
X152071557Y-99221534D01*
X152155222Y-99065009D01*
X152184552Y-99029271D01*
X152267814Y-98927814D01*
X152373261Y-98841277D01*
X152405009Y-98815222D01*
X152483271Y-98773390D01*
X152561532Y-98731558D01*
X152561534Y-98731557D01*
X152731373Y-98680037D01*
X152797558Y-98673518D01*
X152863740Y-98667000D01*
X152952260Y-98667000D01*
X153018442Y-98673518D01*
X153018442Y-98673518D01*
G37*
G36*
X162778442Y-98673518D02*
G01*
X162844627Y-98680037D01*
X163014466Y-98731557D01*
X163014468Y-98731558D01*
X163092729Y-98773390D01*
X163170991Y-98815222D01*
X163202739Y-98841277D01*
X163308186Y-98927814D01*
X163391448Y-99029271D01*
X163420778Y-99065009D01*
X163504443Y-99221534D01*
X163555963Y-99391373D01*
X163573359Y-99568000D01*
X163555963Y-99744627D01*
X163504443Y-99914466D01*
X163420778Y-100070991D01*
X163416781Y-100075861D01*
X163308186Y-100208186D01*
X163206729Y-100291448D01*
X163170991Y-100320778D01*
X163014466Y-100404443D01*
X162844627Y-100455963D01*
X162778442Y-100462482D01*
X162712260Y-100469000D01*
X162623740Y-100469000D01*
X162557557Y-100462481D01*
X162491373Y-100455963D01*
X162321534Y-100404443D01*
X162165009Y-100320778D01*
X162129271Y-100291448D01*
X162027814Y-100208186D01*
X161919219Y-100075861D01*
X161915222Y-100070991D01*
X161831557Y-99914466D01*
X161780037Y-99744627D01*
X161762641Y-99568000D01*
X161780037Y-99391373D01*
X161831557Y-99221534D01*
X161915222Y-99065009D01*
X161944552Y-99029271D01*
X162027814Y-98927814D01*
X162133261Y-98841277D01*
X162165009Y-98815222D01*
X162243271Y-98773390D01*
X162321532Y-98731558D01*
X162321534Y-98731557D01*
X162491373Y-98680037D01*
X162557558Y-98673518D01*
X162623740Y-98667000D01*
X162712260Y-98667000D01*
X162778442Y-98673518D01*
X162778442Y-98673518D01*
G37*
G36*
X158953468Y-97861065D02*
G01*
X158992138Y-97872796D01*
X159027777Y-97891846D01*
X159059017Y-97917483D01*
X159084654Y-97948723D01*
X159103704Y-97984362D01*
X159115435Y-98023032D01*
X159120000Y-98069388D01*
X159120000Y-98720612D01*
X159115435Y-98766968D01*
X159103704Y-98805638D01*
X159084654Y-98841277D01*
X159059017Y-98872517D01*
X159027777Y-98898154D01*
X158992138Y-98917204D01*
X158953468Y-98928935D01*
X158907112Y-98933500D01*
X157830888Y-98933500D01*
X157784532Y-98928935D01*
X157745862Y-98917204D01*
X157710223Y-98898154D01*
X157678983Y-98872517D01*
X157653346Y-98841277D01*
X157634296Y-98805638D01*
X157622565Y-98766968D01*
X157618000Y-98720612D01*
X157618000Y-98069388D01*
X157622565Y-98023032D01*
X157634296Y-97984362D01*
X157653346Y-97948723D01*
X157678983Y-97917483D01*
X157710223Y-97891846D01*
X157745862Y-97872796D01*
X157784532Y-97861065D01*
X157830888Y-97856500D01*
X158907112Y-97856500D01*
X158953468Y-97861065D01*
X158953468Y-97861065D01*
G37*
G36*
X155651468Y-97861065D02*
G01*
X155690138Y-97872796D01*
X155725777Y-97891846D01*
X155757017Y-97917483D01*
X155782654Y-97948723D01*
X155801704Y-97984362D01*
X155813435Y-98023032D01*
X155818000Y-98069388D01*
X155818000Y-98720612D01*
X155813435Y-98766968D01*
X155801704Y-98805638D01*
X155782654Y-98841277D01*
X155757017Y-98872517D01*
X155725777Y-98898154D01*
X155690138Y-98917204D01*
X155651468Y-98928935D01*
X155605112Y-98933500D01*
X154528888Y-98933500D01*
X154482532Y-98928935D01*
X154443862Y-98917204D01*
X154408223Y-98898154D01*
X154376983Y-98872517D01*
X154351346Y-98841277D01*
X154332296Y-98805638D01*
X154320565Y-98766968D01*
X154316000Y-98720612D01*
X154316000Y-98069388D01*
X154320565Y-98023032D01*
X154332296Y-97984362D01*
X154351346Y-97948723D01*
X154376983Y-97917483D01*
X154408223Y-97891846D01*
X154443862Y-97872796D01*
X154482532Y-97861065D01*
X154528888Y-97856500D01*
X155605112Y-97856500D01*
X155651468Y-97861065D01*
X155651468Y-97861065D01*
G37*
G36*
X162778443Y-96133519D02*
G01*
X162844627Y-96140037D01*
X163014466Y-96191557D01*
X163014468Y-96191558D01*
X163026935Y-96198222D01*
X163170991Y-96275222D01*
X163206729Y-96304552D01*
X163308186Y-96387814D01*
X163391448Y-96489271D01*
X163420778Y-96525009D01*
X163504443Y-96681534D01*
X163555963Y-96851373D01*
X163573359Y-97028000D01*
X163555963Y-97204627D01*
X163504443Y-97374466D01*
X163420778Y-97530991D01*
X163391448Y-97566729D01*
X163308186Y-97668186D01*
X163206729Y-97751448D01*
X163170991Y-97780778D01*
X163170989Y-97780779D01*
X163019647Y-97861674D01*
X163014466Y-97864443D01*
X162844627Y-97915963D01*
X162778442Y-97922482D01*
X162712260Y-97929000D01*
X162623740Y-97929000D01*
X162557558Y-97922482D01*
X162491373Y-97915963D01*
X162321534Y-97864443D01*
X162316354Y-97861674D01*
X162165011Y-97780779D01*
X162165009Y-97780778D01*
X162129271Y-97751448D01*
X162027814Y-97668186D01*
X161944552Y-97566729D01*
X161915222Y-97530991D01*
X161831557Y-97374466D01*
X161780037Y-97204627D01*
X161762641Y-97028000D01*
X161780037Y-96851373D01*
X161831557Y-96681534D01*
X161915222Y-96525009D01*
X161944552Y-96489271D01*
X162027814Y-96387814D01*
X162129271Y-96304552D01*
X162165009Y-96275222D01*
X162309065Y-96198222D01*
X162321532Y-96191558D01*
X162321534Y-96191557D01*
X162491373Y-96140037D01*
X162557557Y-96133519D01*
X162623740Y-96127000D01*
X162712260Y-96127000D01*
X162778443Y-96133519D01*
X162778443Y-96133519D01*
G37*
G36*
X153018443Y-96133519D02*
G01*
X153084627Y-96140037D01*
X153254466Y-96191557D01*
X153254468Y-96191558D01*
X153266935Y-96198222D01*
X153410991Y-96275222D01*
X153446729Y-96304552D01*
X153548186Y-96387814D01*
X153631448Y-96489271D01*
X153660778Y-96525009D01*
X153744443Y-96681534D01*
X153795963Y-96851373D01*
X153813359Y-97028000D01*
X153795963Y-97204627D01*
X153744443Y-97374466D01*
X153660778Y-97530991D01*
X153631448Y-97566729D01*
X153548186Y-97668186D01*
X153446729Y-97751448D01*
X153410991Y-97780778D01*
X153410989Y-97780779D01*
X153259647Y-97861674D01*
X153254466Y-97864443D01*
X153084627Y-97915963D01*
X153018442Y-97922482D01*
X152952260Y-97929000D01*
X152863740Y-97929000D01*
X152797558Y-97922482D01*
X152731373Y-97915963D01*
X152561534Y-97864443D01*
X152556354Y-97861674D01*
X152405011Y-97780779D01*
X152405009Y-97780778D01*
X152369271Y-97751448D01*
X152267814Y-97668186D01*
X152184552Y-97566729D01*
X152155222Y-97530991D01*
X152071557Y-97374466D01*
X152020037Y-97204627D01*
X152002641Y-97028000D01*
X152020037Y-96851373D01*
X152071557Y-96681534D01*
X152155222Y-96525009D01*
X152184552Y-96489271D01*
X152267814Y-96387814D01*
X152369271Y-96304552D01*
X152405009Y-96275222D01*
X152549065Y-96198222D01*
X152561532Y-96191558D01*
X152561534Y-96191557D01*
X152731373Y-96140037D01*
X152797557Y-96133519D01*
X152863740Y-96127000D01*
X152952260Y-96127000D01*
X153018443Y-96133519D01*
X153018443Y-96133519D01*
G37*
G36*
X158953468Y-95986065D02*
G01*
X158992138Y-95997796D01*
X159027777Y-96016846D01*
X159059017Y-96042483D01*
X159084654Y-96073723D01*
X159103704Y-96109362D01*
X159115435Y-96148032D01*
X159120000Y-96194388D01*
X159120000Y-96845612D01*
X159115435Y-96891968D01*
X159103704Y-96930638D01*
X159084654Y-96966277D01*
X159059017Y-96997517D01*
X159027777Y-97023154D01*
X158992138Y-97042204D01*
X158953468Y-97053935D01*
X158907112Y-97058500D01*
X157830888Y-97058500D01*
X157784532Y-97053935D01*
X157745862Y-97042204D01*
X157710223Y-97023154D01*
X157678983Y-96997517D01*
X157653346Y-96966277D01*
X157634296Y-96930638D01*
X157622565Y-96891968D01*
X157618000Y-96845612D01*
X157618000Y-96194388D01*
X157622565Y-96148032D01*
X157634296Y-96109362D01*
X157653346Y-96073723D01*
X157678983Y-96042483D01*
X157710223Y-96016846D01*
X157745862Y-95997796D01*
X157784532Y-95986065D01*
X157830888Y-95981500D01*
X158907112Y-95981500D01*
X158953468Y-95986065D01*
X158953468Y-95986065D01*
G37*
G36*
X155651468Y-95986065D02*
G01*
X155690138Y-95997796D01*
X155725777Y-96016846D01*
X155757017Y-96042483D01*
X155782654Y-96073723D01*
X155801704Y-96109362D01*
X155813435Y-96148032D01*
X155818000Y-96194388D01*
X155818000Y-96845612D01*
X155813435Y-96891968D01*
X155801704Y-96930638D01*
X155782654Y-96966277D01*
X155757017Y-96997517D01*
X155725777Y-97023154D01*
X155690138Y-97042204D01*
X155651468Y-97053935D01*
X155605112Y-97058500D01*
X154528888Y-97058500D01*
X154482532Y-97053935D01*
X154443862Y-97042204D01*
X154408223Y-97023154D01*
X154376983Y-96997517D01*
X154351346Y-96966277D01*
X154332296Y-96930638D01*
X154320565Y-96891968D01*
X154316000Y-96845612D01*
X154316000Y-96194388D01*
X154320565Y-96148032D01*
X154332296Y-96109362D01*
X154351346Y-96073723D01*
X154376983Y-96042483D01*
X154408223Y-96016846D01*
X154443862Y-95997796D01*
X154482532Y-95986065D01*
X154528888Y-95981500D01*
X155605112Y-95981500D01*
X155651468Y-95986065D01*
X155651468Y-95986065D01*
G37*
G36*
X162778442Y-93593518D02*
G01*
X162844627Y-93600037D01*
X163014466Y-93651557D01*
X163170991Y-93735222D01*
X163206729Y-93764552D01*
X163308186Y-93847814D01*
X163391448Y-93949271D01*
X163420778Y-93985009D01*
X163504443Y-94141534D01*
X163555963Y-94311373D01*
X163573359Y-94488000D01*
X163555963Y-94664627D01*
X163504443Y-94834466D01*
X163420778Y-94990991D01*
X163391448Y-95026729D01*
X163308186Y-95128186D01*
X163206729Y-95211448D01*
X163170991Y-95240778D01*
X163014466Y-95324443D01*
X162844627Y-95375963D01*
X162778443Y-95382481D01*
X162712260Y-95389000D01*
X162623740Y-95389000D01*
X162557557Y-95382481D01*
X162491373Y-95375963D01*
X162321534Y-95324443D01*
X162165009Y-95240778D01*
X162129271Y-95211448D01*
X162027814Y-95128186D01*
X161944552Y-95026729D01*
X161915222Y-94990991D01*
X161831557Y-94834466D01*
X161780037Y-94664627D01*
X161762641Y-94488000D01*
X161780037Y-94311373D01*
X161831557Y-94141534D01*
X161915222Y-93985009D01*
X161944552Y-93949271D01*
X162027814Y-93847814D01*
X162129271Y-93764552D01*
X162165009Y-93735222D01*
X162321534Y-93651557D01*
X162491373Y-93600037D01*
X162557557Y-93593519D01*
X162623740Y-93587000D01*
X162712260Y-93587000D01*
X162778442Y-93593518D01*
X162778442Y-93593518D01*
G37*
G36*
X153018442Y-93593518D02*
G01*
X153084627Y-93600037D01*
X153254466Y-93651557D01*
X153410991Y-93735222D01*
X153446729Y-93764552D01*
X153548186Y-93847814D01*
X153631448Y-93949271D01*
X153660778Y-93985009D01*
X153744443Y-94141534D01*
X153795963Y-94311373D01*
X153813359Y-94488000D01*
X153795963Y-94664627D01*
X153744443Y-94834466D01*
X153660778Y-94990991D01*
X153631448Y-95026729D01*
X153548186Y-95128186D01*
X153446729Y-95211448D01*
X153410991Y-95240778D01*
X153254466Y-95324443D01*
X153084627Y-95375963D01*
X153018443Y-95382481D01*
X152952260Y-95389000D01*
X152863740Y-95389000D01*
X152797557Y-95382481D01*
X152731373Y-95375963D01*
X152561534Y-95324443D01*
X152405009Y-95240778D01*
X152369271Y-95211448D01*
X152267814Y-95128186D01*
X152184552Y-95026729D01*
X152155222Y-94990991D01*
X152071557Y-94834466D01*
X152020037Y-94664627D01*
X152002641Y-94488000D01*
X152020037Y-94311373D01*
X152071557Y-94141534D01*
X152155222Y-93985009D01*
X152184552Y-93949271D01*
X152267814Y-93847814D01*
X152369271Y-93764552D01*
X152405009Y-93735222D01*
X152561534Y-93651557D01*
X152731373Y-93600037D01*
X152797557Y-93593519D01*
X152863740Y-93587000D01*
X152952260Y-93587000D01*
X153018442Y-93593518D01*
X153018442Y-93593518D01*
G37*
G36*
X153018442Y-91053518D02*
G01*
X153084627Y-91060037D01*
X153254466Y-91111557D01*
X153410991Y-91195222D01*
X153446729Y-91224552D01*
X153548186Y-91307814D01*
X153631448Y-91409271D01*
X153660778Y-91445009D01*
X153744443Y-91601534D01*
X153795963Y-91771373D01*
X153813359Y-91948000D01*
X153795963Y-92124627D01*
X153744443Y-92294466D01*
X153660778Y-92450991D01*
X153659673Y-92452337D01*
X153548186Y-92588186D01*
X153446729Y-92671448D01*
X153410991Y-92700778D01*
X153254466Y-92784443D01*
X153084627Y-92835963D01*
X153018442Y-92842482D01*
X152952260Y-92849000D01*
X152863740Y-92849000D01*
X152797558Y-92842482D01*
X152731373Y-92835963D01*
X152561534Y-92784443D01*
X152405009Y-92700778D01*
X152369271Y-92671448D01*
X152267814Y-92588186D01*
X152156327Y-92452337D01*
X152155222Y-92450991D01*
X152071557Y-92294466D01*
X152020037Y-92124627D01*
X152002641Y-91948000D01*
X152020037Y-91771373D01*
X152071557Y-91601534D01*
X152155222Y-91445009D01*
X152184552Y-91409271D01*
X152267814Y-91307814D01*
X152369271Y-91224552D01*
X152405009Y-91195222D01*
X152561534Y-91111557D01*
X152731373Y-91060037D01*
X152797558Y-91053518D01*
X152863740Y-91047000D01*
X152952260Y-91047000D01*
X153018442Y-91053518D01*
X153018442Y-91053518D01*
G37*
G36*
X162778442Y-91053518D02*
G01*
X162844627Y-91060037D01*
X163014466Y-91111557D01*
X163170991Y-91195222D01*
X163206729Y-91224552D01*
X163308186Y-91307814D01*
X163391448Y-91409271D01*
X163420778Y-91445009D01*
X163504443Y-91601534D01*
X163555963Y-91771373D01*
X163573359Y-91948000D01*
X163555963Y-92124627D01*
X163504443Y-92294466D01*
X163420778Y-92450991D01*
X163419673Y-92452337D01*
X163308186Y-92588186D01*
X163206729Y-92671448D01*
X163170991Y-92700778D01*
X163014466Y-92784443D01*
X162844627Y-92835963D01*
X162778442Y-92842482D01*
X162712260Y-92849000D01*
X162623740Y-92849000D01*
X162557558Y-92842482D01*
X162491373Y-92835963D01*
X162321534Y-92784443D01*
X162165009Y-92700778D01*
X162129271Y-92671448D01*
X162027814Y-92588186D01*
X161916327Y-92452337D01*
X161915222Y-92450991D01*
X161831557Y-92294466D01*
X161780037Y-92124627D01*
X161762641Y-91948000D01*
X161780037Y-91771373D01*
X161831557Y-91601534D01*
X161915222Y-91445009D01*
X161944552Y-91409271D01*
X162027814Y-91307814D01*
X162129271Y-91224552D01*
X162165009Y-91195222D01*
X162321534Y-91111557D01*
X162491373Y-91060037D01*
X162557558Y-91053518D01*
X162623740Y-91047000D01*
X162712260Y-91047000D01*
X162778442Y-91053518D01*
X162778442Y-91053518D01*
G37*
G36*
X156787468Y-91074565D02*
G01*
X156826138Y-91086296D01*
X156861777Y-91105346D01*
X156893017Y-91130983D01*
X156918654Y-91162223D01*
X156937704Y-91197862D01*
X156949435Y-91236532D01*
X156954000Y-91282888D01*
X156954000Y-92359112D01*
X156949435Y-92405468D01*
X156937704Y-92444138D01*
X156918654Y-92479777D01*
X156893017Y-92511017D01*
X156861777Y-92536654D01*
X156826138Y-92555704D01*
X156787468Y-92567435D01*
X156741112Y-92572000D01*
X156089888Y-92572000D01*
X156043532Y-92567435D01*
X156004862Y-92555704D01*
X155969223Y-92536654D01*
X155937983Y-92511017D01*
X155912346Y-92479777D01*
X155893296Y-92444138D01*
X155881565Y-92405468D01*
X155877000Y-92359112D01*
X155877000Y-91282888D01*
X155881565Y-91236532D01*
X155893296Y-91197862D01*
X155912346Y-91162223D01*
X155937983Y-91130983D01*
X155969223Y-91105346D01*
X156004862Y-91086296D01*
X156043532Y-91074565D01*
X156089888Y-91070000D01*
X156741112Y-91070000D01*
X156787468Y-91074565D01*
X156787468Y-91074565D01*
G37*
G36*
X158662468Y-91074565D02*
G01*
X158701138Y-91086296D01*
X158736777Y-91105346D01*
X158768017Y-91130983D01*
X158793654Y-91162223D01*
X158812704Y-91197862D01*
X158824435Y-91236532D01*
X158829000Y-91282888D01*
X158829000Y-92359112D01*
X158824435Y-92405468D01*
X158812704Y-92444138D01*
X158793654Y-92479777D01*
X158768017Y-92511017D01*
X158736777Y-92536654D01*
X158701138Y-92555704D01*
X158662468Y-92567435D01*
X158616112Y-92572000D01*
X157964888Y-92572000D01*
X157918532Y-92567435D01*
X157879862Y-92555704D01*
X157844223Y-92536654D01*
X157812983Y-92511017D01*
X157787346Y-92479777D01*
X157768296Y-92444138D01*
X157756565Y-92405468D01*
X157752000Y-92359112D01*
X157752000Y-91282888D01*
X157756565Y-91236532D01*
X157768296Y-91197862D01*
X157787346Y-91162223D01*
X157812983Y-91130983D01*
X157844223Y-91105346D01*
X157879862Y-91086296D01*
X157918532Y-91074565D01*
X157964888Y-91070000D01*
X158616112Y-91070000D01*
X158662468Y-91074565D01*
X158662468Y-91074565D01*
G37*
G36*
X164807020Y-86132969D02*
G01*
X164906804Y-86174301D01*
X164977362Y-86203527D01*
X165130665Y-86305961D01*
X165261039Y-86436335D01*
X165363473Y-86589638D01*
X165363473Y-86589639D01*
X165434031Y-86759980D01*
X165470000Y-86940811D01*
X165470000Y-87125189D01*
X165434031Y-87306020D01*
X165392699Y-87405804D01*
X165363473Y-87476362D01*
X165261039Y-87629665D01*
X165130665Y-87760039D01*
X164977362Y-87862473D01*
X164906804Y-87891699D01*
X164807020Y-87933031D01*
X164626189Y-87969000D01*
X164441811Y-87969000D01*
X164260980Y-87933031D01*
X164161196Y-87891699D01*
X164090638Y-87862473D01*
X163937335Y-87760039D01*
X163806961Y-87629665D01*
X163704527Y-87476362D01*
X163675301Y-87405804D01*
X163633969Y-87306020D01*
X163598000Y-87125189D01*
X163598000Y-86940811D01*
X163633969Y-86759980D01*
X163704527Y-86589639D01*
X163704527Y-86589638D01*
X163806961Y-86436335D01*
X163937335Y-86305961D01*
X164090638Y-86203527D01*
X164161196Y-86174301D01*
X164260980Y-86132969D01*
X164441811Y-86097000D01*
X164626189Y-86097000D01*
X164807020Y-86132969D01*
X164807020Y-86132969D01*
G37*
G36*
X151207020Y-86132969D02*
G01*
X151306804Y-86174301D01*
X151377362Y-86203527D01*
X151530665Y-86305961D01*
X151661039Y-86436335D01*
X151763473Y-86589638D01*
X151763473Y-86589639D01*
X151834031Y-86759980D01*
X151870000Y-86940811D01*
X151870000Y-87125189D01*
X151834031Y-87306020D01*
X151792699Y-87405804D01*
X151763473Y-87476362D01*
X151661039Y-87629665D01*
X151530665Y-87760039D01*
X151377362Y-87862473D01*
X151306804Y-87891699D01*
X151207020Y-87933031D01*
X151026189Y-87969000D01*
X150841811Y-87969000D01*
X150660980Y-87933031D01*
X150561196Y-87891699D01*
X150490638Y-87862473D01*
X150337335Y-87760039D01*
X150206961Y-87629665D01*
X150104527Y-87476362D01*
X150075301Y-87405804D01*
X150033969Y-87306020D01*
X149998000Y-87125189D01*
X149998000Y-86940811D01*
X150033969Y-86759980D01*
X150104527Y-86589639D01*
X150104527Y-86589638D01*
X150206961Y-86436335D01*
X150337335Y-86305961D01*
X150490638Y-86203527D01*
X150561196Y-86174301D01*
X150660980Y-86132969D01*
X150841811Y-86097000D01*
X151026189Y-86097000D01*
X151207020Y-86132969D01*
X151207020Y-86132969D01*
G37*
G36*
X165907020Y-72632969D02*
G01*
X166006804Y-72674301D01*
X166077362Y-72703527D01*
X166230665Y-72805961D01*
X166361039Y-72936335D01*
X166463473Y-73089638D01*
X166463473Y-73089639D01*
X166534031Y-73259980D01*
X166570000Y-73440811D01*
X166570000Y-73625189D01*
X166534031Y-73806020D01*
X166492699Y-73905804D01*
X166463473Y-73976362D01*
X166361039Y-74129665D01*
X166230665Y-74260039D01*
X166077362Y-74362473D01*
X166006804Y-74391699D01*
X165907020Y-74433031D01*
X165726189Y-74469000D01*
X165541811Y-74469000D01*
X165360980Y-74433031D01*
X165261196Y-74391699D01*
X165190638Y-74362473D01*
X165037335Y-74260039D01*
X164906961Y-74129665D01*
X164804527Y-73976362D01*
X164775301Y-73905804D01*
X164733969Y-73806020D01*
X164698000Y-73625189D01*
X164698000Y-73440811D01*
X164733969Y-73259980D01*
X164804527Y-73089639D01*
X164804527Y-73089638D01*
X164906961Y-72936335D01*
X165037335Y-72805961D01*
X165190638Y-72703527D01*
X165261196Y-72674301D01*
X165360980Y-72632969D01*
X165541811Y-72597000D01*
X165726189Y-72597000D01*
X165907020Y-72632969D01*
X165907020Y-72632969D01*
G37*
G36*
X150107020Y-72632969D02*
G01*
X150206804Y-72674301D01*
X150277362Y-72703527D01*
X150430665Y-72805961D01*
X150561039Y-72936335D01*
X150663473Y-73089638D01*
X150663473Y-73089639D01*
X150734031Y-73259980D01*
X150770000Y-73440811D01*
X150770000Y-73625189D01*
X150734031Y-73806020D01*
X150692699Y-73905804D01*
X150663473Y-73976362D01*
X150561039Y-74129665D01*
X150430665Y-74260039D01*
X150277362Y-74362473D01*
X150206804Y-74391699D01*
X150107020Y-74433031D01*
X149926189Y-74469000D01*
X149741811Y-74469000D01*
X149560980Y-74433031D01*
X149461196Y-74391699D01*
X149390638Y-74362473D01*
X149237335Y-74260039D01*
X149106961Y-74129665D01*
X149004527Y-73976362D01*
X148975301Y-73905804D01*
X148933969Y-73806020D01*
X148898000Y-73625189D01*
X148898000Y-73440811D01*
X148933969Y-73259980D01*
X149004527Y-73089639D01*
X149004527Y-73089638D01*
X149106961Y-72936335D01*
X149237335Y-72805961D01*
X149390638Y-72703527D01*
X149461196Y-72674301D01*
X149560980Y-72632969D01*
X149741811Y-72597000D01*
X149926189Y-72597000D01*
X150107020Y-72632969D01*
X150107020Y-72632969D01*
G37*
M02*
