G04 #@! TF.GenerationSoftware,KiCad,Pcbnew,(5.1.0)-1*
G04 #@! TF.CreationDate,2019-04-03T20:48:48-04:00*
G04 #@! TF.ProjectId,thermocouple_daughter,74686572-6d6f-4636-9f75-706c655f6461,rev?*
G04 #@! TF.SameCoordinates,Original*
G04 #@! TF.FileFunction,Soldermask,Bot*
G04 #@! TF.FilePolarity,Negative*
%FSLAX46Y46*%
G04 Gerber Fmt 4.6, Leading zero omitted, Abs format (unit mm)*
G04 Created by KiCad (PCBNEW (5.1.0)-1) date 2019-04-03 20:48:48*
%MOMM*%
%LPD*%
G04 APERTURE LIST*
%ADD10C,0.100000*%
G04 APERTURE END LIST*
D10*
G36*
X162778442Y-101213518D02*
G01*
X162844627Y-101220037D01*
X163014466Y-101271557D01*
X163170991Y-101355222D01*
X163206729Y-101384552D01*
X163308186Y-101467814D01*
X163391448Y-101569271D01*
X163420778Y-101605009D01*
X163504443Y-101761534D01*
X163555963Y-101931373D01*
X163573359Y-102108000D01*
X163555963Y-102284627D01*
X163504443Y-102454466D01*
X163420778Y-102610991D01*
X163391448Y-102646729D01*
X163308186Y-102748186D01*
X163206729Y-102831448D01*
X163170991Y-102860778D01*
X163014466Y-102944443D01*
X162844627Y-102995963D01*
X162778443Y-103002481D01*
X162712260Y-103009000D01*
X162623740Y-103009000D01*
X162557558Y-103002482D01*
X162491373Y-102995963D01*
X162321534Y-102944443D01*
X162165009Y-102860778D01*
X162129271Y-102831448D01*
X162027814Y-102748186D01*
X161944552Y-102646729D01*
X161915222Y-102610991D01*
X161831557Y-102454466D01*
X161780037Y-102284627D01*
X161762641Y-102108000D01*
X161780037Y-101931373D01*
X161831557Y-101761534D01*
X161915222Y-101605009D01*
X161944552Y-101569271D01*
X162027814Y-101467814D01*
X162129271Y-101384552D01*
X162165009Y-101355222D01*
X162321534Y-101271557D01*
X162491373Y-101220037D01*
X162557557Y-101213519D01*
X162623740Y-101207000D01*
X162712260Y-101207000D01*
X162778442Y-101213518D01*
X162778442Y-101213518D01*
G37*
G36*
X162778442Y-98673518D02*
G01*
X162844627Y-98680037D01*
X163014466Y-98731557D01*
X163170991Y-98815222D01*
X163206729Y-98844552D01*
X163308186Y-98927814D01*
X163391448Y-99029271D01*
X163420778Y-99065009D01*
X163504443Y-99221534D01*
X163555963Y-99391373D01*
X163573359Y-99568000D01*
X163555963Y-99744627D01*
X163504443Y-99914466D01*
X163420778Y-100070991D01*
X163391448Y-100106729D01*
X163308186Y-100208186D01*
X163206729Y-100291448D01*
X163170991Y-100320778D01*
X163014466Y-100404443D01*
X162844627Y-100455963D01*
X162778442Y-100462482D01*
X162712260Y-100469000D01*
X162623740Y-100469000D01*
X162557557Y-100462481D01*
X162491373Y-100455963D01*
X162321534Y-100404443D01*
X162165009Y-100320778D01*
X162129271Y-100291448D01*
X162027814Y-100208186D01*
X161944552Y-100106729D01*
X161915222Y-100070991D01*
X161831557Y-99914466D01*
X161780037Y-99744627D01*
X161762641Y-99568000D01*
X161780037Y-99391373D01*
X161831557Y-99221534D01*
X161915222Y-99065009D01*
X161944552Y-99029271D01*
X162027814Y-98927814D01*
X162129271Y-98844552D01*
X162165009Y-98815222D01*
X162321534Y-98731557D01*
X162491373Y-98680037D01*
X162557558Y-98673518D01*
X162623740Y-98667000D01*
X162712260Y-98667000D01*
X162778442Y-98673518D01*
X162778442Y-98673518D01*
G37*
G36*
X153018442Y-98673518D02*
G01*
X153084627Y-98680037D01*
X153254466Y-98731557D01*
X153410991Y-98815222D01*
X153446729Y-98844552D01*
X153548186Y-98927814D01*
X153631448Y-99029271D01*
X153660778Y-99065009D01*
X153744443Y-99221534D01*
X153795963Y-99391373D01*
X153813359Y-99568000D01*
X153795963Y-99744627D01*
X153744443Y-99914466D01*
X153660778Y-100070991D01*
X153631448Y-100106729D01*
X153548186Y-100208186D01*
X153446729Y-100291448D01*
X153410991Y-100320778D01*
X153254466Y-100404443D01*
X153084627Y-100455963D01*
X153018442Y-100462482D01*
X152952260Y-100469000D01*
X152863740Y-100469000D01*
X152797557Y-100462481D01*
X152731373Y-100455963D01*
X152561534Y-100404443D01*
X152405009Y-100320778D01*
X152369271Y-100291448D01*
X152267814Y-100208186D01*
X152184552Y-100106729D01*
X152155222Y-100070991D01*
X152071557Y-99914466D01*
X152020037Y-99744627D01*
X152002641Y-99568000D01*
X152020037Y-99391373D01*
X152071557Y-99221534D01*
X152155222Y-99065009D01*
X152184552Y-99029271D01*
X152267814Y-98927814D01*
X152369271Y-98844552D01*
X152405009Y-98815222D01*
X152561534Y-98731557D01*
X152731373Y-98680037D01*
X152797558Y-98673518D01*
X152863740Y-98667000D01*
X152952260Y-98667000D01*
X153018442Y-98673518D01*
X153018442Y-98673518D01*
G37*
G36*
X162778443Y-96133519D02*
G01*
X162844627Y-96140037D01*
X163014466Y-96191557D01*
X163170991Y-96275222D01*
X163206729Y-96304552D01*
X163308186Y-96387814D01*
X163391448Y-96489271D01*
X163420778Y-96525009D01*
X163504443Y-96681534D01*
X163555963Y-96851373D01*
X163573359Y-97028000D01*
X163555963Y-97204627D01*
X163504443Y-97374466D01*
X163420778Y-97530991D01*
X163391448Y-97566729D01*
X163308186Y-97668186D01*
X163206729Y-97751448D01*
X163170991Y-97780778D01*
X163014466Y-97864443D01*
X162844627Y-97915963D01*
X162778442Y-97922482D01*
X162712260Y-97929000D01*
X162623740Y-97929000D01*
X162557558Y-97922482D01*
X162491373Y-97915963D01*
X162321534Y-97864443D01*
X162165009Y-97780778D01*
X162129271Y-97751448D01*
X162027814Y-97668186D01*
X161944552Y-97566729D01*
X161915222Y-97530991D01*
X161831557Y-97374466D01*
X161780037Y-97204627D01*
X161762641Y-97028000D01*
X161780037Y-96851373D01*
X161831557Y-96681534D01*
X161915222Y-96525009D01*
X161944552Y-96489271D01*
X162027814Y-96387814D01*
X162129271Y-96304552D01*
X162165009Y-96275222D01*
X162321534Y-96191557D01*
X162491373Y-96140037D01*
X162557557Y-96133519D01*
X162623740Y-96127000D01*
X162712260Y-96127000D01*
X162778443Y-96133519D01*
X162778443Y-96133519D01*
G37*
G36*
X153018443Y-96133519D02*
G01*
X153084627Y-96140037D01*
X153254466Y-96191557D01*
X153410991Y-96275222D01*
X153446729Y-96304552D01*
X153548186Y-96387814D01*
X153631448Y-96489271D01*
X153660778Y-96525009D01*
X153744443Y-96681534D01*
X153795963Y-96851373D01*
X153813359Y-97028000D01*
X153795963Y-97204627D01*
X153744443Y-97374466D01*
X153660778Y-97530991D01*
X153631448Y-97566729D01*
X153548186Y-97668186D01*
X153446729Y-97751448D01*
X153410991Y-97780778D01*
X153254466Y-97864443D01*
X153084627Y-97915963D01*
X153018442Y-97922482D01*
X152952260Y-97929000D01*
X152863740Y-97929000D01*
X152797558Y-97922482D01*
X152731373Y-97915963D01*
X152561534Y-97864443D01*
X152405009Y-97780778D01*
X152369271Y-97751448D01*
X152267814Y-97668186D01*
X152184552Y-97566729D01*
X152155222Y-97530991D01*
X152071557Y-97374466D01*
X152020037Y-97204627D01*
X152002641Y-97028000D01*
X152020037Y-96851373D01*
X152071557Y-96681534D01*
X152155222Y-96525009D01*
X152184552Y-96489271D01*
X152267814Y-96387814D01*
X152369271Y-96304552D01*
X152405009Y-96275222D01*
X152561534Y-96191557D01*
X152731373Y-96140037D01*
X152797557Y-96133519D01*
X152863740Y-96127000D01*
X152952260Y-96127000D01*
X153018443Y-96133519D01*
X153018443Y-96133519D01*
G37*
G36*
X153018442Y-93593518D02*
G01*
X153084627Y-93600037D01*
X153254466Y-93651557D01*
X153410991Y-93735222D01*
X153446729Y-93764552D01*
X153548186Y-93847814D01*
X153631448Y-93949271D01*
X153660778Y-93985009D01*
X153744443Y-94141534D01*
X153795963Y-94311373D01*
X153813359Y-94488000D01*
X153795963Y-94664627D01*
X153744443Y-94834466D01*
X153660778Y-94990991D01*
X153631448Y-95026729D01*
X153548186Y-95128186D01*
X153446729Y-95211448D01*
X153410991Y-95240778D01*
X153254466Y-95324443D01*
X153084627Y-95375963D01*
X153018443Y-95382481D01*
X152952260Y-95389000D01*
X152863740Y-95389000D01*
X152797557Y-95382481D01*
X152731373Y-95375963D01*
X152561534Y-95324443D01*
X152405009Y-95240778D01*
X152369271Y-95211448D01*
X152267814Y-95128186D01*
X152184552Y-95026729D01*
X152155222Y-94990991D01*
X152071557Y-94834466D01*
X152020037Y-94664627D01*
X152002641Y-94488000D01*
X152020037Y-94311373D01*
X152071557Y-94141534D01*
X152155222Y-93985009D01*
X152184552Y-93949271D01*
X152267814Y-93847814D01*
X152369271Y-93764552D01*
X152405009Y-93735222D01*
X152561534Y-93651557D01*
X152731373Y-93600037D01*
X152797557Y-93593519D01*
X152863740Y-93587000D01*
X152952260Y-93587000D01*
X153018442Y-93593518D01*
X153018442Y-93593518D01*
G37*
G36*
X162778442Y-93593518D02*
G01*
X162844627Y-93600037D01*
X163014466Y-93651557D01*
X163170991Y-93735222D01*
X163206729Y-93764552D01*
X163308186Y-93847814D01*
X163391448Y-93949271D01*
X163420778Y-93985009D01*
X163504443Y-94141534D01*
X163555963Y-94311373D01*
X163573359Y-94488000D01*
X163555963Y-94664627D01*
X163504443Y-94834466D01*
X163420778Y-94990991D01*
X163391448Y-95026729D01*
X163308186Y-95128186D01*
X163206729Y-95211448D01*
X163170991Y-95240778D01*
X163014466Y-95324443D01*
X162844627Y-95375963D01*
X162778443Y-95382481D01*
X162712260Y-95389000D01*
X162623740Y-95389000D01*
X162557557Y-95382481D01*
X162491373Y-95375963D01*
X162321534Y-95324443D01*
X162165009Y-95240778D01*
X162129271Y-95211448D01*
X162027814Y-95128186D01*
X161944552Y-95026729D01*
X161915222Y-94990991D01*
X161831557Y-94834466D01*
X161780037Y-94664627D01*
X161762641Y-94488000D01*
X161780037Y-94311373D01*
X161831557Y-94141534D01*
X161915222Y-93985009D01*
X161944552Y-93949271D01*
X162027814Y-93847814D01*
X162129271Y-93764552D01*
X162165009Y-93735222D01*
X162321534Y-93651557D01*
X162491373Y-93600037D01*
X162557557Y-93593519D01*
X162623740Y-93587000D01*
X162712260Y-93587000D01*
X162778442Y-93593518D01*
X162778442Y-93593518D01*
G37*
G36*
X153018442Y-91053518D02*
G01*
X153084627Y-91060037D01*
X153254466Y-91111557D01*
X153410991Y-91195222D01*
X153446729Y-91224552D01*
X153548186Y-91307814D01*
X153631448Y-91409271D01*
X153660778Y-91445009D01*
X153744443Y-91601534D01*
X153795963Y-91771373D01*
X153813359Y-91948000D01*
X153795963Y-92124627D01*
X153744443Y-92294466D01*
X153660778Y-92450991D01*
X153631448Y-92486729D01*
X153548186Y-92588186D01*
X153446729Y-92671448D01*
X153410991Y-92700778D01*
X153254466Y-92784443D01*
X153084627Y-92835963D01*
X153018442Y-92842482D01*
X152952260Y-92849000D01*
X152863740Y-92849000D01*
X152797558Y-92842482D01*
X152731373Y-92835963D01*
X152561534Y-92784443D01*
X152405009Y-92700778D01*
X152369271Y-92671448D01*
X152267814Y-92588186D01*
X152184552Y-92486729D01*
X152155222Y-92450991D01*
X152071557Y-92294466D01*
X152020037Y-92124627D01*
X152002641Y-91948000D01*
X152020037Y-91771373D01*
X152071557Y-91601534D01*
X152155222Y-91445009D01*
X152184552Y-91409271D01*
X152267814Y-91307814D01*
X152369271Y-91224552D01*
X152405009Y-91195222D01*
X152561534Y-91111557D01*
X152731373Y-91060037D01*
X152797558Y-91053518D01*
X152863740Y-91047000D01*
X152952260Y-91047000D01*
X153018442Y-91053518D01*
X153018442Y-91053518D01*
G37*
G36*
X162778442Y-91053518D02*
G01*
X162844627Y-91060037D01*
X163014466Y-91111557D01*
X163170991Y-91195222D01*
X163206729Y-91224552D01*
X163308186Y-91307814D01*
X163391448Y-91409271D01*
X163420778Y-91445009D01*
X163504443Y-91601534D01*
X163555963Y-91771373D01*
X163573359Y-91948000D01*
X163555963Y-92124627D01*
X163504443Y-92294466D01*
X163420778Y-92450991D01*
X163391448Y-92486729D01*
X163308186Y-92588186D01*
X163206729Y-92671448D01*
X163170991Y-92700778D01*
X163014466Y-92784443D01*
X162844627Y-92835963D01*
X162778442Y-92842482D01*
X162712260Y-92849000D01*
X162623740Y-92849000D01*
X162557558Y-92842482D01*
X162491373Y-92835963D01*
X162321534Y-92784443D01*
X162165009Y-92700778D01*
X162129271Y-92671448D01*
X162027814Y-92588186D01*
X161944552Y-92486729D01*
X161915222Y-92450991D01*
X161831557Y-92294466D01*
X161780037Y-92124627D01*
X161762641Y-91948000D01*
X161780037Y-91771373D01*
X161831557Y-91601534D01*
X161915222Y-91445009D01*
X161944552Y-91409271D01*
X162027814Y-91307814D01*
X162129271Y-91224552D01*
X162165009Y-91195222D01*
X162321534Y-91111557D01*
X162491373Y-91060037D01*
X162557558Y-91053518D01*
X162623740Y-91047000D01*
X162712260Y-91047000D01*
X162778442Y-91053518D01*
X162778442Y-91053518D01*
G37*
G36*
X151207020Y-86132969D02*
G01*
X151306804Y-86174301D01*
X151377362Y-86203527D01*
X151530665Y-86305961D01*
X151661039Y-86436335D01*
X151763473Y-86589638D01*
X151763473Y-86589639D01*
X151834031Y-86759980D01*
X151870000Y-86940811D01*
X151870000Y-87125189D01*
X151834031Y-87306020D01*
X151792699Y-87405804D01*
X151763473Y-87476362D01*
X151661039Y-87629665D01*
X151530665Y-87760039D01*
X151377362Y-87862473D01*
X151306804Y-87891699D01*
X151207020Y-87933031D01*
X151026189Y-87969000D01*
X150841811Y-87969000D01*
X150660980Y-87933031D01*
X150561196Y-87891699D01*
X150490638Y-87862473D01*
X150337335Y-87760039D01*
X150206961Y-87629665D01*
X150104527Y-87476362D01*
X150075301Y-87405804D01*
X150033969Y-87306020D01*
X149998000Y-87125189D01*
X149998000Y-86940811D01*
X150033969Y-86759980D01*
X150104527Y-86589639D01*
X150104527Y-86589638D01*
X150206961Y-86436335D01*
X150337335Y-86305961D01*
X150490638Y-86203527D01*
X150561196Y-86174301D01*
X150660980Y-86132969D01*
X150841811Y-86097000D01*
X151026189Y-86097000D01*
X151207020Y-86132969D01*
X151207020Y-86132969D01*
G37*
G36*
X164807020Y-86132969D02*
G01*
X164906804Y-86174301D01*
X164977362Y-86203527D01*
X165130665Y-86305961D01*
X165261039Y-86436335D01*
X165363473Y-86589638D01*
X165363473Y-86589639D01*
X165434031Y-86759980D01*
X165470000Y-86940811D01*
X165470000Y-87125189D01*
X165434031Y-87306020D01*
X165392699Y-87405804D01*
X165363473Y-87476362D01*
X165261039Y-87629665D01*
X165130665Y-87760039D01*
X164977362Y-87862473D01*
X164906804Y-87891699D01*
X164807020Y-87933031D01*
X164626189Y-87969000D01*
X164441811Y-87969000D01*
X164260980Y-87933031D01*
X164161196Y-87891699D01*
X164090638Y-87862473D01*
X163937335Y-87760039D01*
X163806961Y-87629665D01*
X163704527Y-87476362D01*
X163675301Y-87405804D01*
X163633969Y-87306020D01*
X163598000Y-87125189D01*
X163598000Y-86940811D01*
X163633969Y-86759980D01*
X163704527Y-86589639D01*
X163704527Y-86589638D01*
X163806961Y-86436335D01*
X163937335Y-86305961D01*
X164090638Y-86203527D01*
X164161196Y-86174301D01*
X164260980Y-86132969D01*
X164441811Y-86097000D01*
X164626189Y-86097000D01*
X164807020Y-86132969D01*
X164807020Y-86132969D01*
G37*
G36*
X150107020Y-72632969D02*
G01*
X150206804Y-72674301D01*
X150277362Y-72703527D01*
X150430665Y-72805961D01*
X150561039Y-72936335D01*
X150663473Y-73089638D01*
X150663473Y-73089639D01*
X150734031Y-73259980D01*
X150770000Y-73440811D01*
X150770000Y-73625189D01*
X150734031Y-73806020D01*
X150692699Y-73905804D01*
X150663473Y-73976362D01*
X150561039Y-74129665D01*
X150430665Y-74260039D01*
X150277362Y-74362473D01*
X150206804Y-74391699D01*
X150107020Y-74433031D01*
X149926189Y-74469000D01*
X149741811Y-74469000D01*
X149560980Y-74433031D01*
X149461196Y-74391699D01*
X149390638Y-74362473D01*
X149237335Y-74260039D01*
X149106961Y-74129665D01*
X149004527Y-73976362D01*
X148975301Y-73905804D01*
X148933969Y-73806020D01*
X148898000Y-73625189D01*
X148898000Y-73440811D01*
X148933969Y-73259980D01*
X149004527Y-73089639D01*
X149004527Y-73089638D01*
X149106961Y-72936335D01*
X149237335Y-72805961D01*
X149390638Y-72703527D01*
X149461196Y-72674301D01*
X149560980Y-72632969D01*
X149741811Y-72597000D01*
X149926189Y-72597000D01*
X150107020Y-72632969D01*
X150107020Y-72632969D01*
G37*
G36*
X165907020Y-72632969D02*
G01*
X166006804Y-72674301D01*
X166077362Y-72703527D01*
X166230665Y-72805961D01*
X166361039Y-72936335D01*
X166463473Y-73089638D01*
X166463473Y-73089639D01*
X166534031Y-73259980D01*
X166570000Y-73440811D01*
X166570000Y-73625189D01*
X166534031Y-73806020D01*
X166492699Y-73905804D01*
X166463473Y-73976362D01*
X166361039Y-74129665D01*
X166230665Y-74260039D01*
X166077362Y-74362473D01*
X166006804Y-74391699D01*
X165907020Y-74433031D01*
X165726189Y-74469000D01*
X165541811Y-74469000D01*
X165360980Y-74433031D01*
X165261196Y-74391699D01*
X165190638Y-74362473D01*
X165037335Y-74260039D01*
X164906961Y-74129665D01*
X164804527Y-73976362D01*
X164775301Y-73905804D01*
X164733969Y-73806020D01*
X164698000Y-73625189D01*
X164698000Y-73440811D01*
X164733969Y-73259980D01*
X164804527Y-73089639D01*
X164804527Y-73089638D01*
X164906961Y-72936335D01*
X165037335Y-72805961D01*
X165190638Y-72703527D01*
X165261196Y-72674301D01*
X165360980Y-72632969D01*
X165541811Y-72597000D01*
X165726189Y-72597000D01*
X165907020Y-72632969D01*
X165907020Y-72632969D01*
G37*
M02*
