G04 #@! TF.GenerationSoftware,KiCad,Pcbnew,(5.1.0)-1*
G04 #@! TF.CreationDate,2019-04-03T20:48:48-04:00*
G04 #@! TF.ProjectId,thermocouple_daughter,74686572-6d6f-4636-9f75-706c655f6461,rev?*
G04 #@! TF.SameCoordinates,Original*
G04 #@! TF.FileFunction,Copper,L1,Top*
G04 #@! TF.FilePolarity,Positive*
%FSLAX46Y46*%
G04 Gerber Fmt 4.6, Leading zero omitted, Abs format (unit mm)*
G04 Created by KiCad (PCBNEW (5.1.0)-1) date 2019-04-03 20:48:48*
%MOMM*%
%LPD*%
G04 APERTURE LIST*
%ADD10C,0.100000*%
%ADD11C,0.975000*%
%ADD12O,1.700000X1.700000*%
%ADD13C,1.770000*%
%ADD14R,1.220000X0.650000*%
%ADD15R,1.450000X0.450000*%
%ADD16C,0.800000*%
%ADD17C,0.250000*%
%ADD18C,0.254000*%
G04 APERTURE END LIST*
D10*
G36*
X158558142Y-91122174D02*
G01*
X158581803Y-91125684D01*
X158605007Y-91131496D01*
X158627529Y-91139554D01*
X158649153Y-91149782D01*
X158669670Y-91162079D01*
X158688883Y-91176329D01*
X158706607Y-91192393D01*
X158722671Y-91210117D01*
X158736921Y-91229330D01*
X158749218Y-91249847D01*
X158759446Y-91271471D01*
X158767504Y-91293993D01*
X158773316Y-91317197D01*
X158776826Y-91340858D01*
X158778000Y-91364750D01*
X158778000Y-92277250D01*
X158776826Y-92301142D01*
X158773316Y-92324803D01*
X158767504Y-92348007D01*
X158759446Y-92370529D01*
X158749218Y-92392153D01*
X158736921Y-92412670D01*
X158722671Y-92431883D01*
X158706607Y-92449607D01*
X158688883Y-92465671D01*
X158669670Y-92479921D01*
X158649153Y-92492218D01*
X158627529Y-92502446D01*
X158605007Y-92510504D01*
X158581803Y-92516316D01*
X158558142Y-92519826D01*
X158534250Y-92521000D01*
X158046750Y-92521000D01*
X158022858Y-92519826D01*
X157999197Y-92516316D01*
X157975993Y-92510504D01*
X157953471Y-92502446D01*
X157931847Y-92492218D01*
X157911330Y-92479921D01*
X157892117Y-92465671D01*
X157874393Y-92449607D01*
X157858329Y-92431883D01*
X157844079Y-92412670D01*
X157831782Y-92392153D01*
X157821554Y-92370529D01*
X157813496Y-92348007D01*
X157807684Y-92324803D01*
X157804174Y-92301142D01*
X157803000Y-92277250D01*
X157803000Y-91364750D01*
X157804174Y-91340858D01*
X157807684Y-91317197D01*
X157813496Y-91293993D01*
X157821554Y-91271471D01*
X157831782Y-91249847D01*
X157844079Y-91229330D01*
X157858329Y-91210117D01*
X157874393Y-91192393D01*
X157892117Y-91176329D01*
X157911330Y-91162079D01*
X157931847Y-91149782D01*
X157953471Y-91139554D01*
X157975993Y-91131496D01*
X157999197Y-91125684D01*
X158022858Y-91122174D01*
X158046750Y-91121000D01*
X158534250Y-91121000D01*
X158558142Y-91122174D01*
X158558142Y-91122174D01*
G37*
D11*
X158290500Y-91821000D03*
D10*
G36*
X156683142Y-91122174D02*
G01*
X156706803Y-91125684D01*
X156730007Y-91131496D01*
X156752529Y-91139554D01*
X156774153Y-91149782D01*
X156794670Y-91162079D01*
X156813883Y-91176329D01*
X156831607Y-91192393D01*
X156847671Y-91210117D01*
X156861921Y-91229330D01*
X156874218Y-91249847D01*
X156884446Y-91271471D01*
X156892504Y-91293993D01*
X156898316Y-91317197D01*
X156901826Y-91340858D01*
X156903000Y-91364750D01*
X156903000Y-92277250D01*
X156901826Y-92301142D01*
X156898316Y-92324803D01*
X156892504Y-92348007D01*
X156884446Y-92370529D01*
X156874218Y-92392153D01*
X156861921Y-92412670D01*
X156847671Y-92431883D01*
X156831607Y-92449607D01*
X156813883Y-92465671D01*
X156794670Y-92479921D01*
X156774153Y-92492218D01*
X156752529Y-92502446D01*
X156730007Y-92510504D01*
X156706803Y-92516316D01*
X156683142Y-92519826D01*
X156659250Y-92521000D01*
X156171750Y-92521000D01*
X156147858Y-92519826D01*
X156124197Y-92516316D01*
X156100993Y-92510504D01*
X156078471Y-92502446D01*
X156056847Y-92492218D01*
X156036330Y-92479921D01*
X156017117Y-92465671D01*
X155999393Y-92449607D01*
X155983329Y-92431883D01*
X155969079Y-92412670D01*
X155956782Y-92392153D01*
X155946554Y-92370529D01*
X155938496Y-92348007D01*
X155932684Y-92324803D01*
X155929174Y-92301142D01*
X155928000Y-92277250D01*
X155928000Y-91364750D01*
X155929174Y-91340858D01*
X155932684Y-91317197D01*
X155938496Y-91293993D01*
X155946554Y-91271471D01*
X155956782Y-91249847D01*
X155969079Y-91229330D01*
X155983329Y-91210117D01*
X155999393Y-91192393D01*
X156017117Y-91176329D01*
X156036330Y-91162079D01*
X156056847Y-91149782D01*
X156078471Y-91139554D01*
X156100993Y-91131496D01*
X156124197Y-91125684D01*
X156147858Y-91122174D01*
X156171750Y-91121000D01*
X156659250Y-91121000D01*
X156683142Y-91122174D01*
X156683142Y-91122174D01*
G37*
D11*
X156415500Y-91821000D03*
D10*
G36*
X155547142Y-97908674D02*
G01*
X155570803Y-97912184D01*
X155594007Y-97917996D01*
X155616529Y-97926054D01*
X155638153Y-97936282D01*
X155658670Y-97948579D01*
X155677883Y-97962829D01*
X155695607Y-97978893D01*
X155711671Y-97996617D01*
X155725921Y-98015830D01*
X155738218Y-98036347D01*
X155748446Y-98057971D01*
X155756504Y-98080493D01*
X155762316Y-98103697D01*
X155765826Y-98127358D01*
X155767000Y-98151250D01*
X155767000Y-98638750D01*
X155765826Y-98662642D01*
X155762316Y-98686303D01*
X155756504Y-98709507D01*
X155748446Y-98732029D01*
X155738218Y-98753653D01*
X155725921Y-98774170D01*
X155711671Y-98793383D01*
X155695607Y-98811107D01*
X155677883Y-98827171D01*
X155658670Y-98841421D01*
X155638153Y-98853718D01*
X155616529Y-98863946D01*
X155594007Y-98872004D01*
X155570803Y-98877816D01*
X155547142Y-98881326D01*
X155523250Y-98882500D01*
X154610750Y-98882500D01*
X154586858Y-98881326D01*
X154563197Y-98877816D01*
X154539993Y-98872004D01*
X154517471Y-98863946D01*
X154495847Y-98853718D01*
X154475330Y-98841421D01*
X154456117Y-98827171D01*
X154438393Y-98811107D01*
X154422329Y-98793383D01*
X154408079Y-98774170D01*
X154395782Y-98753653D01*
X154385554Y-98732029D01*
X154377496Y-98709507D01*
X154371684Y-98686303D01*
X154368174Y-98662642D01*
X154367000Y-98638750D01*
X154367000Y-98151250D01*
X154368174Y-98127358D01*
X154371684Y-98103697D01*
X154377496Y-98080493D01*
X154385554Y-98057971D01*
X154395782Y-98036347D01*
X154408079Y-98015830D01*
X154422329Y-97996617D01*
X154438393Y-97978893D01*
X154456117Y-97962829D01*
X154475330Y-97948579D01*
X154495847Y-97936282D01*
X154517471Y-97926054D01*
X154539993Y-97917996D01*
X154563197Y-97912184D01*
X154586858Y-97908674D01*
X154610750Y-97907500D01*
X155523250Y-97907500D01*
X155547142Y-97908674D01*
X155547142Y-97908674D01*
G37*
D11*
X155067000Y-98395000D03*
D10*
G36*
X155547142Y-96033674D02*
G01*
X155570803Y-96037184D01*
X155594007Y-96042996D01*
X155616529Y-96051054D01*
X155638153Y-96061282D01*
X155658670Y-96073579D01*
X155677883Y-96087829D01*
X155695607Y-96103893D01*
X155711671Y-96121617D01*
X155725921Y-96140830D01*
X155738218Y-96161347D01*
X155748446Y-96182971D01*
X155756504Y-96205493D01*
X155762316Y-96228697D01*
X155765826Y-96252358D01*
X155767000Y-96276250D01*
X155767000Y-96763750D01*
X155765826Y-96787642D01*
X155762316Y-96811303D01*
X155756504Y-96834507D01*
X155748446Y-96857029D01*
X155738218Y-96878653D01*
X155725921Y-96899170D01*
X155711671Y-96918383D01*
X155695607Y-96936107D01*
X155677883Y-96952171D01*
X155658670Y-96966421D01*
X155638153Y-96978718D01*
X155616529Y-96988946D01*
X155594007Y-96997004D01*
X155570803Y-97002816D01*
X155547142Y-97006326D01*
X155523250Y-97007500D01*
X154610750Y-97007500D01*
X154586858Y-97006326D01*
X154563197Y-97002816D01*
X154539993Y-96997004D01*
X154517471Y-96988946D01*
X154495847Y-96978718D01*
X154475330Y-96966421D01*
X154456117Y-96952171D01*
X154438393Y-96936107D01*
X154422329Y-96918383D01*
X154408079Y-96899170D01*
X154395782Y-96878653D01*
X154385554Y-96857029D01*
X154377496Y-96834507D01*
X154371684Y-96811303D01*
X154368174Y-96787642D01*
X154367000Y-96763750D01*
X154367000Y-96276250D01*
X154368174Y-96252358D01*
X154371684Y-96228697D01*
X154377496Y-96205493D01*
X154385554Y-96182971D01*
X154395782Y-96161347D01*
X154408079Y-96140830D01*
X154422329Y-96121617D01*
X154438393Y-96103893D01*
X154456117Y-96087829D01*
X154475330Y-96073579D01*
X154495847Y-96061282D01*
X154517471Y-96051054D01*
X154539993Y-96042996D01*
X154563197Y-96037184D01*
X154586858Y-96033674D01*
X154610750Y-96032500D01*
X155523250Y-96032500D01*
X155547142Y-96033674D01*
X155547142Y-96033674D01*
G37*
D11*
X155067000Y-96520000D03*
D10*
G36*
X165834142Y-104258674D02*
G01*
X165857803Y-104262184D01*
X165881007Y-104267996D01*
X165903529Y-104276054D01*
X165925153Y-104286282D01*
X165945670Y-104298579D01*
X165964883Y-104312829D01*
X165982607Y-104328893D01*
X165998671Y-104346617D01*
X166012921Y-104365830D01*
X166025218Y-104386347D01*
X166035446Y-104407971D01*
X166043504Y-104430493D01*
X166049316Y-104453697D01*
X166052826Y-104477358D01*
X166054000Y-104501250D01*
X166054000Y-104988750D01*
X166052826Y-105012642D01*
X166049316Y-105036303D01*
X166043504Y-105059507D01*
X166035446Y-105082029D01*
X166025218Y-105103653D01*
X166012921Y-105124170D01*
X165998671Y-105143383D01*
X165982607Y-105161107D01*
X165964883Y-105177171D01*
X165945670Y-105191421D01*
X165925153Y-105203718D01*
X165903529Y-105213946D01*
X165881007Y-105222004D01*
X165857803Y-105227816D01*
X165834142Y-105231326D01*
X165810250Y-105232500D01*
X164897750Y-105232500D01*
X164873858Y-105231326D01*
X164850197Y-105227816D01*
X164826993Y-105222004D01*
X164804471Y-105213946D01*
X164782847Y-105203718D01*
X164762330Y-105191421D01*
X164743117Y-105177171D01*
X164725393Y-105161107D01*
X164709329Y-105143383D01*
X164695079Y-105124170D01*
X164682782Y-105103653D01*
X164672554Y-105082029D01*
X164664496Y-105059507D01*
X164658684Y-105036303D01*
X164655174Y-105012642D01*
X164654000Y-104988750D01*
X164654000Y-104501250D01*
X164655174Y-104477358D01*
X164658684Y-104453697D01*
X164664496Y-104430493D01*
X164672554Y-104407971D01*
X164682782Y-104386347D01*
X164695079Y-104365830D01*
X164709329Y-104346617D01*
X164725393Y-104328893D01*
X164743117Y-104312829D01*
X164762330Y-104298579D01*
X164782847Y-104286282D01*
X164804471Y-104276054D01*
X164826993Y-104267996D01*
X164850197Y-104262184D01*
X164873858Y-104258674D01*
X164897750Y-104257500D01*
X165810250Y-104257500D01*
X165834142Y-104258674D01*
X165834142Y-104258674D01*
G37*
D11*
X165354000Y-104745000D03*
D10*
G36*
X165834142Y-102383674D02*
G01*
X165857803Y-102387184D01*
X165881007Y-102392996D01*
X165903529Y-102401054D01*
X165925153Y-102411282D01*
X165945670Y-102423579D01*
X165964883Y-102437829D01*
X165982607Y-102453893D01*
X165998671Y-102471617D01*
X166012921Y-102490830D01*
X166025218Y-102511347D01*
X166035446Y-102532971D01*
X166043504Y-102555493D01*
X166049316Y-102578697D01*
X166052826Y-102602358D01*
X166054000Y-102626250D01*
X166054000Y-103113750D01*
X166052826Y-103137642D01*
X166049316Y-103161303D01*
X166043504Y-103184507D01*
X166035446Y-103207029D01*
X166025218Y-103228653D01*
X166012921Y-103249170D01*
X165998671Y-103268383D01*
X165982607Y-103286107D01*
X165964883Y-103302171D01*
X165945670Y-103316421D01*
X165925153Y-103328718D01*
X165903529Y-103338946D01*
X165881007Y-103347004D01*
X165857803Y-103352816D01*
X165834142Y-103356326D01*
X165810250Y-103357500D01*
X164897750Y-103357500D01*
X164873858Y-103356326D01*
X164850197Y-103352816D01*
X164826993Y-103347004D01*
X164804471Y-103338946D01*
X164782847Y-103328718D01*
X164762330Y-103316421D01*
X164743117Y-103302171D01*
X164725393Y-103286107D01*
X164709329Y-103268383D01*
X164695079Y-103249170D01*
X164682782Y-103228653D01*
X164672554Y-103207029D01*
X164664496Y-103184507D01*
X164658684Y-103161303D01*
X164655174Y-103137642D01*
X164654000Y-103113750D01*
X164654000Y-102626250D01*
X164655174Y-102602358D01*
X164658684Y-102578697D01*
X164664496Y-102555493D01*
X164672554Y-102532971D01*
X164682782Y-102511347D01*
X164695079Y-102490830D01*
X164709329Y-102471617D01*
X164725393Y-102453893D01*
X164743117Y-102437829D01*
X164762330Y-102423579D01*
X164782847Y-102411282D01*
X164804471Y-102401054D01*
X164826993Y-102392996D01*
X164850197Y-102387184D01*
X164873858Y-102383674D01*
X164897750Y-102382500D01*
X165810250Y-102382500D01*
X165834142Y-102383674D01*
X165834142Y-102383674D01*
G37*
D11*
X165354000Y-102870000D03*
D12*
X162668000Y-102108000D03*
X152908000Y-99568000D03*
X162668000Y-99568000D03*
X152908000Y-97028000D03*
X162668000Y-97028000D03*
X152908000Y-94488000D03*
X162668000Y-94488000D03*
X152908000Y-91948000D03*
X162668000Y-91948000D03*
D13*
X149834000Y-73533000D03*
X165634000Y-73533000D03*
X150934000Y-87033000D03*
X164534000Y-87033000D03*
D10*
G36*
X155420142Y-100000674D02*
G01*
X155443803Y-100004184D01*
X155467007Y-100009996D01*
X155489529Y-100018054D01*
X155511153Y-100028282D01*
X155531670Y-100040579D01*
X155550883Y-100054829D01*
X155568607Y-100070893D01*
X155584671Y-100088617D01*
X155598921Y-100107830D01*
X155611218Y-100128347D01*
X155621446Y-100149971D01*
X155629504Y-100172493D01*
X155635316Y-100195697D01*
X155638826Y-100219358D01*
X155640000Y-100243250D01*
X155640000Y-100730750D01*
X155638826Y-100754642D01*
X155635316Y-100778303D01*
X155629504Y-100801507D01*
X155621446Y-100824029D01*
X155611218Y-100845653D01*
X155598921Y-100866170D01*
X155584671Y-100885383D01*
X155568607Y-100903107D01*
X155550883Y-100919171D01*
X155531670Y-100933421D01*
X155511153Y-100945718D01*
X155489529Y-100955946D01*
X155467007Y-100964004D01*
X155443803Y-100969816D01*
X155420142Y-100973326D01*
X155396250Y-100974500D01*
X154483750Y-100974500D01*
X154459858Y-100973326D01*
X154436197Y-100969816D01*
X154412993Y-100964004D01*
X154390471Y-100955946D01*
X154368847Y-100945718D01*
X154348330Y-100933421D01*
X154329117Y-100919171D01*
X154311393Y-100903107D01*
X154295329Y-100885383D01*
X154281079Y-100866170D01*
X154268782Y-100845653D01*
X154258554Y-100824029D01*
X154250496Y-100801507D01*
X154244684Y-100778303D01*
X154241174Y-100754642D01*
X154240000Y-100730750D01*
X154240000Y-100243250D01*
X154241174Y-100219358D01*
X154244684Y-100195697D01*
X154250496Y-100172493D01*
X154258554Y-100149971D01*
X154268782Y-100128347D01*
X154281079Y-100107830D01*
X154295329Y-100088617D01*
X154311393Y-100070893D01*
X154329117Y-100054829D01*
X154348330Y-100040579D01*
X154368847Y-100028282D01*
X154390471Y-100018054D01*
X154412993Y-100009996D01*
X154436197Y-100004184D01*
X154459858Y-100000674D01*
X154483750Y-99999500D01*
X155396250Y-99999500D01*
X155420142Y-100000674D01*
X155420142Y-100000674D01*
G37*
D11*
X154940000Y-100487000D03*
D10*
G36*
X155420142Y-101875674D02*
G01*
X155443803Y-101879184D01*
X155467007Y-101884996D01*
X155489529Y-101893054D01*
X155511153Y-101903282D01*
X155531670Y-101915579D01*
X155550883Y-101929829D01*
X155568607Y-101945893D01*
X155584671Y-101963617D01*
X155598921Y-101982830D01*
X155611218Y-102003347D01*
X155621446Y-102024971D01*
X155629504Y-102047493D01*
X155635316Y-102070697D01*
X155638826Y-102094358D01*
X155640000Y-102118250D01*
X155640000Y-102605750D01*
X155638826Y-102629642D01*
X155635316Y-102653303D01*
X155629504Y-102676507D01*
X155621446Y-102699029D01*
X155611218Y-102720653D01*
X155598921Y-102741170D01*
X155584671Y-102760383D01*
X155568607Y-102778107D01*
X155550883Y-102794171D01*
X155531670Y-102808421D01*
X155511153Y-102820718D01*
X155489529Y-102830946D01*
X155467007Y-102839004D01*
X155443803Y-102844816D01*
X155420142Y-102848326D01*
X155396250Y-102849500D01*
X154483750Y-102849500D01*
X154459858Y-102848326D01*
X154436197Y-102844816D01*
X154412993Y-102839004D01*
X154390471Y-102830946D01*
X154368847Y-102820718D01*
X154348330Y-102808421D01*
X154329117Y-102794171D01*
X154311393Y-102778107D01*
X154295329Y-102760383D01*
X154281079Y-102741170D01*
X154268782Y-102720653D01*
X154258554Y-102699029D01*
X154250496Y-102676507D01*
X154244684Y-102653303D01*
X154241174Y-102629642D01*
X154240000Y-102605750D01*
X154240000Y-102118250D01*
X154241174Y-102094358D01*
X154244684Y-102070697D01*
X154250496Y-102047493D01*
X154258554Y-102024971D01*
X154268782Y-102003347D01*
X154281079Y-101982830D01*
X154295329Y-101963617D01*
X154311393Y-101945893D01*
X154329117Y-101929829D01*
X154348330Y-101915579D01*
X154368847Y-101903282D01*
X154390471Y-101893054D01*
X154412993Y-101884996D01*
X154436197Y-101879184D01*
X154459858Y-101875674D01*
X154483750Y-101874500D01*
X155396250Y-101874500D01*
X155420142Y-101875674D01*
X155420142Y-101875674D01*
G37*
D11*
X154940000Y-102362000D03*
D10*
G36*
X158849142Y-100049174D02*
G01*
X158872803Y-100052684D01*
X158896007Y-100058496D01*
X158918529Y-100066554D01*
X158940153Y-100076782D01*
X158960670Y-100089079D01*
X158979883Y-100103329D01*
X158997607Y-100119393D01*
X159013671Y-100137117D01*
X159027921Y-100156330D01*
X159040218Y-100176847D01*
X159050446Y-100198471D01*
X159058504Y-100220993D01*
X159064316Y-100244197D01*
X159067826Y-100267858D01*
X159069000Y-100291750D01*
X159069000Y-100779250D01*
X159067826Y-100803142D01*
X159064316Y-100826803D01*
X159058504Y-100850007D01*
X159050446Y-100872529D01*
X159040218Y-100894153D01*
X159027921Y-100914670D01*
X159013671Y-100933883D01*
X158997607Y-100951607D01*
X158979883Y-100967671D01*
X158960670Y-100981921D01*
X158940153Y-100994218D01*
X158918529Y-101004446D01*
X158896007Y-101012504D01*
X158872803Y-101018316D01*
X158849142Y-101021826D01*
X158825250Y-101023000D01*
X157912750Y-101023000D01*
X157888858Y-101021826D01*
X157865197Y-101018316D01*
X157841993Y-101012504D01*
X157819471Y-101004446D01*
X157797847Y-100994218D01*
X157777330Y-100981921D01*
X157758117Y-100967671D01*
X157740393Y-100951607D01*
X157724329Y-100933883D01*
X157710079Y-100914670D01*
X157697782Y-100894153D01*
X157687554Y-100872529D01*
X157679496Y-100850007D01*
X157673684Y-100826803D01*
X157670174Y-100803142D01*
X157669000Y-100779250D01*
X157669000Y-100291750D01*
X157670174Y-100267858D01*
X157673684Y-100244197D01*
X157679496Y-100220993D01*
X157687554Y-100198471D01*
X157697782Y-100176847D01*
X157710079Y-100156330D01*
X157724329Y-100137117D01*
X157740393Y-100119393D01*
X157758117Y-100103329D01*
X157777330Y-100089079D01*
X157797847Y-100076782D01*
X157819471Y-100066554D01*
X157841993Y-100058496D01*
X157865197Y-100052684D01*
X157888858Y-100049174D01*
X157912750Y-100048000D01*
X158825250Y-100048000D01*
X158849142Y-100049174D01*
X158849142Y-100049174D01*
G37*
D11*
X158369000Y-100535500D03*
D10*
G36*
X158849142Y-101924174D02*
G01*
X158872803Y-101927684D01*
X158896007Y-101933496D01*
X158918529Y-101941554D01*
X158940153Y-101951782D01*
X158960670Y-101964079D01*
X158979883Y-101978329D01*
X158997607Y-101994393D01*
X159013671Y-102012117D01*
X159027921Y-102031330D01*
X159040218Y-102051847D01*
X159050446Y-102073471D01*
X159058504Y-102095993D01*
X159064316Y-102119197D01*
X159067826Y-102142858D01*
X159069000Y-102166750D01*
X159069000Y-102654250D01*
X159067826Y-102678142D01*
X159064316Y-102701803D01*
X159058504Y-102725007D01*
X159050446Y-102747529D01*
X159040218Y-102769153D01*
X159027921Y-102789670D01*
X159013671Y-102808883D01*
X158997607Y-102826607D01*
X158979883Y-102842671D01*
X158960670Y-102856921D01*
X158940153Y-102869218D01*
X158918529Y-102879446D01*
X158896007Y-102887504D01*
X158872803Y-102893316D01*
X158849142Y-102896826D01*
X158825250Y-102898000D01*
X157912750Y-102898000D01*
X157888858Y-102896826D01*
X157865197Y-102893316D01*
X157841993Y-102887504D01*
X157819471Y-102879446D01*
X157797847Y-102869218D01*
X157777330Y-102856921D01*
X157758117Y-102842671D01*
X157740393Y-102826607D01*
X157724329Y-102808883D01*
X157710079Y-102789670D01*
X157697782Y-102769153D01*
X157687554Y-102747529D01*
X157679496Y-102725007D01*
X157673684Y-102701803D01*
X157670174Y-102678142D01*
X157669000Y-102654250D01*
X157669000Y-102166750D01*
X157670174Y-102142858D01*
X157673684Y-102119197D01*
X157679496Y-102095993D01*
X157687554Y-102073471D01*
X157697782Y-102051847D01*
X157710079Y-102031330D01*
X157724329Y-102012117D01*
X157740393Y-101994393D01*
X157758117Y-101978329D01*
X157777330Y-101964079D01*
X157797847Y-101951782D01*
X157819471Y-101941554D01*
X157841993Y-101933496D01*
X157865197Y-101927684D01*
X157888858Y-101924174D01*
X157912750Y-101923000D01*
X158825250Y-101923000D01*
X158849142Y-101924174D01*
X158849142Y-101924174D01*
G37*
D11*
X158369000Y-102410500D03*
D10*
G36*
X158849142Y-97908674D02*
G01*
X158872803Y-97912184D01*
X158896007Y-97917996D01*
X158918529Y-97926054D01*
X158940153Y-97936282D01*
X158960670Y-97948579D01*
X158979883Y-97962829D01*
X158997607Y-97978893D01*
X159013671Y-97996617D01*
X159027921Y-98015830D01*
X159040218Y-98036347D01*
X159050446Y-98057971D01*
X159058504Y-98080493D01*
X159064316Y-98103697D01*
X159067826Y-98127358D01*
X159069000Y-98151250D01*
X159069000Y-98638750D01*
X159067826Y-98662642D01*
X159064316Y-98686303D01*
X159058504Y-98709507D01*
X159050446Y-98732029D01*
X159040218Y-98753653D01*
X159027921Y-98774170D01*
X159013671Y-98793383D01*
X158997607Y-98811107D01*
X158979883Y-98827171D01*
X158960670Y-98841421D01*
X158940153Y-98853718D01*
X158918529Y-98863946D01*
X158896007Y-98872004D01*
X158872803Y-98877816D01*
X158849142Y-98881326D01*
X158825250Y-98882500D01*
X157912750Y-98882500D01*
X157888858Y-98881326D01*
X157865197Y-98877816D01*
X157841993Y-98872004D01*
X157819471Y-98863946D01*
X157797847Y-98853718D01*
X157777330Y-98841421D01*
X157758117Y-98827171D01*
X157740393Y-98811107D01*
X157724329Y-98793383D01*
X157710079Y-98774170D01*
X157697782Y-98753653D01*
X157687554Y-98732029D01*
X157679496Y-98709507D01*
X157673684Y-98686303D01*
X157670174Y-98662642D01*
X157669000Y-98638750D01*
X157669000Y-98151250D01*
X157670174Y-98127358D01*
X157673684Y-98103697D01*
X157679496Y-98080493D01*
X157687554Y-98057971D01*
X157697782Y-98036347D01*
X157710079Y-98015830D01*
X157724329Y-97996617D01*
X157740393Y-97978893D01*
X157758117Y-97962829D01*
X157777330Y-97948579D01*
X157797847Y-97936282D01*
X157819471Y-97926054D01*
X157841993Y-97917996D01*
X157865197Y-97912184D01*
X157888858Y-97908674D01*
X157912750Y-97907500D01*
X158825250Y-97907500D01*
X158849142Y-97908674D01*
X158849142Y-97908674D01*
G37*
D11*
X158369000Y-98395000D03*
D10*
G36*
X158849142Y-96033674D02*
G01*
X158872803Y-96037184D01*
X158896007Y-96042996D01*
X158918529Y-96051054D01*
X158940153Y-96061282D01*
X158960670Y-96073579D01*
X158979883Y-96087829D01*
X158997607Y-96103893D01*
X159013671Y-96121617D01*
X159027921Y-96140830D01*
X159040218Y-96161347D01*
X159050446Y-96182971D01*
X159058504Y-96205493D01*
X159064316Y-96228697D01*
X159067826Y-96252358D01*
X159069000Y-96276250D01*
X159069000Y-96763750D01*
X159067826Y-96787642D01*
X159064316Y-96811303D01*
X159058504Y-96834507D01*
X159050446Y-96857029D01*
X159040218Y-96878653D01*
X159027921Y-96899170D01*
X159013671Y-96918383D01*
X158997607Y-96936107D01*
X158979883Y-96952171D01*
X158960670Y-96966421D01*
X158940153Y-96978718D01*
X158918529Y-96988946D01*
X158896007Y-96997004D01*
X158872803Y-97002816D01*
X158849142Y-97006326D01*
X158825250Y-97007500D01*
X157912750Y-97007500D01*
X157888858Y-97006326D01*
X157865197Y-97002816D01*
X157841993Y-96997004D01*
X157819471Y-96988946D01*
X157797847Y-96978718D01*
X157777330Y-96966421D01*
X157758117Y-96952171D01*
X157740393Y-96936107D01*
X157724329Y-96918383D01*
X157710079Y-96899170D01*
X157697782Y-96878653D01*
X157687554Y-96857029D01*
X157679496Y-96834507D01*
X157673684Y-96811303D01*
X157670174Y-96787642D01*
X157669000Y-96763750D01*
X157669000Y-96276250D01*
X157670174Y-96252358D01*
X157673684Y-96228697D01*
X157679496Y-96205493D01*
X157687554Y-96182971D01*
X157697782Y-96161347D01*
X157710079Y-96140830D01*
X157724329Y-96121617D01*
X157740393Y-96103893D01*
X157758117Y-96087829D01*
X157777330Y-96073579D01*
X157797847Y-96061282D01*
X157819471Y-96051054D01*
X157841993Y-96042996D01*
X157865197Y-96037184D01*
X157888858Y-96033674D01*
X157912750Y-96032500D01*
X158825250Y-96032500D01*
X158849142Y-96033674D01*
X158849142Y-96033674D01*
G37*
D11*
X158369000Y-96520000D03*
D14*
X155107000Y-107376000D03*
X155107000Y-106426000D03*
X155107000Y-105476000D03*
X152487000Y-105476000D03*
X152487000Y-107376000D03*
D15*
X158328000Y-105578000D03*
X158328000Y-106228000D03*
X158328000Y-106878000D03*
X158328000Y-107528000D03*
X162728000Y-107528000D03*
X162728000Y-106878000D03*
X162728000Y-106228000D03*
X162728000Y-105578000D03*
D16*
X158750000Y-94742000D03*
X161417000Y-103886000D03*
X155067000Y-98679000D03*
X157861000Y-96393000D03*
X155194000Y-95123000D03*
X156464000Y-105791000D03*
X160401000Y-108077000D03*
X164719000Y-101600000D03*
X157607000Y-99822000D03*
X159619469Y-104836837D03*
X153289000Y-104013000D03*
D17*
X163078500Y-87033000D02*
X158290500Y-91821000D01*
X164534000Y-87033000D02*
X163078500Y-87033000D01*
X158846737Y-92377237D02*
X158290500Y-91821000D01*
X160020000Y-93550500D02*
X158846737Y-92377237D01*
X160020000Y-96744000D02*
X160020000Y-93550500D01*
X158369000Y-98395000D02*
X160020000Y-96744000D01*
X158328000Y-105103000D02*
X158328000Y-105578000D01*
X159394010Y-104036990D02*
X158328000Y-105103000D01*
X159394010Y-100007510D02*
X159394010Y-104036990D01*
X158369000Y-98982500D02*
X159394010Y-100007510D01*
X158369000Y-98395000D02*
X158369000Y-98982500D01*
X162728000Y-105578000D02*
X162728000Y-105103000D01*
X156415500Y-92407500D02*
X156415500Y-91821000D01*
X158750000Y-94742000D02*
X156415500Y-92407500D01*
X162728000Y-105103000D02*
X162634000Y-105103000D01*
X162634000Y-105103000D02*
X161417000Y-103886000D01*
X156415500Y-91821000D02*
X156415500Y-88724500D01*
X152625500Y-88724500D02*
X150934000Y-87033000D01*
X156415500Y-88724500D02*
X152625500Y-88724500D01*
X155067000Y-96520000D02*
X155067000Y-95250000D01*
X155067000Y-95250000D02*
X155194000Y-95123000D01*
X155107000Y-106426000D02*
X155829000Y-106426000D01*
X155829000Y-106426000D02*
X156464000Y-105791000D01*
X160401000Y-107976000D02*
X160401000Y-108077000D01*
X158328000Y-106878000D02*
X159303000Y-106878000D01*
X159303000Y-106878000D02*
X160401000Y-107976000D01*
X165354000Y-102870000D02*
X165354000Y-102235000D01*
X165354000Y-102235000D02*
X164719000Y-101600000D01*
X158369000Y-100535500D02*
X158320500Y-100535500D01*
X158320500Y-100535500D02*
X157607000Y-99822000D01*
X162728000Y-106228000D02*
X164013000Y-106228000D01*
X162728000Y-106878000D02*
X161742000Y-106878000D01*
X161163000Y-106938000D02*
X161163000Y-106299000D01*
X161753000Y-107528000D02*
X161163000Y-106938000D01*
X162728000Y-107528000D02*
X161753000Y-107528000D01*
X161742000Y-106878000D02*
X161163000Y-106299000D01*
X161163000Y-106299000D02*
X161081632Y-106299000D01*
X161081632Y-106299000D02*
X159619469Y-104836837D01*
X153289000Y-99949000D02*
X152908000Y-99568000D01*
X153289000Y-104013000D02*
X153289000Y-99949000D01*
X154940000Y-105309000D02*
X155107000Y-105476000D01*
X154940000Y-102362000D02*
X154940000Y-105309000D01*
X154988500Y-102410500D02*
X154940000Y-102362000D01*
X158369000Y-102410500D02*
X154988500Y-102410500D01*
X154247000Y-107376000D02*
X155107000Y-107376000D01*
X153347000Y-106476000D02*
X154247000Y-107376000D01*
X153347000Y-106051000D02*
X153347000Y-106476000D01*
X152772000Y-105476000D02*
X153347000Y-106051000D01*
X152487000Y-105476000D02*
X152772000Y-105476000D01*
X157442998Y-106228000D02*
X158328000Y-106228000D01*
X156294998Y-107376000D02*
X157442998Y-106228000D01*
X155107000Y-107376000D02*
X156294998Y-107376000D01*
D18*
G36*
X160889017Y-101063787D02*
G01*
X160967987Y-101160013D01*
X161064213Y-101238983D01*
X161173996Y-101297664D01*
X161293118Y-101333799D01*
X161395045Y-101343838D01*
X161271175Y-101603901D01*
X161226524Y-101751110D01*
X161347845Y-101981000D01*
X162541000Y-101981000D01*
X162541000Y-101961000D01*
X162795000Y-101961000D01*
X162795000Y-101981000D01*
X162815000Y-101981000D01*
X162815000Y-102235000D01*
X162795000Y-102235000D01*
X162795000Y-102255000D01*
X162541000Y-102255000D01*
X162541000Y-102235000D01*
X161347845Y-102235000D01*
X161226524Y-102464890D01*
X161271175Y-102612099D01*
X161384966Y-102851000D01*
X161315061Y-102851000D01*
X161115102Y-102890774D01*
X161011953Y-102933500D01*
X160909000Y-102933500D01*
X160785118Y-102945701D01*
X160665996Y-102981836D01*
X160556213Y-103040517D01*
X160459987Y-103119487D01*
X160381017Y-103215713D01*
X160362155Y-103251000D01*
X160154010Y-103251000D01*
X160154010Y-101028500D01*
X160870155Y-101028500D01*
X160889017Y-101063787D01*
X160889017Y-101063787D01*
G37*
X160889017Y-101063787D02*
X160967987Y-101160013D01*
X161064213Y-101238983D01*
X161173996Y-101297664D01*
X161293118Y-101333799D01*
X161395045Y-101343838D01*
X161271175Y-101603901D01*
X161226524Y-101751110D01*
X161347845Y-101981000D01*
X162541000Y-101981000D01*
X162541000Y-101961000D01*
X162795000Y-101961000D01*
X162795000Y-101981000D01*
X162815000Y-101981000D01*
X162815000Y-102235000D01*
X162795000Y-102235000D01*
X162795000Y-102255000D01*
X162541000Y-102255000D01*
X162541000Y-102235000D01*
X161347845Y-102235000D01*
X161226524Y-102464890D01*
X161271175Y-102612099D01*
X161384966Y-102851000D01*
X161315061Y-102851000D01*
X161115102Y-102890774D01*
X161011953Y-102933500D01*
X160909000Y-102933500D01*
X160785118Y-102945701D01*
X160665996Y-102981836D01*
X160556213Y-103040517D01*
X160459987Y-103119487D01*
X160381017Y-103215713D01*
X160362155Y-103251000D01*
X160154010Y-103251000D01*
X160154010Y-101028500D01*
X160870155Y-101028500D01*
X160889017Y-101063787D01*
G36*
X157289208Y-101402792D02*
G01*
X157374756Y-101473000D01*
X157289208Y-101543208D01*
X157226000Y-101620227D01*
X157226000Y-101325773D01*
X157289208Y-101402792D01*
X157289208Y-101402792D01*
G37*
X157289208Y-101402792D02*
X157374756Y-101473000D01*
X157289208Y-101543208D01*
X157226000Y-101620227D01*
X157226000Y-101325773D01*
X157289208Y-101402792D01*
G36*
X167234001Y-107536711D02*
G01*
X167199928Y-107884209D01*
X167108384Y-108187417D01*
X166959693Y-108467063D01*
X166759516Y-108712505D01*
X166515476Y-108914392D01*
X166236875Y-109065031D01*
X165934313Y-109158690D01*
X165588842Y-109195000D01*
X161036000Y-109195000D01*
X161036000Y-108897490D01*
X161060774Y-108880937D01*
X161204937Y-108736774D01*
X161318205Y-108567256D01*
X161396226Y-108378898D01*
X161428561Y-108216339D01*
X161446609Y-108225986D01*
X161460753Y-108233546D01*
X161604014Y-108277003D01*
X161645526Y-108281092D01*
X161648506Y-108283537D01*
X161758820Y-108342502D01*
X161878518Y-108378812D01*
X162003000Y-108391072D01*
X163453000Y-108391072D01*
X163577482Y-108378812D01*
X163697180Y-108342502D01*
X163807494Y-108283537D01*
X163904185Y-108204185D01*
X163983537Y-108107494D01*
X164042502Y-107997180D01*
X164078812Y-107877482D01*
X164091072Y-107753000D01*
X164091072Y-107303000D01*
X164081223Y-107203000D01*
X164091072Y-107103000D01*
X164091072Y-106653000D01*
X164080905Y-106549773D01*
X164088000Y-106484750D01*
X164055753Y-106452503D01*
X164042502Y-106408820D01*
X163983537Y-106298506D01*
X163925674Y-106228000D01*
X163983537Y-106157494D01*
X164042502Y-106047180D01*
X164055753Y-106003497D01*
X164088000Y-105971250D01*
X164080905Y-105906227D01*
X164091072Y-105803000D01*
X164091072Y-105526396D01*
X164123463Y-105586994D01*
X164202815Y-105683685D01*
X164299506Y-105763037D01*
X164409820Y-105822002D01*
X164529518Y-105858312D01*
X164654000Y-105870572D01*
X165068250Y-105867500D01*
X165227000Y-105708750D01*
X165227000Y-104872000D01*
X165481000Y-104872000D01*
X165481000Y-105708750D01*
X165639750Y-105867500D01*
X166054000Y-105870572D01*
X166178482Y-105858312D01*
X166298180Y-105822002D01*
X166408494Y-105763037D01*
X166505185Y-105683685D01*
X166584537Y-105586994D01*
X166643502Y-105476680D01*
X166679812Y-105356982D01*
X166692072Y-105232500D01*
X166689000Y-105030750D01*
X166530250Y-104872000D01*
X165481000Y-104872000D01*
X165227000Y-104872000D01*
X164177750Y-104872000D01*
X164019000Y-105030750D01*
X164018495Y-105063907D01*
X163983537Y-104998506D01*
X163904185Y-104901815D01*
X163807494Y-104822463D01*
X163697180Y-104763498D01*
X163577482Y-104727188D01*
X163453000Y-104714928D01*
X163382326Y-104714928D01*
X163362974Y-104678724D01*
X163268001Y-104562999D01*
X163152276Y-104468026D01*
X163020247Y-104397454D01*
X162995857Y-104390056D01*
X162452000Y-103846199D01*
X162452000Y-103784061D01*
X162434384Y-103695500D01*
X164211000Y-103695500D01*
X164235776Y-103693060D01*
X164237483Y-103692542D01*
X164274208Y-103737292D01*
X164280564Y-103742508D01*
X164202815Y-103806315D01*
X164123463Y-103903006D01*
X164064498Y-104013320D01*
X164028188Y-104133018D01*
X164015928Y-104257500D01*
X164019000Y-104459250D01*
X164177750Y-104618000D01*
X165227000Y-104618000D01*
X165227000Y-104598000D01*
X165481000Y-104598000D01*
X165481000Y-104618000D01*
X166530250Y-104618000D01*
X166689000Y-104459250D01*
X166692072Y-104257500D01*
X166679812Y-104133018D01*
X166643502Y-104013320D01*
X166584537Y-103903006D01*
X166505185Y-103806315D01*
X166427436Y-103742508D01*
X166433792Y-103737292D01*
X166543458Y-103603664D01*
X166624947Y-103451209D01*
X166675128Y-103285785D01*
X166692072Y-103113750D01*
X166692072Y-102626250D01*
X166675128Y-102454215D01*
X166624947Y-102288791D01*
X166543458Y-102136336D01*
X166433792Y-102002708D01*
X166300164Y-101893042D01*
X166147709Y-101811553D01*
X165982285Y-101761372D01*
X165945498Y-101757749D01*
X165917799Y-101723997D01*
X165894001Y-101694999D01*
X165865002Y-101671200D01*
X165754000Y-101560198D01*
X165754000Y-101498061D01*
X165714226Y-101298102D01*
X165636205Y-101109744D01*
X165522937Y-100940226D01*
X165378774Y-100796063D01*
X165209256Y-100682795D01*
X165020898Y-100604774D01*
X164820939Y-100565000D01*
X164617061Y-100565000D01*
X164417102Y-100604774D01*
X164319206Y-100645324D01*
X164316597Y-100640443D01*
X164300803Y-100621197D01*
X164281557Y-100605403D01*
X164259601Y-100593667D01*
X164235776Y-100586440D01*
X164211000Y-100584000D01*
X163748136Y-100584000D01*
X163765588Y-100568269D01*
X163939641Y-100334920D01*
X164064825Y-100072099D01*
X164109476Y-99924890D01*
X163988155Y-99695000D01*
X162795000Y-99695000D01*
X162795000Y-99715000D01*
X162541000Y-99715000D01*
X162541000Y-99695000D01*
X162521000Y-99695000D01*
X162521000Y-99441000D01*
X162541000Y-99441000D01*
X162541000Y-99421000D01*
X162795000Y-99421000D01*
X162795000Y-99441000D01*
X163988155Y-99441000D01*
X164109476Y-99211110D01*
X164064825Y-99063901D01*
X163939641Y-98801080D01*
X163765588Y-98567731D01*
X163748136Y-98552000D01*
X167234001Y-98552000D01*
X167234001Y-107536711D01*
X167234001Y-107536711D01*
G37*
X167234001Y-107536711D02*
X167199928Y-107884209D01*
X167108384Y-108187417D01*
X166959693Y-108467063D01*
X166759516Y-108712505D01*
X166515476Y-108914392D01*
X166236875Y-109065031D01*
X165934313Y-109158690D01*
X165588842Y-109195000D01*
X161036000Y-109195000D01*
X161036000Y-108897490D01*
X161060774Y-108880937D01*
X161204937Y-108736774D01*
X161318205Y-108567256D01*
X161396226Y-108378898D01*
X161428561Y-108216339D01*
X161446609Y-108225986D01*
X161460753Y-108233546D01*
X161604014Y-108277003D01*
X161645526Y-108281092D01*
X161648506Y-108283537D01*
X161758820Y-108342502D01*
X161878518Y-108378812D01*
X162003000Y-108391072D01*
X163453000Y-108391072D01*
X163577482Y-108378812D01*
X163697180Y-108342502D01*
X163807494Y-108283537D01*
X163904185Y-108204185D01*
X163983537Y-108107494D01*
X164042502Y-107997180D01*
X164078812Y-107877482D01*
X164091072Y-107753000D01*
X164091072Y-107303000D01*
X164081223Y-107203000D01*
X164091072Y-107103000D01*
X164091072Y-106653000D01*
X164080905Y-106549773D01*
X164088000Y-106484750D01*
X164055753Y-106452503D01*
X164042502Y-106408820D01*
X163983537Y-106298506D01*
X163925674Y-106228000D01*
X163983537Y-106157494D01*
X164042502Y-106047180D01*
X164055753Y-106003497D01*
X164088000Y-105971250D01*
X164080905Y-105906227D01*
X164091072Y-105803000D01*
X164091072Y-105526396D01*
X164123463Y-105586994D01*
X164202815Y-105683685D01*
X164299506Y-105763037D01*
X164409820Y-105822002D01*
X164529518Y-105858312D01*
X164654000Y-105870572D01*
X165068250Y-105867500D01*
X165227000Y-105708750D01*
X165227000Y-104872000D01*
X165481000Y-104872000D01*
X165481000Y-105708750D01*
X165639750Y-105867500D01*
X166054000Y-105870572D01*
X166178482Y-105858312D01*
X166298180Y-105822002D01*
X166408494Y-105763037D01*
X166505185Y-105683685D01*
X166584537Y-105586994D01*
X166643502Y-105476680D01*
X166679812Y-105356982D01*
X166692072Y-105232500D01*
X166689000Y-105030750D01*
X166530250Y-104872000D01*
X165481000Y-104872000D01*
X165227000Y-104872000D01*
X164177750Y-104872000D01*
X164019000Y-105030750D01*
X164018495Y-105063907D01*
X163983537Y-104998506D01*
X163904185Y-104901815D01*
X163807494Y-104822463D01*
X163697180Y-104763498D01*
X163577482Y-104727188D01*
X163453000Y-104714928D01*
X163382326Y-104714928D01*
X163362974Y-104678724D01*
X163268001Y-104562999D01*
X163152276Y-104468026D01*
X163020247Y-104397454D01*
X162995857Y-104390056D01*
X162452000Y-103846199D01*
X162452000Y-103784061D01*
X162434384Y-103695500D01*
X164211000Y-103695500D01*
X164235776Y-103693060D01*
X164237483Y-103692542D01*
X164274208Y-103737292D01*
X164280564Y-103742508D01*
X164202815Y-103806315D01*
X164123463Y-103903006D01*
X164064498Y-104013320D01*
X164028188Y-104133018D01*
X164015928Y-104257500D01*
X164019000Y-104459250D01*
X164177750Y-104618000D01*
X165227000Y-104618000D01*
X165227000Y-104598000D01*
X165481000Y-104598000D01*
X165481000Y-104618000D01*
X166530250Y-104618000D01*
X166689000Y-104459250D01*
X166692072Y-104257500D01*
X166679812Y-104133018D01*
X166643502Y-104013320D01*
X166584537Y-103903006D01*
X166505185Y-103806315D01*
X166427436Y-103742508D01*
X166433792Y-103737292D01*
X166543458Y-103603664D01*
X166624947Y-103451209D01*
X166675128Y-103285785D01*
X166692072Y-103113750D01*
X166692072Y-102626250D01*
X166675128Y-102454215D01*
X166624947Y-102288791D01*
X166543458Y-102136336D01*
X166433792Y-102002708D01*
X166300164Y-101893042D01*
X166147709Y-101811553D01*
X165982285Y-101761372D01*
X165945498Y-101757749D01*
X165917799Y-101723997D01*
X165894001Y-101694999D01*
X165865002Y-101671200D01*
X165754000Y-101560198D01*
X165754000Y-101498061D01*
X165714226Y-101298102D01*
X165636205Y-101109744D01*
X165522937Y-100940226D01*
X165378774Y-100796063D01*
X165209256Y-100682795D01*
X165020898Y-100604774D01*
X164820939Y-100565000D01*
X164617061Y-100565000D01*
X164417102Y-100604774D01*
X164319206Y-100645324D01*
X164316597Y-100640443D01*
X164300803Y-100621197D01*
X164281557Y-100605403D01*
X164259601Y-100593667D01*
X164235776Y-100586440D01*
X164211000Y-100584000D01*
X163748136Y-100584000D01*
X163765588Y-100568269D01*
X163939641Y-100334920D01*
X164064825Y-100072099D01*
X164109476Y-99924890D01*
X163988155Y-99695000D01*
X162795000Y-99695000D01*
X162795000Y-99715000D01*
X162541000Y-99715000D01*
X162541000Y-99695000D01*
X162521000Y-99695000D01*
X162521000Y-99441000D01*
X162541000Y-99441000D01*
X162541000Y-99421000D01*
X162795000Y-99421000D01*
X162795000Y-99441000D01*
X163988155Y-99441000D01*
X164109476Y-99211110D01*
X164064825Y-99063901D01*
X163939641Y-98801080D01*
X163765588Y-98567731D01*
X163748136Y-98552000D01*
X167234001Y-98552000D01*
X167234001Y-107536711D01*
G36*
X165923210Y-71941072D02*
G01*
X166226413Y-72032614D01*
X166506064Y-72181307D01*
X166751505Y-72381484D01*
X166953391Y-72625521D01*
X167104031Y-72904125D01*
X167197690Y-73206688D01*
X167234000Y-73552158D01*
X167234001Y-97790000D01*
X163944526Y-97790000D01*
X164046599Y-97599034D01*
X164131513Y-97319111D01*
X164160185Y-97028000D01*
X164131513Y-96736889D01*
X164046599Y-96456966D01*
X163908706Y-96198986D01*
X163723134Y-95972866D01*
X163497014Y-95787294D01*
X163442209Y-95758000D01*
X163497014Y-95728706D01*
X163723134Y-95543134D01*
X163908706Y-95317014D01*
X164046599Y-95059034D01*
X164131513Y-94779111D01*
X164160185Y-94488000D01*
X164131513Y-94196889D01*
X164046599Y-93916966D01*
X163908706Y-93658986D01*
X163723134Y-93432866D01*
X163497014Y-93247294D01*
X163442209Y-93218000D01*
X163497014Y-93188706D01*
X163723134Y-93003134D01*
X163908706Y-92777014D01*
X164046599Y-92519034D01*
X164131513Y-92239111D01*
X164160185Y-91948000D01*
X164131513Y-91656889D01*
X164046599Y-91376966D01*
X163908706Y-91118986D01*
X163723134Y-90892866D01*
X163497014Y-90707294D01*
X163239034Y-90569401D01*
X162959111Y-90484487D01*
X162740950Y-90463000D01*
X162595050Y-90463000D01*
X162376889Y-90484487D01*
X162096966Y-90569401D01*
X161838986Y-90707294D01*
X161612866Y-90892866D01*
X161427294Y-91118986D01*
X161289401Y-91376966D01*
X161204487Y-91656889D01*
X161175815Y-91948000D01*
X161204487Y-92239111D01*
X161289401Y-92519034D01*
X161427294Y-92777014D01*
X161612866Y-93003134D01*
X161838986Y-93188706D01*
X161893791Y-93218000D01*
X161838986Y-93247294D01*
X161612866Y-93432866D01*
X161427294Y-93658986D01*
X161289401Y-93916966D01*
X161204487Y-94196889D01*
X161175815Y-94488000D01*
X161204487Y-94779111D01*
X161289401Y-95059034D01*
X161427294Y-95317014D01*
X161612866Y-95543134D01*
X161838986Y-95728706D01*
X161893791Y-95758000D01*
X161838986Y-95787294D01*
X161612866Y-95972866D01*
X161427294Y-96198986D01*
X161289401Y-96456966D01*
X161204487Y-96736889D01*
X161175815Y-97028000D01*
X161204487Y-97319111D01*
X161289401Y-97599034D01*
X161392751Y-97792388D01*
X161293118Y-97802201D01*
X161173996Y-97838336D01*
X161064213Y-97897017D01*
X160967987Y-97975987D01*
X160889017Y-98072213D01*
X160830336Y-98181996D01*
X160794201Y-98301118D01*
X160782000Y-98425000D01*
X160782000Y-100711000D01*
X160794201Y-100834882D01*
X160830336Y-100954004D01*
X160889017Y-101063787D01*
X160967987Y-101160013D01*
X161036000Y-101215829D01*
X161036000Y-102923539D01*
X161011953Y-102933500D01*
X160909000Y-102933500D01*
X160785118Y-102945701D01*
X160665996Y-102981836D01*
X160556213Y-103040517D01*
X160459987Y-103119487D01*
X160381017Y-103215713D01*
X160322336Y-103325496D01*
X160286201Y-103444618D01*
X160274000Y-103568500D01*
X160274000Y-104029397D01*
X160154010Y-103949222D01*
X160154010Y-100044832D01*
X160157686Y-100007509D01*
X160154010Y-99970186D01*
X160154010Y-99970177D01*
X160143013Y-99858524D01*
X160099556Y-99715263D01*
X160074404Y-99668208D01*
X160028984Y-99583233D01*
X159957809Y-99496507D01*
X159934011Y-99467509D01*
X159905014Y-99443712D01*
X159569433Y-99108131D01*
X159639947Y-98976209D01*
X159690128Y-98810785D01*
X159707072Y-98638750D01*
X159707072Y-98151250D01*
X159705322Y-98133480D01*
X160531004Y-97307798D01*
X160560001Y-97284001D01*
X160654974Y-97168276D01*
X160725546Y-97036247D01*
X160769003Y-96892986D01*
X160780000Y-96781333D01*
X160780000Y-96781332D01*
X160783677Y-96744000D01*
X160780000Y-96706667D01*
X160780000Y-93587822D01*
X160783676Y-93550499D01*
X160780000Y-93513176D01*
X160780000Y-93513167D01*
X160769003Y-93401514D01*
X160725546Y-93258253D01*
X160654974Y-93126224D01*
X160619323Y-93082783D01*
X160583799Y-93039496D01*
X160583795Y-93039492D01*
X160560001Y-93010499D01*
X160531008Y-92986705D01*
X159416072Y-91871771D01*
X159416072Y-91770229D01*
X163285655Y-87900647D01*
X163353339Y-88001944D01*
X163565056Y-88213661D01*
X163814010Y-88380007D01*
X164090632Y-88494588D01*
X164384293Y-88553000D01*
X164683707Y-88553000D01*
X164977368Y-88494588D01*
X165253990Y-88380007D01*
X165502944Y-88213661D01*
X165714661Y-88001944D01*
X165881007Y-87752990D01*
X165995588Y-87476368D01*
X166054000Y-87182707D01*
X166054000Y-86883293D01*
X165995588Y-86589632D01*
X165881007Y-86313010D01*
X165714661Y-86064056D01*
X165502944Y-85852339D01*
X165253990Y-85685993D01*
X164977368Y-85571412D01*
X164683707Y-85513000D01*
X164384293Y-85513000D01*
X164090632Y-85571412D01*
X163814010Y-85685993D01*
X163565056Y-85852339D01*
X163353339Y-86064056D01*
X163213727Y-86273000D01*
X163115833Y-86273000D01*
X163078500Y-86269323D01*
X163041167Y-86273000D01*
X162929514Y-86283997D01*
X162786253Y-86327454D01*
X162654224Y-86398026D01*
X162538499Y-86492999D01*
X162514701Y-86521997D01*
X158552021Y-90484678D01*
X158534250Y-90482928D01*
X158046750Y-90482928D01*
X157874715Y-90499872D01*
X157709291Y-90550053D01*
X157556836Y-90631542D01*
X157423208Y-90741208D01*
X157353000Y-90826756D01*
X157282792Y-90741208D01*
X157175500Y-90653155D01*
X157175500Y-88761833D01*
X157179177Y-88724500D01*
X157164503Y-88575514D01*
X157121046Y-88432253D01*
X157050474Y-88300224D01*
X156955501Y-88184499D01*
X156839776Y-88089526D01*
X156707747Y-88018954D01*
X156564486Y-87975497D01*
X156452833Y-87964500D01*
X156415500Y-87960823D01*
X156378167Y-87964500D01*
X152940302Y-87964500D01*
X152404975Y-87429174D01*
X152454000Y-87182707D01*
X152454000Y-86883293D01*
X152395588Y-86589632D01*
X152281007Y-86313010D01*
X152114661Y-86064056D01*
X151902944Y-85852339D01*
X151653990Y-85685993D01*
X151377368Y-85571412D01*
X151083707Y-85513000D01*
X150784293Y-85513000D01*
X150490632Y-85571412D01*
X150214010Y-85685993D01*
X149965056Y-85852339D01*
X149753339Y-86064056D01*
X149586993Y-86313010D01*
X149472412Y-86589632D01*
X149414000Y-86883293D01*
X149414000Y-87182707D01*
X149472412Y-87476368D01*
X149586993Y-87752990D01*
X149753339Y-88001944D01*
X149965056Y-88213661D01*
X150214010Y-88380007D01*
X150490632Y-88494588D01*
X150784293Y-88553000D01*
X151083707Y-88553000D01*
X151330174Y-88503975D01*
X152061701Y-89235503D01*
X152085499Y-89264501D01*
X152201224Y-89359474D01*
X152333253Y-89430046D01*
X152476514Y-89473503D01*
X152588167Y-89484500D01*
X152588176Y-89484500D01*
X152625499Y-89488176D01*
X152662822Y-89484500D01*
X155655501Y-89484500D01*
X155655500Y-90653155D01*
X155548208Y-90741208D01*
X155438542Y-90874836D01*
X155357053Y-91027291D01*
X155306872Y-91192715D01*
X155289928Y-91364750D01*
X155289928Y-92277250D01*
X155306872Y-92449285D01*
X155357053Y-92614709D01*
X155438542Y-92767164D01*
X155548208Y-92900792D01*
X155681836Y-93010458D01*
X155834291Y-93091947D01*
X155999715Y-93142128D01*
X156083588Y-93150389D01*
X157715000Y-94781802D01*
X157715000Y-94843939D01*
X157754774Y-95043898D01*
X157832795Y-95232256D01*
X157916814Y-95358000D01*
X157759061Y-95358000D01*
X157559102Y-95397774D01*
X157370744Y-95475795D01*
X157201226Y-95589063D01*
X157057063Y-95733226D01*
X156943795Y-95902744D01*
X156865774Y-96091102D01*
X156826000Y-96291061D01*
X156826000Y-96494939D01*
X156865774Y-96694898D01*
X156943795Y-96883256D01*
X157057063Y-97052774D01*
X157094811Y-97090522D01*
X157098053Y-97101209D01*
X157179542Y-97253664D01*
X157289208Y-97387292D01*
X157374756Y-97457500D01*
X157289208Y-97527708D01*
X157179542Y-97661336D01*
X157098053Y-97813791D01*
X157047872Y-97979215D01*
X157030928Y-98151250D01*
X157030928Y-98638750D01*
X157047872Y-98810785D01*
X157083191Y-98927215D01*
X156947226Y-99018063D01*
X156803063Y-99162226D01*
X156689795Y-99331744D01*
X156611774Y-99520102D01*
X156572000Y-99720061D01*
X156572000Y-99923939D01*
X156611774Y-100123898D01*
X156689795Y-100312256D01*
X156803063Y-100481774D01*
X156947226Y-100625937D01*
X157030928Y-100681865D01*
X157030928Y-100779250D01*
X157047872Y-100951285D01*
X157098053Y-101116709D01*
X157179542Y-101269164D01*
X157289208Y-101402792D01*
X157374756Y-101473000D01*
X157289208Y-101543208D01*
X157201155Y-101650500D01*
X156141305Y-101650500D01*
X156129458Y-101628336D01*
X156019792Y-101494708D01*
X156013436Y-101489492D01*
X156091185Y-101425685D01*
X156170537Y-101328994D01*
X156229502Y-101218680D01*
X156265812Y-101098982D01*
X156278072Y-100974500D01*
X156275000Y-100772750D01*
X156116250Y-100614000D01*
X155067000Y-100614000D01*
X155067000Y-100634000D01*
X154813000Y-100634000D01*
X154813000Y-100614000D01*
X154793000Y-100614000D01*
X154793000Y-100360000D01*
X154813000Y-100360000D01*
X154813000Y-100340000D01*
X155067000Y-100340000D01*
X155067000Y-100360000D01*
X156116250Y-100360000D01*
X156275000Y-100201250D01*
X156278072Y-99999500D01*
X156265812Y-99875018D01*
X156229502Y-99755320D01*
X156170537Y-99645006D01*
X156091185Y-99548315D01*
X155994494Y-99468963D01*
X155913088Y-99425450D01*
X156013164Y-99371958D01*
X156146792Y-99262292D01*
X156256458Y-99128664D01*
X156337947Y-98976209D01*
X156388128Y-98810785D01*
X156405072Y-98638750D01*
X156405072Y-98151250D01*
X156388128Y-97979215D01*
X156337947Y-97813791D01*
X156256458Y-97661336D01*
X156146792Y-97527708D01*
X156061244Y-97457500D01*
X156146792Y-97387292D01*
X156256458Y-97253664D01*
X156337947Y-97101209D01*
X156388128Y-96935785D01*
X156405072Y-96763750D01*
X156405072Y-96276250D01*
X156388128Y-96104215D01*
X156337947Y-95938791D01*
X156256458Y-95786336D01*
X156146792Y-95652708D01*
X156106783Y-95619874D01*
X156111205Y-95613256D01*
X156189226Y-95424898D01*
X156229000Y-95224939D01*
X156229000Y-95021061D01*
X156189226Y-94821102D01*
X156111205Y-94632744D01*
X155997937Y-94463226D01*
X155853774Y-94319063D01*
X155684256Y-94205795D01*
X155495898Y-94127774D01*
X155295939Y-94088000D01*
X155092061Y-94088000D01*
X154892102Y-94127774D01*
X154703744Y-94205795D01*
X154534226Y-94319063D01*
X154397056Y-94456233D01*
X154371513Y-94196889D01*
X154286599Y-93916966D01*
X154148706Y-93658986D01*
X153963134Y-93432866D01*
X153737014Y-93247294D01*
X153682209Y-93218000D01*
X153737014Y-93188706D01*
X153963134Y-93003134D01*
X154148706Y-92777014D01*
X154286599Y-92519034D01*
X154371513Y-92239111D01*
X154400185Y-91948000D01*
X154371513Y-91656889D01*
X154286599Y-91376966D01*
X154148706Y-91118986D01*
X153963134Y-90892866D01*
X153737014Y-90707294D01*
X153479034Y-90569401D01*
X153199111Y-90484487D01*
X152980950Y-90463000D01*
X152835050Y-90463000D01*
X152616889Y-90484487D01*
X152336966Y-90569401D01*
X152078986Y-90707294D01*
X151852866Y-90892866D01*
X151667294Y-91118986D01*
X151529401Y-91376966D01*
X151444487Y-91656889D01*
X151415815Y-91948000D01*
X151444487Y-92239111D01*
X151529401Y-92519034D01*
X151667294Y-92777014D01*
X151852866Y-93003134D01*
X152078986Y-93188706D01*
X152133791Y-93218000D01*
X152078986Y-93247294D01*
X151852866Y-93432866D01*
X151667294Y-93658986D01*
X151529401Y-93916966D01*
X151444487Y-94196889D01*
X151415815Y-94488000D01*
X151444487Y-94779111D01*
X151529401Y-95059034D01*
X151667294Y-95317014D01*
X151852866Y-95543134D01*
X152078986Y-95728706D01*
X152133791Y-95758000D01*
X152078986Y-95787294D01*
X151852866Y-95972866D01*
X151667294Y-96198986D01*
X151529401Y-96456966D01*
X151444487Y-96736889D01*
X151415815Y-97028000D01*
X151444487Y-97319111D01*
X151529401Y-97599034D01*
X151667294Y-97857014D01*
X151852866Y-98083134D01*
X152078986Y-98268706D01*
X152133791Y-98298000D01*
X152078986Y-98327294D01*
X151852866Y-98512866D01*
X151667294Y-98738986D01*
X151529401Y-98996966D01*
X151444487Y-99276889D01*
X151415815Y-99568000D01*
X151444487Y-99859111D01*
X151529401Y-100139034D01*
X151667294Y-100397014D01*
X151852866Y-100623134D01*
X152078986Y-100808706D01*
X152336966Y-100946599D01*
X152529001Y-101004852D01*
X152529000Y-103309289D01*
X152485063Y-103353226D01*
X152371795Y-103522744D01*
X152293774Y-103711102D01*
X152254000Y-103911061D01*
X152254000Y-104114939D01*
X152293774Y-104314898D01*
X152371795Y-104503256D01*
X152378258Y-104512928D01*
X151877000Y-104512928D01*
X151752518Y-104525188D01*
X151632820Y-104561498D01*
X151522506Y-104620463D01*
X151425815Y-104699815D01*
X151346463Y-104796506D01*
X151287498Y-104906820D01*
X151251188Y-105026518D01*
X151238928Y-105151000D01*
X151238928Y-105801000D01*
X151251188Y-105925482D01*
X151287498Y-106045180D01*
X151346463Y-106155494D01*
X151425815Y-106252185D01*
X151522506Y-106331537D01*
X151632820Y-106390502D01*
X151749841Y-106426000D01*
X151632820Y-106461498D01*
X151522506Y-106520463D01*
X151425815Y-106599815D01*
X151346463Y-106696506D01*
X151287498Y-106806820D01*
X151251188Y-106926518D01*
X151238928Y-107051000D01*
X151242000Y-107090250D01*
X151400750Y-107249000D01*
X152360000Y-107249000D01*
X152360000Y-107229000D01*
X152614000Y-107229000D01*
X152614000Y-107249000D01*
X152634000Y-107249000D01*
X152634000Y-107503000D01*
X152614000Y-107503000D01*
X152614000Y-108177250D01*
X152772750Y-108336000D01*
X153097000Y-108339072D01*
X153221482Y-108326812D01*
X153341180Y-108290502D01*
X153451494Y-108231537D01*
X153548185Y-108152185D01*
X153627537Y-108055494D01*
X153686502Y-107945180D01*
X153698496Y-107905640D01*
X153706999Y-107916001D01*
X153822724Y-108010974D01*
X153954753Y-108081546D01*
X153998811Y-108094911D01*
X154045815Y-108152185D01*
X154142506Y-108231537D01*
X154252820Y-108290502D01*
X154372518Y-108326812D01*
X154497000Y-108339072D01*
X155717000Y-108339072D01*
X155841482Y-108326812D01*
X155961180Y-108290502D01*
X156071494Y-108231537D01*
X156168185Y-108152185D01*
X156181468Y-108136000D01*
X156257676Y-108136000D01*
X156294998Y-108139676D01*
X156332320Y-108136000D01*
X156332331Y-108136000D01*
X156443984Y-108125003D01*
X156587245Y-108081546D01*
X156719274Y-108010974D01*
X156834999Y-107916001D01*
X156858802Y-107886997D01*
X156967427Y-107778372D01*
X156977188Y-107877482D01*
X157013498Y-107997180D01*
X157072463Y-108107494D01*
X157151815Y-108204185D01*
X157248506Y-108283537D01*
X157358820Y-108342502D01*
X157478518Y-108378812D01*
X157603000Y-108391072D01*
X159053000Y-108391072D01*
X159177482Y-108378812D01*
X159297180Y-108342502D01*
X159388794Y-108293533D01*
X159405774Y-108378898D01*
X159483795Y-108567256D01*
X159597063Y-108736774D01*
X159741226Y-108880937D01*
X159910744Y-108994205D01*
X160099102Y-109072226D01*
X160274000Y-109107015D01*
X160274000Y-109195000D01*
X149892279Y-109195000D01*
X149544791Y-109160928D01*
X149241583Y-109069384D01*
X148961937Y-108920693D01*
X148716495Y-108720516D01*
X148514608Y-108476476D01*
X148363969Y-108197875D01*
X148270310Y-107895313D01*
X148249888Y-107701000D01*
X151238928Y-107701000D01*
X151251188Y-107825482D01*
X151287498Y-107945180D01*
X151346463Y-108055494D01*
X151425815Y-108152185D01*
X151522506Y-108231537D01*
X151632820Y-108290502D01*
X151752518Y-108326812D01*
X151877000Y-108339072D01*
X152201250Y-108336000D01*
X152360000Y-108177250D01*
X152360000Y-107503000D01*
X151400750Y-107503000D01*
X151242000Y-107661750D01*
X151238928Y-107701000D01*
X148249888Y-107701000D01*
X148234000Y-107549842D01*
X148234000Y-73565279D01*
X148251844Y-73383293D01*
X148314000Y-73383293D01*
X148314000Y-73682707D01*
X148372412Y-73976368D01*
X148486993Y-74252990D01*
X148653339Y-74501944D01*
X148865056Y-74713661D01*
X149114010Y-74880007D01*
X149390632Y-74994588D01*
X149684293Y-75053000D01*
X149983707Y-75053000D01*
X150277368Y-74994588D01*
X150553990Y-74880007D01*
X150802944Y-74713661D01*
X151014661Y-74501944D01*
X151181007Y-74252990D01*
X151295588Y-73976368D01*
X151354000Y-73682707D01*
X151354000Y-73383293D01*
X164114000Y-73383293D01*
X164114000Y-73682707D01*
X164172412Y-73976368D01*
X164286993Y-74252990D01*
X164453339Y-74501944D01*
X164665056Y-74713661D01*
X164914010Y-74880007D01*
X165190632Y-74994588D01*
X165484293Y-75053000D01*
X165783707Y-75053000D01*
X166077368Y-74994588D01*
X166353990Y-74880007D01*
X166602944Y-74713661D01*
X166814661Y-74501944D01*
X166981007Y-74252990D01*
X167095588Y-73976368D01*
X167154000Y-73682707D01*
X167154000Y-73383293D01*
X167095588Y-73089632D01*
X166981007Y-72813010D01*
X166814661Y-72564056D01*
X166602944Y-72352339D01*
X166353990Y-72185993D01*
X166077368Y-72071412D01*
X165783707Y-72013000D01*
X165484293Y-72013000D01*
X165190632Y-72071412D01*
X164914010Y-72185993D01*
X164665056Y-72352339D01*
X164453339Y-72564056D01*
X164286993Y-72813010D01*
X164172412Y-73089632D01*
X164114000Y-73383293D01*
X151354000Y-73383293D01*
X151295588Y-73089632D01*
X151181007Y-72813010D01*
X151014661Y-72564056D01*
X150802944Y-72352339D01*
X150553990Y-72185993D01*
X150277368Y-72071412D01*
X149983707Y-72013000D01*
X149684293Y-72013000D01*
X149390632Y-72071412D01*
X149114010Y-72185993D01*
X148865056Y-72352339D01*
X148653339Y-72564056D01*
X148486993Y-72813010D01*
X148372412Y-73089632D01*
X148314000Y-73383293D01*
X148251844Y-73383293D01*
X148268072Y-73217790D01*
X148359614Y-72914587D01*
X148508307Y-72634936D01*
X148708484Y-72389495D01*
X148952521Y-72187609D01*
X149231125Y-72036969D01*
X149533688Y-71943310D01*
X149879158Y-71907000D01*
X165575721Y-71907000D01*
X165923210Y-71941072D01*
X165923210Y-71941072D01*
G37*
X165923210Y-71941072D02*
X166226413Y-72032614D01*
X166506064Y-72181307D01*
X166751505Y-72381484D01*
X166953391Y-72625521D01*
X167104031Y-72904125D01*
X167197690Y-73206688D01*
X167234000Y-73552158D01*
X167234001Y-97790000D01*
X163944526Y-97790000D01*
X164046599Y-97599034D01*
X164131513Y-97319111D01*
X164160185Y-97028000D01*
X164131513Y-96736889D01*
X164046599Y-96456966D01*
X163908706Y-96198986D01*
X163723134Y-95972866D01*
X163497014Y-95787294D01*
X163442209Y-95758000D01*
X163497014Y-95728706D01*
X163723134Y-95543134D01*
X163908706Y-95317014D01*
X164046599Y-95059034D01*
X164131513Y-94779111D01*
X164160185Y-94488000D01*
X164131513Y-94196889D01*
X164046599Y-93916966D01*
X163908706Y-93658986D01*
X163723134Y-93432866D01*
X163497014Y-93247294D01*
X163442209Y-93218000D01*
X163497014Y-93188706D01*
X163723134Y-93003134D01*
X163908706Y-92777014D01*
X164046599Y-92519034D01*
X164131513Y-92239111D01*
X164160185Y-91948000D01*
X164131513Y-91656889D01*
X164046599Y-91376966D01*
X163908706Y-91118986D01*
X163723134Y-90892866D01*
X163497014Y-90707294D01*
X163239034Y-90569401D01*
X162959111Y-90484487D01*
X162740950Y-90463000D01*
X162595050Y-90463000D01*
X162376889Y-90484487D01*
X162096966Y-90569401D01*
X161838986Y-90707294D01*
X161612866Y-90892866D01*
X161427294Y-91118986D01*
X161289401Y-91376966D01*
X161204487Y-91656889D01*
X161175815Y-91948000D01*
X161204487Y-92239111D01*
X161289401Y-92519034D01*
X161427294Y-92777014D01*
X161612866Y-93003134D01*
X161838986Y-93188706D01*
X161893791Y-93218000D01*
X161838986Y-93247294D01*
X161612866Y-93432866D01*
X161427294Y-93658986D01*
X161289401Y-93916966D01*
X161204487Y-94196889D01*
X161175815Y-94488000D01*
X161204487Y-94779111D01*
X161289401Y-95059034D01*
X161427294Y-95317014D01*
X161612866Y-95543134D01*
X161838986Y-95728706D01*
X161893791Y-95758000D01*
X161838986Y-95787294D01*
X161612866Y-95972866D01*
X161427294Y-96198986D01*
X161289401Y-96456966D01*
X161204487Y-96736889D01*
X161175815Y-97028000D01*
X161204487Y-97319111D01*
X161289401Y-97599034D01*
X161392751Y-97792388D01*
X161293118Y-97802201D01*
X161173996Y-97838336D01*
X161064213Y-97897017D01*
X160967987Y-97975987D01*
X160889017Y-98072213D01*
X160830336Y-98181996D01*
X160794201Y-98301118D01*
X160782000Y-98425000D01*
X160782000Y-100711000D01*
X160794201Y-100834882D01*
X160830336Y-100954004D01*
X160889017Y-101063787D01*
X160967987Y-101160013D01*
X161036000Y-101215829D01*
X161036000Y-102923539D01*
X161011953Y-102933500D01*
X160909000Y-102933500D01*
X160785118Y-102945701D01*
X160665996Y-102981836D01*
X160556213Y-103040517D01*
X160459987Y-103119487D01*
X160381017Y-103215713D01*
X160322336Y-103325496D01*
X160286201Y-103444618D01*
X160274000Y-103568500D01*
X160274000Y-104029397D01*
X160154010Y-103949222D01*
X160154010Y-100044832D01*
X160157686Y-100007509D01*
X160154010Y-99970186D01*
X160154010Y-99970177D01*
X160143013Y-99858524D01*
X160099556Y-99715263D01*
X160074404Y-99668208D01*
X160028984Y-99583233D01*
X159957809Y-99496507D01*
X159934011Y-99467509D01*
X159905014Y-99443712D01*
X159569433Y-99108131D01*
X159639947Y-98976209D01*
X159690128Y-98810785D01*
X159707072Y-98638750D01*
X159707072Y-98151250D01*
X159705322Y-98133480D01*
X160531004Y-97307798D01*
X160560001Y-97284001D01*
X160654974Y-97168276D01*
X160725546Y-97036247D01*
X160769003Y-96892986D01*
X160780000Y-96781333D01*
X160780000Y-96781332D01*
X160783677Y-96744000D01*
X160780000Y-96706667D01*
X160780000Y-93587822D01*
X160783676Y-93550499D01*
X160780000Y-93513176D01*
X160780000Y-93513167D01*
X160769003Y-93401514D01*
X160725546Y-93258253D01*
X160654974Y-93126224D01*
X160619323Y-93082783D01*
X160583799Y-93039496D01*
X160583795Y-93039492D01*
X160560001Y-93010499D01*
X160531008Y-92986705D01*
X159416072Y-91871771D01*
X159416072Y-91770229D01*
X163285655Y-87900647D01*
X163353339Y-88001944D01*
X163565056Y-88213661D01*
X163814010Y-88380007D01*
X164090632Y-88494588D01*
X164384293Y-88553000D01*
X164683707Y-88553000D01*
X164977368Y-88494588D01*
X165253990Y-88380007D01*
X165502944Y-88213661D01*
X165714661Y-88001944D01*
X165881007Y-87752990D01*
X165995588Y-87476368D01*
X166054000Y-87182707D01*
X166054000Y-86883293D01*
X165995588Y-86589632D01*
X165881007Y-86313010D01*
X165714661Y-86064056D01*
X165502944Y-85852339D01*
X165253990Y-85685993D01*
X164977368Y-85571412D01*
X164683707Y-85513000D01*
X164384293Y-85513000D01*
X164090632Y-85571412D01*
X163814010Y-85685993D01*
X163565056Y-85852339D01*
X163353339Y-86064056D01*
X163213727Y-86273000D01*
X163115833Y-86273000D01*
X163078500Y-86269323D01*
X163041167Y-86273000D01*
X162929514Y-86283997D01*
X162786253Y-86327454D01*
X162654224Y-86398026D01*
X162538499Y-86492999D01*
X162514701Y-86521997D01*
X158552021Y-90484678D01*
X158534250Y-90482928D01*
X158046750Y-90482928D01*
X157874715Y-90499872D01*
X157709291Y-90550053D01*
X157556836Y-90631542D01*
X157423208Y-90741208D01*
X157353000Y-90826756D01*
X157282792Y-90741208D01*
X157175500Y-90653155D01*
X157175500Y-88761833D01*
X157179177Y-88724500D01*
X157164503Y-88575514D01*
X157121046Y-88432253D01*
X157050474Y-88300224D01*
X156955501Y-88184499D01*
X156839776Y-88089526D01*
X156707747Y-88018954D01*
X156564486Y-87975497D01*
X156452833Y-87964500D01*
X156415500Y-87960823D01*
X156378167Y-87964500D01*
X152940302Y-87964500D01*
X152404975Y-87429174D01*
X152454000Y-87182707D01*
X152454000Y-86883293D01*
X152395588Y-86589632D01*
X152281007Y-86313010D01*
X152114661Y-86064056D01*
X151902944Y-85852339D01*
X151653990Y-85685993D01*
X151377368Y-85571412D01*
X151083707Y-85513000D01*
X150784293Y-85513000D01*
X150490632Y-85571412D01*
X150214010Y-85685993D01*
X149965056Y-85852339D01*
X149753339Y-86064056D01*
X149586993Y-86313010D01*
X149472412Y-86589632D01*
X149414000Y-86883293D01*
X149414000Y-87182707D01*
X149472412Y-87476368D01*
X149586993Y-87752990D01*
X149753339Y-88001944D01*
X149965056Y-88213661D01*
X150214010Y-88380007D01*
X150490632Y-88494588D01*
X150784293Y-88553000D01*
X151083707Y-88553000D01*
X151330174Y-88503975D01*
X152061701Y-89235503D01*
X152085499Y-89264501D01*
X152201224Y-89359474D01*
X152333253Y-89430046D01*
X152476514Y-89473503D01*
X152588167Y-89484500D01*
X152588176Y-89484500D01*
X152625499Y-89488176D01*
X152662822Y-89484500D01*
X155655501Y-89484500D01*
X155655500Y-90653155D01*
X155548208Y-90741208D01*
X155438542Y-90874836D01*
X155357053Y-91027291D01*
X155306872Y-91192715D01*
X155289928Y-91364750D01*
X155289928Y-92277250D01*
X155306872Y-92449285D01*
X155357053Y-92614709D01*
X155438542Y-92767164D01*
X155548208Y-92900792D01*
X155681836Y-93010458D01*
X155834291Y-93091947D01*
X155999715Y-93142128D01*
X156083588Y-93150389D01*
X157715000Y-94781802D01*
X157715000Y-94843939D01*
X157754774Y-95043898D01*
X157832795Y-95232256D01*
X157916814Y-95358000D01*
X157759061Y-95358000D01*
X157559102Y-95397774D01*
X157370744Y-95475795D01*
X157201226Y-95589063D01*
X157057063Y-95733226D01*
X156943795Y-95902744D01*
X156865774Y-96091102D01*
X156826000Y-96291061D01*
X156826000Y-96494939D01*
X156865774Y-96694898D01*
X156943795Y-96883256D01*
X157057063Y-97052774D01*
X157094811Y-97090522D01*
X157098053Y-97101209D01*
X157179542Y-97253664D01*
X157289208Y-97387292D01*
X157374756Y-97457500D01*
X157289208Y-97527708D01*
X157179542Y-97661336D01*
X157098053Y-97813791D01*
X157047872Y-97979215D01*
X157030928Y-98151250D01*
X157030928Y-98638750D01*
X157047872Y-98810785D01*
X157083191Y-98927215D01*
X156947226Y-99018063D01*
X156803063Y-99162226D01*
X156689795Y-99331744D01*
X156611774Y-99520102D01*
X156572000Y-99720061D01*
X156572000Y-99923939D01*
X156611774Y-100123898D01*
X156689795Y-100312256D01*
X156803063Y-100481774D01*
X156947226Y-100625937D01*
X157030928Y-100681865D01*
X157030928Y-100779250D01*
X157047872Y-100951285D01*
X157098053Y-101116709D01*
X157179542Y-101269164D01*
X157289208Y-101402792D01*
X157374756Y-101473000D01*
X157289208Y-101543208D01*
X157201155Y-101650500D01*
X156141305Y-101650500D01*
X156129458Y-101628336D01*
X156019792Y-101494708D01*
X156013436Y-101489492D01*
X156091185Y-101425685D01*
X156170537Y-101328994D01*
X156229502Y-101218680D01*
X156265812Y-101098982D01*
X156278072Y-100974500D01*
X156275000Y-100772750D01*
X156116250Y-100614000D01*
X155067000Y-100614000D01*
X155067000Y-100634000D01*
X154813000Y-100634000D01*
X154813000Y-100614000D01*
X154793000Y-100614000D01*
X154793000Y-100360000D01*
X154813000Y-100360000D01*
X154813000Y-100340000D01*
X155067000Y-100340000D01*
X155067000Y-100360000D01*
X156116250Y-100360000D01*
X156275000Y-100201250D01*
X156278072Y-99999500D01*
X156265812Y-99875018D01*
X156229502Y-99755320D01*
X156170537Y-99645006D01*
X156091185Y-99548315D01*
X155994494Y-99468963D01*
X155913088Y-99425450D01*
X156013164Y-99371958D01*
X156146792Y-99262292D01*
X156256458Y-99128664D01*
X156337947Y-98976209D01*
X156388128Y-98810785D01*
X156405072Y-98638750D01*
X156405072Y-98151250D01*
X156388128Y-97979215D01*
X156337947Y-97813791D01*
X156256458Y-97661336D01*
X156146792Y-97527708D01*
X156061244Y-97457500D01*
X156146792Y-97387292D01*
X156256458Y-97253664D01*
X156337947Y-97101209D01*
X156388128Y-96935785D01*
X156405072Y-96763750D01*
X156405072Y-96276250D01*
X156388128Y-96104215D01*
X156337947Y-95938791D01*
X156256458Y-95786336D01*
X156146792Y-95652708D01*
X156106783Y-95619874D01*
X156111205Y-95613256D01*
X156189226Y-95424898D01*
X156229000Y-95224939D01*
X156229000Y-95021061D01*
X156189226Y-94821102D01*
X156111205Y-94632744D01*
X155997937Y-94463226D01*
X155853774Y-94319063D01*
X155684256Y-94205795D01*
X155495898Y-94127774D01*
X155295939Y-94088000D01*
X155092061Y-94088000D01*
X154892102Y-94127774D01*
X154703744Y-94205795D01*
X154534226Y-94319063D01*
X154397056Y-94456233D01*
X154371513Y-94196889D01*
X154286599Y-93916966D01*
X154148706Y-93658986D01*
X153963134Y-93432866D01*
X153737014Y-93247294D01*
X153682209Y-93218000D01*
X153737014Y-93188706D01*
X153963134Y-93003134D01*
X154148706Y-92777014D01*
X154286599Y-92519034D01*
X154371513Y-92239111D01*
X154400185Y-91948000D01*
X154371513Y-91656889D01*
X154286599Y-91376966D01*
X154148706Y-91118986D01*
X153963134Y-90892866D01*
X153737014Y-90707294D01*
X153479034Y-90569401D01*
X153199111Y-90484487D01*
X152980950Y-90463000D01*
X152835050Y-90463000D01*
X152616889Y-90484487D01*
X152336966Y-90569401D01*
X152078986Y-90707294D01*
X151852866Y-90892866D01*
X151667294Y-91118986D01*
X151529401Y-91376966D01*
X151444487Y-91656889D01*
X151415815Y-91948000D01*
X151444487Y-92239111D01*
X151529401Y-92519034D01*
X151667294Y-92777014D01*
X151852866Y-93003134D01*
X152078986Y-93188706D01*
X152133791Y-93218000D01*
X152078986Y-93247294D01*
X151852866Y-93432866D01*
X151667294Y-93658986D01*
X151529401Y-93916966D01*
X151444487Y-94196889D01*
X151415815Y-94488000D01*
X151444487Y-94779111D01*
X151529401Y-95059034D01*
X151667294Y-95317014D01*
X151852866Y-95543134D01*
X152078986Y-95728706D01*
X152133791Y-95758000D01*
X152078986Y-95787294D01*
X151852866Y-95972866D01*
X151667294Y-96198986D01*
X151529401Y-96456966D01*
X151444487Y-96736889D01*
X151415815Y-97028000D01*
X151444487Y-97319111D01*
X151529401Y-97599034D01*
X151667294Y-97857014D01*
X151852866Y-98083134D01*
X152078986Y-98268706D01*
X152133791Y-98298000D01*
X152078986Y-98327294D01*
X151852866Y-98512866D01*
X151667294Y-98738986D01*
X151529401Y-98996966D01*
X151444487Y-99276889D01*
X151415815Y-99568000D01*
X151444487Y-99859111D01*
X151529401Y-100139034D01*
X151667294Y-100397014D01*
X151852866Y-100623134D01*
X152078986Y-100808706D01*
X152336966Y-100946599D01*
X152529001Y-101004852D01*
X152529000Y-103309289D01*
X152485063Y-103353226D01*
X152371795Y-103522744D01*
X152293774Y-103711102D01*
X152254000Y-103911061D01*
X152254000Y-104114939D01*
X152293774Y-104314898D01*
X152371795Y-104503256D01*
X152378258Y-104512928D01*
X151877000Y-104512928D01*
X151752518Y-104525188D01*
X151632820Y-104561498D01*
X151522506Y-104620463D01*
X151425815Y-104699815D01*
X151346463Y-104796506D01*
X151287498Y-104906820D01*
X151251188Y-105026518D01*
X151238928Y-105151000D01*
X151238928Y-105801000D01*
X151251188Y-105925482D01*
X151287498Y-106045180D01*
X151346463Y-106155494D01*
X151425815Y-106252185D01*
X151522506Y-106331537D01*
X151632820Y-106390502D01*
X151749841Y-106426000D01*
X151632820Y-106461498D01*
X151522506Y-106520463D01*
X151425815Y-106599815D01*
X151346463Y-106696506D01*
X151287498Y-106806820D01*
X151251188Y-106926518D01*
X151238928Y-107051000D01*
X151242000Y-107090250D01*
X151400750Y-107249000D01*
X152360000Y-107249000D01*
X152360000Y-107229000D01*
X152614000Y-107229000D01*
X152614000Y-107249000D01*
X152634000Y-107249000D01*
X152634000Y-107503000D01*
X152614000Y-107503000D01*
X152614000Y-108177250D01*
X152772750Y-108336000D01*
X153097000Y-108339072D01*
X153221482Y-108326812D01*
X153341180Y-108290502D01*
X153451494Y-108231537D01*
X153548185Y-108152185D01*
X153627537Y-108055494D01*
X153686502Y-107945180D01*
X153698496Y-107905640D01*
X153706999Y-107916001D01*
X153822724Y-108010974D01*
X153954753Y-108081546D01*
X153998811Y-108094911D01*
X154045815Y-108152185D01*
X154142506Y-108231537D01*
X154252820Y-108290502D01*
X154372518Y-108326812D01*
X154497000Y-108339072D01*
X155717000Y-108339072D01*
X155841482Y-108326812D01*
X155961180Y-108290502D01*
X156071494Y-108231537D01*
X156168185Y-108152185D01*
X156181468Y-108136000D01*
X156257676Y-108136000D01*
X156294998Y-108139676D01*
X156332320Y-108136000D01*
X156332331Y-108136000D01*
X156443984Y-108125003D01*
X156587245Y-108081546D01*
X156719274Y-108010974D01*
X156834999Y-107916001D01*
X156858802Y-107886997D01*
X156967427Y-107778372D01*
X156977188Y-107877482D01*
X157013498Y-107997180D01*
X157072463Y-108107494D01*
X157151815Y-108204185D01*
X157248506Y-108283537D01*
X157358820Y-108342502D01*
X157478518Y-108378812D01*
X157603000Y-108391072D01*
X159053000Y-108391072D01*
X159177482Y-108378812D01*
X159297180Y-108342502D01*
X159388794Y-108293533D01*
X159405774Y-108378898D01*
X159483795Y-108567256D01*
X159597063Y-108736774D01*
X159741226Y-108880937D01*
X159910744Y-108994205D01*
X160099102Y-109072226D01*
X160274000Y-109107015D01*
X160274000Y-109195000D01*
X149892279Y-109195000D01*
X149544791Y-109160928D01*
X149241583Y-109069384D01*
X148961937Y-108920693D01*
X148716495Y-108720516D01*
X148514608Y-108476476D01*
X148363969Y-108197875D01*
X148270310Y-107895313D01*
X148249888Y-107701000D01*
X151238928Y-107701000D01*
X151251188Y-107825482D01*
X151287498Y-107945180D01*
X151346463Y-108055494D01*
X151425815Y-108152185D01*
X151522506Y-108231537D01*
X151632820Y-108290502D01*
X151752518Y-108326812D01*
X151877000Y-108339072D01*
X152201250Y-108336000D01*
X152360000Y-108177250D01*
X152360000Y-107503000D01*
X151400750Y-107503000D01*
X151242000Y-107661750D01*
X151238928Y-107701000D01*
X148249888Y-107701000D01*
X148234000Y-107549842D01*
X148234000Y-73565279D01*
X148251844Y-73383293D01*
X148314000Y-73383293D01*
X148314000Y-73682707D01*
X148372412Y-73976368D01*
X148486993Y-74252990D01*
X148653339Y-74501944D01*
X148865056Y-74713661D01*
X149114010Y-74880007D01*
X149390632Y-74994588D01*
X149684293Y-75053000D01*
X149983707Y-75053000D01*
X150277368Y-74994588D01*
X150553990Y-74880007D01*
X150802944Y-74713661D01*
X151014661Y-74501944D01*
X151181007Y-74252990D01*
X151295588Y-73976368D01*
X151354000Y-73682707D01*
X151354000Y-73383293D01*
X164114000Y-73383293D01*
X164114000Y-73682707D01*
X164172412Y-73976368D01*
X164286993Y-74252990D01*
X164453339Y-74501944D01*
X164665056Y-74713661D01*
X164914010Y-74880007D01*
X165190632Y-74994588D01*
X165484293Y-75053000D01*
X165783707Y-75053000D01*
X166077368Y-74994588D01*
X166353990Y-74880007D01*
X166602944Y-74713661D01*
X166814661Y-74501944D01*
X166981007Y-74252990D01*
X167095588Y-73976368D01*
X167154000Y-73682707D01*
X167154000Y-73383293D01*
X167095588Y-73089632D01*
X166981007Y-72813010D01*
X166814661Y-72564056D01*
X166602944Y-72352339D01*
X166353990Y-72185993D01*
X166077368Y-72071412D01*
X165783707Y-72013000D01*
X165484293Y-72013000D01*
X165190632Y-72071412D01*
X164914010Y-72185993D01*
X164665056Y-72352339D01*
X164453339Y-72564056D01*
X164286993Y-72813010D01*
X164172412Y-73089632D01*
X164114000Y-73383293D01*
X151354000Y-73383293D01*
X151295588Y-73089632D01*
X151181007Y-72813010D01*
X151014661Y-72564056D01*
X150802944Y-72352339D01*
X150553990Y-72185993D01*
X150277368Y-72071412D01*
X149983707Y-72013000D01*
X149684293Y-72013000D01*
X149390632Y-72071412D01*
X149114010Y-72185993D01*
X148865056Y-72352339D01*
X148653339Y-72564056D01*
X148486993Y-72813010D01*
X148372412Y-73089632D01*
X148314000Y-73383293D01*
X148251844Y-73383293D01*
X148268072Y-73217790D01*
X148359614Y-72914587D01*
X148508307Y-72634936D01*
X148708484Y-72389495D01*
X148952521Y-72187609D01*
X149231125Y-72036969D01*
X149533688Y-71943310D01*
X149879158Y-71907000D01*
X165575721Y-71907000D01*
X165923210Y-71941072D01*
M02*
