M48
; DRILL file {KiCad (5.1.0)-1} date 4/10/2019 1:59:21 PM
; FORMAT={-:-/ absolute / metric / decimal}
; #@! TF.CreationDate,2019-04-10T13:59:21-04:00
; #@! TF.GenerationSoftware,Kicad,Pcbnew,(5.1.0)-1
; #@! TF.FileFunction,Plated,1,2,PTH
FMAT,2
METRIC
T1C0.400
T2C1.000
T3C1.770
%
G90
G05
T1
X153.289Y-104.013
X155.067Y-98.679
X155.194Y-95.123
X156.464Y-105.791
X157.607Y-99.822
X157.861Y-96.393
X158.75Y-94.742
X159.619Y-104.837
X160.401Y-108.077
X161.417Y-103.886
X164.719Y-101.6
T2
X152.908Y-91.948
X152.908Y-94.488
X152.908Y-97.028
X152.908Y-99.568
X162.668Y-91.948
X162.668Y-94.488
X162.668Y-97.028
X162.668Y-99.568
X162.668Y-102.108
T3
X149.834Y-73.533
X150.934Y-87.033
X164.534Y-87.033
X165.634Y-73.533
T0
M30
