G04 #@! TF.GenerationSoftware,KiCad,Pcbnew,(5.1.0)-1*
G04 #@! TF.CreationDate,2019-04-10T14:00:02-04:00*
G04 #@! TF.ProjectId,thermocouple_daughter,74686572-6d6f-4636-9f75-706c655f6461,rev?*
G04 #@! TF.SameCoordinates,Original*
G04 #@! TF.FileFunction,Copper,L2,Bot*
G04 #@! TF.FilePolarity,Positive*
%FSLAX46Y46*%
G04 Gerber Fmt 4.6, Leading zero omitted, Abs format (unit mm)*
G04 Created by KiCad (PCBNEW (5.1.0)-1) date 2019-04-10 14:00:02*
%MOMM*%
%LPD*%
G04 APERTURE LIST*
%ADD10C,3.000000*%
%ADD11C,2.500000*%
%ADD12O,1.700000X1.700000*%
%ADD13C,0.800000*%
%ADD14C,0.250000*%
%ADD15C,0.254000*%
G04 APERTURE END LIST*
D10*
X164534000Y-87033000D03*
X150934000Y-87033000D03*
D11*
X165634000Y-73533000D03*
X149834000Y-73533000D03*
D12*
X162668000Y-102108000D03*
X152908000Y-99568000D03*
X162668000Y-99568000D03*
X152908000Y-97028000D03*
X162668000Y-97028000D03*
X152908000Y-94488000D03*
X162668000Y-94488000D03*
X152908000Y-91948000D03*
X162668000Y-91948000D03*
D13*
X158750000Y-94742000D03*
X161417000Y-103886000D03*
X155067000Y-98679000D03*
X157861000Y-96393000D03*
X155194000Y-95123000D03*
X156464000Y-105791000D03*
X160401000Y-108077000D03*
X164719000Y-101600000D03*
X157607000Y-99822000D03*
X159619469Y-104836837D03*
X153289000Y-104013000D03*
D14*
X158750000Y-101219000D02*
X158750000Y-94742000D01*
X161417000Y-103886000D02*
X158750000Y-101219000D01*
X159619469Y-104836837D02*
X158795632Y-104013000D01*
X158795632Y-104013000D02*
X153289000Y-104013000D01*
D15*
G36*
X164432382Y-72068825D02*
G01*
X164169825Y-72331382D01*
X163963534Y-72640118D01*
X163821439Y-72983166D01*
X163749000Y-73347344D01*
X163749000Y-73718656D01*
X163821439Y-74082834D01*
X163963534Y-74425882D01*
X164169825Y-74734618D01*
X164432382Y-74997175D01*
X164741118Y-75203466D01*
X165084166Y-75345561D01*
X165448344Y-75418000D01*
X165819656Y-75418000D01*
X166183834Y-75345561D01*
X166526882Y-75203466D01*
X166835618Y-74997175D01*
X167098175Y-74734618D01*
X167234000Y-74531342D01*
X167234001Y-107536711D01*
X167199928Y-107884209D01*
X167108384Y-108187417D01*
X166959693Y-108467063D01*
X166759516Y-108712505D01*
X166515476Y-108914392D01*
X166236875Y-109065031D01*
X165934313Y-109158690D01*
X165588842Y-109195000D01*
X149892279Y-109195000D01*
X149544791Y-109160928D01*
X149241583Y-109069384D01*
X148961937Y-108920693D01*
X148716495Y-108720516D01*
X148514608Y-108476476D01*
X148363969Y-108197875D01*
X148270310Y-107895313D01*
X148234000Y-107549842D01*
X148234000Y-103911061D01*
X152254000Y-103911061D01*
X152254000Y-104114939D01*
X152293774Y-104314898D01*
X152371795Y-104503256D01*
X152485063Y-104672774D01*
X152629226Y-104816937D01*
X152798744Y-104930205D01*
X152987102Y-105008226D01*
X153187061Y-105048000D01*
X153390939Y-105048000D01*
X153590898Y-105008226D01*
X153779256Y-104930205D01*
X153948774Y-104816937D01*
X153992711Y-104773000D01*
X158480830Y-104773000D01*
X158584469Y-104876639D01*
X158584469Y-104938776D01*
X158624243Y-105138735D01*
X158702264Y-105327093D01*
X158815532Y-105496611D01*
X158959695Y-105640774D01*
X159129213Y-105754042D01*
X159317571Y-105832063D01*
X159517530Y-105871837D01*
X159721408Y-105871837D01*
X159921367Y-105832063D01*
X160109725Y-105754042D01*
X160279243Y-105640774D01*
X160423406Y-105496611D01*
X160536674Y-105327093D01*
X160614695Y-105138735D01*
X160654469Y-104938776D01*
X160654469Y-104734898D01*
X160617791Y-104550502D01*
X160757226Y-104689937D01*
X160926744Y-104803205D01*
X161115102Y-104881226D01*
X161315061Y-104921000D01*
X161518939Y-104921000D01*
X161718898Y-104881226D01*
X161907256Y-104803205D01*
X162076774Y-104689937D01*
X162220937Y-104545774D01*
X162334205Y-104376256D01*
X162412226Y-104187898D01*
X162452000Y-103987939D01*
X162452000Y-103784061D01*
X162412226Y-103584102D01*
X162408293Y-103574606D01*
X162595050Y-103593000D01*
X162740950Y-103593000D01*
X162959111Y-103571513D01*
X163239034Y-103486599D01*
X163497014Y-103348706D01*
X163723134Y-103163134D01*
X163908706Y-102937014D01*
X164046599Y-102679034D01*
X164131513Y-102399111D01*
X164160185Y-102108000D01*
X164131513Y-101816889D01*
X164046599Y-101536966D01*
X163908706Y-101278986D01*
X163723134Y-101052866D01*
X163497014Y-100867294D01*
X163442209Y-100838000D01*
X163497014Y-100808706D01*
X163723134Y-100623134D01*
X163908706Y-100397014D01*
X164046599Y-100139034D01*
X164131513Y-99859111D01*
X164160185Y-99568000D01*
X164131513Y-99276889D01*
X164046599Y-98996966D01*
X163908706Y-98738986D01*
X163723134Y-98512866D01*
X163497014Y-98327294D01*
X163432477Y-98292799D01*
X163549355Y-98223178D01*
X163765588Y-98028269D01*
X163939641Y-97794920D01*
X164064825Y-97532099D01*
X164109476Y-97384890D01*
X163988155Y-97155000D01*
X162795000Y-97155000D01*
X162795000Y-97175000D01*
X162541000Y-97175000D01*
X162541000Y-97155000D01*
X161347845Y-97155000D01*
X161226524Y-97384890D01*
X161271175Y-97532099D01*
X161396359Y-97794920D01*
X161570412Y-98028269D01*
X161786645Y-98223178D01*
X161903523Y-98292799D01*
X161838986Y-98327294D01*
X161612866Y-98512866D01*
X161427294Y-98738986D01*
X161289401Y-98996966D01*
X161204487Y-99276889D01*
X161175815Y-99568000D01*
X161204487Y-99859111D01*
X161289401Y-100139034D01*
X161427294Y-100397014D01*
X161612866Y-100623134D01*
X161838986Y-100808706D01*
X161893791Y-100838000D01*
X161838986Y-100867294D01*
X161612866Y-101052866D01*
X161427294Y-101278986D01*
X161289401Y-101536966D01*
X161204487Y-101816889D01*
X161175815Y-102108000D01*
X161204487Y-102399111D01*
X161289401Y-102679034D01*
X161294643Y-102688841D01*
X159510000Y-100904199D01*
X159510000Y-95445711D01*
X159553937Y-95401774D01*
X159667205Y-95232256D01*
X159745226Y-95043898D01*
X159785000Y-94843939D01*
X159785000Y-94640061D01*
X159745226Y-94440102D01*
X159667205Y-94251744D01*
X159553937Y-94082226D01*
X159409774Y-93938063D01*
X159240256Y-93824795D01*
X159051898Y-93746774D01*
X158851939Y-93707000D01*
X158648061Y-93707000D01*
X158448102Y-93746774D01*
X158259744Y-93824795D01*
X158090226Y-93938063D01*
X157946063Y-94082226D01*
X157832795Y-94251744D01*
X157754774Y-94440102D01*
X157715000Y-94640061D01*
X157715000Y-94843939D01*
X157754774Y-95043898D01*
X157832795Y-95232256D01*
X157946063Y-95401774D01*
X157990001Y-95445712D01*
X157990000Y-101181677D01*
X157986324Y-101219000D01*
X157990000Y-101256322D01*
X157990000Y-101256332D01*
X158000997Y-101367985D01*
X158044454Y-101511246D01*
X158115026Y-101643276D01*
X158154871Y-101691826D01*
X158209999Y-101759001D01*
X158239003Y-101782804D01*
X160382000Y-103925802D01*
X160382000Y-103987939D01*
X160418678Y-104172335D01*
X160279243Y-104032900D01*
X160109725Y-103919632D01*
X159921367Y-103841611D01*
X159721408Y-103801837D01*
X159659271Y-103801837D01*
X159359435Y-103502002D01*
X159335633Y-103472999D01*
X159219908Y-103378026D01*
X159087879Y-103307454D01*
X158944618Y-103263997D01*
X158832965Y-103253000D01*
X158832954Y-103253000D01*
X158795632Y-103249324D01*
X158758310Y-103253000D01*
X153992711Y-103253000D01*
X153948774Y-103209063D01*
X153779256Y-103095795D01*
X153590898Y-103017774D01*
X153390939Y-102978000D01*
X153187061Y-102978000D01*
X152987102Y-103017774D01*
X152798744Y-103095795D01*
X152629226Y-103209063D01*
X152485063Y-103353226D01*
X152371795Y-103522744D01*
X152293774Y-103711102D01*
X152254000Y-103911061D01*
X148234000Y-103911061D01*
X148234000Y-99568000D01*
X151415815Y-99568000D01*
X151444487Y-99859111D01*
X151529401Y-100139034D01*
X151667294Y-100397014D01*
X151852866Y-100623134D01*
X152078986Y-100808706D01*
X152336966Y-100946599D01*
X152616889Y-101031513D01*
X152835050Y-101053000D01*
X152980950Y-101053000D01*
X153199111Y-101031513D01*
X153479034Y-100946599D01*
X153737014Y-100808706D01*
X153963134Y-100623134D01*
X154148706Y-100397014D01*
X154286599Y-100139034D01*
X154371513Y-99859111D01*
X154400185Y-99568000D01*
X154371513Y-99276889D01*
X154286599Y-98996966D01*
X154148706Y-98738986D01*
X153963134Y-98512866D01*
X153737014Y-98327294D01*
X153672477Y-98292799D01*
X153789355Y-98223178D01*
X154005588Y-98028269D01*
X154179641Y-97794920D01*
X154304825Y-97532099D01*
X154349476Y-97384890D01*
X154228155Y-97155000D01*
X153035000Y-97155000D01*
X153035000Y-97175000D01*
X152781000Y-97175000D01*
X152781000Y-97155000D01*
X151587845Y-97155000D01*
X151466524Y-97384890D01*
X151511175Y-97532099D01*
X151636359Y-97794920D01*
X151810412Y-98028269D01*
X152026645Y-98223178D01*
X152143523Y-98292799D01*
X152078986Y-98327294D01*
X151852866Y-98512866D01*
X151667294Y-98738986D01*
X151529401Y-98996966D01*
X151444487Y-99276889D01*
X151415815Y-99568000D01*
X148234000Y-99568000D01*
X148234000Y-94844890D01*
X151466524Y-94844890D01*
X151511175Y-94992099D01*
X151636359Y-95254920D01*
X151810412Y-95488269D01*
X152026645Y-95683178D01*
X152152255Y-95758000D01*
X152026645Y-95832822D01*
X151810412Y-96027731D01*
X151636359Y-96261080D01*
X151511175Y-96523901D01*
X151466524Y-96671110D01*
X151587845Y-96901000D01*
X152781000Y-96901000D01*
X152781000Y-94615000D01*
X153035000Y-94615000D01*
X153035000Y-96901000D01*
X154228155Y-96901000D01*
X154349476Y-96671110D01*
X154304825Y-96523901D01*
X154179641Y-96261080D01*
X154005588Y-96027731D01*
X153789355Y-95832822D01*
X153663745Y-95758000D01*
X153789355Y-95683178D01*
X154005588Y-95488269D01*
X154179641Y-95254920D01*
X154304825Y-94992099D01*
X154349476Y-94844890D01*
X154228155Y-94615000D01*
X153035000Y-94615000D01*
X152781000Y-94615000D01*
X151587845Y-94615000D01*
X151466524Y-94844890D01*
X148234000Y-94844890D01*
X148234000Y-91820998D01*
X151423000Y-91820998D01*
X151423000Y-92075002D01*
X151587844Y-92075002D01*
X151466524Y-92304890D01*
X151511175Y-92452099D01*
X151636359Y-92714920D01*
X151810412Y-92948269D01*
X152026645Y-93143178D01*
X152152255Y-93218000D01*
X152026645Y-93292822D01*
X151810412Y-93487731D01*
X151636359Y-93721080D01*
X151511175Y-93983901D01*
X151466524Y-94131110D01*
X151587845Y-94361000D01*
X152781000Y-94361000D01*
X152781000Y-92075000D01*
X152761000Y-92075000D01*
X152761000Y-91821000D01*
X152781000Y-91821000D01*
X152781000Y-90627186D01*
X153035000Y-90627186D01*
X153035000Y-91821000D01*
X153055000Y-91821000D01*
X153055000Y-92075000D01*
X153035000Y-92075000D01*
X153035000Y-94361000D01*
X154228155Y-94361000D01*
X154349476Y-94131110D01*
X154304825Y-93983901D01*
X154179641Y-93721080D01*
X154005588Y-93487731D01*
X153789355Y-93292822D01*
X153663745Y-93218000D01*
X153789355Y-93143178D01*
X154005588Y-92948269D01*
X154179641Y-92714920D01*
X154304825Y-92452099D01*
X154349476Y-92304890D01*
X154228156Y-92075002D01*
X154393000Y-92075002D01*
X154393000Y-91948000D01*
X161175815Y-91948000D01*
X161204487Y-92239111D01*
X161289401Y-92519034D01*
X161427294Y-92777014D01*
X161612866Y-93003134D01*
X161838986Y-93188706D01*
X161893791Y-93218000D01*
X161838986Y-93247294D01*
X161612866Y-93432866D01*
X161427294Y-93658986D01*
X161289401Y-93916966D01*
X161204487Y-94196889D01*
X161175815Y-94488000D01*
X161204487Y-94779111D01*
X161289401Y-95059034D01*
X161427294Y-95317014D01*
X161612866Y-95543134D01*
X161838986Y-95728706D01*
X161903523Y-95763201D01*
X161786645Y-95832822D01*
X161570412Y-96027731D01*
X161396359Y-96261080D01*
X161271175Y-96523901D01*
X161226524Y-96671110D01*
X161347845Y-96901000D01*
X162541000Y-96901000D01*
X162541000Y-96881000D01*
X162795000Y-96881000D01*
X162795000Y-96901000D01*
X163988155Y-96901000D01*
X164109476Y-96671110D01*
X164064825Y-96523901D01*
X163939641Y-96261080D01*
X163765588Y-96027731D01*
X163549355Y-95832822D01*
X163432477Y-95763201D01*
X163497014Y-95728706D01*
X163723134Y-95543134D01*
X163908706Y-95317014D01*
X164046599Y-95059034D01*
X164131513Y-94779111D01*
X164160185Y-94488000D01*
X164131513Y-94196889D01*
X164046599Y-93916966D01*
X163908706Y-93658986D01*
X163723134Y-93432866D01*
X163497014Y-93247294D01*
X163442209Y-93218000D01*
X163497014Y-93188706D01*
X163723134Y-93003134D01*
X163908706Y-92777014D01*
X164046599Y-92519034D01*
X164131513Y-92239111D01*
X164160185Y-91948000D01*
X164131513Y-91656889D01*
X164046599Y-91376966D01*
X163908706Y-91118986D01*
X163723134Y-90892866D01*
X163497014Y-90707294D01*
X163239034Y-90569401D01*
X162959111Y-90484487D01*
X162740950Y-90463000D01*
X162595050Y-90463000D01*
X162376889Y-90484487D01*
X162096966Y-90569401D01*
X161838986Y-90707294D01*
X161612866Y-90892866D01*
X161427294Y-91118986D01*
X161289401Y-91376966D01*
X161204487Y-91656889D01*
X161175815Y-91948000D01*
X154393000Y-91948000D01*
X154393000Y-91820998D01*
X154228156Y-91820998D01*
X154349476Y-91591110D01*
X154304825Y-91443901D01*
X154179641Y-91181080D01*
X154005588Y-90947731D01*
X153789355Y-90752822D01*
X153539252Y-90603843D01*
X153264891Y-90506519D01*
X153035000Y-90627186D01*
X152781000Y-90627186D01*
X152551109Y-90506519D01*
X152276748Y-90603843D01*
X152026645Y-90752822D01*
X151810412Y-90947731D01*
X151636359Y-91181080D01*
X151511175Y-91443901D01*
X151466524Y-91591110D01*
X151587844Y-91820998D01*
X151423000Y-91820998D01*
X148234000Y-91820998D01*
X148234000Y-86822721D01*
X148799000Y-86822721D01*
X148799000Y-87243279D01*
X148881047Y-87655756D01*
X149041988Y-88044302D01*
X149275637Y-88393983D01*
X149573017Y-88691363D01*
X149922698Y-88925012D01*
X150311244Y-89085953D01*
X150723721Y-89168000D01*
X151144279Y-89168000D01*
X151556756Y-89085953D01*
X151945302Y-88925012D01*
X152294983Y-88691363D01*
X152592363Y-88393983D01*
X152826012Y-88044302D01*
X152986953Y-87655756D01*
X153069000Y-87243279D01*
X153069000Y-86822721D01*
X162399000Y-86822721D01*
X162399000Y-87243279D01*
X162481047Y-87655756D01*
X162641988Y-88044302D01*
X162875637Y-88393983D01*
X163173017Y-88691363D01*
X163522698Y-88925012D01*
X163911244Y-89085953D01*
X164323721Y-89168000D01*
X164744279Y-89168000D01*
X165156756Y-89085953D01*
X165545302Y-88925012D01*
X165894983Y-88691363D01*
X166192363Y-88393983D01*
X166426012Y-88044302D01*
X166586953Y-87655756D01*
X166669000Y-87243279D01*
X166669000Y-86822721D01*
X166586953Y-86410244D01*
X166426012Y-86021698D01*
X166192363Y-85672017D01*
X165894983Y-85374637D01*
X165545302Y-85140988D01*
X165156756Y-84980047D01*
X164744279Y-84898000D01*
X164323721Y-84898000D01*
X163911244Y-84980047D01*
X163522698Y-85140988D01*
X163173017Y-85374637D01*
X162875637Y-85672017D01*
X162641988Y-86021698D01*
X162481047Y-86410244D01*
X162399000Y-86822721D01*
X153069000Y-86822721D01*
X152986953Y-86410244D01*
X152826012Y-86021698D01*
X152592363Y-85672017D01*
X152294983Y-85374637D01*
X151945302Y-85140988D01*
X151556756Y-84980047D01*
X151144279Y-84898000D01*
X150723721Y-84898000D01*
X150311244Y-84980047D01*
X149922698Y-85140988D01*
X149573017Y-85374637D01*
X149275637Y-85672017D01*
X149041988Y-86021698D01*
X148881047Y-86410244D01*
X148799000Y-86822721D01*
X148234000Y-86822721D01*
X148234000Y-74531342D01*
X148369825Y-74734618D01*
X148632382Y-74997175D01*
X148941118Y-75203466D01*
X149284166Y-75345561D01*
X149648344Y-75418000D01*
X150019656Y-75418000D01*
X150383834Y-75345561D01*
X150726882Y-75203466D01*
X151035618Y-74997175D01*
X151298175Y-74734618D01*
X151504466Y-74425882D01*
X151646561Y-74082834D01*
X151719000Y-73718656D01*
X151719000Y-73347344D01*
X151646561Y-72983166D01*
X151504466Y-72640118D01*
X151298175Y-72331382D01*
X151035618Y-72068825D01*
X150793430Y-71907000D01*
X164674570Y-71907000D01*
X164432382Y-72068825D01*
X164432382Y-72068825D01*
G37*
X164432382Y-72068825D02*
X164169825Y-72331382D01*
X163963534Y-72640118D01*
X163821439Y-72983166D01*
X163749000Y-73347344D01*
X163749000Y-73718656D01*
X163821439Y-74082834D01*
X163963534Y-74425882D01*
X164169825Y-74734618D01*
X164432382Y-74997175D01*
X164741118Y-75203466D01*
X165084166Y-75345561D01*
X165448344Y-75418000D01*
X165819656Y-75418000D01*
X166183834Y-75345561D01*
X166526882Y-75203466D01*
X166835618Y-74997175D01*
X167098175Y-74734618D01*
X167234000Y-74531342D01*
X167234001Y-107536711D01*
X167199928Y-107884209D01*
X167108384Y-108187417D01*
X166959693Y-108467063D01*
X166759516Y-108712505D01*
X166515476Y-108914392D01*
X166236875Y-109065031D01*
X165934313Y-109158690D01*
X165588842Y-109195000D01*
X149892279Y-109195000D01*
X149544791Y-109160928D01*
X149241583Y-109069384D01*
X148961937Y-108920693D01*
X148716495Y-108720516D01*
X148514608Y-108476476D01*
X148363969Y-108197875D01*
X148270310Y-107895313D01*
X148234000Y-107549842D01*
X148234000Y-103911061D01*
X152254000Y-103911061D01*
X152254000Y-104114939D01*
X152293774Y-104314898D01*
X152371795Y-104503256D01*
X152485063Y-104672774D01*
X152629226Y-104816937D01*
X152798744Y-104930205D01*
X152987102Y-105008226D01*
X153187061Y-105048000D01*
X153390939Y-105048000D01*
X153590898Y-105008226D01*
X153779256Y-104930205D01*
X153948774Y-104816937D01*
X153992711Y-104773000D01*
X158480830Y-104773000D01*
X158584469Y-104876639D01*
X158584469Y-104938776D01*
X158624243Y-105138735D01*
X158702264Y-105327093D01*
X158815532Y-105496611D01*
X158959695Y-105640774D01*
X159129213Y-105754042D01*
X159317571Y-105832063D01*
X159517530Y-105871837D01*
X159721408Y-105871837D01*
X159921367Y-105832063D01*
X160109725Y-105754042D01*
X160279243Y-105640774D01*
X160423406Y-105496611D01*
X160536674Y-105327093D01*
X160614695Y-105138735D01*
X160654469Y-104938776D01*
X160654469Y-104734898D01*
X160617791Y-104550502D01*
X160757226Y-104689937D01*
X160926744Y-104803205D01*
X161115102Y-104881226D01*
X161315061Y-104921000D01*
X161518939Y-104921000D01*
X161718898Y-104881226D01*
X161907256Y-104803205D01*
X162076774Y-104689937D01*
X162220937Y-104545774D01*
X162334205Y-104376256D01*
X162412226Y-104187898D01*
X162452000Y-103987939D01*
X162452000Y-103784061D01*
X162412226Y-103584102D01*
X162408293Y-103574606D01*
X162595050Y-103593000D01*
X162740950Y-103593000D01*
X162959111Y-103571513D01*
X163239034Y-103486599D01*
X163497014Y-103348706D01*
X163723134Y-103163134D01*
X163908706Y-102937014D01*
X164046599Y-102679034D01*
X164131513Y-102399111D01*
X164160185Y-102108000D01*
X164131513Y-101816889D01*
X164046599Y-101536966D01*
X163908706Y-101278986D01*
X163723134Y-101052866D01*
X163497014Y-100867294D01*
X163442209Y-100838000D01*
X163497014Y-100808706D01*
X163723134Y-100623134D01*
X163908706Y-100397014D01*
X164046599Y-100139034D01*
X164131513Y-99859111D01*
X164160185Y-99568000D01*
X164131513Y-99276889D01*
X164046599Y-98996966D01*
X163908706Y-98738986D01*
X163723134Y-98512866D01*
X163497014Y-98327294D01*
X163432477Y-98292799D01*
X163549355Y-98223178D01*
X163765588Y-98028269D01*
X163939641Y-97794920D01*
X164064825Y-97532099D01*
X164109476Y-97384890D01*
X163988155Y-97155000D01*
X162795000Y-97155000D01*
X162795000Y-97175000D01*
X162541000Y-97175000D01*
X162541000Y-97155000D01*
X161347845Y-97155000D01*
X161226524Y-97384890D01*
X161271175Y-97532099D01*
X161396359Y-97794920D01*
X161570412Y-98028269D01*
X161786645Y-98223178D01*
X161903523Y-98292799D01*
X161838986Y-98327294D01*
X161612866Y-98512866D01*
X161427294Y-98738986D01*
X161289401Y-98996966D01*
X161204487Y-99276889D01*
X161175815Y-99568000D01*
X161204487Y-99859111D01*
X161289401Y-100139034D01*
X161427294Y-100397014D01*
X161612866Y-100623134D01*
X161838986Y-100808706D01*
X161893791Y-100838000D01*
X161838986Y-100867294D01*
X161612866Y-101052866D01*
X161427294Y-101278986D01*
X161289401Y-101536966D01*
X161204487Y-101816889D01*
X161175815Y-102108000D01*
X161204487Y-102399111D01*
X161289401Y-102679034D01*
X161294643Y-102688841D01*
X159510000Y-100904199D01*
X159510000Y-95445711D01*
X159553937Y-95401774D01*
X159667205Y-95232256D01*
X159745226Y-95043898D01*
X159785000Y-94843939D01*
X159785000Y-94640061D01*
X159745226Y-94440102D01*
X159667205Y-94251744D01*
X159553937Y-94082226D01*
X159409774Y-93938063D01*
X159240256Y-93824795D01*
X159051898Y-93746774D01*
X158851939Y-93707000D01*
X158648061Y-93707000D01*
X158448102Y-93746774D01*
X158259744Y-93824795D01*
X158090226Y-93938063D01*
X157946063Y-94082226D01*
X157832795Y-94251744D01*
X157754774Y-94440102D01*
X157715000Y-94640061D01*
X157715000Y-94843939D01*
X157754774Y-95043898D01*
X157832795Y-95232256D01*
X157946063Y-95401774D01*
X157990001Y-95445712D01*
X157990000Y-101181677D01*
X157986324Y-101219000D01*
X157990000Y-101256322D01*
X157990000Y-101256332D01*
X158000997Y-101367985D01*
X158044454Y-101511246D01*
X158115026Y-101643276D01*
X158154871Y-101691826D01*
X158209999Y-101759001D01*
X158239003Y-101782804D01*
X160382000Y-103925802D01*
X160382000Y-103987939D01*
X160418678Y-104172335D01*
X160279243Y-104032900D01*
X160109725Y-103919632D01*
X159921367Y-103841611D01*
X159721408Y-103801837D01*
X159659271Y-103801837D01*
X159359435Y-103502002D01*
X159335633Y-103472999D01*
X159219908Y-103378026D01*
X159087879Y-103307454D01*
X158944618Y-103263997D01*
X158832965Y-103253000D01*
X158832954Y-103253000D01*
X158795632Y-103249324D01*
X158758310Y-103253000D01*
X153992711Y-103253000D01*
X153948774Y-103209063D01*
X153779256Y-103095795D01*
X153590898Y-103017774D01*
X153390939Y-102978000D01*
X153187061Y-102978000D01*
X152987102Y-103017774D01*
X152798744Y-103095795D01*
X152629226Y-103209063D01*
X152485063Y-103353226D01*
X152371795Y-103522744D01*
X152293774Y-103711102D01*
X152254000Y-103911061D01*
X148234000Y-103911061D01*
X148234000Y-99568000D01*
X151415815Y-99568000D01*
X151444487Y-99859111D01*
X151529401Y-100139034D01*
X151667294Y-100397014D01*
X151852866Y-100623134D01*
X152078986Y-100808706D01*
X152336966Y-100946599D01*
X152616889Y-101031513D01*
X152835050Y-101053000D01*
X152980950Y-101053000D01*
X153199111Y-101031513D01*
X153479034Y-100946599D01*
X153737014Y-100808706D01*
X153963134Y-100623134D01*
X154148706Y-100397014D01*
X154286599Y-100139034D01*
X154371513Y-99859111D01*
X154400185Y-99568000D01*
X154371513Y-99276889D01*
X154286599Y-98996966D01*
X154148706Y-98738986D01*
X153963134Y-98512866D01*
X153737014Y-98327294D01*
X153672477Y-98292799D01*
X153789355Y-98223178D01*
X154005588Y-98028269D01*
X154179641Y-97794920D01*
X154304825Y-97532099D01*
X154349476Y-97384890D01*
X154228155Y-97155000D01*
X153035000Y-97155000D01*
X153035000Y-97175000D01*
X152781000Y-97175000D01*
X152781000Y-97155000D01*
X151587845Y-97155000D01*
X151466524Y-97384890D01*
X151511175Y-97532099D01*
X151636359Y-97794920D01*
X151810412Y-98028269D01*
X152026645Y-98223178D01*
X152143523Y-98292799D01*
X152078986Y-98327294D01*
X151852866Y-98512866D01*
X151667294Y-98738986D01*
X151529401Y-98996966D01*
X151444487Y-99276889D01*
X151415815Y-99568000D01*
X148234000Y-99568000D01*
X148234000Y-94844890D01*
X151466524Y-94844890D01*
X151511175Y-94992099D01*
X151636359Y-95254920D01*
X151810412Y-95488269D01*
X152026645Y-95683178D01*
X152152255Y-95758000D01*
X152026645Y-95832822D01*
X151810412Y-96027731D01*
X151636359Y-96261080D01*
X151511175Y-96523901D01*
X151466524Y-96671110D01*
X151587845Y-96901000D01*
X152781000Y-96901000D01*
X152781000Y-94615000D01*
X153035000Y-94615000D01*
X153035000Y-96901000D01*
X154228155Y-96901000D01*
X154349476Y-96671110D01*
X154304825Y-96523901D01*
X154179641Y-96261080D01*
X154005588Y-96027731D01*
X153789355Y-95832822D01*
X153663745Y-95758000D01*
X153789355Y-95683178D01*
X154005588Y-95488269D01*
X154179641Y-95254920D01*
X154304825Y-94992099D01*
X154349476Y-94844890D01*
X154228155Y-94615000D01*
X153035000Y-94615000D01*
X152781000Y-94615000D01*
X151587845Y-94615000D01*
X151466524Y-94844890D01*
X148234000Y-94844890D01*
X148234000Y-91820998D01*
X151423000Y-91820998D01*
X151423000Y-92075002D01*
X151587844Y-92075002D01*
X151466524Y-92304890D01*
X151511175Y-92452099D01*
X151636359Y-92714920D01*
X151810412Y-92948269D01*
X152026645Y-93143178D01*
X152152255Y-93218000D01*
X152026645Y-93292822D01*
X151810412Y-93487731D01*
X151636359Y-93721080D01*
X151511175Y-93983901D01*
X151466524Y-94131110D01*
X151587845Y-94361000D01*
X152781000Y-94361000D01*
X152781000Y-92075000D01*
X152761000Y-92075000D01*
X152761000Y-91821000D01*
X152781000Y-91821000D01*
X152781000Y-90627186D01*
X153035000Y-90627186D01*
X153035000Y-91821000D01*
X153055000Y-91821000D01*
X153055000Y-92075000D01*
X153035000Y-92075000D01*
X153035000Y-94361000D01*
X154228155Y-94361000D01*
X154349476Y-94131110D01*
X154304825Y-93983901D01*
X154179641Y-93721080D01*
X154005588Y-93487731D01*
X153789355Y-93292822D01*
X153663745Y-93218000D01*
X153789355Y-93143178D01*
X154005588Y-92948269D01*
X154179641Y-92714920D01*
X154304825Y-92452099D01*
X154349476Y-92304890D01*
X154228156Y-92075002D01*
X154393000Y-92075002D01*
X154393000Y-91948000D01*
X161175815Y-91948000D01*
X161204487Y-92239111D01*
X161289401Y-92519034D01*
X161427294Y-92777014D01*
X161612866Y-93003134D01*
X161838986Y-93188706D01*
X161893791Y-93218000D01*
X161838986Y-93247294D01*
X161612866Y-93432866D01*
X161427294Y-93658986D01*
X161289401Y-93916966D01*
X161204487Y-94196889D01*
X161175815Y-94488000D01*
X161204487Y-94779111D01*
X161289401Y-95059034D01*
X161427294Y-95317014D01*
X161612866Y-95543134D01*
X161838986Y-95728706D01*
X161903523Y-95763201D01*
X161786645Y-95832822D01*
X161570412Y-96027731D01*
X161396359Y-96261080D01*
X161271175Y-96523901D01*
X161226524Y-96671110D01*
X161347845Y-96901000D01*
X162541000Y-96901000D01*
X162541000Y-96881000D01*
X162795000Y-96881000D01*
X162795000Y-96901000D01*
X163988155Y-96901000D01*
X164109476Y-96671110D01*
X164064825Y-96523901D01*
X163939641Y-96261080D01*
X163765588Y-96027731D01*
X163549355Y-95832822D01*
X163432477Y-95763201D01*
X163497014Y-95728706D01*
X163723134Y-95543134D01*
X163908706Y-95317014D01*
X164046599Y-95059034D01*
X164131513Y-94779111D01*
X164160185Y-94488000D01*
X164131513Y-94196889D01*
X164046599Y-93916966D01*
X163908706Y-93658986D01*
X163723134Y-93432866D01*
X163497014Y-93247294D01*
X163442209Y-93218000D01*
X163497014Y-93188706D01*
X163723134Y-93003134D01*
X163908706Y-92777014D01*
X164046599Y-92519034D01*
X164131513Y-92239111D01*
X164160185Y-91948000D01*
X164131513Y-91656889D01*
X164046599Y-91376966D01*
X163908706Y-91118986D01*
X163723134Y-90892866D01*
X163497014Y-90707294D01*
X163239034Y-90569401D01*
X162959111Y-90484487D01*
X162740950Y-90463000D01*
X162595050Y-90463000D01*
X162376889Y-90484487D01*
X162096966Y-90569401D01*
X161838986Y-90707294D01*
X161612866Y-90892866D01*
X161427294Y-91118986D01*
X161289401Y-91376966D01*
X161204487Y-91656889D01*
X161175815Y-91948000D01*
X154393000Y-91948000D01*
X154393000Y-91820998D01*
X154228156Y-91820998D01*
X154349476Y-91591110D01*
X154304825Y-91443901D01*
X154179641Y-91181080D01*
X154005588Y-90947731D01*
X153789355Y-90752822D01*
X153539252Y-90603843D01*
X153264891Y-90506519D01*
X153035000Y-90627186D01*
X152781000Y-90627186D01*
X152551109Y-90506519D01*
X152276748Y-90603843D01*
X152026645Y-90752822D01*
X151810412Y-90947731D01*
X151636359Y-91181080D01*
X151511175Y-91443901D01*
X151466524Y-91591110D01*
X151587844Y-91820998D01*
X151423000Y-91820998D01*
X148234000Y-91820998D01*
X148234000Y-86822721D01*
X148799000Y-86822721D01*
X148799000Y-87243279D01*
X148881047Y-87655756D01*
X149041988Y-88044302D01*
X149275637Y-88393983D01*
X149573017Y-88691363D01*
X149922698Y-88925012D01*
X150311244Y-89085953D01*
X150723721Y-89168000D01*
X151144279Y-89168000D01*
X151556756Y-89085953D01*
X151945302Y-88925012D01*
X152294983Y-88691363D01*
X152592363Y-88393983D01*
X152826012Y-88044302D01*
X152986953Y-87655756D01*
X153069000Y-87243279D01*
X153069000Y-86822721D01*
X162399000Y-86822721D01*
X162399000Y-87243279D01*
X162481047Y-87655756D01*
X162641988Y-88044302D01*
X162875637Y-88393983D01*
X163173017Y-88691363D01*
X163522698Y-88925012D01*
X163911244Y-89085953D01*
X164323721Y-89168000D01*
X164744279Y-89168000D01*
X165156756Y-89085953D01*
X165545302Y-88925012D01*
X165894983Y-88691363D01*
X166192363Y-88393983D01*
X166426012Y-88044302D01*
X166586953Y-87655756D01*
X166669000Y-87243279D01*
X166669000Y-86822721D01*
X166586953Y-86410244D01*
X166426012Y-86021698D01*
X166192363Y-85672017D01*
X165894983Y-85374637D01*
X165545302Y-85140988D01*
X165156756Y-84980047D01*
X164744279Y-84898000D01*
X164323721Y-84898000D01*
X163911244Y-84980047D01*
X163522698Y-85140988D01*
X163173017Y-85374637D01*
X162875637Y-85672017D01*
X162641988Y-86021698D01*
X162481047Y-86410244D01*
X162399000Y-86822721D01*
X153069000Y-86822721D01*
X152986953Y-86410244D01*
X152826012Y-86021698D01*
X152592363Y-85672017D01*
X152294983Y-85374637D01*
X151945302Y-85140988D01*
X151556756Y-84980047D01*
X151144279Y-84898000D01*
X150723721Y-84898000D01*
X150311244Y-84980047D01*
X149922698Y-85140988D01*
X149573017Y-85374637D01*
X149275637Y-85672017D01*
X149041988Y-86021698D01*
X148881047Y-86410244D01*
X148799000Y-86822721D01*
X148234000Y-86822721D01*
X148234000Y-74531342D01*
X148369825Y-74734618D01*
X148632382Y-74997175D01*
X148941118Y-75203466D01*
X149284166Y-75345561D01*
X149648344Y-75418000D01*
X150019656Y-75418000D01*
X150383834Y-75345561D01*
X150726882Y-75203466D01*
X151035618Y-74997175D01*
X151298175Y-74734618D01*
X151504466Y-74425882D01*
X151646561Y-74082834D01*
X151719000Y-73718656D01*
X151719000Y-73347344D01*
X151646561Y-72983166D01*
X151504466Y-72640118D01*
X151298175Y-72331382D01*
X151035618Y-72068825D01*
X150793430Y-71907000D01*
X164674570Y-71907000D01*
X164432382Y-72068825D01*
M02*
