G04 #@! TF.GenerationSoftware,KiCad,Pcbnew,(5.1.0)-1*
G04 #@! TF.CreationDate,2019-04-03T20:48:48-04:00*
G04 #@! TF.ProjectId,thermocouple_daughter,74686572-6d6f-4636-9f75-706c655f6461,rev?*
G04 #@! TF.SameCoordinates,Original*
G04 #@! TF.FileFunction,Legend,Top*
G04 #@! TF.FilePolarity,Positive*
%FSLAX46Y46*%
G04 Gerber Fmt 4.6, Leading zero omitted, Abs format (unit mm)*
G04 Created by KiCad (PCBNEW (5.1.0)-1) date 2019-04-03 20:48:48*
%MOMM*%
%LPD*%
G04 APERTURE LIST*
%ADD10C,0.150000*%
%ADD11C,0.120000*%
G04 APERTURE END LIST*
D10*
X150153619Y-90075761D02*
X150153619Y-90647190D01*
X149153619Y-90361476D02*
X150153619Y-90361476D01*
X149534571Y-90980523D02*
X149534571Y-91742428D01*
X150153619Y-92075761D02*
X150153619Y-92647190D01*
X149153619Y-92361476D02*
X150153619Y-92361476D01*
X149820285Y-92885285D02*
X149153619Y-93123380D01*
X149820285Y-93361476D02*
X149153619Y-93123380D01*
X148915523Y-93028142D01*
X148867904Y-92980523D01*
X148820285Y-92885285D01*
X149820285Y-93742428D02*
X148820285Y-93742428D01*
X149772666Y-93742428D02*
X149820285Y-93837666D01*
X149820285Y-94028142D01*
X149772666Y-94123380D01*
X149725047Y-94171000D01*
X149629809Y-94218619D01*
X149344095Y-94218619D01*
X149248857Y-94171000D01*
X149201238Y-94123380D01*
X149153619Y-94028142D01*
X149153619Y-93837666D01*
X149201238Y-93742428D01*
X149201238Y-95028142D02*
X149153619Y-94932904D01*
X149153619Y-94742428D01*
X149201238Y-94647190D01*
X149296476Y-94599571D01*
X149677428Y-94599571D01*
X149772666Y-94647190D01*
X149820285Y-94742428D01*
X149820285Y-94932904D01*
X149772666Y-95028142D01*
X149677428Y-95075761D01*
X149582190Y-95075761D01*
X149486952Y-94599571D01*
X150153619Y-96123380D02*
X150153619Y-96694809D01*
X149153619Y-96409095D02*
X150153619Y-96409095D01*
X149153619Y-97028142D02*
X150153619Y-97028142D01*
X149153619Y-97456714D02*
X149677428Y-97456714D01*
X149772666Y-97409095D01*
X149820285Y-97313857D01*
X149820285Y-97171000D01*
X149772666Y-97075761D01*
X149725047Y-97028142D01*
X149201238Y-98313857D02*
X149153619Y-98218619D01*
X149153619Y-98028142D01*
X149201238Y-97932904D01*
X149296476Y-97885285D01*
X149677428Y-97885285D01*
X149772666Y-97932904D01*
X149820285Y-98028142D01*
X149820285Y-98218619D01*
X149772666Y-98313857D01*
X149677428Y-98361476D01*
X149582190Y-98361476D01*
X149486952Y-97885285D01*
X149153619Y-98790047D02*
X149820285Y-98790047D01*
X149629809Y-98790047D02*
X149725047Y-98837666D01*
X149772666Y-98885285D01*
X149820285Y-98980523D01*
X149820285Y-99075761D01*
X149153619Y-99409095D02*
X149820285Y-99409095D01*
X149725047Y-99409095D02*
X149772666Y-99456714D01*
X149820285Y-99551952D01*
X149820285Y-99694809D01*
X149772666Y-99790047D01*
X149677428Y-99837666D01*
X149153619Y-99837666D01*
X149677428Y-99837666D02*
X149772666Y-99885285D01*
X149820285Y-99980523D01*
X149820285Y-100123380D01*
X149772666Y-100218619D01*
X149677428Y-100266238D01*
X149153619Y-100266238D01*
X149153619Y-100885285D02*
X149201238Y-100790047D01*
X149248857Y-100742428D01*
X149344095Y-100694809D01*
X149629809Y-100694809D01*
X149725047Y-100742428D01*
X149772666Y-100790047D01*
X149820285Y-100885285D01*
X149820285Y-101028142D01*
X149772666Y-101123380D01*
X149725047Y-101171000D01*
X149629809Y-101218619D01*
X149344095Y-101218619D01*
X149248857Y-101171000D01*
X149201238Y-101123380D01*
X149153619Y-101028142D01*
X149153619Y-100885285D01*
X149201238Y-102075761D02*
X149153619Y-101980523D01*
X149153619Y-101790047D01*
X149201238Y-101694809D01*
X149248857Y-101647190D01*
X149344095Y-101599571D01*
X149629809Y-101599571D01*
X149725047Y-101647190D01*
X149772666Y-101694809D01*
X149820285Y-101790047D01*
X149820285Y-101980523D01*
X149772666Y-102075761D01*
X149153619Y-102647190D02*
X149201238Y-102551952D01*
X149248857Y-102504333D01*
X149344095Y-102456714D01*
X149629809Y-102456714D01*
X149725047Y-102504333D01*
X149772666Y-102551952D01*
X149820285Y-102647190D01*
X149820285Y-102790047D01*
X149772666Y-102885285D01*
X149725047Y-102932904D01*
X149629809Y-102980523D01*
X149344095Y-102980523D01*
X149248857Y-102932904D01*
X149201238Y-102885285D01*
X149153619Y-102790047D01*
X149153619Y-102647190D01*
X149820285Y-103837666D02*
X149153619Y-103837666D01*
X149820285Y-103409095D02*
X149296476Y-103409095D01*
X149201238Y-103456714D01*
X149153619Y-103551952D01*
X149153619Y-103694809D01*
X149201238Y-103790047D01*
X149248857Y-103837666D01*
X149820285Y-104313857D02*
X148820285Y-104313857D01*
X149772666Y-104313857D02*
X149820285Y-104409095D01*
X149820285Y-104599571D01*
X149772666Y-104694809D01*
X149725047Y-104742428D01*
X149629809Y-104790047D01*
X149344095Y-104790047D01*
X149248857Y-104742428D01*
X149201238Y-104694809D01*
X149153619Y-104599571D01*
X149153619Y-104409095D01*
X149201238Y-104313857D01*
X149153619Y-105361476D02*
X149201238Y-105266238D01*
X149296476Y-105218619D01*
X150153619Y-105218619D01*
X149201238Y-106123380D02*
X149153619Y-106028142D01*
X149153619Y-105837666D01*
X149201238Y-105742428D01*
X149296476Y-105694809D01*
X149677428Y-105694809D01*
X149772666Y-105742428D01*
X149820285Y-105837666D01*
X149820285Y-106028142D01*
X149772666Y-106123380D01*
X149677428Y-106171000D01*
X149582190Y-106171000D01*
X149486952Y-105694809D01*
D11*
X157611578Y-92531000D02*
X157094422Y-92531000D01*
X157611578Y-91111000D02*
X157094422Y-91111000D01*
X154357000Y-97198922D02*
X154357000Y-97716078D01*
X155777000Y-97198922D02*
X155777000Y-97716078D01*
X164644000Y-104066078D02*
X164644000Y-103548922D01*
X166064000Y-104066078D02*
X166064000Y-103548922D01*
X163938000Y-103378000D02*
X151238000Y-103378000D01*
X151238000Y-103378000D02*
X151238000Y-90678000D01*
X163938000Y-103378000D02*
X163938000Y-90678000D01*
X155650000Y-101165922D02*
X155650000Y-101683078D01*
X154230000Y-101165922D02*
X154230000Y-101683078D01*
X159079000Y-101731578D02*
X159079000Y-101214422D01*
X157659000Y-101731578D02*
X157659000Y-101214422D01*
X157659000Y-97716078D02*
X157659000Y-97198922D01*
X159079000Y-97716078D02*
X159079000Y-97198922D01*
X154677000Y-104866000D02*
X152917000Y-104866000D01*
X152917000Y-107936000D02*
X155347000Y-107936000D01*
D10*
X158853000Y-104878000D02*
X158853000Y-105053000D01*
X162203000Y-104878000D02*
X162203000Y-105128000D01*
X162203000Y-108228000D02*
X162203000Y-107978000D01*
X158853000Y-108228000D02*
X158853000Y-107978000D01*
X158853000Y-104878000D02*
X162203000Y-104878000D01*
X158853000Y-108228000D02*
X162203000Y-108228000D01*
X158853000Y-105053000D02*
X157603000Y-105053000D01*
X157186333Y-90273142D02*
X157138714Y-90320761D01*
X156995857Y-90368380D01*
X156900619Y-90368380D01*
X156757761Y-90320761D01*
X156662523Y-90225523D01*
X156614904Y-90130285D01*
X156567285Y-89939809D01*
X156567285Y-89796952D01*
X156614904Y-89606476D01*
X156662523Y-89511238D01*
X156757761Y-89416000D01*
X156900619Y-89368380D01*
X156995857Y-89368380D01*
X157138714Y-89416000D01*
X157186333Y-89463619D01*
X158138714Y-90368380D02*
X157567285Y-90368380D01*
X157853000Y-90368380D02*
X157853000Y-89368380D01*
X157757761Y-89511238D01*
X157662523Y-89606476D01*
X157567285Y-89654095D01*
X157074142Y-97624166D02*
X157121761Y-97671785D01*
X157169380Y-97814642D01*
X157169380Y-97909880D01*
X157121761Y-98052738D01*
X157026523Y-98147976D01*
X156931285Y-98195595D01*
X156740809Y-98243214D01*
X156597952Y-98243214D01*
X156407476Y-98195595D01*
X156312238Y-98147976D01*
X156217000Y-98052738D01*
X156169380Y-97909880D01*
X156169380Y-97814642D01*
X156217000Y-97671785D01*
X156264619Y-97624166D01*
X156264619Y-97243214D02*
X156217000Y-97195595D01*
X156169380Y-97100357D01*
X156169380Y-96862261D01*
X156217000Y-96767023D01*
X156264619Y-96719404D01*
X156359857Y-96671785D01*
X156455095Y-96671785D01*
X156597952Y-96719404D01*
X157169380Y-97290833D01*
X157169380Y-96671785D01*
X165060333Y-101703142D02*
X165012714Y-101750761D01*
X164869857Y-101798380D01*
X164774619Y-101798380D01*
X164631761Y-101750761D01*
X164536523Y-101655523D01*
X164488904Y-101560285D01*
X164441285Y-101369809D01*
X164441285Y-101226952D01*
X164488904Y-101036476D01*
X164536523Y-100941238D01*
X164631761Y-100846000D01*
X164774619Y-100798380D01*
X164869857Y-100798380D01*
X165012714Y-100846000D01*
X165060333Y-100893619D01*
X165393666Y-100798380D02*
X166012714Y-100798380D01*
X165679380Y-101179333D01*
X165822238Y-101179333D01*
X165917476Y-101226952D01*
X165965095Y-101274571D01*
X166012714Y-101369809D01*
X166012714Y-101607904D01*
X165965095Y-101703142D01*
X165917476Y-101750761D01*
X165822238Y-101798380D01*
X165536523Y-101798380D01*
X165441285Y-101750761D01*
X165393666Y-101703142D01*
X152555666Y-101306380D02*
X152555666Y-102020666D01*
X152508047Y-102163523D01*
X152412809Y-102258761D01*
X152269952Y-102306380D01*
X152174714Y-102306380D01*
X153555666Y-102306380D02*
X152984238Y-102306380D01*
X153269952Y-102306380D02*
X153269952Y-101306380D01*
X153174714Y-101449238D01*
X153079476Y-101544476D01*
X152984238Y-101592095D01*
X157273666Y-79843380D02*
X157273666Y-80557666D01*
X157226047Y-80700523D01*
X157130809Y-80795761D01*
X156987952Y-80843380D01*
X156892714Y-80843380D01*
X157702238Y-79938619D02*
X157749857Y-79891000D01*
X157845095Y-79843380D01*
X158083190Y-79843380D01*
X158178428Y-79891000D01*
X158226047Y-79938619D01*
X158273666Y-80033857D01*
X158273666Y-80129095D01*
X158226047Y-80271952D01*
X157654619Y-80843380D01*
X158273666Y-80843380D01*
X157042380Y-101591166D02*
X156566190Y-101924500D01*
X157042380Y-102162595D02*
X156042380Y-102162595D01*
X156042380Y-101781642D01*
X156090000Y-101686404D01*
X156137619Y-101638785D01*
X156232857Y-101591166D01*
X156375714Y-101591166D01*
X156470952Y-101638785D01*
X156518571Y-101686404D01*
X156566190Y-101781642D01*
X156566190Y-102162595D01*
X157042380Y-100638785D02*
X157042380Y-101210214D01*
X157042380Y-100924500D02*
X156042380Y-100924500D01*
X156185238Y-101019738D01*
X156280476Y-101114976D01*
X156328095Y-101210214D01*
X160472380Y-101639666D02*
X159996190Y-101973000D01*
X160472380Y-102211095D02*
X159472380Y-102211095D01*
X159472380Y-101830142D01*
X159520000Y-101734904D01*
X159567619Y-101687285D01*
X159662857Y-101639666D01*
X159805714Y-101639666D01*
X159900952Y-101687285D01*
X159948571Y-101734904D01*
X159996190Y-101830142D01*
X159996190Y-102211095D01*
X159567619Y-101258714D02*
X159520000Y-101211095D01*
X159472380Y-101115857D01*
X159472380Y-100877761D01*
X159520000Y-100782523D01*
X159567619Y-100734904D01*
X159662857Y-100687285D01*
X159758095Y-100687285D01*
X159900952Y-100734904D01*
X160472380Y-101306333D01*
X160472380Y-100687285D01*
X160599380Y-97672666D02*
X160123190Y-98006000D01*
X160599380Y-98244095D02*
X159599380Y-98244095D01*
X159599380Y-97863142D01*
X159647000Y-97767904D01*
X159694619Y-97720285D01*
X159789857Y-97672666D01*
X159932714Y-97672666D01*
X160027952Y-97720285D01*
X160075571Y-97767904D01*
X160123190Y-97863142D01*
X160123190Y-98244095D01*
X159599380Y-97339333D02*
X159599380Y-96720285D01*
X159980333Y-97053619D01*
X159980333Y-96910761D01*
X160027952Y-96815523D01*
X160075571Y-96767904D01*
X160170809Y-96720285D01*
X160408904Y-96720285D01*
X160504142Y-96767904D01*
X160551761Y-96815523D01*
X160599380Y-96910761D01*
X160599380Y-97196476D01*
X160551761Y-97291714D01*
X160504142Y-97339333D01*
X153035095Y-108328380D02*
X153035095Y-109137904D01*
X153082714Y-109233142D01*
X153130333Y-109280761D01*
X153225571Y-109328380D01*
X153416047Y-109328380D01*
X153511285Y-109280761D01*
X153558904Y-109233142D01*
X153606523Y-109137904D01*
X153606523Y-108328380D01*
X154606523Y-109328380D02*
X154035095Y-109328380D01*
X154320809Y-109328380D02*
X154320809Y-108328380D01*
X154225571Y-108471238D01*
X154130333Y-108566476D01*
X154035095Y-108614095D01*
X159766095Y-103405380D02*
X159766095Y-104214904D01*
X159813714Y-104310142D01*
X159861333Y-104357761D01*
X159956571Y-104405380D01*
X160147047Y-104405380D01*
X160242285Y-104357761D01*
X160289904Y-104310142D01*
X160337523Y-104214904D01*
X160337523Y-103405380D01*
X160766095Y-103500619D02*
X160813714Y-103453000D01*
X160908952Y-103405380D01*
X161147047Y-103405380D01*
X161242285Y-103453000D01*
X161289904Y-103500619D01*
X161337523Y-103595857D01*
X161337523Y-103691095D01*
X161289904Y-103833952D01*
X160718476Y-104405380D01*
X161337523Y-104405380D01*
M02*
