M48
; DRILL file {KiCad (5.1.0)-1} date 4/1/2019 10:48:52 PM
; FORMAT={-:-/ absolute / metric / decimal}
; #@! TF.CreationDate,2019-04-01T22:48:52-04:00
; #@! TF.GenerationSoftware,Kicad,Pcbnew,(5.1.0)-1
; #@! TF.FileFunction,Plated,1,2,PTH
FMAT,2
METRIC
T1C0.400
T2C0.500
T3C0.920
T4C1.000
T5C1.100
T6C1.850
T7C2.330
T8C3.200
T9C4.500
%
G90
G05
T1
X33.02Y-89.154
X33.528Y-106.68
X37.084Y-68.834
X39.116Y-104.648
X41.148Y-92.202
X41.91Y-91.44
X41.91Y-92.964
X43.18Y-80.01
X43.688Y-113.538
X44.196Y-84.582
X45.466Y-126.238
X45.72Y-68.072
X46.482Y-83.058
X47.244Y-99.822
X48.26Y-94.742
X48.514Y-123.698
X49.276Y-113.538
X49.53Y-112.014
X50.038Y-92.202
X50.292Y-84.836
X50.546Y-131.572
X51.562Y-98.298
X52.07Y-69.85
X53.34Y-84.328
X55.118Y-99.06
X55.626Y-85.09
X55.778Y-100.432
X55.88Y-119.634
X56.896Y-121.412
X58.161Y-113.025
X59.182Y-143.51
X59.436Y-98.044
X59.69Y-112.776
X60.706Y-90.17
X60.96Y-84.836
X61.468Y-90.17
X61.468Y-100.33
X61.468Y-105.664
X61.468Y-123.952
X61.722Y-84.836
X62.23Y-90.17
X62.23Y-100.33
X62.23Y-105.664
X62.484Y-84.836
X62.992Y-78.486
X62.992Y-90.17
X62.992Y-100.33
X62.992Y-105.664
X63.246Y-85.09
X63.5Y-85.852
X63.5Y-86.614
X63.5Y-87.376
X63.5Y-88.138
X63.5Y-88.9
X63.5Y-89.662
X63.754Y-100.838
X63.754Y-101.6
X63.754Y-102.362
X63.754Y-103.124
X63.754Y-103.886
X63.754Y-104.648
X63.754Y-105.41
X64.77Y-84.074
X64.77Y-108.458
X65.024Y-96.012
X65.278Y-99.568
X65.288Y-55.87
X66.04Y-128.016
X67.31Y-124.46
X69.596Y-75.184
X71.628Y-78.74
X71.882Y-81.28
X74.59Y-143.51
X75.946Y-142.24
X76.2Y-143.51
X76.2Y-144.78
X77.47Y-76.708
X77.47Y-78.74
X77.724Y-81.28
X77.978Y-113.538
X78.994Y-108.966
X80.01Y-121.158
X80.518Y-118.618
X81.28Y-143.51
X82.55Y-125.222
X86.614Y-78.015
X87.884Y-128.27
X88.128Y-55.87
X89.408Y-124.714
X90.424Y-75.184
X96.688Y-143.342
X97.79Y-141.986
X98.044Y-143.51
X98.044Y-145.034
X101.092Y-121.92
X103.124Y-119.126
X103.886Y-143.51
X105.664Y-124.206
X107.95Y-77.565
X110.754Y-55.87
X111.76Y-127.762
X112.014Y-143.51
X112.268Y-75.692
X112.268Y-123.952
X117.602Y-110.49
X117.602Y-113.792
X118.872Y-104.648
X119.126Y-101.092
X119.294Y-143.51
X119.38Y-95.504
X119.38Y-97.536
X120.65Y-142.24
X120.65Y-143.51
X120.65Y-144.78
X121.342Y-89.615
X122.174Y-90.17
X123.19Y-121.412
X125.222Y-119.634
X125.984Y-143.51
X126.492Y-76.708
X127.254Y-123.952
X129.032Y-81.28
X129.032Y-109.982
X131.572Y-81.788
X132.334Y-79.502
X132.842Y-92.964
X132.842Y-128.27
X133.35Y-79.502
X133.604Y-74.422
X133.858Y-85.598
X133.868Y-55.87
X134.366Y-79.502
X134.366Y-110.49
X134.366Y-124.46
X135.399Y-79.513
X136.398Y-79.465
X137.16Y-81.788
X137.16Y-83.058
X137.737Y-84.767
X138.499Y-85.529
X139.7Y-93.98
X140.208Y-105.918
X141.392Y-143.51
X141.478Y-83.566
X141.478Y-84.582
X142.748Y-142.24
X142.748Y-143.51
X142.748Y-144.78
X143.002Y-85.852
X143.256Y-91.186
X143.51Y-117.602
X143.764Y-86.868
X144.526Y-81.026
X144.526Y-122.174
X145.542Y-86.868
X147.066Y-143.51
X148.082Y-77.47
X148.844Y-124.206
X149.098Y-100.838
X149.352Y-87.122
X151.13Y-96.774
X153.67Y-96.266
X154.94Y-128.524
X155.194Y-86.868
X155.448Y-85.344
X155.448Y-124.46
X156.21Y-74.676
X156.962Y-55.87
X157.48Y-101.6
X157.988Y-108.966
X159.004Y-85.344
X161.29Y-106.934
X162.474Y-143.51
X163.576Y-85.598
X163.576Y-89.408
X163.576Y-142.494
X163.83Y-143.51
X163.83Y-144.526
X165.608Y-118.11
X166.624Y-123.19
X169.164Y-143.51
X171.45Y-124.206
X176.022Y-128.27
X177.038Y-74.93
X177.8Y-124.46
X180.35Y-55.87
X180.848Y-90.932
X184.572Y-143.51
X185.166Y-90.424
X185.928Y-114.554
X185.928Y-117.094
X185.928Y-142.24
X185.928Y-143.51
X185.928Y-144.78
X186.69Y-118.364
X187.452Y-123.444
X189.23Y-90.424
X190.754Y-143.51
X192.278Y-124.206
X197.358Y-128.27
X199.136Y-124.46
X202.702Y-55.87
X203.962Y-75.692
X206.248Y-143.51
X207.518Y-142.494
X207.518Y-143.51
X207.518Y-144.526
X208.026Y-114.3
X208.026Y-116.84
X209.042Y-101.6
X209.042Y-105.41
X210.058Y-117.856
X210.82Y-99.568
X210.82Y-123.19
X212.344Y-94.234
X212.598Y-99.568
X212.852Y-143.51
X214.376Y-89.662
X214.884Y-90.678
X215.138Y-123.952
X217.315Y-72.535
X218.44Y-102.108
X219.7Y-55.87
X219.71Y-85.09
X219.964Y-128.016
X220.073Y-72.535
X220.218Y-101.092
X220.218Y-105.41
X221.234Y-124.714
X221.996Y-102.108
X225.044Y-92.71
X226.06Y-97.536
X227.33Y-82.804
X228.26Y-143.51
X229.616Y-142.24
X229.616Y-143.51
X229.616Y-144.78
X230.378Y-97.282
X230.632Y-88.646
X231.14Y-74.676
X232.664Y-77.216
X232.918Y-82.55
X233.68Y-107.188
X247.142Y-71.374
X247.142Y-75.184
X247.142Y-78.994
X247.142Y-82.804
T2
X55.626Y-74.676
X200.914Y-90.17
X88.646Y-100.838
X33.782Y-78.994
X45.72Y-72.39
X200.914Y-85.852
X75.946Y-100.838
T3
X233.68Y-93.98
X233.68Y-96.48
X235.68Y-93.98
X235.68Y-96.48
T4
X53.34Y-123.444
X53.34Y-125.984
X191.535Y-60.325
X191.535Y-62.865
X191.535Y-65.405
X191.535Y-67.945
X201.295Y-60.325
X201.295Y-62.865
X201.295Y-65.405
X201.295Y-67.945
X201.295Y-70.485
X145.815Y-60.325
X145.815Y-62.865
X145.815Y-65.405
X145.815Y-67.945
X155.575Y-60.325
X155.575Y-62.865
X155.575Y-65.405
X155.575Y-67.945
X155.575Y-70.485
X100.095Y-60.325
X100.095Y-62.865
X100.095Y-65.405
X100.095Y-67.945
X109.855Y-60.325
X109.855Y-62.865
X109.855Y-65.405
X109.855Y-67.945
X109.855Y-70.485
X165.862Y-93.472
X165.862Y-96.012
X165.862Y-98.552
X168.402Y-93.472
X168.402Y-96.012
X168.402Y-98.552
X54.375Y-60.325
X54.375Y-62.865
X54.375Y-65.405
X54.375Y-67.945
X64.135Y-60.325
X64.135Y-62.865
X64.135Y-65.405
X64.135Y-67.945
X64.135Y-70.485
X168.675Y-60.325
X168.675Y-62.865
X168.675Y-65.405
X168.675Y-67.945
X178.435Y-60.325
X178.435Y-62.865
X178.435Y-65.405
X178.435Y-67.945
X178.435Y-70.485
X122.955Y-60.325
X122.955Y-62.865
X122.955Y-65.405
X122.955Y-67.945
X132.715Y-60.325
X132.715Y-62.865
X132.715Y-65.405
X132.715Y-67.945
X132.715Y-70.485
X77.235Y-60.325
X77.235Y-62.865
X77.235Y-65.405
X77.235Y-67.945
X86.995Y-60.325
X86.995Y-62.865
X86.995Y-65.405
X86.995Y-67.945
X86.995Y-70.485
X52.07Y-110.744
X52.07Y-113.284
X214.395Y-60.325
X214.395Y-62.865
X214.395Y-65.405
X214.395Y-67.945
X224.155Y-60.325
X224.155Y-62.865
X224.155Y-65.405
X224.155Y-67.945
X224.155Y-70.485
T5
X109.935Y-152.527
X109.935Y-157.527
X114.935Y-152.527
X114.935Y-157.527
X176.403Y-152.527
X176.403Y-157.527
X181.403Y-152.527
X181.403Y-157.527
X86.821Y-152.527
X86.821Y-157.527
X91.821Y-152.527
X91.821Y-157.527
X64.723Y-152.527
X64.723Y-157.527
X69.723Y-152.527
X69.723Y-157.527
X220.091Y-152.527
X220.091Y-157.527
X225.091Y-152.527
X225.091Y-157.527
X197.993Y-152.527
X197.993Y-157.527
X202.993Y-152.527
X202.993Y-157.527
X154.305Y-152.527
X154.305Y-157.527
X159.305Y-152.527
X159.305Y-157.527
X131.826Y-152.527
X131.826Y-157.527
X136.826Y-152.527
X136.826Y-157.527
T6
X118.11Y-118.364
X118.11Y-123.064
X118.11Y-127.764
X182.626Y-118.364
X182.626Y-123.064
X182.626Y-127.764
X226.314Y-117.856
X226.314Y-122.556
X226.314Y-127.256
X95.504Y-117.856
X95.504Y-122.556
X95.504Y-127.256
X161.29Y-118.872
X161.29Y-123.572
X161.29Y-128.272
X140.208Y-118.872
X140.208Y-123.572
X140.208Y-128.272
X73.406Y-117.982
X73.406Y-122.682
X73.406Y-127.382
X204.724Y-118.11
X204.724Y-122.81
X204.724Y-127.51
T7
X238.39Y-89.21
X238.39Y-101.25
T8
X240.03Y-63.5
X240.03Y-152.4
X101.6Y-101.6
X185.42Y-101.6
X38.1Y-152.4
X38.1Y-63.5
T9
X35.56Y-121.532
X35.56Y-129.032
T0
M30
