G04 #@! TF.GenerationSoftware,KiCad,Pcbnew,(5.1.0)-1*
G04 #@! TF.CreationDate,2019-04-03T20:49:52-04:00*
G04 #@! TF.ProjectId,3wireducer_daughter,33776972-6564-4756-9365-725f64617567,rev?*
G04 #@! TF.SameCoordinates,Original*
G04 #@! TF.FileFunction,Soldermask,Top*
G04 #@! TF.FilePolarity,Negative*
%FSLAX46Y46*%
G04 Gerber Fmt 4.6, Leading zero omitted, Abs format (unit mm)*
G04 Created by KiCad (PCBNEW (5.1.0)-1) date 2019-04-03 20:49:52*
%MOMM*%
%LPD*%
G04 APERTURE LIST*
%ADD10C,0.100000*%
G04 APERTURE END LIST*
D10*
G36*
X148700443Y-100578519D02*
G01*
X148766627Y-100585037D01*
X148936466Y-100636557D01*
X149092991Y-100720222D01*
X149128729Y-100749552D01*
X149230186Y-100832814D01*
X149313448Y-100934271D01*
X149342778Y-100970009D01*
X149426443Y-101126534D01*
X149477963Y-101296373D01*
X149495359Y-101473000D01*
X149477963Y-101649627D01*
X149426443Y-101819466D01*
X149342778Y-101975991D01*
X149313448Y-102011729D01*
X149230186Y-102113186D01*
X149128729Y-102196448D01*
X149092991Y-102225778D01*
X148936466Y-102309443D01*
X148766627Y-102360963D01*
X148700443Y-102367481D01*
X148634260Y-102374000D01*
X148545740Y-102374000D01*
X148479558Y-102367482D01*
X148413373Y-102360963D01*
X148243534Y-102309443D01*
X148087009Y-102225778D01*
X148051271Y-102196448D01*
X147949814Y-102113186D01*
X147866552Y-102011729D01*
X147837222Y-101975991D01*
X147753557Y-101819466D01*
X147702037Y-101649627D01*
X147684641Y-101473000D01*
X147702037Y-101296373D01*
X147753557Y-101126534D01*
X147837222Y-100970009D01*
X147866552Y-100934271D01*
X147949814Y-100832814D01*
X148051271Y-100749552D01*
X148087009Y-100720222D01*
X148243534Y-100636557D01*
X148413373Y-100585037D01*
X148479558Y-100578518D01*
X148545740Y-100572000D01*
X148634260Y-100572000D01*
X148700443Y-100578519D01*
X148700443Y-100578519D01*
G37*
G36*
X148700442Y-98038518D02*
G01*
X148766627Y-98045037D01*
X148936466Y-98096557D01*
X149092991Y-98180222D01*
X149128729Y-98209552D01*
X149230186Y-98292814D01*
X149313448Y-98394271D01*
X149342778Y-98430009D01*
X149426443Y-98586534D01*
X149477963Y-98756373D01*
X149495359Y-98933000D01*
X149477963Y-99109627D01*
X149426443Y-99279466D01*
X149342778Y-99435991D01*
X149313448Y-99471729D01*
X149230186Y-99573186D01*
X149128729Y-99656448D01*
X149092991Y-99685778D01*
X148936466Y-99769443D01*
X148766627Y-99820963D01*
X148700442Y-99827482D01*
X148634260Y-99834000D01*
X148545740Y-99834000D01*
X148479558Y-99827482D01*
X148413373Y-99820963D01*
X148243534Y-99769443D01*
X148087009Y-99685778D01*
X148051271Y-99656448D01*
X147949814Y-99573186D01*
X147866552Y-99471729D01*
X147837222Y-99435991D01*
X147753557Y-99279466D01*
X147702037Y-99109627D01*
X147684641Y-98933000D01*
X147702037Y-98756373D01*
X147753557Y-98586534D01*
X147837222Y-98430009D01*
X147866552Y-98394271D01*
X147949814Y-98292814D01*
X148051271Y-98209552D01*
X148087009Y-98180222D01*
X148243534Y-98096557D01*
X148413373Y-98045037D01*
X148479558Y-98038518D01*
X148545740Y-98032000D01*
X148634260Y-98032000D01*
X148700442Y-98038518D01*
X148700442Y-98038518D01*
G37*
G36*
X138940442Y-98038518D02*
G01*
X139006627Y-98045037D01*
X139176466Y-98096557D01*
X139332991Y-98180222D01*
X139368729Y-98209552D01*
X139470186Y-98292814D01*
X139553448Y-98394271D01*
X139582778Y-98430009D01*
X139666443Y-98586534D01*
X139717963Y-98756373D01*
X139735359Y-98933000D01*
X139717963Y-99109627D01*
X139666443Y-99279466D01*
X139582778Y-99435991D01*
X139553448Y-99471729D01*
X139470186Y-99573186D01*
X139368729Y-99656448D01*
X139332991Y-99685778D01*
X139176466Y-99769443D01*
X139006627Y-99820963D01*
X138940442Y-99827482D01*
X138874260Y-99834000D01*
X138785740Y-99834000D01*
X138719558Y-99827482D01*
X138653373Y-99820963D01*
X138483534Y-99769443D01*
X138327009Y-99685778D01*
X138291271Y-99656448D01*
X138189814Y-99573186D01*
X138106552Y-99471729D01*
X138077222Y-99435991D01*
X137993557Y-99279466D01*
X137942037Y-99109627D01*
X137924641Y-98933000D01*
X137942037Y-98756373D01*
X137993557Y-98586534D01*
X138077222Y-98430009D01*
X138106552Y-98394271D01*
X138189814Y-98292814D01*
X138291271Y-98209552D01*
X138327009Y-98180222D01*
X138483534Y-98096557D01*
X138653373Y-98045037D01*
X138719558Y-98038518D01*
X138785740Y-98032000D01*
X138874260Y-98032000D01*
X138940442Y-98038518D01*
X138940442Y-98038518D01*
G37*
G36*
X145618468Y-98018065D02*
G01*
X145657138Y-98029796D01*
X145692777Y-98048846D01*
X145724017Y-98074483D01*
X145749654Y-98105723D01*
X145768704Y-98141362D01*
X145780435Y-98180032D01*
X145785000Y-98226388D01*
X145785000Y-98877612D01*
X145780435Y-98923968D01*
X145768704Y-98962638D01*
X145749654Y-98998277D01*
X145724017Y-99029517D01*
X145692777Y-99055154D01*
X145657138Y-99074204D01*
X145618468Y-99085935D01*
X145572112Y-99090500D01*
X144495888Y-99090500D01*
X144449532Y-99085935D01*
X144410862Y-99074204D01*
X144375223Y-99055154D01*
X144343983Y-99029517D01*
X144318346Y-98998277D01*
X144299296Y-98962638D01*
X144287565Y-98923968D01*
X144283000Y-98877612D01*
X144283000Y-98226388D01*
X144287565Y-98180032D01*
X144299296Y-98141362D01*
X144318346Y-98105723D01*
X144343983Y-98074483D01*
X144375223Y-98048846D01*
X144410862Y-98029796D01*
X144449532Y-98018065D01*
X144495888Y-98013500D01*
X145572112Y-98013500D01*
X145618468Y-98018065D01*
X145618468Y-98018065D01*
G37*
G36*
X142189468Y-98018065D02*
G01*
X142228138Y-98029796D01*
X142263777Y-98048846D01*
X142295017Y-98074483D01*
X142320654Y-98105723D01*
X142339704Y-98141362D01*
X142351435Y-98180032D01*
X142356000Y-98226388D01*
X142356000Y-98877612D01*
X142351435Y-98923968D01*
X142339704Y-98962638D01*
X142320654Y-98998277D01*
X142295017Y-99029517D01*
X142263777Y-99055154D01*
X142228138Y-99074204D01*
X142189468Y-99085935D01*
X142143112Y-99090500D01*
X141066888Y-99090500D01*
X141020532Y-99085935D01*
X140981862Y-99074204D01*
X140946223Y-99055154D01*
X140914983Y-99029517D01*
X140889346Y-98998277D01*
X140870296Y-98962638D01*
X140858565Y-98923968D01*
X140854000Y-98877612D01*
X140854000Y-98226388D01*
X140858565Y-98180032D01*
X140870296Y-98141362D01*
X140889346Y-98105723D01*
X140914983Y-98074483D01*
X140946223Y-98048846D01*
X140981862Y-98029796D01*
X141020532Y-98018065D01*
X141066888Y-98013500D01*
X142143112Y-98013500D01*
X142189468Y-98018065D01*
X142189468Y-98018065D01*
G37*
G36*
X148700442Y-95498518D02*
G01*
X148766627Y-95505037D01*
X148936466Y-95556557D01*
X149092991Y-95640222D01*
X149128729Y-95669552D01*
X149230186Y-95752814D01*
X149313448Y-95854271D01*
X149342778Y-95890009D01*
X149426443Y-96046534D01*
X149477963Y-96216373D01*
X149495359Y-96393000D01*
X149477963Y-96569627D01*
X149426443Y-96739466D01*
X149342778Y-96895991D01*
X149313448Y-96931729D01*
X149230186Y-97033186D01*
X149153844Y-97095837D01*
X149092991Y-97145778D01*
X148936466Y-97229443D01*
X148766627Y-97280963D01*
X148700443Y-97287481D01*
X148634260Y-97294000D01*
X148545740Y-97294000D01*
X148479558Y-97287482D01*
X148413373Y-97280963D01*
X148243534Y-97229443D01*
X148087009Y-97145778D01*
X148026156Y-97095837D01*
X147949814Y-97033186D01*
X147866552Y-96931729D01*
X147837222Y-96895991D01*
X147753557Y-96739466D01*
X147702037Y-96569627D01*
X147684641Y-96393000D01*
X147702037Y-96216373D01*
X147753557Y-96046534D01*
X147837222Y-95890009D01*
X147866552Y-95854271D01*
X147949814Y-95752814D01*
X148051271Y-95669552D01*
X148087009Y-95640222D01*
X148243534Y-95556557D01*
X148413373Y-95505037D01*
X148479557Y-95498519D01*
X148545740Y-95492000D01*
X148634260Y-95492000D01*
X148700442Y-95498518D01*
X148700442Y-95498518D01*
G37*
G36*
X138940442Y-95498518D02*
G01*
X139006627Y-95505037D01*
X139176466Y-95556557D01*
X139332991Y-95640222D01*
X139368729Y-95669552D01*
X139470186Y-95752814D01*
X139553448Y-95854271D01*
X139582778Y-95890009D01*
X139666443Y-96046534D01*
X139717963Y-96216373D01*
X139735359Y-96393000D01*
X139717963Y-96569627D01*
X139666443Y-96739466D01*
X139582778Y-96895991D01*
X139553448Y-96931729D01*
X139470186Y-97033186D01*
X139393844Y-97095837D01*
X139332991Y-97145778D01*
X139176466Y-97229443D01*
X139006627Y-97280963D01*
X138940443Y-97287481D01*
X138874260Y-97294000D01*
X138785740Y-97294000D01*
X138719558Y-97287482D01*
X138653373Y-97280963D01*
X138483534Y-97229443D01*
X138327009Y-97145778D01*
X138266156Y-97095837D01*
X138189814Y-97033186D01*
X138106552Y-96931729D01*
X138077222Y-96895991D01*
X137993557Y-96739466D01*
X137942037Y-96569627D01*
X137924641Y-96393000D01*
X137942037Y-96216373D01*
X137993557Y-96046534D01*
X138077222Y-95890009D01*
X138106552Y-95854271D01*
X138189814Y-95752814D01*
X138291271Y-95669552D01*
X138327009Y-95640222D01*
X138483534Y-95556557D01*
X138653373Y-95505037D01*
X138719557Y-95498519D01*
X138785740Y-95492000D01*
X138874260Y-95492000D01*
X138940442Y-95498518D01*
X138940442Y-95498518D01*
G37*
G36*
X145618468Y-96143065D02*
G01*
X145657138Y-96154796D01*
X145692777Y-96173846D01*
X145724017Y-96199483D01*
X145749654Y-96230723D01*
X145768704Y-96266362D01*
X145780435Y-96305032D01*
X145785000Y-96351388D01*
X145785000Y-97002612D01*
X145780435Y-97048968D01*
X145768704Y-97087638D01*
X145749654Y-97123277D01*
X145724017Y-97154517D01*
X145692777Y-97180154D01*
X145657138Y-97199204D01*
X145618468Y-97210935D01*
X145572112Y-97215500D01*
X144495888Y-97215500D01*
X144449532Y-97210935D01*
X144410862Y-97199204D01*
X144375223Y-97180154D01*
X144343983Y-97154517D01*
X144318346Y-97123277D01*
X144299296Y-97087638D01*
X144287565Y-97048968D01*
X144283000Y-97002612D01*
X144283000Y-96351388D01*
X144287565Y-96305032D01*
X144299296Y-96266362D01*
X144318346Y-96230723D01*
X144343983Y-96199483D01*
X144375223Y-96173846D01*
X144410862Y-96154796D01*
X144449532Y-96143065D01*
X144495888Y-96138500D01*
X145572112Y-96138500D01*
X145618468Y-96143065D01*
X145618468Y-96143065D01*
G37*
G36*
X142189468Y-96143065D02*
G01*
X142228138Y-96154796D01*
X142263777Y-96173846D01*
X142295017Y-96199483D01*
X142320654Y-96230723D01*
X142339704Y-96266362D01*
X142351435Y-96305032D01*
X142356000Y-96351388D01*
X142356000Y-97002612D01*
X142351435Y-97048968D01*
X142339704Y-97087638D01*
X142320654Y-97123277D01*
X142295017Y-97154517D01*
X142263777Y-97180154D01*
X142228138Y-97199204D01*
X142189468Y-97210935D01*
X142143112Y-97215500D01*
X141066888Y-97215500D01*
X141020532Y-97210935D01*
X140981862Y-97199204D01*
X140946223Y-97180154D01*
X140914983Y-97154517D01*
X140889346Y-97123277D01*
X140870296Y-97087638D01*
X140858565Y-97048968D01*
X140854000Y-97002612D01*
X140854000Y-96351388D01*
X140858565Y-96305032D01*
X140870296Y-96266362D01*
X140889346Y-96230723D01*
X140914983Y-96199483D01*
X140946223Y-96173846D01*
X140981862Y-96154796D01*
X141020532Y-96143065D01*
X141066888Y-96138500D01*
X142143112Y-96138500D01*
X142189468Y-96143065D01*
X142189468Y-96143065D01*
G37*
G36*
X138940442Y-92958518D02*
G01*
X139006627Y-92965037D01*
X139176466Y-93016557D01*
X139332991Y-93100222D01*
X139368729Y-93129552D01*
X139470186Y-93212814D01*
X139553448Y-93314271D01*
X139582778Y-93350009D01*
X139666443Y-93506534D01*
X139717963Y-93676373D01*
X139735359Y-93853000D01*
X139717963Y-94029627D01*
X139666443Y-94199466D01*
X139582778Y-94355991D01*
X139554344Y-94390638D01*
X139470186Y-94493186D01*
X139368729Y-94576448D01*
X139332991Y-94605778D01*
X139176466Y-94689443D01*
X139006627Y-94740963D01*
X138940442Y-94747482D01*
X138874260Y-94754000D01*
X138785740Y-94754000D01*
X138719557Y-94747481D01*
X138653373Y-94740963D01*
X138483534Y-94689443D01*
X138327009Y-94605778D01*
X138291271Y-94576448D01*
X138189814Y-94493186D01*
X138105656Y-94390638D01*
X138077222Y-94355991D01*
X137993557Y-94199466D01*
X137942037Y-94029627D01*
X137924641Y-93853000D01*
X137942037Y-93676373D01*
X137993557Y-93506534D01*
X138077222Y-93350009D01*
X138106552Y-93314271D01*
X138189814Y-93212814D01*
X138291271Y-93129552D01*
X138327009Y-93100222D01*
X138483534Y-93016557D01*
X138653373Y-92965037D01*
X138719558Y-92958518D01*
X138785740Y-92952000D01*
X138874260Y-92952000D01*
X138940442Y-92958518D01*
X138940442Y-92958518D01*
G37*
G36*
X148700442Y-92958518D02*
G01*
X148766627Y-92965037D01*
X148936466Y-93016557D01*
X149092991Y-93100222D01*
X149128729Y-93129552D01*
X149230186Y-93212814D01*
X149313448Y-93314271D01*
X149342778Y-93350009D01*
X149426443Y-93506534D01*
X149477963Y-93676373D01*
X149495359Y-93853000D01*
X149477963Y-94029627D01*
X149426443Y-94199466D01*
X149342778Y-94355991D01*
X149314344Y-94390638D01*
X149230186Y-94493186D01*
X149128729Y-94576448D01*
X149092991Y-94605778D01*
X148936466Y-94689443D01*
X148766627Y-94740963D01*
X148700442Y-94747482D01*
X148634260Y-94754000D01*
X148545740Y-94754000D01*
X148479557Y-94747481D01*
X148413373Y-94740963D01*
X148243534Y-94689443D01*
X148087009Y-94605778D01*
X148051271Y-94576448D01*
X147949814Y-94493186D01*
X147865656Y-94390638D01*
X147837222Y-94355991D01*
X147753557Y-94199466D01*
X147702037Y-94029627D01*
X147684641Y-93853000D01*
X147702037Y-93676373D01*
X147753557Y-93506534D01*
X147837222Y-93350009D01*
X147866552Y-93314271D01*
X147949814Y-93212814D01*
X148051271Y-93129552D01*
X148087009Y-93100222D01*
X148243534Y-93016557D01*
X148413373Y-92965037D01*
X148479558Y-92958518D01*
X148545740Y-92952000D01*
X148634260Y-92952000D01*
X148700442Y-92958518D01*
X148700442Y-92958518D01*
G37*
G36*
X145745468Y-93446065D02*
G01*
X145784138Y-93457796D01*
X145819777Y-93476846D01*
X145851017Y-93502483D01*
X145876654Y-93533723D01*
X145895704Y-93569362D01*
X145907435Y-93608032D01*
X145912000Y-93654388D01*
X145912000Y-94305612D01*
X145907435Y-94351968D01*
X145895704Y-94390638D01*
X145876654Y-94426277D01*
X145851017Y-94457517D01*
X145819777Y-94483154D01*
X145784138Y-94502204D01*
X145745468Y-94513935D01*
X145699112Y-94518500D01*
X144622888Y-94518500D01*
X144576532Y-94513935D01*
X144537862Y-94502204D01*
X144502223Y-94483154D01*
X144470983Y-94457517D01*
X144445346Y-94426277D01*
X144426296Y-94390638D01*
X144414565Y-94351968D01*
X144410000Y-94305612D01*
X144410000Y-93654388D01*
X144414565Y-93608032D01*
X144426296Y-93569362D01*
X144445346Y-93533723D01*
X144470983Y-93502483D01*
X144502223Y-93476846D01*
X144537862Y-93457796D01*
X144576532Y-93446065D01*
X144622888Y-93441500D01*
X145699112Y-93441500D01*
X145745468Y-93446065D01*
X145745468Y-93446065D01*
G37*
G36*
X145745468Y-91571065D02*
G01*
X145784138Y-91582796D01*
X145819777Y-91601846D01*
X145851017Y-91627483D01*
X145876654Y-91658723D01*
X145895704Y-91694362D01*
X145907435Y-91733032D01*
X145912000Y-91779388D01*
X145912000Y-92430612D01*
X145907435Y-92476968D01*
X145895704Y-92515638D01*
X145876654Y-92551277D01*
X145851017Y-92582517D01*
X145819777Y-92608154D01*
X145784138Y-92627204D01*
X145745468Y-92638935D01*
X145699112Y-92643500D01*
X144622888Y-92643500D01*
X144576532Y-92638935D01*
X144537862Y-92627204D01*
X144502223Y-92608154D01*
X144470983Y-92582517D01*
X144445346Y-92551277D01*
X144426296Y-92515638D01*
X144414565Y-92476968D01*
X144410000Y-92430612D01*
X144410000Y-91779388D01*
X144414565Y-91733032D01*
X144426296Y-91694362D01*
X144445346Y-91658723D01*
X144470983Y-91627483D01*
X144502223Y-91601846D01*
X144537862Y-91582796D01*
X144576532Y-91571065D01*
X144622888Y-91566500D01*
X145699112Y-91566500D01*
X145745468Y-91571065D01*
X145745468Y-91571065D01*
G37*
G36*
X138940443Y-90418519D02*
G01*
X139006627Y-90425037D01*
X139176466Y-90476557D01*
X139332991Y-90560222D01*
X139368729Y-90589552D01*
X139470186Y-90672814D01*
X139553448Y-90774271D01*
X139582778Y-90810009D01*
X139666443Y-90966534D01*
X139717963Y-91136373D01*
X139735359Y-91313000D01*
X139717963Y-91489627D01*
X139666443Y-91659466D01*
X139582778Y-91815991D01*
X139566562Y-91835750D01*
X139470186Y-91953186D01*
X139368729Y-92036448D01*
X139332991Y-92065778D01*
X139176466Y-92149443D01*
X139006627Y-92200963D01*
X138940442Y-92207482D01*
X138874260Y-92214000D01*
X138785740Y-92214000D01*
X138719558Y-92207482D01*
X138653373Y-92200963D01*
X138483534Y-92149443D01*
X138327009Y-92065778D01*
X138291271Y-92036448D01*
X138189814Y-91953186D01*
X138093438Y-91835750D01*
X138077222Y-91815991D01*
X137993557Y-91659466D01*
X137942037Y-91489627D01*
X137924641Y-91313000D01*
X137942037Y-91136373D01*
X137993557Y-90966534D01*
X138077222Y-90810009D01*
X138106552Y-90774271D01*
X138189814Y-90672814D01*
X138291271Y-90589552D01*
X138327009Y-90560222D01*
X138483534Y-90476557D01*
X138653373Y-90425037D01*
X138719557Y-90418519D01*
X138785740Y-90412000D01*
X138874260Y-90412000D01*
X138940443Y-90418519D01*
X138940443Y-90418519D01*
G37*
G36*
X148700443Y-90418519D02*
G01*
X148766627Y-90425037D01*
X148936466Y-90476557D01*
X149092991Y-90560222D01*
X149128729Y-90589552D01*
X149230186Y-90672814D01*
X149313448Y-90774271D01*
X149342778Y-90810009D01*
X149426443Y-90966534D01*
X149477963Y-91136373D01*
X149495359Y-91313000D01*
X149477963Y-91489627D01*
X149426443Y-91659466D01*
X149342778Y-91815991D01*
X149326562Y-91835750D01*
X149230186Y-91953186D01*
X149128729Y-92036448D01*
X149092991Y-92065778D01*
X148936466Y-92149443D01*
X148766627Y-92200963D01*
X148700442Y-92207482D01*
X148634260Y-92214000D01*
X148545740Y-92214000D01*
X148479558Y-92207482D01*
X148413373Y-92200963D01*
X148243534Y-92149443D01*
X148087009Y-92065778D01*
X148051271Y-92036448D01*
X147949814Y-91953186D01*
X147853438Y-91835750D01*
X147837222Y-91815991D01*
X147753557Y-91659466D01*
X147702037Y-91489627D01*
X147684641Y-91313000D01*
X147702037Y-91136373D01*
X147753557Y-90966534D01*
X147837222Y-90810009D01*
X147866552Y-90774271D01*
X147949814Y-90672814D01*
X148051271Y-90589552D01*
X148087009Y-90560222D01*
X148243534Y-90476557D01*
X148413373Y-90425037D01*
X148479557Y-90418519D01*
X148545740Y-90412000D01*
X148634260Y-90412000D01*
X148700443Y-90418519D01*
X148700443Y-90418519D01*
G37*
G36*
X149999000Y-86626000D02*
G01*
X148197000Y-86626000D01*
X148197000Y-84824000D01*
X149999000Y-84824000D01*
X149999000Y-86626000D01*
X149999000Y-86626000D01*
G37*
G36*
X144919000Y-86626000D02*
G01*
X143117000Y-86626000D01*
X143117000Y-84824000D01*
X144919000Y-84824000D01*
X144919000Y-86626000D01*
X144919000Y-86626000D01*
G37*
G36*
X139712000Y-86499000D02*
G01*
X137910000Y-86499000D01*
X137910000Y-84697000D01*
X139712000Y-84697000D01*
X139712000Y-86499000D01*
X139712000Y-86499000D01*
G37*
G36*
X144128443Y-82290519D02*
G01*
X144194627Y-82297037D01*
X144364466Y-82348557D01*
X144520991Y-82432222D01*
X144556729Y-82461552D01*
X144658186Y-82544814D01*
X144741448Y-82646271D01*
X144770778Y-82682009D01*
X144854443Y-82838534D01*
X144905963Y-83008373D01*
X144923359Y-83185000D01*
X144905963Y-83361627D01*
X144854443Y-83531466D01*
X144770778Y-83687991D01*
X144762411Y-83698186D01*
X144658186Y-83825186D01*
X144556729Y-83908448D01*
X144520991Y-83937778D01*
X144364466Y-84021443D01*
X144194627Y-84072963D01*
X144128443Y-84079481D01*
X144062260Y-84086000D01*
X143973740Y-84086000D01*
X143907557Y-84079481D01*
X143841373Y-84072963D01*
X143671534Y-84021443D01*
X143515009Y-83937778D01*
X143479271Y-83908448D01*
X143377814Y-83825186D01*
X143273589Y-83698186D01*
X143265222Y-83687991D01*
X143181557Y-83531466D01*
X143130037Y-83361627D01*
X143112641Y-83185000D01*
X143130037Y-83008373D01*
X143181557Y-82838534D01*
X143265222Y-82682009D01*
X143294552Y-82646271D01*
X143377814Y-82544814D01*
X143479271Y-82461552D01*
X143515009Y-82432222D01*
X143671534Y-82348557D01*
X143841373Y-82297037D01*
X143907557Y-82290519D01*
X143973740Y-82284000D01*
X144062260Y-82284000D01*
X144128443Y-82290519D01*
X144128443Y-82290519D01*
G37*
G36*
X149208443Y-82290519D02*
G01*
X149274627Y-82297037D01*
X149444466Y-82348557D01*
X149600991Y-82432222D01*
X149636729Y-82461552D01*
X149738186Y-82544814D01*
X149821448Y-82646271D01*
X149850778Y-82682009D01*
X149934443Y-82838534D01*
X149985963Y-83008373D01*
X150003359Y-83185000D01*
X149985963Y-83361627D01*
X149934443Y-83531466D01*
X149850778Y-83687991D01*
X149842411Y-83698186D01*
X149738186Y-83825186D01*
X149636729Y-83908448D01*
X149600991Y-83937778D01*
X149444466Y-84021443D01*
X149274627Y-84072963D01*
X149208443Y-84079481D01*
X149142260Y-84086000D01*
X149053740Y-84086000D01*
X148987557Y-84079481D01*
X148921373Y-84072963D01*
X148751534Y-84021443D01*
X148595009Y-83937778D01*
X148559271Y-83908448D01*
X148457814Y-83825186D01*
X148353589Y-83698186D01*
X148345222Y-83687991D01*
X148261557Y-83531466D01*
X148210037Y-83361627D01*
X148192641Y-83185000D01*
X148210037Y-83008373D01*
X148261557Y-82838534D01*
X148345222Y-82682009D01*
X148374552Y-82646271D01*
X148457814Y-82544814D01*
X148559271Y-82461552D01*
X148595009Y-82432222D01*
X148751534Y-82348557D01*
X148921373Y-82297037D01*
X148987557Y-82290519D01*
X149053740Y-82284000D01*
X149142260Y-82284000D01*
X149208443Y-82290519D01*
X149208443Y-82290519D01*
G37*
G36*
X138921442Y-82163518D02*
G01*
X138987627Y-82170037D01*
X139157466Y-82221557D01*
X139313991Y-82305222D01*
X139349729Y-82334552D01*
X139451186Y-82417814D01*
X139534448Y-82519271D01*
X139563778Y-82555009D01*
X139647443Y-82711534D01*
X139698963Y-82881373D01*
X139716359Y-83058000D01*
X139698963Y-83234627D01*
X139647443Y-83404466D01*
X139563778Y-83560991D01*
X139534448Y-83596729D01*
X139451186Y-83698186D01*
X139349729Y-83781448D01*
X139313991Y-83810778D01*
X139157466Y-83894443D01*
X138987627Y-83945963D01*
X138921442Y-83952482D01*
X138855260Y-83959000D01*
X138766740Y-83959000D01*
X138700558Y-83952482D01*
X138634373Y-83945963D01*
X138464534Y-83894443D01*
X138308009Y-83810778D01*
X138272271Y-83781448D01*
X138170814Y-83698186D01*
X138087552Y-83596729D01*
X138058222Y-83560991D01*
X137974557Y-83404466D01*
X137923037Y-83234627D01*
X137905641Y-83058000D01*
X137923037Y-82881373D01*
X137974557Y-82711534D01*
X138058222Y-82555009D01*
X138087552Y-82519271D01*
X138170814Y-82417814D01*
X138272271Y-82334552D01*
X138308009Y-82305222D01*
X138464534Y-82221557D01*
X138634373Y-82170037D01*
X138700558Y-82163518D01*
X138766740Y-82157000D01*
X138855260Y-82157000D01*
X138921442Y-82163518D01*
X138921442Y-82163518D01*
G37*
G36*
X143900601Y-76122397D02*
G01*
X143939305Y-76130096D01*
X143971340Y-76143365D01*
X144048680Y-76175400D01*
X144147115Y-76241173D01*
X144230827Y-76324885D01*
X144296600Y-76423320D01*
X144341904Y-76532696D01*
X144365000Y-76648805D01*
X144365000Y-76767195D01*
X144341904Y-76883304D01*
X144296600Y-76992680D01*
X144230827Y-77091115D01*
X144147115Y-77174827D01*
X144048680Y-77240600D01*
X143971340Y-77272635D01*
X143939305Y-77285904D01*
X143900601Y-77293603D01*
X143823195Y-77309000D01*
X143704805Y-77309000D01*
X143627399Y-77293603D01*
X143588695Y-77285904D01*
X143556660Y-77272635D01*
X143479320Y-77240600D01*
X143380885Y-77174827D01*
X143297173Y-77091115D01*
X143231400Y-76992680D01*
X143186096Y-76883304D01*
X143163000Y-76767195D01*
X143163000Y-76648805D01*
X143186096Y-76532696D01*
X143231400Y-76423320D01*
X143297173Y-76324885D01*
X143380885Y-76241173D01*
X143479320Y-76175400D01*
X143556660Y-76143365D01*
X143588695Y-76130096D01*
X143627399Y-76122397D01*
X143704805Y-76107000D01*
X143823195Y-76107000D01*
X143900601Y-76122397D01*
X143900601Y-76122397D01*
G37*
G36*
X141360601Y-76122397D02*
G01*
X141399305Y-76130096D01*
X141431340Y-76143365D01*
X141508680Y-76175400D01*
X141607115Y-76241173D01*
X141690827Y-76324885D01*
X141756600Y-76423320D01*
X141801904Y-76532696D01*
X141825000Y-76648805D01*
X141825000Y-76767195D01*
X141801904Y-76883304D01*
X141756600Y-76992680D01*
X141690827Y-77091115D01*
X141607115Y-77174827D01*
X141508680Y-77240600D01*
X141431340Y-77272635D01*
X141399305Y-77285904D01*
X141360601Y-77293603D01*
X141283195Y-77309000D01*
X141164805Y-77309000D01*
X141087399Y-77293603D01*
X141048695Y-77285904D01*
X141016660Y-77272635D01*
X140939320Y-77240600D01*
X140840885Y-77174827D01*
X140757173Y-77091115D01*
X140691400Y-76992680D01*
X140646096Y-76883304D01*
X140623000Y-76767195D01*
X140623000Y-76648805D01*
X140646096Y-76532696D01*
X140691400Y-76423320D01*
X140757173Y-76324885D01*
X140840885Y-76241173D01*
X140939320Y-76175400D01*
X141016660Y-76143365D01*
X141048695Y-76130096D01*
X141087399Y-76122397D01*
X141164805Y-76107000D01*
X141283195Y-76107000D01*
X141360601Y-76122397D01*
X141360601Y-76122397D01*
G37*
G36*
X146440601Y-76122397D02*
G01*
X146479305Y-76130096D01*
X146511340Y-76143365D01*
X146588680Y-76175400D01*
X146687115Y-76241173D01*
X146770827Y-76324885D01*
X146836600Y-76423320D01*
X146881904Y-76532696D01*
X146905000Y-76648805D01*
X146905000Y-76767195D01*
X146881904Y-76883304D01*
X146836600Y-76992680D01*
X146770827Y-77091115D01*
X146687115Y-77174827D01*
X146588680Y-77240600D01*
X146511340Y-77272635D01*
X146479305Y-77285904D01*
X146440601Y-77293603D01*
X146363195Y-77309000D01*
X146244805Y-77309000D01*
X146167399Y-77293603D01*
X146128695Y-77285904D01*
X146096660Y-77272635D01*
X146019320Y-77240600D01*
X145920885Y-77174827D01*
X145837173Y-77091115D01*
X145771400Y-76992680D01*
X145726096Y-76883304D01*
X145703000Y-76767195D01*
X145703000Y-76648805D01*
X145726096Y-76532696D01*
X145771400Y-76423320D01*
X145837173Y-76324885D01*
X145920885Y-76241173D01*
X146019320Y-76175400D01*
X146096660Y-76143365D01*
X146128695Y-76130096D01*
X146167399Y-76122397D01*
X146244805Y-76107000D01*
X146363195Y-76107000D01*
X146440601Y-76122397D01*
X146440601Y-76122397D01*
G37*
G36*
X142375000Y-73982007D02*
G01*
X142377402Y-74006393D01*
X142384515Y-74029842D01*
X142396066Y-74051453D01*
X142411611Y-74070395D01*
X142430553Y-74085940D01*
X142452164Y-74097491D01*
X142475613Y-74104604D01*
X142499999Y-74107006D01*
X142524385Y-74104604D01*
X142547834Y-74097491D01*
X142569445Y-74085940D01*
X142588387Y-74070395D01*
X142603932Y-74051453D01*
X142615483Y-74029842D01*
X142622596Y-74006393D01*
X142657232Y-73832267D01*
X142743996Y-73622799D01*
X142770447Y-73583212D01*
X142869960Y-73434280D01*
X143030280Y-73273960D01*
X143218797Y-73147997D01*
X143428266Y-73061232D01*
X143539451Y-73039116D01*
X143650635Y-73017000D01*
X143877365Y-73017000D01*
X143988549Y-73039116D01*
X144099734Y-73061232D01*
X144309203Y-73147997D01*
X144497720Y-73273960D01*
X144658040Y-73434280D01*
X144757553Y-73583212D01*
X144784004Y-73622799D01*
X144870768Y-73832267D01*
X144911403Y-74036552D01*
X144918516Y-74060001D01*
X144930067Y-74081612D01*
X144945612Y-74100554D01*
X144964554Y-74116099D01*
X144986165Y-74127650D01*
X145009614Y-74134763D01*
X145034000Y-74137165D01*
X145058386Y-74134763D01*
X145081835Y-74127650D01*
X145103446Y-74116099D01*
X145122388Y-74100554D01*
X145137933Y-74081612D01*
X145149484Y-74060001D01*
X145156597Y-74036552D01*
X145197232Y-73832267D01*
X145283996Y-73622799D01*
X145310447Y-73583212D01*
X145409960Y-73434280D01*
X145570280Y-73273960D01*
X145758797Y-73147997D01*
X145968266Y-73061232D01*
X146079451Y-73039116D01*
X146190635Y-73017000D01*
X146417365Y-73017000D01*
X146528549Y-73039116D01*
X146639734Y-73061232D01*
X146849203Y-73147997D01*
X147037720Y-73273960D01*
X147198040Y-73434280D01*
X147324003Y-73622797D01*
X147410768Y-73832266D01*
X147455000Y-74054636D01*
X147455000Y-74281364D01*
X147410768Y-74503734D01*
X147324003Y-74713203D01*
X147198040Y-74901720D01*
X147037720Y-75062040D01*
X146849203Y-75188003D01*
X146639734Y-75274768D01*
X146528549Y-75296884D01*
X146417365Y-75319000D01*
X146190635Y-75319000D01*
X146079451Y-75296884D01*
X145968266Y-75274768D01*
X145758797Y-75188003D01*
X145570280Y-75062040D01*
X145409960Y-74901720D01*
X145283997Y-74713203D01*
X145197232Y-74503734D01*
X145156597Y-74299448D01*
X145149484Y-74275999D01*
X145137933Y-74254388D01*
X145122388Y-74235446D01*
X145103446Y-74219901D01*
X145081835Y-74208350D01*
X145058386Y-74201237D01*
X145034000Y-74198835D01*
X145009614Y-74201237D01*
X144986165Y-74208350D01*
X144964554Y-74219901D01*
X144945612Y-74235446D01*
X144930067Y-74254388D01*
X144918516Y-74275999D01*
X144911403Y-74299448D01*
X144870768Y-74503734D01*
X144784003Y-74713203D01*
X144658040Y-74901720D01*
X144497720Y-75062040D01*
X144309203Y-75188003D01*
X144099734Y-75274768D01*
X143988549Y-75296884D01*
X143877365Y-75319000D01*
X143650635Y-75319000D01*
X143539451Y-75296884D01*
X143428266Y-75274768D01*
X143218797Y-75188003D01*
X143030280Y-75062040D01*
X142869960Y-74901720D01*
X142743997Y-74713203D01*
X142657232Y-74503734D01*
X142622596Y-74329607D01*
X142615483Y-74306158D01*
X142603932Y-74284547D01*
X142588387Y-74265605D01*
X142569445Y-74250060D01*
X142547834Y-74238509D01*
X142524385Y-74231396D01*
X142499999Y-74228994D01*
X142475613Y-74231396D01*
X142452164Y-74238509D01*
X142430553Y-74250060D01*
X142411611Y-74265605D01*
X142396066Y-74284547D01*
X142384515Y-74306158D01*
X142377402Y-74329607D01*
X142375000Y-74353993D01*
X142375000Y-75319000D01*
X140073000Y-75319000D01*
X140073000Y-73017000D01*
X142375000Y-73017000D01*
X142375000Y-73982007D01*
X142375000Y-73982007D01*
G37*
G36*
X138009968Y-73421565D02*
G01*
X138048638Y-73433296D01*
X138084277Y-73452346D01*
X138115517Y-73477983D01*
X138141154Y-73509223D01*
X138160204Y-73544862D01*
X138171935Y-73583532D01*
X138176500Y-73629888D01*
X138176500Y-74706112D01*
X138171935Y-74752468D01*
X138160204Y-74791138D01*
X138141154Y-74826777D01*
X138115517Y-74858017D01*
X138084277Y-74883654D01*
X138048638Y-74902704D01*
X138009968Y-74914435D01*
X137963612Y-74919000D01*
X137312388Y-74919000D01*
X137266032Y-74914435D01*
X137227362Y-74902704D01*
X137191723Y-74883654D01*
X137160483Y-74858017D01*
X137134846Y-74826777D01*
X137115796Y-74791138D01*
X137104065Y-74752468D01*
X137099500Y-74706112D01*
X137099500Y-73629888D01*
X137104065Y-73583532D01*
X137115796Y-73544862D01*
X137134846Y-73509223D01*
X137160483Y-73477983D01*
X137191723Y-73452346D01*
X137227362Y-73433296D01*
X137266032Y-73421565D01*
X137312388Y-73417000D01*
X137963612Y-73417000D01*
X138009968Y-73421565D01*
X138009968Y-73421565D01*
G37*
G36*
X136134968Y-73421565D02*
G01*
X136173638Y-73433296D01*
X136209277Y-73452346D01*
X136240517Y-73477983D01*
X136266154Y-73509223D01*
X136285204Y-73544862D01*
X136296935Y-73583532D01*
X136301500Y-73629888D01*
X136301500Y-74706112D01*
X136296935Y-74752468D01*
X136285204Y-74791138D01*
X136266154Y-74826777D01*
X136240517Y-74858017D01*
X136209277Y-74883654D01*
X136173638Y-74902704D01*
X136134968Y-74914435D01*
X136088612Y-74919000D01*
X135437388Y-74919000D01*
X135391032Y-74914435D01*
X135352362Y-74902704D01*
X135316723Y-74883654D01*
X135285483Y-74858017D01*
X135259846Y-74826777D01*
X135240796Y-74791138D01*
X135229065Y-74752468D01*
X135224500Y-74706112D01*
X135224500Y-73629888D01*
X135229065Y-73583532D01*
X135240796Y-73544862D01*
X135259846Y-73509223D01*
X135285483Y-73477983D01*
X135316723Y-73452346D01*
X135352362Y-73433296D01*
X135391032Y-73421565D01*
X135437388Y-73417000D01*
X136088612Y-73417000D01*
X136134968Y-73421565D01*
X136134968Y-73421565D01*
G37*
M02*
