M48
; DRILL file {KiCad (5.1.0)-1} date 4/3/2019 8:49:55 PM
; FORMAT={-:-/ absolute / metric / decimal}
; #@! TF.CreationDate,2019-04-03T20:49:55-04:00
; #@! TF.GenerationSoftware,Kicad,Pcbnew,(5.1.0)-1
; #@! TF.FileFunction,Plated,1,2,PTH
FMAT,2
METRIC
T1C0.400
T2C1.000
T3C1.100
%
G90
G05
T1
X141.605Y-100.076
X145.034Y-100.076
X146.431Y-80.772
X146.431Y-91.059
T2
X144.018Y-83.185
X144.018Y-85.725
X138.811Y-83.058
X138.811Y-85.598
X138.83Y-91.313
X138.83Y-93.853
X138.83Y-96.393
X138.83Y-98.933
X148.59Y-91.313
X148.59Y-93.853
X148.59Y-96.393
X148.59Y-98.933
X148.59Y-101.473
X149.098Y-83.185
X149.098Y-85.725
T3
X141.224Y-74.168
X143.764Y-74.168
X146.304Y-74.168
T0
M30
