G04 #@! TF.GenerationSoftware,KiCad,Pcbnew,(5.1.0)-1*
G04 #@! TF.CreationDate,2019-04-03T20:49:52-04:00*
G04 #@! TF.ProjectId,3wireducer_daughter,33776972-6564-4756-9365-725f64617567,rev?*
G04 #@! TF.SameCoordinates,Original*
G04 #@! TF.FileFunction,Copper,L2,Bot*
G04 #@! TF.FilePolarity,Positive*
%FSLAX46Y46*%
G04 Gerber Fmt 4.6, Leading zero omitted, Abs format (unit mm)*
G04 Created by KiCad (PCBNEW (5.1.0)-1) date 2019-04-03 20:49:52*
%MOMM*%
%LPD*%
G04 APERTURE LIST*
%ADD10O,1.700000X1.700000*%
%ADD11R,2.200000X2.200000*%
%ADD12C,2.200000*%
%ADD13R,1.700000X1.700000*%
%ADD14C,0.800000*%
%ADD15C,0.250000*%
%ADD16C,0.254000*%
G04 APERTURE END LIST*
D10*
X148590000Y-101473000D03*
X138830000Y-98933000D03*
X148590000Y-98933000D03*
X138830000Y-96393000D03*
X148590000Y-96393000D03*
X138830000Y-93853000D03*
X148590000Y-93853000D03*
X138830000Y-91313000D03*
X148590000Y-91313000D03*
D11*
X141224000Y-74168000D03*
D12*
X143764000Y-74168000D03*
X146304000Y-74168000D03*
D13*
X149098000Y-85725000D03*
D10*
X149098000Y-83185000D03*
X144018000Y-83185000D03*
D13*
X144018000Y-85725000D03*
X138811000Y-85598000D03*
D10*
X138811000Y-83058000D03*
D14*
X145034000Y-100076000D03*
X141605000Y-100076000D03*
X146431000Y-91059000D03*
X146431000Y-80772000D03*
D15*
X146431000Y-91059000D02*
X146431000Y-80772000D01*
D16*
G36*
X151826210Y-71306072D02*
G01*
X152129413Y-71397614D01*
X152409064Y-71546307D01*
X152654505Y-71746484D01*
X152856391Y-71990521D01*
X153007031Y-72269125D01*
X153100690Y-72571688D01*
X153137000Y-72917158D01*
X153137001Y-106901711D01*
X153102928Y-107249209D01*
X153011384Y-107552417D01*
X152862693Y-107832063D01*
X152662516Y-108077505D01*
X152418476Y-108279392D01*
X152139875Y-108430031D01*
X151837313Y-108523690D01*
X151491842Y-108560000D01*
X135795279Y-108560000D01*
X135447791Y-108525928D01*
X135144583Y-108434384D01*
X134864937Y-108285693D01*
X134619495Y-108085516D01*
X134417608Y-107841476D01*
X134266969Y-107562875D01*
X134173310Y-107260313D01*
X134137000Y-106914842D01*
X134137000Y-98933000D01*
X137337815Y-98933000D01*
X137366487Y-99224111D01*
X137451401Y-99504034D01*
X137589294Y-99762014D01*
X137774866Y-99988134D01*
X138000986Y-100173706D01*
X138258966Y-100311599D01*
X138538889Y-100396513D01*
X138757050Y-100418000D01*
X138902950Y-100418000D01*
X139121111Y-100396513D01*
X139401034Y-100311599D01*
X139659014Y-100173706D01*
X139885134Y-99988134D01*
X140070706Y-99762014D01*
X140208599Y-99504034D01*
X140293513Y-99224111D01*
X140322185Y-98933000D01*
X147097815Y-98933000D01*
X147126487Y-99224111D01*
X147211401Y-99504034D01*
X147349294Y-99762014D01*
X147534866Y-99988134D01*
X147760986Y-100173706D01*
X147815791Y-100203000D01*
X147760986Y-100232294D01*
X147534866Y-100417866D01*
X147349294Y-100643986D01*
X147211401Y-100901966D01*
X147126487Y-101181889D01*
X147097815Y-101473000D01*
X147126487Y-101764111D01*
X147211401Y-102044034D01*
X147349294Y-102302014D01*
X147534866Y-102528134D01*
X147760986Y-102713706D01*
X148018966Y-102851599D01*
X148298889Y-102936513D01*
X148517050Y-102958000D01*
X148662950Y-102958000D01*
X148881111Y-102936513D01*
X149161034Y-102851599D01*
X149419014Y-102713706D01*
X149645134Y-102528134D01*
X149830706Y-102302014D01*
X149968599Y-102044034D01*
X150053513Y-101764111D01*
X150082185Y-101473000D01*
X150053513Y-101181889D01*
X149968599Y-100901966D01*
X149830706Y-100643986D01*
X149645134Y-100417866D01*
X149419014Y-100232294D01*
X149364209Y-100203000D01*
X149419014Y-100173706D01*
X149645134Y-99988134D01*
X149830706Y-99762014D01*
X149968599Y-99504034D01*
X150053513Y-99224111D01*
X150082185Y-98933000D01*
X150053513Y-98641889D01*
X149968599Y-98361966D01*
X149830706Y-98103986D01*
X149645134Y-97877866D01*
X149419014Y-97692294D01*
X149354477Y-97657799D01*
X149471355Y-97588178D01*
X149687588Y-97393269D01*
X149861641Y-97159920D01*
X149986825Y-96897099D01*
X150031476Y-96749890D01*
X149910155Y-96520000D01*
X148717000Y-96520000D01*
X148717000Y-96540000D01*
X148463000Y-96540000D01*
X148463000Y-96520000D01*
X147269845Y-96520000D01*
X147148524Y-96749890D01*
X147193175Y-96897099D01*
X147318359Y-97159920D01*
X147492412Y-97393269D01*
X147708645Y-97588178D01*
X147825523Y-97657799D01*
X147760986Y-97692294D01*
X147534866Y-97877866D01*
X147349294Y-98103986D01*
X147211401Y-98361966D01*
X147126487Y-98641889D01*
X147097815Y-98933000D01*
X140322185Y-98933000D01*
X140293513Y-98641889D01*
X140208599Y-98361966D01*
X140070706Y-98103986D01*
X139885134Y-97877866D01*
X139659014Y-97692294D01*
X139594477Y-97657799D01*
X139711355Y-97588178D01*
X139927588Y-97393269D01*
X140101641Y-97159920D01*
X140226825Y-96897099D01*
X140271476Y-96749890D01*
X140150155Y-96520000D01*
X138957000Y-96520000D01*
X138957000Y-96540000D01*
X138703000Y-96540000D01*
X138703000Y-96520000D01*
X137509845Y-96520000D01*
X137388524Y-96749890D01*
X137433175Y-96897099D01*
X137558359Y-97159920D01*
X137732412Y-97393269D01*
X137948645Y-97588178D01*
X138065523Y-97657799D01*
X138000986Y-97692294D01*
X137774866Y-97877866D01*
X137589294Y-98103986D01*
X137451401Y-98361966D01*
X137366487Y-98641889D01*
X137337815Y-98933000D01*
X134137000Y-98933000D01*
X134137000Y-94209890D01*
X137388524Y-94209890D01*
X137433175Y-94357099D01*
X137558359Y-94619920D01*
X137732412Y-94853269D01*
X137948645Y-95048178D01*
X138074255Y-95123000D01*
X137948645Y-95197822D01*
X137732412Y-95392731D01*
X137558359Y-95626080D01*
X137433175Y-95888901D01*
X137388524Y-96036110D01*
X137509845Y-96266000D01*
X138703000Y-96266000D01*
X138703000Y-93980000D01*
X138957000Y-93980000D01*
X138957000Y-96266000D01*
X140150155Y-96266000D01*
X140271476Y-96036110D01*
X140226825Y-95888901D01*
X140101641Y-95626080D01*
X139927588Y-95392731D01*
X139711355Y-95197822D01*
X139585745Y-95123000D01*
X139711355Y-95048178D01*
X139927588Y-94853269D01*
X140101641Y-94619920D01*
X140226825Y-94357099D01*
X140271476Y-94209890D01*
X140150155Y-93980000D01*
X138957000Y-93980000D01*
X138703000Y-93980000D01*
X137509845Y-93980000D01*
X137388524Y-94209890D01*
X134137000Y-94209890D01*
X134137000Y-91669890D01*
X137388524Y-91669890D01*
X137433175Y-91817099D01*
X137558359Y-92079920D01*
X137732412Y-92313269D01*
X137948645Y-92508178D01*
X138074255Y-92583000D01*
X137948645Y-92657822D01*
X137732412Y-92852731D01*
X137558359Y-93086080D01*
X137433175Y-93348901D01*
X137388524Y-93496110D01*
X137509845Y-93726000D01*
X138703000Y-93726000D01*
X138703000Y-91440000D01*
X138957000Y-91440000D01*
X138957000Y-93726000D01*
X140150155Y-93726000D01*
X140271476Y-93496110D01*
X140226825Y-93348901D01*
X140101641Y-93086080D01*
X139927588Y-92852731D01*
X139711355Y-92657822D01*
X139585745Y-92583000D01*
X139711355Y-92508178D01*
X139927588Y-92313269D01*
X140101641Y-92079920D01*
X140226825Y-91817099D01*
X140271476Y-91669890D01*
X140150155Y-91440000D01*
X138957000Y-91440000D01*
X138703000Y-91440000D01*
X137509845Y-91440000D01*
X137388524Y-91669890D01*
X134137000Y-91669890D01*
X134137000Y-90956110D01*
X137388524Y-90956110D01*
X137509845Y-91186000D01*
X138703000Y-91186000D01*
X138703000Y-89992186D01*
X138957000Y-89992186D01*
X138957000Y-91186000D01*
X140150155Y-91186000D01*
X140271476Y-90956110D01*
X140226825Y-90808901D01*
X140101641Y-90546080D01*
X139927588Y-90312731D01*
X139711355Y-90117822D01*
X139461252Y-89968843D01*
X139186891Y-89871519D01*
X138957000Y-89992186D01*
X138703000Y-89992186D01*
X138473109Y-89871519D01*
X138198748Y-89968843D01*
X137948645Y-90117822D01*
X137732412Y-90312731D01*
X137558359Y-90546080D01*
X137433175Y-90808901D01*
X137388524Y-90956110D01*
X134137000Y-90956110D01*
X134137000Y-83058000D01*
X137318815Y-83058000D01*
X137347487Y-83349111D01*
X137432401Y-83629034D01*
X137570294Y-83887014D01*
X137755866Y-84113134D01*
X137785687Y-84137607D01*
X137716820Y-84158498D01*
X137606506Y-84217463D01*
X137509815Y-84296815D01*
X137430463Y-84393506D01*
X137371498Y-84503820D01*
X137335188Y-84623518D01*
X137322928Y-84748000D01*
X137322928Y-86448000D01*
X137335188Y-86572482D01*
X137371498Y-86692180D01*
X137430463Y-86802494D01*
X137509815Y-86899185D01*
X137606506Y-86978537D01*
X137716820Y-87037502D01*
X137836518Y-87073812D01*
X137961000Y-87086072D01*
X139661000Y-87086072D01*
X139785482Y-87073812D01*
X139905180Y-87037502D01*
X140015494Y-86978537D01*
X140112185Y-86899185D01*
X140191537Y-86802494D01*
X140250502Y-86692180D01*
X140286812Y-86572482D01*
X140299072Y-86448000D01*
X140299072Y-84748000D01*
X140286812Y-84623518D01*
X140250502Y-84503820D01*
X140191537Y-84393506D01*
X140112185Y-84296815D01*
X140015494Y-84217463D01*
X139905180Y-84158498D01*
X139836313Y-84137607D01*
X139866134Y-84113134D01*
X140051706Y-83887014D01*
X140189599Y-83629034D01*
X140274513Y-83349111D01*
X140290676Y-83185000D01*
X142525815Y-83185000D01*
X142554487Y-83476111D01*
X142639401Y-83756034D01*
X142777294Y-84014014D01*
X142962866Y-84240134D01*
X142992687Y-84264607D01*
X142923820Y-84285498D01*
X142813506Y-84344463D01*
X142716815Y-84423815D01*
X142637463Y-84520506D01*
X142578498Y-84630820D01*
X142542188Y-84750518D01*
X142529928Y-84875000D01*
X142529928Y-86575000D01*
X142542188Y-86699482D01*
X142578498Y-86819180D01*
X142637463Y-86929494D01*
X142716815Y-87026185D01*
X142813506Y-87105537D01*
X142923820Y-87164502D01*
X143043518Y-87200812D01*
X143168000Y-87213072D01*
X144868000Y-87213072D01*
X144992482Y-87200812D01*
X145112180Y-87164502D01*
X145222494Y-87105537D01*
X145319185Y-87026185D01*
X145398537Y-86929494D01*
X145457502Y-86819180D01*
X145493812Y-86699482D01*
X145506072Y-86575000D01*
X145506072Y-84875000D01*
X145493812Y-84750518D01*
X145457502Y-84630820D01*
X145398537Y-84520506D01*
X145319185Y-84423815D01*
X145222494Y-84344463D01*
X145112180Y-84285498D01*
X145043313Y-84264607D01*
X145073134Y-84240134D01*
X145258706Y-84014014D01*
X145396599Y-83756034D01*
X145481513Y-83476111D01*
X145510185Y-83185000D01*
X145481513Y-82893889D01*
X145396599Y-82613966D01*
X145258706Y-82355986D01*
X145073134Y-82129866D01*
X144847014Y-81944294D01*
X144589034Y-81806401D01*
X144309111Y-81721487D01*
X144090950Y-81700000D01*
X143945050Y-81700000D01*
X143726889Y-81721487D01*
X143446966Y-81806401D01*
X143188986Y-81944294D01*
X142962866Y-82129866D01*
X142777294Y-82355986D01*
X142639401Y-82613966D01*
X142554487Y-82893889D01*
X142525815Y-83185000D01*
X140290676Y-83185000D01*
X140303185Y-83058000D01*
X140274513Y-82766889D01*
X140189599Y-82486966D01*
X140051706Y-82228986D01*
X139866134Y-82002866D01*
X139640014Y-81817294D01*
X139382034Y-81679401D01*
X139102111Y-81594487D01*
X138883950Y-81573000D01*
X138738050Y-81573000D01*
X138519889Y-81594487D01*
X138239966Y-81679401D01*
X137981986Y-81817294D01*
X137755866Y-82002866D01*
X137570294Y-82228986D01*
X137432401Y-82486966D01*
X137347487Y-82766889D01*
X137318815Y-83058000D01*
X134137000Y-83058000D01*
X134137000Y-80670061D01*
X145396000Y-80670061D01*
X145396000Y-80873939D01*
X145435774Y-81073898D01*
X145513795Y-81262256D01*
X145627063Y-81431774D01*
X145671001Y-81475712D01*
X145671000Y-90355289D01*
X145627063Y-90399226D01*
X145513795Y-90568744D01*
X145435774Y-90757102D01*
X145396000Y-90957061D01*
X145396000Y-91160939D01*
X145435774Y-91360898D01*
X145513795Y-91549256D01*
X145627063Y-91718774D01*
X145771226Y-91862937D01*
X145940744Y-91976205D01*
X146129102Y-92054226D01*
X146329061Y-92094000D01*
X146532939Y-92094000D01*
X146732898Y-92054226D01*
X146921256Y-91976205D01*
X147090774Y-91862937D01*
X147178415Y-91775296D01*
X147211401Y-91884034D01*
X147349294Y-92142014D01*
X147534866Y-92368134D01*
X147760986Y-92553706D01*
X147815791Y-92583000D01*
X147760986Y-92612294D01*
X147534866Y-92797866D01*
X147349294Y-93023986D01*
X147211401Y-93281966D01*
X147126487Y-93561889D01*
X147097815Y-93853000D01*
X147126487Y-94144111D01*
X147211401Y-94424034D01*
X147349294Y-94682014D01*
X147534866Y-94908134D01*
X147760986Y-95093706D01*
X147825523Y-95128201D01*
X147708645Y-95197822D01*
X147492412Y-95392731D01*
X147318359Y-95626080D01*
X147193175Y-95888901D01*
X147148524Y-96036110D01*
X147269845Y-96266000D01*
X148463000Y-96266000D01*
X148463000Y-96246000D01*
X148717000Y-96246000D01*
X148717000Y-96266000D01*
X149910155Y-96266000D01*
X150031476Y-96036110D01*
X149986825Y-95888901D01*
X149861641Y-95626080D01*
X149687588Y-95392731D01*
X149471355Y-95197822D01*
X149354477Y-95128201D01*
X149419014Y-95093706D01*
X149645134Y-94908134D01*
X149830706Y-94682014D01*
X149968599Y-94424034D01*
X150053513Y-94144111D01*
X150082185Y-93853000D01*
X150053513Y-93561889D01*
X149968599Y-93281966D01*
X149830706Y-93023986D01*
X149645134Y-92797866D01*
X149419014Y-92612294D01*
X149364209Y-92583000D01*
X149419014Y-92553706D01*
X149645134Y-92368134D01*
X149830706Y-92142014D01*
X149968599Y-91884034D01*
X150053513Y-91604111D01*
X150082185Y-91313000D01*
X150053513Y-91021889D01*
X149968599Y-90741966D01*
X149830706Y-90483986D01*
X149645134Y-90257866D01*
X149419014Y-90072294D01*
X149161034Y-89934401D01*
X148881111Y-89849487D01*
X148662950Y-89828000D01*
X148517050Y-89828000D01*
X148298889Y-89849487D01*
X148018966Y-89934401D01*
X147760986Y-90072294D01*
X147534866Y-90257866D01*
X147349294Y-90483986D01*
X147323640Y-90531980D01*
X147234937Y-90399226D01*
X147191000Y-90355289D01*
X147191000Y-83185000D01*
X147605815Y-83185000D01*
X147634487Y-83476111D01*
X147719401Y-83756034D01*
X147857294Y-84014014D01*
X148042866Y-84240134D01*
X148072687Y-84264607D01*
X148003820Y-84285498D01*
X147893506Y-84344463D01*
X147796815Y-84423815D01*
X147717463Y-84520506D01*
X147658498Y-84630820D01*
X147622188Y-84750518D01*
X147609928Y-84875000D01*
X147609928Y-86575000D01*
X147622188Y-86699482D01*
X147658498Y-86819180D01*
X147717463Y-86929494D01*
X147796815Y-87026185D01*
X147893506Y-87105537D01*
X148003820Y-87164502D01*
X148123518Y-87200812D01*
X148248000Y-87213072D01*
X149948000Y-87213072D01*
X150072482Y-87200812D01*
X150192180Y-87164502D01*
X150302494Y-87105537D01*
X150399185Y-87026185D01*
X150478537Y-86929494D01*
X150537502Y-86819180D01*
X150573812Y-86699482D01*
X150586072Y-86575000D01*
X150586072Y-84875000D01*
X150573812Y-84750518D01*
X150537502Y-84630820D01*
X150478537Y-84520506D01*
X150399185Y-84423815D01*
X150302494Y-84344463D01*
X150192180Y-84285498D01*
X150123313Y-84264607D01*
X150153134Y-84240134D01*
X150338706Y-84014014D01*
X150476599Y-83756034D01*
X150561513Y-83476111D01*
X150590185Y-83185000D01*
X150561513Y-82893889D01*
X150476599Y-82613966D01*
X150338706Y-82355986D01*
X150153134Y-82129866D01*
X149927014Y-81944294D01*
X149669034Y-81806401D01*
X149389111Y-81721487D01*
X149170950Y-81700000D01*
X149025050Y-81700000D01*
X148806889Y-81721487D01*
X148526966Y-81806401D01*
X148268986Y-81944294D01*
X148042866Y-82129866D01*
X147857294Y-82355986D01*
X147719401Y-82613966D01*
X147634487Y-82893889D01*
X147605815Y-83185000D01*
X147191000Y-83185000D01*
X147191000Y-81475711D01*
X147234937Y-81431774D01*
X147348205Y-81262256D01*
X147426226Y-81073898D01*
X147466000Y-80873939D01*
X147466000Y-80670061D01*
X147426226Y-80470102D01*
X147348205Y-80281744D01*
X147234937Y-80112226D01*
X147090774Y-79968063D01*
X146921256Y-79854795D01*
X146732898Y-79776774D01*
X146532939Y-79737000D01*
X146329061Y-79737000D01*
X146129102Y-79776774D01*
X145940744Y-79854795D01*
X145771226Y-79968063D01*
X145627063Y-80112226D01*
X145513795Y-80281744D01*
X145435774Y-80470102D01*
X145396000Y-80670061D01*
X134137000Y-80670061D01*
X134137000Y-73068000D01*
X139485928Y-73068000D01*
X139485928Y-75268000D01*
X139498188Y-75392482D01*
X139534498Y-75512180D01*
X139593463Y-75622494D01*
X139672815Y-75719185D01*
X139769506Y-75798537D01*
X139879820Y-75857502D01*
X139999518Y-75893812D01*
X140124000Y-75906072D01*
X140350084Y-75906072D01*
X140303550Y-75952606D01*
X140173866Y-76146692D01*
X140084539Y-76362348D01*
X140039000Y-76591288D01*
X140039000Y-76824712D01*
X140084539Y-77053652D01*
X140173866Y-77269308D01*
X140303550Y-77463394D01*
X140468606Y-77628450D01*
X140662692Y-77758134D01*
X140878348Y-77847461D01*
X141107288Y-77893000D01*
X141340712Y-77893000D01*
X141569652Y-77847461D01*
X141785308Y-77758134D01*
X141979394Y-77628450D01*
X142144450Y-77463394D01*
X142274134Y-77269308D01*
X142363461Y-77053652D01*
X142409000Y-76824712D01*
X142409000Y-76591288D01*
X142363461Y-76362348D01*
X142274134Y-76146692D01*
X142144450Y-75952606D01*
X142097916Y-75906072D01*
X142324000Y-75906072D01*
X142448482Y-75893812D01*
X142568180Y-75857502D01*
X142678494Y-75798537D01*
X142775185Y-75719185D01*
X142840772Y-75639267D01*
X142844726Y-75649338D01*
X143058238Y-75754387D01*
X143008606Y-75787550D01*
X142843550Y-75952606D01*
X142713866Y-76146692D01*
X142624539Y-76362348D01*
X142579000Y-76591288D01*
X142579000Y-76824712D01*
X142624539Y-77053652D01*
X142713866Y-77269308D01*
X142843550Y-77463394D01*
X143008606Y-77628450D01*
X143202692Y-77758134D01*
X143418348Y-77847461D01*
X143647288Y-77893000D01*
X143880712Y-77893000D01*
X144109652Y-77847461D01*
X144325308Y-77758134D01*
X144519394Y-77628450D01*
X144684450Y-77463394D01*
X144814134Y-77269308D01*
X144903461Y-77053652D01*
X144949000Y-76824712D01*
X144949000Y-76591288D01*
X144903461Y-76362348D01*
X144814134Y-76146692D01*
X144684450Y-75952606D01*
X144519394Y-75787550D01*
X144475835Y-75758445D01*
X144484966Y-75755336D01*
X144683274Y-75649338D01*
X144791107Y-75374712D01*
X143764000Y-74347605D01*
X143749858Y-74361748D01*
X143570253Y-74182143D01*
X143584395Y-74168000D01*
X143943605Y-74168000D01*
X144768531Y-74992926D01*
X144956337Y-75273998D01*
X145198002Y-75515663D01*
X145482169Y-75705537D01*
X145598952Y-75753910D01*
X145548606Y-75787550D01*
X145383550Y-75952606D01*
X145253866Y-76146692D01*
X145164539Y-76362348D01*
X145119000Y-76591288D01*
X145119000Y-76824712D01*
X145164539Y-77053652D01*
X145253866Y-77269308D01*
X145383550Y-77463394D01*
X145548606Y-77628450D01*
X145742692Y-77758134D01*
X145958348Y-77847461D01*
X146187288Y-77893000D01*
X146420712Y-77893000D01*
X146649652Y-77847461D01*
X146865308Y-77758134D01*
X147059394Y-77628450D01*
X147224450Y-77463394D01*
X147354134Y-77269308D01*
X147443461Y-77053652D01*
X147489000Y-76824712D01*
X147489000Y-76591288D01*
X147443461Y-76362348D01*
X147354134Y-76146692D01*
X147224450Y-75952606D01*
X147059394Y-75787550D01*
X147009048Y-75753910D01*
X147125831Y-75705537D01*
X147409998Y-75515663D01*
X147651663Y-75273998D01*
X147841537Y-74989831D01*
X147972325Y-74674081D01*
X148039000Y-74338883D01*
X148039000Y-73997117D01*
X147972325Y-73661919D01*
X147841537Y-73346169D01*
X147651663Y-73062002D01*
X147409998Y-72820337D01*
X147125831Y-72630463D01*
X146810081Y-72499675D01*
X146474883Y-72433000D01*
X146133117Y-72433000D01*
X145797919Y-72499675D01*
X145482169Y-72630463D01*
X145198002Y-72820337D01*
X144956337Y-73062002D01*
X144768531Y-73343074D01*
X143943605Y-74168000D01*
X143584395Y-74168000D01*
X143570253Y-74153858D01*
X143749858Y-73974253D01*
X143764000Y-73988395D01*
X144791107Y-72961288D01*
X144683274Y-72686662D01*
X144376616Y-72535784D01*
X144046415Y-72447631D01*
X143705361Y-72425591D01*
X143366561Y-72470511D01*
X143043034Y-72580664D01*
X142844726Y-72686662D01*
X142840772Y-72696733D01*
X142775185Y-72616815D01*
X142678494Y-72537463D01*
X142568180Y-72478498D01*
X142448482Y-72442188D01*
X142324000Y-72429928D01*
X140124000Y-72429928D01*
X139999518Y-72442188D01*
X139879820Y-72478498D01*
X139769506Y-72537463D01*
X139672815Y-72616815D01*
X139593463Y-72713506D01*
X139534498Y-72823820D01*
X139498188Y-72943518D01*
X139485928Y-73068000D01*
X134137000Y-73068000D01*
X134137000Y-72930279D01*
X134171072Y-72582790D01*
X134262614Y-72279587D01*
X134411307Y-71999936D01*
X134611484Y-71754495D01*
X134855521Y-71552609D01*
X135134125Y-71401969D01*
X135436688Y-71308310D01*
X135782158Y-71272000D01*
X151478721Y-71272000D01*
X151826210Y-71306072D01*
X151826210Y-71306072D01*
G37*
X151826210Y-71306072D02*
X152129413Y-71397614D01*
X152409064Y-71546307D01*
X152654505Y-71746484D01*
X152856391Y-71990521D01*
X153007031Y-72269125D01*
X153100690Y-72571688D01*
X153137000Y-72917158D01*
X153137001Y-106901711D01*
X153102928Y-107249209D01*
X153011384Y-107552417D01*
X152862693Y-107832063D01*
X152662516Y-108077505D01*
X152418476Y-108279392D01*
X152139875Y-108430031D01*
X151837313Y-108523690D01*
X151491842Y-108560000D01*
X135795279Y-108560000D01*
X135447791Y-108525928D01*
X135144583Y-108434384D01*
X134864937Y-108285693D01*
X134619495Y-108085516D01*
X134417608Y-107841476D01*
X134266969Y-107562875D01*
X134173310Y-107260313D01*
X134137000Y-106914842D01*
X134137000Y-98933000D01*
X137337815Y-98933000D01*
X137366487Y-99224111D01*
X137451401Y-99504034D01*
X137589294Y-99762014D01*
X137774866Y-99988134D01*
X138000986Y-100173706D01*
X138258966Y-100311599D01*
X138538889Y-100396513D01*
X138757050Y-100418000D01*
X138902950Y-100418000D01*
X139121111Y-100396513D01*
X139401034Y-100311599D01*
X139659014Y-100173706D01*
X139885134Y-99988134D01*
X140070706Y-99762014D01*
X140208599Y-99504034D01*
X140293513Y-99224111D01*
X140322185Y-98933000D01*
X147097815Y-98933000D01*
X147126487Y-99224111D01*
X147211401Y-99504034D01*
X147349294Y-99762014D01*
X147534866Y-99988134D01*
X147760986Y-100173706D01*
X147815791Y-100203000D01*
X147760986Y-100232294D01*
X147534866Y-100417866D01*
X147349294Y-100643986D01*
X147211401Y-100901966D01*
X147126487Y-101181889D01*
X147097815Y-101473000D01*
X147126487Y-101764111D01*
X147211401Y-102044034D01*
X147349294Y-102302014D01*
X147534866Y-102528134D01*
X147760986Y-102713706D01*
X148018966Y-102851599D01*
X148298889Y-102936513D01*
X148517050Y-102958000D01*
X148662950Y-102958000D01*
X148881111Y-102936513D01*
X149161034Y-102851599D01*
X149419014Y-102713706D01*
X149645134Y-102528134D01*
X149830706Y-102302014D01*
X149968599Y-102044034D01*
X150053513Y-101764111D01*
X150082185Y-101473000D01*
X150053513Y-101181889D01*
X149968599Y-100901966D01*
X149830706Y-100643986D01*
X149645134Y-100417866D01*
X149419014Y-100232294D01*
X149364209Y-100203000D01*
X149419014Y-100173706D01*
X149645134Y-99988134D01*
X149830706Y-99762014D01*
X149968599Y-99504034D01*
X150053513Y-99224111D01*
X150082185Y-98933000D01*
X150053513Y-98641889D01*
X149968599Y-98361966D01*
X149830706Y-98103986D01*
X149645134Y-97877866D01*
X149419014Y-97692294D01*
X149354477Y-97657799D01*
X149471355Y-97588178D01*
X149687588Y-97393269D01*
X149861641Y-97159920D01*
X149986825Y-96897099D01*
X150031476Y-96749890D01*
X149910155Y-96520000D01*
X148717000Y-96520000D01*
X148717000Y-96540000D01*
X148463000Y-96540000D01*
X148463000Y-96520000D01*
X147269845Y-96520000D01*
X147148524Y-96749890D01*
X147193175Y-96897099D01*
X147318359Y-97159920D01*
X147492412Y-97393269D01*
X147708645Y-97588178D01*
X147825523Y-97657799D01*
X147760986Y-97692294D01*
X147534866Y-97877866D01*
X147349294Y-98103986D01*
X147211401Y-98361966D01*
X147126487Y-98641889D01*
X147097815Y-98933000D01*
X140322185Y-98933000D01*
X140293513Y-98641889D01*
X140208599Y-98361966D01*
X140070706Y-98103986D01*
X139885134Y-97877866D01*
X139659014Y-97692294D01*
X139594477Y-97657799D01*
X139711355Y-97588178D01*
X139927588Y-97393269D01*
X140101641Y-97159920D01*
X140226825Y-96897099D01*
X140271476Y-96749890D01*
X140150155Y-96520000D01*
X138957000Y-96520000D01*
X138957000Y-96540000D01*
X138703000Y-96540000D01*
X138703000Y-96520000D01*
X137509845Y-96520000D01*
X137388524Y-96749890D01*
X137433175Y-96897099D01*
X137558359Y-97159920D01*
X137732412Y-97393269D01*
X137948645Y-97588178D01*
X138065523Y-97657799D01*
X138000986Y-97692294D01*
X137774866Y-97877866D01*
X137589294Y-98103986D01*
X137451401Y-98361966D01*
X137366487Y-98641889D01*
X137337815Y-98933000D01*
X134137000Y-98933000D01*
X134137000Y-94209890D01*
X137388524Y-94209890D01*
X137433175Y-94357099D01*
X137558359Y-94619920D01*
X137732412Y-94853269D01*
X137948645Y-95048178D01*
X138074255Y-95123000D01*
X137948645Y-95197822D01*
X137732412Y-95392731D01*
X137558359Y-95626080D01*
X137433175Y-95888901D01*
X137388524Y-96036110D01*
X137509845Y-96266000D01*
X138703000Y-96266000D01*
X138703000Y-93980000D01*
X138957000Y-93980000D01*
X138957000Y-96266000D01*
X140150155Y-96266000D01*
X140271476Y-96036110D01*
X140226825Y-95888901D01*
X140101641Y-95626080D01*
X139927588Y-95392731D01*
X139711355Y-95197822D01*
X139585745Y-95123000D01*
X139711355Y-95048178D01*
X139927588Y-94853269D01*
X140101641Y-94619920D01*
X140226825Y-94357099D01*
X140271476Y-94209890D01*
X140150155Y-93980000D01*
X138957000Y-93980000D01*
X138703000Y-93980000D01*
X137509845Y-93980000D01*
X137388524Y-94209890D01*
X134137000Y-94209890D01*
X134137000Y-91669890D01*
X137388524Y-91669890D01*
X137433175Y-91817099D01*
X137558359Y-92079920D01*
X137732412Y-92313269D01*
X137948645Y-92508178D01*
X138074255Y-92583000D01*
X137948645Y-92657822D01*
X137732412Y-92852731D01*
X137558359Y-93086080D01*
X137433175Y-93348901D01*
X137388524Y-93496110D01*
X137509845Y-93726000D01*
X138703000Y-93726000D01*
X138703000Y-91440000D01*
X138957000Y-91440000D01*
X138957000Y-93726000D01*
X140150155Y-93726000D01*
X140271476Y-93496110D01*
X140226825Y-93348901D01*
X140101641Y-93086080D01*
X139927588Y-92852731D01*
X139711355Y-92657822D01*
X139585745Y-92583000D01*
X139711355Y-92508178D01*
X139927588Y-92313269D01*
X140101641Y-92079920D01*
X140226825Y-91817099D01*
X140271476Y-91669890D01*
X140150155Y-91440000D01*
X138957000Y-91440000D01*
X138703000Y-91440000D01*
X137509845Y-91440000D01*
X137388524Y-91669890D01*
X134137000Y-91669890D01*
X134137000Y-90956110D01*
X137388524Y-90956110D01*
X137509845Y-91186000D01*
X138703000Y-91186000D01*
X138703000Y-89992186D01*
X138957000Y-89992186D01*
X138957000Y-91186000D01*
X140150155Y-91186000D01*
X140271476Y-90956110D01*
X140226825Y-90808901D01*
X140101641Y-90546080D01*
X139927588Y-90312731D01*
X139711355Y-90117822D01*
X139461252Y-89968843D01*
X139186891Y-89871519D01*
X138957000Y-89992186D01*
X138703000Y-89992186D01*
X138473109Y-89871519D01*
X138198748Y-89968843D01*
X137948645Y-90117822D01*
X137732412Y-90312731D01*
X137558359Y-90546080D01*
X137433175Y-90808901D01*
X137388524Y-90956110D01*
X134137000Y-90956110D01*
X134137000Y-83058000D01*
X137318815Y-83058000D01*
X137347487Y-83349111D01*
X137432401Y-83629034D01*
X137570294Y-83887014D01*
X137755866Y-84113134D01*
X137785687Y-84137607D01*
X137716820Y-84158498D01*
X137606506Y-84217463D01*
X137509815Y-84296815D01*
X137430463Y-84393506D01*
X137371498Y-84503820D01*
X137335188Y-84623518D01*
X137322928Y-84748000D01*
X137322928Y-86448000D01*
X137335188Y-86572482D01*
X137371498Y-86692180D01*
X137430463Y-86802494D01*
X137509815Y-86899185D01*
X137606506Y-86978537D01*
X137716820Y-87037502D01*
X137836518Y-87073812D01*
X137961000Y-87086072D01*
X139661000Y-87086072D01*
X139785482Y-87073812D01*
X139905180Y-87037502D01*
X140015494Y-86978537D01*
X140112185Y-86899185D01*
X140191537Y-86802494D01*
X140250502Y-86692180D01*
X140286812Y-86572482D01*
X140299072Y-86448000D01*
X140299072Y-84748000D01*
X140286812Y-84623518D01*
X140250502Y-84503820D01*
X140191537Y-84393506D01*
X140112185Y-84296815D01*
X140015494Y-84217463D01*
X139905180Y-84158498D01*
X139836313Y-84137607D01*
X139866134Y-84113134D01*
X140051706Y-83887014D01*
X140189599Y-83629034D01*
X140274513Y-83349111D01*
X140290676Y-83185000D01*
X142525815Y-83185000D01*
X142554487Y-83476111D01*
X142639401Y-83756034D01*
X142777294Y-84014014D01*
X142962866Y-84240134D01*
X142992687Y-84264607D01*
X142923820Y-84285498D01*
X142813506Y-84344463D01*
X142716815Y-84423815D01*
X142637463Y-84520506D01*
X142578498Y-84630820D01*
X142542188Y-84750518D01*
X142529928Y-84875000D01*
X142529928Y-86575000D01*
X142542188Y-86699482D01*
X142578498Y-86819180D01*
X142637463Y-86929494D01*
X142716815Y-87026185D01*
X142813506Y-87105537D01*
X142923820Y-87164502D01*
X143043518Y-87200812D01*
X143168000Y-87213072D01*
X144868000Y-87213072D01*
X144992482Y-87200812D01*
X145112180Y-87164502D01*
X145222494Y-87105537D01*
X145319185Y-87026185D01*
X145398537Y-86929494D01*
X145457502Y-86819180D01*
X145493812Y-86699482D01*
X145506072Y-86575000D01*
X145506072Y-84875000D01*
X145493812Y-84750518D01*
X145457502Y-84630820D01*
X145398537Y-84520506D01*
X145319185Y-84423815D01*
X145222494Y-84344463D01*
X145112180Y-84285498D01*
X145043313Y-84264607D01*
X145073134Y-84240134D01*
X145258706Y-84014014D01*
X145396599Y-83756034D01*
X145481513Y-83476111D01*
X145510185Y-83185000D01*
X145481513Y-82893889D01*
X145396599Y-82613966D01*
X145258706Y-82355986D01*
X145073134Y-82129866D01*
X144847014Y-81944294D01*
X144589034Y-81806401D01*
X144309111Y-81721487D01*
X144090950Y-81700000D01*
X143945050Y-81700000D01*
X143726889Y-81721487D01*
X143446966Y-81806401D01*
X143188986Y-81944294D01*
X142962866Y-82129866D01*
X142777294Y-82355986D01*
X142639401Y-82613966D01*
X142554487Y-82893889D01*
X142525815Y-83185000D01*
X140290676Y-83185000D01*
X140303185Y-83058000D01*
X140274513Y-82766889D01*
X140189599Y-82486966D01*
X140051706Y-82228986D01*
X139866134Y-82002866D01*
X139640014Y-81817294D01*
X139382034Y-81679401D01*
X139102111Y-81594487D01*
X138883950Y-81573000D01*
X138738050Y-81573000D01*
X138519889Y-81594487D01*
X138239966Y-81679401D01*
X137981986Y-81817294D01*
X137755866Y-82002866D01*
X137570294Y-82228986D01*
X137432401Y-82486966D01*
X137347487Y-82766889D01*
X137318815Y-83058000D01*
X134137000Y-83058000D01*
X134137000Y-80670061D01*
X145396000Y-80670061D01*
X145396000Y-80873939D01*
X145435774Y-81073898D01*
X145513795Y-81262256D01*
X145627063Y-81431774D01*
X145671001Y-81475712D01*
X145671000Y-90355289D01*
X145627063Y-90399226D01*
X145513795Y-90568744D01*
X145435774Y-90757102D01*
X145396000Y-90957061D01*
X145396000Y-91160939D01*
X145435774Y-91360898D01*
X145513795Y-91549256D01*
X145627063Y-91718774D01*
X145771226Y-91862937D01*
X145940744Y-91976205D01*
X146129102Y-92054226D01*
X146329061Y-92094000D01*
X146532939Y-92094000D01*
X146732898Y-92054226D01*
X146921256Y-91976205D01*
X147090774Y-91862937D01*
X147178415Y-91775296D01*
X147211401Y-91884034D01*
X147349294Y-92142014D01*
X147534866Y-92368134D01*
X147760986Y-92553706D01*
X147815791Y-92583000D01*
X147760986Y-92612294D01*
X147534866Y-92797866D01*
X147349294Y-93023986D01*
X147211401Y-93281966D01*
X147126487Y-93561889D01*
X147097815Y-93853000D01*
X147126487Y-94144111D01*
X147211401Y-94424034D01*
X147349294Y-94682014D01*
X147534866Y-94908134D01*
X147760986Y-95093706D01*
X147825523Y-95128201D01*
X147708645Y-95197822D01*
X147492412Y-95392731D01*
X147318359Y-95626080D01*
X147193175Y-95888901D01*
X147148524Y-96036110D01*
X147269845Y-96266000D01*
X148463000Y-96266000D01*
X148463000Y-96246000D01*
X148717000Y-96246000D01*
X148717000Y-96266000D01*
X149910155Y-96266000D01*
X150031476Y-96036110D01*
X149986825Y-95888901D01*
X149861641Y-95626080D01*
X149687588Y-95392731D01*
X149471355Y-95197822D01*
X149354477Y-95128201D01*
X149419014Y-95093706D01*
X149645134Y-94908134D01*
X149830706Y-94682014D01*
X149968599Y-94424034D01*
X150053513Y-94144111D01*
X150082185Y-93853000D01*
X150053513Y-93561889D01*
X149968599Y-93281966D01*
X149830706Y-93023986D01*
X149645134Y-92797866D01*
X149419014Y-92612294D01*
X149364209Y-92583000D01*
X149419014Y-92553706D01*
X149645134Y-92368134D01*
X149830706Y-92142014D01*
X149968599Y-91884034D01*
X150053513Y-91604111D01*
X150082185Y-91313000D01*
X150053513Y-91021889D01*
X149968599Y-90741966D01*
X149830706Y-90483986D01*
X149645134Y-90257866D01*
X149419014Y-90072294D01*
X149161034Y-89934401D01*
X148881111Y-89849487D01*
X148662950Y-89828000D01*
X148517050Y-89828000D01*
X148298889Y-89849487D01*
X148018966Y-89934401D01*
X147760986Y-90072294D01*
X147534866Y-90257866D01*
X147349294Y-90483986D01*
X147323640Y-90531980D01*
X147234937Y-90399226D01*
X147191000Y-90355289D01*
X147191000Y-83185000D01*
X147605815Y-83185000D01*
X147634487Y-83476111D01*
X147719401Y-83756034D01*
X147857294Y-84014014D01*
X148042866Y-84240134D01*
X148072687Y-84264607D01*
X148003820Y-84285498D01*
X147893506Y-84344463D01*
X147796815Y-84423815D01*
X147717463Y-84520506D01*
X147658498Y-84630820D01*
X147622188Y-84750518D01*
X147609928Y-84875000D01*
X147609928Y-86575000D01*
X147622188Y-86699482D01*
X147658498Y-86819180D01*
X147717463Y-86929494D01*
X147796815Y-87026185D01*
X147893506Y-87105537D01*
X148003820Y-87164502D01*
X148123518Y-87200812D01*
X148248000Y-87213072D01*
X149948000Y-87213072D01*
X150072482Y-87200812D01*
X150192180Y-87164502D01*
X150302494Y-87105537D01*
X150399185Y-87026185D01*
X150478537Y-86929494D01*
X150537502Y-86819180D01*
X150573812Y-86699482D01*
X150586072Y-86575000D01*
X150586072Y-84875000D01*
X150573812Y-84750518D01*
X150537502Y-84630820D01*
X150478537Y-84520506D01*
X150399185Y-84423815D01*
X150302494Y-84344463D01*
X150192180Y-84285498D01*
X150123313Y-84264607D01*
X150153134Y-84240134D01*
X150338706Y-84014014D01*
X150476599Y-83756034D01*
X150561513Y-83476111D01*
X150590185Y-83185000D01*
X150561513Y-82893889D01*
X150476599Y-82613966D01*
X150338706Y-82355986D01*
X150153134Y-82129866D01*
X149927014Y-81944294D01*
X149669034Y-81806401D01*
X149389111Y-81721487D01*
X149170950Y-81700000D01*
X149025050Y-81700000D01*
X148806889Y-81721487D01*
X148526966Y-81806401D01*
X148268986Y-81944294D01*
X148042866Y-82129866D01*
X147857294Y-82355986D01*
X147719401Y-82613966D01*
X147634487Y-82893889D01*
X147605815Y-83185000D01*
X147191000Y-83185000D01*
X147191000Y-81475711D01*
X147234937Y-81431774D01*
X147348205Y-81262256D01*
X147426226Y-81073898D01*
X147466000Y-80873939D01*
X147466000Y-80670061D01*
X147426226Y-80470102D01*
X147348205Y-80281744D01*
X147234937Y-80112226D01*
X147090774Y-79968063D01*
X146921256Y-79854795D01*
X146732898Y-79776774D01*
X146532939Y-79737000D01*
X146329061Y-79737000D01*
X146129102Y-79776774D01*
X145940744Y-79854795D01*
X145771226Y-79968063D01*
X145627063Y-80112226D01*
X145513795Y-80281744D01*
X145435774Y-80470102D01*
X145396000Y-80670061D01*
X134137000Y-80670061D01*
X134137000Y-73068000D01*
X139485928Y-73068000D01*
X139485928Y-75268000D01*
X139498188Y-75392482D01*
X139534498Y-75512180D01*
X139593463Y-75622494D01*
X139672815Y-75719185D01*
X139769506Y-75798537D01*
X139879820Y-75857502D01*
X139999518Y-75893812D01*
X140124000Y-75906072D01*
X140350084Y-75906072D01*
X140303550Y-75952606D01*
X140173866Y-76146692D01*
X140084539Y-76362348D01*
X140039000Y-76591288D01*
X140039000Y-76824712D01*
X140084539Y-77053652D01*
X140173866Y-77269308D01*
X140303550Y-77463394D01*
X140468606Y-77628450D01*
X140662692Y-77758134D01*
X140878348Y-77847461D01*
X141107288Y-77893000D01*
X141340712Y-77893000D01*
X141569652Y-77847461D01*
X141785308Y-77758134D01*
X141979394Y-77628450D01*
X142144450Y-77463394D01*
X142274134Y-77269308D01*
X142363461Y-77053652D01*
X142409000Y-76824712D01*
X142409000Y-76591288D01*
X142363461Y-76362348D01*
X142274134Y-76146692D01*
X142144450Y-75952606D01*
X142097916Y-75906072D01*
X142324000Y-75906072D01*
X142448482Y-75893812D01*
X142568180Y-75857502D01*
X142678494Y-75798537D01*
X142775185Y-75719185D01*
X142840772Y-75639267D01*
X142844726Y-75649338D01*
X143058238Y-75754387D01*
X143008606Y-75787550D01*
X142843550Y-75952606D01*
X142713866Y-76146692D01*
X142624539Y-76362348D01*
X142579000Y-76591288D01*
X142579000Y-76824712D01*
X142624539Y-77053652D01*
X142713866Y-77269308D01*
X142843550Y-77463394D01*
X143008606Y-77628450D01*
X143202692Y-77758134D01*
X143418348Y-77847461D01*
X143647288Y-77893000D01*
X143880712Y-77893000D01*
X144109652Y-77847461D01*
X144325308Y-77758134D01*
X144519394Y-77628450D01*
X144684450Y-77463394D01*
X144814134Y-77269308D01*
X144903461Y-77053652D01*
X144949000Y-76824712D01*
X144949000Y-76591288D01*
X144903461Y-76362348D01*
X144814134Y-76146692D01*
X144684450Y-75952606D01*
X144519394Y-75787550D01*
X144475835Y-75758445D01*
X144484966Y-75755336D01*
X144683274Y-75649338D01*
X144791107Y-75374712D01*
X143764000Y-74347605D01*
X143749858Y-74361748D01*
X143570253Y-74182143D01*
X143584395Y-74168000D01*
X143943605Y-74168000D01*
X144768531Y-74992926D01*
X144956337Y-75273998D01*
X145198002Y-75515663D01*
X145482169Y-75705537D01*
X145598952Y-75753910D01*
X145548606Y-75787550D01*
X145383550Y-75952606D01*
X145253866Y-76146692D01*
X145164539Y-76362348D01*
X145119000Y-76591288D01*
X145119000Y-76824712D01*
X145164539Y-77053652D01*
X145253866Y-77269308D01*
X145383550Y-77463394D01*
X145548606Y-77628450D01*
X145742692Y-77758134D01*
X145958348Y-77847461D01*
X146187288Y-77893000D01*
X146420712Y-77893000D01*
X146649652Y-77847461D01*
X146865308Y-77758134D01*
X147059394Y-77628450D01*
X147224450Y-77463394D01*
X147354134Y-77269308D01*
X147443461Y-77053652D01*
X147489000Y-76824712D01*
X147489000Y-76591288D01*
X147443461Y-76362348D01*
X147354134Y-76146692D01*
X147224450Y-75952606D01*
X147059394Y-75787550D01*
X147009048Y-75753910D01*
X147125831Y-75705537D01*
X147409998Y-75515663D01*
X147651663Y-75273998D01*
X147841537Y-74989831D01*
X147972325Y-74674081D01*
X148039000Y-74338883D01*
X148039000Y-73997117D01*
X147972325Y-73661919D01*
X147841537Y-73346169D01*
X147651663Y-73062002D01*
X147409998Y-72820337D01*
X147125831Y-72630463D01*
X146810081Y-72499675D01*
X146474883Y-72433000D01*
X146133117Y-72433000D01*
X145797919Y-72499675D01*
X145482169Y-72630463D01*
X145198002Y-72820337D01*
X144956337Y-73062002D01*
X144768531Y-73343074D01*
X143943605Y-74168000D01*
X143584395Y-74168000D01*
X143570253Y-74153858D01*
X143749858Y-73974253D01*
X143764000Y-73988395D01*
X144791107Y-72961288D01*
X144683274Y-72686662D01*
X144376616Y-72535784D01*
X144046415Y-72447631D01*
X143705361Y-72425591D01*
X143366561Y-72470511D01*
X143043034Y-72580664D01*
X142844726Y-72686662D01*
X142840772Y-72696733D01*
X142775185Y-72616815D01*
X142678494Y-72537463D01*
X142568180Y-72478498D01*
X142448482Y-72442188D01*
X142324000Y-72429928D01*
X140124000Y-72429928D01*
X139999518Y-72442188D01*
X139879820Y-72478498D01*
X139769506Y-72537463D01*
X139672815Y-72616815D01*
X139593463Y-72713506D01*
X139534498Y-72823820D01*
X139498188Y-72943518D01*
X139485928Y-73068000D01*
X134137000Y-73068000D01*
X134137000Y-72930279D01*
X134171072Y-72582790D01*
X134262614Y-72279587D01*
X134411307Y-71999936D01*
X134611484Y-71754495D01*
X134855521Y-71552609D01*
X135134125Y-71401969D01*
X135436688Y-71308310D01*
X135782158Y-71272000D01*
X151478721Y-71272000D01*
X151826210Y-71306072D01*
M02*
