G04 #@! TF.GenerationSoftware,KiCad,Pcbnew,(5.1.0)-1*
G04 #@! TF.CreationDate,2019-04-03T20:49:52-04:00*
G04 #@! TF.ProjectId,3wireducer_daughter,33776972-6564-4756-9365-725f64617567,rev?*
G04 #@! TF.SameCoordinates,Original*
G04 #@! TF.FileFunction,Copper,L1,Top*
G04 #@! TF.FilePolarity,Positive*
%FSLAX46Y46*%
G04 Gerber Fmt 4.6, Leading zero omitted, Abs format (unit mm)*
G04 Created by KiCad (PCBNEW (5.1.0)-1) date 2019-04-03 20:49:52*
%MOMM*%
%LPD*%
G04 APERTURE LIST*
%ADD10C,0.100000*%
%ADD11C,0.975000*%
%ADD12O,1.700000X1.700000*%
%ADD13R,2.200000X2.200000*%
%ADD14C,2.200000*%
%ADD15R,1.700000X1.700000*%
%ADD16C,0.800000*%
%ADD17C,0.500000*%
%ADD18C,0.250000*%
%ADD19C,0.254000*%
G04 APERTURE END LIST*
D10*
G36*
X142085142Y-96190674D02*
G01*
X142108803Y-96194184D01*
X142132007Y-96199996D01*
X142154529Y-96208054D01*
X142176153Y-96218282D01*
X142196670Y-96230579D01*
X142215883Y-96244829D01*
X142233607Y-96260893D01*
X142249671Y-96278617D01*
X142263921Y-96297830D01*
X142276218Y-96318347D01*
X142286446Y-96339971D01*
X142294504Y-96362493D01*
X142300316Y-96385697D01*
X142303826Y-96409358D01*
X142305000Y-96433250D01*
X142305000Y-96920750D01*
X142303826Y-96944642D01*
X142300316Y-96968303D01*
X142294504Y-96991507D01*
X142286446Y-97014029D01*
X142276218Y-97035653D01*
X142263921Y-97056170D01*
X142249671Y-97075383D01*
X142233607Y-97093107D01*
X142215883Y-97109171D01*
X142196670Y-97123421D01*
X142176153Y-97135718D01*
X142154529Y-97145946D01*
X142132007Y-97154004D01*
X142108803Y-97159816D01*
X142085142Y-97163326D01*
X142061250Y-97164500D01*
X141148750Y-97164500D01*
X141124858Y-97163326D01*
X141101197Y-97159816D01*
X141077993Y-97154004D01*
X141055471Y-97145946D01*
X141033847Y-97135718D01*
X141013330Y-97123421D01*
X140994117Y-97109171D01*
X140976393Y-97093107D01*
X140960329Y-97075383D01*
X140946079Y-97056170D01*
X140933782Y-97035653D01*
X140923554Y-97014029D01*
X140915496Y-96991507D01*
X140909684Y-96968303D01*
X140906174Y-96944642D01*
X140905000Y-96920750D01*
X140905000Y-96433250D01*
X140906174Y-96409358D01*
X140909684Y-96385697D01*
X140915496Y-96362493D01*
X140923554Y-96339971D01*
X140933782Y-96318347D01*
X140946079Y-96297830D01*
X140960329Y-96278617D01*
X140976393Y-96260893D01*
X140994117Y-96244829D01*
X141013330Y-96230579D01*
X141033847Y-96218282D01*
X141055471Y-96208054D01*
X141077993Y-96199996D01*
X141101197Y-96194184D01*
X141124858Y-96190674D01*
X141148750Y-96189500D01*
X142061250Y-96189500D01*
X142085142Y-96190674D01*
X142085142Y-96190674D01*
G37*
D11*
X141605000Y-96677000D03*
D10*
G36*
X142085142Y-98065674D02*
G01*
X142108803Y-98069184D01*
X142132007Y-98074996D01*
X142154529Y-98083054D01*
X142176153Y-98093282D01*
X142196670Y-98105579D01*
X142215883Y-98119829D01*
X142233607Y-98135893D01*
X142249671Y-98153617D01*
X142263921Y-98172830D01*
X142276218Y-98193347D01*
X142286446Y-98214971D01*
X142294504Y-98237493D01*
X142300316Y-98260697D01*
X142303826Y-98284358D01*
X142305000Y-98308250D01*
X142305000Y-98795750D01*
X142303826Y-98819642D01*
X142300316Y-98843303D01*
X142294504Y-98866507D01*
X142286446Y-98889029D01*
X142276218Y-98910653D01*
X142263921Y-98931170D01*
X142249671Y-98950383D01*
X142233607Y-98968107D01*
X142215883Y-98984171D01*
X142196670Y-98998421D01*
X142176153Y-99010718D01*
X142154529Y-99020946D01*
X142132007Y-99029004D01*
X142108803Y-99034816D01*
X142085142Y-99038326D01*
X142061250Y-99039500D01*
X141148750Y-99039500D01*
X141124858Y-99038326D01*
X141101197Y-99034816D01*
X141077993Y-99029004D01*
X141055471Y-99020946D01*
X141033847Y-99010718D01*
X141013330Y-98998421D01*
X140994117Y-98984171D01*
X140976393Y-98968107D01*
X140960329Y-98950383D01*
X140946079Y-98931170D01*
X140933782Y-98910653D01*
X140923554Y-98889029D01*
X140915496Y-98866507D01*
X140909684Y-98843303D01*
X140906174Y-98819642D01*
X140905000Y-98795750D01*
X140905000Y-98308250D01*
X140906174Y-98284358D01*
X140909684Y-98260697D01*
X140915496Y-98237493D01*
X140923554Y-98214971D01*
X140933782Y-98193347D01*
X140946079Y-98172830D01*
X140960329Y-98153617D01*
X140976393Y-98135893D01*
X140994117Y-98119829D01*
X141013330Y-98105579D01*
X141033847Y-98093282D01*
X141055471Y-98083054D01*
X141077993Y-98074996D01*
X141101197Y-98069184D01*
X141124858Y-98065674D01*
X141148750Y-98064500D01*
X142061250Y-98064500D01*
X142085142Y-98065674D01*
X142085142Y-98065674D01*
G37*
D11*
X141605000Y-98552000D03*
D10*
G36*
X137905642Y-73469174D02*
G01*
X137929303Y-73472684D01*
X137952507Y-73478496D01*
X137975029Y-73486554D01*
X137996653Y-73496782D01*
X138017170Y-73509079D01*
X138036383Y-73523329D01*
X138054107Y-73539393D01*
X138070171Y-73557117D01*
X138084421Y-73576330D01*
X138096718Y-73596847D01*
X138106946Y-73618471D01*
X138115004Y-73640993D01*
X138120816Y-73664197D01*
X138124326Y-73687858D01*
X138125500Y-73711750D01*
X138125500Y-74624250D01*
X138124326Y-74648142D01*
X138120816Y-74671803D01*
X138115004Y-74695007D01*
X138106946Y-74717529D01*
X138096718Y-74739153D01*
X138084421Y-74759670D01*
X138070171Y-74778883D01*
X138054107Y-74796607D01*
X138036383Y-74812671D01*
X138017170Y-74826921D01*
X137996653Y-74839218D01*
X137975029Y-74849446D01*
X137952507Y-74857504D01*
X137929303Y-74863316D01*
X137905642Y-74866826D01*
X137881750Y-74868000D01*
X137394250Y-74868000D01*
X137370358Y-74866826D01*
X137346697Y-74863316D01*
X137323493Y-74857504D01*
X137300971Y-74849446D01*
X137279347Y-74839218D01*
X137258830Y-74826921D01*
X137239617Y-74812671D01*
X137221893Y-74796607D01*
X137205829Y-74778883D01*
X137191579Y-74759670D01*
X137179282Y-74739153D01*
X137169054Y-74717529D01*
X137160996Y-74695007D01*
X137155184Y-74671803D01*
X137151674Y-74648142D01*
X137150500Y-74624250D01*
X137150500Y-73711750D01*
X137151674Y-73687858D01*
X137155184Y-73664197D01*
X137160996Y-73640993D01*
X137169054Y-73618471D01*
X137179282Y-73596847D01*
X137191579Y-73576330D01*
X137205829Y-73557117D01*
X137221893Y-73539393D01*
X137239617Y-73523329D01*
X137258830Y-73509079D01*
X137279347Y-73496782D01*
X137300971Y-73486554D01*
X137323493Y-73478496D01*
X137346697Y-73472684D01*
X137370358Y-73469174D01*
X137394250Y-73468000D01*
X137881750Y-73468000D01*
X137905642Y-73469174D01*
X137905642Y-73469174D01*
G37*
D11*
X137638000Y-74168000D03*
D10*
G36*
X136030642Y-73469174D02*
G01*
X136054303Y-73472684D01*
X136077507Y-73478496D01*
X136100029Y-73486554D01*
X136121653Y-73496782D01*
X136142170Y-73509079D01*
X136161383Y-73523329D01*
X136179107Y-73539393D01*
X136195171Y-73557117D01*
X136209421Y-73576330D01*
X136221718Y-73596847D01*
X136231946Y-73618471D01*
X136240004Y-73640993D01*
X136245816Y-73664197D01*
X136249326Y-73687858D01*
X136250500Y-73711750D01*
X136250500Y-74624250D01*
X136249326Y-74648142D01*
X136245816Y-74671803D01*
X136240004Y-74695007D01*
X136231946Y-74717529D01*
X136221718Y-74739153D01*
X136209421Y-74759670D01*
X136195171Y-74778883D01*
X136179107Y-74796607D01*
X136161383Y-74812671D01*
X136142170Y-74826921D01*
X136121653Y-74839218D01*
X136100029Y-74849446D01*
X136077507Y-74857504D01*
X136054303Y-74863316D01*
X136030642Y-74866826D01*
X136006750Y-74868000D01*
X135519250Y-74868000D01*
X135495358Y-74866826D01*
X135471697Y-74863316D01*
X135448493Y-74857504D01*
X135425971Y-74849446D01*
X135404347Y-74839218D01*
X135383830Y-74826921D01*
X135364617Y-74812671D01*
X135346893Y-74796607D01*
X135330829Y-74778883D01*
X135316579Y-74759670D01*
X135304282Y-74739153D01*
X135294054Y-74717529D01*
X135285996Y-74695007D01*
X135280184Y-74671803D01*
X135276674Y-74648142D01*
X135275500Y-74624250D01*
X135275500Y-73711750D01*
X135276674Y-73687858D01*
X135280184Y-73664197D01*
X135285996Y-73640993D01*
X135294054Y-73618471D01*
X135304282Y-73596847D01*
X135316579Y-73576330D01*
X135330829Y-73557117D01*
X135346893Y-73539393D01*
X135364617Y-73523329D01*
X135383830Y-73509079D01*
X135404347Y-73496782D01*
X135425971Y-73486554D01*
X135448493Y-73478496D01*
X135471697Y-73472684D01*
X135495358Y-73469174D01*
X135519250Y-73468000D01*
X136006750Y-73468000D01*
X136030642Y-73469174D01*
X136030642Y-73469174D01*
G37*
D11*
X135763000Y-74168000D03*
D12*
X148590000Y-101473000D03*
X138830000Y-98933000D03*
X148590000Y-98933000D03*
X138830000Y-96393000D03*
X148590000Y-96393000D03*
X138830000Y-93853000D03*
X148590000Y-93853000D03*
X138830000Y-91313000D03*
X148590000Y-91313000D03*
D13*
X141224000Y-74168000D03*
D14*
X143764000Y-74168000D03*
X146304000Y-74168000D03*
D15*
X149098000Y-85725000D03*
D12*
X149098000Y-83185000D03*
X144018000Y-83185000D03*
D15*
X144018000Y-85725000D03*
X138811000Y-85598000D03*
D12*
X138811000Y-83058000D03*
D10*
G36*
X145641142Y-91618674D02*
G01*
X145664803Y-91622184D01*
X145688007Y-91627996D01*
X145710529Y-91636054D01*
X145732153Y-91646282D01*
X145752670Y-91658579D01*
X145771883Y-91672829D01*
X145789607Y-91688893D01*
X145805671Y-91706617D01*
X145819921Y-91725830D01*
X145832218Y-91746347D01*
X145842446Y-91767971D01*
X145850504Y-91790493D01*
X145856316Y-91813697D01*
X145859826Y-91837358D01*
X145861000Y-91861250D01*
X145861000Y-92348750D01*
X145859826Y-92372642D01*
X145856316Y-92396303D01*
X145850504Y-92419507D01*
X145842446Y-92442029D01*
X145832218Y-92463653D01*
X145819921Y-92484170D01*
X145805671Y-92503383D01*
X145789607Y-92521107D01*
X145771883Y-92537171D01*
X145752670Y-92551421D01*
X145732153Y-92563718D01*
X145710529Y-92573946D01*
X145688007Y-92582004D01*
X145664803Y-92587816D01*
X145641142Y-92591326D01*
X145617250Y-92592500D01*
X144704750Y-92592500D01*
X144680858Y-92591326D01*
X144657197Y-92587816D01*
X144633993Y-92582004D01*
X144611471Y-92573946D01*
X144589847Y-92563718D01*
X144569330Y-92551421D01*
X144550117Y-92537171D01*
X144532393Y-92521107D01*
X144516329Y-92503383D01*
X144502079Y-92484170D01*
X144489782Y-92463653D01*
X144479554Y-92442029D01*
X144471496Y-92419507D01*
X144465684Y-92396303D01*
X144462174Y-92372642D01*
X144461000Y-92348750D01*
X144461000Y-91861250D01*
X144462174Y-91837358D01*
X144465684Y-91813697D01*
X144471496Y-91790493D01*
X144479554Y-91767971D01*
X144489782Y-91746347D01*
X144502079Y-91725830D01*
X144516329Y-91706617D01*
X144532393Y-91688893D01*
X144550117Y-91672829D01*
X144569330Y-91658579D01*
X144589847Y-91646282D01*
X144611471Y-91636054D01*
X144633993Y-91627996D01*
X144657197Y-91622184D01*
X144680858Y-91618674D01*
X144704750Y-91617500D01*
X145617250Y-91617500D01*
X145641142Y-91618674D01*
X145641142Y-91618674D01*
G37*
D11*
X145161000Y-92105000D03*
D10*
G36*
X145641142Y-93493674D02*
G01*
X145664803Y-93497184D01*
X145688007Y-93502996D01*
X145710529Y-93511054D01*
X145732153Y-93521282D01*
X145752670Y-93533579D01*
X145771883Y-93547829D01*
X145789607Y-93563893D01*
X145805671Y-93581617D01*
X145819921Y-93600830D01*
X145832218Y-93621347D01*
X145842446Y-93642971D01*
X145850504Y-93665493D01*
X145856316Y-93688697D01*
X145859826Y-93712358D01*
X145861000Y-93736250D01*
X145861000Y-94223750D01*
X145859826Y-94247642D01*
X145856316Y-94271303D01*
X145850504Y-94294507D01*
X145842446Y-94317029D01*
X145832218Y-94338653D01*
X145819921Y-94359170D01*
X145805671Y-94378383D01*
X145789607Y-94396107D01*
X145771883Y-94412171D01*
X145752670Y-94426421D01*
X145732153Y-94438718D01*
X145710529Y-94448946D01*
X145688007Y-94457004D01*
X145664803Y-94462816D01*
X145641142Y-94466326D01*
X145617250Y-94467500D01*
X144704750Y-94467500D01*
X144680858Y-94466326D01*
X144657197Y-94462816D01*
X144633993Y-94457004D01*
X144611471Y-94448946D01*
X144589847Y-94438718D01*
X144569330Y-94426421D01*
X144550117Y-94412171D01*
X144532393Y-94396107D01*
X144516329Y-94378383D01*
X144502079Y-94359170D01*
X144489782Y-94338653D01*
X144479554Y-94317029D01*
X144471496Y-94294507D01*
X144465684Y-94271303D01*
X144462174Y-94247642D01*
X144461000Y-94223750D01*
X144461000Y-93736250D01*
X144462174Y-93712358D01*
X144465684Y-93688697D01*
X144471496Y-93665493D01*
X144479554Y-93642971D01*
X144489782Y-93621347D01*
X144502079Y-93600830D01*
X144516329Y-93581617D01*
X144532393Y-93563893D01*
X144550117Y-93547829D01*
X144569330Y-93533579D01*
X144589847Y-93521282D01*
X144611471Y-93511054D01*
X144633993Y-93502996D01*
X144657197Y-93497184D01*
X144680858Y-93493674D01*
X144704750Y-93492500D01*
X145617250Y-93492500D01*
X145641142Y-93493674D01*
X145641142Y-93493674D01*
G37*
D11*
X145161000Y-93980000D03*
D10*
G36*
X145514142Y-98065674D02*
G01*
X145537803Y-98069184D01*
X145561007Y-98074996D01*
X145583529Y-98083054D01*
X145605153Y-98093282D01*
X145625670Y-98105579D01*
X145644883Y-98119829D01*
X145662607Y-98135893D01*
X145678671Y-98153617D01*
X145692921Y-98172830D01*
X145705218Y-98193347D01*
X145715446Y-98214971D01*
X145723504Y-98237493D01*
X145729316Y-98260697D01*
X145732826Y-98284358D01*
X145734000Y-98308250D01*
X145734000Y-98795750D01*
X145732826Y-98819642D01*
X145729316Y-98843303D01*
X145723504Y-98866507D01*
X145715446Y-98889029D01*
X145705218Y-98910653D01*
X145692921Y-98931170D01*
X145678671Y-98950383D01*
X145662607Y-98968107D01*
X145644883Y-98984171D01*
X145625670Y-98998421D01*
X145605153Y-99010718D01*
X145583529Y-99020946D01*
X145561007Y-99029004D01*
X145537803Y-99034816D01*
X145514142Y-99038326D01*
X145490250Y-99039500D01*
X144577750Y-99039500D01*
X144553858Y-99038326D01*
X144530197Y-99034816D01*
X144506993Y-99029004D01*
X144484471Y-99020946D01*
X144462847Y-99010718D01*
X144442330Y-98998421D01*
X144423117Y-98984171D01*
X144405393Y-98968107D01*
X144389329Y-98950383D01*
X144375079Y-98931170D01*
X144362782Y-98910653D01*
X144352554Y-98889029D01*
X144344496Y-98866507D01*
X144338684Y-98843303D01*
X144335174Y-98819642D01*
X144334000Y-98795750D01*
X144334000Y-98308250D01*
X144335174Y-98284358D01*
X144338684Y-98260697D01*
X144344496Y-98237493D01*
X144352554Y-98214971D01*
X144362782Y-98193347D01*
X144375079Y-98172830D01*
X144389329Y-98153617D01*
X144405393Y-98135893D01*
X144423117Y-98119829D01*
X144442330Y-98105579D01*
X144462847Y-98093282D01*
X144484471Y-98083054D01*
X144506993Y-98074996D01*
X144530197Y-98069184D01*
X144553858Y-98065674D01*
X144577750Y-98064500D01*
X145490250Y-98064500D01*
X145514142Y-98065674D01*
X145514142Y-98065674D01*
G37*
D11*
X145034000Y-98552000D03*
D10*
G36*
X145514142Y-96190674D02*
G01*
X145537803Y-96194184D01*
X145561007Y-96199996D01*
X145583529Y-96208054D01*
X145605153Y-96218282D01*
X145625670Y-96230579D01*
X145644883Y-96244829D01*
X145662607Y-96260893D01*
X145678671Y-96278617D01*
X145692921Y-96297830D01*
X145705218Y-96318347D01*
X145715446Y-96339971D01*
X145723504Y-96362493D01*
X145729316Y-96385697D01*
X145732826Y-96409358D01*
X145734000Y-96433250D01*
X145734000Y-96920750D01*
X145732826Y-96944642D01*
X145729316Y-96968303D01*
X145723504Y-96991507D01*
X145715446Y-97014029D01*
X145705218Y-97035653D01*
X145692921Y-97056170D01*
X145678671Y-97075383D01*
X145662607Y-97093107D01*
X145644883Y-97109171D01*
X145625670Y-97123421D01*
X145605153Y-97135718D01*
X145583529Y-97145946D01*
X145561007Y-97154004D01*
X145537803Y-97159816D01*
X145514142Y-97163326D01*
X145490250Y-97164500D01*
X144577750Y-97164500D01*
X144553858Y-97163326D01*
X144530197Y-97159816D01*
X144506993Y-97154004D01*
X144484471Y-97145946D01*
X144462847Y-97135718D01*
X144442330Y-97123421D01*
X144423117Y-97109171D01*
X144405393Y-97093107D01*
X144389329Y-97075383D01*
X144375079Y-97056170D01*
X144362782Y-97035653D01*
X144352554Y-97014029D01*
X144344496Y-96991507D01*
X144338684Y-96968303D01*
X144335174Y-96944642D01*
X144334000Y-96920750D01*
X144334000Y-96433250D01*
X144335174Y-96409358D01*
X144338684Y-96385697D01*
X144344496Y-96362493D01*
X144352554Y-96339971D01*
X144362782Y-96318347D01*
X144375079Y-96297830D01*
X144389329Y-96278617D01*
X144405393Y-96260893D01*
X144423117Y-96244829D01*
X144442330Y-96230579D01*
X144462847Y-96218282D01*
X144484471Y-96208054D01*
X144506993Y-96199996D01*
X144530197Y-96194184D01*
X144553858Y-96190674D01*
X144577750Y-96189500D01*
X145490250Y-96189500D01*
X145514142Y-96190674D01*
X145514142Y-96190674D01*
G37*
D11*
X145034000Y-96677000D03*
D16*
X145034000Y-100076000D03*
X141605000Y-100076000D03*
X146431000Y-91059000D03*
X146431000Y-80772000D03*
D17*
X145161000Y-96550000D02*
X145034000Y-96677000D01*
X145161000Y-93980000D02*
X145161000Y-96550000D01*
X145034000Y-96677000D02*
X141605000Y-96677000D01*
D18*
X139349000Y-98933000D02*
X138830000Y-98933000D01*
X141605000Y-96677000D02*
X139349000Y-98933000D01*
X145034000Y-98552000D02*
X145034000Y-100076000D01*
X141605000Y-98552000D02*
X141605000Y-100076000D01*
X139874000Y-74168000D02*
X137638000Y-74168000D01*
X141224000Y-74168000D02*
X139874000Y-74168000D01*
X137961001Y-82208001D02*
X138811000Y-83058000D01*
X135206763Y-79453763D02*
X137961001Y-82208001D01*
X135206763Y-74724237D02*
X135206763Y-79453763D01*
X135763000Y-74168000D02*
X135206763Y-74724237D01*
D17*
X143891000Y-83058000D02*
X144018000Y-83185000D01*
X138811000Y-83058000D02*
X143891000Y-83058000D01*
X144018000Y-83185000D02*
X149098000Y-83185000D01*
D18*
X149439999Y-98083001D02*
X148590000Y-98933000D01*
X150215011Y-97307989D02*
X149439999Y-98083001D01*
X150215011Y-85742011D02*
X150215011Y-97307989D01*
X150198000Y-85725000D02*
X150215011Y-85742011D01*
X149098000Y-85725000D02*
X150198000Y-85725000D01*
X149439999Y-93003001D02*
X148590000Y-93853000D01*
X149765001Y-92677999D02*
X149439999Y-93003001D01*
X149765001Y-90372001D02*
X149765001Y-92677999D01*
X145118000Y-85725000D02*
X149765001Y-90372001D01*
X144018000Y-85725000D02*
X145118000Y-85725000D01*
X139911000Y-85598000D02*
X144610000Y-90297000D01*
X138811000Y-85598000D02*
X139911000Y-85598000D01*
X147574000Y-90297000D02*
X148590000Y-91313000D01*
X144610000Y-90297000D02*
X147574000Y-90297000D01*
X145161000Y-92105000D02*
X145385000Y-92105000D01*
X145385000Y-92105000D02*
X146431000Y-91059000D01*
X147403999Y-75267999D02*
X146304000Y-74168000D01*
X147403999Y-79799001D02*
X147403999Y-75267999D01*
X146431000Y-80772000D02*
X147403999Y-79799001D01*
D19*
G36*
X151826210Y-71306072D02*
G01*
X152129413Y-71397614D01*
X152409064Y-71546307D01*
X152654505Y-71746484D01*
X152856391Y-71990521D01*
X153007031Y-72269125D01*
X153100690Y-72571688D01*
X153137000Y-72917158D01*
X153137001Y-106901711D01*
X153102928Y-107249209D01*
X153011384Y-107552417D01*
X152862693Y-107832063D01*
X152662516Y-108077505D01*
X152418476Y-108279392D01*
X152139875Y-108430031D01*
X151837313Y-108523690D01*
X151491842Y-108560000D01*
X135795279Y-108560000D01*
X135447791Y-108525928D01*
X135144583Y-108434384D01*
X134864937Y-108285693D01*
X134619495Y-108085516D01*
X134417608Y-107841476D01*
X134266969Y-107562875D01*
X134173310Y-107260313D01*
X134137000Y-106914842D01*
X134137000Y-94209890D01*
X137388524Y-94209890D01*
X137433175Y-94357099D01*
X137558359Y-94619920D01*
X137732412Y-94853269D01*
X137948645Y-95048178D01*
X138074255Y-95123000D01*
X137948645Y-95197822D01*
X137732412Y-95392731D01*
X137558359Y-95626080D01*
X137433175Y-95888901D01*
X137388524Y-96036110D01*
X137509845Y-96266000D01*
X138703000Y-96266000D01*
X138703000Y-93980000D01*
X137509845Y-93980000D01*
X137388524Y-94209890D01*
X134137000Y-94209890D01*
X134137000Y-91669890D01*
X137388524Y-91669890D01*
X137433175Y-91817099D01*
X137558359Y-92079920D01*
X137732412Y-92313269D01*
X137948645Y-92508178D01*
X138074255Y-92583000D01*
X137948645Y-92657822D01*
X137732412Y-92852731D01*
X137558359Y-93086080D01*
X137433175Y-93348901D01*
X137388524Y-93496110D01*
X137509845Y-93726000D01*
X138703000Y-93726000D01*
X138703000Y-91440000D01*
X138957000Y-91440000D01*
X138957000Y-93726000D01*
X140150155Y-93726000D01*
X140271476Y-93496110D01*
X140226825Y-93348901D01*
X140101641Y-93086080D01*
X139927588Y-92852731D01*
X139711355Y-92657822D01*
X139585745Y-92583000D01*
X139711355Y-92508178D01*
X139927588Y-92313269D01*
X140101641Y-92079920D01*
X140226825Y-91817099D01*
X140271476Y-91669890D01*
X140150155Y-91440000D01*
X138957000Y-91440000D01*
X138703000Y-91440000D01*
X137509845Y-91440000D01*
X137388524Y-91669890D01*
X134137000Y-91669890D01*
X134137000Y-90956110D01*
X137388524Y-90956110D01*
X137509845Y-91186000D01*
X138703000Y-91186000D01*
X138703000Y-89992186D01*
X138957000Y-89992186D01*
X138957000Y-91186000D01*
X140150155Y-91186000D01*
X140271476Y-90956110D01*
X140226825Y-90808901D01*
X140101641Y-90546080D01*
X139927588Y-90312731D01*
X139711355Y-90117822D01*
X139461252Y-89968843D01*
X139186891Y-89871519D01*
X138957000Y-89992186D01*
X138703000Y-89992186D01*
X138473109Y-89871519D01*
X138198748Y-89968843D01*
X137948645Y-90117822D01*
X137732412Y-90312731D01*
X137558359Y-90546080D01*
X137433175Y-90808901D01*
X137388524Y-90956110D01*
X134137000Y-90956110D01*
X134137000Y-74724237D01*
X134443087Y-74724237D01*
X134446763Y-74761560D01*
X134446764Y-79416431D01*
X134443087Y-79453763D01*
X134457761Y-79602748D01*
X134501217Y-79746009D01*
X134571789Y-79878039D01*
X134642964Y-79964765D01*
X134666763Y-79993764D01*
X134695761Y-80017562D01*
X137370203Y-82692005D01*
X137347487Y-82766889D01*
X137318815Y-83058000D01*
X137347487Y-83349111D01*
X137432401Y-83629034D01*
X137570294Y-83887014D01*
X137755866Y-84113134D01*
X137785687Y-84137607D01*
X137716820Y-84158498D01*
X137606506Y-84217463D01*
X137509815Y-84296815D01*
X137430463Y-84393506D01*
X137371498Y-84503820D01*
X137335188Y-84623518D01*
X137322928Y-84748000D01*
X137322928Y-86448000D01*
X137335188Y-86572482D01*
X137371498Y-86692180D01*
X137430463Y-86802494D01*
X137509815Y-86899185D01*
X137606506Y-86978537D01*
X137716820Y-87037502D01*
X137836518Y-87073812D01*
X137961000Y-87086072D01*
X139661000Y-87086072D01*
X139785482Y-87073812D01*
X139905180Y-87037502D01*
X140015494Y-86978537D01*
X140112185Y-86899185D01*
X140123543Y-86885345D01*
X144046200Y-90808002D01*
X144069999Y-90837001D01*
X144098997Y-90860799D01*
X144185724Y-90931974D01*
X144317753Y-91002546D01*
X144415059Y-91032063D01*
X144367291Y-91046553D01*
X144214836Y-91128042D01*
X144081208Y-91237708D01*
X143971542Y-91371336D01*
X143890053Y-91523791D01*
X143839872Y-91689215D01*
X143822928Y-91861250D01*
X143822928Y-92348750D01*
X143839872Y-92520785D01*
X143890053Y-92686209D01*
X143971542Y-92838664D01*
X144081208Y-92972292D01*
X144166756Y-93042500D01*
X144081208Y-93112708D01*
X143971542Y-93246336D01*
X143890053Y-93398791D01*
X143839872Y-93564215D01*
X143822928Y-93736250D01*
X143822928Y-94223750D01*
X143839872Y-94395785D01*
X143890053Y-94561209D01*
X143971542Y-94713664D01*
X144081208Y-94847292D01*
X144214836Y-94956958D01*
X144276000Y-94989651D01*
X144276001Y-95607721D01*
X144240291Y-95618553D01*
X144087836Y-95700042D01*
X143975785Y-95792000D01*
X142663215Y-95792000D01*
X142551164Y-95700042D01*
X142398709Y-95618553D01*
X142233285Y-95568372D01*
X142061250Y-95551428D01*
X141148750Y-95551428D01*
X140976715Y-95568372D01*
X140811291Y-95618553D01*
X140658836Y-95700042D01*
X140525208Y-95809708D01*
X140415542Y-95943336D01*
X140334053Y-96095791D01*
X140283872Y-96261215D01*
X140283401Y-96265998D01*
X140150156Y-96265998D01*
X140271476Y-96036110D01*
X140226825Y-95888901D01*
X140101641Y-95626080D01*
X139927588Y-95392731D01*
X139711355Y-95197822D01*
X139585745Y-95123000D01*
X139711355Y-95048178D01*
X139927588Y-94853269D01*
X140101641Y-94619920D01*
X140226825Y-94357099D01*
X140271476Y-94209890D01*
X140150155Y-93980000D01*
X138957000Y-93980000D01*
X138957000Y-96266000D01*
X138977000Y-96266000D01*
X138977000Y-96520000D01*
X138957000Y-96520000D01*
X138957000Y-96540000D01*
X138703000Y-96540000D01*
X138703000Y-96520000D01*
X137509845Y-96520000D01*
X137388524Y-96749890D01*
X137433175Y-96897099D01*
X137558359Y-97159920D01*
X137732412Y-97393269D01*
X137948645Y-97588178D01*
X138065523Y-97657799D01*
X138000986Y-97692294D01*
X137774866Y-97877866D01*
X137589294Y-98103986D01*
X137451401Y-98361966D01*
X137366487Y-98641889D01*
X137337815Y-98933000D01*
X137366487Y-99224111D01*
X137451401Y-99504034D01*
X137589294Y-99762014D01*
X137774866Y-99988134D01*
X138000986Y-100173706D01*
X138258966Y-100311599D01*
X138538889Y-100396513D01*
X138757050Y-100418000D01*
X138902950Y-100418000D01*
X139121111Y-100396513D01*
X139401034Y-100311599D01*
X139659014Y-100173706D01*
X139885134Y-99988134D01*
X140070706Y-99762014D01*
X140208599Y-99504034D01*
X140293513Y-99224111D01*
X140294473Y-99214368D01*
X140315498Y-99283680D01*
X140374463Y-99393994D01*
X140453815Y-99490685D01*
X140550506Y-99570037D01*
X140660820Y-99629002D01*
X140780518Y-99665312D01*
X140905000Y-99677572D01*
X141319250Y-99674500D01*
X141478000Y-99515750D01*
X141478000Y-98679000D01*
X141732000Y-98679000D01*
X141732000Y-99515750D01*
X141890750Y-99674500D01*
X142305000Y-99677572D01*
X142429482Y-99665312D01*
X142549180Y-99629002D01*
X142659494Y-99570037D01*
X142756185Y-99490685D01*
X142835537Y-99393994D01*
X142894502Y-99283680D01*
X142930812Y-99163982D01*
X142943072Y-99039500D01*
X143695928Y-99039500D01*
X143708188Y-99163982D01*
X143744498Y-99283680D01*
X143803463Y-99393994D01*
X143882815Y-99490685D01*
X143979506Y-99570037D01*
X144089820Y-99629002D01*
X144209518Y-99665312D01*
X144334000Y-99677572D01*
X144748250Y-99674500D01*
X144907000Y-99515750D01*
X144907000Y-98679000D01*
X145161000Y-98679000D01*
X145161000Y-99515750D01*
X145319750Y-99674500D01*
X145734000Y-99677572D01*
X145858482Y-99665312D01*
X145978180Y-99629002D01*
X146088494Y-99570037D01*
X146185185Y-99490685D01*
X146264537Y-99393994D01*
X146323502Y-99283680D01*
X146359812Y-99163982D01*
X146372072Y-99039500D01*
X146369000Y-98837750D01*
X146210250Y-98679000D01*
X145161000Y-98679000D01*
X144907000Y-98679000D01*
X143857750Y-98679000D01*
X143699000Y-98837750D01*
X143695928Y-99039500D01*
X142943072Y-99039500D01*
X142940000Y-98837750D01*
X142781250Y-98679000D01*
X141732000Y-98679000D01*
X141478000Y-98679000D01*
X141458000Y-98679000D01*
X141458000Y-98425000D01*
X141478000Y-98425000D01*
X141478000Y-98405000D01*
X141732000Y-98405000D01*
X141732000Y-98425000D01*
X142781250Y-98425000D01*
X142940000Y-98266250D01*
X142943072Y-98064500D01*
X142930812Y-97940018D01*
X142894502Y-97820320D01*
X142835537Y-97710006D01*
X142756185Y-97613315D01*
X142693657Y-97562000D01*
X143945343Y-97562000D01*
X143882815Y-97613315D01*
X143803463Y-97710006D01*
X143744498Y-97820320D01*
X143708188Y-97940018D01*
X143695928Y-98064500D01*
X143699000Y-98266250D01*
X143857750Y-98425000D01*
X144907000Y-98425000D01*
X144907000Y-98405000D01*
X145161000Y-98405000D01*
X145161000Y-98425000D01*
X146210250Y-98425000D01*
X146369000Y-98266250D01*
X146372072Y-98064500D01*
X146359812Y-97940018D01*
X146323502Y-97820320D01*
X146264537Y-97710006D01*
X146185185Y-97613315D01*
X146107436Y-97549508D01*
X146113792Y-97544292D01*
X146223458Y-97410664D01*
X146304947Y-97258209D01*
X146355128Y-97092785D01*
X146372072Y-96920750D01*
X146372072Y-96433250D01*
X146355128Y-96261215D01*
X146304947Y-96095791D01*
X146223458Y-95943336D01*
X146113792Y-95809708D01*
X146046000Y-95754072D01*
X146046000Y-94989651D01*
X146107164Y-94956958D01*
X146240792Y-94847292D01*
X146350458Y-94713664D01*
X146431947Y-94561209D01*
X146482128Y-94395785D01*
X146499072Y-94223750D01*
X146499072Y-93736250D01*
X146482128Y-93564215D01*
X146431947Y-93398791D01*
X146350458Y-93246336D01*
X146240792Y-93112708D01*
X146155244Y-93042500D01*
X146240792Y-92972292D01*
X146350458Y-92838664D01*
X146431947Y-92686209D01*
X146482128Y-92520785D01*
X146499072Y-92348750D01*
X146499072Y-92094000D01*
X146532939Y-92094000D01*
X146732898Y-92054226D01*
X146921256Y-91976205D01*
X147090774Y-91862937D01*
X147178415Y-91775296D01*
X147211401Y-91884034D01*
X147349294Y-92142014D01*
X147534866Y-92368134D01*
X147760986Y-92553706D01*
X147815791Y-92583000D01*
X147760986Y-92612294D01*
X147534866Y-92797866D01*
X147349294Y-93023986D01*
X147211401Y-93281966D01*
X147126487Y-93561889D01*
X147097815Y-93853000D01*
X147126487Y-94144111D01*
X147211401Y-94424034D01*
X147349294Y-94682014D01*
X147534866Y-94908134D01*
X147760986Y-95093706D01*
X147825523Y-95128201D01*
X147708645Y-95197822D01*
X147492412Y-95392731D01*
X147318359Y-95626080D01*
X147193175Y-95888901D01*
X147148524Y-96036110D01*
X147269845Y-96266000D01*
X148463000Y-96266000D01*
X148463000Y-96246000D01*
X148717000Y-96246000D01*
X148717000Y-96266000D01*
X148737000Y-96266000D01*
X148737000Y-96520000D01*
X148717000Y-96520000D01*
X148717000Y-96540000D01*
X148463000Y-96540000D01*
X148463000Y-96520000D01*
X147269845Y-96520000D01*
X147148524Y-96749890D01*
X147193175Y-96897099D01*
X147318359Y-97159920D01*
X147492412Y-97393269D01*
X147708645Y-97588178D01*
X147825523Y-97657799D01*
X147760986Y-97692294D01*
X147534866Y-97877866D01*
X147349294Y-98103986D01*
X147211401Y-98361966D01*
X147126487Y-98641889D01*
X147097815Y-98933000D01*
X147126487Y-99224111D01*
X147211401Y-99504034D01*
X147349294Y-99762014D01*
X147534866Y-99988134D01*
X147760986Y-100173706D01*
X147815791Y-100203000D01*
X147760986Y-100232294D01*
X147534866Y-100417866D01*
X147349294Y-100643986D01*
X147211401Y-100901966D01*
X147126487Y-101181889D01*
X147097815Y-101473000D01*
X147126487Y-101764111D01*
X147211401Y-102044034D01*
X147349294Y-102302014D01*
X147534866Y-102528134D01*
X147760986Y-102713706D01*
X148018966Y-102851599D01*
X148298889Y-102936513D01*
X148517050Y-102958000D01*
X148662950Y-102958000D01*
X148881111Y-102936513D01*
X149161034Y-102851599D01*
X149419014Y-102713706D01*
X149645134Y-102528134D01*
X149830706Y-102302014D01*
X149968599Y-102044034D01*
X150053513Y-101764111D01*
X150082185Y-101473000D01*
X150053513Y-101181889D01*
X149968599Y-100901966D01*
X149830706Y-100643986D01*
X149645134Y-100417866D01*
X149419014Y-100232294D01*
X149364209Y-100203000D01*
X149419014Y-100173706D01*
X149645134Y-99988134D01*
X149830706Y-99762014D01*
X149968599Y-99504034D01*
X150053513Y-99224111D01*
X150082185Y-98933000D01*
X150053513Y-98641889D01*
X150030797Y-98567004D01*
X150726019Y-97871784D01*
X150755012Y-97847990D01*
X150778806Y-97818997D01*
X150778810Y-97818993D01*
X150845970Y-97737157D01*
X150849985Y-97732265D01*
X150920557Y-97600236D01*
X150964014Y-97456975D01*
X150975011Y-97345322D01*
X150975011Y-97345313D01*
X150978687Y-97307990D01*
X150975011Y-97270667D01*
X150975011Y-85779333D01*
X150978687Y-85742010D01*
X150975011Y-85704688D01*
X150975011Y-85704678D01*
X150964014Y-85593025D01*
X150920557Y-85449764D01*
X150849985Y-85317735D01*
X150755012Y-85202010D01*
X150745669Y-85194342D01*
X150738001Y-85184999D01*
X150622276Y-85090026D01*
X150586072Y-85070674D01*
X150586072Y-84875000D01*
X150573812Y-84750518D01*
X150537502Y-84630820D01*
X150478537Y-84520506D01*
X150399185Y-84423815D01*
X150302494Y-84344463D01*
X150192180Y-84285498D01*
X150123313Y-84264607D01*
X150153134Y-84240134D01*
X150338706Y-84014014D01*
X150476599Y-83756034D01*
X150561513Y-83476111D01*
X150590185Y-83185000D01*
X150561513Y-82893889D01*
X150476599Y-82613966D01*
X150338706Y-82355986D01*
X150153134Y-82129866D01*
X149927014Y-81944294D01*
X149669034Y-81806401D01*
X149389111Y-81721487D01*
X149170950Y-81700000D01*
X149025050Y-81700000D01*
X148806889Y-81721487D01*
X148526966Y-81806401D01*
X148268986Y-81944294D01*
X148042866Y-82129866D01*
X147903241Y-82300000D01*
X145212759Y-82300000D01*
X145073134Y-82129866D01*
X144847014Y-81944294D01*
X144589034Y-81806401D01*
X144309111Y-81721487D01*
X144090950Y-81700000D01*
X143945050Y-81700000D01*
X143726889Y-81721487D01*
X143446966Y-81806401D01*
X143188986Y-81944294D01*
X142962866Y-82129866D01*
X142927467Y-82173000D01*
X140005759Y-82173000D01*
X139866134Y-82002866D01*
X139640014Y-81817294D01*
X139382034Y-81679401D01*
X139102111Y-81594487D01*
X138883950Y-81573000D01*
X138738050Y-81573000D01*
X138519889Y-81594487D01*
X138445005Y-81617203D01*
X135966763Y-79138962D01*
X135966763Y-75506072D01*
X136006750Y-75506072D01*
X136178785Y-75489128D01*
X136344209Y-75438947D01*
X136496664Y-75357458D01*
X136630292Y-75247792D01*
X136700500Y-75162244D01*
X136770708Y-75247792D01*
X136904336Y-75357458D01*
X137056791Y-75438947D01*
X137222215Y-75489128D01*
X137394250Y-75506072D01*
X137881750Y-75506072D01*
X138053785Y-75489128D01*
X138219209Y-75438947D01*
X138371664Y-75357458D01*
X138505292Y-75247792D01*
X138614958Y-75114164D01*
X138696447Y-74961709D01*
X138706673Y-74928000D01*
X139485928Y-74928000D01*
X139485928Y-75268000D01*
X139498188Y-75392482D01*
X139534498Y-75512180D01*
X139593463Y-75622494D01*
X139672815Y-75719185D01*
X139769506Y-75798537D01*
X139879820Y-75857502D01*
X139999518Y-75893812D01*
X140124000Y-75906072D01*
X140350084Y-75906072D01*
X140303550Y-75952606D01*
X140173866Y-76146692D01*
X140084539Y-76362348D01*
X140039000Y-76591288D01*
X140039000Y-76824712D01*
X140084539Y-77053652D01*
X140173866Y-77269308D01*
X140303550Y-77463394D01*
X140468606Y-77628450D01*
X140662692Y-77758134D01*
X140878348Y-77847461D01*
X141107288Y-77893000D01*
X141340712Y-77893000D01*
X141569652Y-77847461D01*
X141785308Y-77758134D01*
X141979394Y-77628450D01*
X142144450Y-77463394D01*
X142274134Y-77269308D01*
X142363461Y-77053652D01*
X142409000Y-76824712D01*
X142409000Y-76591288D01*
X142363461Y-76362348D01*
X142274134Y-76146692D01*
X142144450Y-75952606D01*
X142097916Y-75906072D01*
X142324000Y-75906072D01*
X142448482Y-75893812D01*
X142568180Y-75857502D01*
X142678494Y-75798537D01*
X142775185Y-75719185D01*
X142840772Y-75639267D01*
X142844726Y-75649338D01*
X143058238Y-75754387D01*
X143008606Y-75787550D01*
X142843550Y-75952606D01*
X142713866Y-76146692D01*
X142624539Y-76362348D01*
X142579000Y-76591288D01*
X142579000Y-76824712D01*
X142624539Y-77053652D01*
X142713866Y-77269308D01*
X142843550Y-77463394D01*
X143008606Y-77628450D01*
X143202692Y-77758134D01*
X143418348Y-77847461D01*
X143647288Y-77893000D01*
X143880712Y-77893000D01*
X144109652Y-77847461D01*
X144325308Y-77758134D01*
X144519394Y-77628450D01*
X144684450Y-77463394D01*
X144814134Y-77269308D01*
X144903461Y-77053652D01*
X144949000Y-76824712D01*
X144949000Y-76591288D01*
X144903461Y-76362348D01*
X144814134Y-76146692D01*
X144684450Y-75952606D01*
X144519394Y-75787550D01*
X144475835Y-75758445D01*
X144484966Y-75755336D01*
X144683274Y-75649338D01*
X144791107Y-75374712D01*
X143764000Y-74347605D01*
X143749858Y-74361748D01*
X143570253Y-74182143D01*
X143584395Y-74168000D01*
X143943605Y-74168000D01*
X144768531Y-74992926D01*
X144956337Y-75273998D01*
X145198002Y-75515663D01*
X145482169Y-75705537D01*
X145598952Y-75753910D01*
X145548606Y-75787550D01*
X145383550Y-75952606D01*
X145253866Y-76146692D01*
X145164539Y-76362348D01*
X145119000Y-76591288D01*
X145119000Y-76824712D01*
X145164539Y-77053652D01*
X145253866Y-77269308D01*
X145383550Y-77463394D01*
X145548606Y-77628450D01*
X145742692Y-77758134D01*
X145958348Y-77847461D01*
X146187288Y-77893000D01*
X146420712Y-77893000D01*
X146643999Y-77848585D01*
X146643999Y-79484198D01*
X146391198Y-79737000D01*
X146329061Y-79737000D01*
X146129102Y-79776774D01*
X145940744Y-79854795D01*
X145771226Y-79968063D01*
X145627063Y-80112226D01*
X145513795Y-80281744D01*
X145435774Y-80470102D01*
X145396000Y-80670061D01*
X145396000Y-80873939D01*
X145435774Y-81073898D01*
X145513795Y-81262256D01*
X145627063Y-81431774D01*
X145771226Y-81575937D01*
X145940744Y-81689205D01*
X146129102Y-81767226D01*
X146329061Y-81807000D01*
X146532939Y-81807000D01*
X146732898Y-81767226D01*
X146921256Y-81689205D01*
X147090774Y-81575937D01*
X147234937Y-81431774D01*
X147348205Y-81262256D01*
X147426226Y-81073898D01*
X147466000Y-80873939D01*
X147466000Y-80811802D01*
X147915008Y-80362795D01*
X147944000Y-80339002D01*
X147967794Y-80310009D01*
X147967798Y-80310005D01*
X148038972Y-80223278D01*
X148038973Y-80223277D01*
X148109545Y-80091248D01*
X148153002Y-79947987D01*
X148163999Y-79836334D01*
X148163999Y-79836325D01*
X148167675Y-79799002D01*
X148163999Y-79761679D01*
X148163999Y-75305332D01*
X148167676Y-75267999D01*
X148153002Y-75119013D01*
X148109545Y-74975752D01*
X148038973Y-74843723D01*
X147967798Y-74756996D01*
X147947982Y-74732850D01*
X147972325Y-74674081D01*
X148039000Y-74338883D01*
X148039000Y-73997117D01*
X147972325Y-73661919D01*
X147841537Y-73346169D01*
X147651663Y-73062002D01*
X147409998Y-72820337D01*
X147125831Y-72630463D01*
X146810081Y-72499675D01*
X146474883Y-72433000D01*
X146133117Y-72433000D01*
X145797919Y-72499675D01*
X145482169Y-72630463D01*
X145198002Y-72820337D01*
X144956337Y-73062002D01*
X144768531Y-73343074D01*
X143943605Y-74168000D01*
X143584395Y-74168000D01*
X143570253Y-74153858D01*
X143749858Y-73974253D01*
X143764000Y-73988395D01*
X144791107Y-72961288D01*
X144683274Y-72686662D01*
X144376616Y-72535784D01*
X144046415Y-72447631D01*
X143705361Y-72425591D01*
X143366561Y-72470511D01*
X143043034Y-72580664D01*
X142844726Y-72686662D01*
X142840772Y-72696733D01*
X142775185Y-72616815D01*
X142678494Y-72537463D01*
X142568180Y-72478498D01*
X142448482Y-72442188D01*
X142324000Y-72429928D01*
X140124000Y-72429928D01*
X139999518Y-72442188D01*
X139879820Y-72478498D01*
X139769506Y-72537463D01*
X139672815Y-72616815D01*
X139593463Y-72713506D01*
X139534498Y-72823820D01*
X139498188Y-72943518D01*
X139485928Y-73068000D01*
X139485928Y-73408000D01*
X138706673Y-73408000D01*
X138696447Y-73374291D01*
X138614958Y-73221836D01*
X138505292Y-73088208D01*
X138371664Y-72978542D01*
X138219209Y-72897053D01*
X138053785Y-72846872D01*
X137881750Y-72829928D01*
X137394250Y-72829928D01*
X137222215Y-72846872D01*
X137056791Y-72897053D01*
X136904336Y-72978542D01*
X136770708Y-73088208D01*
X136700500Y-73173756D01*
X136630292Y-73088208D01*
X136496664Y-72978542D01*
X136344209Y-72897053D01*
X136178785Y-72846872D01*
X136006750Y-72829928D01*
X135519250Y-72829928D01*
X135347215Y-72846872D01*
X135181791Y-72897053D01*
X135029336Y-72978542D01*
X134895708Y-73088208D01*
X134786042Y-73221836D01*
X134704553Y-73374291D01*
X134654372Y-73539715D01*
X134637428Y-73711750D01*
X134637428Y-74219980D01*
X134631963Y-74226639D01*
X134571789Y-74299961D01*
X134562689Y-74316986D01*
X134501217Y-74431991D01*
X134457760Y-74575252D01*
X134446763Y-74686905D01*
X134446763Y-74686915D01*
X134443087Y-74724237D01*
X134137000Y-74724237D01*
X134137000Y-72930279D01*
X134171072Y-72582790D01*
X134262614Y-72279587D01*
X134411307Y-71999936D01*
X134611484Y-71754495D01*
X134855521Y-71552609D01*
X135134125Y-71401969D01*
X135436688Y-71308310D01*
X135782158Y-71272000D01*
X151478721Y-71272000D01*
X151826210Y-71306072D01*
X151826210Y-71306072D01*
G37*
X151826210Y-71306072D02*
X152129413Y-71397614D01*
X152409064Y-71546307D01*
X152654505Y-71746484D01*
X152856391Y-71990521D01*
X153007031Y-72269125D01*
X153100690Y-72571688D01*
X153137000Y-72917158D01*
X153137001Y-106901711D01*
X153102928Y-107249209D01*
X153011384Y-107552417D01*
X152862693Y-107832063D01*
X152662516Y-108077505D01*
X152418476Y-108279392D01*
X152139875Y-108430031D01*
X151837313Y-108523690D01*
X151491842Y-108560000D01*
X135795279Y-108560000D01*
X135447791Y-108525928D01*
X135144583Y-108434384D01*
X134864937Y-108285693D01*
X134619495Y-108085516D01*
X134417608Y-107841476D01*
X134266969Y-107562875D01*
X134173310Y-107260313D01*
X134137000Y-106914842D01*
X134137000Y-94209890D01*
X137388524Y-94209890D01*
X137433175Y-94357099D01*
X137558359Y-94619920D01*
X137732412Y-94853269D01*
X137948645Y-95048178D01*
X138074255Y-95123000D01*
X137948645Y-95197822D01*
X137732412Y-95392731D01*
X137558359Y-95626080D01*
X137433175Y-95888901D01*
X137388524Y-96036110D01*
X137509845Y-96266000D01*
X138703000Y-96266000D01*
X138703000Y-93980000D01*
X137509845Y-93980000D01*
X137388524Y-94209890D01*
X134137000Y-94209890D01*
X134137000Y-91669890D01*
X137388524Y-91669890D01*
X137433175Y-91817099D01*
X137558359Y-92079920D01*
X137732412Y-92313269D01*
X137948645Y-92508178D01*
X138074255Y-92583000D01*
X137948645Y-92657822D01*
X137732412Y-92852731D01*
X137558359Y-93086080D01*
X137433175Y-93348901D01*
X137388524Y-93496110D01*
X137509845Y-93726000D01*
X138703000Y-93726000D01*
X138703000Y-91440000D01*
X138957000Y-91440000D01*
X138957000Y-93726000D01*
X140150155Y-93726000D01*
X140271476Y-93496110D01*
X140226825Y-93348901D01*
X140101641Y-93086080D01*
X139927588Y-92852731D01*
X139711355Y-92657822D01*
X139585745Y-92583000D01*
X139711355Y-92508178D01*
X139927588Y-92313269D01*
X140101641Y-92079920D01*
X140226825Y-91817099D01*
X140271476Y-91669890D01*
X140150155Y-91440000D01*
X138957000Y-91440000D01*
X138703000Y-91440000D01*
X137509845Y-91440000D01*
X137388524Y-91669890D01*
X134137000Y-91669890D01*
X134137000Y-90956110D01*
X137388524Y-90956110D01*
X137509845Y-91186000D01*
X138703000Y-91186000D01*
X138703000Y-89992186D01*
X138957000Y-89992186D01*
X138957000Y-91186000D01*
X140150155Y-91186000D01*
X140271476Y-90956110D01*
X140226825Y-90808901D01*
X140101641Y-90546080D01*
X139927588Y-90312731D01*
X139711355Y-90117822D01*
X139461252Y-89968843D01*
X139186891Y-89871519D01*
X138957000Y-89992186D01*
X138703000Y-89992186D01*
X138473109Y-89871519D01*
X138198748Y-89968843D01*
X137948645Y-90117822D01*
X137732412Y-90312731D01*
X137558359Y-90546080D01*
X137433175Y-90808901D01*
X137388524Y-90956110D01*
X134137000Y-90956110D01*
X134137000Y-74724237D01*
X134443087Y-74724237D01*
X134446763Y-74761560D01*
X134446764Y-79416431D01*
X134443087Y-79453763D01*
X134457761Y-79602748D01*
X134501217Y-79746009D01*
X134571789Y-79878039D01*
X134642964Y-79964765D01*
X134666763Y-79993764D01*
X134695761Y-80017562D01*
X137370203Y-82692005D01*
X137347487Y-82766889D01*
X137318815Y-83058000D01*
X137347487Y-83349111D01*
X137432401Y-83629034D01*
X137570294Y-83887014D01*
X137755866Y-84113134D01*
X137785687Y-84137607D01*
X137716820Y-84158498D01*
X137606506Y-84217463D01*
X137509815Y-84296815D01*
X137430463Y-84393506D01*
X137371498Y-84503820D01*
X137335188Y-84623518D01*
X137322928Y-84748000D01*
X137322928Y-86448000D01*
X137335188Y-86572482D01*
X137371498Y-86692180D01*
X137430463Y-86802494D01*
X137509815Y-86899185D01*
X137606506Y-86978537D01*
X137716820Y-87037502D01*
X137836518Y-87073812D01*
X137961000Y-87086072D01*
X139661000Y-87086072D01*
X139785482Y-87073812D01*
X139905180Y-87037502D01*
X140015494Y-86978537D01*
X140112185Y-86899185D01*
X140123543Y-86885345D01*
X144046200Y-90808002D01*
X144069999Y-90837001D01*
X144098997Y-90860799D01*
X144185724Y-90931974D01*
X144317753Y-91002546D01*
X144415059Y-91032063D01*
X144367291Y-91046553D01*
X144214836Y-91128042D01*
X144081208Y-91237708D01*
X143971542Y-91371336D01*
X143890053Y-91523791D01*
X143839872Y-91689215D01*
X143822928Y-91861250D01*
X143822928Y-92348750D01*
X143839872Y-92520785D01*
X143890053Y-92686209D01*
X143971542Y-92838664D01*
X144081208Y-92972292D01*
X144166756Y-93042500D01*
X144081208Y-93112708D01*
X143971542Y-93246336D01*
X143890053Y-93398791D01*
X143839872Y-93564215D01*
X143822928Y-93736250D01*
X143822928Y-94223750D01*
X143839872Y-94395785D01*
X143890053Y-94561209D01*
X143971542Y-94713664D01*
X144081208Y-94847292D01*
X144214836Y-94956958D01*
X144276000Y-94989651D01*
X144276001Y-95607721D01*
X144240291Y-95618553D01*
X144087836Y-95700042D01*
X143975785Y-95792000D01*
X142663215Y-95792000D01*
X142551164Y-95700042D01*
X142398709Y-95618553D01*
X142233285Y-95568372D01*
X142061250Y-95551428D01*
X141148750Y-95551428D01*
X140976715Y-95568372D01*
X140811291Y-95618553D01*
X140658836Y-95700042D01*
X140525208Y-95809708D01*
X140415542Y-95943336D01*
X140334053Y-96095791D01*
X140283872Y-96261215D01*
X140283401Y-96265998D01*
X140150156Y-96265998D01*
X140271476Y-96036110D01*
X140226825Y-95888901D01*
X140101641Y-95626080D01*
X139927588Y-95392731D01*
X139711355Y-95197822D01*
X139585745Y-95123000D01*
X139711355Y-95048178D01*
X139927588Y-94853269D01*
X140101641Y-94619920D01*
X140226825Y-94357099D01*
X140271476Y-94209890D01*
X140150155Y-93980000D01*
X138957000Y-93980000D01*
X138957000Y-96266000D01*
X138977000Y-96266000D01*
X138977000Y-96520000D01*
X138957000Y-96520000D01*
X138957000Y-96540000D01*
X138703000Y-96540000D01*
X138703000Y-96520000D01*
X137509845Y-96520000D01*
X137388524Y-96749890D01*
X137433175Y-96897099D01*
X137558359Y-97159920D01*
X137732412Y-97393269D01*
X137948645Y-97588178D01*
X138065523Y-97657799D01*
X138000986Y-97692294D01*
X137774866Y-97877866D01*
X137589294Y-98103986D01*
X137451401Y-98361966D01*
X137366487Y-98641889D01*
X137337815Y-98933000D01*
X137366487Y-99224111D01*
X137451401Y-99504034D01*
X137589294Y-99762014D01*
X137774866Y-99988134D01*
X138000986Y-100173706D01*
X138258966Y-100311599D01*
X138538889Y-100396513D01*
X138757050Y-100418000D01*
X138902950Y-100418000D01*
X139121111Y-100396513D01*
X139401034Y-100311599D01*
X139659014Y-100173706D01*
X139885134Y-99988134D01*
X140070706Y-99762014D01*
X140208599Y-99504034D01*
X140293513Y-99224111D01*
X140294473Y-99214368D01*
X140315498Y-99283680D01*
X140374463Y-99393994D01*
X140453815Y-99490685D01*
X140550506Y-99570037D01*
X140660820Y-99629002D01*
X140780518Y-99665312D01*
X140905000Y-99677572D01*
X141319250Y-99674500D01*
X141478000Y-99515750D01*
X141478000Y-98679000D01*
X141732000Y-98679000D01*
X141732000Y-99515750D01*
X141890750Y-99674500D01*
X142305000Y-99677572D01*
X142429482Y-99665312D01*
X142549180Y-99629002D01*
X142659494Y-99570037D01*
X142756185Y-99490685D01*
X142835537Y-99393994D01*
X142894502Y-99283680D01*
X142930812Y-99163982D01*
X142943072Y-99039500D01*
X143695928Y-99039500D01*
X143708188Y-99163982D01*
X143744498Y-99283680D01*
X143803463Y-99393994D01*
X143882815Y-99490685D01*
X143979506Y-99570037D01*
X144089820Y-99629002D01*
X144209518Y-99665312D01*
X144334000Y-99677572D01*
X144748250Y-99674500D01*
X144907000Y-99515750D01*
X144907000Y-98679000D01*
X145161000Y-98679000D01*
X145161000Y-99515750D01*
X145319750Y-99674500D01*
X145734000Y-99677572D01*
X145858482Y-99665312D01*
X145978180Y-99629002D01*
X146088494Y-99570037D01*
X146185185Y-99490685D01*
X146264537Y-99393994D01*
X146323502Y-99283680D01*
X146359812Y-99163982D01*
X146372072Y-99039500D01*
X146369000Y-98837750D01*
X146210250Y-98679000D01*
X145161000Y-98679000D01*
X144907000Y-98679000D01*
X143857750Y-98679000D01*
X143699000Y-98837750D01*
X143695928Y-99039500D01*
X142943072Y-99039500D01*
X142940000Y-98837750D01*
X142781250Y-98679000D01*
X141732000Y-98679000D01*
X141478000Y-98679000D01*
X141458000Y-98679000D01*
X141458000Y-98425000D01*
X141478000Y-98425000D01*
X141478000Y-98405000D01*
X141732000Y-98405000D01*
X141732000Y-98425000D01*
X142781250Y-98425000D01*
X142940000Y-98266250D01*
X142943072Y-98064500D01*
X142930812Y-97940018D01*
X142894502Y-97820320D01*
X142835537Y-97710006D01*
X142756185Y-97613315D01*
X142693657Y-97562000D01*
X143945343Y-97562000D01*
X143882815Y-97613315D01*
X143803463Y-97710006D01*
X143744498Y-97820320D01*
X143708188Y-97940018D01*
X143695928Y-98064500D01*
X143699000Y-98266250D01*
X143857750Y-98425000D01*
X144907000Y-98425000D01*
X144907000Y-98405000D01*
X145161000Y-98405000D01*
X145161000Y-98425000D01*
X146210250Y-98425000D01*
X146369000Y-98266250D01*
X146372072Y-98064500D01*
X146359812Y-97940018D01*
X146323502Y-97820320D01*
X146264537Y-97710006D01*
X146185185Y-97613315D01*
X146107436Y-97549508D01*
X146113792Y-97544292D01*
X146223458Y-97410664D01*
X146304947Y-97258209D01*
X146355128Y-97092785D01*
X146372072Y-96920750D01*
X146372072Y-96433250D01*
X146355128Y-96261215D01*
X146304947Y-96095791D01*
X146223458Y-95943336D01*
X146113792Y-95809708D01*
X146046000Y-95754072D01*
X146046000Y-94989651D01*
X146107164Y-94956958D01*
X146240792Y-94847292D01*
X146350458Y-94713664D01*
X146431947Y-94561209D01*
X146482128Y-94395785D01*
X146499072Y-94223750D01*
X146499072Y-93736250D01*
X146482128Y-93564215D01*
X146431947Y-93398791D01*
X146350458Y-93246336D01*
X146240792Y-93112708D01*
X146155244Y-93042500D01*
X146240792Y-92972292D01*
X146350458Y-92838664D01*
X146431947Y-92686209D01*
X146482128Y-92520785D01*
X146499072Y-92348750D01*
X146499072Y-92094000D01*
X146532939Y-92094000D01*
X146732898Y-92054226D01*
X146921256Y-91976205D01*
X147090774Y-91862937D01*
X147178415Y-91775296D01*
X147211401Y-91884034D01*
X147349294Y-92142014D01*
X147534866Y-92368134D01*
X147760986Y-92553706D01*
X147815791Y-92583000D01*
X147760986Y-92612294D01*
X147534866Y-92797866D01*
X147349294Y-93023986D01*
X147211401Y-93281966D01*
X147126487Y-93561889D01*
X147097815Y-93853000D01*
X147126487Y-94144111D01*
X147211401Y-94424034D01*
X147349294Y-94682014D01*
X147534866Y-94908134D01*
X147760986Y-95093706D01*
X147825523Y-95128201D01*
X147708645Y-95197822D01*
X147492412Y-95392731D01*
X147318359Y-95626080D01*
X147193175Y-95888901D01*
X147148524Y-96036110D01*
X147269845Y-96266000D01*
X148463000Y-96266000D01*
X148463000Y-96246000D01*
X148717000Y-96246000D01*
X148717000Y-96266000D01*
X148737000Y-96266000D01*
X148737000Y-96520000D01*
X148717000Y-96520000D01*
X148717000Y-96540000D01*
X148463000Y-96540000D01*
X148463000Y-96520000D01*
X147269845Y-96520000D01*
X147148524Y-96749890D01*
X147193175Y-96897099D01*
X147318359Y-97159920D01*
X147492412Y-97393269D01*
X147708645Y-97588178D01*
X147825523Y-97657799D01*
X147760986Y-97692294D01*
X147534866Y-97877866D01*
X147349294Y-98103986D01*
X147211401Y-98361966D01*
X147126487Y-98641889D01*
X147097815Y-98933000D01*
X147126487Y-99224111D01*
X147211401Y-99504034D01*
X147349294Y-99762014D01*
X147534866Y-99988134D01*
X147760986Y-100173706D01*
X147815791Y-100203000D01*
X147760986Y-100232294D01*
X147534866Y-100417866D01*
X147349294Y-100643986D01*
X147211401Y-100901966D01*
X147126487Y-101181889D01*
X147097815Y-101473000D01*
X147126487Y-101764111D01*
X147211401Y-102044034D01*
X147349294Y-102302014D01*
X147534866Y-102528134D01*
X147760986Y-102713706D01*
X148018966Y-102851599D01*
X148298889Y-102936513D01*
X148517050Y-102958000D01*
X148662950Y-102958000D01*
X148881111Y-102936513D01*
X149161034Y-102851599D01*
X149419014Y-102713706D01*
X149645134Y-102528134D01*
X149830706Y-102302014D01*
X149968599Y-102044034D01*
X150053513Y-101764111D01*
X150082185Y-101473000D01*
X150053513Y-101181889D01*
X149968599Y-100901966D01*
X149830706Y-100643986D01*
X149645134Y-100417866D01*
X149419014Y-100232294D01*
X149364209Y-100203000D01*
X149419014Y-100173706D01*
X149645134Y-99988134D01*
X149830706Y-99762014D01*
X149968599Y-99504034D01*
X150053513Y-99224111D01*
X150082185Y-98933000D01*
X150053513Y-98641889D01*
X150030797Y-98567004D01*
X150726019Y-97871784D01*
X150755012Y-97847990D01*
X150778806Y-97818997D01*
X150778810Y-97818993D01*
X150845970Y-97737157D01*
X150849985Y-97732265D01*
X150920557Y-97600236D01*
X150964014Y-97456975D01*
X150975011Y-97345322D01*
X150975011Y-97345313D01*
X150978687Y-97307990D01*
X150975011Y-97270667D01*
X150975011Y-85779333D01*
X150978687Y-85742010D01*
X150975011Y-85704688D01*
X150975011Y-85704678D01*
X150964014Y-85593025D01*
X150920557Y-85449764D01*
X150849985Y-85317735D01*
X150755012Y-85202010D01*
X150745669Y-85194342D01*
X150738001Y-85184999D01*
X150622276Y-85090026D01*
X150586072Y-85070674D01*
X150586072Y-84875000D01*
X150573812Y-84750518D01*
X150537502Y-84630820D01*
X150478537Y-84520506D01*
X150399185Y-84423815D01*
X150302494Y-84344463D01*
X150192180Y-84285498D01*
X150123313Y-84264607D01*
X150153134Y-84240134D01*
X150338706Y-84014014D01*
X150476599Y-83756034D01*
X150561513Y-83476111D01*
X150590185Y-83185000D01*
X150561513Y-82893889D01*
X150476599Y-82613966D01*
X150338706Y-82355986D01*
X150153134Y-82129866D01*
X149927014Y-81944294D01*
X149669034Y-81806401D01*
X149389111Y-81721487D01*
X149170950Y-81700000D01*
X149025050Y-81700000D01*
X148806889Y-81721487D01*
X148526966Y-81806401D01*
X148268986Y-81944294D01*
X148042866Y-82129866D01*
X147903241Y-82300000D01*
X145212759Y-82300000D01*
X145073134Y-82129866D01*
X144847014Y-81944294D01*
X144589034Y-81806401D01*
X144309111Y-81721487D01*
X144090950Y-81700000D01*
X143945050Y-81700000D01*
X143726889Y-81721487D01*
X143446966Y-81806401D01*
X143188986Y-81944294D01*
X142962866Y-82129866D01*
X142927467Y-82173000D01*
X140005759Y-82173000D01*
X139866134Y-82002866D01*
X139640014Y-81817294D01*
X139382034Y-81679401D01*
X139102111Y-81594487D01*
X138883950Y-81573000D01*
X138738050Y-81573000D01*
X138519889Y-81594487D01*
X138445005Y-81617203D01*
X135966763Y-79138962D01*
X135966763Y-75506072D01*
X136006750Y-75506072D01*
X136178785Y-75489128D01*
X136344209Y-75438947D01*
X136496664Y-75357458D01*
X136630292Y-75247792D01*
X136700500Y-75162244D01*
X136770708Y-75247792D01*
X136904336Y-75357458D01*
X137056791Y-75438947D01*
X137222215Y-75489128D01*
X137394250Y-75506072D01*
X137881750Y-75506072D01*
X138053785Y-75489128D01*
X138219209Y-75438947D01*
X138371664Y-75357458D01*
X138505292Y-75247792D01*
X138614958Y-75114164D01*
X138696447Y-74961709D01*
X138706673Y-74928000D01*
X139485928Y-74928000D01*
X139485928Y-75268000D01*
X139498188Y-75392482D01*
X139534498Y-75512180D01*
X139593463Y-75622494D01*
X139672815Y-75719185D01*
X139769506Y-75798537D01*
X139879820Y-75857502D01*
X139999518Y-75893812D01*
X140124000Y-75906072D01*
X140350084Y-75906072D01*
X140303550Y-75952606D01*
X140173866Y-76146692D01*
X140084539Y-76362348D01*
X140039000Y-76591288D01*
X140039000Y-76824712D01*
X140084539Y-77053652D01*
X140173866Y-77269308D01*
X140303550Y-77463394D01*
X140468606Y-77628450D01*
X140662692Y-77758134D01*
X140878348Y-77847461D01*
X141107288Y-77893000D01*
X141340712Y-77893000D01*
X141569652Y-77847461D01*
X141785308Y-77758134D01*
X141979394Y-77628450D01*
X142144450Y-77463394D01*
X142274134Y-77269308D01*
X142363461Y-77053652D01*
X142409000Y-76824712D01*
X142409000Y-76591288D01*
X142363461Y-76362348D01*
X142274134Y-76146692D01*
X142144450Y-75952606D01*
X142097916Y-75906072D01*
X142324000Y-75906072D01*
X142448482Y-75893812D01*
X142568180Y-75857502D01*
X142678494Y-75798537D01*
X142775185Y-75719185D01*
X142840772Y-75639267D01*
X142844726Y-75649338D01*
X143058238Y-75754387D01*
X143008606Y-75787550D01*
X142843550Y-75952606D01*
X142713866Y-76146692D01*
X142624539Y-76362348D01*
X142579000Y-76591288D01*
X142579000Y-76824712D01*
X142624539Y-77053652D01*
X142713866Y-77269308D01*
X142843550Y-77463394D01*
X143008606Y-77628450D01*
X143202692Y-77758134D01*
X143418348Y-77847461D01*
X143647288Y-77893000D01*
X143880712Y-77893000D01*
X144109652Y-77847461D01*
X144325308Y-77758134D01*
X144519394Y-77628450D01*
X144684450Y-77463394D01*
X144814134Y-77269308D01*
X144903461Y-77053652D01*
X144949000Y-76824712D01*
X144949000Y-76591288D01*
X144903461Y-76362348D01*
X144814134Y-76146692D01*
X144684450Y-75952606D01*
X144519394Y-75787550D01*
X144475835Y-75758445D01*
X144484966Y-75755336D01*
X144683274Y-75649338D01*
X144791107Y-75374712D01*
X143764000Y-74347605D01*
X143749858Y-74361748D01*
X143570253Y-74182143D01*
X143584395Y-74168000D01*
X143943605Y-74168000D01*
X144768531Y-74992926D01*
X144956337Y-75273998D01*
X145198002Y-75515663D01*
X145482169Y-75705537D01*
X145598952Y-75753910D01*
X145548606Y-75787550D01*
X145383550Y-75952606D01*
X145253866Y-76146692D01*
X145164539Y-76362348D01*
X145119000Y-76591288D01*
X145119000Y-76824712D01*
X145164539Y-77053652D01*
X145253866Y-77269308D01*
X145383550Y-77463394D01*
X145548606Y-77628450D01*
X145742692Y-77758134D01*
X145958348Y-77847461D01*
X146187288Y-77893000D01*
X146420712Y-77893000D01*
X146643999Y-77848585D01*
X146643999Y-79484198D01*
X146391198Y-79737000D01*
X146329061Y-79737000D01*
X146129102Y-79776774D01*
X145940744Y-79854795D01*
X145771226Y-79968063D01*
X145627063Y-80112226D01*
X145513795Y-80281744D01*
X145435774Y-80470102D01*
X145396000Y-80670061D01*
X145396000Y-80873939D01*
X145435774Y-81073898D01*
X145513795Y-81262256D01*
X145627063Y-81431774D01*
X145771226Y-81575937D01*
X145940744Y-81689205D01*
X146129102Y-81767226D01*
X146329061Y-81807000D01*
X146532939Y-81807000D01*
X146732898Y-81767226D01*
X146921256Y-81689205D01*
X147090774Y-81575937D01*
X147234937Y-81431774D01*
X147348205Y-81262256D01*
X147426226Y-81073898D01*
X147466000Y-80873939D01*
X147466000Y-80811802D01*
X147915008Y-80362795D01*
X147944000Y-80339002D01*
X147967794Y-80310009D01*
X147967798Y-80310005D01*
X148038972Y-80223278D01*
X148038973Y-80223277D01*
X148109545Y-80091248D01*
X148153002Y-79947987D01*
X148163999Y-79836334D01*
X148163999Y-79836325D01*
X148167675Y-79799002D01*
X148163999Y-79761679D01*
X148163999Y-75305332D01*
X148167676Y-75267999D01*
X148153002Y-75119013D01*
X148109545Y-74975752D01*
X148038973Y-74843723D01*
X147967798Y-74756996D01*
X147947982Y-74732850D01*
X147972325Y-74674081D01*
X148039000Y-74338883D01*
X148039000Y-73997117D01*
X147972325Y-73661919D01*
X147841537Y-73346169D01*
X147651663Y-73062002D01*
X147409998Y-72820337D01*
X147125831Y-72630463D01*
X146810081Y-72499675D01*
X146474883Y-72433000D01*
X146133117Y-72433000D01*
X145797919Y-72499675D01*
X145482169Y-72630463D01*
X145198002Y-72820337D01*
X144956337Y-73062002D01*
X144768531Y-73343074D01*
X143943605Y-74168000D01*
X143584395Y-74168000D01*
X143570253Y-74153858D01*
X143749858Y-73974253D01*
X143764000Y-73988395D01*
X144791107Y-72961288D01*
X144683274Y-72686662D01*
X144376616Y-72535784D01*
X144046415Y-72447631D01*
X143705361Y-72425591D01*
X143366561Y-72470511D01*
X143043034Y-72580664D01*
X142844726Y-72686662D01*
X142840772Y-72696733D01*
X142775185Y-72616815D01*
X142678494Y-72537463D01*
X142568180Y-72478498D01*
X142448482Y-72442188D01*
X142324000Y-72429928D01*
X140124000Y-72429928D01*
X139999518Y-72442188D01*
X139879820Y-72478498D01*
X139769506Y-72537463D01*
X139672815Y-72616815D01*
X139593463Y-72713506D01*
X139534498Y-72823820D01*
X139498188Y-72943518D01*
X139485928Y-73068000D01*
X139485928Y-73408000D01*
X138706673Y-73408000D01*
X138696447Y-73374291D01*
X138614958Y-73221836D01*
X138505292Y-73088208D01*
X138371664Y-72978542D01*
X138219209Y-72897053D01*
X138053785Y-72846872D01*
X137881750Y-72829928D01*
X137394250Y-72829928D01*
X137222215Y-72846872D01*
X137056791Y-72897053D01*
X136904336Y-72978542D01*
X136770708Y-73088208D01*
X136700500Y-73173756D01*
X136630292Y-73088208D01*
X136496664Y-72978542D01*
X136344209Y-72897053D01*
X136178785Y-72846872D01*
X136006750Y-72829928D01*
X135519250Y-72829928D01*
X135347215Y-72846872D01*
X135181791Y-72897053D01*
X135029336Y-72978542D01*
X134895708Y-73088208D01*
X134786042Y-73221836D01*
X134704553Y-73374291D01*
X134654372Y-73539715D01*
X134637428Y-73711750D01*
X134637428Y-74219980D01*
X134631963Y-74226639D01*
X134571789Y-74299961D01*
X134562689Y-74316986D01*
X134501217Y-74431991D01*
X134457760Y-74575252D01*
X134446763Y-74686905D01*
X134446763Y-74686915D01*
X134443087Y-74724237D01*
X134137000Y-74724237D01*
X134137000Y-72930279D01*
X134171072Y-72582790D01*
X134262614Y-72279587D01*
X134411307Y-71999936D01*
X134611484Y-71754495D01*
X134855521Y-71552609D01*
X135134125Y-71401969D01*
X135436688Y-71308310D01*
X135782158Y-71272000D01*
X151478721Y-71272000D01*
X151826210Y-71306072D01*
M02*
