G04 #@! TF.GenerationSoftware,KiCad,Pcbnew,(5.1.0)-1*
G04 #@! TF.CreationDate,2019-04-03T20:49:52-04:00*
G04 #@! TF.ProjectId,3wireducer_daughter,33776972-6564-4756-9365-725f64617567,rev?*
G04 #@! TF.SameCoordinates,Original*
G04 #@! TF.FileFunction,Legend,Top*
G04 #@! TF.FilePolarity,Positive*
%FSLAX46Y46*%
G04 Gerber Fmt 4.6, Leading zero omitted, Abs format (unit mm)*
G04 Created by KiCad (PCBNEW (5.1.0)-1) date 2019-04-03 20:49:52*
%MOMM*%
%LPD*%
G04 APERTURE LIST*
%ADD10C,0.250000*%
%ADD11C,0.300000*%
%ADD12C,0.150000*%
%ADD13C,0.120000*%
G04 APERTURE END LIST*
D10*
X149566380Y-78818952D02*
X150566380Y-78580857D01*
X149852095Y-78390380D01*
X150566380Y-78199904D01*
X149566380Y-77961809D01*
X150280666Y-77628476D02*
X150280666Y-77152285D01*
X150566380Y-77723714D02*
X149566380Y-77390380D01*
X150566380Y-77057047D01*
X150566380Y-76152285D02*
X150090190Y-76485619D01*
X150566380Y-76723714D02*
X149566380Y-76723714D01*
X149566380Y-76342761D01*
X149614000Y-76247523D01*
X149661619Y-76199904D01*
X149756857Y-76152285D01*
X149899714Y-76152285D01*
X149994952Y-76199904D01*
X150042571Y-76247523D01*
X150090190Y-76342761D01*
X150090190Y-76723714D01*
X150566380Y-75723714D02*
X149566380Y-75723714D01*
X150566380Y-75152285D01*
X149566380Y-75152285D01*
X150566380Y-74676095D02*
X149566380Y-74676095D01*
X150566380Y-74199904D02*
X149566380Y-74199904D01*
X150566380Y-73628476D01*
X149566380Y-73628476D01*
X149614000Y-72628476D02*
X149566380Y-72723714D01*
X149566380Y-72866571D01*
X149614000Y-73009428D01*
X149709238Y-73104666D01*
X149804476Y-73152285D01*
X149994952Y-73199904D01*
X150137809Y-73199904D01*
X150328285Y-73152285D01*
X150423523Y-73104666D01*
X150518761Y-73009428D01*
X150566380Y-72866571D01*
X150566380Y-72771333D01*
X150518761Y-72628476D01*
X150471142Y-72580857D01*
X150137809Y-72580857D01*
X150137809Y-72771333D01*
X150471142Y-72152285D02*
X150518761Y-72104666D01*
X150566380Y-72152285D01*
X150518761Y-72199904D01*
X150471142Y-72152285D01*
X150566380Y-72152285D01*
X150185428Y-72152285D02*
X149614000Y-72199904D01*
X149566380Y-72152285D01*
X149614000Y-72104666D01*
X150185428Y-72152285D01*
X149566380Y-72152285D01*
D11*
X148812285Y-79696571D02*
X148098000Y-79696571D01*
X148026571Y-80410857D01*
X148098000Y-80339428D01*
X148240857Y-80268000D01*
X148598000Y-80268000D01*
X148740857Y-80339428D01*
X148812285Y-80410857D01*
X148883714Y-80553714D01*
X148883714Y-80910857D01*
X148812285Y-81053714D01*
X148740857Y-81125142D01*
X148598000Y-81196571D01*
X148240857Y-81196571D01*
X148098000Y-81125142D01*
X148026571Y-81053714D01*
X149312285Y-79696571D02*
X149812285Y-81196571D01*
X150312285Y-79696571D01*
X143089428Y-81196571D02*
X142232285Y-81196571D01*
X142660857Y-81196571D02*
X142660857Y-79696571D01*
X142518000Y-79910857D01*
X142375142Y-80053714D01*
X142232285Y-80125142D01*
X143660857Y-79839428D02*
X143732285Y-79768000D01*
X143875142Y-79696571D01*
X144232285Y-79696571D01*
X144375142Y-79768000D01*
X144446571Y-79839428D01*
X144518000Y-79982285D01*
X144518000Y-80125142D01*
X144446571Y-80339428D01*
X143589428Y-81196571D01*
X144518000Y-81196571D01*
X144946571Y-79696571D02*
X145446571Y-81196571D01*
X145946571Y-79696571D01*
X137025285Y-79712428D02*
X137096714Y-79641000D01*
X137239571Y-79569571D01*
X137596714Y-79569571D01*
X137739571Y-79641000D01*
X137811000Y-79712428D01*
X137882428Y-79855285D01*
X137882428Y-79998142D01*
X137811000Y-80212428D01*
X136953857Y-81069571D01*
X137882428Y-81069571D01*
X138739571Y-80212428D02*
X138596714Y-80141000D01*
X138525285Y-80069571D01*
X138453857Y-79926714D01*
X138453857Y-79855285D01*
X138525285Y-79712428D01*
X138596714Y-79641000D01*
X138739571Y-79569571D01*
X139025285Y-79569571D01*
X139168142Y-79641000D01*
X139239571Y-79712428D01*
X139311000Y-79855285D01*
X139311000Y-79926714D01*
X139239571Y-80069571D01*
X139168142Y-80141000D01*
X139025285Y-80212428D01*
X138739571Y-80212428D01*
X138596714Y-80283857D01*
X138525285Y-80355285D01*
X138453857Y-80498142D01*
X138453857Y-80783857D01*
X138525285Y-80926714D01*
X138596714Y-80998142D01*
X138739571Y-81069571D01*
X139025285Y-81069571D01*
X139168142Y-80998142D01*
X139239571Y-80926714D01*
X139311000Y-80783857D01*
X139311000Y-80498142D01*
X139239571Y-80355285D01*
X139168142Y-80283857D01*
X139025285Y-80212428D01*
X139739571Y-79569571D02*
X140239571Y-81069571D01*
X140739571Y-79569571D01*
D12*
X151638428Y-80044428D02*
X151038428Y-80044428D01*
X151324142Y-80044428D02*
X151324142Y-79701571D01*
X151638428Y-79701571D02*
X151038428Y-79701571D01*
X151638428Y-79158714D02*
X151324142Y-79158714D01*
X151267000Y-79187285D01*
X151238428Y-79244428D01*
X151238428Y-79358714D01*
X151267000Y-79415857D01*
X151609857Y-79158714D02*
X151638428Y-79215857D01*
X151638428Y-79358714D01*
X151609857Y-79415857D01*
X151552714Y-79444428D01*
X151495571Y-79444428D01*
X151438428Y-79415857D01*
X151409857Y-79358714D01*
X151409857Y-79215857D01*
X151381285Y-79158714D01*
X151238428Y-78930142D02*
X151638428Y-78787285D01*
X151238428Y-78644428D01*
X151609857Y-78187285D02*
X151638428Y-78244428D01*
X151638428Y-78358714D01*
X151609857Y-78415857D01*
X151552714Y-78444428D01*
X151324142Y-78444428D01*
X151267000Y-78415857D01*
X151238428Y-78358714D01*
X151238428Y-78244428D01*
X151267000Y-78187285D01*
X151324142Y-78158714D01*
X151381285Y-78158714D01*
X151438428Y-78444428D01*
X151238428Y-77501571D02*
X151638428Y-77358714D01*
X151238428Y-77215857D02*
X151638428Y-77358714D01*
X151781285Y-77415857D01*
X151809857Y-77444428D01*
X151838428Y-77501571D01*
X151638428Y-76901571D02*
X151609857Y-76958714D01*
X151581285Y-76987285D01*
X151524142Y-77015857D01*
X151352714Y-77015857D01*
X151295571Y-76987285D01*
X151267000Y-76958714D01*
X151238428Y-76901571D01*
X151238428Y-76815857D01*
X151267000Y-76758714D01*
X151295571Y-76730142D01*
X151352714Y-76701571D01*
X151524142Y-76701571D01*
X151581285Y-76730142D01*
X151609857Y-76758714D01*
X151638428Y-76815857D01*
X151638428Y-76901571D01*
X151238428Y-76187285D02*
X151638428Y-76187285D01*
X151238428Y-76444428D02*
X151552714Y-76444428D01*
X151609857Y-76415857D01*
X151638428Y-76358714D01*
X151638428Y-76273000D01*
X151609857Y-76215857D01*
X151581285Y-76187285D01*
X151609857Y-75187285D02*
X151638428Y-75244428D01*
X151638428Y-75358714D01*
X151609857Y-75415857D01*
X151581285Y-75444428D01*
X151524142Y-75473000D01*
X151352714Y-75473000D01*
X151295571Y-75444428D01*
X151267000Y-75415857D01*
X151238428Y-75358714D01*
X151238428Y-75244428D01*
X151267000Y-75187285D01*
X151638428Y-74930142D02*
X151038428Y-74930142D01*
X151638428Y-74673000D02*
X151324142Y-74673000D01*
X151267000Y-74701571D01*
X151238428Y-74758714D01*
X151238428Y-74844428D01*
X151267000Y-74901571D01*
X151295571Y-74930142D01*
X151609857Y-74158714D02*
X151638428Y-74215857D01*
X151638428Y-74330142D01*
X151609857Y-74387285D01*
X151552714Y-74415857D01*
X151324142Y-74415857D01*
X151267000Y-74387285D01*
X151238428Y-74330142D01*
X151238428Y-74215857D01*
X151267000Y-74158714D01*
X151324142Y-74130142D01*
X151381285Y-74130142D01*
X151438428Y-74415857D01*
X151609857Y-73615857D02*
X151638428Y-73673000D01*
X151638428Y-73787285D01*
X151609857Y-73844428D01*
X151581285Y-73873000D01*
X151524142Y-73901571D01*
X151352714Y-73901571D01*
X151295571Y-73873000D01*
X151267000Y-73844428D01*
X151238428Y-73787285D01*
X151238428Y-73673000D01*
X151267000Y-73615857D01*
X151638428Y-73358714D02*
X151038428Y-73358714D01*
X151409857Y-73301571D02*
X151638428Y-73130142D01*
X151238428Y-73130142D02*
X151467000Y-73358714D01*
X151609857Y-72644428D02*
X151638428Y-72701571D01*
X151638428Y-72815857D01*
X151609857Y-72873000D01*
X151552714Y-72901571D01*
X151324142Y-72901571D01*
X151267000Y-72873000D01*
X151238428Y-72815857D01*
X151238428Y-72701571D01*
X151267000Y-72644428D01*
X151324142Y-72615857D01*
X151381285Y-72615857D01*
X151438428Y-72901571D01*
X151638428Y-72101571D02*
X151038428Y-72101571D01*
X151609857Y-72101571D02*
X151638428Y-72158714D01*
X151638428Y-72273000D01*
X151609857Y-72330142D01*
X151581285Y-72358714D01*
X151524142Y-72387285D01*
X151352714Y-72387285D01*
X151295571Y-72358714D01*
X151267000Y-72330142D01*
X151238428Y-72273000D01*
X151238428Y-72158714D01*
X151267000Y-72101571D01*
X152288428Y-80144428D02*
X152688428Y-80001571D01*
X152288428Y-79858714D02*
X152688428Y-80001571D01*
X152831285Y-80058714D01*
X152859857Y-80087285D01*
X152888428Y-80144428D01*
X152688428Y-79544428D02*
X152659857Y-79601571D01*
X152631285Y-79630142D01*
X152574142Y-79658714D01*
X152402714Y-79658714D01*
X152345571Y-79630142D01*
X152317000Y-79601571D01*
X152288428Y-79544428D01*
X152288428Y-79458714D01*
X152317000Y-79401571D01*
X152345571Y-79373000D01*
X152402714Y-79344428D01*
X152574142Y-79344428D01*
X152631285Y-79373000D01*
X152659857Y-79401571D01*
X152688428Y-79458714D01*
X152688428Y-79544428D01*
X152288428Y-78830142D02*
X152688428Y-78830142D01*
X152288428Y-79087285D02*
X152602714Y-79087285D01*
X152659857Y-79058714D01*
X152688428Y-79001571D01*
X152688428Y-78915857D01*
X152659857Y-78858714D01*
X152631285Y-78830142D01*
X152688428Y-78544428D02*
X152288428Y-78544428D01*
X152402714Y-78544428D02*
X152345571Y-78515857D01*
X152317000Y-78487285D01*
X152288428Y-78430142D01*
X152288428Y-78373000D01*
X152659857Y-77487285D02*
X152688428Y-77544428D01*
X152688428Y-77658714D01*
X152659857Y-77715857D01*
X152602714Y-77744428D01*
X152374142Y-77744428D01*
X152317000Y-77715857D01*
X152288428Y-77658714D01*
X152288428Y-77544428D01*
X152317000Y-77487285D01*
X152374142Y-77458714D01*
X152431285Y-77458714D01*
X152488428Y-77744428D01*
X152688428Y-77258714D02*
X152288428Y-76944428D01*
X152288428Y-77258714D02*
X152688428Y-76944428D01*
X152659857Y-76458714D02*
X152688428Y-76515857D01*
X152688428Y-76630142D01*
X152659857Y-76687285D01*
X152631285Y-76715857D01*
X152574142Y-76744428D01*
X152402714Y-76744428D01*
X152345571Y-76715857D01*
X152317000Y-76687285D01*
X152288428Y-76630142D01*
X152288428Y-76515857D01*
X152317000Y-76458714D01*
X152688428Y-76201571D02*
X152288428Y-76201571D01*
X152088428Y-76201571D02*
X152117000Y-76230142D01*
X152145571Y-76201571D01*
X152117000Y-76173000D01*
X152088428Y-76201571D01*
X152145571Y-76201571D01*
X152288428Y-76001571D02*
X152288428Y-75773000D01*
X152088428Y-75915857D02*
X152602714Y-75915857D01*
X152659857Y-75887285D01*
X152688428Y-75830142D01*
X152688428Y-75773000D01*
X152688428Y-75315857D02*
X152374142Y-75315857D01*
X152317000Y-75344428D01*
X152288428Y-75401571D01*
X152288428Y-75515857D01*
X152317000Y-75573000D01*
X152659857Y-75315857D02*
X152688428Y-75373000D01*
X152688428Y-75515857D01*
X152659857Y-75573000D01*
X152602714Y-75601571D01*
X152545571Y-75601571D01*
X152488428Y-75573000D01*
X152459857Y-75515857D01*
X152459857Y-75373000D01*
X152431285Y-75315857D01*
X152288428Y-75115857D02*
X152288428Y-74887285D01*
X152088428Y-75030142D02*
X152602714Y-75030142D01*
X152659857Y-75001571D01*
X152688428Y-74944428D01*
X152688428Y-74887285D01*
X152688428Y-74687285D02*
X152288428Y-74687285D01*
X152088428Y-74687285D02*
X152117000Y-74715857D01*
X152145571Y-74687285D01*
X152117000Y-74658714D01*
X152088428Y-74687285D01*
X152145571Y-74687285D01*
X152688428Y-74315857D02*
X152659857Y-74373000D01*
X152631285Y-74401571D01*
X152574142Y-74430142D01*
X152402714Y-74430142D01*
X152345571Y-74401571D01*
X152317000Y-74373000D01*
X152288428Y-74315857D01*
X152288428Y-74230142D01*
X152317000Y-74173000D01*
X152345571Y-74144428D01*
X152402714Y-74115857D01*
X152574142Y-74115857D01*
X152631285Y-74144428D01*
X152659857Y-74173000D01*
X152688428Y-74230142D01*
X152688428Y-74315857D01*
X152288428Y-73858714D02*
X152688428Y-73858714D01*
X152345571Y-73858714D02*
X152317000Y-73830142D01*
X152288428Y-73773000D01*
X152288428Y-73687285D01*
X152317000Y-73630142D01*
X152374142Y-73601571D01*
X152688428Y-73601571D01*
X152631285Y-73230142D02*
X152659857Y-73201571D01*
X152688428Y-73230142D01*
X152659857Y-73258714D01*
X152631285Y-73230142D01*
X152688428Y-73230142D01*
X152117000Y-73344428D02*
X152088428Y-73287285D01*
X152088428Y-73144428D01*
X152117000Y-73087285D01*
X152174142Y-73058714D01*
X152231285Y-73058714D01*
X152288428Y-73087285D01*
X152317000Y-73115857D01*
X152345571Y-73173000D01*
X152374142Y-73201571D01*
X152431285Y-73230142D01*
X152459857Y-73230142D01*
X152631285Y-72715857D02*
X152659857Y-72687285D01*
X152688428Y-72715857D01*
X152659857Y-72744428D01*
X152631285Y-72715857D01*
X152688428Y-72715857D01*
X152117000Y-72830142D02*
X152088428Y-72773000D01*
X152088428Y-72630142D01*
X152117000Y-72573000D01*
X152174142Y-72544428D01*
X152231285Y-72544428D01*
X152288428Y-72573000D01*
X152317000Y-72601571D01*
X152345571Y-72658714D01*
X152374142Y-72687285D01*
X152431285Y-72715857D01*
X152459857Y-72715857D01*
X152631285Y-72201571D02*
X152659857Y-72173000D01*
X152688428Y-72201571D01*
X152659857Y-72230142D01*
X152631285Y-72201571D01*
X152688428Y-72201571D01*
X152117000Y-72315857D02*
X152088428Y-72258714D01*
X152088428Y-72115857D01*
X152117000Y-72058714D01*
X152174142Y-72030142D01*
X152231285Y-72030142D01*
X152288428Y-72058714D01*
X152317000Y-72087285D01*
X152345571Y-72144428D01*
X152374142Y-72173000D01*
X152431285Y-72201571D01*
X152459857Y-72201571D01*
D13*
X139961034Y-91313000D02*
G75*
G03X139961034Y-91313000I-1150034J0D01*
G01*
D12*
X135802619Y-83154571D02*
X135802619Y-83773619D01*
X135421666Y-83440285D01*
X135421666Y-83583142D01*
X135374047Y-83678380D01*
X135326428Y-83726000D01*
X135231190Y-83773619D01*
X134993095Y-83773619D01*
X134897857Y-83726000D01*
X134850238Y-83678380D01*
X134802619Y-83583142D01*
X134802619Y-83297428D01*
X134850238Y-83202190D01*
X134897857Y-83154571D01*
X135183571Y-84202190D02*
X135183571Y-84964095D01*
X135802619Y-85345047D02*
X134802619Y-85583142D01*
X135516904Y-85773619D01*
X134802619Y-85964095D01*
X135802619Y-86202190D01*
X134802619Y-86583142D02*
X135469285Y-86583142D01*
X135802619Y-86583142D02*
X135755000Y-86535523D01*
X135707380Y-86583142D01*
X135755000Y-86630761D01*
X135802619Y-86583142D01*
X135707380Y-86583142D01*
X134802619Y-87059333D02*
X135469285Y-87059333D01*
X135278809Y-87059333D02*
X135374047Y-87106952D01*
X135421666Y-87154571D01*
X135469285Y-87249809D01*
X135469285Y-87345047D01*
X134850238Y-88059333D02*
X134802619Y-87964095D01*
X134802619Y-87773619D01*
X134850238Y-87678380D01*
X134945476Y-87630761D01*
X135326428Y-87630761D01*
X135421666Y-87678380D01*
X135469285Y-87773619D01*
X135469285Y-87964095D01*
X135421666Y-88059333D01*
X135326428Y-88106952D01*
X135231190Y-88106952D01*
X135135952Y-87630761D01*
X134802619Y-89297428D02*
X135802619Y-89297428D01*
X135802619Y-89678380D01*
X135755000Y-89773619D01*
X135707380Y-89821238D01*
X135612142Y-89868857D01*
X135469285Y-89868857D01*
X135374047Y-89821238D01*
X135326428Y-89773619D01*
X135278809Y-89678380D01*
X135278809Y-89297428D01*
X134802619Y-90297428D02*
X135469285Y-90297428D01*
X135278809Y-90297428D02*
X135374047Y-90345047D01*
X135421666Y-90392666D01*
X135469285Y-90487904D01*
X135469285Y-90583142D01*
X134850238Y-91297428D02*
X134802619Y-91202190D01*
X134802619Y-91011714D01*
X134850238Y-90916476D01*
X134945476Y-90868857D01*
X135326428Y-90868857D01*
X135421666Y-90916476D01*
X135469285Y-91011714D01*
X135469285Y-91202190D01*
X135421666Y-91297428D01*
X135326428Y-91345047D01*
X135231190Y-91345047D01*
X135135952Y-90868857D01*
X134850238Y-91726000D02*
X134802619Y-91821238D01*
X134802619Y-92011714D01*
X134850238Y-92106952D01*
X134945476Y-92154571D01*
X134993095Y-92154571D01*
X135088333Y-92106952D01*
X135135952Y-92011714D01*
X135135952Y-91868857D01*
X135183571Y-91773619D01*
X135278809Y-91726000D01*
X135326428Y-91726000D01*
X135421666Y-91773619D01*
X135469285Y-91868857D01*
X135469285Y-92011714D01*
X135421666Y-92106952D01*
X134850238Y-92535523D02*
X134802619Y-92630761D01*
X134802619Y-92821238D01*
X134850238Y-92916476D01*
X134945476Y-92964095D01*
X134993095Y-92964095D01*
X135088333Y-92916476D01*
X135135952Y-92821238D01*
X135135952Y-92678380D01*
X135183571Y-92583142D01*
X135278809Y-92535523D01*
X135326428Y-92535523D01*
X135421666Y-92583142D01*
X135469285Y-92678380D01*
X135469285Y-92821238D01*
X135421666Y-92916476D01*
X135469285Y-93821238D02*
X134802619Y-93821238D01*
X135469285Y-93392666D02*
X134945476Y-93392666D01*
X134850238Y-93440285D01*
X134802619Y-93535523D01*
X134802619Y-93678380D01*
X134850238Y-93773619D01*
X134897857Y-93821238D01*
X134802619Y-94297428D02*
X135469285Y-94297428D01*
X135278809Y-94297428D02*
X135374047Y-94345047D01*
X135421666Y-94392666D01*
X135469285Y-94487904D01*
X135469285Y-94583142D01*
X134850238Y-95297428D02*
X134802619Y-95202190D01*
X134802619Y-95011714D01*
X134850238Y-94916476D01*
X134945476Y-94868857D01*
X135326428Y-94868857D01*
X135421666Y-94916476D01*
X135469285Y-95011714D01*
X135469285Y-95202190D01*
X135421666Y-95297428D01*
X135326428Y-95345047D01*
X135231190Y-95345047D01*
X135135952Y-94868857D01*
X135802619Y-96392666D02*
X135802619Y-96964095D01*
X134802619Y-96678380D02*
X135802619Y-96678380D01*
X134802619Y-97297428D02*
X135469285Y-97297428D01*
X135278809Y-97297428D02*
X135374047Y-97345047D01*
X135421666Y-97392666D01*
X135469285Y-97487904D01*
X135469285Y-97583142D01*
X134802619Y-98345047D02*
X135326428Y-98345047D01*
X135421666Y-98297428D01*
X135469285Y-98202190D01*
X135469285Y-98011714D01*
X135421666Y-97916476D01*
X134850238Y-98345047D02*
X134802619Y-98249809D01*
X134802619Y-98011714D01*
X134850238Y-97916476D01*
X134945476Y-97868857D01*
X135040714Y-97868857D01*
X135135952Y-97916476D01*
X135183571Y-98011714D01*
X135183571Y-98249809D01*
X135231190Y-98345047D01*
X135469285Y-98821238D02*
X134802619Y-98821238D01*
X135374047Y-98821238D02*
X135421666Y-98868857D01*
X135469285Y-98964095D01*
X135469285Y-99106952D01*
X135421666Y-99202190D01*
X135326428Y-99249809D01*
X134802619Y-99249809D01*
X134850238Y-99678380D02*
X134802619Y-99773619D01*
X134802619Y-99964095D01*
X134850238Y-100059333D01*
X134945476Y-100106952D01*
X134993095Y-100106952D01*
X135088333Y-100059333D01*
X135135952Y-99964095D01*
X135135952Y-99821238D01*
X135183571Y-99726000D01*
X135278809Y-99678380D01*
X135326428Y-99678380D01*
X135421666Y-99726000D01*
X135469285Y-99821238D01*
X135469285Y-99964095D01*
X135421666Y-100059333D01*
X134802619Y-100964095D02*
X135802619Y-100964095D01*
X134850238Y-100964095D02*
X134802619Y-100868857D01*
X134802619Y-100678380D01*
X134850238Y-100583142D01*
X134897857Y-100535523D01*
X134993095Y-100487904D01*
X135278809Y-100487904D01*
X135374047Y-100535523D01*
X135421666Y-100583142D01*
X135469285Y-100678380D01*
X135469285Y-100868857D01*
X135421666Y-100964095D01*
X135469285Y-101868857D02*
X134802619Y-101868857D01*
X135469285Y-101440285D02*
X134945476Y-101440285D01*
X134850238Y-101487904D01*
X134802619Y-101583142D01*
X134802619Y-101726000D01*
X134850238Y-101821238D01*
X134897857Y-101868857D01*
X134850238Y-102773619D02*
X134802619Y-102678380D01*
X134802619Y-102487904D01*
X134850238Y-102392666D01*
X134897857Y-102345047D01*
X134993095Y-102297428D01*
X135278809Y-102297428D01*
X135374047Y-102345047D01*
X135421666Y-102392666D01*
X135469285Y-102487904D01*
X135469285Y-102678380D01*
X135421666Y-102773619D01*
X134850238Y-103583142D02*
X134802619Y-103487904D01*
X134802619Y-103297428D01*
X134850238Y-103202190D01*
X134945476Y-103154571D01*
X135326428Y-103154571D01*
X135421666Y-103202190D01*
X135469285Y-103297428D01*
X135469285Y-103487904D01*
X135421666Y-103583142D01*
X135326428Y-103630761D01*
X135231190Y-103630761D01*
X135135952Y-103154571D01*
X134802619Y-104059333D02*
X135469285Y-104059333D01*
X135278809Y-104059333D02*
X135374047Y-104106952D01*
X135421666Y-104154571D01*
X135469285Y-104249809D01*
X135469285Y-104345047D01*
D13*
X142315000Y-97355922D02*
X142315000Y-97873078D01*
X140895000Y-97355922D02*
X140895000Y-97873078D01*
X136959078Y-74878000D02*
X136441922Y-74878000D01*
X136959078Y-73458000D02*
X136441922Y-73458000D01*
X149860000Y-102743000D02*
X137160000Y-102743000D01*
X137160000Y-102743000D02*
X137160000Y-90043000D01*
X149860000Y-102743000D02*
X149860000Y-90043000D01*
X139664000Y-76768000D02*
X140434000Y-76768000D01*
X142014000Y-76768000D02*
X142974000Y-76768000D01*
X144554000Y-76768000D02*
X145514000Y-76768000D01*
X147094000Y-76768000D02*
X147864000Y-76768000D01*
X139664000Y-71468000D02*
X147864000Y-71468000D01*
X139664000Y-71008000D02*
X147864000Y-71008000D01*
X139664000Y-77328000D02*
X140434000Y-77328000D01*
X142014000Y-77328000D02*
X142974000Y-77328000D01*
X144554000Y-77328000D02*
X145514000Y-77328000D01*
X147094000Y-77328000D02*
X147864000Y-77328000D01*
X139664000Y-71008000D02*
X139664000Y-77328000D01*
X147864000Y-71008000D02*
X147864000Y-77328000D01*
X139424000Y-76828000D02*
X139424000Y-77568000D01*
X139424000Y-77568000D02*
X139924000Y-77568000D01*
X150428000Y-81855000D02*
X147768000Y-81855000D01*
X150428000Y-84455000D02*
X150428000Y-81855000D01*
X147768000Y-84455000D02*
X147768000Y-81855000D01*
X150428000Y-84455000D02*
X147768000Y-84455000D01*
X150428000Y-85725000D02*
X150428000Y-87055000D01*
X150428000Y-87055000D02*
X149098000Y-87055000D01*
X145348000Y-87055000D02*
X144018000Y-87055000D01*
X145348000Y-85725000D02*
X145348000Y-87055000D01*
X145348000Y-84455000D02*
X142688000Y-84455000D01*
X142688000Y-84455000D02*
X142688000Y-81855000D01*
X145348000Y-84455000D02*
X145348000Y-81855000D01*
X145348000Y-81855000D02*
X142688000Y-81855000D01*
X140141000Y-81728000D02*
X137481000Y-81728000D01*
X140141000Y-84328000D02*
X140141000Y-81728000D01*
X137481000Y-84328000D02*
X137481000Y-81728000D01*
X140141000Y-84328000D02*
X137481000Y-84328000D01*
X140141000Y-85598000D02*
X140141000Y-86928000D01*
X140141000Y-86928000D02*
X138811000Y-86928000D01*
X145871000Y-92783922D02*
X145871000Y-93301078D01*
X144451000Y-92783922D02*
X144451000Y-93301078D01*
X144324000Y-97355922D02*
X144324000Y-97873078D01*
X145744000Y-97355922D02*
X145744000Y-97873078D01*
D12*
X143612142Y-97781166D02*
X143659761Y-97828785D01*
X143707380Y-97971642D01*
X143707380Y-98066880D01*
X143659761Y-98209738D01*
X143564523Y-98304976D01*
X143469285Y-98352595D01*
X143278809Y-98400214D01*
X143135952Y-98400214D01*
X142945476Y-98352595D01*
X142850238Y-98304976D01*
X142755000Y-98209738D01*
X142707380Y-98066880D01*
X142707380Y-97971642D01*
X142755000Y-97828785D01*
X142802619Y-97781166D01*
X143707380Y-96828785D02*
X143707380Y-97400214D01*
X143707380Y-97114500D02*
X142707380Y-97114500D01*
X142850238Y-97209738D01*
X142945476Y-97304976D01*
X142993095Y-97400214D01*
X136367166Y-75746571D02*
X136033833Y-75746571D01*
X136033833Y-76270380D02*
X136033833Y-75270380D01*
X136510023Y-75270380D01*
X137414785Y-76270380D02*
X136843357Y-76270380D01*
X137129071Y-76270380D02*
X137129071Y-75270380D01*
X137033833Y-75413238D01*
X136938595Y-75508476D01*
X136843357Y-75556095D01*
X150669666Y-101560380D02*
X150669666Y-102274666D01*
X150622047Y-102417523D01*
X150526809Y-102512761D01*
X150383952Y-102560380D01*
X150288714Y-102560380D01*
X151669666Y-102560380D02*
X151098238Y-102560380D01*
X151383952Y-102560380D02*
X151383952Y-101560380D01*
X151288714Y-101703238D01*
X151193476Y-101798476D01*
X151098238Y-101846095D01*
X143176666Y-77811380D02*
X143176666Y-78525666D01*
X143129047Y-78668523D01*
X143033809Y-78763761D01*
X142890952Y-78811380D01*
X142795714Y-78811380D01*
X143605238Y-77906619D02*
X143652857Y-77859000D01*
X143748095Y-77811380D01*
X143986190Y-77811380D01*
X144081428Y-77859000D01*
X144129047Y-77906619D01*
X144176666Y-78001857D01*
X144176666Y-78097095D01*
X144129047Y-78239952D01*
X143557619Y-78811380D01*
X144176666Y-78811380D01*
X148264666Y-87507380D02*
X148264666Y-88221666D01*
X148217047Y-88364523D01*
X148121809Y-88459761D01*
X147978952Y-88507380D01*
X147883714Y-88507380D01*
X148740857Y-88507380D02*
X148740857Y-87507380D01*
X149121809Y-87507380D01*
X149217047Y-87555000D01*
X149264666Y-87602619D01*
X149312285Y-87697857D01*
X149312285Y-87840714D01*
X149264666Y-87935952D01*
X149217047Y-87983571D01*
X149121809Y-88031190D01*
X148740857Y-88031190D01*
X150264666Y-88507380D02*
X149693238Y-88507380D01*
X149978952Y-88507380D02*
X149978952Y-87507380D01*
X149883714Y-87650238D01*
X149788476Y-87745476D01*
X149693238Y-87793095D01*
X143184666Y-87507380D02*
X143184666Y-88221666D01*
X143137047Y-88364523D01*
X143041809Y-88459761D01*
X142898952Y-88507380D01*
X142803714Y-88507380D01*
X143660857Y-88507380D02*
X143660857Y-87507380D01*
X144041809Y-87507380D01*
X144137047Y-87555000D01*
X144184666Y-87602619D01*
X144232285Y-87697857D01*
X144232285Y-87840714D01*
X144184666Y-87935952D01*
X144137047Y-87983571D01*
X144041809Y-88031190D01*
X143660857Y-88031190D01*
X144613238Y-87602619D02*
X144660857Y-87555000D01*
X144756095Y-87507380D01*
X144994190Y-87507380D01*
X145089428Y-87555000D01*
X145137047Y-87602619D01*
X145184666Y-87697857D01*
X145184666Y-87793095D01*
X145137047Y-87935952D01*
X144565619Y-88507380D01*
X145184666Y-88507380D01*
X137977666Y-87380380D02*
X137977666Y-88094666D01*
X137930047Y-88237523D01*
X137834809Y-88332761D01*
X137691952Y-88380380D01*
X137596714Y-88380380D01*
X138453857Y-88380380D02*
X138453857Y-87380380D01*
X138834809Y-87380380D01*
X138930047Y-87428000D01*
X138977666Y-87475619D01*
X139025285Y-87570857D01*
X139025285Y-87713714D01*
X138977666Y-87808952D01*
X138930047Y-87856571D01*
X138834809Y-87904190D01*
X138453857Y-87904190D01*
X139358619Y-87380380D02*
X139977666Y-87380380D01*
X139644333Y-87761333D01*
X139787190Y-87761333D01*
X139882428Y-87808952D01*
X139930047Y-87856571D01*
X139977666Y-87951809D01*
X139977666Y-88189904D01*
X139930047Y-88285142D01*
X139882428Y-88332761D01*
X139787190Y-88380380D01*
X139501476Y-88380380D01*
X139406238Y-88332761D01*
X139358619Y-88285142D01*
X144089380Y-93209166D02*
X143613190Y-93542500D01*
X144089380Y-93780595D02*
X143089380Y-93780595D01*
X143089380Y-93399642D01*
X143137000Y-93304404D01*
X143184619Y-93256785D01*
X143279857Y-93209166D01*
X143422714Y-93209166D01*
X143517952Y-93256785D01*
X143565571Y-93304404D01*
X143613190Y-93399642D01*
X143613190Y-93780595D01*
X144089380Y-92256785D02*
X144089380Y-92828214D01*
X144089380Y-92542500D02*
X143089380Y-92542500D01*
X143232238Y-92637738D01*
X143327476Y-92732976D01*
X143375095Y-92828214D01*
X147136380Y-97781166D02*
X146660190Y-98114500D01*
X147136380Y-98352595D02*
X146136380Y-98352595D01*
X146136380Y-97971642D01*
X146184000Y-97876404D01*
X146231619Y-97828785D01*
X146326857Y-97781166D01*
X146469714Y-97781166D01*
X146564952Y-97828785D01*
X146612571Y-97876404D01*
X146660190Y-97971642D01*
X146660190Y-98352595D01*
X146231619Y-97400214D02*
X146184000Y-97352595D01*
X146136380Y-97257357D01*
X146136380Y-97019261D01*
X146184000Y-96924023D01*
X146231619Y-96876404D01*
X146326857Y-96828785D01*
X146422095Y-96828785D01*
X146564952Y-96876404D01*
X147136380Y-97447833D01*
X147136380Y-96828785D01*
M02*
