G04 #@! TF.GenerationSoftware,KiCad,Pcbnew,(5.1.0)-1*
G04 #@! TF.CreationDate,2019-04-03T20:49:52-04:00*
G04 #@! TF.ProjectId,3wireducer_daughter,33776972-6564-4756-9365-725f64617567,rev?*
G04 #@! TF.SameCoordinates,Original*
G04 #@! TF.FileFunction,Legend,Bot*
G04 #@! TF.FilePolarity,Positive*
%FSLAX46Y46*%
G04 Gerber Fmt 4.6, Leading zero omitted, Abs format (unit mm)*
G04 Created by KiCad (PCBNEW (5.1.0)-1) date 2019-04-03 20:49:52*
%MOMM*%
%LPD*%
G04 APERTURE LIST*
%ADD10C,0.150000*%
%ADD11C,0.010000*%
G04 APERTURE END LIST*
D10*
X145962666Y-92710571D02*
X145962666Y-93186761D01*
X146248380Y-92615333D02*
X145248380Y-92948666D01*
X146248380Y-93282000D01*
X146153142Y-93615333D02*
X146200761Y-93662952D01*
X146248380Y-93615333D01*
X146200761Y-93567714D01*
X146153142Y-93615333D01*
X146248380Y-93615333D01*
X146248380Y-94853428D02*
X145248380Y-94853428D01*
X145248380Y-95091523D01*
X145296000Y-95234380D01*
X145391238Y-95329619D01*
X145486476Y-95377238D01*
X145676952Y-95424857D01*
X145819809Y-95424857D01*
X146010285Y-95377238D01*
X146105523Y-95329619D01*
X146200761Y-95234380D01*
X146248380Y-95091523D01*
X146248380Y-94853428D01*
X146248380Y-96282000D02*
X145724571Y-96282000D01*
X145629333Y-96234380D01*
X145581714Y-96139142D01*
X145581714Y-95948666D01*
X145629333Y-95853428D01*
X146200761Y-96282000D02*
X146248380Y-96186761D01*
X146248380Y-95948666D01*
X146200761Y-95853428D01*
X146105523Y-95805809D01*
X146010285Y-95805809D01*
X145915047Y-95853428D01*
X145867428Y-95948666D01*
X145867428Y-96186761D01*
X145819809Y-96282000D01*
X145581714Y-96662952D02*
X146248380Y-96901047D01*
X145581714Y-97139142D01*
X146200761Y-97901047D02*
X146248380Y-97805809D01*
X146248380Y-97615333D01*
X146200761Y-97520095D01*
X146105523Y-97472476D01*
X145724571Y-97472476D01*
X145629333Y-97520095D01*
X145581714Y-97615333D01*
X145581714Y-97805809D01*
X145629333Y-97901047D01*
X145724571Y-97948666D01*
X145819809Y-97948666D01*
X145915047Y-97472476D01*
X145581714Y-98377238D02*
X146248380Y-98377238D01*
X145676952Y-98377238D02*
X145629333Y-98424857D01*
X145581714Y-98520095D01*
X145581714Y-98662952D01*
X145629333Y-98758190D01*
X145724571Y-98805809D01*
X146248380Y-98805809D01*
X145581714Y-99282000D02*
X146581714Y-99282000D01*
X145629333Y-99282000D02*
X145581714Y-99377238D01*
X145581714Y-99567714D01*
X145629333Y-99662952D01*
X145676952Y-99710571D01*
X145772190Y-99758190D01*
X146057904Y-99758190D01*
X146153142Y-99710571D01*
X146200761Y-99662952D01*
X146248380Y-99567714D01*
X146248380Y-99377238D01*
X146200761Y-99282000D01*
X146248380Y-100329619D02*
X146200761Y-100234380D01*
X146153142Y-100186761D01*
X146057904Y-100139142D01*
X145772190Y-100139142D01*
X145676952Y-100186761D01*
X145629333Y-100234380D01*
X145581714Y-100329619D01*
X145581714Y-100472476D01*
X145629333Y-100567714D01*
X145676952Y-100615333D01*
X145772190Y-100662952D01*
X146057904Y-100662952D01*
X146153142Y-100615333D01*
X146200761Y-100567714D01*
X146248380Y-100472476D01*
X146248380Y-100329619D01*
X146248380Y-101091523D02*
X145581714Y-101091523D01*
X145772190Y-101091523D02*
X145676952Y-101139142D01*
X145629333Y-101186761D01*
X145581714Y-101282000D01*
X145581714Y-101377238D01*
X145581714Y-101567714D02*
X145581714Y-101948666D01*
X145248380Y-101710571D02*
X146105523Y-101710571D01*
X146200761Y-101758190D01*
X146248380Y-101853428D01*
X146248380Y-101948666D01*
D11*
G36*
X140514339Y-89201455D02*
G01*
X140527850Y-89287747D01*
X140548923Y-89368571D01*
X140577950Y-89445281D01*
X140615324Y-89519230D01*
X140661439Y-89591773D01*
X140688982Y-89629362D01*
X140720335Y-89666680D01*
X140759842Y-89707973D01*
X140805097Y-89751089D01*
X140853695Y-89793875D01*
X140903232Y-89834181D01*
X140951301Y-89869854D01*
X140977614Y-89887607D01*
X141078133Y-89947572D01*
X141190428Y-90005363D01*
X141313757Y-90060666D01*
X141447378Y-90113162D01*
X141590548Y-90162536D01*
X141703425Y-90197233D01*
X141743702Y-90209096D01*
X141782014Y-90220542D01*
X141815948Y-90230837D01*
X141843091Y-90239248D01*
X141861031Y-90245042D01*
X141863094Y-90245749D01*
X141880837Y-90251210D01*
X141907779Y-90258608D01*
X141940819Y-90267132D01*
X141976859Y-90275971D01*
X141993269Y-90279843D01*
X142033891Y-90289521D01*
X142077003Y-90300158D01*
X142118054Y-90310608D01*
X142152494Y-90319729D01*
X142159520Y-90321662D01*
X142189349Y-90329495D01*
X142227766Y-90338905D01*
X142270984Y-90349001D01*
X142315214Y-90358892D01*
X142343670Y-90364990D01*
X142385554Y-90374039D01*
X142428130Y-90383693D01*
X142467883Y-90393124D01*
X142501297Y-90401502D01*
X142519400Y-90406402D01*
X142546136Y-90413532D01*
X142581719Y-90422315D01*
X142622622Y-90431918D01*
X142665317Y-90441507D01*
X142694739Y-90447840D01*
X142738566Y-90457406D01*
X142784989Y-90468096D01*
X142829860Y-90478920D01*
X142869033Y-90488887D01*
X142888414Y-90494137D01*
X142925441Y-90504301D01*
X142965160Y-90514845D01*
X143002351Y-90524402D01*
X143027400Y-90530567D01*
X143056570Y-90537902D01*
X143093818Y-90547857D01*
X143137073Y-90559823D01*
X143184263Y-90573194D01*
X143233316Y-90587361D01*
X143282163Y-90601718D01*
X143328731Y-90615656D01*
X143370950Y-90628569D01*
X143406748Y-90639849D01*
X143434055Y-90648889D01*
X143447718Y-90653834D01*
X143510600Y-90682075D01*
X143561293Y-90712997D01*
X143599958Y-90746719D01*
X143626759Y-90783358D01*
X143626975Y-90783753D01*
X143641007Y-90816206D01*
X143649613Y-90850434D01*
X143652121Y-90882676D01*
X143648869Y-90906013D01*
X143639713Y-90924790D01*
X143624570Y-90943777D01*
X143606583Y-90959840D01*
X143588898Y-90969841D01*
X143583361Y-90971330D01*
X143571007Y-90973637D01*
X143550472Y-90977713D01*
X143525920Y-90982731D01*
X143522700Y-90983399D01*
X143516267Y-90984629D01*
X143508947Y-90985753D01*
X143500169Y-90986779D01*
X143489366Y-90987709D01*
X143475967Y-90988551D01*
X143459405Y-90989308D01*
X143439110Y-90989986D01*
X143414514Y-90990590D01*
X143385048Y-90991126D01*
X143350142Y-90991598D01*
X143309228Y-90992012D01*
X143261737Y-90992372D01*
X143207101Y-90992685D01*
X143144750Y-90992954D01*
X143074115Y-90993186D01*
X142994628Y-90993385D01*
X142905720Y-90993556D01*
X142806821Y-90993706D01*
X142697364Y-90993838D01*
X142576778Y-90993958D01*
X142444496Y-90994071D01*
X142335250Y-90994156D01*
X142180260Y-90994295D01*
X142037646Y-90994472D01*
X141907084Y-90994687D01*
X141788249Y-90994943D01*
X141680816Y-90995242D01*
X141584463Y-90995586D01*
X141498863Y-90995976D01*
X141423694Y-90996415D01*
X141358631Y-90996904D01*
X141303350Y-90997447D01*
X141257526Y-90998043D01*
X141220835Y-90998697D01*
X141192953Y-90999409D01*
X141173556Y-91000181D01*
X141162319Y-91001016D01*
X141160500Y-91001277D01*
X141114359Y-91010645D01*
X141073506Y-91021718D01*
X141032509Y-91036161D01*
X140992698Y-91052676D01*
X140944534Y-91074647D01*
X140905001Y-91095254D01*
X140870674Y-91116601D01*
X140838130Y-91140790D01*
X140808933Y-91165487D01*
X140743229Y-91231163D01*
X140684753Y-91305512D01*
X140633796Y-91387967D01*
X140590654Y-91477966D01*
X140555620Y-91574942D01*
X140528987Y-91678331D01*
X140521255Y-91718474D01*
X140517575Y-91742331D01*
X140514740Y-91768018D01*
X140512661Y-91797280D01*
X140511250Y-91831865D01*
X140510416Y-91873518D01*
X140510073Y-91923984D01*
X140510053Y-91938961D01*
X140510253Y-91992745D01*
X140511111Y-92037505D01*
X140512939Y-92075235D01*
X140516046Y-92107930D01*
X140520743Y-92137586D01*
X140527340Y-92166197D01*
X140536149Y-92195759D01*
X140547480Y-92228267D01*
X140560425Y-92262561D01*
X140602063Y-92353321D01*
X140655171Y-92439630D01*
X140719475Y-92521233D01*
X140794699Y-92597874D01*
X140880569Y-92669298D01*
X140976812Y-92735250D01*
X141083152Y-92795473D01*
X141184857Y-92843525D01*
X141218516Y-92858183D01*
X141249205Y-92871689D01*
X141274695Y-92883053D01*
X141292755Y-92891280D01*
X141300200Y-92894856D01*
X141316715Y-92901846D01*
X141342175Y-92910799D01*
X141373281Y-92920743D01*
X141406736Y-92930703D01*
X141439243Y-92939707D01*
X141467505Y-92946781D01*
X141488224Y-92950951D01*
X141491761Y-92951417D01*
X141513890Y-92955763D01*
X141523779Y-92962707D01*
X141524103Y-92963557D01*
X141531362Y-92969593D01*
X141550118Y-92976801D01*
X141580835Y-92985348D01*
X141592891Y-92988304D01*
X141624905Y-92996201D01*
X141664182Y-93006242D01*
X141705904Y-93017180D01*
X141745251Y-93027763D01*
X141747875Y-93028481D01*
X141790054Y-93039822D01*
X141838399Y-93052477D01*
X141886818Y-93064868D01*
X141927612Y-93075026D01*
X141966217Y-93084761D01*
X142006544Y-93095450D01*
X142044129Y-93105878D01*
X142074507Y-93114832D01*
X142077787Y-93115854D01*
X142101529Y-93122968D01*
X142132549Y-93131753D01*
X142168851Y-93141694D01*
X142208440Y-93152276D01*
X142249318Y-93162986D01*
X142289489Y-93173308D01*
X142326956Y-93182728D01*
X142359724Y-93190733D01*
X142385795Y-93196806D01*
X142403173Y-93200434D01*
X142409144Y-93201244D01*
X142421650Y-93205320D01*
X142426624Y-93209451D01*
X142434509Y-93213303D01*
X142452264Y-93219414D01*
X142477504Y-93227143D01*
X142507845Y-93235850D01*
X142540905Y-93244894D01*
X142574298Y-93253636D01*
X142605643Y-93261434D01*
X142632554Y-93267649D01*
X142652648Y-93271640D01*
X142662467Y-93272805D01*
X142674051Y-93274918D01*
X142693636Y-93280462D01*
X142717622Y-93288382D01*
X142725967Y-93291366D01*
X142751697Y-93299867D01*
X142785582Y-93309809D01*
X142823442Y-93320022D01*
X142861093Y-93329338D01*
X142865475Y-93330357D01*
X142914776Y-93341878D01*
X142953297Y-93351232D01*
X142982598Y-93358851D01*
X143004239Y-93365165D01*
X143019781Y-93370608D01*
X143030786Y-93375609D01*
X143032421Y-93376504D01*
X143048729Y-93383295D01*
X143068834Y-93388778D01*
X143070521Y-93389107D01*
X143091044Y-93393358D01*
X143117625Y-93399632D01*
X143151372Y-93408222D01*
X143193395Y-93419418D01*
X143244802Y-93433513D01*
X143306702Y-93450798D01*
X143332200Y-93457980D01*
X143377368Y-93470531D01*
X143422961Y-93482850D01*
X143466115Y-93494189D01*
X143503970Y-93503800D01*
X143533662Y-93510936D01*
X143541750Y-93512744D01*
X143573303Y-93520185D01*
X143603961Y-93528455D01*
X143629305Y-93536314D01*
X143640175Y-93540340D01*
X143661878Y-93548002D01*
X143690478Y-93556336D01*
X143720442Y-93563753D01*
X143725900Y-93564941D01*
X143766263Y-93574272D01*
X143813067Y-93586295D01*
X143861137Y-93599596D01*
X143905304Y-93612762D01*
X143929100Y-93620455D01*
X143949207Y-93626565D01*
X143976336Y-93633932D01*
X144005189Y-93641129D01*
X144010128Y-93642289D01*
X144034208Y-93648216D01*
X144053121Y-93653492D01*
X144063856Y-93657255D01*
X144065157Y-93658095D01*
X144060169Y-93660762D01*
X144044933Y-93666310D01*
X144021274Y-93674191D01*
X143991012Y-93683856D01*
X143955971Y-93694756D01*
X143917974Y-93706343D01*
X143878842Y-93718069D01*
X143840399Y-93729384D01*
X143804468Y-93739739D01*
X143772870Y-93748588D01*
X143747428Y-93755380D01*
X143729966Y-93759568D01*
X143724956Y-93760491D01*
X143704372Y-93765839D01*
X143686433Y-93774265D01*
X143685855Y-93774652D01*
X143668707Y-93782572D01*
X143652373Y-93785532D01*
X143635499Y-93788261D01*
X143624800Y-93793281D01*
X143615078Y-93797848D01*
X143595902Y-93804633D01*
X143570000Y-93812739D01*
X143540098Y-93821267D01*
X143538575Y-93821681D01*
X143503378Y-93831676D01*
X143467033Y-93842763D01*
X143434295Y-93853453D01*
X143413776Y-93860763D01*
X143388475Y-93869506D01*
X143355164Y-93879813D01*
X143318111Y-93890418D01*
X143281581Y-93900054D01*
X143280385Y-93900354D01*
X143248227Y-93908592D01*
X143219491Y-93916348D01*
X143196892Y-93922863D01*
X143183148Y-93927373D01*
X143181443Y-93928084D01*
X143170249Y-93932297D01*
X143150067Y-93938981D01*
X143123324Y-93947412D01*
X143092444Y-93956871D01*
X143059853Y-93966634D01*
X143027974Y-93975981D01*
X142999234Y-93984189D01*
X142976057Y-93990538D01*
X142960869Y-93994305D01*
X142956495Y-93995027D01*
X142945123Y-93997466D01*
X142930294Y-94003090D01*
X142911016Y-94009887D01*
X142890295Y-94014744D01*
X142872412Y-94019492D01*
X142859141Y-94026111D01*
X142858535Y-94026609D01*
X142845723Y-94033825D01*
X142828684Y-94039415D01*
X142803596Y-94045563D01*
X142772400Y-94054198D01*
X142733375Y-94065823D01*
X142684800Y-94080939D01*
X142668625Y-94086065D01*
X142637530Y-94095809D01*
X142597979Y-94107987D01*
X142553546Y-94121511D01*
X142507809Y-94135292D01*
X142468600Y-94146979D01*
X142430939Y-94158359D01*
X142397268Y-94168954D01*
X142369490Y-94178132D01*
X142349509Y-94185258D01*
X142339229Y-94189700D01*
X142338425Y-94190288D01*
X142330435Y-94194132D01*
X142312819Y-94200336D01*
X142288139Y-94208170D01*
X142258958Y-94216903D01*
X142227841Y-94225805D01*
X142197350Y-94234145D01*
X142170048Y-94241193D01*
X142148501Y-94246219D01*
X142135269Y-94248492D01*
X142133945Y-94248553D01*
X142123042Y-94250867D01*
X142104144Y-94257057D01*
X142080571Y-94265991D01*
X142069549Y-94270509D01*
X142039236Y-94282191D01*
X142002796Y-94294700D01*
X141966357Y-94305977D01*
X141952410Y-94309882D01*
X141917557Y-94319881D01*
X141879808Y-94331720D01*
X141845424Y-94343404D01*
X141833600Y-94347745D01*
X141802675Y-94358948D01*
X141769494Y-94370165D01*
X141740288Y-94379304D01*
X141735175Y-94380783D01*
X141709278Y-94388515D01*
X141676872Y-94398754D01*
X141643200Y-94409827D01*
X141627225Y-94415257D01*
X141595931Y-94425795D01*
X141557483Y-94438375D01*
X141516725Y-94451432D01*
X141478501Y-94463395D01*
X141478000Y-94463549D01*
X141438915Y-94475846D01*
X141396351Y-94489653D01*
X141355518Y-94503259D01*
X141322425Y-94514668D01*
X141292135Y-94525197D01*
X141263560Y-94534804D01*
X141240218Y-94542325D01*
X141227175Y-94546193D01*
X141211447Y-94551171D01*
X141187512Y-94559656D01*
X141158648Y-94570449D01*
X141128750Y-94582110D01*
X141094340Y-94595679D01*
X141057905Y-94609812D01*
X141024296Y-94622639D01*
X141002902Y-94630631D01*
X140953302Y-94650382D01*
X140912283Y-94670531D01*
X140875903Y-94693309D01*
X140840219Y-94720948D01*
X140833909Y-94726316D01*
X140779460Y-94780236D01*
X140730074Y-94843678D01*
X140686112Y-94915923D01*
X140647933Y-94996253D01*
X140615898Y-95083949D01*
X140590367Y-95178291D01*
X140578779Y-95235228D01*
X140574470Y-95265965D01*
X140570865Y-95305025D01*
X140568029Y-95349862D01*
X140566031Y-95397931D01*
X140564937Y-95446684D01*
X140564815Y-95493577D01*
X140565732Y-95536063D01*
X140567755Y-95571597D01*
X140569461Y-95588006D01*
X140573500Y-95619314D01*
X140577833Y-95653339D01*
X140581737Y-95684395D01*
X140583028Y-95694807D01*
X140588278Y-95722208D01*
X140597966Y-95757763D01*
X140611391Y-95799549D01*
X140627853Y-95845638D01*
X140646651Y-95894105D01*
X140667084Y-95943024D01*
X140688450Y-95990468D01*
X140697628Y-96009685D01*
X140718061Y-96043435D01*
X140747405Y-96080593D01*
X140783529Y-96119121D01*
X140824299Y-96156982D01*
X140867586Y-96192139D01*
X140911256Y-96222554D01*
X140935398Y-96236930D01*
X140950720Y-96244344D01*
X140975549Y-96255083D01*
X141007663Y-96268243D01*
X141044840Y-96282921D01*
X141084857Y-96298214D01*
X141100495Y-96304053D01*
X141140431Y-96318948D01*
X141177899Y-96333076D01*
X141210813Y-96345639D01*
X141237087Y-96355838D01*
X141254634Y-96362874D01*
X141258925Y-96364705D01*
X141281072Y-96372663D01*
X141307212Y-96379499D01*
X141317430Y-96381462D01*
X141341850Y-96387171D01*
X141369812Y-96396133D01*
X141387699Y-96403191D01*
X141410430Y-96412286D01*
X141440329Y-96423070D01*
X141472495Y-96433809D01*
X141487943Y-96438634D01*
X141511810Y-96446025D01*
X141545039Y-96456515D01*
X141585115Y-96469300D01*
X141629521Y-96483575D01*
X141675743Y-96498535D01*
X141706600Y-96508582D01*
X141758291Y-96525344D01*
X141815097Y-96543572D01*
X141873127Y-96562031D01*
X141928493Y-96579486D01*
X141977305Y-96594702D01*
X141992765Y-96599467D01*
X142036374Y-96613009D01*
X142080735Y-96627052D01*
X142122742Y-96640595D01*
X142159290Y-96652635D01*
X142187275Y-96662170D01*
X142189615Y-96662994D01*
X142222908Y-96674310D01*
X142262999Y-96687245D01*
X142304570Y-96700116D01*
X142338425Y-96710129D01*
X142402818Y-96728773D01*
X142463720Y-96746701D01*
X142519895Y-96763531D01*
X142570104Y-96778882D01*
X142613114Y-96792370D01*
X142647686Y-96803614D01*
X142672586Y-96812231D01*
X142686206Y-96817660D01*
X142700627Y-96823128D01*
X142724527Y-96830648D01*
X142755125Y-96839409D01*
X142789636Y-96848597D01*
X142807894Y-96853197D01*
X142848106Y-96863514D01*
X142890414Y-96875023D01*
X142930435Y-96886494D01*
X142963788Y-96896693D01*
X142971288Y-96899137D01*
X143002087Y-96909093D01*
X143040550Y-96921113D01*
X143082267Y-96933841D01*
X143122829Y-96945920D01*
X143132175Y-96948651D01*
X143177628Y-96961947D01*
X143232997Y-96978265D01*
X143296210Y-96996987D01*
X143365194Y-97017496D01*
X143437877Y-97039175D01*
X143512186Y-97061407D01*
X143586050Y-97083574D01*
X143657395Y-97105060D01*
X143662400Y-97106570D01*
X143707816Y-97120259D01*
X143761001Y-97136261D01*
X143817715Y-97153301D01*
X143873717Y-97170105D01*
X143924768Y-97185400D01*
X143929100Y-97186697D01*
X144015755Y-97212643D01*
X144091194Y-97235269D01*
X144156217Y-97254820D01*
X144211626Y-97271540D01*
X144258222Y-97285673D01*
X144296805Y-97297466D01*
X144328177Y-97307163D01*
X144353138Y-97315008D01*
X144372490Y-97321247D01*
X144387034Y-97326125D01*
X144397570Y-97329886D01*
X144397961Y-97330032D01*
X144417717Y-97336908D01*
X144429246Y-97339122D01*
X144435614Y-97337054D01*
X144437551Y-97334913D01*
X144438504Y-97328190D01*
X144439401Y-97311217D01*
X144440233Y-97284768D01*
X144440990Y-97249617D01*
X144441660Y-97206539D01*
X144442233Y-97156306D01*
X144442700Y-97099694D01*
X144443049Y-97037476D01*
X144443270Y-96970427D01*
X144443352Y-96902330D01*
X144443328Y-96820015D01*
X144443210Y-96748115D01*
X144442984Y-96686022D01*
X144442642Y-96633126D01*
X144442172Y-96588819D01*
X144441563Y-96552492D01*
X144440803Y-96523535D01*
X144439882Y-96501341D01*
X144438789Y-96485300D01*
X144437514Y-96474804D01*
X144436043Y-96469243D01*
X144435512Y-96468385D01*
X144427528Y-96464047D01*
X144409274Y-96456701D01*
X144382477Y-96446961D01*
X144348861Y-96435437D01*
X144310154Y-96422741D01*
X144278350Y-96412672D01*
X144234121Y-96398858D01*
X144193765Y-96386192D01*
X144155306Y-96374042D01*
X144116766Y-96361773D01*
X144076169Y-96348751D01*
X144031537Y-96334342D01*
X143980894Y-96317911D01*
X143922263Y-96298826D01*
X143856075Y-96277237D01*
X143818497Y-96265099D01*
X143773432Y-96250742D01*
X143725378Y-96235586D01*
X143678834Y-96221054D01*
X143656050Y-96214009D01*
X143619374Y-96202573D01*
X143585647Y-96191787D01*
X143557185Y-96182413D01*
X143536305Y-96175213D01*
X143525875Y-96171205D01*
X143512057Y-96165809D01*
X143489661Y-96157967D01*
X143462108Y-96148849D01*
X143440206Y-96141905D01*
X143411893Y-96132847D01*
X143387032Y-96124422D01*
X143368688Y-96117697D01*
X143360831Y-96114293D01*
X143347478Y-96109149D01*
X143327193Y-96103504D01*
X143313636Y-96100477D01*
X143288300Y-96094181D01*
X143259297Y-96085238D01*
X143240611Y-96078518D01*
X143220712Y-96071296D01*
X143192061Y-96061603D01*
X143157933Y-96050514D01*
X143121601Y-96039104D01*
X143106775Y-96034566D01*
X143075732Y-96024969D01*
X143035387Y-96012225D01*
X142988287Y-95997155D01*
X142936979Y-95980578D01*
X142884011Y-95963314D01*
X142831930Y-95946184D01*
X142824200Y-95943626D01*
X142775212Y-95927486D01*
X142727398Y-95911885D01*
X142682763Y-95897467D01*
X142643315Y-95884875D01*
X142611061Y-95874753D01*
X142588008Y-95867745D01*
X142582900Y-95866264D01*
X142561944Y-95860042D01*
X142531441Y-95850617D01*
X142493702Y-95838723D01*
X142451043Y-95825093D01*
X142405778Y-95810460D01*
X142370175Y-95798830D01*
X142321658Y-95783018D01*
X142271347Y-95766824D01*
X142222200Y-95751183D01*
X142177172Y-95737034D01*
X142139222Y-95725314D01*
X142120625Y-95719703D01*
X142086293Y-95709217D01*
X142054015Y-95698872D01*
X142026769Y-95689656D01*
X142007534Y-95682558D01*
X142003150Y-95680713D01*
X141987646Y-95674581D01*
X141963068Y-95665822D01*
X141932337Y-95655437D01*
X141898372Y-95644425D01*
X141884400Y-95640027D01*
X141847201Y-95628305D01*
X141809364Y-95616174D01*
X141774748Y-95604883D01*
X141747211Y-95595684D01*
X141741525Y-95593733D01*
X141717133Y-95585619D01*
X141684323Y-95575163D01*
X141646728Y-95563500D01*
X141607980Y-95551766D01*
X141592300Y-95547108D01*
X141557397Y-95536616D01*
X141525259Y-95526604D01*
X141498477Y-95517904D01*
X141479643Y-95511349D01*
X141473344Y-95508843D01*
X141451605Y-95493369D01*
X141438096Y-95471834D01*
X141433514Y-95447051D01*
X141438557Y-95421834D01*
X141447837Y-95405878D01*
X141454401Y-95399220D01*
X141464447Y-95392311D01*
X141479032Y-95384757D01*
X141499217Y-95376167D01*
X141526060Y-95366147D01*
X141560619Y-95354305D01*
X141603953Y-95340246D01*
X141657122Y-95323578D01*
X141721184Y-95303908D01*
X141728825Y-95301580D01*
X141770928Y-95288672D01*
X141815742Y-95274788D01*
X141859095Y-95261230D01*
X141896814Y-95249299D01*
X141912975Y-95244119D01*
X141955250Y-95230557D01*
X142006804Y-95214143D01*
X142065196Y-95195644D01*
X142127984Y-95175827D01*
X142192728Y-95155459D01*
X142256985Y-95135309D01*
X142318314Y-95116142D01*
X142374274Y-95098726D01*
X142422424Y-95083829D01*
X142449550Y-95075501D01*
X142489859Y-95063020D01*
X142531656Y-95049802D01*
X142571102Y-95037078D01*
X142604359Y-95026081D01*
X142617825Y-95021491D01*
X142644855Y-95012571D01*
X142678851Y-95002010D01*
X142717168Y-94990560D01*
X142757161Y-94978975D01*
X142796185Y-94968009D01*
X142831595Y-94958413D01*
X142860746Y-94950942D01*
X142880994Y-94946348D01*
X142883099Y-94945954D01*
X142901254Y-94939559D01*
X142913244Y-94931934D01*
X142923541Y-94926347D01*
X142943433Y-94918300D01*
X142970425Y-94908708D01*
X143002022Y-94898485D01*
X143016270Y-94894163D01*
X143094513Y-94870784D01*
X143166732Y-94848962D01*
X143231879Y-94829021D01*
X143288911Y-94811286D01*
X143336782Y-94796081D01*
X143374447Y-94783731D01*
X143396110Y-94776274D01*
X143429217Y-94764983D01*
X143466561Y-94753009D01*
X143500595Y-94742764D01*
X143503650Y-94741893D01*
X143534369Y-94732769D01*
X143570775Y-94721331D01*
X143606825Y-94709496D01*
X143621125Y-94704620D01*
X143650568Y-94694756D01*
X143687922Y-94682726D01*
X143729044Y-94669839D01*
X143769791Y-94657404D01*
X143783050Y-94653445D01*
X143845278Y-94634833D01*
X143908559Y-94615625D01*
X143971051Y-94596400D01*
X144030910Y-94577736D01*
X144086296Y-94560213D01*
X144135364Y-94544410D01*
X144176274Y-94530906D01*
X144207181Y-94520278D01*
X144209756Y-94519359D01*
X144240997Y-94508732D01*
X144279349Y-94496559D01*
X144319743Y-94484411D01*
X144353963Y-94474711D01*
X144384458Y-94466107D01*
X144410421Y-94458247D01*
X144429514Y-94451878D01*
X144439399Y-94447747D01*
X144440177Y-94447127D01*
X144440457Y-94441354D01*
X144440742Y-94425323D01*
X144441031Y-94399801D01*
X144441321Y-94365554D01*
X144441610Y-94323349D01*
X144441898Y-94273953D01*
X144442181Y-94218131D01*
X144442458Y-94156652D01*
X144442728Y-94090281D01*
X144442988Y-94019784D01*
X144443237Y-93945929D01*
X144443472Y-93869482D01*
X144443693Y-93791210D01*
X144443896Y-93711879D01*
X144444081Y-93632255D01*
X144444245Y-93553106D01*
X144444387Y-93475198D01*
X144444505Y-93399297D01*
X144444596Y-93326170D01*
X144444660Y-93256583D01*
X144444694Y-93191304D01*
X144444696Y-93131098D01*
X144444665Y-93076733D01*
X144444599Y-93028975D01*
X144444496Y-92988590D01*
X144444353Y-92956345D01*
X144444170Y-92933006D01*
X144443945Y-92919341D01*
X144443839Y-92916707D01*
X144437912Y-92912526D01*
X144422842Y-92907745D01*
X144404262Y-92903841D01*
X144380832Y-92899034D01*
X144350367Y-92891669D01*
X144317763Y-92882964D01*
X144301074Y-92878160D01*
X144269528Y-92869373D01*
X144230487Y-92859350D01*
X144188836Y-92849305D01*
X144149462Y-92840452D01*
X144148175Y-92840177D01*
X144106711Y-92830873D01*
X144059028Y-92819472D01*
X144010941Y-92807401D01*
X143968264Y-92796086D01*
X143967200Y-92795793D01*
X143916261Y-92782061D01*
X143872696Y-92771119D01*
X143831976Y-92761914D01*
X143789571Y-92753389D01*
X143767175Y-92749209D01*
X143739593Y-92743898D01*
X143712583Y-92738044D01*
X143683142Y-92730914D01*
X143648267Y-92721775D01*
X143604955Y-92709892D01*
X143595725Y-92707319D01*
X143554754Y-92696288D01*
X143507074Y-92684090D01*
X143458324Y-92672134D01*
X143414145Y-92661831D01*
X143410016Y-92660905D01*
X143375221Y-92652886D01*
X143343498Y-92645097D01*
X143317487Y-92638223D01*
X143299832Y-92632948D01*
X143294923Y-92631105D01*
X143283978Y-92626837D01*
X143268262Y-92621894D01*
X143246419Y-92615933D01*
X143217093Y-92608609D01*
X143178925Y-92599578D01*
X143130559Y-92588497D01*
X143097250Y-92580983D01*
X143063866Y-92573099D01*
X143033050Y-92565123D01*
X143007853Y-92557893D01*
X142991327Y-92552246D01*
X142989300Y-92551365D01*
X142975921Y-92546552D01*
X142952750Y-92539693D01*
X142922297Y-92531473D01*
X142887074Y-92522575D01*
X142857262Y-92515452D01*
X142816382Y-92505624D01*
X142774782Y-92495073D01*
X142736074Y-92484751D01*
X142703867Y-92475612D01*
X142688987Y-92471035D01*
X142661374Y-92462532D01*
X142625569Y-92452096D01*
X142585579Y-92440866D01*
X142545411Y-92429980D01*
X142532100Y-92426474D01*
X142492561Y-92415808D01*
X142451590Y-92404166D01*
X142413278Y-92392747D01*
X142381714Y-92382753D01*
X142373350Y-92379927D01*
X142344542Y-92370433D01*
X142307832Y-92359015D01*
X142267470Y-92346960D01*
X142227701Y-92335555D01*
X142218489Y-92332995D01*
X142183879Y-92323001D01*
X142151872Y-92312945D01*
X142125234Y-92303755D01*
X142106732Y-92296358D01*
X142101730Y-92293823D01*
X142080002Y-92283569D01*
X142056166Y-92275755D01*
X142053391Y-92275115D01*
X142031817Y-92269504D01*
X142000506Y-92260032D01*
X141961301Y-92247354D01*
X141916048Y-92232127D01*
X141866594Y-92215008D01*
X141814783Y-92196653D01*
X141762461Y-92177719D01*
X141711474Y-92158863D01*
X141663667Y-92140742D01*
X141620886Y-92124011D01*
X141584977Y-92109328D01*
X141572911Y-92104159D01*
X141541416Y-92089385D01*
X141506466Y-92071295D01*
X141470997Y-92051578D01*
X141437945Y-92031919D01*
X141410244Y-92014007D01*
X141390830Y-91999528D01*
X141390744Y-91999454D01*
X141370802Y-91975336D01*
X141361282Y-91947650D01*
X141361616Y-91918347D01*
X141371233Y-91889378D01*
X141389561Y-91862695D01*
X141416033Y-91840250D01*
X141441039Y-91827309D01*
X141449495Y-91823826D01*
X141457180Y-91820641D01*
X141464667Y-91817741D01*
X141472530Y-91815111D01*
X141481343Y-91812738D01*
X141491679Y-91810609D01*
X141504112Y-91808710D01*
X141519215Y-91807028D01*
X141537563Y-91805549D01*
X141559729Y-91804260D01*
X141586286Y-91803147D01*
X141617808Y-91802196D01*
X141654869Y-91801395D01*
X141698043Y-91800729D01*
X141747903Y-91800185D01*
X141805022Y-91799749D01*
X141869975Y-91799409D01*
X141943335Y-91799150D01*
X142025676Y-91798958D01*
X142117571Y-91798822D01*
X142219595Y-91798726D01*
X142332319Y-91798657D01*
X142456320Y-91798602D01*
X142592169Y-91798548D01*
X142662275Y-91798518D01*
X143786225Y-91798010D01*
X143849271Y-91783115D01*
X143935129Y-91757202D01*
X144016713Y-91721370D01*
X144093523Y-91676224D01*
X144165059Y-91622371D01*
X144230820Y-91560418D01*
X144290306Y-91490970D01*
X144343016Y-91414636D01*
X144388450Y-91332021D01*
X144426107Y-91243731D01*
X144455487Y-91150374D01*
X144476090Y-91052556D01*
X144481148Y-91017270D01*
X144483644Y-90989638D01*
X144485429Y-90953767D01*
X144486503Y-90912424D01*
X144486863Y-90868376D01*
X144486506Y-90824391D01*
X144485430Y-90783238D01*
X144483634Y-90747682D01*
X144481394Y-90722715D01*
X144464346Y-90628915D01*
X144436120Y-90533599D01*
X144397486Y-90438989D01*
X144353762Y-90355081D01*
X144294743Y-90265029D01*
X144226306Y-90182302D01*
X144148725Y-90107101D01*
X144062272Y-90039626D01*
X143967221Y-89980077D01*
X143863844Y-89928655D01*
X143752415Y-89885558D01*
X143684625Y-89864576D01*
X143642635Y-89852879D01*
X143591446Y-89838924D01*
X143533561Y-89823370D01*
X143471482Y-89806872D01*
X143407711Y-89790089D01*
X143344750Y-89773675D01*
X143285102Y-89758290D01*
X143231268Y-89744589D01*
X143185752Y-89733230D01*
X143166421Y-89728520D01*
X143129112Y-89719234D01*
X143084401Y-89707639D01*
X143036917Y-89694962D01*
X142991285Y-89682428D01*
X142972746Y-89677206D01*
X142934437Y-89666468D01*
X142897012Y-89656254D01*
X142863495Y-89647371D01*
X142836912Y-89640624D01*
X142824200Y-89637637D01*
X142803967Y-89632809D01*
X142774774Y-89625336D01*
X142739716Y-89616036D01*
X142701890Y-89605724D01*
X142678150Y-89599110D01*
X142635464Y-89587178D01*
X142589130Y-89574344D01*
X142543773Y-89561881D01*
X142504023Y-89551065D01*
X142490825Y-89547511D01*
X142456567Y-89538111D01*
X142415454Y-89526489D01*
X142369634Y-89513286D01*
X142321256Y-89499140D01*
X142272470Y-89484692D01*
X142225425Y-89470581D01*
X142182270Y-89457448D01*
X142145155Y-89445931D01*
X142116229Y-89436671D01*
X142100300Y-89431271D01*
X142080828Y-89424667D01*
X142052921Y-89415641D01*
X142020159Y-89405332D01*
X141986125Y-89394882D01*
X141982825Y-89393884D01*
X141950248Y-89383809D01*
X141919961Y-89374020D01*
X141895042Y-89365540D01*
X141878569Y-89359390D01*
X141876868Y-89358667D01*
X141862553Y-89352901D01*
X141839281Y-89344113D01*
X141809898Y-89333354D01*
X141777247Y-89321674D01*
X141765743Y-89317622D01*
X141708463Y-89296280D01*
X141650685Y-89272442D01*
X141594211Y-89247022D01*
X141540845Y-89220937D01*
X141492388Y-89195099D01*
X141450643Y-89170424D01*
X141417412Y-89147827D01*
X141396471Y-89130218D01*
X141373060Y-89100058D01*
X141361558Y-89068655D01*
X141361517Y-89037302D01*
X141372488Y-89007292D01*
X141394020Y-88979917D01*
X141425664Y-88956470D01*
X141462716Y-88939691D01*
X141500225Y-88926569D01*
X142962824Y-88923813D01*
X143123508Y-88923509D01*
X143271977Y-88923223D01*
X143408719Y-88922950D01*
X143534218Y-88922686D01*
X143648962Y-88922427D01*
X143753435Y-88922168D01*
X143848125Y-88921904D01*
X143933516Y-88921632D01*
X144010095Y-88921347D01*
X144078347Y-88921044D01*
X144138760Y-88920719D01*
X144191818Y-88920368D01*
X144238008Y-88919985D01*
X144277816Y-88919567D01*
X144311728Y-88919110D01*
X144340229Y-88918607D01*
X144363806Y-88918057D01*
X144382945Y-88917453D01*
X144398131Y-88916791D01*
X144409851Y-88916067D01*
X144418590Y-88915277D01*
X144424835Y-88914416D01*
X144429071Y-88913480D01*
X144431785Y-88912463D01*
X144433463Y-88911362D01*
X144434437Y-88910357D01*
X144436225Y-88906820D01*
X144437768Y-88900266D01*
X144439082Y-88889958D01*
X144440186Y-88875160D01*
X144441096Y-88855135D01*
X144441829Y-88829145D01*
X144442401Y-88796455D01*
X144442830Y-88756326D01*
X144443132Y-88708022D01*
X144443325Y-88650807D01*
X144443425Y-88583943D01*
X144443450Y-88517616D01*
X144443442Y-88443485D01*
X144443403Y-88379590D01*
X144443307Y-88325146D01*
X144443127Y-88279365D01*
X144442839Y-88241459D01*
X144442416Y-88210643D01*
X144441833Y-88186129D01*
X144441064Y-88167129D01*
X144440083Y-88152858D01*
X144438866Y-88142526D01*
X144437385Y-88135349D01*
X144435616Y-88130538D01*
X144433533Y-88127306D01*
X144431109Y-88124867D01*
X144430619Y-88124437D01*
X144429195Y-88123273D01*
X144427396Y-88122193D01*
X144424759Y-88121196D01*
X144420823Y-88120277D01*
X144415125Y-88119436D01*
X144407201Y-88118668D01*
X144396589Y-88117972D01*
X144382827Y-88117344D01*
X144365453Y-88116783D01*
X144344002Y-88116284D01*
X144318014Y-88115847D01*
X144287025Y-88115468D01*
X144250572Y-88115144D01*
X144208194Y-88114873D01*
X144159427Y-88114652D01*
X144103809Y-88114479D01*
X144040877Y-88114350D01*
X143970169Y-88114264D01*
X143891222Y-88114217D01*
X143803573Y-88114207D01*
X143706760Y-88114231D01*
X143600321Y-88114287D01*
X143483792Y-88114372D01*
X143356711Y-88114483D01*
X143218616Y-88114618D01*
X143069044Y-88114773D01*
X142907532Y-88114947D01*
X142797081Y-88115067D01*
X142626342Y-88115247D01*
X142467826Y-88115407D01*
X142321056Y-88115556D01*
X142185556Y-88115701D01*
X142060848Y-88115852D01*
X141946455Y-88116017D01*
X141841900Y-88116204D01*
X141746708Y-88116423D01*
X141660400Y-88116682D01*
X141582499Y-88116989D01*
X141512530Y-88117353D01*
X141450015Y-88117783D01*
X141394476Y-88118287D01*
X141345438Y-88118873D01*
X141302423Y-88119551D01*
X141264955Y-88120329D01*
X141232556Y-88121215D01*
X141204749Y-88122219D01*
X141181058Y-88123347D01*
X141161006Y-88124611D01*
X141144116Y-88126016D01*
X141129910Y-88127573D01*
X141117913Y-88129291D01*
X141107647Y-88131176D01*
X141098635Y-88133239D01*
X141090400Y-88135487D01*
X141082465Y-88137929D01*
X141074354Y-88140574D01*
X141065590Y-88143431D01*
X141056141Y-88146373D01*
X140983633Y-88173803D01*
X140913236Y-88211414D01*
X140845895Y-88258408D01*
X140782551Y-88313989D01*
X140724147Y-88377360D01*
X140671627Y-88447725D01*
X140640678Y-88497549D01*
X140598671Y-88579598D01*
X140564989Y-88665568D01*
X140539322Y-88756657D01*
X140521359Y-88854061D01*
X140510790Y-88958978D01*
X140508429Y-89007050D01*
X140507996Y-89108341D01*
X140514339Y-89201455D01*
X140514339Y-89201455D01*
G37*
X140514339Y-89201455D02*
X140527850Y-89287747D01*
X140548923Y-89368571D01*
X140577950Y-89445281D01*
X140615324Y-89519230D01*
X140661439Y-89591773D01*
X140688982Y-89629362D01*
X140720335Y-89666680D01*
X140759842Y-89707973D01*
X140805097Y-89751089D01*
X140853695Y-89793875D01*
X140903232Y-89834181D01*
X140951301Y-89869854D01*
X140977614Y-89887607D01*
X141078133Y-89947572D01*
X141190428Y-90005363D01*
X141313757Y-90060666D01*
X141447378Y-90113162D01*
X141590548Y-90162536D01*
X141703425Y-90197233D01*
X141743702Y-90209096D01*
X141782014Y-90220542D01*
X141815948Y-90230837D01*
X141843091Y-90239248D01*
X141861031Y-90245042D01*
X141863094Y-90245749D01*
X141880837Y-90251210D01*
X141907779Y-90258608D01*
X141940819Y-90267132D01*
X141976859Y-90275971D01*
X141993269Y-90279843D01*
X142033891Y-90289521D01*
X142077003Y-90300158D01*
X142118054Y-90310608D01*
X142152494Y-90319729D01*
X142159520Y-90321662D01*
X142189349Y-90329495D01*
X142227766Y-90338905D01*
X142270984Y-90349001D01*
X142315214Y-90358892D01*
X142343670Y-90364990D01*
X142385554Y-90374039D01*
X142428130Y-90383693D01*
X142467883Y-90393124D01*
X142501297Y-90401502D01*
X142519400Y-90406402D01*
X142546136Y-90413532D01*
X142581719Y-90422315D01*
X142622622Y-90431918D01*
X142665317Y-90441507D01*
X142694739Y-90447840D01*
X142738566Y-90457406D01*
X142784989Y-90468096D01*
X142829860Y-90478920D01*
X142869033Y-90488887D01*
X142888414Y-90494137D01*
X142925441Y-90504301D01*
X142965160Y-90514845D01*
X143002351Y-90524402D01*
X143027400Y-90530567D01*
X143056570Y-90537902D01*
X143093818Y-90547857D01*
X143137073Y-90559823D01*
X143184263Y-90573194D01*
X143233316Y-90587361D01*
X143282163Y-90601718D01*
X143328731Y-90615656D01*
X143370950Y-90628569D01*
X143406748Y-90639849D01*
X143434055Y-90648889D01*
X143447718Y-90653834D01*
X143510600Y-90682075D01*
X143561293Y-90712997D01*
X143599958Y-90746719D01*
X143626759Y-90783358D01*
X143626975Y-90783753D01*
X143641007Y-90816206D01*
X143649613Y-90850434D01*
X143652121Y-90882676D01*
X143648869Y-90906013D01*
X143639713Y-90924790D01*
X143624570Y-90943777D01*
X143606583Y-90959840D01*
X143588898Y-90969841D01*
X143583361Y-90971330D01*
X143571007Y-90973637D01*
X143550472Y-90977713D01*
X143525920Y-90982731D01*
X143522700Y-90983399D01*
X143516267Y-90984629D01*
X143508947Y-90985753D01*
X143500169Y-90986779D01*
X143489366Y-90987709D01*
X143475967Y-90988551D01*
X143459405Y-90989308D01*
X143439110Y-90989986D01*
X143414514Y-90990590D01*
X143385048Y-90991126D01*
X143350142Y-90991598D01*
X143309228Y-90992012D01*
X143261737Y-90992372D01*
X143207101Y-90992685D01*
X143144750Y-90992954D01*
X143074115Y-90993186D01*
X142994628Y-90993385D01*
X142905720Y-90993556D01*
X142806821Y-90993706D01*
X142697364Y-90993838D01*
X142576778Y-90993958D01*
X142444496Y-90994071D01*
X142335250Y-90994156D01*
X142180260Y-90994295D01*
X142037646Y-90994472D01*
X141907084Y-90994687D01*
X141788249Y-90994943D01*
X141680816Y-90995242D01*
X141584463Y-90995586D01*
X141498863Y-90995976D01*
X141423694Y-90996415D01*
X141358631Y-90996904D01*
X141303350Y-90997447D01*
X141257526Y-90998043D01*
X141220835Y-90998697D01*
X141192953Y-90999409D01*
X141173556Y-91000181D01*
X141162319Y-91001016D01*
X141160500Y-91001277D01*
X141114359Y-91010645D01*
X141073506Y-91021718D01*
X141032509Y-91036161D01*
X140992698Y-91052676D01*
X140944534Y-91074647D01*
X140905001Y-91095254D01*
X140870674Y-91116601D01*
X140838130Y-91140790D01*
X140808933Y-91165487D01*
X140743229Y-91231163D01*
X140684753Y-91305512D01*
X140633796Y-91387967D01*
X140590654Y-91477966D01*
X140555620Y-91574942D01*
X140528987Y-91678331D01*
X140521255Y-91718474D01*
X140517575Y-91742331D01*
X140514740Y-91768018D01*
X140512661Y-91797280D01*
X140511250Y-91831865D01*
X140510416Y-91873518D01*
X140510073Y-91923984D01*
X140510053Y-91938961D01*
X140510253Y-91992745D01*
X140511111Y-92037505D01*
X140512939Y-92075235D01*
X140516046Y-92107930D01*
X140520743Y-92137586D01*
X140527340Y-92166197D01*
X140536149Y-92195759D01*
X140547480Y-92228267D01*
X140560425Y-92262561D01*
X140602063Y-92353321D01*
X140655171Y-92439630D01*
X140719475Y-92521233D01*
X140794699Y-92597874D01*
X140880569Y-92669298D01*
X140976812Y-92735250D01*
X141083152Y-92795473D01*
X141184857Y-92843525D01*
X141218516Y-92858183D01*
X141249205Y-92871689D01*
X141274695Y-92883053D01*
X141292755Y-92891280D01*
X141300200Y-92894856D01*
X141316715Y-92901846D01*
X141342175Y-92910799D01*
X141373281Y-92920743D01*
X141406736Y-92930703D01*
X141439243Y-92939707D01*
X141467505Y-92946781D01*
X141488224Y-92950951D01*
X141491761Y-92951417D01*
X141513890Y-92955763D01*
X141523779Y-92962707D01*
X141524103Y-92963557D01*
X141531362Y-92969593D01*
X141550118Y-92976801D01*
X141580835Y-92985348D01*
X141592891Y-92988304D01*
X141624905Y-92996201D01*
X141664182Y-93006242D01*
X141705904Y-93017180D01*
X141745251Y-93027763D01*
X141747875Y-93028481D01*
X141790054Y-93039822D01*
X141838399Y-93052477D01*
X141886818Y-93064868D01*
X141927612Y-93075026D01*
X141966217Y-93084761D01*
X142006544Y-93095450D01*
X142044129Y-93105878D01*
X142074507Y-93114832D01*
X142077787Y-93115854D01*
X142101529Y-93122968D01*
X142132549Y-93131753D01*
X142168851Y-93141694D01*
X142208440Y-93152276D01*
X142249318Y-93162986D01*
X142289489Y-93173308D01*
X142326956Y-93182728D01*
X142359724Y-93190733D01*
X142385795Y-93196806D01*
X142403173Y-93200434D01*
X142409144Y-93201244D01*
X142421650Y-93205320D01*
X142426624Y-93209451D01*
X142434509Y-93213303D01*
X142452264Y-93219414D01*
X142477504Y-93227143D01*
X142507845Y-93235850D01*
X142540905Y-93244894D01*
X142574298Y-93253636D01*
X142605643Y-93261434D01*
X142632554Y-93267649D01*
X142652648Y-93271640D01*
X142662467Y-93272805D01*
X142674051Y-93274918D01*
X142693636Y-93280462D01*
X142717622Y-93288382D01*
X142725967Y-93291366D01*
X142751697Y-93299867D01*
X142785582Y-93309809D01*
X142823442Y-93320022D01*
X142861093Y-93329338D01*
X142865475Y-93330357D01*
X142914776Y-93341878D01*
X142953297Y-93351232D01*
X142982598Y-93358851D01*
X143004239Y-93365165D01*
X143019781Y-93370608D01*
X143030786Y-93375609D01*
X143032421Y-93376504D01*
X143048729Y-93383295D01*
X143068834Y-93388778D01*
X143070521Y-93389107D01*
X143091044Y-93393358D01*
X143117625Y-93399632D01*
X143151372Y-93408222D01*
X143193395Y-93419418D01*
X143244802Y-93433513D01*
X143306702Y-93450798D01*
X143332200Y-93457980D01*
X143377368Y-93470531D01*
X143422961Y-93482850D01*
X143466115Y-93494189D01*
X143503970Y-93503800D01*
X143533662Y-93510936D01*
X143541750Y-93512744D01*
X143573303Y-93520185D01*
X143603961Y-93528455D01*
X143629305Y-93536314D01*
X143640175Y-93540340D01*
X143661878Y-93548002D01*
X143690478Y-93556336D01*
X143720442Y-93563753D01*
X143725900Y-93564941D01*
X143766263Y-93574272D01*
X143813067Y-93586295D01*
X143861137Y-93599596D01*
X143905304Y-93612762D01*
X143929100Y-93620455D01*
X143949207Y-93626565D01*
X143976336Y-93633932D01*
X144005189Y-93641129D01*
X144010128Y-93642289D01*
X144034208Y-93648216D01*
X144053121Y-93653492D01*
X144063856Y-93657255D01*
X144065157Y-93658095D01*
X144060169Y-93660762D01*
X144044933Y-93666310D01*
X144021274Y-93674191D01*
X143991012Y-93683856D01*
X143955971Y-93694756D01*
X143917974Y-93706343D01*
X143878842Y-93718069D01*
X143840399Y-93729384D01*
X143804468Y-93739739D01*
X143772870Y-93748588D01*
X143747428Y-93755380D01*
X143729966Y-93759568D01*
X143724956Y-93760491D01*
X143704372Y-93765839D01*
X143686433Y-93774265D01*
X143685855Y-93774652D01*
X143668707Y-93782572D01*
X143652373Y-93785532D01*
X143635499Y-93788261D01*
X143624800Y-93793281D01*
X143615078Y-93797848D01*
X143595902Y-93804633D01*
X143570000Y-93812739D01*
X143540098Y-93821267D01*
X143538575Y-93821681D01*
X143503378Y-93831676D01*
X143467033Y-93842763D01*
X143434295Y-93853453D01*
X143413776Y-93860763D01*
X143388475Y-93869506D01*
X143355164Y-93879813D01*
X143318111Y-93890418D01*
X143281581Y-93900054D01*
X143280385Y-93900354D01*
X143248227Y-93908592D01*
X143219491Y-93916348D01*
X143196892Y-93922863D01*
X143183148Y-93927373D01*
X143181443Y-93928084D01*
X143170249Y-93932297D01*
X143150067Y-93938981D01*
X143123324Y-93947412D01*
X143092444Y-93956871D01*
X143059853Y-93966634D01*
X143027974Y-93975981D01*
X142999234Y-93984189D01*
X142976057Y-93990538D01*
X142960869Y-93994305D01*
X142956495Y-93995027D01*
X142945123Y-93997466D01*
X142930294Y-94003090D01*
X142911016Y-94009887D01*
X142890295Y-94014744D01*
X142872412Y-94019492D01*
X142859141Y-94026111D01*
X142858535Y-94026609D01*
X142845723Y-94033825D01*
X142828684Y-94039415D01*
X142803596Y-94045563D01*
X142772400Y-94054198D01*
X142733375Y-94065823D01*
X142684800Y-94080939D01*
X142668625Y-94086065D01*
X142637530Y-94095809D01*
X142597979Y-94107987D01*
X142553546Y-94121511D01*
X142507809Y-94135292D01*
X142468600Y-94146979D01*
X142430939Y-94158359D01*
X142397268Y-94168954D01*
X142369490Y-94178132D01*
X142349509Y-94185258D01*
X142339229Y-94189700D01*
X142338425Y-94190288D01*
X142330435Y-94194132D01*
X142312819Y-94200336D01*
X142288139Y-94208170D01*
X142258958Y-94216903D01*
X142227841Y-94225805D01*
X142197350Y-94234145D01*
X142170048Y-94241193D01*
X142148501Y-94246219D01*
X142135269Y-94248492D01*
X142133945Y-94248553D01*
X142123042Y-94250867D01*
X142104144Y-94257057D01*
X142080571Y-94265991D01*
X142069549Y-94270509D01*
X142039236Y-94282191D01*
X142002796Y-94294700D01*
X141966357Y-94305977D01*
X141952410Y-94309882D01*
X141917557Y-94319881D01*
X141879808Y-94331720D01*
X141845424Y-94343404D01*
X141833600Y-94347745D01*
X141802675Y-94358948D01*
X141769494Y-94370165D01*
X141740288Y-94379304D01*
X141735175Y-94380783D01*
X141709278Y-94388515D01*
X141676872Y-94398754D01*
X141643200Y-94409827D01*
X141627225Y-94415257D01*
X141595931Y-94425795D01*
X141557483Y-94438375D01*
X141516725Y-94451432D01*
X141478501Y-94463395D01*
X141478000Y-94463549D01*
X141438915Y-94475846D01*
X141396351Y-94489653D01*
X141355518Y-94503259D01*
X141322425Y-94514668D01*
X141292135Y-94525197D01*
X141263560Y-94534804D01*
X141240218Y-94542325D01*
X141227175Y-94546193D01*
X141211447Y-94551171D01*
X141187512Y-94559656D01*
X141158648Y-94570449D01*
X141128750Y-94582110D01*
X141094340Y-94595679D01*
X141057905Y-94609812D01*
X141024296Y-94622639D01*
X141002902Y-94630631D01*
X140953302Y-94650382D01*
X140912283Y-94670531D01*
X140875903Y-94693309D01*
X140840219Y-94720948D01*
X140833909Y-94726316D01*
X140779460Y-94780236D01*
X140730074Y-94843678D01*
X140686112Y-94915923D01*
X140647933Y-94996253D01*
X140615898Y-95083949D01*
X140590367Y-95178291D01*
X140578779Y-95235228D01*
X140574470Y-95265965D01*
X140570865Y-95305025D01*
X140568029Y-95349862D01*
X140566031Y-95397931D01*
X140564937Y-95446684D01*
X140564815Y-95493577D01*
X140565732Y-95536063D01*
X140567755Y-95571597D01*
X140569461Y-95588006D01*
X140573500Y-95619314D01*
X140577833Y-95653339D01*
X140581737Y-95684395D01*
X140583028Y-95694807D01*
X140588278Y-95722208D01*
X140597966Y-95757763D01*
X140611391Y-95799549D01*
X140627853Y-95845638D01*
X140646651Y-95894105D01*
X140667084Y-95943024D01*
X140688450Y-95990468D01*
X140697628Y-96009685D01*
X140718061Y-96043435D01*
X140747405Y-96080593D01*
X140783529Y-96119121D01*
X140824299Y-96156982D01*
X140867586Y-96192139D01*
X140911256Y-96222554D01*
X140935398Y-96236930D01*
X140950720Y-96244344D01*
X140975549Y-96255083D01*
X141007663Y-96268243D01*
X141044840Y-96282921D01*
X141084857Y-96298214D01*
X141100495Y-96304053D01*
X141140431Y-96318948D01*
X141177899Y-96333076D01*
X141210813Y-96345639D01*
X141237087Y-96355838D01*
X141254634Y-96362874D01*
X141258925Y-96364705D01*
X141281072Y-96372663D01*
X141307212Y-96379499D01*
X141317430Y-96381462D01*
X141341850Y-96387171D01*
X141369812Y-96396133D01*
X141387699Y-96403191D01*
X141410430Y-96412286D01*
X141440329Y-96423070D01*
X141472495Y-96433809D01*
X141487943Y-96438634D01*
X141511810Y-96446025D01*
X141545039Y-96456515D01*
X141585115Y-96469300D01*
X141629521Y-96483575D01*
X141675743Y-96498535D01*
X141706600Y-96508582D01*
X141758291Y-96525344D01*
X141815097Y-96543572D01*
X141873127Y-96562031D01*
X141928493Y-96579486D01*
X141977305Y-96594702D01*
X141992765Y-96599467D01*
X142036374Y-96613009D01*
X142080735Y-96627052D01*
X142122742Y-96640595D01*
X142159290Y-96652635D01*
X142187275Y-96662170D01*
X142189615Y-96662994D01*
X142222908Y-96674310D01*
X142262999Y-96687245D01*
X142304570Y-96700116D01*
X142338425Y-96710129D01*
X142402818Y-96728773D01*
X142463720Y-96746701D01*
X142519895Y-96763531D01*
X142570104Y-96778882D01*
X142613114Y-96792370D01*
X142647686Y-96803614D01*
X142672586Y-96812231D01*
X142686206Y-96817660D01*
X142700627Y-96823128D01*
X142724527Y-96830648D01*
X142755125Y-96839409D01*
X142789636Y-96848597D01*
X142807894Y-96853197D01*
X142848106Y-96863514D01*
X142890414Y-96875023D01*
X142930435Y-96886494D01*
X142963788Y-96896693D01*
X142971288Y-96899137D01*
X143002087Y-96909093D01*
X143040550Y-96921113D01*
X143082267Y-96933841D01*
X143122829Y-96945920D01*
X143132175Y-96948651D01*
X143177628Y-96961947D01*
X143232997Y-96978265D01*
X143296210Y-96996987D01*
X143365194Y-97017496D01*
X143437877Y-97039175D01*
X143512186Y-97061407D01*
X143586050Y-97083574D01*
X143657395Y-97105060D01*
X143662400Y-97106570D01*
X143707816Y-97120259D01*
X143761001Y-97136261D01*
X143817715Y-97153301D01*
X143873717Y-97170105D01*
X143924768Y-97185400D01*
X143929100Y-97186697D01*
X144015755Y-97212643D01*
X144091194Y-97235269D01*
X144156217Y-97254820D01*
X144211626Y-97271540D01*
X144258222Y-97285673D01*
X144296805Y-97297466D01*
X144328177Y-97307163D01*
X144353138Y-97315008D01*
X144372490Y-97321247D01*
X144387034Y-97326125D01*
X144397570Y-97329886D01*
X144397961Y-97330032D01*
X144417717Y-97336908D01*
X144429246Y-97339122D01*
X144435614Y-97337054D01*
X144437551Y-97334913D01*
X144438504Y-97328190D01*
X144439401Y-97311217D01*
X144440233Y-97284768D01*
X144440990Y-97249617D01*
X144441660Y-97206539D01*
X144442233Y-97156306D01*
X144442700Y-97099694D01*
X144443049Y-97037476D01*
X144443270Y-96970427D01*
X144443352Y-96902330D01*
X144443328Y-96820015D01*
X144443210Y-96748115D01*
X144442984Y-96686022D01*
X144442642Y-96633126D01*
X144442172Y-96588819D01*
X144441563Y-96552492D01*
X144440803Y-96523535D01*
X144439882Y-96501341D01*
X144438789Y-96485300D01*
X144437514Y-96474804D01*
X144436043Y-96469243D01*
X144435512Y-96468385D01*
X144427528Y-96464047D01*
X144409274Y-96456701D01*
X144382477Y-96446961D01*
X144348861Y-96435437D01*
X144310154Y-96422741D01*
X144278350Y-96412672D01*
X144234121Y-96398858D01*
X144193765Y-96386192D01*
X144155306Y-96374042D01*
X144116766Y-96361773D01*
X144076169Y-96348751D01*
X144031537Y-96334342D01*
X143980894Y-96317911D01*
X143922263Y-96298826D01*
X143856075Y-96277237D01*
X143818497Y-96265099D01*
X143773432Y-96250742D01*
X143725378Y-96235586D01*
X143678834Y-96221054D01*
X143656050Y-96214009D01*
X143619374Y-96202573D01*
X143585647Y-96191787D01*
X143557185Y-96182413D01*
X143536305Y-96175213D01*
X143525875Y-96171205D01*
X143512057Y-96165809D01*
X143489661Y-96157967D01*
X143462108Y-96148849D01*
X143440206Y-96141905D01*
X143411893Y-96132847D01*
X143387032Y-96124422D01*
X143368688Y-96117697D01*
X143360831Y-96114293D01*
X143347478Y-96109149D01*
X143327193Y-96103504D01*
X143313636Y-96100477D01*
X143288300Y-96094181D01*
X143259297Y-96085238D01*
X143240611Y-96078518D01*
X143220712Y-96071296D01*
X143192061Y-96061603D01*
X143157933Y-96050514D01*
X143121601Y-96039104D01*
X143106775Y-96034566D01*
X143075732Y-96024969D01*
X143035387Y-96012225D01*
X142988287Y-95997155D01*
X142936979Y-95980578D01*
X142884011Y-95963314D01*
X142831930Y-95946184D01*
X142824200Y-95943626D01*
X142775212Y-95927486D01*
X142727398Y-95911885D01*
X142682763Y-95897467D01*
X142643315Y-95884875D01*
X142611061Y-95874753D01*
X142588008Y-95867745D01*
X142582900Y-95866264D01*
X142561944Y-95860042D01*
X142531441Y-95850617D01*
X142493702Y-95838723D01*
X142451043Y-95825093D01*
X142405778Y-95810460D01*
X142370175Y-95798830D01*
X142321658Y-95783018D01*
X142271347Y-95766824D01*
X142222200Y-95751183D01*
X142177172Y-95737034D01*
X142139222Y-95725314D01*
X142120625Y-95719703D01*
X142086293Y-95709217D01*
X142054015Y-95698872D01*
X142026769Y-95689656D01*
X142007534Y-95682558D01*
X142003150Y-95680713D01*
X141987646Y-95674581D01*
X141963068Y-95665822D01*
X141932337Y-95655437D01*
X141898372Y-95644425D01*
X141884400Y-95640027D01*
X141847201Y-95628305D01*
X141809364Y-95616174D01*
X141774748Y-95604883D01*
X141747211Y-95595684D01*
X141741525Y-95593733D01*
X141717133Y-95585619D01*
X141684323Y-95575163D01*
X141646728Y-95563500D01*
X141607980Y-95551766D01*
X141592300Y-95547108D01*
X141557397Y-95536616D01*
X141525259Y-95526604D01*
X141498477Y-95517904D01*
X141479643Y-95511349D01*
X141473344Y-95508843D01*
X141451605Y-95493369D01*
X141438096Y-95471834D01*
X141433514Y-95447051D01*
X141438557Y-95421834D01*
X141447837Y-95405878D01*
X141454401Y-95399220D01*
X141464447Y-95392311D01*
X141479032Y-95384757D01*
X141499217Y-95376167D01*
X141526060Y-95366147D01*
X141560619Y-95354305D01*
X141603953Y-95340246D01*
X141657122Y-95323578D01*
X141721184Y-95303908D01*
X141728825Y-95301580D01*
X141770928Y-95288672D01*
X141815742Y-95274788D01*
X141859095Y-95261230D01*
X141896814Y-95249299D01*
X141912975Y-95244119D01*
X141955250Y-95230557D01*
X142006804Y-95214143D01*
X142065196Y-95195644D01*
X142127984Y-95175827D01*
X142192728Y-95155459D01*
X142256985Y-95135309D01*
X142318314Y-95116142D01*
X142374274Y-95098726D01*
X142422424Y-95083829D01*
X142449550Y-95075501D01*
X142489859Y-95063020D01*
X142531656Y-95049802D01*
X142571102Y-95037078D01*
X142604359Y-95026081D01*
X142617825Y-95021491D01*
X142644855Y-95012571D01*
X142678851Y-95002010D01*
X142717168Y-94990560D01*
X142757161Y-94978975D01*
X142796185Y-94968009D01*
X142831595Y-94958413D01*
X142860746Y-94950942D01*
X142880994Y-94946348D01*
X142883099Y-94945954D01*
X142901254Y-94939559D01*
X142913244Y-94931934D01*
X142923541Y-94926347D01*
X142943433Y-94918300D01*
X142970425Y-94908708D01*
X143002022Y-94898485D01*
X143016270Y-94894163D01*
X143094513Y-94870784D01*
X143166732Y-94848962D01*
X143231879Y-94829021D01*
X143288911Y-94811286D01*
X143336782Y-94796081D01*
X143374447Y-94783731D01*
X143396110Y-94776274D01*
X143429217Y-94764983D01*
X143466561Y-94753009D01*
X143500595Y-94742764D01*
X143503650Y-94741893D01*
X143534369Y-94732769D01*
X143570775Y-94721331D01*
X143606825Y-94709496D01*
X143621125Y-94704620D01*
X143650568Y-94694756D01*
X143687922Y-94682726D01*
X143729044Y-94669839D01*
X143769791Y-94657404D01*
X143783050Y-94653445D01*
X143845278Y-94634833D01*
X143908559Y-94615625D01*
X143971051Y-94596400D01*
X144030910Y-94577736D01*
X144086296Y-94560213D01*
X144135364Y-94544410D01*
X144176274Y-94530906D01*
X144207181Y-94520278D01*
X144209756Y-94519359D01*
X144240997Y-94508732D01*
X144279349Y-94496559D01*
X144319743Y-94484411D01*
X144353963Y-94474711D01*
X144384458Y-94466107D01*
X144410421Y-94458247D01*
X144429514Y-94451878D01*
X144439399Y-94447747D01*
X144440177Y-94447127D01*
X144440457Y-94441354D01*
X144440742Y-94425323D01*
X144441031Y-94399801D01*
X144441321Y-94365554D01*
X144441610Y-94323349D01*
X144441898Y-94273953D01*
X144442181Y-94218131D01*
X144442458Y-94156652D01*
X144442728Y-94090281D01*
X144442988Y-94019784D01*
X144443237Y-93945929D01*
X144443472Y-93869482D01*
X144443693Y-93791210D01*
X144443896Y-93711879D01*
X144444081Y-93632255D01*
X144444245Y-93553106D01*
X144444387Y-93475198D01*
X144444505Y-93399297D01*
X144444596Y-93326170D01*
X144444660Y-93256583D01*
X144444694Y-93191304D01*
X144444696Y-93131098D01*
X144444665Y-93076733D01*
X144444599Y-93028975D01*
X144444496Y-92988590D01*
X144444353Y-92956345D01*
X144444170Y-92933006D01*
X144443945Y-92919341D01*
X144443839Y-92916707D01*
X144437912Y-92912526D01*
X144422842Y-92907745D01*
X144404262Y-92903841D01*
X144380832Y-92899034D01*
X144350367Y-92891669D01*
X144317763Y-92882964D01*
X144301074Y-92878160D01*
X144269528Y-92869373D01*
X144230487Y-92859350D01*
X144188836Y-92849305D01*
X144149462Y-92840452D01*
X144148175Y-92840177D01*
X144106711Y-92830873D01*
X144059028Y-92819472D01*
X144010941Y-92807401D01*
X143968264Y-92796086D01*
X143967200Y-92795793D01*
X143916261Y-92782061D01*
X143872696Y-92771119D01*
X143831976Y-92761914D01*
X143789571Y-92753389D01*
X143767175Y-92749209D01*
X143739593Y-92743898D01*
X143712583Y-92738044D01*
X143683142Y-92730914D01*
X143648267Y-92721775D01*
X143604955Y-92709892D01*
X143595725Y-92707319D01*
X143554754Y-92696288D01*
X143507074Y-92684090D01*
X143458324Y-92672134D01*
X143414145Y-92661831D01*
X143410016Y-92660905D01*
X143375221Y-92652886D01*
X143343498Y-92645097D01*
X143317487Y-92638223D01*
X143299832Y-92632948D01*
X143294923Y-92631105D01*
X143283978Y-92626837D01*
X143268262Y-92621894D01*
X143246419Y-92615933D01*
X143217093Y-92608609D01*
X143178925Y-92599578D01*
X143130559Y-92588497D01*
X143097250Y-92580983D01*
X143063866Y-92573099D01*
X143033050Y-92565123D01*
X143007853Y-92557893D01*
X142991327Y-92552246D01*
X142989300Y-92551365D01*
X142975921Y-92546552D01*
X142952750Y-92539693D01*
X142922297Y-92531473D01*
X142887074Y-92522575D01*
X142857262Y-92515452D01*
X142816382Y-92505624D01*
X142774782Y-92495073D01*
X142736074Y-92484751D01*
X142703867Y-92475612D01*
X142688987Y-92471035D01*
X142661374Y-92462532D01*
X142625569Y-92452096D01*
X142585579Y-92440866D01*
X142545411Y-92429980D01*
X142532100Y-92426474D01*
X142492561Y-92415808D01*
X142451590Y-92404166D01*
X142413278Y-92392747D01*
X142381714Y-92382753D01*
X142373350Y-92379927D01*
X142344542Y-92370433D01*
X142307832Y-92359015D01*
X142267470Y-92346960D01*
X142227701Y-92335555D01*
X142218489Y-92332995D01*
X142183879Y-92323001D01*
X142151872Y-92312945D01*
X142125234Y-92303755D01*
X142106732Y-92296358D01*
X142101730Y-92293823D01*
X142080002Y-92283569D01*
X142056166Y-92275755D01*
X142053391Y-92275115D01*
X142031817Y-92269504D01*
X142000506Y-92260032D01*
X141961301Y-92247354D01*
X141916048Y-92232127D01*
X141866594Y-92215008D01*
X141814783Y-92196653D01*
X141762461Y-92177719D01*
X141711474Y-92158863D01*
X141663667Y-92140742D01*
X141620886Y-92124011D01*
X141584977Y-92109328D01*
X141572911Y-92104159D01*
X141541416Y-92089385D01*
X141506466Y-92071295D01*
X141470997Y-92051578D01*
X141437945Y-92031919D01*
X141410244Y-92014007D01*
X141390830Y-91999528D01*
X141390744Y-91999454D01*
X141370802Y-91975336D01*
X141361282Y-91947650D01*
X141361616Y-91918347D01*
X141371233Y-91889378D01*
X141389561Y-91862695D01*
X141416033Y-91840250D01*
X141441039Y-91827309D01*
X141449495Y-91823826D01*
X141457180Y-91820641D01*
X141464667Y-91817741D01*
X141472530Y-91815111D01*
X141481343Y-91812738D01*
X141491679Y-91810609D01*
X141504112Y-91808710D01*
X141519215Y-91807028D01*
X141537563Y-91805549D01*
X141559729Y-91804260D01*
X141586286Y-91803147D01*
X141617808Y-91802196D01*
X141654869Y-91801395D01*
X141698043Y-91800729D01*
X141747903Y-91800185D01*
X141805022Y-91799749D01*
X141869975Y-91799409D01*
X141943335Y-91799150D01*
X142025676Y-91798958D01*
X142117571Y-91798822D01*
X142219595Y-91798726D01*
X142332319Y-91798657D01*
X142456320Y-91798602D01*
X142592169Y-91798548D01*
X142662275Y-91798518D01*
X143786225Y-91798010D01*
X143849271Y-91783115D01*
X143935129Y-91757202D01*
X144016713Y-91721370D01*
X144093523Y-91676224D01*
X144165059Y-91622371D01*
X144230820Y-91560418D01*
X144290306Y-91490970D01*
X144343016Y-91414636D01*
X144388450Y-91332021D01*
X144426107Y-91243731D01*
X144455487Y-91150374D01*
X144476090Y-91052556D01*
X144481148Y-91017270D01*
X144483644Y-90989638D01*
X144485429Y-90953767D01*
X144486503Y-90912424D01*
X144486863Y-90868376D01*
X144486506Y-90824391D01*
X144485430Y-90783238D01*
X144483634Y-90747682D01*
X144481394Y-90722715D01*
X144464346Y-90628915D01*
X144436120Y-90533599D01*
X144397486Y-90438989D01*
X144353762Y-90355081D01*
X144294743Y-90265029D01*
X144226306Y-90182302D01*
X144148725Y-90107101D01*
X144062272Y-90039626D01*
X143967221Y-89980077D01*
X143863844Y-89928655D01*
X143752415Y-89885558D01*
X143684625Y-89864576D01*
X143642635Y-89852879D01*
X143591446Y-89838924D01*
X143533561Y-89823370D01*
X143471482Y-89806872D01*
X143407711Y-89790089D01*
X143344750Y-89773675D01*
X143285102Y-89758290D01*
X143231268Y-89744589D01*
X143185752Y-89733230D01*
X143166421Y-89728520D01*
X143129112Y-89719234D01*
X143084401Y-89707639D01*
X143036917Y-89694962D01*
X142991285Y-89682428D01*
X142972746Y-89677206D01*
X142934437Y-89666468D01*
X142897012Y-89656254D01*
X142863495Y-89647371D01*
X142836912Y-89640624D01*
X142824200Y-89637637D01*
X142803967Y-89632809D01*
X142774774Y-89625336D01*
X142739716Y-89616036D01*
X142701890Y-89605724D01*
X142678150Y-89599110D01*
X142635464Y-89587178D01*
X142589130Y-89574344D01*
X142543773Y-89561881D01*
X142504023Y-89551065D01*
X142490825Y-89547511D01*
X142456567Y-89538111D01*
X142415454Y-89526489D01*
X142369634Y-89513286D01*
X142321256Y-89499140D01*
X142272470Y-89484692D01*
X142225425Y-89470581D01*
X142182270Y-89457448D01*
X142145155Y-89445931D01*
X142116229Y-89436671D01*
X142100300Y-89431271D01*
X142080828Y-89424667D01*
X142052921Y-89415641D01*
X142020159Y-89405332D01*
X141986125Y-89394882D01*
X141982825Y-89393884D01*
X141950248Y-89383809D01*
X141919961Y-89374020D01*
X141895042Y-89365540D01*
X141878569Y-89359390D01*
X141876868Y-89358667D01*
X141862553Y-89352901D01*
X141839281Y-89344113D01*
X141809898Y-89333354D01*
X141777247Y-89321674D01*
X141765743Y-89317622D01*
X141708463Y-89296280D01*
X141650685Y-89272442D01*
X141594211Y-89247022D01*
X141540845Y-89220937D01*
X141492388Y-89195099D01*
X141450643Y-89170424D01*
X141417412Y-89147827D01*
X141396471Y-89130218D01*
X141373060Y-89100058D01*
X141361558Y-89068655D01*
X141361517Y-89037302D01*
X141372488Y-89007292D01*
X141394020Y-88979917D01*
X141425664Y-88956470D01*
X141462716Y-88939691D01*
X141500225Y-88926569D01*
X142962824Y-88923813D01*
X143123508Y-88923509D01*
X143271977Y-88923223D01*
X143408719Y-88922950D01*
X143534218Y-88922686D01*
X143648962Y-88922427D01*
X143753435Y-88922168D01*
X143848125Y-88921904D01*
X143933516Y-88921632D01*
X144010095Y-88921347D01*
X144078347Y-88921044D01*
X144138760Y-88920719D01*
X144191818Y-88920368D01*
X144238008Y-88919985D01*
X144277816Y-88919567D01*
X144311728Y-88919110D01*
X144340229Y-88918607D01*
X144363806Y-88918057D01*
X144382945Y-88917453D01*
X144398131Y-88916791D01*
X144409851Y-88916067D01*
X144418590Y-88915277D01*
X144424835Y-88914416D01*
X144429071Y-88913480D01*
X144431785Y-88912463D01*
X144433463Y-88911362D01*
X144434437Y-88910357D01*
X144436225Y-88906820D01*
X144437768Y-88900266D01*
X144439082Y-88889958D01*
X144440186Y-88875160D01*
X144441096Y-88855135D01*
X144441829Y-88829145D01*
X144442401Y-88796455D01*
X144442830Y-88756326D01*
X144443132Y-88708022D01*
X144443325Y-88650807D01*
X144443425Y-88583943D01*
X144443450Y-88517616D01*
X144443442Y-88443485D01*
X144443403Y-88379590D01*
X144443307Y-88325146D01*
X144443127Y-88279365D01*
X144442839Y-88241459D01*
X144442416Y-88210643D01*
X144441833Y-88186129D01*
X144441064Y-88167129D01*
X144440083Y-88152858D01*
X144438866Y-88142526D01*
X144437385Y-88135349D01*
X144435616Y-88130538D01*
X144433533Y-88127306D01*
X144431109Y-88124867D01*
X144430619Y-88124437D01*
X144429195Y-88123273D01*
X144427396Y-88122193D01*
X144424759Y-88121196D01*
X144420823Y-88120277D01*
X144415125Y-88119436D01*
X144407201Y-88118668D01*
X144396589Y-88117972D01*
X144382827Y-88117344D01*
X144365453Y-88116783D01*
X144344002Y-88116284D01*
X144318014Y-88115847D01*
X144287025Y-88115468D01*
X144250572Y-88115144D01*
X144208194Y-88114873D01*
X144159427Y-88114652D01*
X144103809Y-88114479D01*
X144040877Y-88114350D01*
X143970169Y-88114264D01*
X143891222Y-88114217D01*
X143803573Y-88114207D01*
X143706760Y-88114231D01*
X143600321Y-88114287D01*
X143483792Y-88114372D01*
X143356711Y-88114483D01*
X143218616Y-88114618D01*
X143069044Y-88114773D01*
X142907532Y-88114947D01*
X142797081Y-88115067D01*
X142626342Y-88115247D01*
X142467826Y-88115407D01*
X142321056Y-88115556D01*
X142185556Y-88115701D01*
X142060848Y-88115852D01*
X141946455Y-88116017D01*
X141841900Y-88116204D01*
X141746708Y-88116423D01*
X141660400Y-88116682D01*
X141582499Y-88116989D01*
X141512530Y-88117353D01*
X141450015Y-88117783D01*
X141394476Y-88118287D01*
X141345438Y-88118873D01*
X141302423Y-88119551D01*
X141264955Y-88120329D01*
X141232556Y-88121215D01*
X141204749Y-88122219D01*
X141181058Y-88123347D01*
X141161006Y-88124611D01*
X141144116Y-88126016D01*
X141129910Y-88127573D01*
X141117913Y-88129291D01*
X141107647Y-88131176D01*
X141098635Y-88133239D01*
X141090400Y-88135487D01*
X141082465Y-88137929D01*
X141074354Y-88140574D01*
X141065590Y-88143431D01*
X141056141Y-88146373D01*
X140983633Y-88173803D01*
X140913236Y-88211414D01*
X140845895Y-88258408D01*
X140782551Y-88313989D01*
X140724147Y-88377360D01*
X140671627Y-88447725D01*
X140640678Y-88497549D01*
X140598671Y-88579598D01*
X140564989Y-88665568D01*
X140539322Y-88756657D01*
X140521359Y-88854061D01*
X140510790Y-88958978D01*
X140508429Y-89007050D01*
X140507996Y-89108341D01*
X140514339Y-89201455D01*
G36*
X140581855Y-99519138D02*
G01*
X140581957Y-99616822D01*
X140582116Y-99712314D01*
X140582331Y-99805002D01*
X140582600Y-99894273D01*
X140582922Y-99979516D01*
X140583296Y-100060119D01*
X140583719Y-100135470D01*
X140584191Y-100204958D01*
X140584709Y-100267969D01*
X140585273Y-100323894D01*
X140585881Y-100372119D01*
X140586530Y-100412034D01*
X140587221Y-100443025D01*
X140587951Y-100464482D01*
X140588719Y-100475792D01*
X140589064Y-100477389D01*
X140590720Y-100479615D01*
X140593365Y-100481516D01*
X140597941Y-100483118D01*
X140605395Y-100484446D01*
X140616670Y-100485526D01*
X140632711Y-100486383D01*
X140654462Y-100487043D01*
X140682869Y-100487533D01*
X140718876Y-100487877D01*
X140763427Y-100488100D01*
X140817467Y-100488230D01*
X140881941Y-100488291D01*
X140957794Y-100488309D01*
X140991464Y-100488309D01*
X141072220Y-100488298D01*
X141141231Y-100488248D01*
X141199447Y-100488134D01*
X141247825Y-100487932D01*
X141287315Y-100487618D01*
X141318873Y-100487167D01*
X141343450Y-100486555D01*
X141362002Y-100485758D01*
X141375481Y-100484751D01*
X141384840Y-100483510D01*
X141391032Y-100482010D01*
X141395012Y-100480228D01*
X141397733Y-100478137D01*
X141397974Y-100477909D01*
X141399324Y-100476128D01*
X141400556Y-100473171D01*
X141401675Y-100468561D01*
X141402686Y-100461817D01*
X141403594Y-100452463D01*
X141404403Y-100440019D01*
X141405119Y-100424007D01*
X141405746Y-100403949D01*
X141406288Y-100379366D01*
X141406751Y-100349780D01*
X141407140Y-100314713D01*
X141407458Y-100273685D01*
X141407712Y-100226219D01*
X141407906Y-100171836D01*
X141408044Y-100110058D01*
X141408131Y-100040406D01*
X141408173Y-99962402D01*
X141408173Y-99875567D01*
X141408137Y-99779424D01*
X141408070Y-99673492D01*
X141407976Y-99557295D01*
X141407910Y-99484344D01*
X141407840Y-99380600D01*
X141407823Y-99279556D01*
X141407856Y-99181787D01*
X141407938Y-99087870D01*
X141408065Y-98998379D01*
X141408237Y-98913890D01*
X141408451Y-98834979D01*
X141408704Y-98762221D01*
X141408995Y-98696191D01*
X141409322Y-98637465D01*
X141409682Y-98586619D01*
X141410073Y-98544228D01*
X141410494Y-98510868D01*
X141410942Y-98487114D01*
X141411414Y-98473541D01*
X141411642Y-98470862D01*
X141420485Y-98439807D01*
X141436950Y-98405563D01*
X141458869Y-98371963D01*
X141483790Y-98343122D01*
X141509856Y-98322223D01*
X141543783Y-98301714D01*
X141580963Y-98284086D01*
X141614525Y-98272435D01*
X141633775Y-98265820D01*
X141649343Y-98258183D01*
X141651704Y-98256569D01*
X141658908Y-98252778D01*
X141670209Y-98250221D01*
X141687802Y-98248698D01*
X141713885Y-98248010D01*
X141746954Y-98247944D01*
X141784201Y-98248390D01*
X141811996Y-98249616D01*
X141833576Y-98251956D01*
X141852177Y-98255746D01*
X141868525Y-98260505D01*
X141928035Y-98285005D01*
X141978789Y-98317317D01*
X142020373Y-98357084D01*
X142052372Y-98403948D01*
X142064458Y-98429470D01*
X142065643Y-98437168D01*
X142066769Y-98454468D01*
X142067839Y-98481503D01*
X142068855Y-98518409D01*
X142069818Y-98565321D01*
X142070730Y-98622373D01*
X142071595Y-98689701D01*
X142072413Y-98767439D01*
X142073187Y-98855723D01*
X142073919Y-98954686D01*
X142074610Y-99064465D01*
X142074975Y-99129564D01*
X142075519Y-99230474D01*
X142076019Y-99320989D01*
X142076491Y-99401739D01*
X142076950Y-99473352D01*
X142077410Y-99536458D01*
X142077889Y-99591687D01*
X142078399Y-99639666D01*
X142078958Y-99681026D01*
X142079581Y-99716396D01*
X142080281Y-99746405D01*
X142081076Y-99771682D01*
X142081980Y-99792857D01*
X142083008Y-99810559D01*
X142084176Y-99825417D01*
X142085500Y-99838061D01*
X142086993Y-99849119D01*
X142088672Y-99859220D01*
X142090552Y-99868995D01*
X142092649Y-99879073D01*
X142093264Y-99881973D01*
X142109879Y-99947147D01*
X142131784Y-100012896D01*
X142157543Y-100075360D01*
X142185615Y-100130490D01*
X142240639Y-100214357D01*
X142306167Y-100292569D01*
X142381437Y-100364559D01*
X142465688Y-100429763D01*
X142558157Y-100487615D01*
X142658083Y-100537548D01*
X142764705Y-100578997D01*
X142807946Y-100592743D01*
X142870959Y-100610839D01*
X142927307Y-100625191D01*
X142980071Y-100636262D01*
X143032326Y-100644515D01*
X143087151Y-100650415D01*
X143147624Y-100654424D01*
X143216824Y-100657007D01*
X143238134Y-100657537D01*
X143288754Y-100658547D01*
X143330906Y-100658874D01*
X143367236Y-100658264D01*
X143400394Y-100656461D01*
X143433028Y-100653211D01*
X143467787Y-100648260D01*
X143507319Y-100641354D01*
X143554272Y-100632236D01*
X143601941Y-100622570D01*
X143661276Y-100609912D01*
X143710844Y-100598016D01*
X143753435Y-100586005D01*
X143791842Y-100573001D01*
X143828856Y-100558128D01*
X143867267Y-100540509D01*
X143874838Y-100536836D01*
X143979841Y-100480540D01*
X144073401Y-100419743D01*
X144155855Y-100354053D01*
X144227543Y-100283082D01*
X144288806Y-100206439D01*
X144339981Y-100123733D01*
X144381408Y-100034575D01*
X144413427Y-99938574D01*
X144421194Y-99908607D01*
X144437573Y-99841267D01*
X144438924Y-98711634D01*
X144439073Y-98560681D01*
X144439148Y-98420428D01*
X144439148Y-98290898D01*
X144439073Y-98172117D01*
X144438924Y-98064109D01*
X144438701Y-97966897D01*
X144438404Y-97880506D01*
X144438032Y-97804961D01*
X144437586Y-97740285D01*
X144437067Y-97686502D01*
X144436474Y-97643638D01*
X144435806Y-97611716D01*
X144435066Y-97590760D01*
X144434252Y-97580796D01*
X144433925Y-97579896D01*
X144426619Y-97579549D01*
X144407707Y-97579265D01*
X144378283Y-97579044D01*
X144339441Y-97578890D01*
X144292275Y-97578803D01*
X144237877Y-97578786D01*
X144177344Y-97578840D01*
X144111767Y-97578967D01*
X144042241Y-97579169D01*
X144027525Y-97579220D01*
X143627475Y-97580649D01*
X143621125Y-99592585D01*
X143606958Y-99624837D01*
X143591811Y-99655739D01*
X143575411Y-99680157D01*
X143554396Y-99702480D01*
X143533936Y-99720199D01*
X143489516Y-99751800D01*
X143442420Y-99775191D01*
X143390302Y-99791172D01*
X143330816Y-99800546D01*
X143290650Y-99803331D01*
X143230095Y-99803841D01*
X143178001Y-99799442D01*
X143131215Y-99789684D01*
X143087043Y-99774312D01*
X143033935Y-99746603D01*
X142990542Y-99711829D01*
X142957111Y-99670268D01*
X142933890Y-99622203D01*
X142924847Y-99589829D01*
X142923575Y-99580175D01*
X142922380Y-99563417D01*
X142921258Y-99539211D01*
X142920203Y-99507213D01*
X142919208Y-99467082D01*
X142918270Y-99418473D01*
X142917381Y-99361044D01*
X142916536Y-99294451D01*
X142915729Y-99218350D01*
X142914955Y-99132399D01*
X142914209Y-99036254D01*
X142913484Y-98929573D01*
X142913184Y-98881517D01*
X142912573Y-98781450D01*
X142912012Y-98691784D01*
X142911485Y-98611896D01*
X142910978Y-98541162D01*
X142910474Y-98478960D01*
X142909958Y-98424666D01*
X142909414Y-98377657D01*
X142908826Y-98337309D01*
X142908179Y-98303000D01*
X142907457Y-98274107D01*
X142906645Y-98250006D01*
X142905727Y-98230073D01*
X142904687Y-98213687D01*
X142903509Y-98200222D01*
X142902179Y-98189058D01*
X142900679Y-98179569D01*
X142898995Y-98171133D01*
X142897112Y-98163127D01*
X142895012Y-98154928D01*
X142894936Y-98154633D01*
X142863205Y-98053839D01*
X142822208Y-97960317D01*
X142771600Y-97873656D01*
X142711040Y-97793447D01*
X142640182Y-97719277D01*
X142558685Y-97650735D01*
X142466205Y-97587411D01*
X142380305Y-97538225D01*
X142336068Y-97516687D01*
X142286375Y-97496230D01*
X142229232Y-97476131D01*
X142162646Y-97455666D01*
X142119350Y-97443463D01*
X142089926Y-97435208D01*
X142064300Y-97427681D01*
X142045284Y-97421728D01*
X142035834Y-97418270D01*
X142021512Y-97414310D01*
X141996127Y-97410613D01*
X141961315Y-97407286D01*
X141918710Y-97404435D01*
X141869949Y-97402167D01*
X141816667Y-97400587D01*
X141760500Y-97399802D01*
X141751071Y-97399757D01*
X141674679Y-97400397D01*
X141607834Y-97403152D01*
X141547537Y-97408402D01*
X141490794Y-97416529D01*
X141434606Y-97427913D01*
X141375979Y-97442934D01*
X141347825Y-97451036D01*
X141244916Y-97485020D01*
X141153037Y-97522894D01*
X141071149Y-97565114D01*
X141030325Y-97590135D01*
X140978078Y-97626573D01*
X140924437Y-97668313D01*
X140872488Y-97712712D01*
X140825317Y-97757126D01*
X140786011Y-97798912D01*
X140784559Y-97800593D01*
X140733603Y-97867727D01*
X140688297Y-97943808D01*
X140649214Y-98027680D01*
X140616926Y-98118187D01*
X140602958Y-98167693D01*
X140586622Y-98231083D01*
X140584325Y-98556300D01*
X140583770Y-98642260D01*
X140583288Y-98732146D01*
X140582876Y-98825345D01*
X140582534Y-98921247D01*
X140582260Y-99019239D01*
X140582052Y-99118709D01*
X140581909Y-99219046D01*
X140581830Y-99319638D01*
X140581812Y-99419872D01*
X140581855Y-99519138D01*
X140581855Y-99519138D01*
G37*
X140581855Y-99519138D02*
X140581957Y-99616822D01*
X140582116Y-99712314D01*
X140582331Y-99805002D01*
X140582600Y-99894273D01*
X140582922Y-99979516D01*
X140583296Y-100060119D01*
X140583719Y-100135470D01*
X140584191Y-100204958D01*
X140584709Y-100267969D01*
X140585273Y-100323894D01*
X140585881Y-100372119D01*
X140586530Y-100412034D01*
X140587221Y-100443025D01*
X140587951Y-100464482D01*
X140588719Y-100475792D01*
X140589064Y-100477389D01*
X140590720Y-100479615D01*
X140593365Y-100481516D01*
X140597941Y-100483118D01*
X140605395Y-100484446D01*
X140616670Y-100485526D01*
X140632711Y-100486383D01*
X140654462Y-100487043D01*
X140682869Y-100487533D01*
X140718876Y-100487877D01*
X140763427Y-100488100D01*
X140817467Y-100488230D01*
X140881941Y-100488291D01*
X140957794Y-100488309D01*
X140991464Y-100488309D01*
X141072220Y-100488298D01*
X141141231Y-100488248D01*
X141199447Y-100488134D01*
X141247825Y-100487932D01*
X141287315Y-100487618D01*
X141318873Y-100487167D01*
X141343450Y-100486555D01*
X141362002Y-100485758D01*
X141375481Y-100484751D01*
X141384840Y-100483510D01*
X141391032Y-100482010D01*
X141395012Y-100480228D01*
X141397733Y-100478137D01*
X141397974Y-100477909D01*
X141399324Y-100476128D01*
X141400556Y-100473171D01*
X141401675Y-100468561D01*
X141402686Y-100461817D01*
X141403594Y-100452463D01*
X141404403Y-100440019D01*
X141405119Y-100424007D01*
X141405746Y-100403949D01*
X141406288Y-100379366D01*
X141406751Y-100349780D01*
X141407140Y-100314713D01*
X141407458Y-100273685D01*
X141407712Y-100226219D01*
X141407906Y-100171836D01*
X141408044Y-100110058D01*
X141408131Y-100040406D01*
X141408173Y-99962402D01*
X141408173Y-99875567D01*
X141408137Y-99779424D01*
X141408070Y-99673492D01*
X141407976Y-99557295D01*
X141407910Y-99484344D01*
X141407840Y-99380600D01*
X141407823Y-99279556D01*
X141407856Y-99181787D01*
X141407938Y-99087870D01*
X141408065Y-98998379D01*
X141408237Y-98913890D01*
X141408451Y-98834979D01*
X141408704Y-98762221D01*
X141408995Y-98696191D01*
X141409322Y-98637465D01*
X141409682Y-98586619D01*
X141410073Y-98544228D01*
X141410494Y-98510868D01*
X141410942Y-98487114D01*
X141411414Y-98473541D01*
X141411642Y-98470862D01*
X141420485Y-98439807D01*
X141436950Y-98405563D01*
X141458869Y-98371963D01*
X141483790Y-98343122D01*
X141509856Y-98322223D01*
X141543783Y-98301714D01*
X141580963Y-98284086D01*
X141614525Y-98272435D01*
X141633775Y-98265820D01*
X141649343Y-98258183D01*
X141651704Y-98256569D01*
X141658908Y-98252778D01*
X141670209Y-98250221D01*
X141687802Y-98248698D01*
X141713885Y-98248010D01*
X141746954Y-98247944D01*
X141784201Y-98248390D01*
X141811996Y-98249616D01*
X141833576Y-98251956D01*
X141852177Y-98255746D01*
X141868525Y-98260505D01*
X141928035Y-98285005D01*
X141978789Y-98317317D01*
X142020373Y-98357084D01*
X142052372Y-98403948D01*
X142064458Y-98429470D01*
X142065643Y-98437168D01*
X142066769Y-98454468D01*
X142067839Y-98481503D01*
X142068855Y-98518409D01*
X142069818Y-98565321D01*
X142070730Y-98622373D01*
X142071595Y-98689701D01*
X142072413Y-98767439D01*
X142073187Y-98855723D01*
X142073919Y-98954686D01*
X142074610Y-99064465D01*
X142074975Y-99129564D01*
X142075519Y-99230474D01*
X142076019Y-99320989D01*
X142076491Y-99401739D01*
X142076950Y-99473352D01*
X142077410Y-99536458D01*
X142077889Y-99591687D01*
X142078399Y-99639666D01*
X142078958Y-99681026D01*
X142079581Y-99716396D01*
X142080281Y-99746405D01*
X142081076Y-99771682D01*
X142081980Y-99792857D01*
X142083008Y-99810559D01*
X142084176Y-99825417D01*
X142085500Y-99838061D01*
X142086993Y-99849119D01*
X142088672Y-99859220D01*
X142090552Y-99868995D01*
X142092649Y-99879073D01*
X142093264Y-99881973D01*
X142109879Y-99947147D01*
X142131784Y-100012896D01*
X142157543Y-100075360D01*
X142185615Y-100130490D01*
X142240639Y-100214357D01*
X142306167Y-100292569D01*
X142381437Y-100364559D01*
X142465688Y-100429763D01*
X142558157Y-100487615D01*
X142658083Y-100537548D01*
X142764705Y-100578997D01*
X142807946Y-100592743D01*
X142870959Y-100610839D01*
X142927307Y-100625191D01*
X142980071Y-100636262D01*
X143032326Y-100644515D01*
X143087151Y-100650415D01*
X143147624Y-100654424D01*
X143216824Y-100657007D01*
X143238134Y-100657537D01*
X143288754Y-100658547D01*
X143330906Y-100658874D01*
X143367236Y-100658264D01*
X143400394Y-100656461D01*
X143433028Y-100653211D01*
X143467787Y-100648260D01*
X143507319Y-100641354D01*
X143554272Y-100632236D01*
X143601941Y-100622570D01*
X143661276Y-100609912D01*
X143710844Y-100598016D01*
X143753435Y-100586005D01*
X143791842Y-100573001D01*
X143828856Y-100558128D01*
X143867267Y-100540509D01*
X143874838Y-100536836D01*
X143979841Y-100480540D01*
X144073401Y-100419743D01*
X144155855Y-100354053D01*
X144227543Y-100283082D01*
X144288806Y-100206439D01*
X144339981Y-100123733D01*
X144381408Y-100034575D01*
X144413427Y-99938574D01*
X144421194Y-99908607D01*
X144437573Y-99841267D01*
X144438924Y-98711634D01*
X144439073Y-98560681D01*
X144439148Y-98420428D01*
X144439148Y-98290898D01*
X144439073Y-98172117D01*
X144438924Y-98064109D01*
X144438701Y-97966897D01*
X144438404Y-97880506D01*
X144438032Y-97804961D01*
X144437586Y-97740285D01*
X144437067Y-97686502D01*
X144436474Y-97643638D01*
X144435806Y-97611716D01*
X144435066Y-97590760D01*
X144434252Y-97580796D01*
X144433925Y-97579896D01*
X144426619Y-97579549D01*
X144407707Y-97579265D01*
X144378283Y-97579044D01*
X144339441Y-97578890D01*
X144292275Y-97578803D01*
X144237877Y-97578786D01*
X144177344Y-97578840D01*
X144111767Y-97578967D01*
X144042241Y-97579169D01*
X144027525Y-97579220D01*
X143627475Y-97580649D01*
X143621125Y-99592585D01*
X143606958Y-99624837D01*
X143591811Y-99655739D01*
X143575411Y-99680157D01*
X143554396Y-99702480D01*
X143533936Y-99720199D01*
X143489516Y-99751800D01*
X143442420Y-99775191D01*
X143390302Y-99791172D01*
X143330816Y-99800546D01*
X143290650Y-99803331D01*
X143230095Y-99803841D01*
X143178001Y-99799442D01*
X143131215Y-99789684D01*
X143087043Y-99774312D01*
X143033935Y-99746603D01*
X142990542Y-99711829D01*
X142957111Y-99670268D01*
X142933890Y-99622203D01*
X142924847Y-99589829D01*
X142923575Y-99580175D01*
X142922380Y-99563417D01*
X142921258Y-99539211D01*
X142920203Y-99507213D01*
X142919208Y-99467082D01*
X142918270Y-99418473D01*
X142917381Y-99361044D01*
X142916536Y-99294451D01*
X142915729Y-99218350D01*
X142914955Y-99132399D01*
X142914209Y-99036254D01*
X142913484Y-98929573D01*
X142913184Y-98881517D01*
X142912573Y-98781450D01*
X142912012Y-98691784D01*
X142911485Y-98611896D01*
X142910978Y-98541162D01*
X142910474Y-98478960D01*
X142909958Y-98424666D01*
X142909414Y-98377657D01*
X142908826Y-98337309D01*
X142908179Y-98303000D01*
X142907457Y-98274107D01*
X142906645Y-98250006D01*
X142905727Y-98230073D01*
X142904687Y-98213687D01*
X142903509Y-98200222D01*
X142902179Y-98189058D01*
X142900679Y-98179569D01*
X142898995Y-98171133D01*
X142897112Y-98163127D01*
X142895012Y-98154928D01*
X142894936Y-98154633D01*
X142863205Y-98053839D01*
X142822208Y-97960317D01*
X142771600Y-97873656D01*
X142711040Y-97793447D01*
X142640182Y-97719277D01*
X142558685Y-97650735D01*
X142466205Y-97587411D01*
X142380305Y-97538225D01*
X142336068Y-97516687D01*
X142286375Y-97496230D01*
X142229232Y-97476131D01*
X142162646Y-97455666D01*
X142119350Y-97443463D01*
X142089926Y-97435208D01*
X142064300Y-97427681D01*
X142045284Y-97421728D01*
X142035834Y-97418270D01*
X142021512Y-97414310D01*
X141996127Y-97410613D01*
X141961315Y-97407286D01*
X141918710Y-97404435D01*
X141869949Y-97402167D01*
X141816667Y-97400587D01*
X141760500Y-97399802D01*
X141751071Y-97399757D01*
X141674679Y-97400397D01*
X141607834Y-97403152D01*
X141547537Y-97408402D01*
X141490794Y-97416529D01*
X141434606Y-97427913D01*
X141375979Y-97442934D01*
X141347825Y-97451036D01*
X141244916Y-97485020D01*
X141153037Y-97522894D01*
X141071149Y-97565114D01*
X141030325Y-97590135D01*
X140978078Y-97626573D01*
X140924437Y-97668313D01*
X140872488Y-97712712D01*
X140825317Y-97757126D01*
X140786011Y-97798912D01*
X140784559Y-97800593D01*
X140733603Y-97867727D01*
X140688297Y-97943808D01*
X140649214Y-98027680D01*
X140616926Y-98118187D01*
X140602958Y-98167693D01*
X140586622Y-98231083D01*
X140584325Y-98556300D01*
X140583770Y-98642260D01*
X140583288Y-98732146D01*
X140582876Y-98825345D01*
X140582534Y-98921247D01*
X140582260Y-99019239D01*
X140582052Y-99118709D01*
X140581909Y-99219046D01*
X140581830Y-99319638D01*
X140581812Y-99419872D01*
X140581855Y-99519138D01*
G36*
X140566432Y-102589702D02*
G01*
X140567888Y-102639152D01*
X140570323Y-102684298D01*
X140573733Y-102723006D01*
X140578117Y-102753144D01*
X140578785Y-102756447D01*
X140601293Y-102850564D01*
X140627183Y-102934972D01*
X140656965Y-103010700D01*
X140691146Y-103078777D01*
X140730234Y-103140231D01*
X140774737Y-103196092D01*
X140817740Y-103240454D01*
X140858057Y-103275137D01*
X140901282Y-103304912D01*
X140950085Y-103331282D01*
X141007136Y-103355751D01*
X141050579Y-103371581D01*
X141076746Y-103380961D01*
X141109869Y-103393353D01*
X141145427Y-103407041D01*
X141174576Y-103418572D01*
X141212676Y-103433220D01*
X141256567Y-103449077D01*
X141299971Y-103463917D01*
X141326982Y-103472596D01*
X141362693Y-103483974D01*
X141399993Y-103496409D01*
X141434125Y-103508287D01*
X141457338Y-103516832D01*
X141485664Y-103527144D01*
X141520966Y-103539175D01*
X141558148Y-103551220D01*
X141583673Y-103559079D01*
X141614785Y-103568664D01*
X141643709Y-103578061D01*
X141667075Y-103586146D01*
X141680829Y-103591487D01*
X141694801Y-103596776D01*
X141718156Y-103604640D01*
X141748208Y-103614214D01*
X141782272Y-103624634D01*
X141802144Y-103630529D01*
X141841396Y-103642230D01*
X141882103Y-103654691D01*
X141920236Y-103666657D01*
X141951763Y-103676876D01*
X141960600Y-103679844D01*
X141994329Y-103690982D01*
X142031435Y-103702697D01*
X142065429Y-103712951D01*
X142074900Y-103715680D01*
X142107358Y-103725264D01*
X142142669Y-103736284D01*
X142173719Y-103746515D01*
X142176500Y-103747472D01*
X142201832Y-103755895D01*
X142238431Y-103767540D01*
X142285505Y-103782166D01*
X142342263Y-103799531D01*
X142407914Y-103819394D01*
X142481667Y-103841512D01*
X142562732Y-103865644D01*
X142586075Y-103872564D01*
X142624485Y-103884117D01*
X142661996Y-103895715D01*
X142695597Y-103906403D01*
X142722279Y-103915230D01*
X142735300Y-103919817D01*
X142754530Y-103926425D01*
X142783109Y-103935583D01*
X142818300Y-103946447D01*
X142857369Y-103958172D01*
X142897225Y-103969812D01*
X142937004Y-103981285D01*
X142976428Y-103992712D01*
X143016510Y-104004398D01*
X143058268Y-104016644D01*
X143102716Y-104029753D01*
X143150870Y-104044027D01*
X143203747Y-104059769D01*
X143262360Y-104077282D01*
X143327727Y-104096867D01*
X143400863Y-104118828D01*
X143482784Y-104143466D01*
X143574505Y-104171085D01*
X143677042Y-104201986D01*
X143694150Y-104207144D01*
X143740199Y-104220978D01*
X143788472Y-104235394D01*
X143835538Y-104249375D01*
X143877966Y-104261900D01*
X143912329Y-104271953D01*
X143916400Y-104273134D01*
X143954661Y-104284321D01*
X143995527Y-104296446D01*
X144034113Y-104308048D01*
X144065536Y-104317669D01*
X144065625Y-104317697D01*
X144090096Y-104325194D01*
X144123961Y-104335416D01*
X144164575Y-104347573D01*
X144209295Y-104360874D01*
X144255476Y-104374531D01*
X144280339Y-104381848D01*
X144327933Y-104395720D01*
X144364901Y-104406200D01*
X144392581Y-104413598D01*
X144412307Y-104418224D01*
X144425419Y-104420386D01*
X144433251Y-104420396D01*
X144437141Y-104418561D01*
X144437404Y-104418235D01*
X144438489Y-104411333D01*
X144439466Y-104394450D01*
X144440335Y-104368630D01*
X144441094Y-104334915D01*
X144441746Y-104294350D01*
X144442289Y-104247976D01*
X144442724Y-104196837D01*
X144443050Y-104141977D01*
X144443269Y-104084438D01*
X144443379Y-104025264D01*
X144443381Y-103965498D01*
X144443276Y-103906183D01*
X144443062Y-103848362D01*
X144442741Y-103793078D01*
X144442311Y-103741375D01*
X144441775Y-103694296D01*
X144441130Y-103652884D01*
X144440378Y-103618182D01*
X144439518Y-103591234D01*
X144438551Y-103573082D01*
X144437477Y-103564769D01*
X144437353Y-103564502D01*
X144434181Y-103560942D01*
X144428337Y-103556900D01*
X144419026Y-103552107D01*
X144405449Y-103546292D01*
X144386810Y-103539184D01*
X144362311Y-103530514D01*
X144331156Y-103520010D01*
X144292548Y-103507403D01*
X144245689Y-103492421D01*
X144189782Y-103474795D01*
X144124031Y-103454254D01*
X144047638Y-103430527D01*
X143988496Y-103412216D01*
X143950311Y-103400123D01*
X143907985Y-103386270D01*
X143867441Y-103372616D01*
X143842446Y-103363925D01*
X143806406Y-103351585D01*
X143766265Y-103338526D01*
X143728181Y-103326726D01*
X143710025Y-103321398D01*
X143676016Y-103311215D01*
X143639543Y-103299506D01*
X143606674Y-103288245D01*
X143595725Y-103284244D01*
X143570242Y-103275207D01*
X143536742Y-103264069D01*
X143499283Y-103252145D01*
X143461924Y-103240750D01*
X143456025Y-103239004D01*
X143420277Y-103228254D01*
X143384900Y-103217226D01*
X143353520Y-103207077D01*
X143329763Y-103198960D01*
X143325850Y-103197536D01*
X143305002Y-103190229D01*
X143275475Y-103180431D01*
X143240607Y-103169224D01*
X143203735Y-103157690D01*
X143188334Y-103152972D01*
X143151918Y-103141741D01*
X143116375Y-103130509D01*
X143084945Y-103120318D01*
X143060866Y-103112210D01*
X143053450Y-103109576D01*
X143033124Y-103102578D01*
X143004196Y-103093184D01*
X142970115Y-103082487D01*
X142934324Y-103071582D01*
X142924266Y-103068581D01*
X142886320Y-103057048D01*
X142846900Y-103044611D01*
X142810270Y-103032642D01*
X142780694Y-103022513D01*
X142776575Y-103021037D01*
X142752009Y-103012447D01*
X142718586Y-103001176D01*
X142679410Y-102988249D01*
X142637585Y-102974691D01*
X142598775Y-102962333D01*
X142551939Y-102947477D01*
X142499776Y-102930783D01*
X142446990Y-102913765D01*
X142398286Y-102897938D01*
X142370175Y-102888720D01*
X142326058Y-102874295D01*
X142277063Y-102858464D01*
X142228045Y-102842784D01*
X142183858Y-102828812D01*
X142166975Y-102823537D01*
X142128459Y-102811511D01*
X142091622Y-102799882D01*
X142054079Y-102787877D01*
X142013443Y-102774726D01*
X141967327Y-102759659D01*
X141913347Y-102741904D01*
X141871700Y-102728157D01*
X141842885Y-102718685D01*
X141806411Y-102706767D01*
X141766525Y-102693787D01*
X141727476Y-102681130D01*
X141719300Y-102678487D01*
X141653681Y-102657293D01*
X141598957Y-102639510D01*
X141554140Y-102624658D01*
X141518242Y-102612258D01*
X141490274Y-102601833D01*
X141469248Y-102592902D01*
X141454176Y-102584986D01*
X141444070Y-102577608D01*
X141437942Y-102570287D01*
X141434802Y-102562545D01*
X141433663Y-102553903D01*
X141433537Y-102543882D01*
X141433550Y-102539998D01*
X141434468Y-102524533D01*
X141438004Y-102511242D01*
X141445332Y-102499445D01*
X141457625Y-102488460D01*
X141476056Y-102477606D01*
X141501799Y-102466204D01*
X141536027Y-102453572D01*
X141579913Y-102439030D01*
X141634630Y-102421897D01*
X141639925Y-102420267D01*
X141717837Y-102396282D01*
X141784800Y-102375631D01*
X141841844Y-102357989D01*
X141890001Y-102343033D01*
X141930300Y-102330437D01*
X141963774Y-102319879D01*
X141991453Y-102311032D01*
X142014367Y-102303574D01*
X142033548Y-102297180D01*
X142050027Y-102291525D01*
X142056800Y-102289148D01*
X142090451Y-102277893D01*
X142128613Y-102266088D01*
X142163735Y-102256057D01*
X142167925Y-102254941D01*
X142196061Y-102246945D01*
X142231407Y-102236040D01*
X142269492Y-102223644D01*
X142305846Y-102211177D01*
X142306675Y-102210884D01*
X142344650Y-102197801D01*
X142389457Y-102182948D01*
X142435873Y-102168028D01*
X142478676Y-102154740D01*
X142484475Y-102152989D01*
X142520714Y-102141923D01*
X142556044Y-102130832D01*
X142587207Y-102120760D01*
X142610944Y-102112750D01*
X142617825Y-102110286D01*
X142638709Y-102103100D01*
X142667924Y-102093745D01*
X142701699Y-102083399D01*
X142736266Y-102073237D01*
X142738475Y-102072604D01*
X142796412Y-102055811D01*
X142856605Y-102037969D01*
X142916594Y-102019835D01*
X142973922Y-102002166D01*
X143026127Y-101985719D01*
X143070752Y-101971251D01*
X143100425Y-101961233D01*
X143134756Y-101949810D01*
X143172528Y-101938013D01*
X143207513Y-101927765D01*
X143220179Y-101924304D01*
X143253332Y-101914877D01*
X143291130Y-101903144D01*
X143326617Y-101891285D01*
X143334479Y-101888496D01*
X143363028Y-101878660D01*
X143399250Y-101866838D01*
X143438736Y-101854437D01*
X143477076Y-101842866D01*
X143481419Y-101841591D01*
X143514616Y-101831673D01*
X143544962Y-101822216D01*
X143569708Y-101814107D01*
X143586101Y-101808230D01*
X143589369Y-101806858D01*
X143600041Y-101802644D01*
X143618905Y-101796087D01*
X143646484Y-101787023D01*
X143683303Y-101775287D01*
X143729884Y-101760714D01*
X143786753Y-101743140D01*
X143854433Y-101722398D01*
X143933447Y-101698326D01*
X143960850Y-101690002D01*
X144001660Y-101677462D01*
X144041529Y-101664941D01*
X144077731Y-101653314D01*
X144107538Y-101643458D01*
X144128223Y-101636249D01*
X144129125Y-101635916D01*
X144150265Y-101628593D01*
X144180391Y-101618856D01*
X144216400Y-101607675D01*
X144255191Y-101596017D01*
X144282235Y-101588120D01*
X144329299Y-101574290D01*
X144365631Y-101562866D01*
X144392710Y-101553213D01*
X144412011Y-101544696D01*
X144425013Y-101536681D01*
X144433190Y-101528532D01*
X144437258Y-101521477D01*
X144438442Y-101513223D01*
X144439517Y-101494422D01*
X144440477Y-101465551D01*
X144441315Y-101427086D01*
X144442025Y-101379505D01*
X144442599Y-101323284D01*
X144443031Y-101258900D01*
X144443315Y-101186830D01*
X144443443Y-101107552D01*
X144443450Y-101083090D01*
X144443416Y-101002433D01*
X144443305Y-100932147D01*
X144443106Y-100871579D01*
X144442804Y-100820078D01*
X144442388Y-100776989D01*
X144441844Y-100741660D01*
X144441160Y-100713439D01*
X144440323Y-100691672D01*
X144439320Y-100675707D01*
X144438137Y-100664891D01*
X144436764Y-100658571D01*
X144435186Y-100656094D01*
X144435075Y-100656051D01*
X144425922Y-100656505D01*
X144406931Y-100659830D01*
X144380341Y-100665480D01*
X144348389Y-100672909D01*
X144313315Y-100681573D01*
X144277356Y-100690925D01*
X144242749Y-100700422D01*
X144211734Y-100709517D01*
X144198201Y-100713766D01*
X144174949Y-100721024D01*
X144142902Y-100730666D01*
X144105362Y-100741718D01*
X144065630Y-100753205D01*
X144040225Y-100760433D01*
X143985751Y-100775973D01*
X143927129Y-100792967D01*
X143866676Y-100810721D01*
X143806709Y-100828542D01*
X143749545Y-100845739D01*
X143697503Y-100861617D01*
X143652898Y-100875484D01*
X143618050Y-100886647D01*
X143617950Y-100886680D01*
X143589748Y-100895673D01*
X143553493Y-100906851D01*
X143513206Y-100918992D01*
X143472911Y-100930877D01*
X143459200Y-100934851D01*
X143374209Y-100959477D01*
X143301197Y-100980902D01*
X143240005Y-100999173D01*
X143190476Y-101014340D01*
X143152451Y-101026449D01*
X143125773Y-101035548D01*
X143123521Y-101036368D01*
X143104070Y-101043022D01*
X143075434Y-101052180D01*
X143040511Y-101062944D01*
X143002197Y-101074420D01*
X142971121Y-101083491D01*
X142927484Y-101096239D01*
X142876437Y-101111426D01*
X142822494Y-101127692D01*
X142770170Y-101143678D01*
X142732125Y-101155471D01*
X142685086Y-101170145D01*
X142630517Y-101187117D01*
X142572863Y-101205009D01*
X142516566Y-101222442D01*
X142466068Y-101238038D01*
X142465425Y-101238236D01*
X142422090Y-101251647D01*
X142379481Y-101264929D01*
X142340166Y-101277274D01*
X142306714Y-101287874D01*
X142281694Y-101295922D01*
X142274925Y-101298145D01*
X142208868Y-101319757D01*
X142135162Y-101343370D01*
X142058240Y-101367583D01*
X141982533Y-101390995D01*
X141941550Y-101403468D01*
X141901212Y-101415831D01*
X141859388Y-101428943D01*
X141819924Y-101441580D01*
X141786664Y-101452515D01*
X141773275Y-101457062D01*
X141739306Y-101468447D01*
X141702302Y-101480305D01*
X141668309Y-101490717D01*
X141655800Y-101494364D01*
X141623279Y-101504329D01*
X141587909Y-101516250D01*
X141556840Y-101527707D01*
X141554200Y-101528752D01*
X141529735Y-101537936D01*
X141497288Y-101549301D01*
X141460898Y-101561468D01*
X141424603Y-101573062D01*
X141420850Y-101574225D01*
X141382375Y-101586528D01*
X141335744Y-101602124D01*
X141283289Y-101620174D01*
X141227340Y-101639838D01*
X141170230Y-101660278D01*
X141114291Y-101680654D01*
X141061853Y-101700129D01*
X141015249Y-101717864D01*
X140976811Y-101733018D01*
X140958906Y-101740410D01*
X140892425Y-101774677D01*
X140831490Y-101818786D01*
X140776170Y-101872633D01*
X140726532Y-101936114D01*
X140682645Y-102009127D01*
X140644576Y-102091567D01*
X140612392Y-102183330D01*
X140586163Y-102284312D01*
X140578356Y-102322052D01*
X140573898Y-102352537D01*
X140570432Y-102391515D01*
X140567954Y-102436854D01*
X140566463Y-102486420D01*
X140565956Y-102538080D01*
X140566432Y-102589702D01*
X140566432Y-102589702D01*
G37*
X140566432Y-102589702D02*
X140567888Y-102639152D01*
X140570323Y-102684298D01*
X140573733Y-102723006D01*
X140578117Y-102753144D01*
X140578785Y-102756447D01*
X140601293Y-102850564D01*
X140627183Y-102934972D01*
X140656965Y-103010700D01*
X140691146Y-103078777D01*
X140730234Y-103140231D01*
X140774737Y-103196092D01*
X140817740Y-103240454D01*
X140858057Y-103275137D01*
X140901282Y-103304912D01*
X140950085Y-103331282D01*
X141007136Y-103355751D01*
X141050579Y-103371581D01*
X141076746Y-103380961D01*
X141109869Y-103393353D01*
X141145427Y-103407041D01*
X141174576Y-103418572D01*
X141212676Y-103433220D01*
X141256567Y-103449077D01*
X141299971Y-103463917D01*
X141326982Y-103472596D01*
X141362693Y-103483974D01*
X141399993Y-103496409D01*
X141434125Y-103508287D01*
X141457338Y-103516832D01*
X141485664Y-103527144D01*
X141520966Y-103539175D01*
X141558148Y-103551220D01*
X141583673Y-103559079D01*
X141614785Y-103568664D01*
X141643709Y-103578061D01*
X141667075Y-103586146D01*
X141680829Y-103591487D01*
X141694801Y-103596776D01*
X141718156Y-103604640D01*
X141748208Y-103614214D01*
X141782272Y-103624634D01*
X141802144Y-103630529D01*
X141841396Y-103642230D01*
X141882103Y-103654691D01*
X141920236Y-103666657D01*
X141951763Y-103676876D01*
X141960600Y-103679844D01*
X141994329Y-103690982D01*
X142031435Y-103702697D01*
X142065429Y-103712951D01*
X142074900Y-103715680D01*
X142107358Y-103725264D01*
X142142669Y-103736284D01*
X142173719Y-103746515D01*
X142176500Y-103747472D01*
X142201832Y-103755895D01*
X142238431Y-103767540D01*
X142285505Y-103782166D01*
X142342263Y-103799531D01*
X142407914Y-103819394D01*
X142481667Y-103841512D01*
X142562732Y-103865644D01*
X142586075Y-103872564D01*
X142624485Y-103884117D01*
X142661996Y-103895715D01*
X142695597Y-103906403D01*
X142722279Y-103915230D01*
X142735300Y-103919817D01*
X142754530Y-103926425D01*
X142783109Y-103935583D01*
X142818300Y-103946447D01*
X142857369Y-103958172D01*
X142897225Y-103969812D01*
X142937004Y-103981285D01*
X142976428Y-103992712D01*
X143016510Y-104004398D01*
X143058268Y-104016644D01*
X143102716Y-104029753D01*
X143150870Y-104044027D01*
X143203747Y-104059769D01*
X143262360Y-104077282D01*
X143327727Y-104096867D01*
X143400863Y-104118828D01*
X143482784Y-104143466D01*
X143574505Y-104171085D01*
X143677042Y-104201986D01*
X143694150Y-104207144D01*
X143740199Y-104220978D01*
X143788472Y-104235394D01*
X143835538Y-104249375D01*
X143877966Y-104261900D01*
X143912329Y-104271953D01*
X143916400Y-104273134D01*
X143954661Y-104284321D01*
X143995527Y-104296446D01*
X144034113Y-104308048D01*
X144065536Y-104317669D01*
X144065625Y-104317697D01*
X144090096Y-104325194D01*
X144123961Y-104335416D01*
X144164575Y-104347573D01*
X144209295Y-104360874D01*
X144255476Y-104374531D01*
X144280339Y-104381848D01*
X144327933Y-104395720D01*
X144364901Y-104406200D01*
X144392581Y-104413598D01*
X144412307Y-104418224D01*
X144425419Y-104420386D01*
X144433251Y-104420396D01*
X144437141Y-104418561D01*
X144437404Y-104418235D01*
X144438489Y-104411333D01*
X144439466Y-104394450D01*
X144440335Y-104368630D01*
X144441094Y-104334915D01*
X144441746Y-104294350D01*
X144442289Y-104247976D01*
X144442724Y-104196837D01*
X144443050Y-104141977D01*
X144443269Y-104084438D01*
X144443379Y-104025264D01*
X144443381Y-103965498D01*
X144443276Y-103906183D01*
X144443062Y-103848362D01*
X144442741Y-103793078D01*
X144442311Y-103741375D01*
X144441775Y-103694296D01*
X144441130Y-103652884D01*
X144440378Y-103618182D01*
X144439518Y-103591234D01*
X144438551Y-103573082D01*
X144437477Y-103564769D01*
X144437353Y-103564502D01*
X144434181Y-103560942D01*
X144428337Y-103556900D01*
X144419026Y-103552107D01*
X144405449Y-103546292D01*
X144386810Y-103539184D01*
X144362311Y-103530514D01*
X144331156Y-103520010D01*
X144292548Y-103507403D01*
X144245689Y-103492421D01*
X144189782Y-103474795D01*
X144124031Y-103454254D01*
X144047638Y-103430527D01*
X143988496Y-103412216D01*
X143950311Y-103400123D01*
X143907985Y-103386270D01*
X143867441Y-103372616D01*
X143842446Y-103363925D01*
X143806406Y-103351585D01*
X143766265Y-103338526D01*
X143728181Y-103326726D01*
X143710025Y-103321398D01*
X143676016Y-103311215D01*
X143639543Y-103299506D01*
X143606674Y-103288245D01*
X143595725Y-103284244D01*
X143570242Y-103275207D01*
X143536742Y-103264069D01*
X143499283Y-103252145D01*
X143461924Y-103240750D01*
X143456025Y-103239004D01*
X143420277Y-103228254D01*
X143384900Y-103217226D01*
X143353520Y-103207077D01*
X143329763Y-103198960D01*
X143325850Y-103197536D01*
X143305002Y-103190229D01*
X143275475Y-103180431D01*
X143240607Y-103169224D01*
X143203735Y-103157690D01*
X143188334Y-103152972D01*
X143151918Y-103141741D01*
X143116375Y-103130509D01*
X143084945Y-103120318D01*
X143060866Y-103112210D01*
X143053450Y-103109576D01*
X143033124Y-103102578D01*
X143004196Y-103093184D01*
X142970115Y-103082487D01*
X142934324Y-103071582D01*
X142924266Y-103068581D01*
X142886320Y-103057048D01*
X142846900Y-103044611D01*
X142810270Y-103032642D01*
X142780694Y-103022513D01*
X142776575Y-103021037D01*
X142752009Y-103012447D01*
X142718586Y-103001176D01*
X142679410Y-102988249D01*
X142637585Y-102974691D01*
X142598775Y-102962333D01*
X142551939Y-102947477D01*
X142499776Y-102930783D01*
X142446990Y-102913765D01*
X142398286Y-102897938D01*
X142370175Y-102888720D01*
X142326058Y-102874295D01*
X142277063Y-102858464D01*
X142228045Y-102842784D01*
X142183858Y-102828812D01*
X142166975Y-102823537D01*
X142128459Y-102811511D01*
X142091622Y-102799882D01*
X142054079Y-102787877D01*
X142013443Y-102774726D01*
X141967327Y-102759659D01*
X141913347Y-102741904D01*
X141871700Y-102728157D01*
X141842885Y-102718685D01*
X141806411Y-102706767D01*
X141766525Y-102693787D01*
X141727476Y-102681130D01*
X141719300Y-102678487D01*
X141653681Y-102657293D01*
X141598957Y-102639510D01*
X141554140Y-102624658D01*
X141518242Y-102612258D01*
X141490274Y-102601833D01*
X141469248Y-102592902D01*
X141454176Y-102584986D01*
X141444070Y-102577608D01*
X141437942Y-102570287D01*
X141434802Y-102562545D01*
X141433663Y-102553903D01*
X141433537Y-102543882D01*
X141433550Y-102539998D01*
X141434468Y-102524533D01*
X141438004Y-102511242D01*
X141445332Y-102499445D01*
X141457625Y-102488460D01*
X141476056Y-102477606D01*
X141501799Y-102466204D01*
X141536027Y-102453572D01*
X141579913Y-102439030D01*
X141634630Y-102421897D01*
X141639925Y-102420267D01*
X141717837Y-102396282D01*
X141784800Y-102375631D01*
X141841844Y-102357989D01*
X141890001Y-102343033D01*
X141930300Y-102330437D01*
X141963774Y-102319879D01*
X141991453Y-102311032D01*
X142014367Y-102303574D01*
X142033548Y-102297180D01*
X142050027Y-102291525D01*
X142056800Y-102289148D01*
X142090451Y-102277893D01*
X142128613Y-102266088D01*
X142163735Y-102256057D01*
X142167925Y-102254941D01*
X142196061Y-102246945D01*
X142231407Y-102236040D01*
X142269492Y-102223644D01*
X142305846Y-102211177D01*
X142306675Y-102210884D01*
X142344650Y-102197801D01*
X142389457Y-102182948D01*
X142435873Y-102168028D01*
X142478676Y-102154740D01*
X142484475Y-102152989D01*
X142520714Y-102141923D01*
X142556044Y-102130832D01*
X142587207Y-102120760D01*
X142610944Y-102112750D01*
X142617825Y-102110286D01*
X142638709Y-102103100D01*
X142667924Y-102093745D01*
X142701699Y-102083399D01*
X142736266Y-102073237D01*
X142738475Y-102072604D01*
X142796412Y-102055811D01*
X142856605Y-102037969D01*
X142916594Y-102019835D01*
X142973922Y-102002166D01*
X143026127Y-101985719D01*
X143070752Y-101971251D01*
X143100425Y-101961233D01*
X143134756Y-101949810D01*
X143172528Y-101938013D01*
X143207513Y-101927765D01*
X143220179Y-101924304D01*
X143253332Y-101914877D01*
X143291130Y-101903144D01*
X143326617Y-101891285D01*
X143334479Y-101888496D01*
X143363028Y-101878660D01*
X143399250Y-101866838D01*
X143438736Y-101854437D01*
X143477076Y-101842866D01*
X143481419Y-101841591D01*
X143514616Y-101831673D01*
X143544962Y-101822216D01*
X143569708Y-101814107D01*
X143586101Y-101808230D01*
X143589369Y-101806858D01*
X143600041Y-101802644D01*
X143618905Y-101796087D01*
X143646484Y-101787023D01*
X143683303Y-101775287D01*
X143729884Y-101760714D01*
X143786753Y-101743140D01*
X143854433Y-101722398D01*
X143933447Y-101698326D01*
X143960850Y-101690002D01*
X144001660Y-101677462D01*
X144041529Y-101664941D01*
X144077731Y-101653314D01*
X144107538Y-101643458D01*
X144128223Y-101636249D01*
X144129125Y-101635916D01*
X144150265Y-101628593D01*
X144180391Y-101618856D01*
X144216400Y-101607675D01*
X144255191Y-101596017D01*
X144282235Y-101588120D01*
X144329299Y-101574290D01*
X144365631Y-101562866D01*
X144392710Y-101553213D01*
X144412011Y-101544696D01*
X144425013Y-101536681D01*
X144433190Y-101528532D01*
X144437258Y-101521477D01*
X144438442Y-101513223D01*
X144439517Y-101494422D01*
X144440477Y-101465551D01*
X144441315Y-101427086D01*
X144442025Y-101379505D01*
X144442599Y-101323284D01*
X144443031Y-101258900D01*
X144443315Y-101186830D01*
X144443443Y-101107552D01*
X144443450Y-101083090D01*
X144443416Y-101002433D01*
X144443305Y-100932147D01*
X144443106Y-100871579D01*
X144442804Y-100820078D01*
X144442388Y-100776989D01*
X144441844Y-100741660D01*
X144441160Y-100713439D01*
X144440323Y-100691672D01*
X144439320Y-100675707D01*
X144438137Y-100664891D01*
X144436764Y-100658571D01*
X144435186Y-100656094D01*
X144435075Y-100656051D01*
X144425922Y-100656505D01*
X144406931Y-100659830D01*
X144380341Y-100665480D01*
X144348389Y-100672909D01*
X144313315Y-100681573D01*
X144277356Y-100690925D01*
X144242749Y-100700422D01*
X144211734Y-100709517D01*
X144198201Y-100713766D01*
X144174949Y-100721024D01*
X144142902Y-100730666D01*
X144105362Y-100741718D01*
X144065630Y-100753205D01*
X144040225Y-100760433D01*
X143985751Y-100775973D01*
X143927129Y-100792967D01*
X143866676Y-100810721D01*
X143806709Y-100828542D01*
X143749545Y-100845739D01*
X143697503Y-100861617D01*
X143652898Y-100875484D01*
X143618050Y-100886647D01*
X143617950Y-100886680D01*
X143589748Y-100895673D01*
X143553493Y-100906851D01*
X143513206Y-100918992D01*
X143472911Y-100930877D01*
X143459200Y-100934851D01*
X143374209Y-100959477D01*
X143301197Y-100980902D01*
X143240005Y-100999173D01*
X143190476Y-101014340D01*
X143152451Y-101026449D01*
X143125773Y-101035548D01*
X143123521Y-101036368D01*
X143104070Y-101043022D01*
X143075434Y-101052180D01*
X143040511Y-101062944D01*
X143002197Y-101074420D01*
X142971121Y-101083491D01*
X142927484Y-101096239D01*
X142876437Y-101111426D01*
X142822494Y-101127692D01*
X142770170Y-101143678D01*
X142732125Y-101155471D01*
X142685086Y-101170145D01*
X142630517Y-101187117D01*
X142572863Y-101205009D01*
X142516566Y-101222442D01*
X142466068Y-101238038D01*
X142465425Y-101238236D01*
X142422090Y-101251647D01*
X142379481Y-101264929D01*
X142340166Y-101277274D01*
X142306714Y-101287874D01*
X142281694Y-101295922D01*
X142274925Y-101298145D01*
X142208868Y-101319757D01*
X142135162Y-101343370D01*
X142058240Y-101367583D01*
X141982533Y-101390995D01*
X141941550Y-101403468D01*
X141901212Y-101415831D01*
X141859388Y-101428943D01*
X141819924Y-101441580D01*
X141786664Y-101452515D01*
X141773275Y-101457062D01*
X141739306Y-101468447D01*
X141702302Y-101480305D01*
X141668309Y-101490717D01*
X141655800Y-101494364D01*
X141623279Y-101504329D01*
X141587909Y-101516250D01*
X141556840Y-101527707D01*
X141554200Y-101528752D01*
X141529735Y-101537936D01*
X141497288Y-101549301D01*
X141460898Y-101561468D01*
X141424603Y-101573062D01*
X141420850Y-101574225D01*
X141382375Y-101586528D01*
X141335744Y-101602124D01*
X141283289Y-101620174D01*
X141227340Y-101639838D01*
X141170230Y-101660278D01*
X141114291Y-101680654D01*
X141061853Y-101700129D01*
X141015249Y-101717864D01*
X140976811Y-101733018D01*
X140958906Y-101740410D01*
X140892425Y-101774677D01*
X140831490Y-101818786D01*
X140776170Y-101872633D01*
X140726532Y-101936114D01*
X140682645Y-102009127D01*
X140644576Y-102091567D01*
X140612392Y-102183330D01*
X140586163Y-102284312D01*
X140578356Y-102322052D01*
X140573898Y-102352537D01*
X140570432Y-102391515D01*
X140567954Y-102436854D01*
X140566463Y-102486420D01*
X140565956Y-102538080D01*
X140566432Y-102589702D01*
M02*
